<svg xmlns="http://www.w3.org/2000/svg" width="24" height="24" fill="none"><path fill="#000" d="M2.667 19.8a13.5 13.5 0 0 1 4.184-2.784Q9.234 16 12 16t5.15 1.016a13.5 13.5 0 0 1 4.183 2.784V2.667H2.667ZM12 13.333q1.933 0 3.3-1.366t1.367-3.3q0-1.935-1.367-3.3Q13.934 4 12 4T8.7 5.367q-1.367 1.365-1.367 3.3t1.367 3.3 3.3 1.366M2.667 24q-1.101 0-1.884-.783A2.57 2.57 0 0 1 0 21.333V2.667Q0 1.566.783.783A2.57 2.57 0 0 1 2.667 0h18.666q1.101 0 1.884.783T24 2.667v18.666a2.57 2.57 0 0 1-.783 1.884 2.57 2.57 0 0 1-1.884.783Zm2.666-2.667h13.334V21a9.7 9.7 0 0 0-3.1-1.75A10.9 10.9 0 0 0 12 18.668a10.9 10.9 0 0 0-3.567.584A9.7 9.7 0 0 0 5.333 21ZM12 10.667a1.93 1.93 0 0 1-1.416-.584A1.93 1.93 0 0 1 10 8.667q0-.834.584-1.416.582-.584 1.416-.584t1.416.584q.585.582.584 1.416 0 .832-.584 1.416-.582.584-1.416.584"/></svg>