<svg xmlns="http://www.w3.org/2000/svg" width="45" height="45"><path d="M40.86 45H4.14C1.86 45 0 43.14 0 40.86V4.14C0 1.86 1.86 0 4.14 0h36.72C43.14 0 45 1.86 45 4.14v36.72c0 2.28-1.86 4.14-4.14 4.14"/><path fill="#FFF" d="M4.208 33.58V22.93h3.025c3.56 0 5.517 1.8 5.517 5.01 0 3.84-2.136 5.64-5.606 5.64zm1.928-1.62h1.097c2.106 0 3.5-1.14 3.5-3.93 0-2.31-1.364-3.51-3.648-3.51h-.95zm9.194-9.75c.683 0 1.068.45 1.068 1.05 0 .57-.385 1.05-1.067 1.05-.683 0-1.068-.42-1.068-1.05.03-.54.385-1.05 1.068-1.05Zm.92 11.37h-1.81V25.6l1.81-.09zm4.39-1.56h1.898c1.69 0 2.432.69 2.432 1.98 0 1.53-1.245 2.76-4.123 2.76-2.254 0-3.292-.81-3.292-2.07 0-.75.415-1.38 1.216-1.74v-.06c-.356-.18-.623-.6-.623-1.08 0-.51.297-.96.89-1.2v-.06c-.712-.42-1.127-1.08-1.127-2.13 0-1.95 1.305-3 3.292-3 .445 0 .83.06 1.216.15h2.551v1.23h-1.216v.06c.327.27.623.81.623 1.5 0 1.77-1.186 2.7-3.352 2.7-.356 0-.682-.06-1.008-.12-.208.12-.326.3-.326.51-.06.36.207.57.949.57m.326 3.36c1.72 0 2.343-.45 2.343-1.08 0-.48-.296-.72-1.067-.75l-2.64-.09c-.297.21-.445.48-.445.84.03.66.593 1.08 1.81 1.08Zm1.69-7.14c0-.96-.533-1.5-1.542-1.5-.89 0-1.542.51-1.542 1.59 0 1.05.564 1.47 1.513 1.47.979.03 1.572-.42 1.572-1.56Z"/><path fill="#E1700D" d="M27.047 22.21c.682 0 1.067.45 1.067 1.05 0 .57-.385 1.05-1.067 1.05-.683 0-1.068-.42-1.068-1.05.03-.54.385-1.05 1.068-1.05m.92 11.37h-1.81V25.6l1.81-.09zm2.283 0V22.93h3.025c3.56 0 5.517 1.8 5.517 5.01 0 3.84-2.135 5.64-5.606 5.64zm1.928-1.62h1.097c2.106 0 3.5-1.14 3.5-3.93 0-2.31-1.364-3.51-3.648-3.51h-.949z"/></svg>