<svg xmlns="http://www.w3.org/2000/svg" width="55" height="55" fill="none"><g clip-path="url(#a)"><g filter="url(#b)" transform="translate(-4.5 -4.606)"><path fill="url(#c)" d="M12.8 26.859c0-2.868 0-4.302.558-5.397a5.12 5.12 0 0 1 2.237-2.238c1.096-.558 2.53-.558 5.397-.558h22.016c2.867 0 4.3 0 5.396.558a5.12 5.12 0 0 1 2.238 2.238c.558 1.095.558 2.529.558 5.397v10.495c0 2.868 0 4.302-.558 5.397a5.12 5.12 0 0 1-2.238 2.237c-1.095.558-2.529.558-5.396.558H20.992c-2.868 0-4.301 0-5.397-.558a5.12 5.12 0 0 1-2.237-2.237c-.558-1.095-.558-2.53-.558-5.397Z" style="fill:url(#c)"/><path fill="#383ede" fill-opacity=".5" d="M12.8 26.859c0-2.868 0-4.302.558-5.397a5.12 5.12 0 0 1 2.237-2.238c1.096-.558 2.53-.558 5.397-.558h22.016c2.867 0 4.3 0 5.396.558a5.12 5.12 0 0 1 2.238 2.238c.558 1.095.558 2.529.558 5.397v10.495c0 2.868 0 4.302-.558 5.397a5.12 5.12 0 0 1-2.238 2.237c-1.095.558-2.529.558-5.396.558H20.992c-2.868 0-4.301 0-5.397-.558a5.12 5.12 0 0 1-2.237-2.237c-.558-1.095-.558-2.53-.558-5.397Z"/></g><path fill="#fff" fill-rule="evenodd" d="M20.72 14.061h8.964l2.537 6.972c.62 1.7.929 2.551.593 3.272s-1.187 1.03-2.888 1.65l-.698.254c-1.701.619-2.552.928-3.273.592-.72-.336-1.03-1.186-1.65-2.887zm7.897 9.423a1.404 1.404 0 1 0-.96-2.638 1.404 1.404 0 0 0 .96 2.638" clip-rule="evenodd"/></g><defs><linearGradient id="c" x1="13.97" x2="55.543" y1="18.666" y2="31.822" gradientUnits="userSpaceOnUse"><stop stop-color="#576EE8"/><stop offset="1" stop-color="#8060FF"/></linearGradient><clipPath id="a"><path fill="#fff" d="M0 0h64v64H0Z"/></clipPath><filter id="b" width="53.4" height="41.88" x="6.55" y="14.666" color-interpolation-filters="sRGB" filterUnits="userSpaceOnUse"><feFlood flood-opacity="0" result="BackgroundImageFix"/><feColorMatrix in="SourceAlpha" result="hardAlpha" values="0 0 0 0 0 0 0 0 0 0 0 0 0 0 0 0 0 0 127 0"/><feOffset dx="1.25" dy="3.5"/><feGaussianBlur stdDeviation="3.75"/><feComposite in2="hardAlpha" operator="out"/><feColorMatrix values="0 0 0 0 0.698039 0 0 0 0 0.670588 0 0 0 0 1 0 0 0 1 0"/><feBlend in2="BackgroundImageFix" result="effect1_dropShadow_21703_2622"/><feBlend in="SourceGraphic" in2="effect1_dropShadow_21703_2622" result="shape"/></filter></defs></svg>