<svg width="512" height="512" viewBox="0 0 512 512" fill="none" xmlns="http://www.w3.org/2000/svg">
<g clip-path="url(#clip0_26861_394)">
<mask id="mask0_26861_394" style="mask-type:luminance" maskUnits="userSpaceOnUse" x="0" y="0" width="512" height="512">
<rect width="512" height="512" rx="9.48148" fill="white"/>
</mask>
<g mask="url(#mask0_26861_394)">
<rect width="512" height="512" fill="#FFEECE"/>
<rect width="512" height="512" stroke="black" stroke-width="1.18519" stroke-linejoin="bevel"/>
<rect width="512" height="512" fill="#F2F1FE"/>
<g clip-path="url(#clip1_26861_394)">
<g filter="url(#filter0_d_26861_394)">
<path d="M107.852 214.914C107.852 192.788 107.852 181.725 112.158 173.274C115.945 165.841 121.989 159.797 129.423 156.01C137.873 151.704 148.936 151.704 171.062 151.704H340.938C363.064 151.704 374.127 151.704 382.577 156.01C390.011 159.797 396.055 165.841 399.842 173.274C404.148 181.725 404.148 192.788 404.148 214.914V295.901C404.148 318.027 404.148 329.09 399.842 337.54C396.055 344.974 390.011 351.018 382.577 354.805C374.127 359.111 363.064 359.111 340.938 359.111H171.062C148.936 359.111 137.873 359.111 129.423 354.805C121.989 351.018 115.945 344.974 112.158 337.54C107.852 329.09 107.852 318.027 107.852 295.901V214.914Z" fill="url(#paint0_linear_26861_394)"/>
<path d="M107.852 214.914C107.852 192.788 107.852 181.725 112.158 173.274C115.945 165.841 121.989 159.797 129.423 156.01C137.873 151.704 148.936 151.704 171.062 151.704H340.938C363.064 151.704 374.127 151.704 382.577 156.01C390.011 159.797 396.055 165.841 399.842 173.274C404.148 181.725 404.148 192.788 404.148 214.914V295.901C404.148 318.027 404.148 329.09 399.842 337.54C396.055 344.974 390.011 351.018 382.577 354.805C374.127 359.111 363.064 359.111 340.938 359.111H171.062C148.936 359.111 137.873 359.111 129.423 354.805C121.989 351.018 115.945 344.974 112.158 337.54C107.852 329.09 107.852 318.027 107.852 295.901V214.914Z" fill="#383EDE" fill-opacity="0.5"/>
<path fill-rule="evenodd" clip-rule="evenodd" d="M203.686 151.704H272.851L292.432 205.501C297.209 218.626 299.598 225.189 297.005 230.751C294.411 236.312 287.849 238.701 274.724 243.478L269.334 245.439C256.209 250.216 249.647 252.605 244.085 250.012C238.524 247.418 236.135 240.856 231.358 227.73L203.686 151.704ZM264.619 224.419C270.241 222.373 273.14 216.157 271.094 210.535C269.047 204.913 262.831 202.015 257.21 204.061C251.588 206.107 248.689 212.323 250.735 217.945C252.782 223.566 258.998 226.465 264.619 224.419Z" fill="white"/>
</g>
</g>
</g>
</g>
<defs>
<filter id="filter0_d_26861_394" x="-2.58357" y="63.1113" width="539.022" height="450.133" filterUnits="userSpaceOnUse" color-interpolation-filters="sRGB">
<feFlood flood-opacity="0" result="BackgroundImageFix"/>
<feColorMatrix in="SourceAlpha" type="matrix" values="0 0 0 0 0 0 0 0 0 0 0 0 0 0 0 0 0 0 127 0" result="hardAlpha"/>
<feMorphology radius="48.545" operator="dilate" in="SourceAlpha" result="effect1_dropShadow_26861_394"/>
<feOffset dx="10.9274" dy="32.7704"/>
<feGaussianBlur stdDeviation="36.4089"/>
<feComposite in2="hardAlpha" operator="out"/>
<feColorMatrix type="matrix" values="0 0 0 0 0.698039 0 0 0 0 0.670588 0 0 0 0 1 0 0 0 1 0"/>
<feBlend mode="normal" in2="BackgroundImageFix" result="effect1_dropShadow_26861_394"/>
<feBlend mode="normal" in="SourceGraphic" in2="effect1_dropShadow_26861_394" result="shape"/>
</filter>
<linearGradient id="paint0_linear_26861_394" x1="116.885" y1="151.704" x2="437.66" y2="253.209" gradientUnits="userSpaceOnUse">
<stop stop-color="#576EE8"/>
<stop offset="1" stop-color="#8060FF"/>
</linearGradient>
<clipPath id="clip0_26861_394">
<rect width="512" height="512" rx="113.778" fill="white"/>
</clipPath>
<clipPath id="clip1_26861_394">
<rect width="512" height="512" fill="white"/>
</clipPath>
</defs>
</svg>
