<?xml version="1.0" encoding="UTF-8"?>
<svg class="gsndiagram" viewBox="0 0 1857 2649" xmlns="http://www.w3.org/2000/svg">
<defs>
<marker id="supportedby_arrow" markerHeight="9" markerUnits="userSpaceOnUse" markerWidth="10" orient="auto-start-reverse" refX="0" refY="4.5">
<polyline fill="black" points="0 0, 10 4.5, 0 9"/>
</marker>
<marker id="incontextof_arrow" markerHeight="9" markerUnits="userSpaceOnUse" markerWidth="10" orient="auto-start-reverse" refX="0" refY="4.5">
<polyline fill-opacity="0" points="0 0, 10 4.5, 0 9, 0 0" stroke="black" stroke-width="1"/>
</marker>
</defs>
<style type="text/css">
svg { background-color: white;}

/* CSS to invert SVG for dark mode */ 
@media (prefers-color-scheme: dark) {
    svg { filter: invert(100%); background-color: black; }
}

</style>
<g class="gsn_module_sole_control_main gsnelem gsngoal" id="node_g_solecontrol">
<title>G_SoleControl</title>
<path class="border" d="M814,35 L964,35 L964,105 L814,105 z" fill-opacity="0" stroke="black" stroke-width="1"/>
<text font-family="Liberation Sans, Arial, sans-serif" font-size="12px" font-weight="bold" x="821" y="55">G_SoleControl</text>
<text font-family="Liberation Sans, Arial, sans-serif" font-size="12px" x="821" y="73">PID issuer has assurance</text>
<text font-family="Liberation Sans, Arial, sans-serif" font-size="12px" x="821" y="86">that User will have sole</text>
<text font-family="Liberation Sans, Arial, sans-serif" font-size="12px" x="821" y="99">control over the PID</text>
</g>
<g class="gsn_module_sole_control_main gsnelem gsnasmp" id="node_a_pidissuertrustswb">
<title>A_PidIssuerTrustsWb</title>
<path class="border" d="M1004,70 a108,50,0,1,0,217,0 a108,50,0,1,0,-217,0 z" fill-opacity="0" stroke="black" stroke-width="1"/>
<text font-family="Liberation Sans, Arial, sans-serif" font-size="12px" font-weight="bold" x="1042" y="49">A_PidIssuerTrustsWb</text>
<text font-family="Liberation Sans, Arial, sans-serif" font-size="12px" x="1042" y="67">PID issuer trusts WB to</text>
<text font-family="Liberation Sans, Arial, sans-serif" font-size="12px" x="1042" y="80">issue WUA only to wallets</text>
<text font-family="Liberation Sans, Arial, sans-serif" font-size="12px" x="1042" y="93">implementing Sole Control</text>
<text font-family="Liberation Sans, Arial, sans-serif" font-size="12px" font-weight="bold" x="1215" y="115">A</text>
</g>
<g class="gsn_module_sole_control_main gsnelem gsngoal" id="node_g_wbenforcessolecontrol">
<title>G_WbEnforcesSoleControl</title>
<path class="border" d="M707,160 L873,160 L873,244 L707,244 z" fill-opacity="0" stroke="black" stroke-width="1"/>
<text font-family="Liberation Sans, Arial, sans-serif" font-size="12px" font-weight="bold" x="714" y="180">G_WbEnforcesSoleControl</text>
<text font-family="Liberation Sans, Arial, sans-serif" font-size="12px" x="714" y="198">WB enforces that the User</text>
<text font-family="Liberation Sans, Arial, sans-serif" font-size="12px" x="714" y="211">has sole control over all</text>
<text font-family="Liberation Sans, Arial, sans-serif" font-size="12px" x="714" y="224">attestations managed in</text>
<text font-family="Liberation Sans, Arial, sans-serif" font-size="12px" x="714" y="237">Wallet</text>
</g>
<g class="gsn_module_sole_control_main gsnelem gsngoal gsn_undeveloped" id="node_g_wbissueswua">
<title>G_WbIssuesWua</title>
<path class="border" d="M913,177 L1065,177 L1065,227 L913,227 z" fill-opacity="0" stroke="black" stroke-width="1"/>
<text font-family="Liberation Sans, Arial, sans-serif" font-size="12px" font-weight="bold" x="920" y="197">G_WbIssuesWua</text>
<text font-family="Liberation Sans, Arial, sans-serif" font-size="12px" x="920" y="215">WB issues WUA to Wallet</text>
<path d="M989,227 l5,5 l-5,5 l-5,-5 z" fill-opacity="0" stroke="black" stroke-width="1"/>
</g>
<g class="gsn_module_sole_control_main gsnelem gsnctxt" id="node_c_attestationdefinition">
<title>C_AttestationDefinition</title>
<path class="border" d="M30,299 L176,299 C186,299,186,369,176,369 L30,369 C20,369,20,299,30,299" fill-opacity="0" stroke="black" stroke-width="1"/>
<text font-family="Liberation Sans, Arial, sans-serif" font-size="12px" font-weight="bold" x="37" y="319">C_AttestationDefinition</text>
<text font-family="Liberation Sans, Arial, sans-serif" font-size="12px" x="37" y="337">Attestation consists of</text>
<text font-family="Liberation Sans, Arial, sans-serif" font-size="12px" x="37" y="350">PrivKey and Attestation</text>
<text font-family="Liberation Sans, Arial, sans-serif" font-size="12px" x="37" y="363">Data</text>
</g>
<g class="gsn_module_sole_control_main gsnelem gsngoal" id="node_g_privkeyexclusivecustody">
<title>G_PrivKeyExclusiveCustody</title>
<path class="border" d="M226,299 L402,299 L402,369 L226,369 z" fill-opacity="0" stroke="black" stroke-width="1"/>
<text font-family="Liberation Sans, Arial, sans-serif" font-size="12px" font-weight="bold" x="233" y="319">G_PrivKeyExclusiveCustody</text>
<text font-family="Liberation Sans, Arial, sans-serif" font-size="12px" x="233" y="337">PrivKey remains under</text>
<text font-family="Liberation Sans, Arial, sans-serif" font-size="12px" x="233" y="350">exclusive custody of WB</text>
<text font-family="Liberation Sans, Arial, sans-serif" font-size="12px" x="233" y="363">and is never exposed</text>
</g>
<g class="gsn_module_sole_control_main gsnelem gsnasmp" id="node_a_wbistrusted">
<title>A_WbIsTrusted</title>
<path class="border" d="M442,334 a102,50,0,1,0,205,0 a102,50,0,1,0,-205,0 z" fill-opacity="0" stroke="black" stroke-width="1"/>
<text font-family="Liberation Sans, Arial, sans-serif" font-size="12px" font-weight="bold" x="478" y="313">A_WbIsTrusted</text>
<text font-family="Liberation Sans, Arial, sans-serif" font-size="12px" x="478" y="331">WB is trusted by Issuers,</text>
<text font-family="Liberation Sans, Arial, sans-serif" font-size="12px" x="478" y="344">Verifiers, Wallets to not</text>
<text font-family="Liberation Sans, Arial, sans-serif" font-size="12px" x="478" y="357">obtain Attestation Data</text>
<text font-family="Liberation Sans, Arial, sans-serif" font-size="12px" font-weight="bold" x="641" y="379">A</text>
</g>
<g class="gsn_module_sole_control_2fa gsnelem gsngoal" id="node_g_privkeyrequires2fa">
<title>G_PrivKeyRequires2fa</title>
<path class="border" d="M1185,299 L1349,299 L1349,369 L1185,369 z" fill-opacity="0" stroke="black" stroke-width="1"/>
<text font-family="Liberation Sans, Arial, sans-serif" font-size="12px" font-weight="bold" x="1192" y="319">G_PrivKeyRequires2fa</text>
<text font-family="Liberation Sans, Arial, sans-serif" font-size="12px" x="1192" y="337">WB allows usage of PrivKey</text>
<text font-family="Liberation Sans, Arial, sans-serif" font-size="12px" x="1192" y="350">only after 2FA</text>
<text font-family="Liberation Sans, Arial, sans-serif" font-size="12px" x="1192" y="363">authentication of User</text>
</g>
<g class="gsn_module_sole_control_main gsnelem gsnstgy" id="node_s_ensureprivkeysecure">
<title>S_EnsurePrivKeySecure</title>
<path class="border" d="M237,498 L405,498 L391,568 L223,568 z" fill-opacity="0" stroke="black" stroke-width="1"/>
<text font-family="Liberation Sans, Arial, sans-serif" font-size="12px" font-weight="bold" x="244" y="518">S_EnsurePrivKeySecure</text>
<text font-family="Liberation Sans, Arial, sans-serif" font-size="12px" x="242" y="536">Ensure secure generation,</text>
<text font-family="Liberation Sans, Arial, sans-serif" font-size="12px" x="240" y="549">storage, and usage of</text>
<text font-family="Liberation Sans, Arial, sans-serif" font-size="12px" x="238" y="562">PrivKey</text>
</g>
<g class="gsn_module_sole_control_main gsnelem gsnasmp" id="node_a_wbtrustshsmvendor">
<title>A_WbTrustsHsmVendor</title>
<path class="border" d="M438,533 a112,41,0,1,0,224,0 a112,41,0,1,0,-224,0 z" fill-opacity="0" stroke="black" stroke-width="1"/>
<text font-family="Liberation Sans, Arial, sans-serif" font-size="12px" font-weight="bold" x="478" y="518">A_WbTrustsHsmVendor</text>
<text font-family="Liberation Sans, Arial, sans-serif" font-size="12px" x="478" y="536">WB trusts HSM vendor and</text>
<text font-family="Liberation Sans, Arial, sans-serif" font-size="12px" x="478" y="549">certification</text>
<text font-family="Liberation Sans, Arial, sans-serif" font-size="12px" font-weight="bold" x="657" y="569">A</text>
</g>
<g class="gsn_module_sole_control_main gsnelem gsnsltn" id="node_sn_walletstoresattestationdata">
<title>Sn_WalletStoresAttestationData</title>
<path class="border" d="M702,533 a109,109,0,1,0,218,0 a109,109,0,1,0,-218,0 z" fill-opacity="0" stroke="black" stroke-width="1"/>
<text font-family="Liberation Sans, Arial, sans-serif" font-size="12px" font-weight="bold" x="720" y="512">Sn_WalletStoresAttestationData</text>
<text font-family="Liberation Sans, Arial, sans-serif" font-size="12px" x="720" y="530">Wallet stores and maintains</text>
<text font-family="Liberation Sans, Arial, sans-serif" font-size="12px" x="720" y="543">Attestation Data but not</text>
<text font-family="Liberation Sans, Arial, sans-serif" font-size="12px" x="720" y="556">PrivKey</text>
</g>
<g class="gsn_module_sole_control_2fa gsnelem gsnstgy" id="node_s_possessionandknowledge">
<title>S_PossessionAndKnowledge</title>
<path class="border" d="M1176,504 L1372,504 L1358,562 L1162,562 z" fill-opacity="0" stroke="black" stroke-width="1"/>
<text font-family="Liberation Sans, Arial, sans-serif" font-size="12px" font-weight="bold" x="1183" y="524">S_PossessionAndKnowledge</text>
<text font-family="Liberation Sans, Arial, sans-serif" font-size="12px" x="1180" y="542">Use possession &amp; knowledge</text>
<text font-family="Liberation Sans, Arial, sans-serif" font-size="12px" x="1177" y="555">factor</text>
</g>
<g class="gsn_module_sole_control_main gsnelem gsngoal" id="node_g_privkeycannotbeextracted">
<title>G_PrivKeyCannotBeExtracted</title>
<path class="border" d="M24,703 L208,703 L208,761 L24,761 z" fill-opacity="0" stroke="black" stroke-width="1"/>
<text font-family="Liberation Sans, Arial, sans-serif" font-size="12px" font-weight="bold" x="31" y="723">G_PrivKeyCannotBeExtracted</text>
<text font-family="Liberation Sans, Arial, sans-serif" font-size="12px" x="31" y="741">PrivKey cannot be extracted</text>
<text font-family="Liberation Sans, Arial, sans-serif" font-size="12px" x="31" y="754">or copied from HSM</text>
</g>
<g class="gsn_module_sole_control_main gsnelem gsngoal" id="node_g_privkeyinhsm">
<title>G_PrivKeyInHsm</title>
<path class="border" d="M283,697 L413,697 L413,767 L283,767 z" fill-opacity="0" stroke="black" stroke-width="1"/>
<text font-family="Liberation Sans, Arial, sans-serif" font-size="12px" font-weight="bold" x="290" y="717">G_PrivKeyInHsm</text>
<text font-family="Liberation Sans, Arial, sans-serif" font-size="12px" x="290" y="735">PrivKey is generated</text>
<text font-family="Liberation Sans, Arial, sans-serif" font-size="12px" x="290" y="748">inside a certified HSM</text>
<text font-family="Liberation Sans, Arial, sans-serif" font-size="12px" x="290" y="761">controlled by WB</text>
</g>
<g class="gsn_module_sole_control_2fa gsnelem gsngoal" id="node_g_maintain2faintegrity">
<title>G_Maintain2faIntegrity</title>
<path class="border" d="M842,703 L986,703 L986,761 L842,761 z" fill-opacity="0" stroke="black" stroke-width="1"/>
<text font-family="Liberation Sans, Arial, sans-serif" font-size="12px" font-weight="bold" x="849" y="723">G_Maintain2faIntegrity</text>
<text font-family="Liberation Sans, Arial, sans-serif" font-size="12px" x="849" y="741">Maintain integrity of both</text>
<text font-family="Liberation Sans, Arial, sans-serif" font-size="12px" x="849" y="754">2FA factors</text>
</g>
<g class="gsn_module_sole_control_2fa gsnelem gsnasmp" id="node_a_userdoesnotsharepin">
<title>A_UserDoesNotSharePin</title>
<path class="border" d="M1026,732 a110,50,0,1,0,221,0 a110,50,0,1,0,-221,0 z" fill-opacity="0" stroke="black" stroke-width="1"/>
<text font-family="Liberation Sans, Arial, sans-serif" font-size="12px" font-weight="bold" x="1065" y="711">A_UserDoesNotSharePin</text>
<text font-family="Liberation Sans, Arial, sans-serif" font-size="12px" x="1065" y="729">User does not share</text>
<text font-family="Liberation Sans, Arial, sans-serif" font-size="12px" x="1065" y="742">knowledge factor with</text>
<text font-family="Liberation Sans, Arial, sans-serif" font-size="12px" x="1065" y="755">anyone</text>
<text font-family="Liberation Sans, Arial, sans-serif" font-size="12px" font-weight="bold" x="1241" y="777">A</text>
</g>
<g class="gsn_module_sole_control_2fa gsnelem gsngoal" id="node_g_use2fa">
<title>G_Use2fa</title>
<path class="border" d="M1549,703 L1693,703 L1693,761 L1549,761 z" fill-opacity="0" stroke="black" stroke-width="1"/>
<text font-family="Liberation Sans, Arial, sans-serif" font-size="12px" font-weight="bold" x="1556" y="723">G_Use2fa</text>
<text font-family="Liberation Sans, Arial, sans-serif" font-size="12px" x="1556" y="741">Require 2FA auth before</text>
<text font-family="Liberation Sans, Arial, sans-serif" font-size="12px" x="1556" y="754">allowing PrivKey usage</text>
</g>
<g class="gsn_module_sole_control_main gsnelem gsnsltn" id="node_sn_hsmenforcesnonexport">
<title>Sn_HsmEnforcesNonExport</title>
<path class="border" d="M20,918 a96,96,0,1,0,192,0 a96,96,0,1,0,-192,0 z" fill-opacity="0" stroke="black" stroke-width="1"/>
<text font-family="Liberation Sans, Arial, sans-serif" font-size="12px" font-weight="bold" x="36" y="903">Sn_HsmEnforcesNonExport</text>
<text font-family="Liberation Sans, Arial, sans-serif" font-size="12px" x="36" y="921">HSM enforces non-export</text>
<text font-family="Liberation Sans, Arial, sans-serif" font-size="12px" x="36" y="934">policy for PrivKey</text>
</g>
<g class="gsn_module_sole_control_main gsnelem gsnsltn" id="node_sn_wbuseshsmforprivkey">
<title>Sn_WbUsesHsmForPrivKey</title>
<path class="border" d="M252,918 a96,96,0,1,0,192,0 a96,96,0,1,0,-192,0 z" fill-opacity="0" stroke="black" stroke-width="1"/>
<text font-family="Liberation Sans, Arial, sans-serif" font-size="12px" font-weight="bold" x="269" y="903">Sn_WbUsesHsmForPrivKey</text>
<text font-family="Liberation Sans, Arial, sans-serif" font-size="12px" x="269" y="921">WB uses certified HSM to</text>
<text font-family="Liberation Sans, Arial, sans-serif" font-size="12px" x="269" y="934">generate &amp; protect PrivKey</text>
</g>
<g class="gsn_module_sole_control_2fa gsnelem gsngoal" id="node_g_usercanblockwallet">
<title>G_UserCanBlockWallet</title>
<path class="border" d="M484,889 L630,889 L630,947 L484,947 z" fill-opacity="0" stroke="black" stroke-width="1"/>
<text font-family="Liberation Sans, Arial, sans-serif" font-size="12px" font-weight="bold" x="491" y="909">G_UserCanBlockWallet</text>
<text font-family="Liberation Sans, Arial, sans-serif" font-size="12px" x="491" y="927">User can block wallet if</text>
<text font-family="Liberation Sans, Arial, sans-serif" font-size="12px" x="491" y="940">device is lost</text>
</g>
<g class="gsn_module_sole_control_2fa gsnelem gsngoal" id="node_g_usercanchangepin">
<title>G_UserCanChangePin</title>
<path class="border" d="M702,889 L854,889 L854,947 L702,947 z" fill-opacity="0" stroke="black" stroke-width="1"/>
<text font-family="Liberation Sans, Arial, sans-serif" font-size="12px" font-weight="bold" x="709" y="909">G_UserCanChangePin</text>
<text font-family="Liberation Sans, Arial, sans-serif" font-size="12px" x="709" y="927">User can securely change</text>
<text font-family="Liberation Sans, Arial, sans-serif" font-size="12px" x="709" y="940">PIN</text>
</g>
<g class="gsn_module_sole_control_2fa gsnelem gsngoal" id="node_g_walletdoesnotstorepin">
<title>G_WalletDoesNotStorePin</title>
<path class="border" d="M939,896 L1101,896 L1101,940 L939,940 z" fill-opacity="0" stroke="black" stroke-width="1"/>
<text font-family="Liberation Sans, Arial, sans-serif" font-size="12px" font-weight="bold" x="946" y="916">G_WalletDoesNotStorePin</text>
<text font-family="Liberation Sans, Arial, sans-serif" font-size="12px" x="946" y="934">Wallet does not store PIN</text>
</g>
<g class="gsn_module_sole_control_2fa gsnelem gsngoal" id="node_g_wbblocksoncompromise">
<title>G_WbBlocksOnCompromise</title>
<path class="border" d="M1184,889 L1360,889 L1360,947 L1184,947 z" fill-opacity="0" stroke="black" stroke-width="1"/>
<text font-family="Liberation Sans, Arial, sans-serif" font-size="12px" font-weight="bold" x="1191" y="909">G_WbBlocksOnCompromise</text>
<text font-family="Liberation Sans, Arial, sans-serif" font-size="12px" x="1191" y="927">WB blocks wallet on</text>
<text font-family="Liberation Sans, Arial, sans-serif" font-size="12px" x="1191" y="940">detected device compromise</text>
</g>
<g class="gsn_module_sole_control_2fa gsnelem gsngoal" id="node_g_userproveshwkeycontrol">
<title>G_UserProvesHwKeyControl</title>
<path class="border" d="M1419,889 L1597,889 L1597,947 L1419,947 z" fill-opacity="0" stroke="black" stroke-width="1"/>
<text font-family="Liberation Sans, Arial, sans-serif" font-size="12px" font-weight="bold" x="1426" y="909">G_UserProvesHwKeyControl</text>
<text font-family="Liberation Sans, Arial, sans-serif" font-size="12px" x="1426" y="927">User proves control of</text>
<text font-family="Liberation Sans, Arial, sans-serif" font-size="12px" x="1426" y="940">device-bound hardware key</text>
</g>
<g class="gsn_module_sole_control_2fa gsnelem gsngoal" id="node_g_userprovespin">
<title>G_UserProvesPin</title>
<path class="border" d="M1659,889 L1811,889 L1811,947 L1659,947 z" fill-opacity="0" stroke="black" stroke-width="1"/>
<text font-family="Liberation Sans, Arial, sans-serif" font-size="12px" font-weight="bold" x="1666" y="909">G_UserProvesPin</text>
<text font-family="Liberation Sans, Arial, sans-serif" font-size="12px" x="1666" y="927">User proves knowledge of</text>
<text font-family="Liberation Sans, Arial, sans-serif" font-size="12px" x="1666" y="940">PIN</text>
</g>
<g class="gsn_module_sole_control_2fa gsnelem gsnstgy" id="node_s_outofbandrevocation">
<title>S_OutOfBandRevocation</title>
<path class="border" d="M478,1126 L650,1126 L636,1196 L464,1196 z" fill-opacity="0" stroke="black" stroke-width="1"/>
<text font-family="Liberation Sans, Arial, sans-serif" font-size="12px" font-weight="bold" x="486" y="1146">S_OutOfBandRevocation</text>
<text font-family="Liberation Sans, Arial, sans-serif" font-size="12px" x="484" y="1164">Enable out-of-band</text>
<text font-family="Liberation Sans, Arial, sans-serif" font-size="12px" x="482" y="1177">revocation using</text>
<text font-family="Liberation Sans, Arial, sans-serif" font-size="12px" x="480" y="1190">server-generated code</text>
</g>
<g class="gsn_module_sole_control_2fa gsnelem gsnsltn" id="node_sn_pinchangeuses2fa">
<title>Sn_PinChangeUses2fa</title>
<path class="border" d="M683,1161 a95,95,0,1,0,190,0 a95,95,0,1,0,-190,0 z" fill-opacity="0" stroke="black" stroke-width="1"/>
<text font-family="Liberation Sans, Arial, sans-serif" font-size="12px" font-weight="bold" x="700" y="1146">Sn_PinChangeUses2fa</text>
<text font-family="Liberation Sans, Arial, sans-serif" font-size="12px" x="700" y="1164">PIN change uses normal 2FA</text>
<text font-family="Liberation Sans, Arial, sans-serif" font-size="12px" x="700" y="1177">process</text>
</g>
<g class="gsn_module_sole_control_2fa gsnelem gsnsltn" id="node_sn_walletderivespinprivatekey">
<title>Sn_WalletDerivesPinPrivateKey</title>
<path class="border" d="M913,1161 a107,107,0,1,0,214,0 a107,107,0,1,0,-214,0 z" fill-opacity="0" stroke="black" stroke-width="1"/>
<text font-family="Liberation Sans, Arial, sans-serif" font-size="12px" font-weight="bold" x="930" y="1146">Sn_WalletDerivesPinPrivateKey</text>
<text font-family="Liberation Sans, Arial, sans-serif" font-size="12px" x="930" y="1164">Wallet stores salt &amp; derives</text>
<text font-family="Liberation Sans, Arial, sans-serif" font-size="12px" x="930" y="1177">PinPrivateKey each time</text>
</g>
<g class="gsn_module_sole_control_2fa gsnelem gsnsltn" id="node_sn_wbrevokesonvulnerability">
<title>Sn_WbRevokesOnVulnerability</title>
<path class="border" d="M1167,1161 a105,105,0,1,0,210,0 a105,105,0,1,0,-210,0 z" fill-opacity="0" stroke="black" stroke-width="1"/>
<text font-family="Liberation Sans, Arial, sans-serif" font-size="12px" font-weight="bold" x="1183" y="1146">Sn_WbRevokesOnVulnerability</text>
<text font-family="Liberation Sans, Arial, sans-serif" font-size="12px" x="1183" y="1164">WB revokes keys &amp; blocks WUA</text>
<text font-family="Liberation Sans, Arial, sans-serif" font-size="12px" x="1183" y="1177">on detected vulnerability</text>
</g>
<g class="gsn_module_sole_control_2fa gsnelem gsnstgy" id="node_s_provehwkeypossession">
<title>S_ProveHwKeyPossession</title>
<path class="border" d="M1424,1126 L1606,1126 L1592,1196 L1410,1196 z" fill-opacity="0" stroke="black" stroke-width="1"/>
<text font-family="Liberation Sans, Arial, sans-serif" font-size="12px" font-weight="bold" x="1431" y="1146">S_ProveHwKeyPossession</text>
<text font-family="Liberation Sans, Arial, sans-serif" font-size="12px" x="1429" y="1164">Prove possession via</text>
<text font-family="Liberation Sans, Arial, sans-serif" font-size="12px" x="1427" y="1177">signed nonce with</text>
<text font-family="Liberation Sans, Arial, sans-serif" font-size="12px" x="1425" y="1190">device-bound key</text>
</g>
<g class="gsn_module_sole_control_2fa gsnelem gsnstgy" id="node_s_verifypinknowledge">
<title>S_VerifyPinKnowledge</title>
<path class="border" d="M1660,1126 L1824,1126 L1810,1196 L1646,1196 z" fill-opacity="0" stroke="black" stroke-width="1"/>
<text font-family="Liberation Sans, Arial, sans-serif" font-size="12px" font-weight="bold" x="1668" y="1146">S_VerifyPinKnowledge</text>
<text font-family="Liberation Sans, Arial, sans-serif" font-size="12px" x="1666" y="1164">Verify knowledge via</text>
<text font-family="Liberation Sans, Arial, sans-serif" font-size="12px" x="1664" y="1177">PIN-derived key &amp; signed</text>
<text font-family="Liberation Sans, Arial, sans-serif" font-size="12px" x="1662" y="1190">nonce</text>
</g>
<g class="gsn_module_sole_control_2fa gsnelem gsnsltn" id="node_sn_walletshowsrevocationcode">
<title>Sn_WalletShowsRevocationCode</title>
<path class="border" d="M187,1422 a111,111,0,1,0,222,0 a111,111,0,1,0,-222,0 z" fill-opacity="0" stroke="black" stroke-width="1"/>
<text font-family="Liberation Sans, Arial, sans-serif" font-size="12px" font-weight="bold" x="203" y="1407">Sn_WalletShowsRevocationCode</text>
<text font-family="Liberation Sans, Arial, sans-serif" font-size="12px" x="203" y="1425">Wallet shows revocation code</text>
<text font-family="Liberation Sans, Arial, sans-serif" font-size="12px" x="203" y="1438">securely</text>
</g>
<g class="gsn_module_sole_control_2fa gsnelem gsnsltn" id="node_sn_wbgeneratesrevocationcode">
<title>Sn_WbGeneratesRevocationCode</title>
<path class="border" d="M449,1422 a114,114,0,1,0,228,0 a114,114,0,1,0,-228,0 z" fill-opacity="0" stroke="black" stroke-width="1"/>
<text font-family="Liberation Sans, Arial, sans-serif" font-size="12px" font-weight="bold" x="467" y="1401">Sn_WbGeneratesRevocationCode</text>
<text font-family="Liberation Sans, Arial, sans-serif" font-size="12px" x="467" y="1419">WB generates revocation code</text>
<text font-family="Liberation Sans, Arial, sans-serif" font-size="12px" x="467" y="1432">and sends it to wallet during</text>
<text font-family="Liberation Sans, Arial, sans-serif" font-size="12px" x="467" y="1445">enrollment</text>
</g>
<g class="gsn_module_sole_control_2fa gsnelem gsngoal" id="node_g_usersubmitsrevocationcode">
<title>G_UserSubmitsRevocationCode</title>
<path class="border" d="M717,1387 L915,1387 L915,1457 L717,1457 z" fill-opacity="0" stroke="black" stroke-width="1"/>
<text font-family="Liberation Sans, Arial, sans-serif" font-size="12px" font-weight="bold" x="724" y="1407">G_UserSubmitsRevocationCode</text>
<text font-family="Liberation Sans, Arial, sans-serif" font-size="12px" x="724" y="1425">User can later submit</text>
<text font-family="Liberation Sans, Arial, sans-serif" font-size="12px" x="724" y="1438">revocation code to block</text>
<text font-family="Liberation Sans, Arial, sans-serif" font-size="12px" x="724" y="1451">wallet</text>
</g>
<g class="gsn_module_sole_control_2fa gsnelem gsnsltn" id="node_sn_walletsignsnonce">
<title>Sn_WalletSignsNonce</title>
<path class="border" d="M1423,1422 a85,85,0,1,0,170,0 a85,85,0,1,0,-170,0 z" fill-opacity="0" stroke="black" stroke-width="1"/>
<text font-family="Liberation Sans, Arial, sans-serif" font-size="12px" font-weight="bold" x="1440" y="1407">Sn_WalletSignsNonce</text>
<text font-family="Liberation Sans, Arial, sans-serif" font-size="12px" x="1440" y="1425">Wallet signs WB-provided</text>
<text font-family="Liberation Sans, Arial, sans-serif" font-size="12px" x="1440" y="1438">nonce with HwPrivateKey</text>
</g>
<g class="gsn_module_sole_control_2fa gsnelem gsnsltn" id="node_sn_walletsignsnoncewithpin">
<title>Sn_WalletSignsNonceWithPin</title>
<path class="border" d="M1633,1422 a102,102,0,1,0,204,0 a102,102,0,1,0,-204,0 z" fill-opacity="0" stroke="black" stroke-width="1"/>
<text font-family="Liberation Sans, Arial, sans-serif" font-size="12px" font-weight="bold" x="1650" y="1407">Sn_WalletSignsNonceWithPin</text>
<text font-family="Liberation Sans, Arial, sans-serif" font-size="12px" x="1650" y="1425">Wallet signs WB-provided</text>
<text font-family="Liberation Sans, Arial, sans-serif" font-size="12px" x="1650" y="1438">nonce with PinPrivateKey</text>
</g>
<g class="gsn_module_sole_control_2fa gsnelem gsnsltn" id="node_sn_wbblocksonrevocationcode">
<title>Sn_WbBlocksOnRevocationCode</title>
<path class="border" d="M704,1688 a112,112,0,1,0,224,0 a112,112,0,1,0,-224,0 z" fill-opacity="0" stroke="black" stroke-width="1"/>
<text font-family="Liberation Sans, Arial, sans-serif" font-size="12px" font-weight="bold" x="721" y="1673">Sn_WbBlocksOnRevocationCode</text>
<text font-family="Liberation Sans, Arial, sans-serif" font-size="12px" x="721" y="1691">WB blocks wallet upon valid</text>
<text font-family="Liberation Sans, Arial, sans-serif" font-size="12px" x="721" y="1704">revocation code</text>
</g>
<g class="gsn_module_sole_control_2fa gsnelem gsngoal" id="node_g_registerenrollment">
<title>G_RegisterEnrollment</title>
<path class="border" d="M968,1653 L1108,1653 L1108,1723 L968,1723 z" fill-opacity="0" stroke="black" stroke-width="1"/>
<text font-family="Liberation Sans, Arial, sans-serif" font-size="12px" font-weight="bold" x="975" y="1673">G_RegisterEnrollment</text>
<text font-family="Liberation Sans, Arial, sans-serif" font-size="12px" x="975" y="1691">Register possession &amp;</text>
<text font-family="Liberation Sans, Arial, sans-serif" font-size="12px" x="975" y="1704">knowledge factors via</text>
<text font-family="Liberation Sans, Arial, sans-serif" font-size="12px" x="975" y="1717">enrollment message</text>
</g>
<g class="gsn_module_sole_control_2fa gsnelem gsnasmp" id="node_a_wbtrustsapplegoogle">
<title>A_WbTrustsAppleGoogle</title>
<path class="border" d="M1148,1688 a116,50,0,1,0,233,0 a116,50,0,1,0,-233,0 z" fill-opacity="0" stroke="black" stroke-width="1"/>
<text font-family="Liberation Sans, Arial, sans-serif" font-size="12px" font-weight="bold" x="1188" y="1667">A_WbTrustsAppleGoogle</text>
<text font-family="Liberation Sans, Arial, sans-serif" font-size="12px" x="1188" y="1685">WB trusts Apple/Google Key</text>
<text font-family="Liberation Sans, Arial, sans-serif" font-size="12px" x="1188" y="1698">and App Attestation</text>
<text font-family="Liberation Sans, Arial, sans-serif" font-size="12px" x="1188" y="1711">services</text>
<text font-family="Liberation Sans, Arial, sans-serif" font-size="12px" font-weight="bold" x="1375" y="1733">A</text>
</g>
<g class="gsn_module_sole_control_2fa_registration gsnelem gsngoal" id="node_g_enrollmentfreshness">
<title>G_EnrollmentFreshness</title>
<path class="border" d="M32,1846 L194,1846 L194,1904 L32,1904 z" fill-opacity="0" stroke="black" stroke-width="1"/>
<text font-family="Liberation Sans, Arial, sans-serif" font-size="12px" font-weight="bold" x="39" y="1866">G_EnrollmentFreshness</text>
<text font-family="Liberation Sans, Arial, sans-serif" font-size="12px" x="39" y="1884">Enrollment proves message</text>
<text font-family="Liberation Sans, Arial, sans-serif" font-size="12px" x="39" y="1897">freshness</text>
</g>
<g class="gsn_module_sole_control_2fa_registration gsnelem gsngoal" id="node_g_walletregistersknowledgefactor">
<title>G_WalletRegistersKnowledgeFactor</title>
<path class="border" d="M319,1846 L539,1846 L539,1904 L319,1904 z" fill-opacity="0" stroke="black" stroke-width="1"/>
<text font-family="Liberation Sans, Arial, sans-serif" font-size="12px" font-weight="bold" x="326" y="1866">G_WalletRegistersKnowledgeFactor</text>
<text font-family="Liberation Sans, Arial, sans-serif" font-size="12px" x="326" y="1884">Wallet registers knowledge factor</text>
<text font-family="Liberation Sans, Arial, sans-serif" font-size="12px" x="326" y="1897">at WB</text>
</g>
<g class="gsn_module_sole_control_2fa_registration gsnelem gsngoal" id="node_g_walletregisterspossesionfactor">
<title>G_WalletRegistersPossesionFactor</title>
<path class="border" d="M822,1846 L1038,1846 L1038,1904 L822,1904 z" fill-opacity="0" stroke="black" stroke-width="1"/>
<text font-family="Liberation Sans, Arial, sans-serif" font-size="12px" font-weight="bold" x="829" y="1866">G_WalletRegistersPossesionFactor</text>
<text font-family="Liberation Sans, Arial, sans-serif" font-size="12px" x="829" y="1884">Wallet registers possession</text>
<text font-family="Liberation Sans, Arial, sans-serif" font-size="12px" x="829" y="1897">factor at WB</text>
</g>
<g class="gsn_module_sole_control_2fa_registration gsnelem gsngoal" id="node_g_wbverifiesapp">
<title>G_WbVerifiesApp</title>
<path class="border" d="M1221,1840 L1373,1840 L1373,1910 L1221,1910 z" fill-opacity="0" stroke="black" stroke-width="1"/>
<text font-family="Liberation Sans, Arial, sans-serif" font-size="12px" font-weight="bold" x="1228" y="1860">G_WbVerifiesApp</text>
<text font-family="Liberation Sans, Arial, sans-serif" font-size="12px" x="1228" y="1878">WB verifies that NL Wallet</text>
<text font-family="Liberation Sans, Arial, sans-serif" font-size="12px" x="1228" y="1891">app runs on a trustworthy</text>
<text font-family="Liberation Sans, Arial, sans-serif" font-size="12px" x="1228" y="1904">device</text>
</g>
<g class="gsn_module_sole_control_2fa_registration gsnelem gsnsltn" id="node_sn_wbprovidesnonce">
<title>Sn_WbProvidesNonce</title>
<path class="border" d="M20,2064 a93,93,0,1,0,186,0 a93,93,0,1,0,-186,0 z" fill-opacity="0" stroke="black" stroke-width="1"/>
<text font-family="Liberation Sans, Arial, sans-serif" font-size="12px" font-weight="bold" x="42" y="2036">Sn_WbProvidesNonce</text>
<text font-family="Liberation Sans, Arial, sans-serif" font-size="12px" x="42" y="2054">WB provides unique nonce</text>
<text font-family="Liberation Sans, Arial, sans-serif" font-size="12px" x="42" y="2067">for enrollment, and Wallet</text>
<text font-family="Liberation Sans, Arial, sans-serif" font-size="12px" x="42" y="2080">includes it in enrollment</text>
<text font-family="Liberation Sans, Arial, sans-serif" font-size="12px" x="42" y="2093">message</text>
</g>
<g class="gsn_module_sole_control_2fa_registration gsnelem gsnstgy" id="node_s_pinkey">
<title>S_PinKey</title>
<path class="border" d="M253,2035 L401,2035 L387,2093 L239,2093 z" fill-opacity="0" stroke="black" stroke-width="1"/>
<text font-family="Liberation Sans, Arial, sans-serif" font-size="12px" font-weight="bold" x="260" y="2055">S_PinKey</text>
<text font-family="Liberation Sans, Arial, sans-serif" font-size="12px" x="257" y="2073">Derive PIN private key</text>
<text font-family="Liberation Sans, Arial, sans-serif" font-size="12px" x="254" y="2086">from stored salt + PIN</text>
</g>
<g class="gsn_module_sole_control_2fa_registration gsnelem gsnsltn" id="node_sn_walletregisterspinpubkey">
<title>Sn_WalletRegistersPinPubKey</title>
<path class="border" d="M434,2064 a104,104,0,1,0,208,0 a104,104,0,1,0,-208,0 z" fill-opacity="0" stroke="black" stroke-width="1"/>
<text font-family="Liberation Sans, Arial, sans-serif" font-size="12px" font-weight="bold" x="451" y="2049">Sn_WalletRegistersPinPubKey</text>
<text font-family="Liberation Sans, Arial, sans-serif" font-size="12px" x="451" y="2067">Wallet includes PinPublicKey</text>
<text font-family="Liberation Sans, Arial, sans-serif" font-size="12px" x="451" y="2080">in enrollment message</text>
</g>
<g class="gsn_module_sole_control_2fa_registration gsnelem gsnsltn" id="node_sn_walletgenerateshwboundkey">
<title>Sn_WalletGeneratesHwBoundKey</title>
<path class="border" d="M682,2064 a114,114,0,1,0,228,0 a114,114,0,1,0,-228,0 z" fill-opacity="0" stroke="black" stroke-width="1"/>
<text font-family="Liberation Sans, Arial, sans-serif" font-size="12px" font-weight="bold" x="700" y="2043">Sn_WalletGeneratesHwBoundKey</text>
<text font-family="Liberation Sans, Arial, sans-serif" font-size="12px" x="700" y="2061">Wallet generates SE/TEE-bound</text>
<text font-family="Liberation Sans, Arial, sans-serif" font-size="12px" x="700" y="2074">HwPrivateKey plus Key</text>
<text font-family="Liberation Sans, Arial, sans-serif" font-size="12px" x="700" y="2087">Attestation</text>
</g>
<g class="gsn_module_sole_control_2fa_registration gsnelem gsnsltn" id="node_sn_walletregistershwboundkey">
<title>Sn_WalletRegistersHwBoundKey</title>
<path class="border" d="M950,2064 a114,114,0,1,0,228,0 a114,114,0,1,0,-228,0 z" fill-opacity="0" stroke="black" stroke-width="1"/>
<text font-family="Liberation Sans, Arial, sans-serif" font-size="12px" font-weight="bold" x="970" y="2036">Sn_WalletRegistersHwBoundKey</text>
<text font-family="Liberation Sans, Arial, sans-serif" font-size="12px" x="970" y="2054">Wallet includes</text>
<text font-family="Liberation Sans, Arial, sans-serif" font-size="12px" x="970" y="2067">HwBoundPublicKey including</text>
<text font-family="Liberation Sans, Arial, sans-serif" font-size="12px" x="970" y="2080">Key Attestation in enrollment</text>
<text font-family="Liberation Sans, Arial, sans-serif" font-size="12px" x="970" y="2093">message</text>
</g>
<g class="gsn_module_sole_control_2fa_registration gsnelem gsnstgy" id="node_s_useappattestations">
<title>S_UseAppAttestations</title>
<path class="border" d="M1225,2029 L1383,2029 L1369,2099 L1211,2099 z" fill-opacity="0" stroke="black" stroke-width="1"/>
<text font-family="Liberation Sans, Arial, sans-serif" font-size="12px" font-weight="bold" x="1232" y="2049">S_UseAppAttestations</text>
<text font-family="Liberation Sans, Arial, sans-serif" font-size="12px" x="1230" y="2067">Use platform app</text>
<text font-family="Liberation Sans, Arial, sans-serif" font-size="12px" x="1228" y="2080">attestations to verify app</text>
<text font-family="Liberation Sans, Arial, sans-serif" font-size="12px" x="1226" y="2093">and device integrity</text>
</g>
<g class="gsn_module_sole_control_2fa_registration gsnelem gsnsltn" id="node_sn_walletasksforpin">
<title>Sn_WalletAsksForPin</title>
<path class="border" d="M38,2332 a79,79,0,1,0,158,0 a79,79,0,1,0,-158,0 z" fill-opacity="0" stroke="black" stroke-width="1"/>
<text font-family="Liberation Sans, Arial, sans-serif" font-size="12px" font-weight="bold" x="53" y="2324">Sn_WalletAsksForPin</text>
<text font-family="Liberation Sans, Arial, sans-serif" font-size="12px" x="53" y="2342">Wallet asks user for PIN</text>
</g>
<g class="gsn_module_sole_control_2fa_registration gsnelem gsngoal" id="node_g_pinhasminentropy">
<title>G_PinHasMinEntropy</title>
<path class="border" d="M236,2303 L398,2303 L398,2361 L236,2361 z" fill-opacity="0" stroke="black" stroke-width="1"/>
<text font-family="Liberation Sans, Arial, sans-serif" font-size="12px" font-weight="bold" x="243" y="2323">G_PinHasMinEntropy</text>
<text font-family="Liberation Sans, Arial, sans-serif" font-size="12px" x="243" y="2341">PIN has minimum entropy &amp;</text>
<text font-family="Liberation Sans, Arial, sans-serif" font-size="12px" x="243" y="2354">complexity</text>
</g>
<g class="gsn_module_sole_control_2fa_registration gsnelem gsnsltn" id="node_sn_walletgeneratessalt">
<title>Sn_WalletGeneratesSalt</title>
<path class="border" d="M438,2332 a86,86,0,1,0,172,0 a86,86,0,1,0,-172,0 z" fill-opacity="0" stroke="black" stroke-width="1"/>
<text font-family="Liberation Sans, Arial, sans-serif" font-size="12px" font-weight="bold" x="455" y="2317">Sn_WalletGeneratesSalt</text>
<text font-family="Liberation Sans, Arial, sans-serif" font-size="12px" x="455" y="2335">Wallet generates and</text>
<text font-family="Liberation Sans, Arial, sans-serif" font-size="12px" x="455" y="2348">stores a random salt</text>
</g>
<g class="gsn_module_sole_control_2fa_registration gsnelem gsnsltn" id="node_sn_walletprovidesappattestation">
<title>Sn_WalletProvidesAppAttestation</title>
<path class="border" d="M1058,2332 a114,114,0,1,0,228,0 a114,114,0,1,0,-228,0 z" fill-opacity="0" stroke="black" stroke-width="1"/>
<text font-family="Liberation Sans, Arial, sans-serif" font-size="12px" font-weight="bold" x="1076" y="2311">Sn_WalletProvidesAppAttestation</text>
<text font-family="Liberation Sans, Arial, sans-serif" font-size="12px" x="1076" y="2329">Wallet provides platform app</text>
<text font-family="Liberation Sans, Arial, sans-serif" font-size="12px" x="1076" y="2342">attestation in enrollment</text>
<text font-family="Liberation Sans, Arial, sans-serif" font-size="12px" x="1076" y="2355">message</text>
</g>
<g class="gsn_module_sole_control_2fa_registration gsnelem gsnsltn" id="node_sn_wbvalidatesattestations">
<title>Sn_WbValidatesAttestations</title>
<path class="border" d="M1326,2332 a97,97,0,1,0,194,0 a97,97,0,1,0,-194,0 z" fill-opacity="0" stroke="black" stroke-width="1"/>
<text font-family="Liberation Sans, Arial, sans-serif" font-size="12px" font-weight="bold" x="1342" y="2317">Sn_WbValidatesAttestations</text>
<text font-family="Liberation Sans, Arial, sans-serif" font-size="12px" x="1342" y="2335">WB validates app &amp; key</text>
<text font-family="Liberation Sans, Arial, sans-serif" font-size="12px" x="1342" y="2348">attestations</text>
</g>
<g class="gsn_module_sole_control_2fa_registration gsnelem gsnsltn" id="node_sn_pincomplexity">
<title>Sn_PinComplexity</title>
<path class="border" d="M246,2557 a71,71,0,1,0,142,0 a71,71,0,1,0,-142,0 z" fill-opacity="0" stroke="black" stroke-width="1"/>
<text font-family="Liberation Sans, Arial, sans-serif" font-size="12px" font-weight="bold" x="264" y="2542">Sn_PinComplexity</text>
<text font-family="Liberation Sans, Arial, sans-serif" font-size="12px" x="264" y="2560">Wallet enforces PIN</text>
<text font-family="Liberation Sans, Arial, sans-serif" font-size="12px" x="264" y="2573">complexity rules</text>
</g>
<path class="gsnedge gsninspby" d="M113,1904 C113,1934,113,1941,113,1961" fill-opacity="0" marker-end="url(#supportedby_arrow)" stroke="black" stroke-width="1"/>
<path class="gsnedge gsninctxt" d="M986,732 C1016,732,996,732,1016,732" fill-opacity="0" marker-end="url(#incontextof_arrow)" stroke="black" stroke-width="1"/>
<path class="gsnedge gsninspby" d="M914,761 C914,791,557,859,557,879" fill-opacity="0" marker-end="url(#supportedby_arrow)" stroke="black" stroke-width="1"/>
<path class="gsnedge gsninspby" d="M914,761 C914,791,778,859,778,879" fill-opacity="0" marker-end="url(#supportedby_arrow)" stroke="black" stroke-width="1"/>
<path class="gsnedge gsninspby" d="M914,761 C914,791,1020,866,1020,886" fill-opacity="0" marker-end="url(#supportedby_arrow)" stroke="black" stroke-width="1"/>
<path class="gsnedge gsninspby" d="M914,761 C914,791,1272,859,1272,879" fill-opacity="0" marker-end="url(#supportedby_arrow)" stroke="black" stroke-width="1"/>
<path class="gsnedge gsninspby" d="M317,2361 C317,2391,317,2456,317,2476" fill-opacity="0" marker-end="url(#supportedby_arrow)" stroke="black" stroke-width="1"/>
<path class="gsnedge gsninspby" d="M116,761 C116,791,116,792,116,812" fill-opacity="0" marker-end="url(#supportedby_arrow)" stroke="black" stroke-width="1"/>
<path class="gsnedge gsninctxt" d="M402,334 C432,334,412,334,432,334" fill-opacity="0" marker-end="url(#incontextof_arrow)" stroke="black" stroke-width="1"/>
<path class="gsnedge gsninctxt" d="M226,334 C196,334,216,334,196,334" fill-opacity="0" marker-end="url(#incontextof_arrow)" stroke="black" stroke-width="1"/>
<path class="gsnedge gsninspby" d="M314,369 C314,399,314,468,314,488" fill-opacity="0" marker-end="url(#supportedby_arrow)" stroke="black" stroke-width="1"/>
<path class="gsnedge gsninspby" d="M348,767 C348,797,348,792,348,812" fill-opacity="0" marker-end="url(#supportedby_arrow)" stroke="black" stroke-width="1"/>
<path class="gsnedge gsninspby" d="M1267,369 C1267,399,1267,474,1267,494" fill-opacity="0" marker-end="url(#supportedby_arrow)" stroke="black" stroke-width="1"/>
<path class="gsnedge gsninctxt" d="M1108,1688 C1138,1688,1118,1688,1138,1688" fill-opacity="0" marker-end="url(#incontextof_arrow)" stroke="black" stroke-width="1"/>
<path class="gsnedge gsninspby" d="M1038,1723 C1038,1753,113,1816,113,1836" fill-opacity="0" marker-end="url(#supportedby_arrow)" stroke="black" stroke-width="1"/>
<path class="gsnedge gsninspby" d="M1038,1723 C1038,1753,429,1816,429,1836" fill-opacity="0" marker-end="url(#supportedby_arrow)" stroke="black" stroke-width="1"/>
<path class="gsnedge gsninspby" d="M1038,1723 C1038,1753,930,1816,930,1836" fill-opacity="0" marker-end="url(#supportedby_arrow)" stroke="black" stroke-width="1"/>
<path class="gsnedge gsninspby" d="M1038,1723 C1038,1753,1297,1810,1297,1830" fill-opacity="0" marker-end="url(#supportedby_arrow)" stroke="black" stroke-width="1"/>
<path class="gsnedge gsninctxt" d="M964,70 C994,70,974,70,994,70" fill-opacity="0" marker-end="url(#incontextof_arrow)" stroke="black" stroke-width="1"/>
<path class="gsnedge gsninspby" d="M889,105 C889,135,790,130,790,150" fill-opacity="0" marker-end="url(#supportedby_arrow)" stroke="black" stroke-width="1"/>
<path class="gsnedge gsninspby" d="M889,105 C889,135,989,147,989,167" fill-opacity="0" marker-end="url(#supportedby_arrow)" stroke="black" stroke-width="1"/>
<path class="gsnedge gsninspby" d="M1621,761 C1621,791,1508,859,1508,879" fill-opacity="0" marker-end="url(#supportedby_arrow)" stroke="black" stroke-width="1"/>
<path class="gsnedge gsninspby" d="M1621,761 C1621,791,1735,859,1735,879" fill-opacity="0" marker-end="url(#supportedby_arrow)" stroke="black" stroke-width="1"/>
<path class="gsnedge gsninspby" d="M557,947 C557,977,557,1096,557,1116" fill-opacity="0" marker-end="url(#supportedby_arrow)" stroke="black" stroke-width="1"/>
<path class="gsnedge gsninspby" d="M778,947 C778,977,778,1036,778,1056" fill-opacity="0" marker-end="url(#supportedby_arrow)" stroke="black" stroke-width="1"/>
<path class="gsnedge gsninspby" d="M1508,947 C1508,977,1508,1096,1508,1116" fill-opacity="0" marker-end="url(#supportedby_arrow)" stroke="black" stroke-width="1"/>
<path class="gsnedge gsninspby" d="M1735,947 C1735,977,1735,1096,1735,1116" fill-opacity="0" marker-end="url(#supportedby_arrow)" stroke="black" stroke-width="1"/>
<path class="gsnedge gsninspby" d="M816,1457 C816,1487,816,1546,816,1566" fill-opacity="0" marker-end="url(#supportedby_arrow)" stroke="black" stroke-width="1"/>
<path class="gsnedge gsninspby" d="M1020,940 C1020,970,1020,1024,1020,1044" fill-opacity="0" marker-end="url(#supportedby_arrow)" stroke="black" stroke-width="1"/>
<path class="gsnedge gsninspby" d="M429,1904 C429,1934,320,2005,320,2025" fill-opacity="0" marker-end="url(#supportedby_arrow)" stroke="black" stroke-width="1"/>
<path class="gsnedge gsninspby" d="M429,1904 C429,1934,538,1930,538,1950" fill-opacity="0" marker-end="url(#supportedby_arrow)" stroke="black" stroke-width="1"/>
<path class="gsnedge gsninspby" d="M930,1904 C930,1934,796,1920,796,1940" fill-opacity="0" marker-end="url(#supportedby_arrow)" stroke="black" stroke-width="1"/>
<path class="gsnedge gsninspby" d="M930,1904 C930,1934,1064,1920,1064,1940" fill-opacity="0" marker-end="url(#supportedby_arrow)" stroke="black" stroke-width="1"/>
<path class="gsnedge gsninspby" d="M1272,947 C1272,977,1272,1026,1272,1046" fill-opacity="0" marker-end="url(#supportedby_arrow)" stroke="black" stroke-width="1"/>
<path class="gsnedge gsninspby" d="M790,244 C790,274,314,269,314,289" fill-opacity="0" marker-end="url(#supportedby_arrow)" stroke="black" stroke-width="1"/>
<path class="gsnedge gsninspby" d="M790,244 C790,274,1267,269,1267,289" fill-opacity="0" marker-end="url(#supportedby_arrow)" stroke="black" stroke-width="1"/>
<path class="gsnedge gsninspby" d="M790,244 C790,274,811,394,811,414" fill-opacity="0" marker-end="url(#supportedby_arrow)" stroke="black" stroke-width="1"/>
<path class="gsnedge gsninspby" d="M1297,1910 C1297,1940,1297,1999,1297,2019" fill-opacity="0" marker-end="url(#supportedby_arrow)" stroke="black" stroke-width="1"/>
<path class="gsnedge gsninctxt" d="M398,533 C428,533,408,533,428,533" fill-opacity="0" marker-end="url(#incontextof_arrow)" stroke="black" stroke-width="1"/>
<path class="gsnedge gsninspby" d="M314,568 C314,598,116,673,116,693" fill-opacity="0" marker-end="url(#supportedby_arrow)" stroke="black" stroke-width="1"/>
<path class="gsnedge gsninspby" d="M314,568 C314,598,348,667,348,687" fill-opacity="0" marker-end="url(#supportedby_arrow)" stroke="black" stroke-width="1"/>
<path class="gsnedge gsninspby" d="M557,1196 C557,1226,816,1357,816,1377" fill-opacity="0" marker-end="url(#supportedby_arrow)" stroke="black" stroke-width="1"/>
<path class="gsnedge gsninspby" d="M557,1196 C557,1226,298,1281,298,1301" fill-opacity="0" marker-end="url(#supportedby_arrow)" stroke="black" stroke-width="1"/>
<path class="gsnedge gsninspby" d="M557,1196 C557,1226,563,1278,563,1298" fill-opacity="0" marker-end="url(#supportedby_arrow)" stroke="black" stroke-width="1"/>
<path class="gsnedge gsninspby" d="M320,2093 C320,2123,317,2273,317,2293" fill-opacity="0" marker-end="url(#supportedby_arrow)" stroke="black" stroke-width="1"/>
<path class="gsnedge gsninspby" d="M320,2093 C320,2123,117,2223,117,2243" fill-opacity="0" marker-end="url(#supportedby_arrow)" stroke="black" stroke-width="1"/>
<path class="gsnedge gsninspby" d="M320,2093 C320,2123,524,2216,524,2236" fill-opacity="0" marker-end="url(#supportedby_arrow)" stroke="black" stroke-width="1"/>
<path class="gsnedge gsninspby" d="M1267,562 C1267,592,914,673,914,693" fill-opacity="0" marker-end="url(#supportedby_arrow)" stroke="black" stroke-width="1"/>
<path class="gsnedge gsninspby" d="M1267,562 C1267,592,1006,622,1006,732 S1121,829,1121,918 S1147,994,1147,1161 S1038,1623,1038,1643" fill-opacity="0" marker-end="url(#supportedby_arrow)" stroke="black" stroke-width="1"/>
<path class="gsnedge gsninspby" d="M1267,562 C1267,592,1621,673,1621,693" fill-opacity="0" marker-end="url(#supportedby_arrow)" stroke="black" stroke-width="1"/>
<path class="gsnedge gsninspby" d="M1508,1196 C1508,1226,1508,1307,1508,1327" fill-opacity="0" marker-end="url(#supportedby_arrow)" stroke="black" stroke-width="1"/>
<path class="gsnedge gsninspby" d="M1297,2099 C1297,2129,1172,2188,1172,2208" fill-opacity="0" marker-end="url(#supportedby_arrow)" stroke="black" stroke-width="1"/>
<path class="gsnedge gsninspby" d="M1297,2099 C1297,2129,1423,2205,1423,2225" fill-opacity="0" marker-end="url(#supportedby_arrow)" stroke="black" stroke-width="1"/>
<path class="gsnedge gsninspby" d="M1735,1196 C1735,1226,1735,1290,1735,1310" fill-opacity="0" marker-end="url(#supportedby_arrow)" stroke="black" stroke-width="1"/>
</svg>