<?xml version="1.0" encoding="UTF-8"?>
<svg class="gsndiagram" viewBox="0 0 2269 2817" xmlns="http://www.w3.org/2000/svg">
<defs>
<marker id="supportedby_arrow" markerHeight="9" markerUnits="userSpaceOnUse" markerWidth="10" orient="auto-start-reverse" refX="0" refY="4.5">
<polyline fill="black" points="0 0, 10 4.5, 0 9"/>
</marker>
<marker id="incontextof_arrow" markerHeight="9" markerUnits="userSpaceOnUse" markerWidth="10" orient="auto-start-reverse" refX="0" refY="4.5">
<polyline fill-opacity="0" points="0 0, 10 4.5, 0 9, 0 0" stroke="black" stroke-width="1"/>
</marker>
</defs>
<style type="text/css">
svg { background-color: white;}

/* CSS to invert SVG for dark mode */ 
@media (prefers-color-scheme: dark) {
    svg { filter: invert(100%); background-color: black; }
}

</style>
<g class="gsn_module_sole_control_main gsnelem gsngoal" id="node_g_solecontrol">
<title>G_SoleControl</title>
<path class="border" d="M740,35 L914,35 L914,105 L740,105 z" fill-opacity="0" stroke="black" stroke-width="1"/>
<text font-family="Liberation Sans, Arial, sans-serif" font-size="12px" font-weight="bold" x="747" y="55">G_SoleControl</text>
<text font-family="Liberation Sans, Arial, sans-serif" font-size="12px" x="747" y="73">PID issuer has assurance that</text>
<text font-family="Liberation Sans, Arial, sans-serif" font-size="12px" x="747" y="86">User will have sole control</text>
<text font-family="Liberation Sans, Arial, sans-serif" font-size="12px" x="747" y="99">over the PID</text>
</g>
<g class="gsn_module_sole_control_main gsnelem gsnasmp" id="node_a_pidissuertrustswb">
<title>A_PidIssuerTrustsWb</title>
<path class="border" d="M954,70 a119,50,0,1,0,238,0 a119,50,0,1,0,-238,0 z" fill-opacity="0" stroke="black" stroke-width="1"/>
<text font-family="Liberation Sans, Arial, sans-serif" font-size="12px" font-weight="bold" x="996" y="49">A_PidIssuerTrustsWb</text>
<text font-family="Liberation Sans, Arial, sans-serif" font-size="12px" x="996" y="67">PID issuer trusts WB to issue</text>
<text font-family="Liberation Sans, Arial, sans-serif" font-size="12px" x="996" y="80">WUA only to wallets</text>
<text font-family="Liberation Sans, Arial, sans-serif" font-size="12px" x="996" y="93">implementing Sole Control</text>
<text font-family="Liberation Sans, Arial, sans-serif" font-size="12px" font-weight="bold" x="1187" y="115">A</text>
</g>
<g class="gsn_module_sole_control_main gsnelem gsngoal" id="node_g_wbenforcessolecontrol">
<title>G_WbEnforcesSoleControl</title>
<path class="border" d="M636,160 L814,160 L814,230 L636,230 z" fill-opacity="0" stroke="black" stroke-width="1"/>
<text font-family="Liberation Sans, Arial, sans-serif" font-size="12px" font-weight="bold" x="643" y="180">G_WbEnforcesSoleControl</text>
<text font-family="Liberation Sans, Arial, sans-serif" font-size="12px" x="643" y="198">WB enforces that the User has</text>
<text font-family="Liberation Sans, Arial, sans-serif" font-size="12px" x="643" y="211">sole control over all</text>
<text font-family="Liberation Sans, Arial, sans-serif" font-size="12px" x="643" y="224">attestations managed in Wallet</text>
</g>
<g class="gsn_module_sole_control_main gsnelem gsngoal gsn_undeveloped" id="node_g_wbissueswua">
<title>G_WbIssuesWua</title>
<path class="border" d="M854,170 L1006,170 L1006,220 L854,220 z" fill-opacity="0" stroke="black" stroke-width="1"/>
<text font-family="Liberation Sans, Arial, sans-serif" font-size="12px" font-weight="bold" x="861" y="190">G_WbIssuesWua</text>
<text font-family="Liberation Sans, Arial, sans-serif" font-size="12px" x="861" y="208">WB issues WUA to Wallet</text>
<path d="M930,220 l5,5 l-5,5 l-5,-5 z" fill-opacity="0" stroke="black" stroke-width="1"/>
</g>
<g class="gsn_module_sole_control_main gsnelem gsnctxt" id="node_c_attestationdefinition">
<title>C_AttestationDefinition</title>
<path class="border" d="M30,291 L204,291 C214,291,214,349,204,349 L30,349 C20,349,20,291,30,291" fill-opacity="0" stroke="black" stroke-width="1"/>
<text font-family="Liberation Sans, Arial, sans-serif" font-size="12px" font-weight="bold" x="37" y="311">C_AttestationDefinition</text>
<text font-family="Liberation Sans, Arial, sans-serif" font-size="12px" x="37" y="329">Attestation consists of PrivKey</text>
<text font-family="Liberation Sans, Arial, sans-serif" font-size="12px" x="37" y="342">and Attestation Data</text>
</g>
<g class="gsn_module_sole_control_main gsnelem gsngoal" id="node_g_privkeyexclusivecustody">
<title>G_PrivKeyExclusiveCustody</title>
<path class="border" d="M254,285 L442,285 L442,355 L254,355 z" fill-opacity="0" stroke="black" stroke-width="1"/>
<text font-family="Liberation Sans, Arial, sans-serif" font-size="12px" font-weight="bold" x="261" y="305">G_PrivKeyExclusiveCustody</text>
<text font-family="Liberation Sans, Arial, sans-serif" font-size="12px" x="261" y="323">PrivKey remains under exclusive</text>
<text font-family="Liberation Sans, Arial, sans-serif" font-size="12px" x="261" y="336">custody of WB and is never</text>
<text font-family="Liberation Sans, Arial, sans-serif" font-size="12px" x="261" y="349">exposed</text>
</g>
<g class="gsn_module_sole_control_main gsnelem gsnasmp" id="node_a_wbistrusted">
<title>A_WbIsTrusted</title>
<path class="border" d="M482,320 a102,50,0,1,0,205,0 a102,50,0,1,0,-205,0 z" fill-opacity="0" stroke="black" stroke-width="1"/>
<text font-family="Liberation Sans, Arial, sans-serif" font-size="12px" font-weight="bold" x="518" y="299">A_WbIsTrusted</text>
<text font-family="Liberation Sans, Arial, sans-serif" font-size="12px" x="518" y="317">WB is trusted by Issuers,</text>
<text font-family="Liberation Sans, Arial, sans-serif" font-size="12px" x="518" y="330">Verifiers, Wallets to not</text>
<text font-family="Liberation Sans, Arial, sans-serif" font-size="12px" x="518" y="343">obtain Attestation Data</text>
<text font-family="Liberation Sans, Arial, sans-serif" font-size="12px" font-weight="bold" x="681" y="365">A</text>
</g>
<g class="gsn_module_sole_control_2fa gsnelem gsngoal" id="node_g_privkeyrequires2fa">
<title>G_PrivKeyRequires2fa</title>
<path class="border" d="M1008,285 L1196,285 L1196,355 L1008,355 z" fill-opacity="0" stroke="black" stroke-width="1"/>
<text font-family="Liberation Sans, Arial, sans-serif" font-size="12px" font-weight="bold" x="1015" y="305">G_PrivKeyRequires2fa</text>
<text font-family="Liberation Sans, Arial, sans-serif" font-size="12px" x="1015" y="323">WB allows usage of PrivKey only</text>
<text font-family="Liberation Sans, Arial, sans-serif" font-size="12px" x="1015" y="336">after 2FA authentication of</text>
<text font-family="Liberation Sans, Arial, sans-serif" font-size="12px" x="1015" y="349">User</text>
</g>
<g class="gsn_module_sole_control_main gsnelem gsnstgy" id="node_s_ensureprivkeysecure">
<title>S_EnsurePrivKeySecure</title>
<path class="border" d="M261,490 L449,490 L435,548 L247,548 z" fill-opacity="0" stroke="black" stroke-width="1"/>
<text font-family="Liberation Sans, Arial, sans-serif" font-size="12px" font-weight="bold" x="268" y="510">S_EnsurePrivKeySecure</text>
<text font-family="Liberation Sans, Arial, sans-serif" font-size="12px" x="265" y="528">Ensure secure generation,</text>
<text font-family="Liberation Sans, Arial, sans-serif" font-size="12px" x="262" y="541">storage, and usage of PrivKey</text>
</g>
<g class="gsn_module_sole_control_main gsnelem gsnasmp" id="node_a_wbtrustshsmvendor">
<title>A_WbTrustsHsmVendor</title>
<path class="border" d="M482,519 a112,41,0,1,0,224,0 a112,41,0,1,0,-224,0 z" fill-opacity="0" stroke="black" stroke-width="1"/>
<text font-family="Liberation Sans, Arial, sans-serif" font-size="12px" font-weight="bold" x="522" y="504">A_WbTrustsHsmVendor</text>
<text font-family="Liberation Sans, Arial, sans-serif" font-size="12px" x="522" y="522">WB trusts HSM vendor and</text>
<text font-family="Liberation Sans, Arial, sans-serif" font-size="12px" x="522" y="535">certification</text>
<text font-family="Liberation Sans, Arial, sans-serif" font-size="12px" font-weight="bold" x="701" y="555">A</text>
</g>
<g class="gsn_module_sole_control_main gsnelem gsnsltn" id="node_sn_walletstoresattestationdata">
<title>Sn_WalletStoresAttestationData</title>
<path class="border" d="M746,519 a109,109,0,1,0,218,0 a109,109,0,1,0,-218,0 z" fill-opacity="0" stroke="black" stroke-width="1"/>
<text font-family="Liberation Sans, Arial, sans-serif" font-size="12px" font-weight="bold" x="764" y="498">Sn_WalletStoresAttestationData</text>
<text font-family="Liberation Sans, Arial, sans-serif" font-size="12px" x="764" y="516">Wallet stores and maintains</text>
<text font-family="Liberation Sans, Arial, sans-serif" font-size="12px" x="764" y="529">Attestation Data but not</text>
<text font-family="Liberation Sans, Arial, sans-serif" font-size="12px" x="764" y="542">PrivKey</text>
</g>
<g class="gsn_module_sole_control_2fa gsnelem gsnstgy" id="node_s_possessionandknowledge">
<title>S_PossessionAndKnowledge</title>
<path class="border" d="M1011,490 L1207,490 L1193,548 L997,548 z" fill-opacity="0" stroke="black" stroke-width="1"/>
<text font-family="Liberation Sans, Arial, sans-serif" font-size="12px" font-weight="bold" x="1018" y="510">S_PossessionAndKnowledge</text>
<text font-family="Liberation Sans, Arial, sans-serif" font-size="12px" x="1015" y="528">Use possession &amp; knowledge</text>
<text font-family="Liberation Sans, Arial, sans-serif" font-size="12px" x="1012" y="541">factor</text>
</g>
<g class="gsn_module_sole_control_main gsnelem gsngoal" id="node_g_privkeycannotbeextracted">
<title>G_PrivKeyCannotBeExtracted</title>
<path class="border" d="M29,680 L213,680 L213,738 L29,738 z" fill-opacity="0" stroke="black" stroke-width="1"/>
<text font-family="Liberation Sans, Arial, sans-serif" font-size="12px" font-weight="bold" x="36" y="700">G_PrivKeyCannotBeExtracted</text>
<text font-family="Liberation Sans, Arial, sans-serif" font-size="12px" x="36" y="718">PrivKey cannot be extracted or</text>
<text font-family="Liberation Sans, Arial, sans-serif" font-size="12px" x="36" y="731">copied from HSM</text>
</g>
<g class="gsn_module_sole_control_main gsnelem gsngoal" id="node_g_privkeyinhsm">
<title>G_PrivKeyInHsm</title>
<path class="border" d="M268,680 L448,680 L448,738 L268,738 z" fill-opacity="0" stroke="black" stroke-width="1"/>
<text font-family="Liberation Sans, Arial, sans-serif" font-size="12px" font-weight="bold" x="275" y="700">G_PrivKeyInHsm</text>
<text font-family="Liberation Sans, Arial, sans-serif" font-size="12px" x="275" y="718">PrivKey is generated inside a</text>
<text font-family="Liberation Sans, Arial, sans-serif" font-size="12px" x="275" y="731">certified HSM controlled by WB</text>
</g>
<g class="gsn_module_sole_control_2fa gsnelem gsngoal" id="node_g_maintain2faintegrity">
<title>G_Maintain2faIntegrity</title>
<path class="border" d="M860,680 L1030,680 L1030,738 L860,738 z" fill-opacity="0" stroke="black" stroke-width="1"/>
<text font-family="Liberation Sans, Arial, sans-serif" font-size="12px" font-weight="bold" x="867" y="700">G_Maintain2faIntegrity</text>
<text font-family="Liberation Sans, Arial, sans-serif" font-size="12px" x="867" y="718">Maintain integrity of both 2FA</text>
<text font-family="Liberation Sans, Arial, sans-serif" font-size="12px" x="867" y="731">factors</text>
</g>
<g class="gsn_module_sole_control_2fa gsnelem gsnasmp" id="node_a_userdoesnotsharepin">
<title>A_UserDoesNotSharePin</title>
<path class="border" d="M1070,709 a128,41,0,1,0,256,0 a128,41,0,1,0,-256,0 z" fill-opacity="0" stroke="black" stroke-width="1"/>
<text font-family="Liberation Sans, Arial, sans-serif" font-size="12px" font-weight="bold" x="1114" y="694">A_UserDoesNotSharePin</text>
<text font-family="Liberation Sans, Arial, sans-serif" font-size="12px" x="1114" y="712">User does not share knowledge</text>
<text font-family="Liberation Sans, Arial, sans-serif" font-size="12px" x="1114" y="725">factor with anyone</text>
<text font-family="Liberation Sans, Arial, sans-serif" font-size="12px" font-weight="bold" x="1321" y="745">A</text>
</g>
<g class="gsn_module_sole_control_2fa gsnelem gsngoal" id="node_g_use2fa">
<title>G_Use2fa</title>
<path class="border" d="M1603,680 L1747,680 L1747,738 L1603,738 z" fill-opacity="0" stroke="black" stroke-width="1"/>
<text font-family="Liberation Sans, Arial, sans-serif" font-size="12px" font-weight="bold" x="1610" y="700">G_Use2fa</text>
<text font-family="Liberation Sans, Arial, sans-serif" font-size="12px" x="1610" y="718">Require 2FA auth before</text>
<text font-family="Liberation Sans, Arial, sans-serif" font-size="12px" x="1610" y="731">allowing PrivKey usage</text>
</g>
<g class="gsn_module_sole_control_main gsnelem gsnsltn" id="node_sn_hsmenforcesnonexport">
<title>Sn_HsmEnforcesNonExport</title>
<path class="border" d="M20,891 a101,101,0,1,0,202,0 a101,101,0,1,0,-202,0 z" fill-opacity="0" stroke="black" stroke-width="1"/>
<text font-family="Liberation Sans, Arial, sans-serif" font-size="12px" font-weight="bold" x="36" y="876">Sn_HsmEnforcesNonExport</text>
<text font-family="Liberation Sans, Arial, sans-serif" font-size="12px" x="36" y="894">HSM enforces non-export policy</text>
<text font-family="Liberation Sans, Arial, sans-serif" font-size="12px" x="36" y="907">for PrivKey</text>
</g>
<g class="gsn_module_sole_control_main gsnelem gsnsltn" id="node_sn_wbuseshsmforprivkey">
<title>Sn_WbUsesHsmForPrivKey</title>
<path class="border" d="M262,891 a96,96,0,1,0,192,0 a96,96,0,1,0,-192,0 z" fill-opacity="0" stroke="black" stroke-width="1"/>
<text font-family="Liberation Sans, Arial, sans-serif" font-size="12px" font-weight="bold" x="279" y="876">Sn_WbUsesHsmForPrivKey</text>
<text font-family="Liberation Sans, Arial, sans-serif" font-size="12px" x="279" y="894">WB uses certified HSM to</text>
<text font-family="Liberation Sans, Arial, sans-serif" font-size="12px" x="279" y="907">generate &amp; protect PrivKey</text>
</g>
<g class="gsn_module_sole_control_2fa gsnelem gsngoal" id="node_g_usercanblockwallet">
<title>G_UserCanBlockWallet</title>
<path class="border" d="M494,862 L668,862 L668,920 L494,920 z" fill-opacity="0" stroke="black" stroke-width="1"/>
<text font-family="Liberation Sans, Arial, sans-serif" font-size="12px" font-weight="bold" x="501" y="882">G_UserCanBlockWallet</text>
<text font-family="Liberation Sans, Arial, sans-serif" font-size="12px" x="501" y="900">User can block wallet if device</text>
<text font-family="Liberation Sans, Arial, sans-serif" font-size="12px" x="501" y="913">is lost</text>
</g>
<g class="gsn_module_sole_control_2fa gsnelem gsngoal" id="node_g_usercanchangepin">
<title>G_UserCanChangePin</title>
<path class="border" d="M722,869 L898,869 L898,913 L722,913 z" fill-opacity="0" stroke="black" stroke-width="1"/>
<text font-family="Liberation Sans, Arial, sans-serif" font-size="12px" font-weight="bold" x="729" y="889">G_UserCanChangePin</text>
<text font-family="Liberation Sans, Arial, sans-serif" font-size="12px" x="729" y="907">User can securely change PIN</text>
</g>
<g class="gsn_module_sole_control_2fa gsnelem gsngoal" id="node_g_walletdoesnotstorepin">
<title>G_WalletDoesNotStorePin</title>
<path class="border" d="M971,869 L1133,869 L1133,913 L971,913 z" fill-opacity="0" stroke="black" stroke-width="1"/>
<text font-family="Liberation Sans, Arial, sans-serif" font-size="12px" font-weight="bold" x="978" y="889">G_WalletDoesNotStorePin</text>
<text font-family="Liberation Sans, Arial, sans-serif" font-size="12px" x="978" y="907">Wallet does not store PIN</text>
</g>
<g class="gsn_module_sole_control_2fa gsnelem gsngoal" id="node_g_wbblocksoncompromise">
<title>G_WbBlocksOnCompromise</title>
<path class="border" d="M1222,862 L1398,862 L1398,920 L1222,920 z" fill-opacity="0" stroke="black" stroke-width="1"/>
<text font-family="Liberation Sans, Arial, sans-serif" font-size="12px" font-weight="bold" x="1229" y="882">G_WbBlocksOnCompromise</text>
<text font-family="Liberation Sans, Arial, sans-serif" font-size="12px" x="1229" y="900">WB blocks wallet on detected</text>
<text font-family="Liberation Sans, Arial, sans-serif" font-size="12px" x="1229" y="913">device compromise</text>
</g>
<g class="gsn_module_sole_control_2fa gsnelem gsngoal" id="node_g_userproveshwkeycontrol">
<title>G_UserProvesHwKeyControl</title>
<path class="border" d="M1463,862 L1641,862 L1641,920 L1463,920 z" fill-opacity="0" stroke="black" stroke-width="1"/>
<text font-family="Liberation Sans, Arial, sans-serif" font-size="12px" font-weight="bold" x="1470" y="882">G_UserProvesHwKeyControl</text>
<text font-family="Liberation Sans, Arial, sans-serif" font-size="12px" x="1470" y="900">User proves control of</text>
<text font-family="Liberation Sans, Arial, sans-serif" font-size="12px" x="1470" y="913">device-bound hardware key</text>
</g>
<g class="gsn_module_sole_control_2fa gsnelem gsngoal" id="node_g_userprovespin">
<title>G_UserProvesPin</title>
<path class="border" d="M1710,869 L1886,869 L1886,913 L1710,913 z" fill-opacity="0" stroke="black" stroke-width="1"/>
<text font-family="Liberation Sans, Arial, sans-serif" font-size="12px" font-weight="bold" x="1717" y="889">G_UserProvesPin</text>
<text font-family="Liberation Sans, Arial, sans-serif" font-size="12px" x="1717" y="907">User proves knowledge of PIN</text>
</g>
<g class="gsn_module_sole_control_2fa gsnelem gsnstgy" id="node_s_outofbandrevocation">
<title>S_OutOfBandRevocation</title>
<path class="border" d="M494,1114 L682,1114 L668,1172 L480,1172 z" fill-opacity="0" stroke="black" stroke-width="1"/>
<text font-family="Liberation Sans, Arial, sans-serif" font-size="12px" font-weight="bold" x="501" y="1134">S_OutOfBandRevocation</text>
<text font-family="Liberation Sans, Arial, sans-serif" font-size="12px" x="498" y="1152">Enable out-of-band revocation</text>
<text font-family="Liberation Sans, Arial, sans-serif" font-size="12px" x="495" y="1165">using server-generated code</text>
</g>
<g class="gsn_module_sole_control_2fa gsnelem gsnsltn" id="node_sn_pinchangeuses2fa">
<title>Sn_PinChangeUses2fa</title>
<path class="border" d="M715,1143 a95,95,0,1,0,190,0 a95,95,0,1,0,-190,0 z" fill-opacity="0" stroke="black" stroke-width="1"/>
<text font-family="Liberation Sans, Arial, sans-serif" font-size="12px" font-weight="bold" x="732" y="1128">Sn_PinChangeUses2fa</text>
<text font-family="Liberation Sans, Arial, sans-serif" font-size="12px" x="732" y="1146">PIN change uses normal 2FA</text>
<text font-family="Liberation Sans, Arial, sans-serif" font-size="12px" x="732" y="1159">process</text>
</g>
<g class="gsn_module_sole_control_2fa gsnelem gsnsltn" id="node_sn_walletderivespinprivatekey">
<title>Sn_WalletDerivesPinPrivateKey</title>
<path class="border" d="M945,1143 a107,107,0,1,0,214,0 a107,107,0,1,0,-214,0 z" fill-opacity="0" stroke="black" stroke-width="1"/>
<text font-family="Liberation Sans, Arial, sans-serif" font-size="12px" font-weight="bold" x="962" y="1128">Sn_WalletDerivesPinPrivateKey</text>
<text font-family="Liberation Sans, Arial, sans-serif" font-size="12px" x="962" y="1146">Wallet stores salt &amp; derives</text>
<text font-family="Liberation Sans, Arial, sans-serif" font-size="12px" x="962" y="1159">PinPrivateKey each time</text>
</g>
<g class="gsn_module_sole_control_2fa gsnelem gsnsltn" id="node_sn_wbrevokesonvulnerability">
<title>Sn_WbRevokesOnVulnerability</title>
<path class="border" d="M1199,1143 a111,111,0,1,0,222,0 a111,111,0,1,0,-222,0 z" fill-opacity="0" stroke="black" stroke-width="1"/>
<text font-family="Liberation Sans, Arial, sans-serif" font-size="12px" font-weight="bold" x="1216" y="1128">Sn_WbRevokesOnVulnerability</text>
<text font-family="Liberation Sans, Arial, sans-serif" font-size="12px" x="1216" y="1146">WB revokes keys &amp; blocks WUA on</text>
<text font-family="Liberation Sans, Arial, sans-serif" font-size="12px" x="1216" y="1159">detected vulnerability</text>
</g>
<g class="gsn_module_sole_control_2fa gsnelem gsnstgy" id="node_s_provehwkeypossession">
<title>S_ProveHwKeyPossession</title>
<path class="border" d="M1468,1114 L1650,1114 L1636,1172 L1454,1172 z" fill-opacity="0" stroke="black" stroke-width="1"/>
<text font-family="Liberation Sans, Arial, sans-serif" font-size="12px" font-weight="bold" x="1475" y="1134">S_ProveHwKeyPossession</text>
<text font-family="Liberation Sans, Arial, sans-serif" font-size="12px" x="1472" y="1152">Prove possession via signed</text>
<text font-family="Liberation Sans, Arial, sans-serif" font-size="12px" x="1469" y="1165">nonce with device-bound key</text>
</g>
<g class="gsn_module_sole_control_2fa gsnelem gsnstgy" id="node_s_verifypinknowledge">
<title>S_VerifyPinKnowledge</title>
<path class="border" d="M1705,1114 L1905,1114 L1891,1172 L1691,1172 z" fill-opacity="0" stroke="black" stroke-width="1"/>
<text font-family="Liberation Sans, Arial, sans-serif" font-size="12px" font-weight="bold" x="1713" y="1134">S_VerifyPinKnowledge</text>
<text font-family="Liberation Sans, Arial, sans-serif" font-size="12px" x="1710" y="1152">Verify knowledge via</text>
<text font-family="Liberation Sans, Arial, sans-serif" font-size="12px" x="1707" y="1165">PIN-derived key &amp; signed nonce</text>
</g>
<g class="gsn_module_sole_control_2fa gsnelem gsnsltn" id="node_sn_walletshowsrevocationcode">
<title>Sn_WalletShowsRevocationCode</title>
<path class="border" d="M211,1408 a111,111,0,1,0,222,0 a111,111,0,1,0,-222,0 z" fill-opacity="0" stroke="black" stroke-width="1"/>
<text font-family="Liberation Sans, Arial, sans-serif" font-size="12px" font-weight="bold" x="227" y="1393">Sn_WalletShowsRevocationCode</text>
<text font-family="Liberation Sans, Arial, sans-serif" font-size="12px" x="227" y="1411">Wallet shows revocation code</text>
<text font-family="Liberation Sans, Arial, sans-serif" font-size="12px" x="227" y="1424">securely</text>
</g>
<g class="gsn_module_sole_control_2fa gsnelem gsnsltn" id="node_sn_wbgeneratesrevocationcode">
<title>Sn_WbGeneratesRevocationCode</title>
<path class="border" d="M473,1408 a114,114,0,1,0,228,0 a114,114,0,1,0,-228,0 z" fill-opacity="0" stroke="black" stroke-width="1"/>
<text font-family="Liberation Sans, Arial, sans-serif" font-size="12px" font-weight="bold" x="491" y="1387">Sn_WbGeneratesRevocationCode</text>
<text font-family="Liberation Sans, Arial, sans-serif" font-size="12px" x="491" y="1405">WB generates revocation code</text>
<text font-family="Liberation Sans, Arial, sans-serif" font-size="12px" x="491" y="1418">and sends it to wallet during</text>
<text font-family="Liberation Sans, Arial, sans-serif" font-size="12px" x="491" y="1431">enrollment</text>
</g>
<g class="gsn_module_sole_control_2fa gsnelem gsngoal" id="node_g_usersubmitsrevocationcode">
<title>G_UserSubmitsRevocationCode</title>
<path class="border" d="M741,1379 L939,1379 L939,1437 L741,1437 z" fill-opacity="0" stroke="black" stroke-width="1"/>
<text font-family="Liberation Sans, Arial, sans-serif" font-size="12px" font-weight="bold" x="748" y="1399">G_UserSubmitsRevocationCode</text>
<text font-family="Liberation Sans, Arial, sans-serif" font-size="12px" x="748" y="1417">User can later submit</text>
<text font-family="Liberation Sans, Arial, sans-serif" font-size="12px" x="748" y="1430">revocation code to block wallet</text>
</g>
<g class="gsn_module_sole_control_2fa gsnelem gsnsltn" id="node_sn_walletsignsnonce">
<title>Sn_WalletSignsNonce</title>
<path class="border" d="M1449,1408 a103,103,0,1,0,206,0 a103,103,0,1,0,-206,0 z" fill-opacity="0" stroke="black" stroke-width="1"/>
<text font-family="Liberation Sans, Arial, sans-serif" font-size="12px" font-weight="bold" x="1466" y="1393">Sn_WalletSignsNonce</text>
<text font-family="Liberation Sans, Arial, sans-serif" font-size="12px" x="1466" y="1411">Wallet signs WB-provided nonce</text>
<text font-family="Liberation Sans, Arial, sans-serif" font-size="12px" x="1466" y="1424">with HwPrivateKey</text>
</g>
<g class="gsn_module_sole_control_2fa gsnelem gsnsltn" id="node_sn_walletsignsnoncewithpin">
<title>Sn_WalletSignsNonceWithPin</title>
<path class="border" d="M1695,1408 a103,103,0,1,0,206,0 a103,103,0,1,0,-206,0 z" fill-opacity="0" stroke="black" stroke-width="1"/>
<text font-family="Liberation Sans, Arial, sans-serif" font-size="12px" font-weight="bold" x="1712" y="1393">Sn_WalletSignsNonceWithPin</text>
<text font-family="Liberation Sans, Arial, sans-serif" font-size="12px" x="1712" y="1411">Wallet signs WB-provided nonce</text>
<text font-family="Liberation Sans, Arial, sans-serif" font-size="12px" x="1712" y="1424">with PinPrivateKey</text>
</g>
<g class="gsn_module_sole_control_2fa gsnelem gsngoal" id="node_g_communicationintegrity">
<title>G_CommunicationIntegrity</title>
<path class="border" d="M259,1645 L429,1645 L429,1703 L259,1703 z" fill-opacity="0" stroke="black" stroke-width="1"/>
<text font-family="Liberation Sans, Arial, sans-serif" font-size="12px" font-weight="bold" x="266" y="1665">G_CommunicationIntegrity</text>
<text font-family="Liberation Sans, Arial, sans-serif" font-size="12px" x="266" y="1683">Protect integrity of Wallet-WB</text>
<text font-family="Liberation Sans, Arial, sans-serif" font-size="12px" x="266" y="1696">communication</text>
</g>
<g class="gsn_module_sole_control_2fa gsnelem gsnsltn" id="node_sn_wbblocksonrevocationcode">
<title>Sn_WbBlocksOnRevocationCode</title>
<path class="border" d="M728,1674 a112,112,0,1,0,224,0 a112,112,0,1,0,-224,0 z" fill-opacity="0" stroke="black" stroke-width="1"/>
<text font-family="Liberation Sans, Arial, sans-serif" font-size="12px" font-weight="bold" x="745" y="1659">Sn_WbBlocksOnRevocationCode</text>
<text font-family="Liberation Sans, Arial, sans-serif" font-size="12px" x="745" y="1677">WB blocks wallet upon valid</text>
<text font-family="Liberation Sans, Arial, sans-serif" font-size="12px" x="745" y="1690">revocation code</text>
</g>
<g class="gsn_module_sole_control_2fa gsnelem gsngoal" id="node_g_registerenrollment">
<title>G_RegisterEnrollment</title>
<path class="border" d="M1313,1645 L1507,1645 L1507,1703 L1313,1703 z" fill-opacity="0" stroke="black" stroke-width="1"/>
<text font-family="Liberation Sans, Arial, sans-serif" font-size="12px" font-weight="bold" x="1320" y="1665">G_RegisterEnrollment</text>
<text font-family="Liberation Sans, Arial, sans-serif" font-size="12px" x="1320" y="1683">Register possession &amp; knowledge</text>
<text font-family="Liberation Sans, Arial, sans-serif" font-size="12px" x="1320" y="1696">factors via enrollment message</text>
</g>
<g class="gsn_module_sole_control_2fa gsnelem gsnasmp" id="node_a_wbtrustsapplegoogle">
<title>A_WbTrustsAppleGoogle</title>
<path class="border" d="M1547,1674 a133,41,0,1,0,266,0 a133,41,0,1,0,-266,0 z" fill-opacity="0" stroke="black" stroke-width="1"/>
<text font-family="Liberation Sans, Arial, sans-serif" font-size="12px" font-weight="bold" x="1593" y="1659">A_WbTrustsAppleGoogle</text>
<text font-family="Liberation Sans, Arial, sans-serif" font-size="12px" x="1593" y="1677">WB trusts Apple/Google Key and</text>
<text font-family="Liberation Sans, Arial, sans-serif" font-size="12px" x="1593" y="1690">App Attestation services</text>
<text font-family="Liberation Sans, Arial, sans-serif" font-size="12px" font-weight="bold" x="1808" y="1710">A</text>
</g>
<g class="gsn_module_sole_control_2fa gsnelem gsnsltn" id="node_sn_pintls">
<title>Sn_PinTls</title>
<path class="border" d="M20,1924 a93,93,0,1,0,186,0 a93,93,0,1,0,-186,0 z" fill-opacity="0" stroke="black" stroke-width="1"/>
<text font-family="Liberation Sans, Arial, sans-serif" font-size="12px" font-weight="bold" x="37" y="1909">Sn_PinTls</text>
<text font-family="Liberation Sans, Arial, sans-serif" font-size="12px" x="37" y="1927">Wallet pins TLS certificate of</text>
<text font-family="Liberation Sans, Arial, sans-serif" font-size="12px" x="37" y="1940">WB CA</text>
</g>
<g class="gsn_module_sole_control_2fa gsnelem gsnsltn" id="node_sn_walletsignsinstructions">
<title>Sn_WalletSignsInstructions</title>
<path class="border" d="M246,1924 a96,96,0,1,0,192,0 a96,96,0,1,0,-192,0 z" fill-opacity="0" stroke="black" stroke-width="1"/>
<text font-family="Liberation Sans, Arial, sans-serif" font-size="12px" font-weight="bold" x="263" y="1909">Sn_WalletSignsInstructions</text>
<text font-family="Liberation Sans, Arial, sans-serif" font-size="12px" x="263" y="1927">Wallet signs all its messages</text>
<text font-family="Liberation Sans, Arial, sans-serif" font-size="12px" x="263" y="1940">with its HwPrivateKey</text>
</g>
<g class="gsn_module_sole_control_2fa gsnelem gsnsltn" id="node_sn_wbsignsresponses">
<title>Sn_WbSignsResponses</title>
<path class="border" d="M478,1924 a98,98,0,1,0,196,0 a98,98,0,1,0,-196,0 z" fill-opacity="0" stroke="black" stroke-width="1"/>
<text font-family="Liberation Sans, Arial, sans-serif" font-size="12px" font-weight="bold" x="494" y="1909">Sn_WbSignsResponses</text>
<text font-family="Liberation Sans, Arial, sans-serif" font-size="12px" x="494" y="1927">WB signs all its responses with</text>
<text font-family="Liberation Sans, Arial, sans-serif" font-size="12px" x="494" y="1940">a special purpose private key</text>
</g>
<g class="gsn_module_sole_control_2fa_registration gsnelem gsngoal" id="node_g_enrollmentfreshness">
<title>G_EnrollmentFreshness</title>
<path class="border" d="M714,1895 L876,1895 L876,1953 L714,1953 z" fill-opacity="0" stroke="black" stroke-width="1"/>
<text font-family="Liberation Sans, Arial, sans-serif" font-size="12px" font-weight="bold" x="721" y="1915">G_EnrollmentFreshness</text>
<text font-family="Liberation Sans, Arial, sans-serif" font-size="12px" x="721" y="1933">Enrollment proves message</text>
<text font-family="Liberation Sans, Arial, sans-serif" font-size="12px" x="721" y="1946">freshness</text>
</g>
<g class="gsn_module_sole_control_2fa_registration gsnelem gsngoal" id="node_g_walletregistersknowledgefactor">
<title>G_WalletRegistersKnowledgeFactor</title>
<path class="border" d="M1028,1895 L1248,1895 L1248,1953 L1028,1953 z" fill-opacity="0" stroke="black" stroke-width="1"/>
<text font-family="Liberation Sans, Arial, sans-serif" font-size="12px" font-weight="bold" x="1035" y="1915">G_WalletRegistersKnowledgeFactor</text>
<text font-family="Liberation Sans, Arial, sans-serif" font-size="12px" x="1035" y="1933">Wallet registers knowledge factor</text>
<text font-family="Liberation Sans, Arial, sans-serif" font-size="12px" x="1035" y="1946">at WB</text>
</g>
<g class="gsn_module_sole_control_2fa_registration gsnelem gsngoal" id="node_g_walletregisterspossesionfactor">
<title>G_WalletRegistersPossesionFactor</title>
<path class="border" d="M1538,1895 L1754,1895 L1754,1953 L1538,1953 z" fill-opacity="0" stroke="black" stroke-width="1"/>
<text font-family="Liberation Sans, Arial, sans-serif" font-size="12px" font-weight="bold" x="1545" y="1915">G_WalletRegistersPossesionFactor</text>
<text font-family="Liberation Sans, Arial, sans-serif" font-size="12px" x="1545" y="1933">Wallet registers possession</text>
<text font-family="Liberation Sans, Arial, sans-serif" font-size="12px" x="1545" y="1946">factor at WB</text>
</g>
<g class="gsn_module_sole_control_2fa_registration gsnelem gsngoal" id="node_g_wbverifiesapp">
<title>G_WbVerifiesApp</title>
<path class="border" d="M1938,1895 L2114,1895 L2114,1953 L1938,1953 z" fill-opacity="0" stroke="black" stroke-width="1"/>
<text font-family="Liberation Sans, Arial, sans-serif" font-size="12px" font-weight="bold" x="1945" y="1915">G_WbVerifiesApp</text>
<text font-family="Liberation Sans, Arial, sans-serif" font-size="12px" x="1945" y="1933">WB verifies that NL Wallet app</text>
<text font-family="Liberation Sans, Arial, sans-serif" font-size="12px" x="1945" y="1946">runs on a trustworthy device</text>
</g>
<g class="gsn_module_sole_control_2fa_registration gsnelem gsnsltn" id="node_sn_wbprovidesnonce">
<title>Sn_WbProvidesNonce</title>
<path class="border" d="M694,2176 a101,101,0,1,0,202,0 a101,101,0,1,0,-202,0 z" fill-opacity="0" stroke="black" stroke-width="1"/>
<text font-family="Liberation Sans, Arial, sans-serif" font-size="12px" font-weight="bold" x="712" y="2155">Sn_WbProvidesNonce</text>
<text font-family="Liberation Sans, Arial, sans-serif" font-size="12px" x="712" y="2173">WB provides unique nonce for</text>
<text font-family="Liberation Sans, Arial, sans-serif" font-size="12px" x="712" y="2186">enrollment, and Wallet includes</text>
<text font-family="Liberation Sans, Arial, sans-serif" font-size="12px" x="712" y="2199">it in enrollment message</text>
</g>
<g class="gsn_module_sole_control_2fa_registration gsnelem gsnstgy" id="node_s_pinkey">
<title>S_PinKey</title>
<path class="border" d="M943,2147 L1117,2147 L1103,2205 L929,2205 z" fill-opacity="0" stroke="black" stroke-width="1"/>
<text font-family="Liberation Sans, Arial, sans-serif" font-size="12px" font-weight="bold" x="950" y="2167">S_PinKey</text>
<text font-family="Liberation Sans, Arial, sans-serif" font-size="12px" x="947" y="2185">Derive PIN private key from</text>
<text font-family="Liberation Sans, Arial, sans-serif" font-size="12px" x="944" y="2198">stored salt + PIN</text>
</g>
<g class="gsn_module_sole_control_2fa_registration gsnelem gsnsltn" id="node_sn_walletregisterspinpubkey">
<title>Sn_WalletRegistersPinPubKey</title>
<path class="border" d="M1150,2176 a104,104,0,1,0,208,0 a104,104,0,1,0,-208,0 z" fill-opacity="0" stroke="black" stroke-width="1"/>
<text font-family="Liberation Sans, Arial, sans-serif" font-size="12px" font-weight="bold" x="1167" y="2161">Sn_WalletRegistersPinPubKey</text>
<text font-family="Liberation Sans, Arial, sans-serif" font-size="12px" x="1167" y="2179">Wallet includes PinPublicKey in</text>
<text font-family="Liberation Sans, Arial, sans-serif" font-size="12px" x="1167" y="2192">enrollment message</text>
</g>
<g class="gsn_module_sole_control_2fa_registration gsnelem gsnsltn" id="node_sn_walletgenerateshwboundkey">
<title>Sn_WalletGeneratesHwBoundKey</title>
<path class="border" d="M1398,2176 a114,114,0,1,0,228,0 a114,114,0,1,0,-228,0 z" fill-opacity="0" stroke="black" stroke-width="1"/>
<text font-family="Liberation Sans, Arial, sans-serif" font-size="12px" font-weight="bold" x="1416" y="2155">Sn_WalletGeneratesHwBoundKey</text>
<text font-family="Liberation Sans, Arial, sans-serif" font-size="12px" x="1416" y="2173">Wallet generates SE/TEE-bound</text>
<text font-family="Liberation Sans, Arial, sans-serif" font-size="12px" x="1416" y="2186">HwPrivateKey plus Key</text>
<text font-family="Liberation Sans, Arial, sans-serif" font-size="12px" x="1416" y="2199">Attestation</text>
</g>
<g class="gsn_module_sole_control_2fa_registration gsnelem gsnsltn" id="node_sn_walletregistershwboundkey">
<title>Sn_WalletRegistersHwBoundKey</title>
<path class="border" d="M1666,2176 a114,114,0,1,0,228,0 a114,114,0,1,0,-228,0 z" fill-opacity="0" stroke="black" stroke-width="1"/>
<text font-family="Liberation Sans, Arial, sans-serif" font-size="12px" font-weight="bold" x="1686" y="2148">Sn_WalletRegistersHwBoundKey</text>
<text font-family="Liberation Sans, Arial, sans-serif" font-size="12px" x="1686" y="2166">Wallet includes</text>
<text font-family="Liberation Sans, Arial, sans-serif" font-size="12px" x="1686" y="2179">HwBoundPublicKey including Key</text>
<text font-family="Liberation Sans, Arial, sans-serif" font-size="12px" x="1686" y="2192">Attestation in enrollment</text>
<text font-family="Liberation Sans, Arial, sans-serif" font-size="12px" x="1686" y="2205">message</text>
</g>
<g class="gsn_module_sole_control_2fa_registration gsnelem gsnstgy" id="node_s_useappattestations">
<title>S_UseAppAttestations</title>
<path class="border" d="M1941,2141 L2125,2141 L2111,2211 L1927,2211 z" fill-opacity="0" stroke="black" stroke-width="1"/>
<text font-family="Liberation Sans, Arial, sans-serif" font-size="12px" font-weight="bold" x="1948" y="2161">S_UseAppAttestations</text>
<text font-family="Liberation Sans, Arial, sans-serif" font-size="12px" x="1946" y="2179">Use platform app attestations</text>
<text font-family="Liberation Sans, Arial, sans-serif" font-size="12px" x="1944" y="2192">to verify app and device</text>
<text font-family="Liberation Sans, Arial, sans-serif" font-size="12px" x="1942" y="2205">integrity</text>
</g>
<g class="gsn_module_sole_control_2fa_registration gsnelem gsnsltn" id="node_sn_walletasksforpin">
<title>Sn_WalletAsksForPin</title>
<path class="border" d="M736,2444 a79,79,0,1,0,158,0 a79,79,0,1,0,-158,0 z" fill-opacity="0" stroke="black" stroke-width="1"/>
<text font-family="Liberation Sans, Arial, sans-serif" font-size="12px" font-weight="bold" x="751" y="2436">Sn_WalletAsksForPin</text>
<text font-family="Liberation Sans, Arial, sans-serif" font-size="12px" x="751" y="2454">Wallet asks user for PIN</text>
</g>
<g class="gsn_module_sole_control_2fa_registration gsnelem gsngoal" id="node_g_pinhasminentropy">
<title>G_PinHasMinEntropy</title>
<path class="border" d="M934,2415 L1096,2415 L1096,2473 L934,2473 z" fill-opacity="0" stroke="black" stroke-width="1"/>
<text font-family="Liberation Sans, Arial, sans-serif" font-size="12px" font-weight="bold" x="941" y="2435">G_PinHasMinEntropy</text>
<text font-family="Liberation Sans, Arial, sans-serif" font-size="12px" x="941" y="2453">PIN has minimum entropy &amp;</text>
<text font-family="Liberation Sans, Arial, sans-serif" font-size="12px" x="941" y="2466">complexity</text>
</g>
<g class="gsn_module_sole_control_2fa_registration gsnelem gsnsltn" id="node_sn_walletgeneratessalt">
<title>Sn_WalletGeneratesSalt</title>
<path class="border" d="M1136,2444 a96,96,0,1,0,192,0 a96,96,0,1,0,-192,0 z" fill-opacity="0" stroke="black" stroke-width="1"/>
<text font-family="Liberation Sans, Arial, sans-serif" font-size="12px" font-weight="bold" x="1153" y="2429">Sn_WalletGeneratesSalt</text>
<text font-family="Liberation Sans, Arial, sans-serif" font-size="12px" x="1153" y="2447">Wallet generates and stores a</text>
<text font-family="Liberation Sans, Arial, sans-serif" font-size="12px" x="1153" y="2460">random salt</text>
</g>
<g class="gsn_module_sole_control_2fa_registration gsnelem gsnsltn" id="node_sn_walletprovidesappattestation">
<title>Sn_WalletProvidesAppAttestation</title>
<path class="border" d="M1787,2444 a114,114,0,1,0,228,0 a114,114,0,1,0,-228,0 z" fill-opacity="0" stroke="black" stroke-width="1"/>
<text font-family="Liberation Sans, Arial, sans-serif" font-size="12px" font-weight="bold" x="1805" y="2423">Sn_WalletProvidesAppAttestation</text>
<text font-family="Liberation Sans, Arial, sans-serif" font-size="12px" x="1805" y="2441">Wallet provides platform app</text>
<text font-family="Liberation Sans, Arial, sans-serif" font-size="12px" x="1805" y="2454">attestation in enrollment</text>
<text font-family="Liberation Sans, Arial, sans-serif" font-size="12px" x="1805" y="2467">message</text>
</g>
<g class="gsn_module_sole_control_2fa_registration gsnelem gsnsltn" id="node_sn_wbvalidatesattestations">
<title>Sn_WbValidatesAttestations</title>
<path class="border" d="M2055,2444 a97,97,0,1,0,194,0 a97,97,0,1,0,-194,0 z" fill-opacity="0" stroke="black" stroke-width="1"/>
<text font-family="Liberation Sans, Arial, sans-serif" font-size="12px" font-weight="bold" x="2071" y="2429">Sn_WbValidatesAttestations</text>
<text font-family="Liberation Sans, Arial, sans-serif" font-size="12px" x="2071" y="2447">WB validates app &amp; key</text>
<text font-family="Liberation Sans, Arial, sans-serif" font-size="12px" x="2071" y="2460">attestations</text>
</g>
<g class="gsn_module_sole_control_2fa_registration gsnelem gsnsltn" id="node_sn_pincomplexity">
<title>Sn_PinComplexity</title>
<path class="border" d="M916,2697 a99,99,0,1,0,198,0 a99,99,0,1,0,-198,0 z" fill-opacity="0" stroke="black" stroke-width="1"/>
<text font-family="Liberation Sans, Arial, sans-serif" font-size="12px" font-weight="bold" x="932" y="2682">Sn_PinComplexity</text>
<text font-family="Liberation Sans, Arial, sans-serif" font-size="12px" x="932" y="2700">Wallet enforces PIN complexity</text>
<text font-family="Liberation Sans, Arial, sans-serif" font-size="12px" x="932" y="2713">rules</text>
</g>
<path class="gsnedge gsninspby" d="M344,1703 C344,1733,113,1801,113,1821" fill-opacity="0" marker-end="url(#supportedby_arrow)" stroke="black" stroke-width="1"/>
<path class="gsnedge gsninspby" d="M344,1703 C344,1733,342,1798,342,1818" fill-opacity="0" marker-end="url(#supportedby_arrow)" stroke="black" stroke-width="1"/>
<path class="gsnedge gsninspby" d="M344,1703 C344,1733,576,1796,576,1816" fill-opacity="0" marker-end="url(#supportedby_arrow)" stroke="black" stroke-width="1"/>
<path class="gsnedge gsninspby" d="M795,1953 C795,1983,795,2045,795,2065" fill-opacity="0" marker-end="url(#supportedby_arrow)" stroke="black" stroke-width="1"/>
<path class="gsnedge gsninctxt" d="M1030,709 C1060,709,1040,709,1060,709" fill-opacity="0" marker-end="url(#incontextof_arrow)" stroke="black" stroke-width="1"/>
<path class="gsnedge gsninspby" d="M945,738 C945,768,581,832,581,852" fill-opacity="0" marker-end="url(#supportedby_arrow)" stroke="black" stroke-width="1"/>
<path class="gsnedge gsninspby" d="M945,738 C945,768,810,839,810,859" fill-opacity="0" marker-end="url(#supportedby_arrow)" stroke="black" stroke-width="1"/>
<path class="gsnedge gsninspby" d="M945,738 C945,768,1052,839,1052,859" fill-opacity="0" marker-end="url(#supportedby_arrow)" stroke="black" stroke-width="1"/>
<path class="gsnedge gsninspby" d="M945,738 C945,768,1310,832,1310,852" fill-opacity="0" marker-end="url(#supportedby_arrow)" stroke="black" stroke-width="1"/>
<path class="gsnedge gsninspby" d="M1015,2473 C1015,2503,1015,2568,1015,2588" fill-opacity="0" marker-end="url(#supportedby_arrow)" stroke="black" stroke-width="1"/>
<path class="gsnedge gsninspby" d="M121,738 C121,768,121,760,121,780" fill-opacity="0" marker-end="url(#supportedby_arrow)" stroke="black" stroke-width="1"/>
<path class="gsnedge gsninctxt" d="M442,320 C472,320,452,320,472,320" fill-opacity="0" marker-end="url(#incontextof_arrow)" stroke="black" stroke-width="1"/>
<path class="gsnedge gsninctxt" d="M254,320 C224,320,244,320,224,320" fill-opacity="0" marker-end="url(#incontextof_arrow)" stroke="black" stroke-width="1"/>
<path class="gsnedge gsninspby" d="M348,355 C348,385,348,460,348,480" fill-opacity="0" marker-end="url(#supportedby_arrow)" stroke="black" stroke-width="1"/>
<path class="gsnedge gsninspby" d="M358,738 C358,768,358,765,358,785" fill-opacity="0" marker-end="url(#supportedby_arrow)" stroke="black" stroke-width="1"/>
<path class="gsnedge gsninspby" d="M1102,355 C1102,385,1102,460,1102,480" fill-opacity="0" marker-end="url(#supportedby_arrow)" stroke="black" stroke-width="1"/>
<path class="gsnedge gsninctxt" d="M1507,1674 C1537,1674,1517,1674,1537,1674" fill-opacity="0" marker-end="url(#incontextof_arrow)" stroke="black" stroke-width="1"/>
<path class="gsnedge gsninspby" d="M1410,1703 C1410,1733,795,1865,795,1885" fill-opacity="0" marker-end="url(#supportedby_arrow)" stroke="black" stroke-width="1"/>
<path class="gsnedge gsninspby" d="M1410,1703 C1410,1733,1138,1865,1138,1885" fill-opacity="0" marker-end="url(#supportedby_arrow)" stroke="black" stroke-width="1"/>
<path class="gsnedge gsninspby" d="M1410,1703 C1410,1733,1646,1865,1646,1885" fill-opacity="0" marker-end="url(#supportedby_arrow)" stroke="black" stroke-width="1"/>
<path class="gsnedge gsninspby" d="M1410,1703 C1410,1733,2026,1865,2026,1885" fill-opacity="0" marker-end="url(#supportedby_arrow)" stroke="black" stroke-width="1"/>
<path class="gsnedge gsninctxt" d="M914,70 C944,70,924,70,944,70" fill-opacity="0" marker-end="url(#incontextof_arrow)" stroke="black" stroke-width="1"/>
<path class="gsnedge gsninspby" d="M827,105 C827,135,725,130,725,150" fill-opacity="0" marker-end="url(#supportedby_arrow)" stroke="black" stroke-width="1"/>
<path class="gsnedge gsninspby" d="M827,105 C827,135,930,140,930,160" fill-opacity="0" marker-end="url(#supportedby_arrow)" stroke="black" stroke-width="1"/>
<path class="gsnedge gsninspby" d="M1675,738 C1675,768,1552,832,1552,852" fill-opacity="0" marker-end="url(#supportedby_arrow)" stroke="black" stroke-width="1"/>
<path class="gsnedge gsninspby" d="M1675,738 C1675,768,1798,839,1798,859" fill-opacity="0" marker-end="url(#supportedby_arrow)" stroke="black" stroke-width="1"/>
<path class="gsnedge gsninspby" d="M581,920 C581,950,581,1084,581,1104" fill-opacity="0" marker-end="url(#supportedby_arrow)" stroke="black" stroke-width="1"/>
<path class="gsnedge gsninspby" d="M810,913 C810,943,810,1018,810,1038" fill-opacity="0" marker-end="url(#supportedby_arrow)" stroke="black" stroke-width="1"/>
<path class="gsnedge gsninspby" d="M1552,920 C1552,950,1552,1084,1552,1104" fill-opacity="0" marker-end="url(#supportedby_arrow)" stroke="black" stroke-width="1"/>
<path class="gsnedge gsninspby" d="M1798,913 C1798,943,1798,1084,1798,1104" fill-opacity="0" marker-end="url(#supportedby_arrow)" stroke="black" stroke-width="1"/>
<path class="gsnedge gsninspby" d="M840,1437 C840,1467,840,1532,840,1552" fill-opacity="0" marker-end="url(#supportedby_arrow)" stroke="black" stroke-width="1"/>
<path class="gsnedge gsninspby" d="M1052,913 C1052,943,1052,1006,1052,1026" fill-opacity="0" marker-end="url(#supportedby_arrow)" stroke="black" stroke-width="1"/>
<path class="gsnedge gsninspby" d="M1138,1953 C1138,1983,1023,2117,1023,2137" fill-opacity="0" marker-end="url(#supportedby_arrow)" stroke="black" stroke-width="1"/>
<path class="gsnedge gsninspby" d="M1138,1953 C1138,1983,1254,2042,1254,2062" fill-opacity="0" marker-end="url(#supportedby_arrow)" stroke="black" stroke-width="1"/>
<path class="gsnedge gsninspby" d="M1646,1953 C1646,1983,1512,2032,1512,2052" fill-opacity="0" marker-end="url(#supportedby_arrow)" stroke="black" stroke-width="1"/>
<path class="gsnedge gsninspby" d="M1646,1953 C1646,1983,1780,2032,1780,2052" fill-opacity="0" marker-end="url(#supportedby_arrow)" stroke="black" stroke-width="1"/>
<path class="gsnedge gsninspby" d="M1310,920 C1310,950,1310,1002,1310,1022" fill-opacity="0" marker-end="url(#supportedby_arrow)" stroke="black" stroke-width="1"/>
<path class="gsnedge gsninspby" d="M725,230 C725,260,348,255,348,275" fill-opacity="0" marker-end="url(#supportedby_arrow)" stroke="black" stroke-width="1"/>
<path class="gsnedge gsninspby" d="M725,230 C725,260,1102,255,1102,275" fill-opacity="0" marker-end="url(#supportedby_arrow)" stroke="black" stroke-width="1"/>
<path class="gsnedge gsninspby" d="M725,230 C725,260,855,380,855,400" fill-opacity="0" marker-end="url(#supportedby_arrow)" stroke="black" stroke-width="1"/>
<path class="gsnedge gsninspby" d="M2026,1953 C2026,1983,2026,2111,2026,2131" fill-opacity="0" marker-end="url(#supportedby_arrow)" stroke="black" stroke-width="1"/>
<path class="gsnedge gsninctxt" d="M442,519 C472,519,452,519,472,519" fill-opacity="0" marker-end="url(#incontextof_arrow)" stroke="black" stroke-width="1"/>
<path class="gsnedge gsninspby" d="M348,548 C348,578,121,650,121,670" fill-opacity="0" marker-end="url(#supportedby_arrow)" stroke="black" stroke-width="1"/>
<path class="gsnedge gsninspby" d="M348,548 C348,578,358,650,358,670" fill-opacity="0" marker-end="url(#supportedby_arrow)" stroke="black" stroke-width="1"/>
<path class="gsnedge gsninspby" d="M581,1172 C581,1202,840,1349,840,1369" fill-opacity="0" marker-end="url(#supportedby_arrow)" stroke="black" stroke-width="1"/>
<path class="gsnedge gsninspby" d="M581,1172 C581,1202,322,1267,322,1287" fill-opacity="0" marker-end="url(#supportedby_arrow)" stroke="black" stroke-width="1"/>
<path class="gsnedge gsninspby" d="M581,1172 C581,1202,587,1264,587,1284" fill-opacity="0" marker-end="url(#supportedby_arrow)" stroke="black" stroke-width="1"/>
<path class="gsnedge gsninspby" d="M1023,2205 C1023,2235,1015,2385,1015,2405" fill-opacity="0" marker-end="url(#supportedby_arrow)" stroke="black" stroke-width="1"/>
<path class="gsnedge gsninspby" d="M1023,2205 C1023,2235,815,2335,815,2355" fill-opacity="0" marker-end="url(#supportedby_arrow)" stroke="black" stroke-width="1"/>
<path class="gsnedge gsninspby" d="M1023,2205 C1023,2235,1232,2318,1232,2338" fill-opacity="0" marker-end="url(#supportedby_arrow)" stroke="black" stroke-width="1"/>
<path class="gsnedge gsninspby" d="M1102,548 C1102,578,468,620,468,709 S474,735,474,891 S344,1054,344,1143 S453,1234,453,1408 S344,1615,344,1635" fill-opacity="0" marker-end="url(#supportedby_arrow)" stroke="black" stroke-width="1"/>
<path class="gsnedge gsninspby" d="M1102,548 C1102,578,945,650,945,670" fill-opacity="0" marker-end="url(#supportedby_arrow)" stroke="black" stroke-width="1"/>
<path class="gsnedge gsninspby" d="M1102,548 C1102,578,1410,608,1410,709 S1418,802,1418,891 S1441,972,1441,1143 S1410,1615,1410,1635" fill-opacity="0" marker-end="url(#supportedby_arrow)" stroke="black" stroke-width="1"/>
<path class="gsnedge gsninspby" d="M1102,548 C1102,578,1675,650,1675,670" fill-opacity="0" marker-end="url(#supportedby_arrow)" stroke="black" stroke-width="1"/>
<path class="gsnedge gsninspby" d="M1552,1172 C1552,1202,1552,1275,1552,1295" fill-opacity="0" marker-end="url(#supportedby_arrow)" stroke="black" stroke-width="1"/>
<path class="gsnedge gsninspby" d="M2026,2211 C2026,2241,1901,2300,1901,2320" fill-opacity="0" marker-end="url(#supportedby_arrow)" stroke="black" stroke-width="1"/>
<path class="gsnedge gsninspby" d="M2026,2211 C2026,2241,2152,2317,2152,2337" fill-opacity="0" marker-end="url(#supportedby_arrow)" stroke="black" stroke-width="1"/>
<path class="gsnedge gsninspby" d="M1798,1172 C1798,1202,1798,1275,1798,1295" fill-opacity="0" marker-end="url(#supportedby_arrow)" stroke="black" stroke-width="1"/>
</svg>