<?xml version="1.0" encoding="UTF-8"?>
<svg class="gsndiagram" viewBox="0 0 3160 1887" xmlns="http://www.w3.org/2000/svg">
<defs>
<marker id="supportedby_arrow" markerHeight="9" markerUnits="userSpaceOnUse" markerWidth="10" orient="auto-start-reverse" refX="0" refY="4.5">
<polyline fill="black" points="0 0, 10 4.5, 0 9"/>
</marker>
<marker id="incontextof_arrow" markerHeight="9" markerUnits="userSpaceOnUse" markerWidth="10" orient="auto-start-reverse" refX="0" refY="4.5">
<polyline fill-opacity="0" points="0 0, 10 4.5, 0 9, 0 0" stroke="black" stroke-width="1"/>
</marker>
</defs>
<style type="text/css">
svg { background-color: white;}

/* CSS to invert SVG for dark mode */ 
@media (prefers-color-scheme: dark) {
    svg { filter: invert(100%); background-color: black; }
}

</style>
<g class="gsn_module_sole_control_main gsnelem gsngoal" id="node_g_solecontrol">
<title>G_SoleControl</title>
<path class="border" d="M1059,35 L1233,35 L1233,105 L1059,105 z" fill-opacity="0" stroke="black" stroke-width="1"/>
<text font-family="Liberation Sans, Arial, sans-serif" font-size="12px" font-weight="bold" x="1066" y="55">G_SoleControl</text>
<text font-family="Liberation Sans, Arial, sans-serif" font-size="12px" x="1066" y="73">PID issuer has assurance that</text>
<text font-family="Liberation Sans, Arial, sans-serif" font-size="12px" x="1066" y="86">User will have sole control</text>
<text font-family="Liberation Sans, Arial, sans-serif" font-size="12px" x="1066" y="99">over the PID</text>
</g>
<g class="gsn_module_sole_control_main gsnelem gsnasmp" id="node_a_pidissuertrustswb">
<title>A_PidIssuerTrustsWb</title>
<path class="border" d="M1273,70 a119,50,0,1,0,238,0 a119,50,0,1,0,-238,0 z" fill-opacity="0" stroke="black" stroke-width="1"/>
<text font-family="Liberation Sans, Arial, sans-serif" font-size="12px" font-weight="bold" x="1315" y="49">A_PidIssuerTrustsWb</text>
<text font-family="Liberation Sans, Arial, sans-serif" font-size="12px" x="1315" y="67">PID issuer trusts WB to issue</text>
<text font-family="Liberation Sans, Arial, sans-serif" font-size="12px" x="1315" y="80">WUA only to wallets</text>
<text font-family="Liberation Sans, Arial, sans-serif" font-size="12px" x="1315" y="93">implementing Sole Control</text>
<text font-family="Liberation Sans, Arial, sans-serif" font-size="12px" font-weight="bold" x="1506" y="115">A</text>
</g>
<g class="gsn_module_sole_control_main gsnelem gsngoal" id="node_g_wbenforcessolecontrol">
<title>G_WbEnforcesSoleControl</title>
<path class="border" d="M955,160 L1133,160 L1133,230 L955,230 z" fill-opacity="0" stroke="black" stroke-width="1"/>
<text font-family="Liberation Sans, Arial, sans-serif" font-size="12px" font-weight="bold" x="962" y="180">G_WbEnforcesSoleControl</text>
<text font-family="Liberation Sans, Arial, sans-serif" font-size="12px" x="962" y="198">WB enforces that the User has</text>
<text font-family="Liberation Sans, Arial, sans-serif" font-size="12px" x="962" y="211">sole control over all</text>
<text font-family="Liberation Sans, Arial, sans-serif" font-size="12px" x="962" y="224">attestations managed in Wallet</text>
</g>
<g class="gsn_module_sole_control_main gsnelem gsngoal gsn_undeveloped" id="node_g_wbissueswua">
<title>G_WbIssuesWua</title>
<path class="border" d="M1173,170 L1325,170 L1325,220 L1173,220 z" fill-opacity="0" stroke="black" stroke-width="1"/>
<text font-family="Liberation Sans, Arial, sans-serif" font-size="12px" font-weight="bold" x="1180" y="190">G_WbIssuesWua</text>
<text font-family="Liberation Sans, Arial, sans-serif" font-size="12px" x="1180" y="208">WB issues WUA to Wallet</text>
<path d="M1249,220 l5,5 l-5,5 l-5,-5 z" fill-opacity="0" stroke="black" stroke-width="1"/>
</g>
<g class="gsn_module_sole_control_main gsnelem gsnctxt" id="node_c_attestationdefinition">
<title>C_AttestationDefinition</title>
<path class="border" d="M30,291 L204,291 C214,291,214,349,204,349 L30,349 C20,349,20,291,30,291" fill-opacity="0" stroke="black" stroke-width="1"/>
<text font-family="Liberation Sans, Arial, sans-serif" font-size="12px" font-weight="bold" x="37" y="311">C_AttestationDefinition</text>
<text font-family="Liberation Sans, Arial, sans-serif" font-size="12px" x="37" y="329">Attestation consists of PrivKey</text>
<text font-family="Liberation Sans, Arial, sans-serif" font-size="12px" x="37" y="342">and Attestation Data</text>
</g>
<g class="gsn_module_sole_control_main gsnelem gsngoal" id="node_g_privkeyexclusivecustody">
<title>G_PrivKeyExclusiveCustody</title>
<path class="border" d="M254,285 L442,285 L442,355 L254,355 z" fill-opacity="0" stroke="black" stroke-width="1"/>
<text font-family="Liberation Sans, Arial, sans-serif" font-size="12px" font-weight="bold" x="261" y="305">G_PrivKeyExclusiveCustody</text>
<text font-family="Liberation Sans, Arial, sans-serif" font-size="12px" x="261" y="323">PrivKey remains under exclusive</text>
<text font-family="Liberation Sans, Arial, sans-serif" font-size="12px" x="261" y="336">custody of WB and is never</text>
<text font-family="Liberation Sans, Arial, sans-serif" font-size="12px" x="261" y="349">exposed</text>
</g>
<g class="gsn_module_sole_control_main gsnelem gsnasmp" id="node_a_wbistrusted">
<title>A_WbIsTrusted</title>
<path class="border" d="M482,320 a102,50,0,1,0,205,0 a102,50,0,1,0,-205,0 z" fill-opacity="0" stroke="black" stroke-width="1"/>
<text font-family="Liberation Sans, Arial, sans-serif" font-size="12px" font-weight="bold" x="518" y="299">A_WbIsTrusted</text>
<text font-family="Liberation Sans, Arial, sans-serif" font-size="12px" x="518" y="317">WB is trusted by Issuers,</text>
<text font-family="Liberation Sans, Arial, sans-serif" font-size="12px" x="518" y="330">Verifiers, Wallets to not</text>
<text font-family="Liberation Sans, Arial, sans-serif" font-size="12px" x="518" y="343">obtain Attestation Data</text>
<text font-family="Liberation Sans, Arial, sans-serif" font-size="12px" font-weight="bold" x="681" y="365">A</text>
</g>
<g class="gsn_module_sole_control_2fa gsnelem gsngoal" id="node_g_privkeyrequires2fa">
<title>G_PrivKeyRequires2fa</title>
<path class="border" d="M1647,285 L1835,285 L1835,355 L1647,355 z" fill-opacity="0" stroke="black" stroke-width="1"/>
<text font-family="Liberation Sans, Arial, sans-serif" font-size="12px" font-weight="bold" x="1654" y="305">G_PrivKeyRequires2fa</text>
<text font-family="Liberation Sans, Arial, sans-serif" font-size="12px" x="1654" y="323">WB allows usage of PrivKey only</text>
<text font-family="Liberation Sans, Arial, sans-serif" font-size="12px" x="1654" y="336">after 2FA authentication of</text>
<text font-family="Liberation Sans, Arial, sans-serif" font-size="12px" x="1654" y="349">User</text>
</g>
<g class="gsn_module_sole_control_main gsnelem gsnstgy" id="node_s_ensureprivkeysecure">
<title>S_EnsurePrivKeySecure</title>
<path class="border" d="M261,490 L449,490 L435,548 L247,548 z" fill-opacity="0" stroke="black" stroke-width="1"/>
<text font-family="Liberation Sans, Arial, sans-serif" font-size="12px" font-weight="bold" x="268" y="510">S_EnsurePrivKeySecure</text>
<text font-family="Liberation Sans, Arial, sans-serif" font-size="12px" x="265" y="528">Ensure secure generation,</text>
<text font-family="Liberation Sans, Arial, sans-serif" font-size="12px" x="262" y="541">storage, and usage of PrivKey</text>
</g>
<g class="gsn_module_sole_control_main gsnelem gsnasmp" id="node_a_wbtrustshsmvendor">
<title>A_WbTrustsHsmVendor</title>
<path class="border" d="M482,519 a112,41,0,1,0,224,0 a112,41,0,1,0,-224,0 z" fill-opacity="0" stroke="black" stroke-width="1"/>
<text font-family="Liberation Sans, Arial, sans-serif" font-size="12px" font-weight="bold" x="522" y="504">A_WbTrustsHsmVendor</text>
<text font-family="Liberation Sans, Arial, sans-serif" font-size="12px" x="522" y="522">WB trusts HSM vendor and</text>
<text font-family="Liberation Sans, Arial, sans-serif" font-size="12px" x="522" y="535">certification</text>
<text font-family="Liberation Sans, Arial, sans-serif" font-size="12px" font-weight="bold" x="701" y="555">A</text>
</g>
<g class="gsn_module_sole_control_main gsnelem gsnsltn" id="node_sn_walletstoresattestationdata">
<title>Sn_WalletStoresAttestationData</title>
<path class="border" d="M746,519 a109,109,0,1,0,218,0 a109,109,0,1,0,-218,0 z" fill-opacity="0" stroke="black" stroke-width="1"/>
<text font-family="Liberation Sans, Arial, sans-serif" font-size="12px" font-weight="bold" x="764" y="498">Sn_WalletStoresAttestationData</text>
<text font-family="Liberation Sans, Arial, sans-serif" font-size="12px" x="764" y="516">Wallet stores and maintains</text>
<text font-family="Liberation Sans, Arial, sans-serif" font-size="12px" x="764" y="529">Attestation Data but not</text>
<text font-family="Liberation Sans, Arial, sans-serif" font-size="12px" x="764" y="542">PrivKey</text>
</g>
<g class="gsn_module_sole_control_2fa gsnelem gsnstgy" id="node_s_possessionandknowledge">
<title>S_PossessionAndKnowledge</title>
<path class="border" d="M1650,490 L1846,490 L1832,548 L1636,548 z" fill-opacity="0" stroke="black" stroke-width="1"/>
<text font-family="Liberation Sans, Arial, sans-serif" font-size="12px" font-weight="bold" x="1657" y="510">S_PossessionAndKnowledge</text>
<text font-family="Liberation Sans, Arial, sans-serif" font-size="12px" x="1654" y="528">Use possession &amp; knowledge</text>
<text font-family="Liberation Sans, Arial, sans-serif" font-size="12px" x="1651" y="541">factor</text>
</g>
<g class="gsn_module_sole_control_main gsnelem gsngoal" id="node_g_privkeycannotbeextracted">
<title>G_PrivKeyCannotBeExtracted</title>
<path class="border" d="M29,668 L213,668 L213,726 L29,726 z" fill-opacity="0" stroke="black" stroke-width="1"/>
<text font-family="Liberation Sans, Arial, sans-serif" font-size="12px" font-weight="bold" x="36" y="688">G_PrivKeyCannotBeExtracted</text>
<text font-family="Liberation Sans, Arial, sans-serif" font-size="12px" x="36" y="706">PrivKey cannot be extracted or</text>
<text font-family="Liberation Sans, Arial, sans-serif" font-size="12px" x="36" y="719">copied from HSM</text>
</g>
<g class="gsn_module_sole_control_main gsnelem gsngoal" id="node_g_privkeyinhsm">
<title>G_PrivKeyInHsm</title>
<path class="border" d="M268,668 L448,668 L448,726 L268,726 z" fill-opacity="0" stroke="black" stroke-width="1"/>
<text font-family="Liberation Sans, Arial, sans-serif" font-size="12px" font-weight="bold" x="275" y="688">G_PrivKeyInHsm</text>
<text font-family="Liberation Sans, Arial, sans-serif" font-size="12px" x="275" y="706">PrivKey is generated inside a</text>
<text font-family="Liberation Sans, Arial, sans-serif" font-size="12px" x="275" y="719">certified HSM controlled by WB</text>
</g>
<g class="gsn_module_sole_control_2fa gsnelem gsngoal" id="node_g_communicationintegrity">
<title>G_CommunicationIntegrity</title>
<path class="border" d="M733,668 L903,668 L903,726 L733,726 z" fill-opacity="0" stroke="black" stroke-width="1"/>
<text font-family="Liberation Sans, Arial, sans-serif" font-size="12px" font-weight="bold" x="740" y="688">G_CommunicationIntegrity</text>
<text font-family="Liberation Sans, Arial, sans-serif" font-size="12px" x="740" y="706">Protect integrity of Wallet-WB</text>
<text font-family="Liberation Sans, Arial, sans-serif" font-size="12px" x="740" y="719">communication</text>
</g>
<g class="gsn_module_sole_control_2fa gsnelem gsngoal" id="node_g_use2fa">
<title>G_Use2fa</title>
<path class="border" d="M1868,668 L2012,668 L2012,726 L1868,726 z" fill-opacity="0" stroke="black" stroke-width="1"/>
<text font-family="Liberation Sans, Arial, sans-serif" font-size="12px" font-weight="bold" x="1875" y="688">G_Use2fa</text>
<text font-family="Liberation Sans, Arial, sans-serif" font-size="12px" x="1875" y="706">Require 2FA auth before</text>
<text font-family="Liberation Sans, Arial, sans-serif" font-size="12px" x="1875" y="719">allowing PrivKey usage</text>
</g>
<g class="gsn_module_sole_control_main gsnelem gsnsltn" id="node_sn_hsmenforcesnonexport">
<title>Sn_HsmEnforcesNonExport</title>
<path class="border" d="M20,867 a101,101,0,1,0,202,0 a101,101,0,1,0,-202,0 z" fill-opacity="0" stroke="black" stroke-width="1"/>
<text font-family="Liberation Sans, Arial, sans-serif" font-size="12px" font-weight="bold" x="36" y="852">Sn_HsmEnforcesNonExport</text>
<text font-family="Liberation Sans, Arial, sans-serif" font-size="12px" x="36" y="870">HSM enforces non-export policy</text>
<text font-family="Liberation Sans, Arial, sans-serif" font-size="12px" x="36" y="883">for PrivKey</text>
</g>
<g class="gsn_module_sole_control_main gsnelem gsnsltn" id="node_sn_wbuseshsmforprivkey">
<title>Sn_WbUsesHsmForPrivKey</title>
<path class="border" d="M262,867 a96,96,0,1,0,192,0 a96,96,0,1,0,-192,0 z" fill-opacity="0" stroke="black" stroke-width="1"/>
<text font-family="Liberation Sans, Arial, sans-serif" font-size="12px" font-weight="bold" x="279" y="852">Sn_WbUsesHsmForPrivKey</text>
<text font-family="Liberation Sans, Arial, sans-serif" font-size="12px" x="279" y="870">WB uses certified HSM to</text>
<text font-family="Liberation Sans, Arial, sans-serif" font-size="12px" x="279" y="883">generate &amp; protect PrivKey</text>
</g>
<g class="gsn_module_sole_control_2fa gsnelem gsnsltn" id="node_sn_pintls">
<title>Sn_PinTls</title>
<path class="border" d="M494,867 a93,93,0,1,0,186,0 a93,93,0,1,0,-186,0 z" fill-opacity="0" stroke="black" stroke-width="1"/>
<text font-family="Liberation Sans, Arial, sans-serif" font-size="12px" font-weight="bold" x="511" y="852">Sn_PinTls</text>
<text font-family="Liberation Sans, Arial, sans-serif" font-size="12px" x="511" y="870">Wallet pins TLS certificate of</text>
<text font-family="Liberation Sans, Arial, sans-serif" font-size="12px" x="511" y="883">WB CA</text>
</g>
<g class="gsn_module_sole_control_2fa gsnelem gsnsltn" id="node_sn_walletsignsinstructions">
<title>Sn_WalletSignsInstructions</title>
<path class="border" d="M720,867 a96,96,0,1,0,192,0 a96,96,0,1,0,-192,0 z" fill-opacity="0" stroke="black" stroke-width="1"/>
<text font-family="Liberation Sans, Arial, sans-serif" font-size="12px" font-weight="bold" x="737" y="852">Sn_WalletSignsInstructions</text>
<text font-family="Liberation Sans, Arial, sans-serif" font-size="12px" x="737" y="870">Wallet signs all its messages</text>
<text font-family="Liberation Sans, Arial, sans-serif" font-size="12px" x="737" y="883">with its HwPrivateKey</text>
</g>
<g class="gsn_module_sole_control_2fa gsnelem gsnsltn" id="node_sn_wbsignsresponses">
<title>Sn_WbSignsResponses</title>
<path class="border" d="M952,867 a98,98,0,1,0,196,0 a98,98,0,1,0,-196,0 z" fill-opacity="0" stroke="black" stroke-width="1"/>
<text font-family="Liberation Sans, Arial, sans-serif" font-size="12px" font-weight="bold" x="968" y="852">Sn_WbSignsResponses</text>
<text font-family="Liberation Sans, Arial, sans-serif" font-size="12px" x="968" y="870">WB signs all its responses with</text>
<text font-family="Liberation Sans, Arial, sans-serif" font-size="12px" x="968" y="883">a special purpose private key</text>
</g>
<g class="gsn_module_sole_control_2fa gsnelem gsngoal" id="node_g_registerenrollment">
<title>G_RegisterEnrollment</title>
<path class="border" d="M1188,838 L1382,838 L1382,896 L1188,896 z" fill-opacity="0" stroke="black" stroke-width="1"/>
<text font-family="Liberation Sans, Arial, sans-serif" font-size="12px" font-weight="bold" x="1195" y="858">G_RegisterEnrollment</text>
<text font-family="Liberation Sans, Arial, sans-serif" font-size="12px" x="1195" y="876">Register possession &amp; knowledge</text>
<text font-family="Liberation Sans, Arial, sans-serif" font-size="12px" x="1195" y="889">factors via enrollment message</text>
</g>
<g class="gsn_module_sole_control_2fa gsnelem gsnasmp" id="node_a_wbtrustsapplegoogle">
<title>A_WbTrustsAppleGoogle</title>
<path class="border" d="M1422,867 a133,41,0,1,0,266,0 a133,41,0,1,0,-266,0 z" fill-opacity="0" stroke="black" stroke-width="1"/>
<text font-family="Liberation Sans, Arial, sans-serif" font-size="12px" font-weight="bold" x="1468" y="852">A_WbTrustsAppleGoogle</text>
<text font-family="Liberation Sans, Arial, sans-serif" font-size="12px" x="1468" y="870">WB trusts Apple/Google Key and</text>
<text font-family="Liberation Sans, Arial, sans-serif" font-size="12px" x="1468" y="883">App Attestation services</text>
<text font-family="Liberation Sans, Arial, sans-serif" font-size="12px" font-weight="bold" x="1683" y="903">A</text>
</g>
<g class="gsn_module_sole_control_2fa gsnelem gsngoal" id="node_g_userproveshwkeycontrol">
<title>G_UserProvesHwKeyControl</title>
<path class="border" d="M1728,838 L1906,838 L1906,896 L1728,896 z" fill-opacity="0" stroke="black" stroke-width="1"/>
<text font-family="Liberation Sans, Arial, sans-serif" font-size="12px" font-weight="bold" x="1735" y="858">G_UserProvesHwKeyControl</text>
<text font-family="Liberation Sans, Arial, sans-serif" font-size="12px" x="1735" y="876">User proves control of</text>
<text font-family="Liberation Sans, Arial, sans-serif" font-size="12px" x="1735" y="889">device-bound hardware key</text>
</g>
<g class="gsn_module_sole_control_2fa gsnelem gsngoal" id="node_g_userprovespin">
<title>G_UserProvesPin</title>
<path class="border" d="M1975,845 L2151,845 L2151,889 L1975,889 z" fill-opacity="0" stroke="black" stroke-width="1"/>
<text font-family="Liberation Sans, Arial, sans-serif" font-size="12px" font-weight="bold" x="1982" y="865">G_UserProvesPin</text>
<text font-family="Liberation Sans, Arial, sans-serif" font-size="12px" x="1982" y="883">User proves knowledge of PIN</text>
</g>
<g class="gsn_module_sole_control_2fa gsnelem gsngoal" id="node_g_maintain2faintegrity">
<title>G_Maintain2faIntegrity</title>
<path class="border" d="M2579,838 L2749,838 L2749,896 L2579,896 z" fill-opacity="0" stroke="black" stroke-width="1"/>
<text font-family="Liberation Sans, Arial, sans-serif" font-size="12px" font-weight="bold" x="2586" y="858">G_Maintain2faIntegrity</text>
<text font-family="Liberation Sans, Arial, sans-serif" font-size="12px" x="2586" y="876">Maintain integrity of both 2FA</text>
<text font-family="Liberation Sans, Arial, sans-serif" font-size="12px" x="2586" y="889">factors</text>
</g>
<g class="gsn_module_sole_control_2fa gsnelem gsnasmp" id="node_a_userdoesnotsharepin">
<title>A_UserDoesNotSharePin</title>
<path class="border" d="M2789,867 a128,41,0,1,0,256,0 a128,41,0,1,0,-256,0 z" fill-opacity="0" stroke="black" stroke-width="1"/>
<text font-family="Liberation Sans, Arial, sans-serif" font-size="12px" font-weight="bold" x="2833" y="852">A_UserDoesNotSharePin</text>
<text font-family="Liberation Sans, Arial, sans-serif" font-size="12px" x="2833" y="870">User does not share knowledge</text>
<text font-family="Liberation Sans, Arial, sans-serif" font-size="12px" x="2833" y="883">factor with anyone</text>
<text font-family="Liberation Sans, Arial, sans-serif" font-size="12px" font-weight="bold" x="3040" y="903">A</text>
</g>
<g class="gsn_module_sole_control_2fa_registration gsnelem gsngoal" id="node_g_enrollmentfreshness">
<title>G_EnrollmentFreshness</title>
<path class="border" d="M40,1008 L202,1008 L202,1066 L40,1066 z" fill-opacity="0" stroke="black" stroke-width="1"/>
<text font-family="Liberation Sans, Arial, sans-serif" font-size="12px" font-weight="bold" x="47" y="1028">G_EnrollmentFreshness</text>
<text font-family="Liberation Sans, Arial, sans-serif" font-size="12px" x="47" y="1046">Enrollment proves message</text>
<text font-family="Liberation Sans, Arial, sans-serif" font-size="12px" x="47" y="1059">freshness</text>
</g>
<g class="gsn_module_sole_control_2fa_registration gsnelem gsngoal" id="node_g_walletregistersknowledgefactor">
<title>G_WalletRegistersKnowledgeFactor</title>
<path class="border" d="M354,1008 L574,1008 L574,1066 L354,1066 z" fill-opacity="0" stroke="black" stroke-width="1"/>
<text font-family="Liberation Sans, Arial, sans-serif" font-size="12px" font-weight="bold" x="361" y="1028">G_WalletRegistersKnowledgeFactor</text>
<text font-family="Liberation Sans, Arial, sans-serif" font-size="12px" x="361" y="1046">Wallet registers knowledge factor</text>
<text font-family="Liberation Sans, Arial, sans-serif" font-size="12px" x="361" y="1059">at WB</text>
</g>
<g class="gsn_module_sole_control_2fa_registration gsnelem gsngoal" id="node_g_walletregisterspossesionfactor">
<title>G_WalletRegistersPossesionFactor</title>
<path class="border" d="M864,1008 L1080,1008 L1080,1066 L864,1066 z" fill-opacity="0" stroke="black" stroke-width="1"/>
<text font-family="Liberation Sans, Arial, sans-serif" font-size="12px" font-weight="bold" x="871" y="1028">G_WalletRegistersPossesionFactor</text>
<text font-family="Liberation Sans, Arial, sans-serif" font-size="12px" x="871" y="1046">Wallet registers possession</text>
<text font-family="Liberation Sans, Arial, sans-serif" font-size="12px" x="871" y="1059">factor at WB</text>
</g>
<g class="gsn_module_sole_control_2fa_registration gsnelem gsngoal" id="node_g_wbverifiesapp">
<title>G_WbVerifiesApp</title>
<path class="border" d="M1264,1008 L1440,1008 L1440,1066 L1264,1066 z" fill-opacity="0" stroke="black" stroke-width="1"/>
<text font-family="Liberation Sans, Arial, sans-serif" font-size="12px" font-weight="bold" x="1271" y="1028">G_WbVerifiesApp</text>
<text font-family="Liberation Sans, Arial, sans-serif" font-size="12px" x="1271" y="1046">WB verifies that NL Wallet app</text>
<text font-family="Liberation Sans, Arial, sans-serif" font-size="12px" x="1271" y="1059">runs on a trustworthy device</text>
</g>
<g class="gsn_module_sole_control_2fa gsnelem gsnstgy" id="node_s_provehwkeypossession">
<title>S_ProveHwKeyPossession</title>
<path class="border" d="M1733,1008 L1915,1008 L1901,1066 L1719,1066 z" fill-opacity="0" stroke="black" stroke-width="1"/>
<text font-family="Liberation Sans, Arial, sans-serif" font-size="12px" font-weight="bold" x="1740" y="1028">S_ProveHwKeyPossession</text>
<text font-family="Liberation Sans, Arial, sans-serif" font-size="12px" x="1737" y="1046">Prove possession via signed</text>
<text font-family="Liberation Sans, Arial, sans-serif" font-size="12px" x="1734" y="1059">nonce with device-bound key</text>
</g>
<g class="gsn_module_sole_control_2fa gsnelem gsnstgy" id="node_s_verifypinknowledge">
<title>S_VerifyPinKnowledge</title>
<path class="border" d="M1970,1008 L2170,1008 L2156,1066 L1956,1066 z" fill-opacity="0" stroke="black" stroke-width="1"/>
<text font-family="Liberation Sans, Arial, sans-serif" font-size="12px" font-weight="bold" x="1978" y="1028">S_VerifyPinKnowledge</text>
<text font-family="Liberation Sans, Arial, sans-serif" font-size="12px" x="1975" y="1046">Verify knowledge via</text>
<text font-family="Liberation Sans, Arial, sans-serif" font-size="12px" x="1972" y="1059">PIN-derived key &amp; signed nonce</text>
</g>
<g class="gsn_module_sole_control_2fa gsnelem gsngoal" id="node_g_usercanblockwallet">
<title>G_UserCanBlockWallet</title>
<path class="border" d="M2213,1008 L2387,1008 L2387,1066 L2213,1066 z" fill-opacity="0" stroke="black" stroke-width="1"/>
<text font-family="Liberation Sans, Arial, sans-serif" font-size="12px" font-weight="bold" x="2220" y="1028">G_UserCanBlockWallet</text>
<text font-family="Liberation Sans, Arial, sans-serif" font-size="12px" x="2220" y="1046">User can block wallet if device</text>
<text font-family="Liberation Sans, Arial, sans-serif" font-size="12px" x="2220" y="1059">is lost</text>
</g>
<g class="gsn_module_sole_control_2fa gsnelem gsngoal" id="node_g_usercanchangepin">
<title>G_UserCanChangePin</title>
<path class="border" d="M2441,1015 L2617,1015 L2617,1059 L2441,1059 z" fill-opacity="0" stroke="black" stroke-width="1"/>
<text font-family="Liberation Sans, Arial, sans-serif" font-size="12px" font-weight="bold" x="2448" y="1035">G_UserCanChangePin</text>
<text font-family="Liberation Sans, Arial, sans-serif" font-size="12px" x="2448" y="1053">User can securely change PIN</text>
</g>
<g class="gsn_module_sole_control_2fa gsnelem gsngoal" id="node_g_walletdoesnotstorepin">
<title>G_WalletDoesNotStorePin</title>
<path class="border" d="M2690,1015 L2852,1015 L2852,1059 L2690,1059 z" fill-opacity="0" stroke="black" stroke-width="1"/>
<text font-family="Liberation Sans, Arial, sans-serif" font-size="12px" font-weight="bold" x="2697" y="1035">G_WalletDoesNotStorePin</text>
<text font-family="Liberation Sans, Arial, sans-serif" font-size="12px" x="2697" y="1053">Wallet does not store PIN</text>
</g>
<g class="gsn_module_sole_control_2fa gsnelem gsngoal" id="node_g_wbblocksoncompromise">
<title>G_WbBlocksOnCompromise</title>
<path class="border" d="M2941,1008 L3117,1008 L3117,1066 L2941,1066 z" fill-opacity="0" stroke="black" stroke-width="1"/>
<text font-family="Liberation Sans, Arial, sans-serif" font-size="12px" font-weight="bold" x="2948" y="1028">G_WbBlocksOnCompromise</text>
<text font-family="Liberation Sans, Arial, sans-serif" font-size="12px" x="2948" y="1046">WB blocks wallet on detected</text>
<text font-family="Liberation Sans, Arial, sans-serif" font-size="12px" x="2948" y="1059">device compromise</text>
</g>
<g class="gsn_module_sole_control_2fa_registration gsnelem gsnsltn" id="node_sn_wbprovidesnonce">
<title>Sn_WbProvidesNonce</title>
<path class="border" d="M20,1220 a101,101,0,1,0,202,0 a101,101,0,1,0,-202,0 z" fill-opacity="0" stroke="black" stroke-width="1"/>
<text font-family="Liberation Sans, Arial, sans-serif" font-size="12px" font-weight="bold" x="38" y="1199">Sn_WbProvidesNonce</text>
<text font-family="Liberation Sans, Arial, sans-serif" font-size="12px" x="38" y="1217">WB provides unique nonce for</text>
<text font-family="Liberation Sans, Arial, sans-serif" font-size="12px" x="38" y="1230">enrollment, and Wallet includes</text>
<text font-family="Liberation Sans, Arial, sans-serif" font-size="12px" x="38" y="1243">it in enrollment message</text>
</g>
<g class="gsn_module_sole_control_2fa_registration gsnelem gsnstgy" id="node_s_pinkey">
<title>S_PinKey</title>
<path class="border" d="M269,1191 L443,1191 L429,1249 L255,1249 z" fill-opacity="0" stroke="black" stroke-width="1"/>
<text font-family="Liberation Sans, Arial, sans-serif" font-size="12px" font-weight="bold" x="276" y="1211">S_PinKey</text>
<text font-family="Liberation Sans, Arial, sans-serif" font-size="12px" x="273" y="1229">Derive PIN private key from</text>
<text font-family="Liberation Sans, Arial, sans-serif" font-size="12px" x="270" y="1242">stored salt + PIN</text>
</g>
<g class="gsn_module_sole_control_2fa_registration gsnelem gsnsltn" id="node_sn_walletregisterspinpubkey">
<title>Sn_WalletRegistersPinPubKey</title>
<path class="border" d="M476,1220 a104,104,0,1,0,208,0 a104,104,0,1,0,-208,0 z" fill-opacity="0" stroke="black" stroke-width="1"/>
<text font-family="Liberation Sans, Arial, sans-serif" font-size="12px" font-weight="bold" x="493" y="1205">Sn_WalletRegistersPinPubKey</text>
<text font-family="Liberation Sans, Arial, sans-serif" font-size="12px" x="493" y="1223">Wallet includes PinPublicKey in</text>
<text font-family="Liberation Sans, Arial, sans-serif" font-size="12px" x="493" y="1236">enrollment message</text>
</g>
<g class="gsn_module_sole_control_2fa_registration gsnelem gsnsltn" id="node_sn_walletgenerateshwboundkey">
<title>Sn_WalletGeneratesHwBoundKey</title>
<path class="border" d="M724,1220 a114,114,0,1,0,228,0 a114,114,0,1,0,-228,0 z" fill-opacity="0" stroke="black" stroke-width="1"/>
<text font-family="Liberation Sans, Arial, sans-serif" font-size="12px" font-weight="bold" x="742" y="1199">Sn_WalletGeneratesHwBoundKey</text>
<text font-family="Liberation Sans, Arial, sans-serif" font-size="12px" x="742" y="1217">Wallet generates SE/TEE-bound</text>
<text font-family="Liberation Sans, Arial, sans-serif" font-size="12px" x="742" y="1230">HwPrivateKey plus Key</text>
<text font-family="Liberation Sans, Arial, sans-serif" font-size="12px" x="742" y="1243">Attestation</text>
</g>
<g class="gsn_module_sole_control_2fa_registration gsnelem gsnsltn" id="node_sn_walletregistershwboundkey">
<title>Sn_WalletRegistersHwBoundKey</title>
<path class="border" d="M992,1220 a114,114,0,1,0,228,0 a114,114,0,1,0,-228,0 z" fill-opacity="0" stroke="black" stroke-width="1"/>
<text font-family="Liberation Sans, Arial, sans-serif" font-size="12px" font-weight="bold" x="1012" y="1192">Sn_WalletRegistersHwBoundKey</text>
<text font-family="Liberation Sans, Arial, sans-serif" font-size="12px" x="1012" y="1210">Wallet includes</text>
<text font-family="Liberation Sans, Arial, sans-serif" font-size="12px" x="1012" y="1223">HwBoundPublicKey including Key</text>
<text font-family="Liberation Sans, Arial, sans-serif" font-size="12px" x="1012" y="1236">Attestation in enrollment</text>
<text font-family="Liberation Sans, Arial, sans-serif" font-size="12px" x="1012" y="1249">message</text>
</g>
<g class="gsn_module_sole_control_2fa_registration gsnelem gsnstgy" id="node_s_useappattestations">
<title>S_UseAppAttestations</title>
<path class="border" d="M1267,1185 L1451,1185 L1437,1255 L1253,1255 z" fill-opacity="0" stroke="black" stroke-width="1"/>
<text font-family="Liberation Sans, Arial, sans-serif" font-size="12px" font-weight="bold" x="1274" y="1205">S_UseAppAttestations</text>
<text font-family="Liberation Sans, Arial, sans-serif" font-size="12px" x="1272" y="1223">Use platform app attestations</text>
<text font-family="Liberation Sans, Arial, sans-serif" font-size="12px" x="1270" y="1236">to verify app and device</text>
<text font-family="Liberation Sans, Arial, sans-serif" font-size="12px" x="1268" y="1249">integrity</text>
</g>
<g class="gsn_module_sole_control_2fa gsnelem gsnsltn" id="node_sn_walletsignsnonce">
<title>Sn_WalletSignsNonce</title>
<path class="border" d="M1714,1220 a103,103,0,1,0,206,0 a103,103,0,1,0,-206,0 z" fill-opacity="0" stroke="black" stroke-width="1"/>
<text font-family="Liberation Sans, Arial, sans-serif" font-size="12px" font-weight="bold" x="1731" y="1205">Sn_WalletSignsNonce</text>
<text font-family="Liberation Sans, Arial, sans-serif" font-size="12px" x="1731" y="1223">Wallet signs WB-provided nonce</text>
<text font-family="Liberation Sans, Arial, sans-serif" font-size="12px" x="1731" y="1236">with HwPrivateKey</text>
</g>
<g class="gsn_module_sole_control_2fa gsnelem gsnsltn" id="node_sn_walletsignsnoncewithpin">
<title>Sn_WalletSignsNonceWithPin</title>
<path class="border" d="M1960,1220 a103,103,0,1,0,206,0 a103,103,0,1,0,-206,0 z" fill-opacity="0" stroke="black" stroke-width="1"/>
<text font-family="Liberation Sans, Arial, sans-serif" font-size="12px" font-weight="bold" x="1977" y="1205">Sn_WalletSignsNonceWithPin</text>
<text font-family="Liberation Sans, Arial, sans-serif" font-size="12px" x="1977" y="1223">Wallet signs WB-provided nonce</text>
<text font-family="Liberation Sans, Arial, sans-serif" font-size="12px" x="1977" y="1236">with PinPrivateKey</text>
</g>
<g class="gsn_module_sole_control_2fa gsnelem gsnstgy" id="node_s_outofbandrevocation">
<title>S_OutOfBandRevocation</title>
<path class="border" d="M2213,1191 L2401,1191 L2387,1249 L2199,1249 z" fill-opacity="0" stroke="black" stroke-width="1"/>
<text font-family="Liberation Sans, Arial, sans-serif" font-size="12px" font-weight="bold" x="2220" y="1211">S_OutOfBandRevocation</text>
<text font-family="Liberation Sans, Arial, sans-serif" font-size="12px" x="2217" y="1229">Enable out-of-band revocation</text>
<text font-family="Liberation Sans, Arial, sans-serif" font-size="12px" x="2214" y="1242">using server-generated code</text>
</g>
<g class="gsn_module_sole_control_2fa gsnelem gsnsltn" id="node_sn_pinchangeuses2fa">
<title>Sn_PinChangeUses2fa</title>
<path class="border" d="M2434,1220 a95,95,0,1,0,190,0 a95,95,0,1,0,-190,0 z" fill-opacity="0" stroke="black" stroke-width="1"/>
<text font-family="Liberation Sans, Arial, sans-serif" font-size="12px" font-weight="bold" x="2451" y="1205">Sn_PinChangeUses2fa</text>
<text font-family="Liberation Sans, Arial, sans-serif" font-size="12px" x="2451" y="1223">PIN change uses normal 2FA</text>
<text font-family="Liberation Sans, Arial, sans-serif" font-size="12px" x="2451" y="1236">process</text>
</g>
<g class="gsn_module_sole_control_2fa gsnelem gsnsltn" id="node_sn_walletderivespinprivatekey">
<title>Sn_WalletDerivesPinPrivateKey</title>
<path class="border" d="M2664,1220 a107,107,0,1,0,214,0 a107,107,0,1,0,-214,0 z" fill-opacity="0" stroke="black" stroke-width="1"/>
<text font-family="Liberation Sans, Arial, sans-serif" font-size="12px" font-weight="bold" x="2681" y="1205">Sn_WalletDerivesPinPrivateKey</text>
<text font-family="Liberation Sans, Arial, sans-serif" font-size="12px" x="2681" y="1223">Wallet stores salt &amp; derives</text>
<text font-family="Liberation Sans, Arial, sans-serif" font-size="12px" x="2681" y="1236">PinPrivateKey each time</text>
</g>
<g class="gsn_module_sole_control_2fa gsnelem gsnsltn" id="node_sn_wbrevokesonvulnerability">
<title>Sn_WbRevokesOnVulnerability</title>
<path class="border" d="M2918,1220 a111,111,0,1,0,222,0 a111,111,0,1,0,-222,0 z" fill-opacity="0" stroke="black" stroke-width="1"/>
<text font-family="Liberation Sans, Arial, sans-serif" font-size="12px" font-weight="bold" x="2935" y="1205">Sn_WbRevokesOnVulnerability</text>
<text font-family="Liberation Sans, Arial, sans-serif" font-size="12px" x="2935" y="1223">WB revokes keys &amp; blocks WUA on</text>
<text font-family="Liberation Sans, Arial, sans-serif" font-size="12px" x="2935" y="1236">detected vulnerability</text>
</g>
<g class="gsn_module_sole_control_2fa_registration gsnelem gsnsltn" id="node_sn_walletasksforpin">
<title>Sn_WalletAsksForPin</title>
<path class="border" d="M62,1488 a79,79,0,1,0,158,0 a79,79,0,1,0,-158,0 z" fill-opacity="0" stroke="black" stroke-width="1"/>
<text font-family="Liberation Sans, Arial, sans-serif" font-size="12px" font-weight="bold" x="77" y="1480">Sn_WalletAsksForPin</text>
<text font-family="Liberation Sans, Arial, sans-serif" font-size="12px" x="77" y="1498">Wallet asks user for PIN</text>
</g>
<g class="gsn_module_sole_control_2fa_registration gsnelem gsngoal" id="node_g_pinhasminentropy">
<title>G_PinHasMinEntropy</title>
<path class="border" d="M260,1459 L422,1459 L422,1517 L260,1517 z" fill-opacity="0" stroke="black" stroke-width="1"/>
<text font-family="Liberation Sans, Arial, sans-serif" font-size="12px" font-weight="bold" x="267" y="1479">G_PinHasMinEntropy</text>
<text font-family="Liberation Sans, Arial, sans-serif" font-size="12px" x="267" y="1497">PIN has minimum entropy &amp;</text>
<text font-family="Liberation Sans, Arial, sans-serif" font-size="12px" x="267" y="1510">complexity</text>
</g>
<g class="gsn_module_sole_control_2fa_registration gsnelem gsnsltn" id="node_sn_walletgeneratessalt">
<title>Sn_WalletGeneratesSalt</title>
<path class="border" d="M462,1488 a96,96,0,1,0,192,0 a96,96,0,1,0,-192,0 z" fill-opacity="0" stroke="black" stroke-width="1"/>
<text font-family="Liberation Sans, Arial, sans-serif" font-size="12px" font-weight="bold" x="479" y="1473">Sn_WalletGeneratesSalt</text>
<text font-family="Liberation Sans, Arial, sans-serif" font-size="12px" x="479" y="1491">Wallet generates and stores a</text>
<text font-family="Liberation Sans, Arial, sans-serif" font-size="12px" x="479" y="1504">random salt</text>
</g>
<g class="gsn_module_sole_control_2fa_registration gsnelem gsnsltn" id="node_sn_walletprovidesappattestation">
<title>Sn_WalletProvidesAppAttestation</title>
<path class="border" d="M1113,1488 a114,114,0,1,0,228,0 a114,114,0,1,0,-228,0 z" fill-opacity="0" stroke="black" stroke-width="1"/>
<text font-family="Liberation Sans, Arial, sans-serif" font-size="12px" font-weight="bold" x="1131" y="1467">Sn_WalletProvidesAppAttestation</text>
<text font-family="Liberation Sans, Arial, sans-serif" font-size="12px" x="1131" y="1485">Wallet provides platform app</text>
<text font-family="Liberation Sans, Arial, sans-serif" font-size="12px" x="1131" y="1498">attestation in enrollment</text>
<text font-family="Liberation Sans, Arial, sans-serif" font-size="12px" x="1131" y="1511">message</text>
</g>
<g class="gsn_module_sole_control_2fa_registration gsnelem gsnsltn" id="node_sn_wbvalidatesattestations">
<title>Sn_WbValidatesAttestations</title>
<path class="border" d="M1381,1488 a97,97,0,1,0,194,0 a97,97,0,1,0,-194,0 z" fill-opacity="0" stroke="black" stroke-width="1"/>
<text font-family="Liberation Sans, Arial, sans-serif" font-size="12px" font-weight="bold" x="1397" y="1473">Sn_WbValidatesAttestations</text>
<text font-family="Liberation Sans, Arial, sans-serif" font-size="12px" x="1397" y="1491">WB validates app &amp; key</text>
<text font-family="Liberation Sans, Arial, sans-serif" font-size="12px" x="1397" y="1504">attestations</text>
</g>
<g class="gsn_module_sole_control_2fa gsnelem gsnsltn" id="node_sn_walletshowsrevocationcode">
<title>Sn_WalletShowsRevocationCode</title>
<path class="border" d="M1930,1488 a111,111,0,1,0,222,0 a111,111,0,1,0,-222,0 z" fill-opacity="0" stroke="black" stroke-width="1"/>
<text font-family="Liberation Sans, Arial, sans-serif" font-size="12px" font-weight="bold" x="1946" y="1473">Sn_WalletShowsRevocationCode</text>
<text font-family="Liberation Sans, Arial, sans-serif" font-size="12px" x="1946" y="1491">Wallet shows revocation code</text>
<text font-family="Liberation Sans, Arial, sans-serif" font-size="12px" x="1946" y="1504">securely</text>
</g>
<g class="gsn_module_sole_control_2fa gsnelem gsnsltn" id="node_sn_wbgeneratesrevocationcode">
<title>Sn_WbGeneratesRevocationCode</title>
<path class="border" d="M2192,1488 a114,114,0,1,0,228,0 a114,114,0,1,0,-228,0 z" fill-opacity="0" stroke="black" stroke-width="1"/>
<text font-family="Liberation Sans, Arial, sans-serif" font-size="12px" font-weight="bold" x="2210" y="1467">Sn_WbGeneratesRevocationCode</text>
<text font-family="Liberation Sans, Arial, sans-serif" font-size="12px" x="2210" y="1485">WB generates revocation code</text>
<text font-family="Liberation Sans, Arial, sans-serif" font-size="12px" x="2210" y="1498">and sends it to wallet during</text>
<text font-family="Liberation Sans, Arial, sans-serif" font-size="12px" x="2210" y="1511">enrollment</text>
</g>
<g class="gsn_module_sole_control_2fa gsnelem gsngoal" id="node_g_usersubmitsrevocationcode">
<title>G_UserSubmitsRevocationCode</title>
<path class="border" d="M2460,1459 L2658,1459 L2658,1517 L2460,1517 z" fill-opacity="0" stroke="black" stroke-width="1"/>
<text font-family="Liberation Sans, Arial, sans-serif" font-size="12px" font-weight="bold" x="2467" y="1479">G_UserSubmitsRevocationCode</text>
<text font-family="Liberation Sans, Arial, sans-serif" font-size="12px" x="2467" y="1497">User can later submit</text>
<text font-family="Liberation Sans, Arial, sans-serif" font-size="12px" x="2467" y="1510">revocation code to block wallet</text>
</g>
<g class="gsn_module_sole_control_2fa_registration gsnelem gsnsltn" id="node_sn_pincomplexity">
<title>Sn_PinComplexity</title>
<path class="border" d="M242,1754 a99,99,0,1,0,198,0 a99,99,0,1,0,-198,0 z" fill-opacity="0" stroke="black" stroke-width="1"/>
<text font-family="Liberation Sans, Arial, sans-serif" font-size="12px" font-weight="bold" x="258" y="1739">Sn_PinComplexity</text>
<text font-family="Liberation Sans, Arial, sans-serif" font-size="12px" x="258" y="1757">Wallet enforces PIN complexity</text>
<text font-family="Liberation Sans, Arial, sans-serif" font-size="12px" x="258" y="1770">rules</text>
</g>
<g class="gsn_module_sole_control_2fa gsnelem gsnsltn" id="node_sn_wbblocksonrevocationcode">
<title>Sn_WbBlocksOnRevocationCode</title>
<path class="border" d="M2447,1754 a112,112,0,1,0,224,0 a112,112,0,1,0,-224,0 z" fill-opacity="0" stroke="black" stroke-width="1"/>
<text font-family="Liberation Sans, Arial, sans-serif" font-size="12px" font-weight="bold" x="2464" y="1739">Sn_WbBlocksOnRevocationCode</text>
<text font-family="Liberation Sans, Arial, sans-serif" font-size="12px" x="2464" y="1757">WB blocks wallet upon valid</text>
<text font-family="Liberation Sans, Arial, sans-serif" font-size="12px" x="2464" y="1770">revocation code</text>
</g>
<path class="gsnedge gsninspby" d="M818,726 C818,756,587,744,587,764" fill-opacity="0" marker-end="url(#supportedby_arrow)" stroke="black" stroke-width="1"/>
<path class="gsnedge gsninspby" d="M818,726 C818,756,816,741,816,761" fill-opacity="0" marker-end="url(#supportedby_arrow)" stroke="black" stroke-width="1"/>
<path class="gsnedge gsninspby" d="M818,726 C818,756,1050,739,1050,759" fill-opacity="0" marker-end="url(#supportedby_arrow)" stroke="black" stroke-width="1"/>
<path class="gsnedge gsninspby" d="M121,1066 C121,1096,121,1089,121,1109" fill-opacity="0" marker-end="url(#supportedby_arrow)" stroke="black" stroke-width="1"/>
<path class="gsnedge gsninctxt" d="M2749,867 C2779,867,2759,867,2779,867" fill-opacity="0" marker-end="url(#incontextof_arrow)" stroke="black" stroke-width="1"/>
<path class="gsnedge gsninspby" d="M2664,896 C2664,926,2300,978,2300,998" fill-opacity="0" marker-end="url(#supportedby_arrow)" stroke="black" stroke-width="1"/>
<path class="gsnedge gsninspby" d="M2664,896 C2664,926,2529,985,2529,1005" fill-opacity="0" marker-end="url(#supportedby_arrow)" stroke="black" stroke-width="1"/>
<path class="gsnedge gsninspby" d="M2664,896 C2664,926,2771,985,2771,1005" fill-opacity="0" marker-end="url(#supportedby_arrow)" stroke="black" stroke-width="1"/>
<path class="gsnedge gsninspby" d="M2664,896 C2664,926,3029,978,3029,998" fill-opacity="0" marker-end="url(#supportedby_arrow)" stroke="black" stroke-width="1"/>
<path class="gsnedge gsninspby" d="M341,1517 C341,1547,341,1625,341,1645" fill-opacity="0" marker-end="url(#supportedby_arrow)" stroke="black" stroke-width="1"/>
<path class="gsnedge gsninspby" d="M121,726 C121,756,121,736,121,756" fill-opacity="0" marker-end="url(#supportedby_arrow)" stroke="black" stroke-width="1"/>
<path class="gsnedge gsninctxt" d="M442,320 C472,320,452,320,472,320" fill-opacity="0" marker-end="url(#incontextof_arrow)" stroke="black" stroke-width="1"/>
<path class="gsnedge gsninctxt" d="M254,320 C224,320,244,320,224,320" fill-opacity="0" marker-end="url(#incontextof_arrow)" stroke="black" stroke-width="1"/>
<path class="gsnedge gsninspby" d="M348,355 C348,385,348,460,348,480" fill-opacity="0" marker-end="url(#supportedby_arrow)" stroke="black" stroke-width="1"/>
<path class="gsnedge gsninspby" d="M358,726 C358,756,358,741,358,761" fill-opacity="0" marker-end="url(#supportedby_arrow)" stroke="black" stroke-width="1"/>
<path class="gsnedge gsninspby" d="M1741,355 C1741,385,1741,460,1741,480" fill-opacity="0" marker-end="url(#supportedby_arrow)" stroke="black" stroke-width="1"/>
<path class="gsnedge gsninctxt" d="M1382,867 C1412,867,1392,867,1412,867" fill-opacity="0" marker-end="url(#incontextof_arrow)" stroke="black" stroke-width="1"/>
<path class="gsnedge gsninspby" d="M1285,896 C1285,926,121,978,121,998" fill-opacity="0" marker-end="url(#supportedby_arrow)" stroke="black" stroke-width="1"/>
<path class="gsnedge gsninspby" d="M1285,896 C1285,926,464,978,464,998" fill-opacity="0" marker-end="url(#supportedby_arrow)" stroke="black" stroke-width="1"/>
<path class="gsnedge gsninspby" d="M1285,896 C1285,926,972,978,972,998" fill-opacity="0" marker-end="url(#supportedby_arrow)" stroke="black" stroke-width="1"/>
<path class="gsnedge gsninspby" d="M1285,896 C1285,926,1352,978,1352,998" fill-opacity="0" marker-end="url(#supportedby_arrow)" stroke="black" stroke-width="1"/>
<path class="gsnedge gsninctxt" d="M1233,70 C1263,70,1243,70,1263,70" fill-opacity="0" marker-end="url(#incontextof_arrow)" stroke="black" stroke-width="1"/>
<path class="gsnedge gsninspby" d="M1146,105 C1146,135,1044,130,1044,150" fill-opacity="0" marker-end="url(#supportedby_arrow)" stroke="black" stroke-width="1"/>
<path class="gsnedge gsninspby" d="M1146,105 C1146,135,1249,140,1249,160" fill-opacity="0" marker-end="url(#supportedby_arrow)" stroke="black" stroke-width="1"/>
<path class="gsnedge gsninspby" d="M1940,726 C1940,756,1817,808,1817,828" fill-opacity="0" marker-end="url(#supportedby_arrow)" stroke="black" stroke-width="1"/>
<path class="gsnedge gsninspby" d="M1940,726 C1940,756,2063,815,2063,835" fill-opacity="0" marker-end="url(#supportedby_arrow)" stroke="black" stroke-width="1"/>
<path class="gsnedge gsninspby" d="M2300,1066 C2300,1096,2300,1161,2300,1181" fill-opacity="0" marker-end="url(#supportedby_arrow)" stroke="black" stroke-width="1"/>
<path class="gsnedge gsninspby" d="M2529,1059 C2529,1089,2529,1095,2529,1115" fill-opacity="0" marker-end="url(#supportedby_arrow)" stroke="black" stroke-width="1"/>
<path class="gsnedge gsninspby" d="M1817,896 C1817,926,1817,978,1817,998" fill-opacity="0" marker-end="url(#supportedby_arrow)" stroke="black" stroke-width="1"/>
<path class="gsnedge gsninspby" d="M2063,889 C2063,919,2063,978,2063,998" fill-opacity="0" marker-end="url(#supportedby_arrow)" stroke="black" stroke-width="1"/>
<path class="gsnedge gsninspby" d="M2559,1517 C2559,1547,2559,1612,2559,1632" fill-opacity="0" marker-end="url(#supportedby_arrow)" stroke="black" stroke-width="1"/>
<path class="gsnedge gsninspby" d="M2771,1059 C2771,1089,2771,1083,2771,1103" fill-opacity="0" marker-end="url(#supportedby_arrow)" stroke="black" stroke-width="1"/>
<path class="gsnedge gsninspby" d="M464,1066 C464,1096,349,1161,349,1181" fill-opacity="0" marker-end="url(#supportedby_arrow)" stroke="black" stroke-width="1"/>
<path class="gsnedge gsninspby" d="M464,1066 C464,1096,580,1086,580,1106" fill-opacity="0" marker-end="url(#supportedby_arrow)" stroke="black" stroke-width="1"/>
<path class="gsnedge gsninspby" d="M972,1066 C972,1096,838,1076,838,1096" fill-opacity="0" marker-end="url(#supportedby_arrow)" stroke="black" stroke-width="1"/>
<path class="gsnedge gsninspby" d="M972,1066 C972,1096,1106,1076,1106,1096" fill-opacity="0" marker-end="url(#supportedby_arrow)" stroke="black" stroke-width="1"/>
<path class="gsnedge gsninspby" d="M3029,1066 C3029,1096,3029,1079,3029,1099" fill-opacity="0" marker-end="url(#supportedby_arrow)" stroke="black" stroke-width="1"/>
<path class="gsnedge gsninspby" d="M1044,230 C1044,260,348,255,348,275" fill-opacity="0" marker-end="url(#supportedby_arrow)" stroke="black" stroke-width="1"/>
<path class="gsnedge gsninspby" d="M1044,230 C1044,260,1741,255,1741,275" fill-opacity="0" marker-end="url(#supportedby_arrow)" stroke="black" stroke-width="1"/>
<path class="gsnedge gsninspby" d="M1044,230 C1044,260,855,380,855,400" fill-opacity="0" marker-end="url(#supportedby_arrow)" stroke="black" stroke-width="1"/>
<path class="gsnedge gsninspby" d="M1352,1066 C1352,1096,1352,1155,1352,1175" fill-opacity="0" marker-end="url(#supportedby_arrow)" stroke="black" stroke-width="1"/>
<path class="gsnedge gsninctxt" d="M442,519 C472,519,452,519,472,519" fill-opacity="0" marker-end="url(#incontextof_arrow)" stroke="black" stroke-width="1"/>
<path class="gsnedge gsninspby" d="M348,548 C348,578,121,638,121,658" fill-opacity="0" marker-end="url(#supportedby_arrow)" stroke="black" stroke-width="1"/>
<path class="gsnedge gsninspby" d="M348,548 C348,578,358,638,358,658" fill-opacity="0" marker-end="url(#supportedby_arrow)" stroke="black" stroke-width="1"/>
<path class="gsnedge gsninspby" d="M2300,1249 C2300,1279,2559,1429,2559,1449" fill-opacity="0" marker-end="url(#supportedby_arrow)" stroke="black" stroke-width="1"/>
<path class="gsnedge gsninspby" d="M2300,1249 C2300,1279,2041,1347,2041,1367" fill-opacity="0" marker-end="url(#supportedby_arrow)" stroke="black" stroke-width="1"/>
<path class="gsnedge gsninspby" d="M2300,1249 C2300,1279,2306,1344,2306,1364" fill-opacity="0" marker-end="url(#supportedby_arrow)" stroke="black" stroke-width="1"/>
<path class="gsnedge gsninspby" d="M349,1249 C349,1279,341,1429,341,1449" fill-opacity="0" marker-end="url(#supportedby_arrow)" stroke="black" stroke-width="1"/>
<path class="gsnedge gsninspby" d="M349,1249 C349,1279,141,1379,141,1399" fill-opacity="0" marker-end="url(#supportedby_arrow)" stroke="black" stroke-width="1"/>
<path class="gsnedge gsninspby" d="M349,1249 C349,1279,558,1362,558,1382" fill-opacity="0" marker-end="url(#supportedby_arrow)" stroke="black" stroke-width="1"/>
<path class="gsnedge gsninspby" d="M1741,548 C1741,578,818,638,818,658" fill-opacity="0" marker-end="url(#supportedby_arrow)" stroke="black" stroke-width="1"/>
<path class="gsnedge gsninspby" d="M1741,548 C1741,578,2664,808,2664,828" fill-opacity="0" marker-end="url(#supportedby_arrow)" stroke="black" stroke-width="1"/>
<path class="gsnedge gsninspby" d="M1741,548 C1741,578,1285,808,1285,828" fill-opacity="0" marker-end="url(#supportedby_arrow)" stroke="black" stroke-width="1"/>
<path class="gsnedge gsninspby" d="M1741,548 C1741,578,1940,638,1940,658" fill-opacity="0" marker-end="url(#supportedby_arrow)" stroke="black" stroke-width="1"/>
<path class="gsnedge gsninspby" d="M1817,1066 C1817,1096,1817,1087,1817,1107" fill-opacity="0" marker-end="url(#supportedby_arrow)" stroke="black" stroke-width="1"/>
<path class="gsnedge gsninspby" d="M1352,1255 C1352,1285,1227,1344,1227,1364" fill-opacity="0" marker-end="url(#supportedby_arrow)" stroke="black" stroke-width="1"/>
<path class="gsnedge gsninspby" d="M1352,1255 C1352,1285,1478,1361,1478,1381" fill-opacity="0" marker-end="url(#supportedby_arrow)" stroke="black" stroke-width="1"/>
<path class="gsnedge gsninspby" d="M2063,1066 C2063,1096,2063,1087,2063,1107" fill-opacity="0" marker-end="url(#supportedby_arrow)" stroke="black" stroke-width="1"/>
</svg>