<svg xmlns="http://www.w3.org/2000/svg" width="52" height="52" fill="none"><path d="M0 0h52v52H0z" style="fill:red;fill-rule:evenodd;stroke-width:1.88976;stroke-linecap:round;stroke-linejoin:round;paint-order:stroke fill markers;fill-opacity:1"/><path fill="#fff" d="m20.313 43.21 3.41-3.44-3.41-3.44 2.276-2.296L26 37.474l3.411-3.44 2.276 2.296-3.41 3.44 3.41 3.44-2.282 2.29-3.411-3.44-3.411 3.44zm0-27.54 3.41-3.44-3.41-3.434L22.589 6.5 26 9.94l3.405-3.44 2.276 2.296-3.41 3.44 3.41 3.44-2.276 2.29-3.411-3.44-3.411 3.44zm0 13.78 3.41-3.44-3.41-3.435 2.276-2.295L26 23.72l3.411-3.44 2.276 2.295-3.41 3.44 3.41 3.44-2.282 2.29-3.411-3.44-3.411 3.44z"/></svg>