<svg width="32" height="33" viewBox="0 0 32 33" fill="none" xmlns="http://www.w3.org/2000/svg">
<rect y="0.5" width="32" height="32" rx="8" fill="url(#paint0_linear_23740_1199)"/>
<path d="M20.8125 23.0042C21.0887 23.4783 21.7002 23.6407 22.1785 23.367C22.6568 23.0933 22.8207 22.4871 22.5446 22.0131L21.5398 20.2881H23C23.5523 20.2881 24 19.8443 24 19.2969C24 18.7495 23.5523 18.3057 23 18.3057H20.385L17.4998 13.3525C17.0161 14.0096 16.5017 14.8437 16.6882 15.9239L20.8125 23.0042Z" fill="white"/>
<path d="M14.8453 12.76L13.8125 10.9869C13.5364 10.5129 13.7002 9.90666 14.1785 9.63296C14.6568 9.35925 15.2684 9.52168 15.5446 9.99575L16 10.7776L16.4554 9.99575C16.7316 9.52168 17.3432 9.35925 17.8215 9.63296C18.2997 9.90666 18.4636 10.5129 18.1875 10.9869L13.9243 18.3057H17.176C17.7708 18.508 18.25 19.1718 18.25 19.7925C18.25 19.9375 18.2153 20.1075 18.1586 20.2881H9C8.44772 20.2881 8 19.8443 8 19.2969C8 18.7495 8.44772 18.3057 9 18.3057H11.6149L14.8453 12.76Z" fill="white"/>
<path d="M11 20.6597C11.4227 20.6597 11.8008 20.8812 12.2098 21.2492L11.1875 23.0042C10.9113 23.4783 10.2997 23.6407 9.82146 23.367C9.34316 23.0933 9.17929 22.4871 9.45543 22.0131L10.1754 20.7771C10.3724 20.7173 10.4815 20.688 10.5926 20.6736C10.6997 20.6597 10.8087 20.6597 11 20.6597Z" fill="white"/>
<defs>
<linearGradient id="paint0_linear_23740_1199" x1="16" y1="0.5" x2="16" y2="32.5" gradientUnits="userSpaceOnUse">
<stop stop-color="#15C7FA"/>
<stop offset="1" stop-color="#216FF0"/>
</linearGradient>
</defs>
</svg>
