<svg width="25" height="24" viewBox="0 0 25 24" fill="none" xmlns="http://www.w3.org/2000/svg">
<path d="M21.8779 16.408C21.7922 16.4568 21.6978 16.4883 21.5999 16.5006C21.5021 16.5129 21.4028 16.5058 21.3077 16.4797C21.2126 16.4535 21.1236 16.4089 21.0458 16.3484C20.9679 16.2878 20.9028 16.2125 20.8541 16.1267L19.0729 13.0142C18.0373 13.7144 16.895 14.2419 15.6904 14.5761L16.2407 17.878C16.2569 17.9752 16.2539 18.0746 16.2316 18.1706C16.2094 18.2667 16.1685 18.3574 16.1112 18.4375C16.0539 18.5177 15.9814 18.5858 15.8978 18.638C15.8141 18.6901 15.721 18.7253 15.6238 18.7414C15.5838 18.748 15.5434 18.7514 15.5029 18.7517C15.3255 18.7515 15.1539 18.6883 15.0186 18.5735C14.8834 18.4586 14.7932 18.2996 14.7641 18.1245L14.2232 14.8827C13.0824 15.0414 11.9252 15.0414 10.7844 14.8827L10.2435 18.1245C10.2144 18.2999 10.124 18.4592 9.98831 18.5741C9.85267 18.6889 9.68063 18.7519 9.50288 18.7517C9.46142 18.7516 9.42005 18.7481 9.37913 18.7414C9.28191 18.7253 9.18883 18.6901 9.1052 18.638C9.02157 18.5858 8.94904 18.5177 8.89175 18.4375C8.83446 18.3574 8.79354 18.2667 8.77132 18.1706C8.7491 18.0746 8.74602 17.9752 8.76226 17.878L9.31538 14.5761C8.11128 14.2408 6.96957 13.7124 5.93476 13.0114L4.15913 16.1267C4.05968 16.3 3.89545 16.4267 3.70258 16.4789C3.50971 16.5312 3.304 16.5046 3.13069 16.4052C2.95739 16.3057 2.8307 16.1415 2.77848 15.9486C2.72626 15.7557 2.7528 15.55 2.85226 15.3767L4.72726 12.0955C4.06866 11.5265 3.46305 10.8989 2.91788 10.2205C2.84989 10.1446 2.79809 10.0556 2.76563 9.959C2.73317 9.8624 2.72073 9.7602 2.72909 9.65863C2.73744 9.55707 2.7664 9.45828 2.8142 9.36828C2.86201 9.27828 2.92765 9.19897 3.00713 9.13518C3.0866 9.0714 3.17824 9.02448 3.27645 8.99729C3.37467 8.9701 3.47739 8.96321 3.57835 8.97704C3.67932 8.99087 3.7764 9.02513 3.86368 9.07773C3.95097 9.13033 4.02661 9.20017 4.08601 9.28298C5.64226 11.2086 8.36476 13.5017 12.5029 13.5017C16.641 13.5017 19.3635 11.2058 20.9198 9.28298C20.9785 9.19847 21.054 9.12696 21.1415 9.07287C21.229 9.01879 21.3268 8.9833 21.4286 8.96862C21.5305 8.95393 21.6342 8.96036 21.7335 8.9875C21.8328 9.01464 21.9254 9.06192 22.0056 9.12639C22.0858 9.19086 22.1518 9.27114 22.1997 9.36224C22.2475 9.45335 22.2761 9.55332 22.2837 9.65594C22.2912 9.75857 22.2775 9.86164 22.2435 9.95876C22.2095 10.0559 22.1559 10.145 22.086 10.2205C21.5408 10.8989 20.9352 11.5265 20.2766 12.0955L22.1516 15.3767C22.202 15.4623 22.2348 15.5569 22.2483 15.6553C22.2618 15.7536 22.2556 15.8536 22.2301 15.9495C22.2047 16.0454 22.1604 16.1354 22.1 16.2141C22.0395 16.2928 21.964 16.3587 21.8779 16.408Z" fill="white"/>
</svg>
