<svg width="37" height="36" viewBox="0 0 37 36" fill="none" xmlns="http://www.w3.org/2000/svg">
<g id="icon/faceid">
<g id="face id">
<path d="M5.18994 11.2324V7.86328C5.18994 6.02168 6.68821 4.52344 8.52979 4.52344H11.8989C12.3196 4.52344 12.6606 4.18239 12.6606 3.76172C12.6606 3.34104 12.3196 3 11.8989 3H8.52979C5.84818 3 3.6665 5.18165 3.6665 7.86328V11.2324C3.6665 11.6531 4.00755 11.9941 4.42822 11.9941C4.8489 11.9941 5.18994 11.6531 5.18994 11.2324Z" fill="#383EDE"/>
<path d="M11.8989 31.4766C12.3196 31.4766 12.6606 31.8176 12.6606 32.2383C12.6606 32.659 12.3196 33 11.8989 33H8.52979C5.84818 33 3.6665 30.8183 3.6665 28.1367V24.7676C3.6665 24.3469 4.00755 24.0059 4.42822 24.0059C4.8489 24.0059 5.18994 24.3469 5.18994 24.7676V28.1367C5.18994 29.9783 6.68821 31.4766 8.52979 31.4766H11.8989Z" fill="#383EDE"/>
<path d="M33.6665 24.7676V28.1367C33.6665 30.8183 31.4848 33 28.8032 33H25.4341C25.0134 33 24.6724 32.659 24.6724 32.2383C24.6724 31.8176 25.0134 31.4766 25.4341 31.4766H28.8032C30.6448 31.4766 32.1431 29.9783 32.1431 28.1367V24.7676C32.1431 24.3469 32.4841 24.0059 32.9048 24.0059C33.3255 24.0059 33.6665 24.3469 33.6665 24.7676Z" fill="#383EDE"/>
<path d="M33.6665 7.86328V11.2324C33.6665 11.6531 33.3255 11.9941 32.9048 11.9941C32.4841 11.9941 32.1431 11.6531 32.1431 11.2324V7.86328C32.1431 6.02168 30.6448 4.52344 28.8032 4.52344H25.4341C25.0134 4.52344 24.6724 4.18239 24.6724 3.76172C24.6724 3.34104 25.0134 3 25.4341 3H28.8032C31.4848 3 33.6665 5.18165 33.6665 7.86328Z" fill="#383EDE"/>
<path d="M23.9232 25.1729C24.2441 24.8765 24.264 24.3761 23.9675 24.0551C23.6711 23.7342 23.1707 23.7144 22.8497 24.0108C21.7078 25.0656 20.2222 25.6465 18.6665 25.6465C17.1108 25.6465 15.6252 25.0656 14.4833 24.0108C14.1623 23.7144 13.6619 23.7342 13.3655 24.0551C13.069 24.3761 13.0889 24.8765 13.4098 25.1729C14.8449 26.4985 16.7117 27.2285 18.6665 27.2285C20.6213 27.2285 22.4881 26.4985 23.9232 25.1729Z" fill="#383EDE"/>
<path d="M20.2485 14.3086V19.9336C20.2485 21.0483 19.3417 21.9551 18.2271 21.9551H17.5825C17.1456 21.9551 16.7915 21.6009 16.7915 21.1641C16.7915 20.7272 17.1456 20.373 17.5825 20.373H18.2271C18.4694 20.373 18.6665 20.1759 18.6665 19.9336V14.3086C18.6665 13.8717 19.0206 13.5176 19.4575 13.5176C19.8944 13.5176 20.2485 13.8717 20.2485 14.3086Z" fill="#383EDE"/>
<path d="M25.6978 16.5205V14.2646C25.6978 13.8521 25.3633 13.5176 24.9507 13.5176C24.5381 13.5176 24.2036 13.8521 24.2036 14.2646V16.5205C24.2036 16.9331 24.5381 17.2676 24.9507 17.2676C25.3633 17.2676 25.6978 16.9331 25.6978 16.5205Z" fill="#383EDE"/>
<path d="M11.811 16.5205C11.811 16.9331 12.1455 17.2676 12.5581 17.2676C12.9707 17.2676 13.3052 16.9331 13.3052 16.5205V14.2646C13.3052 13.8521 12.9707 13.5176 12.5581 13.5176C12.1455 13.5176 11.811 13.8521 11.811 14.2646V16.5205Z" fill="#383EDE"/>
</g>
</g>
</svg>
