<svg width="300" height="300" viewBox="0 0 300 300" fill="none" xmlns="http://www.w3.org/2000/svg">
<path d="M257.425 55H55.5889C38.4227 55 24.5067 68.916 24.5067 86.0822V186.545C24.5067 203.711 38.4227 217.627 55.5889 217.627H185.237V208.263C179.725 207.669 178.032 201.628 178.032 188.898C178.032 175.47 181.679 159.686 186.178 159.686C190.677 159.686 194.324 175.47 194.324 188.898C194.324 201.577 192.263 207.621 187.121 208.256V217.627H257.425C274.591 217.627 288.507 203.711 288.507 186.545V86.0822C288.507 68.916 274.591 55 257.425 55Z" fill="#E3E0FD"/>
<path d="M230.82 164.672V126.018C230.82 124.11 232.367 122.563 234.274 122.563H270.188C272.097 122.563 273.643 124.111 273.643 126.018V144.416H290.288C292.062 144.416 293.501 145.854 293.501 147.629V216.5H230.599L230.82 164.672Z" fill="#152A62" stroke="#152A62" stroke-width="1.15117" stroke-miterlimit="10"/>
<path d="M218.012 126.433C218.012 124.294 219.745 122.561 221.884 122.561H257.382C259.29 122.561 260.836 124.108 260.836 126.015V144.413H274.794C276.587 144.413 278.039 145.866 278.039 147.658V216.497H218.146L218.012 126.432V126.433Z" fill="#BFA0F2" stroke="#152A62" stroke-width="1.15117" stroke-miterlimit="10"/>
<path d="M262.055 164.291H268.891C269.339 164.291 269.701 163.928 269.701 163.481V151.686C269.701 151.238 269.339 150.875 268.891 150.875H262.055C261.608 150.875 261.245 151.238 261.245 151.686V163.481C261.245 163.928 261.608 164.291 262.055 164.291Z" stroke="white" stroke-width="1.15117" stroke-miterlimit="10"/>
<path d="M262.055 185.391H268.891C269.339 185.391 269.701 185.028 269.701 184.58V172.785C269.701 172.338 269.339 171.975 268.891 171.975H262.055C261.608 171.975 261.245 172.338 261.245 172.785V184.58C261.245 185.028 261.608 185.391 262.055 185.391Z" stroke="white" stroke-width="1.15117" stroke-miterlimit="10"/>
<path d="M262.055 206.51H268.891C269.339 206.51 269.701 206.147 269.701 205.699V193.904C269.701 193.457 269.339 193.094 268.891 193.094H262.055C261.608 193.094 261.245 193.457 261.245 193.904V205.699C261.245 206.147 261.608 206.51 262.055 206.51Z" stroke="white" stroke-width="1.15117" stroke-miterlimit="10"/>
<path d="M244.996 164.291H251.832C252.28 164.291 252.642 163.928 252.642 163.481V151.686C252.642 151.238 252.28 150.875 251.832 150.875H244.996C244.549 150.875 244.186 151.238 244.186 151.686V163.481C244.186 163.928 244.549 164.291 244.996 164.291Z" stroke="white" stroke-width="1.15117" stroke-miterlimit="10"/>
<path d="M244.996 143.821H251.832C252.28 143.821 252.642 143.458 252.642 143.011V131.216C252.642 130.768 252.28 130.406 251.832 130.406H244.996C244.549 130.406 244.186 130.768 244.186 131.216V143.011C244.186 143.458 244.549 143.821 244.996 143.821Z" stroke="white" stroke-width="1.15117" stroke-miterlimit="10"/>
<path d="M244.996 185.391H251.832C252.28 185.391 252.642 185.028 252.642 184.58V172.785C252.642 172.338 252.28 171.975 251.832 171.975H244.996C244.549 171.975 244.186 172.338 244.186 172.785V184.58C244.186 185.028 244.549 185.391 244.996 185.391Z" stroke="white" stroke-width="1.15117" stroke-miterlimit="10"/>
<path d="M227.181 164.291H234.016C234.464 164.291 234.827 163.928 234.827 163.481V151.686C234.827 151.238 234.464 150.875 234.016 150.875H227.181C226.733 150.875 226.37 151.238 226.37 151.686V163.481C226.37 163.928 226.733 164.291 227.181 164.291Z" stroke="white" stroke-width="1.15117" stroke-miterlimit="10"/>
<path d="M227.181 143.821H234.016C234.464 143.821 234.827 143.458 234.827 143.011V131.216C234.827 130.768 234.464 130.406 234.016 130.406H227.181C226.733 130.406 226.37 130.768 226.37 131.216V143.011C226.37 143.458 226.733 143.821 227.181 143.821Z" stroke="white" stroke-width="1.15117" stroke-miterlimit="10"/>
<path d="M227.181 185.391H234.016C234.464 185.391 234.827 185.028 234.827 184.58V172.785C234.827 172.338 234.464 171.975 234.016 171.975H227.181C226.733 171.975 226.37 172.338 226.37 172.785V184.58C226.37 185.028 226.733 185.391 227.181 185.391Z" stroke="white" stroke-width="1.15117" stroke-miterlimit="10"/>
<path d="M245.725 216.499H231.643V195.381C231.643 194.637 232.247 194.033 232.991 194.033H244.377C245.12 194.033 245.725 194.637 245.725 195.381V216.499Z" stroke="white" stroke-width="1.15117" stroke-miterlimit="10"/>
<path d="M253.039 118.524V122.563" stroke="#152A62" stroke-width="1.15117" stroke-linejoin="round"/>
<path d="M231.635 118.524V122.563" stroke="#152A62" stroke-width="1.15117" stroke-linejoin="round"/>
<path d="M228.814 118.08H257.432C258.89 118.08 260.072 116.898 260.072 115.44V107.31C260.072 105.852 258.89 104.67 257.432 104.67H228.814C227.356 104.67 226.174 105.852 226.174 107.31V115.44C226.174 116.898 227.356 118.08 228.814 118.08Z" fill="#152A62" stroke="#152A62" stroke-width="1.15117" stroke-miterlimit="10"/>
<path d="M226.468 118.08H255.086C256.544 118.08 257.726 116.898 257.726 115.44V107.31C257.726 105.852 256.544 104.67 255.086 104.67H226.468C225.01 104.67 223.828 105.852 223.828 107.31V115.44C223.828 116.898 225.01 118.08 226.468 118.08Z" fill="#F5F4F9" stroke="#152A62" stroke-width="1.15117" stroke-miterlimit="10"/>
<path d="M296.272 216.498H212.507" stroke="#152A62" stroke-width="1.15117" stroke-miterlimit="10" stroke-linecap="round"/>
<g filter="url(#filter0_d_13240_70245)">
<path d="M282.575 26H228.809C223.119 26 218.507 30.6131 218.507 36.3024V70.8774C218.507 76.5679 223.12 81.1798 228.809 81.1798H240.813L246.469 90.9751C247.361 92.5205 249.591 92.5205 250.483 90.9751L256.139 81.1798H282.576C288.266 81.1798 292.878 76.5667 292.878 70.8774V36.3024C292.878 30.6119 288.265 26 282.576 26H282.575Z" fill="#A0F2DF" stroke="#152A62" stroke-width="1.14982" stroke-miterlimit="10"/>
<path d="M253.727 66.6564H253.723C252.674 66.6564 251.681 66.1758 251.026 65.3536L239.543 50.9108C238.358 49.4194 238.606 47.2486 240.096 46.0631C241.587 44.8788 243.758 45.126 244.943 46.6162L253.731 57.6683L267.428 40.5026C268.616 39.0136 270.787 38.7687 272.276 39.9576C273.765 41.1453 274.009 43.3162 272.821 44.8052L256.423 65.356C255.769 66.1769 254.777 66.6541 253.727 66.6541V66.6564Z" fill="#152A62"/>
</g>
<path d="M166.974 230.099L164.207 226.484L163.332 226.92C163.35 225.273 163.183 223.564 162.758 221.795L123.207 57.3713C120.09 44.41 108.087 33.9032 94.6179 33.9032H23.132C22.2153 33.9032 21.3283 33.9613 20.4598 34.0553L17.9151 30.2549L8.17417 39.996C8.17417 39.996 8.16428 40.0046 8.16057 40.0096L7.96016 40.21L7.96387 40.2273C3.73298 44.5325 1.9231 50.9408 3.64886 58.1111L43.199 222.534C46.0839 234.527 58.5267 244.249 70.9893 244.249H144.675C150.441 244.249 155.179 242.151 158.346 238.728L166.974 230.099Z" fill="#E3E0FD" stroke="#152A62" stroke-width="1.23711" stroke-miterlimit="10"/>
<path d="M54.7622 238.803C59.5547 242.185 65.264 244.254 70.9905 244.254H144.676C150.442 244.254 155.18 242.156 158.346 238.732L166.975 230.104L164.209 226.489L163.334 226.924C163.353 225.308 163.188 223.63 162.78 221.896L67.0763 226.49L54.7622 238.804V238.803Z" fill="#F5F4F9" stroke="#152A62" stroke-width="1.23711" stroke-miterlimit="10"/>
<path d="M154.319 234.606H80.6338C68.17 234.606 55.7285 224.884 52.8436 212.891L13.2934 48.4682C10.1759 35.5069 18.5684 25 32.038 25H102.079C115.549 25 128.996 35.5069 132.113 48.4682L171.664 212.891C174.548 224.884 166.783 234.606 154.319 234.606Z" fill="#152A62" stroke="#152A62" stroke-width="1.23711" stroke-miterlimit="10"/>
<path d="M78.6808 227.722C70.3539 227.722 62.0096 221.198 60.0797 213.179L20.5296 48.7562C19.462 44.3174 20.2624 40.1112 22.7836 36.912C25.3382 33.6682 29.3192 31.8831 33.9917 31.8831H43.6189C46.4221 31.8831 49.1264 33.9998 49.7772 36.7029C50.6753 40.4378 54.6699 43.3636 58.8686 43.3636H84.8873C86.8605 43.3636 88.4663 42.7066 89.4065 41.5116C90.2687 40.4167 90.5124 38.9557 90.1091 37.2806C89.7764 35.9013 90.0461 34.5231 90.8502 33.5037C91.6617 32.4732 92.9569 31.8818 94.4031 31.8818H104.031C113.364 31.8818 122.717 39.1907 124.878 48.1759L164.428 212.599C165.384 216.575 164.666 220.345 162.405 223.212C160.114 226.121 156.549 227.722 152.366 227.722H78.6808Z" fill="white" stroke="#152A62" stroke-width="1.23711" stroke-miterlimit="10"/>
<path d="M60.9158 35.7236H77.6661" stroke="#596890" stroke-width="1.23711" stroke-miterlimit="10" stroke-linecap="round"/>
<path d="M13.343 62.3564L8.86719 66.6319L10.7278 74.5025L15.2036 70.2282L13.343 62.3564Z" stroke="#152A62" stroke-width="1.23711" stroke-linejoin="round"/>
<path d="M16.9827 75L12.5068 79.2742L14.3674 87.146L18.8433 82.8706L16.9827 75Z" stroke="#152A62" stroke-width="1.23711" stroke-linejoin="round"/>
<path d="M100.509 275.776C135.127 275.776 163.19 273.078 163.19 269.749C163.19 266.42 135.127 263.722 100.509 263.722C65.892 263.722 37.8291 266.42 37.8291 269.749C37.8291 273.078 65.892 275.776 100.509 275.776Z" fill="#E3E0FD"/>
<path d="M117.585 104.163H53.0685C49.0566 104.163 45.0063 100.901 44.0203 96.8775L35.8418 63.4778C34.8559 59.4534 37.3103 56.1924 41.321 56.1924H105.837C109.849 56.1924 113.899 59.4546 114.885 63.4778L123.064 96.8775C124.05 100.902 121.595 104.163 117.585 104.163Z" fill="#BAD8FF" stroke="#152A62" stroke-width="1.23711" stroke-miterlimit="10"/>
<path d="M103.599 70.8991C104.582 69.801 104.243 67.8921 102.841 66.6356C101.438 65.379 99.504 65.2505 98.5201 66.3486C97.5362 67.4467 97.8754 69.3556 99.2778 70.6122C100.68 71.8688 102.615 71.9972 103.599 70.8991Z" fill="#152A62"/>
<path d="M102.069 72.7529C99.0702 72.7529 97.2368 75.1913 97.9728 78.1987L98.5852 80.7014C98.7658 81.44 99.5093 82.0387 100.245 82.0387H108.437C109.174 82.0387 109.624 81.44 109.443 80.7014L108.831 78.1987C108.095 75.1913 105.066 72.7529 102.069 72.7529Z" fill="#152A62"/>
<path d="M86.1462 71.5972H49.3462C48.3218 71.5972 47.2864 70.7634 47.034 69.7353L46.512 67.605C46.2608 66.577 46.8868 65.7432 47.9124 65.7432H84.7124C85.7368 65.7432 86.7722 66.577 87.0246 67.605L87.5466 69.7353C87.7978 70.7634 87.1718 71.5972 86.1462 71.5972Z" fill="#152A62"/>
<path d="M77.9204 80.3093H50.9837C50.2328 80.3093 49.4745 79.6994 49.2901 78.946L49.0576 77.9971C48.8732 77.2437 49.3322 76.6338 50.0831 76.6338H77.0198C77.7707 76.6338 78.529 77.2437 78.7134 77.9971L78.9459 78.946C79.1303 79.6994 78.6713 80.3093 77.9204 80.3093Z" fill="#152A62"/>
<path d="M63.2996 94.7517H54.5198C53.7689 94.7517 53.0106 94.1417 52.8263 93.3883L52.5937 92.4395C52.4094 91.6861 52.8683 91.0762 53.6192 91.0762H62.399C63.1499 91.0762 63.9082 91.6861 64.0926 92.4395L64.3251 93.3883C64.5095 94.1417 64.0505 94.7517 63.2996 94.7517Z" fill="#152A62"/>
<path d="M131.81 159.353H65.8611C61.6722 159.353 57.4896 156.086 56.5197 152.054L48.4711 118.596C47.5013 114.565 50.1115 111.297 54.3004 111.297H120.249C124.438 111.297 128.621 114.564 129.59 118.596L137.639 152.054C138.609 156.084 135.999 159.353 131.81 159.353Z" fill="#FFD4CE" stroke="#152A62" stroke-width="1.23711" stroke-miterlimit="10"/>
<path d="M99.4607 126.731H62.4552C61.3852 126.731 60.3163 125.896 60.0689 124.867L59.5555 122.732C59.308 121.703 59.9749 120.868 61.045 120.868H98.0504C99.1205 120.868 100.189 121.703 100.437 122.732L100.95 124.867C101.198 125.896 100.531 126.731 99.4607 126.731Z" fill="#152A62"/>
<path d="M90.7416 135.456H64.035C63.2507 135.456 62.4688 134.845 62.287 134.091L62.0581 133.139C61.8763 132.385 62.3649 131.773 63.1492 131.773H89.8558C90.6401 131.773 91.422 132.385 91.6038 133.139L91.8327 134.091C92.0145 134.845 91.5259 135.456 90.7416 135.456Z" fill="#152A62"/>
<path d="M75.2607 149.925H67.5152C66.7309 149.925 65.9491 149.314 65.7672 148.559L65.5384 147.608C65.3565 146.853 65.8451 146.242 66.6295 146.242H74.375C75.1593 146.242 75.9411 146.853 76.123 147.608L76.3519 148.559C76.5337 149.314 76.045 149.925 75.2607 149.925Z" fill="#152A62"/>
<path d="M109.135 128.497L108.731 128.155C108.461 127.926 108.394 127.573 108.581 127.365L113.875 121.53C114.174 121.201 114.75 121.201 115.208 121.53L123.309 127.365C123.596 127.572 123.7 127.926 123.539 128.155L123.299 128.497C123.139 128.726 122.775 128.744 122.488 128.536L114.914 123.079L109.963 128.536C109.775 128.742 109.404 128.725 109.134 128.496L109.135 128.497Z" fill="#152A62"/>
<path d="M123.827 135.544L121.831 127.251L114.676 122.097L110 127.251L111.994 135.538C112.087 135.923 112.486 136.238 112.883 136.238H115.366C115.755 136.238 116.04 135.876 115.949 135.498L114.927 131.251C114.845 130.914 115.063 130.638 115.409 130.638H118.049C118.396 130.638 118.746 130.914 118.828 131.251L119.916 135.779C119.981 136.049 120.222 136.238 120.499 136.238H123.277C123.67 136.238 123.916 135.926 123.824 135.544H123.827Z" fill="#152A62"/>
<path d="M145.251 214.79H79.3026C75.1138 214.79 70.9311 211.523 69.9613 207.491L61.9127 174.033C60.9428 170.003 63.5531 166.734 67.7419 166.734H133.691C137.879 166.734 142.062 170.002 143.032 174.033L151.081 207.491C152.05 211.522 149.44 214.79 145.251 214.79Z" fill="white" stroke="#152A62" stroke-width="1.23711" stroke-miterlimit="10"/>
<path d="M104.184 190.899H77.4773C76.6929 190.899 75.9111 190.288 75.7292 189.533L75.5004 188.582C75.3185 187.827 75.8072 187.216 76.5915 187.216H103.298C104.082 187.216 104.864 187.827 105.046 188.582L105.275 189.533C105.457 190.288 104.968 190.899 104.184 190.899Z" fill="#152A62"/>
<path d="M88.7027 205.363H80.9572C80.1729 205.363 79.3911 204.752 79.2092 203.997L78.9804 203.045C78.7985 202.291 79.2872 201.68 80.0715 201.68H87.817C88.6013 201.68 89.3832 202.291 89.565 203.045L89.7939 203.997C89.9757 204.752 89.4871 205.363 88.7027 205.363Z" fill="#152A62"/>
<path d="M112.903 182.167H75.8971C74.827 182.167 73.7582 181.332 73.5108 180.303L72.9974 178.169C72.7499 177.14 73.4167 176.305 74.4868 176.305H111.492C112.562 176.305 113.631 177.14 113.879 178.169L114.392 180.303C114.639 181.332 113.973 182.167 112.903 182.167Z" fill="#152A62"/>
<path d="M134.753 189.253H125.836C124.662 189.253 123.49 188.336 123.217 187.207L121.154 178.627C120.882 177.498 121.614 176.581 122.788 176.581H131.705C132.879 176.581 134.052 177.498 134.324 178.627L136.388 187.207C136.66 188.336 135.927 189.253 134.753 189.253Z" fill="#152A62"/>
<defs>
<filter id="filter0_d_13240_70245" x="217.932" y="25.4248" width="77.821" height="68.434" filterUnits="userSpaceOnUse" color-interpolation-filters="sRGB">
<feFlood flood-opacity="0" result="BackgroundImageFix"/>
<feColorMatrix in="SourceAlpha" type="matrix" values="0 0 0 0 0 0 0 0 0 0 0 0 0 0 0 0 0 0 127 0" result="hardAlpha"/>
<feOffset dx="2.29964" dy="1.14982"/>
<feComposite in2="hardAlpha" operator="out"/>
<feColorMatrix type="matrix" values="0 0 0 0 0.0823529 0 0 0 0 0.164706 0 0 0 0 0.384314 0 0 0 1 0"/>
<feBlend mode="normal" in2="BackgroundImageFix" result="effect1_dropShadow_13240_70245"/>
<feBlend mode="normal" in="SourceGraphic" in2="effect1_dropShadow_13240_70245" result="shape"/>
</filter>
</defs>
</svg>
