<svg width="300" height="300" viewBox="0 0 300 300" fill="none" xmlns="http://www.w3.org/2000/svg">
<path d="M251.636 74.7295H49.8003C32.6341 74.7295 18.7181 88.6457 18.7181 105.812V206.276C18.7181 223.443 32.6341 237.359 49.8003 237.359H251.636C268.802 237.359 282.718 223.443 282.718 206.276V105.812C282.718 88.6457 268.802 74.7295 251.636 74.7295Z" fill="#E3E0FD"/>
<path d="M95.3875 17.0234H268.265C274.387 17.0234 279.359 21.9949 279.359 28.1175V146.264C279.359 152.255 274.494 157.12 268.503 157.12H95.1501C89.1592 157.12 84.2947 152.255 84.2947 146.264V28.1175C84.2947 21.9949 89.2649 17.0234 95.3875 17.0234Z" fill="#152A62" stroke="#152A62" stroke-width="1.24318" stroke-linejoin="round"/>
<path d="M91.8685 17.0234H264.746C270.868 17.0234 275.84 21.9949 275.84 28.1175V146.264C275.84 152.255 270.975 157.12 264.984 157.12H91.631C85.6402 157.12 80.7756 152.255 80.7756 146.264V28.1175C80.7756 21.9949 85.7471 17.0234 91.8697 17.0234H91.8685Z" fill="white" stroke="#152A62" stroke-width="1.24318" stroke-linejoin="round"/>
<path d="M91.631 17H264.984C270.975 17 275.84 21.8645 275.84 27.8554V39.3138H80.7756V27.8554C80.7756 21.8645 85.6402 17 91.631 17Z" fill="#BAD8FF" stroke="#152A62" stroke-width="1.24318" stroke-linejoin="round"/>
<path d="M262.338 25.4561H125.15C123.654 25.4561 122.441 26.6689 122.441 28.165V28.1662C122.441 29.6623 123.654 30.8751 125.15 30.8751H262.338C263.834 30.8751 265.047 29.6623 265.047 28.1662V28.165C265.047 26.6689 263.834 25.4561 262.338 25.4561Z" fill="#F0F5FF" stroke="#152A62" stroke-width="1.24318" stroke-linejoin="round"/>
<path d="M90.5798 31.093C92.1947 31.093 93.5038 29.784 93.5038 28.1691C93.5038 26.5542 92.1947 25.2451 90.5798 25.2451C88.965 25.2451 87.6559 26.5542 87.6559 28.1691C87.6559 29.784 88.965 31.093 90.5798 31.093Z" fill="#F8AAFF" stroke="#152A62" stroke-width="1.24318" stroke-linejoin="round"/>
<path d="M100.632 31.093C102.247 31.093 103.556 29.784 103.556 28.1691C103.556 26.5542 102.247 25.2451 100.632 25.2451C99.0172 25.2451 97.7081 26.5542 97.7081 28.1691C97.7081 29.784 99.0172 31.093 100.632 31.093Z" fill="white" stroke="#152A62" stroke-width="1.24318" stroke-linejoin="round"/>
<path d="M110.683 31.093C112.298 31.093 113.607 29.784 113.607 28.1691C113.607 26.5542 112.298 25.2451 110.683 25.2451C109.068 25.2451 107.759 26.5542 107.759 28.1691C107.759 29.784 109.068 31.093 110.683 31.093Z" fill="#6CE19E" stroke="#152A62" stroke-width="1.24318" stroke-linejoin="round"/>
<path d="M161.422 88.0154V75.1759C161.422 65.8645 168.997 58.291 178.307 58.291C187.617 58.291 195.192 65.8657 195.192 75.1759V87.7133H188.936V75.1759C188.936 69.3143 184.168 64.5455 178.307 64.5455C172.445 64.5455 167.678 69.3143 167.678 75.1759V88.0154H161.422Z" fill="#152A62" stroke="#152A62" stroke-width="1.24318" stroke-miterlimit="10"/>
<path d="M197.915 83.1006H158.696C155.431 83.1006 152.784 85.7472 152.784 89.0119V122.747C152.784 126.011 155.431 128.658 158.696 128.658H197.915C201.18 128.658 203.827 126.011 203.827 122.747V89.0119C203.827 85.7472 201.18 83.1006 197.915 83.1006Z" fill="#FFD4CE" stroke="#152A62" stroke-width="1.24318" stroke-linejoin="round"/>
<path d="M184.992 101.045C184.992 97.3203 181.946 94.3069 178.21 94.3591C174.514 94.4113 171.388 97.8089 171.634 101.497C171.803 104.029 173.383 106.169 175.593 107.153V115.415C175.593 116.232 176.255 116.894 177.072 116.894H179.54C180.356 116.894 181.019 116.232 181.019 115.415V107.153C183.359 106.112 184.992 103.771 184.992 101.045Z" fill="#152A62" stroke="#152A62" stroke-width="1.24318" stroke-linejoin="round"/>
<path d="M167.453 241.887L164.915 238.57L164.112 238.97C164.129 237.459 163.975 235.89 163.585 234.267L127.296 83.4011C124.435 71.5085 113.423 61.868 101.064 61.868H35.4721C34.631 61.868 33.8171 61.9213 33.0203 62.0076L30.6854 58.5205L21.7476 67.4584C21.7476 67.4584 21.7386 67.4664 21.7352 67.4709L21.5513 67.6548L21.5547 67.6707C17.6727 71.6209 16.012 77.5008 17.5955 84.0799L53.8845 234.946C56.5316 245.95 67.9484 254.871 79.3833 254.871H146.993C152.284 254.871 156.631 252.945 159.537 249.805L167.453 241.887Z" fill="#E3E0FD" stroke="#152A62" stroke-width="1.13511" stroke-miterlimit="10"/>
<path d="M64.494 249.876C68.8914 252.979 74.1298 254.877 79.3842 254.877H146.994C152.285 254.877 156.632 252.952 159.537 249.811L167.454 241.894L164.916 238.577L164.113 238.976C164.131 237.494 163.98 235.954 163.605 234.363L75.7928 238.578L64.494 249.877V249.876Z" fill="#F5F4F9" stroke="#152A62" stroke-width="1.13511" stroke-miterlimit="10"/>
<path d="M155.842 246.024H88.2325C76.7964 246.024 65.3807 237.103 62.7337 226.099L26.4446 75.2333C23.5842 63.3407 31.2847 53.7002 43.6436 53.7002H107.909C120.268 53.7002 132.607 63.3407 135.467 75.2333L171.756 226.099C174.403 237.103 167.278 246.024 155.842 246.024Z" fill="#152A62" stroke="#152A62" stroke-width="1.13511" stroke-miterlimit="10"/>
<path d="M86.4407 239.712C78.8004 239.712 71.1441 233.726 69.3734 226.368L33.0844 75.5025C32.1048 71.4297 32.8392 67.5703 35.1525 64.6349C37.4965 61.6586 41.1492 60.0207 45.4365 60.0207H54.2698C56.8419 60.0207 59.3232 61.9629 59.9203 64.4431C60.7444 67.87 64.4096 70.5545 68.2621 70.5545H92.1355C93.946 70.5545 95.4193 69.9518 96.282 68.8553C97.0731 67.8507 97.2968 66.5101 96.9267 64.9732C96.6214 63.7075 96.8688 62.443 97.6066 61.5077C98.3513 60.5621 99.5397 60.0195 100.867 60.0195H109.701C118.264 60.0195 126.846 66.7258 128.829 74.9701L165.118 225.836C165.995 229.484 165.336 232.943 163.262 235.574C161.16 238.243 157.888 239.712 154.05 239.712H86.4407Z" fill="white" stroke="#152A62" stroke-width="1.13511" stroke-miterlimit="10"/>
<path d="M125.347 189.498H95.8952C93.0141 189.498 91.2414 191.833 91.9369 194.715L98.7561 222.994C99.4507 225.875 102.35 228.211 105.231 228.211H134.683C137.564 228.211 139.336 225.876 138.641 222.994L131.822 194.715C131.127 191.834 128.228 189.498 125.347 189.498Z" fill="#00BC83" stroke="#152A62" stroke-width="0.917546" stroke-miterlimit="10"/>
<path d="M126.859 205.321H115.016C113.393 202.812 110.423 201.052 107.371 201.052C103.295 201.052 100.616 204.188 101.387 208.057C102.159 211.927 106.087 215.063 110.163 215.063C113.215 215.063 115.484 213.303 116.106 210.793H119.095L120.566 208.972L122.727 210.76L124.174 208.972L126.371 210.793H127.948L129.86 208.058L126.858 205.323L126.859 205.321ZM109.289 210.68C107.763 210.68 106.291 209.505 106.002 208.056C105.713 206.607 106.717 205.433 108.243 205.433C109.769 205.433 111.241 206.607 111.53 208.056C111.819 209.505 110.816 210.68 109.289 210.68Z" fill="white" stroke="#152A62" stroke-width="0.917546" stroke-linejoin="round"/>
<path d="M70.1399 63.5361H85.5091" stroke="#596890" stroke-width="1.13511" stroke-miterlimit="10" stroke-linecap="round"/>
<path d="M26.4898 87.9795L22.3831 91.9024L24.0902 99.1241L28.197 95.2022L26.4898 87.9795Z" stroke="#152A62" stroke-width="1.13511" stroke-linejoin="round"/>
<path d="M29.8293 99.5791L25.7225 103.501L27.4297 110.724L31.5365 106.801L29.8293 99.5791Z" stroke="#152A62" stroke-width="1.13511" stroke-linejoin="round"/>
<path d="M106.469 283.8C138.232 283.8 163.981 281.324 163.981 278.27C163.981 275.215 138.232 272.739 106.469 272.739C74.7064 272.739 48.9574 275.215 48.9574 278.27C48.9574 281.324 74.7064 283.8 106.469 283.8Z" fill="#E3E0FD"/>
<path d="M123.972 126.338H64.7754C61.0943 126.338 57.3779 123.344 56.4733 119.653L48.9691 89.0069C48.0645 85.3144 50.3165 82.3223 53.9965 82.3223H113.193C116.874 82.3223 120.59 85.3155 121.495 89.0069L128.999 119.653C129.904 123.345 127.652 126.338 123.972 126.338Z" fill="#BAD8FF" stroke="#152A62" stroke-width="1.13511" stroke-miterlimit="10"/>
<path d="M111.139 95.8128C112.042 94.8053 111.73 93.0538 110.444 91.9008C109.157 90.7479 107.382 90.63 106.479 91.6375C105.576 92.6451 105.888 94.3966 107.174 95.5496C108.461 96.7025 110.236 96.8204 111.139 95.8128Z" fill="#152A62"/>
<path d="M109.735 97.5264C106.984 97.5264 105.302 99.7637 105.977 102.523L106.539 104.819C106.705 105.497 107.387 106.047 108.062 106.047H115.579C116.254 106.047 116.667 105.497 116.502 104.819L115.94 102.523C115.264 99.7637 112.486 97.5264 109.735 97.5264Z" fill="#152A62"/>
<path d="M95.1263 96.4485H61.3606C60.4207 96.4485 59.4706 95.6834 59.2391 94.7402L58.7601 92.7855C58.5297 91.8422 59.104 91.0771 60.045 91.0771H93.8107C94.7506 91.0771 95.7007 91.8422 95.9322 92.7855L96.4112 94.7402C96.6417 95.6834 96.0673 96.4485 95.1263 96.4485Z" fill="#152A62"/>
<path d="M87.5782 104.451H62.8626C62.1735 104.451 61.4777 103.891 61.3086 103.2L61.0952 102.329C60.9261 101.638 61.3472 101.078 62.0362 101.078H86.7518C87.4408 101.078 88.1366 101.638 88.3058 102.329L88.5192 103.2C88.6883 103.891 88.2672 104.451 87.5782 104.451Z" fill="#152A62"/>
<path d="M74.1627 117.699H66.1069C65.4179 117.699 64.7221 117.139 64.553 116.448L64.3396 115.577C64.1705 114.886 64.5916 114.326 65.2806 114.326H73.3364C74.0254 114.326 74.7212 114.886 74.8903 115.577L75.1037 116.448C75.2729 117.139 74.8517 117.699 74.1627 117.699Z" fill="#152A62"/>
</svg>
