<svg width="300" height="300" viewBox="0 0 300 300" fill="none" xmlns="http://www.w3.org/2000/svg">
<path d="M250.918 54.7178H49.0822C31.916 54.7178 18 68.6339 18 85.8004V186.264C18 203.431 31.916 217.347 49.0822 217.347H250.918C268.084 217.347 282 203.431 282 186.264V85.8004C282 68.6339 268.084 54.7178 250.918 54.7178Z" fill="#E3E0FD"/>
<path d="M232.467 230.099L229.701 226.484L228.825 226.92C228.843 225.273 228.676 223.564 228.251 221.795L188.701 57.3713C185.583 44.41 173.581 33.9032 160.111 33.9032H88.6253C87.7086 33.9032 86.8216 33.9613 85.9531 34.0553L83.4084 30.2549L73.6675 39.996C73.6675 39.996 73.6576 40.0046 73.6539 40.0096L73.4534 40.21L73.4572 40.2273C69.2263 44.5325 67.4164 50.9408 69.1421 58.1111L108.692 222.534C111.577 234.527 124.02 244.249 136.483 244.249H210.168C215.934 244.249 220.672 242.151 223.839 238.728L232.467 230.099Z" fill="#E3E0FD" stroke="#152A62" stroke-width="1.23711" stroke-miterlimit="10"/>
<path d="M120.255 238.803C125.048 242.185 130.757 244.254 136.484 244.254H210.169C215.935 244.254 220.674 242.156 223.839 238.732L232.468 230.104L229.702 226.489L228.827 226.924C228.846 225.308 228.681 223.63 228.273 221.896L132.57 226.49L120.255 238.804V238.803Z" fill="#F5F4F9" stroke="#152A62" stroke-width="1.23711" stroke-miterlimit="10"/>
<path d="M219.813 234.606H146.127C133.663 234.606 121.222 224.884 118.337 212.891L78.7867 48.4682C75.6692 35.5069 84.0617 25 97.5313 25H167.572C181.042 25 194.489 35.5069 197.607 48.4682L237.157 212.891C240.042 224.884 232.276 234.606 219.813 234.606Z" fill="#152A62" stroke="#152A62" stroke-width="1.23711" stroke-miterlimit="10"/>
<path d="M144.174 227.722C135.847 227.722 127.503 221.198 125.573 213.179L86.0229 48.7562C84.9553 44.3174 85.7557 40.1112 88.2769 36.912C90.8315 33.6682 94.8125 31.8831 99.485 31.8831H109.112C111.915 31.8831 114.62 33.9998 115.27 36.7029C116.169 40.4378 120.163 43.3636 124.362 43.3636H150.381C152.354 43.3636 153.96 42.7066 154.9 41.5116C155.762 40.4167 156.006 38.9557 155.602 37.2806C155.27 35.9013 155.539 34.5231 156.343 33.5037C157.155 32.4732 158.45 31.8818 159.896 31.8818H169.525C178.857 31.8818 188.21 39.1907 190.371 48.1759L229.921 212.599C230.878 216.575 230.159 220.345 227.899 223.212C225.608 226.121 222.042 227.722 217.86 227.722H144.174Z" fill="white" stroke="#152A62" stroke-width="1.23711" stroke-miterlimit="10"/>
<path d="M126.409 35.7236H143.159" stroke="#596890" stroke-width="1.23711" stroke-miterlimit="10" stroke-linecap="round"/>
<path d="M78.8363 62.3564L74.3605 66.6319L76.2211 74.5025L80.6969 70.2282L78.8363 62.3564Z" stroke="#152A62" stroke-width="1.23711" stroke-linejoin="round"/>
<path d="M82.476 75L78.0001 79.2742L79.8607 87.146L84.3366 82.8706L82.476 75Z" stroke="#152A62" stroke-width="1.23711" stroke-linejoin="round"/>
<path d="M166.003 275.776C200.62 275.776 228.683 273.078 228.683 269.749C228.683 266.42 200.62 263.722 166.003 263.722C131.385 263.722 103.322 266.42 103.322 269.749C103.322 273.078 131.385 275.776 166.003 275.776Z" fill="#E3E0FD"/>
<path d="M183.078 104.163H118.562C114.55 104.163 110.5 100.901 109.514 96.8775L101.335 63.4778C100.349 59.4534 102.804 56.1924 106.814 56.1924H171.33C175.342 56.1924 179.393 59.4546 180.379 63.4778L188.557 96.8775C189.543 100.902 187.089 104.163 183.078 104.163Z" fill="#BAD8FF" stroke="#152A62" stroke-width="1.23711" stroke-miterlimit="10"/>
<path d="M169.092 70.8991C170.076 69.801 169.737 67.8921 168.334 66.6356C166.932 65.379 164.997 65.2505 164.013 66.3486C163.029 67.4467 163.369 69.3556 164.771 70.6122C166.173 71.8688 168.108 71.9972 169.092 70.8991Z" fill="#152A62"/>
<path d="M167.562 72.7529C164.563 72.7529 162.73 75.1913 163.466 78.1987L164.079 80.7014C164.259 81.44 165.003 82.0387 165.739 82.0387H173.931C174.667 82.0387 175.117 81.44 174.937 80.7014L174.324 78.1987C173.588 75.1913 170.56 72.7529 167.562 72.7529Z" fill="#152A62"/>
<path d="M151.64 71.5972H114.839C113.815 71.5972 112.78 70.7634 112.527 69.7353L112.005 67.605C111.754 66.577 112.38 65.7432 113.406 65.7432H150.206C151.23 65.7432 152.266 66.577 152.518 67.605L153.04 69.7353C153.291 70.7634 152.665 71.5972 151.64 71.5972Z" fill="#152A62"/>
<path d="M143.414 80.3093H116.477C115.726 80.3093 114.968 79.6994 114.783 78.946L114.551 77.9971C114.367 77.2437 114.825 76.6338 115.576 76.6338H142.513C143.264 76.6338 144.022 77.2437 144.207 77.9971L144.439 78.946C144.624 79.6994 144.165 80.3093 143.414 80.3093Z" fill="#152A62"/>
<path d="M128.793 94.7517H120.013C119.262 94.7517 118.504 94.1417 118.32 93.3883L118.087 92.4395C117.903 91.6861 118.362 91.0762 119.113 91.0762H127.892C128.643 91.0762 129.402 91.6861 129.586 92.4395L129.818 93.3883C130.003 94.1417 129.544 94.7517 128.793 94.7517Z" fill="#152A62"/>
<path d="M197.303 159.353H131.354C127.166 159.353 122.983 156.086 122.013 152.054L113.964 118.596C112.995 114.565 115.605 111.297 119.794 111.297H185.742C189.931 111.297 194.114 114.564 195.084 118.596L203.132 152.054C204.102 156.084 201.492 159.353 197.303 159.353Z" fill="#FFD4CE" stroke="#152A62" stroke-width="1.23711" stroke-miterlimit="10"/>
<path d="M164.954 126.731H127.949C126.878 126.731 125.81 125.896 125.562 124.867L125.049 122.732C124.801 121.703 125.468 120.868 126.538 120.868H163.544C164.614 120.868 165.683 121.703 165.93 122.732L166.443 124.867C166.691 125.896 166.024 126.731 164.954 126.731Z" fill="#152A62"/>
<path d="M156.235 135.456H129.528C128.744 135.456 127.962 134.845 127.78 134.091L127.551 133.139C127.37 132.385 127.858 131.773 128.643 131.773H155.349C156.133 131.773 156.915 132.385 157.097 133.139L157.326 134.091C157.508 134.845 157.019 135.456 156.235 135.456Z" fill="#152A62"/>
<path d="M140.754 149.925H133.009C132.224 149.925 131.442 149.314 131.26 148.559L131.032 147.608C130.85 146.853 131.338 146.242 132.123 146.242H139.868C140.653 146.242 141.434 146.853 141.616 147.608L141.845 148.559C142.027 149.314 141.538 149.925 140.754 149.925Z" fill="#152A62"/>
<path d="M174.628 128.497L174.224 128.155C173.954 127.926 173.887 127.573 174.074 127.365L179.368 121.53C179.667 121.201 180.244 121.201 180.701 121.53L188.802 127.365C189.089 127.572 189.193 127.926 189.032 128.155L188.792 128.497C188.632 128.726 188.269 128.744 187.982 128.536L180.407 123.079L175.456 128.536C175.268 128.742 174.897 128.725 174.627 128.496L174.628 128.497Z" fill="#152A62"/>
<path d="M189.32 135.544L187.325 127.251L180.169 122.097L175.493 127.251L177.487 135.538C177.58 135.923 177.98 136.238 178.377 136.238H180.859C181.248 136.238 181.534 135.876 181.442 135.498L180.42 131.251C180.339 130.914 180.556 130.638 180.903 130.638H183.543C183.889 130.638 184.239 130.914 184.321 131.251L185.41 135.779C185.474 136.049 185.715 136.238 185.992 136.238H188.771C189.163 136.238 189.409 135.926 189.318 135.544H189.32Z" fill="#152A62"/>
<path d="M210.745 214.79H144.796C140.607 214.79 136.424 211.523 135.455 207.491L127.406 174.033C126.436 170.003 129.046 166.734 133.235 166.734H199.184C203.373 166.734 207.555 170.002 208.525 174.033L216.574 207.491C217.544 211.522 214.933 214.79 210.745 214.79Z" fill="white" stroke="#152A62" stroke-width="1.23711" stroke-miterlimit="10"/>
<path d="M169.677 190.899H142.971C142.186 190.899 141.404 190.288 141.223 189.533L140.994 188.582C140.812 187.827 141.3 187.216 142.085 187.216H168.791C169.576 187.216 170.358 187.827 170.539 188.582L170.768 189.533C170.95 190.288 170.461 190.899 169.677 190.899Z" fill="#152A62"/>
<path d="M154.196 205.363H146.451C145.666 205.363 144.884 204.752 144.703 203.997L144.474 203.045C144.292 202.291 144.78 201.68 145.565 201.68H153.31C154.095 201.68 154.876 202.291 155.058 203.045L155.287 203.997C155.469 204.752 154.98 205.363 154.196 205.363Z" fill="#152A62"/>
<path d="M178.396 182.167H141.39C140.32 182.167 139.251 181.332 139.004 180.303L138.491 178.169C138.243 177.14 138.91 176.305 139.98 176.305H176.986C178.056 176.305 179.124 177.14 179.372 178.169L179.885 180.303C180.133 181.332 179.466 182.167 178.396 182.167Z" fill="#152A62"/>
<path d="M200.247 189.253H191.33C190.156 189.253 188.983 188.336 188.711 187.207L186.647 178.627C186.375 177.498 187.107 176.581 188.281 176.581H197.198C198.372 176.581 199.545 177.498 199.817 178.627L201.881 187.207C202.153 188.336 201.421 189.253 200.247 189.253Z" fill="#152A62"/>
</svg>
