<svg enable-background="new 0 0 300 300" viewBox="0 0 300 300" xmlns="http://www.w3.org/2000/svg"><path d="m214.506 199.013h-129.012c-10.972 0-19.867-8.895-19.867-19.867v-64.215c0-10.972 8.895-19.867 19.867-19.867h129.012c10.972 0 19.867 8.895 19.867 19.867v64.215c0 10.972-8.895 19.867-19.867 19.867z" fill="#e3e0fd"/><path d="m81.717 83.678h-2.591c-5.776 0-9.467 4.59-8.244 10.253l33.872-.18-2.177-10.073z" fill="#b49cfb" stroke="#152a62" stroke-linejoin="round" stroke-miterlimit="10"/><path d="m210.081 209.244h-83.68c-5.48 0-10.867-4.359-12.028-9.727l-22.948-105.639c-1.161-5.347-6.315-9.737-11.754-10.154l-.01-.051h93.356c5.49 0 10.878 4.359 12.039 9.737l12.028 55.702 8.494 39.273z" fill="#f5f4f9" stroke="#152a62" stroke-linecap="round" stroke-linejoin="round" stroke-miterlimit="10"/><path d="m134.84 199.517c1.155 5.372-2.348 9.723-7.827 9.723h84.446c5.48 0 8.983-4.352 7.827-9.723z" fill="#e3e0fd" stroke="#152a62" stroke-linecap="round" stroke-linejoin="round" stroke-miterlimit="10"/><g fill="#152a62"><path d="m168.901 103.129h-56.483c-.357 0-.665-.249-.739-.598l-.189-.884c-.065-.305.168-.593.48-.593h56.483c.357 0 .665.249.739.598l.189.884c.065.305-.168.593-.48.593z"/><path d="m140.669 117.381h-25.197c-.357 0-.665-.249-.739-.598l-.189-.884c-.065-.305.168-.593.48-.593h25.197c.357 0 .665.249.739.598l.189.884c.065.305-.168.593-.48.593z"/><path d="m171.377 117.381h-22.841c-.357 0-.665-.249-.739-.598l-.189-.884c-.065-.305.168-.593.48-.593h22.841c.357 0 .665.249.739.598l.189.884c.065.305-.168.593-.48.593z"/><path d="m175.009 131.633h-56.483c-.357 0-.665-.249-.739-.598l-.189-.884c-.065-.305.168-.593.48-.593h56.483c.357 0 .665.249.739.598l.189.884c.065.305-.168.593-.48.593z"/><path d="m137.384 145.885h-15.804c-.357 0-.665-.249-.739-.598l-.189-.884c-.065-.305.168-.593.48-.593h15.804c.357 0 .665.249.739.598l.189.884c.066.306-.167.593-.48.593z"/><path d="m166.116 145.885h-21.695c-.357 0-.665-.249-.739-.598l-.189-.884c-.065-.305.168-.593.48-.593h21.695c.357 0 .665.249.739.598l.189.884c.065.306-.168.593-.48.593z"/><path d="m149.152 160.138h-24.419c-.357 0-.665-.249-.739-.598l-.189-.884c-.065-.305.168-.593.48-.593h24.419c.357 0 .665.249.739.598l.189.884c.065.305-.168.593-.48.593z"/><path d="m168.51 160.138h-11.3c-.357 0-.665-.249-.739-.598l-.189-.884c-.065-.305.168-.593.48-.593h11.3c.357 0 .665.249.739.598l.189.884c.065.305-.168.593-.48.593z"/><path d="m170.078 174.39h-42.291c-.357 0-.665-.249-.739-.598l-.189-.884c-.065-.305.168-.593.48-.593h42.291c.357 0 .665.249.739.598l.189.884c.065.305-.167.593-.48.593z"/><path d="m148.193 188.642h-17.451c-.357 0-.665-.249-.739-.598l-.189-.884c-.065-.305.168-.593.48-.593h17.451c.357 0 .665.249.739.598l.189.884c.066.305-.167.593-.48.593z"/><path d="m179.489 175.747c2.057 9.936 18.323 14.785 18.323 14.785s3.664-1.251 7.009-3.776l-7.42-35.448h-21.466c-.766 0-1.346.756-1.183 1.543z" stroke="#152a62" stroke-linejoin="round" stroke-miterlimit="10"/></g><path d="m213.735 172.757c2.132 9.936-12.645 14.785-12.645 14.785s-16.858-4.849-18.991-14.785l-4.909-22.897c-.169-.787.432-1.543 1.226-1.543h29.109c.569 0 1.055.398 1.176.961z" fill="#84e9d4" stroke="#152a62" stroke-linejoin="round" stroke-miterlimit="10"/><path d="m187.623 162.918.007-.008c.691-.847 1.945-.95 2.762-.228l6.468 5.722 5.863-11.107c.506-.959 1.702-1.312 2.644-.781.894.504 1.233 1.622.771 2.541l-6.687 13.293c-.647 1.286-2.338 1.605-3.404.642l-8.225-7.428c-.761-.687-.848-1.851-.199-2.646z" fill="#152a62"/><ellipse cx="151.714" cy="223.966" fill="#e3e0fd" rx="44.824" ry="2.861"/></svg>