<svg width="300" height="214" viewBox="0 0 300 214" fill="none" xmlns="http://www.w3.org/2000/svg">
<path d="M214.882 55H85.8679C74.8952 55 66 63.8952 66 74.8679V139.084C66 150.057 74.8952 158.952 85.8679 158.952H214.882C225.855 158.952 234.75 150.057 234.75 139.084V74.8679C234.75 63.8952 225.855 55 214.882 55Z" fill="#E3E0FD"/>
<path d="M179.457 154.906L177.679 152.582L177.115 152.862C177.128 151.803 177.02 150.704 176.746 149.566L151.31 43.8211C149.305 35.4855 141.586 28.7281 132.923 28.7281H86.9478C86.3579 28.7281 85.7872 28.7649 85.2291 28.8267L83.5924 26.3821L77.3279 32.6465C77.3279 32.6465 77.3221 32.6524 77.3187 32.6557L77.19 32.7844L77.1927 32.7961C74.4715 35.5649 73.3077 39.6863 74.4172 44.2973L99.8535 150.042C101.709 157.755 109.71 164.008 117.727 164.008H165.116C168.824 164.008 171.872 162.658 173.908 160.457L179.457 154.908V154.906Z" fill="#E3E0FD" stroke="#152A62" stroke-miterlimit="10"/>
<path d="M107.29 160.5C110.372 162.675 114.044 164.006 117.727 164.006H165.116C168.824 164.006 171.872 162.657 173.908 160.455L179.457 154.906L177.678 152.582L177.115 152.862C177.128 151.822 177.022 150.743 176.759 149.627L115.209 152.581L107.29 160.5Z" fill="#F5F4F9" stroke="#152A62" stroke-miterlimit="10"/>
<path d="M171.319 157.803H123.929C115.914 157.803 107.911 151.551 106.056 143.837L80.6194 38.093C78.6143 29.7574 84.0117 23 92.6748 23H137.721C146.384 23 155.032 29.7574 157.037 38.093L182.473 143.837C184.329 151.551 179.335 157.803 171.319 157.803Z" fill="#152A62" stroke="#152A62" stroke-miterlimit="10"/>
<path d="M122.673 153.376C117.318 153.376 111.951 149.18 110.711 144.023L85.2752 38.279C84.5884 35.4241 85.1032 32.7188 86.7248 30.6619C88.3682 28.5757 90.9281 27.4277 93.9333 27.4277H100.124C101.927 27.4277 103.667 28.7887 104.085 30.5282C104.662 32.9302 107.231 34.8117 109.932 34.8117H126.666C127.935 34.8117 128.968 34.389 129.572 33.6203C130.127 32.916 130.283 31.9761 130.024 30.8992C129.811 30.0119 129.984 29.1263 130.501 28.4704C131.023 27.8079 131.856 27.4277 132.786 27.4277H138.978C144.98 27.4277 150.994 32.1282 152.385 37.9072L177.821 143.652C178.436 146.209 177.974 148.633 176.52 150.478C175.046 152.347 172.754 153.378 170.063 153.378H122.674L122.673 153.376Z" fill="white" stroke="#152A62" stroke-miterlimit="10"/>
<path d="M80.6506 47.0259L77.7715 49.7754L78.9688 54.8376L81.8471 52.0881L80.6506 47.0259Z" stroke="#152A62" stroke-linejoin="round"/>
<path d="M82.6908 55.3457L79.8125 58.0953L81.0088 63.1575L83.8879 60.4079L82.6908 55.3457Z" stroke="#152A62" stroke-linejoin="round"/>
<path d="M136.712 184.284C158.975 184.284 177.023 182.549 177.023 180.408C177.023 178.267 158.975 176.531 136.712 176.531C114.448 176.531 96.4004 178.267 96.4004 180.408C96.4004 182.549 114.448 184.284 136.712 184.284Z" fill="#E3E0FD"/>
<path d="M148.033 106.488H122.6C120.112 106.488 118.581 108.505 119.181 110.993L125.07 135.413C125.67 137.902 128.173 139.918 130.661 139.918H156.094C158.582 139.918 160.113 137.902 159.513 135.413L153.624 110.993C153.024 108.505 150.521 106.488 148.033 106.488Z" fill="#84E9D4" stroke="#152A62" stroke-miterlimit="10"/>
<path d="M129.109 119.947L129.117 119.937C129.881 119.001 131.269 118.886 132.175 119.686L139.35 126.015L145.82 113.731C146.378 112.67 147.702 112.279 148.747 112.868C149.738 113.425 150.116 114.662 149.605 115.677L142.227 130.378C141.514 131.8 139.642 132.154 138.459 131.089L129.335 122.873C128.492 122.114 128.392 120.826 129.109 119.947Z" fill="#152A62"/>
<path d="M173.138 156.916L174.816 160.385L170.168 154.558L173.138 156.916Z" fill="#152A62" stroke="#152A62" stroke-linejoin="round"/>
<path d="M177.791 139.054L182.096 144.957" stroke="#152A62" stroke-miterlimit="10" stroke-linecap="round"/>
<path d="M184.506 139.58L188.554 144.193" stroke="#152A62" stroke-miterlimit="10" stroke-linecap="round"/>
<path d="M190.67 139.356L195.628 143.407" stroke="#152A62" stroke-miterlimit="10" stroke-linecap="round"/>
<path d="M194.668 185.071L174.776 171.135C173.96 170.653 173.225 170.045 172.596 169.336L162.178 156.248C157.772 150.858 153.823 146.079 155.002 144.582C157.108 141.909 162.018 144.426 166.689 148.595L175.065 155.708L161.5 124.328C160.397 121.681 160.29 118.163 162.51 117.558C163.986 117.04 165.43 117.83 167.878 121.639L179.525 137.526C179.728 137.802 180.051 137.964 180.393 137.963L193.47 137.887C197.704 137.755 201.254 138.74 202.848 144.2C202.848 144.2 207.627 160.211 208.25 160.996L211.807 163.198L194.668 185.07V185.071Z" fill="#E3E0FD" stroke="#152A62" stroke-linejoin="round"/>
<path d="M174.951 155.464L176.629 158.933" stroke="#152A62" stroke-linecap="round" stroke-linejoin="round"/>
<path d="M179.605 137.603L183.91 143.505" stroke="#152A62" stroke-miterlimit="10" stroke-linecap="round"/>
<path d="M186.318 138.129L190.366 142.742" stroke="#152A62" stroke-miterlimit="10" stroke-linecap="round"/>
<path d="M192.484 137.905L196.676 142.222" stroke="#152A62" stroke-miterlimit="10" stroke-linecap="round"/>
<path d="M194.877 185.207C193.223 183.899 195.757 177.943 200.536 171.906C205.314 165.869 210.528 162.035 212.181 163.343L220.906 168.531C222.56 169.839 220.026 175.794 215.247 181.832C210.468 187.869 205.274 191.644 203.613 190.665L194.877 185.207Z" fill="#152A62" stroke="#152A62" stroke-linejoin="round"/>
<path d="M208.072 190.467C206.864 188.359 209.269 182.047 214.178 176.236C219.288 170.188 223.496 166.517 226 166.818" stroke="#F5F4F9" stroke-linecap="round" stroke-linejoin="round"/>
</svg>
