<svg enable-background="new 0 0 300 300" viewBox="0 0 300 300" xmlns="http://www.w3.org/2000/svg">
    <path
        d="M214.506 199.013H85.494C74.522 199.013 65.627 190.118 65.627 179.146V114.931C65.627 103.959 74.522 95.064 85.494 95.064H214.506C225.478 95.064 234.373 103.959 234.373 114.931V179.146C234.373 190.118 225.478 199.013 214.506 199.013Z"
        fill="#E3E0FD" />
    <path
        d="M150.493 235.303C171.999 235.303 189.433 233.875 189.433 232.114C189.433 230.353 171.999 228.925 150.493 228.925C128.987 228.925 111.553 230.353 111.553 232.114C111.553 233.875 128.987 235.303 150.493 235.303Z"
        fill="#E3E0FD" />
    <path
        d="M195.769 204.826L194.012 202.53L193.456 202.807C193.468 201.761 193.362 200.675 193.091 199.551L167.962 95.0833C165.981 86.8483 158.356 80.1722 149.797 80.1722H104.377C103.795 80.1722 103.231 80.2092 102.68 80.2692L101.063 77.8542L94.874 84.0433C94.871 84.0463 94.868 84.0493 94.865 84.0523L94.738 84.1793L94.74 84.1903C92.052 86.9253 90.902 90.9973 91.998 95.5523L117.127 200.019C118.96 207.639 126.865 213.816 134.784 213.816H181.601C185.264 213.816 188.275 212.483 190.287 210.308L195.769 204.826Z"
        fill="#E3E0FD" stroke="#152A62" stroke-linejoin="round" stroke-miterlimit="10" />
    <path
        d="M124.474 210.354C127.519 212.503 131.147 213.817 134.785 213.817H181.602C185.265 213.817 188.276 212.484 190.288 210.309L195.77 204.827L194.013 202.531L193.457 202.808C193.469 201.781 193.364 200.715 193.105 199.613L132.299 202.531L124.474 210.354Z"
        fill="#F5F4F9" stroke="#152A62" stroke-linejoin="round" stroke-miterlimit="10" />
    <path
        d="M187.729 207.689H140.912C132.993 207.689 125.088 201.512 123.255 193.892L98.1261 89.4261C96.1451 81.1911 101.477 74.5151 110.035 74.5151H154.537C163.095 74.5151 171.639 81.1911 173.62 89.4261L198.749 193.893C200.582 201.512 195.648 207.689 187.729 207.689Z"
        fill="#152A62" stroke="#152A62" stroke-linejoin="round" stroke-miterlimit="10" />
    <path
        d="M139.67 203.316C134.379 203.316 129.078 199.171 127.852 194.077L102.724 89.6092C102.045 86.7892 102.554 84.1162 104.156 82.0842C105.779 80.0232 108.309 78.8892 111.277 78.8892H117.394C119.175 78.8892 120.893 80.2342 121.306 81.9522C121.877 84.3252 124.414 86.1842 127.082 86.1842H143.613C144.867 86.1842 145.887 85.7662 146.485 85.0072C147.033 84.3122 147.187 83.3832 146.932 82.3192C146.721 81.4422 146.892 80.5672 147.403 79.9202C147.919 79.2652 148.742 78.8902 149.66 78.8902H155.777C161.707 78.8902 167.648 83.5342 169.022 89.2422L194.151 193.709C194.759 196.235 194.302 198.63 192.866 200.452C191.41 202.3 189.145 203.317 186.487 203.317H139.67V203.316Z"
        fill="white" stroke="#152A62" stroke-linejoin="round" stroke-miterlimit="10" />
    <path
        d="M132.856 130.056L131.982 126.35C131.505 124.324 132.81 122.676 134.891 122.676H138.699C139.174 122.676 139.471 122.301 139.362 121.838C139.253 121.375 138.779 121 138.304 121H134.496C131.466 121 129.566 123.4 130.261 126.35L131.134 130.056C131.243 130.518 131.717 130.894 132.192 130.894C132.668 130.894 132.965 130.518 132.856 130.056Z"
        fill="#383EDE" />
    <path
        d="M145.685 152.324C146.161 152.324 146.635 152.699 146.744 153.162C146.853 153.625 146.556 154 146.08 154H142.273C139.242 154 136.211 151.6 135.516 148.65L134.643 144.944C134.534 144.482 134.831 144.106 135.306 144.106C135.781 144.106 136.255 144.482 136.364 144.944L137.238 148.65C137.715 150.676 139.797 152.324 141.878 152.324H145.685Z"
        fill="#383EDE" />
    <path
        d="M168.546 144.944L169.42 148.65C170.115 151.6 168.215 154 165.184 154H161.377C160.901 154 160.427 153.625 160.318 153.162C160.209 152.699 160.506 152.324 160.982 152.324H164.789C166.871 152.324 168.175 150.676 167.698 148.65L166.825 144.944C166.716 144.482 167.013 144.106 167.488 144.106C167.964 144.106 168.437 144.482 168.546 144.944Z"
        fill="#383EDE" />
    <path
        d="M164.165 126.35L165.038 130.056C165.147 130.518 164.85 130.894 164.375 130.894C163.899 130.894 163.425 130.518 163.316 130.056L162.443 126.35C161.965 124.324 159.884 122.676 157.803 122.676H153.995C153.52 122.676 153.046 122.301 152.937 121.838C152.828 121.375 153.125 121 153.6 121H157.408C160.438 121 163.469 123.4 164.165 126.35Z"
        fill="#383EDE" />
    <path
        d="M157.64 145.39C157.926 145.064 157.819 144.514 157.401 144.161C156.982 143.808 156.412 143.786 156.126 144.112C155.109 145.272 153.58 145.911 151.822 145.911C150.064 145.911 148.235 145.272 146.671 144.112C146.231 143.786 145.671 143.808 145.419 144.161C145.167 144.514 145.319 145.064 145.759 145.39C147.724 146.848 150.023 147.651 152.232 147.651C154.442 147.651 156.362 146.848 157.64 145.39Z"
        fill="#383EDE" />
    <path
        d="M150.671 133.439L152.129 139.627C152.418 140.853 151.629 141.851 150.369 141.851H149.64C149.147 141.851 148.655 141.461 148.541 140.98C148.428 140.5 148.737 140.11 149.23 140.11H149.959C150.233 140.11 150.404 139.893 150.341 139.627L148.883 133.439C148.77 132.959 149.079 132.569 149.572 132.569C150.066 132.569 150.558 132.959 150.671 133.439Z"
        fill="#383EDE" />
    <path
        d="M157.403 135.873L156.818 133.391C156.711 132.937 156.247 132.569 155.78 132.569C155.314 132.569 155.023 132.937 155.13 133.391L155.714 135.873C155.821 136.326 156.286 136.694 156.752 136.694C157.219 136.694 157.51 136.326 157.403 135.873Z"
        fill="#383EDE" />
    <path
        d="M141.709 135.873C141.816 136.326 142.281 136.694 142.747 136.694C143.213 136.694 143.505 136.326 143.398 135.873L142.813 133.391C142.706 132.937 142.241 132.569 141.775 132.569C141.309 132.569 141.017 132.937 141.124 133.391L141.709 135.873Z"
        fill="#383EDE" />
    <path d="M98.158 98.2512L95.314 100.967L96.496 105.968L99.34 103.252L98.158 98.2512Z"
        stroke="#152A62" stroke-linejoin="round" stroke-miterlimit="10" />
    <path d="M100.172 106.469L97.3281 109.186L98.5111 114.187L101.354 111.471L100.172 106.469Z"
        stroke="#152A62" stroke-linejoin="round" stroke-miterlimit="10" />
    <path
        d="M217.39 103.818C221.759 122.11 194.232 131.036 194.232 131.036C194.232 131.036 162.441 122.11 158.072 103.818L148.874 66.445C148.294 64.033 149.075 62.647 150.619 61.589L154.657 58.822L206.317 58.532L217.39 103.818Z"
        fill="white" stroke="#152A62" stroke-linejoin="round" stroke-miterlimit="10" />
    <path
        d="M194.232 131.035C194.232 131.035 197.707 129.903 201.988 127.633L170.072 104.777L160.561 109.702C169.29 124.022 194.232 131.035 194.232 131.035Z"
        fill="#B49CFB" stroke="#152A62" stroke-linejoin="round" stroke-miterlimit="10" />
    <path
        d="M222.385 101.277C226.754 119.569 199.227 128.495 199.227 128.495C199.227 128.495 167.436 119.569 163.067 101.277L153.535 61.37C153.189 59.922 154.287 58.53 155.776 58.53H210.356C211.422 58.53 212.35 59.262 212.597 60.299L222.385 101.277Z"
        fill="#84E9D4" stroke="#152A62" stroke-linejoin="round" stroke-miterlimit="10" />
    <path
        d="M178.71 82.7279L176.885 74.8289C175.562 69.0999 179.148 64.4399 184.876 64.4399C190.604 64.4399 196.34 69.0999 197.663 74.8289L199.443 82.5429H195.594L193.814 74.8289C192.981 71.2229 189.371 68.2889 185.764 68.2889C182.157 68.2889 179.902 71.2229 180.734 74.8289L182.558 82.7279H178.71Z"
        fill="#E3E0FD" stroke="#152A62" stroke-linejoin="round" stroke-miterlimit="10" />
    <path
        d="M200.368 79.3398H175.506C173.436 79.3398 172.146 81.0178 172.624 83.0878L177.561 104.473C178.039 106.543 180.104 108.221 182.174 108.221H207.036C209.106 108.221 210.396 106.543 209.918 104.473L204.981 83.0878C204.503 81.0178 202.438 79.3398 200.368 79.3398Z"
        fill="white" stroke="#152A62" stroke-linejoin="round" stroke-miterlimit="10" />
    <path
        d="M195.083 90.6508C194.498 88.1158 191.825 86.0968 189.3 86.4088C187.508 86.6298 186.306 88.0938 186.427 89.9258C186.563 91.9698 188.102 93.7988 189.976 94.5548L191.28 100.202C191.354 100.522 191.673 100.781 191.993 100.781H194.303C194.623 100.781 194.822 100.522 194.748 100.202L193.444 94.5548C194.787 93.8888 195.485 92.3928 195.083 90.6508Z"
        fill="#152A62" stroke="#152A62" stroke-linejoin="round" stroke-miterlimit="10" />
</svg>