<svg width="300" height="200" viewBox="0 0 300 200" fill="none" xmlns="http://www.w3.org/2000/svg">
<g clip-path="url(#clip0_25439_14688)">
<path d="M20 44C20 30.7452 30.7452 20 44 20H256C269.255 20 280 30.7452 280 44V200H20V44Z" fill="#FCFCFC"/>
<g clip-path="url(#clip1_25439_14688)">
<path d="M20 37.3333C20 27.7604 27.7604 20 37.3333 20H262.667C272.24 20 280 27.7604 280 37.3333V182.666C280 192.239 272.24 200 262.667 200H37.3333C27.7604 200 20 192.239 20 182.666V37.3333Z" fill="#FCFCFC"/>
<rect width="260" height="40" transform="translate(20 20)" fill="#FCFCFC"/>
<path d="M74.7749 46L78.7549 38.2812V38.1797H74.0322V36.8403H80.4053V38.2051L76.4824 46H74.7749Z" fill="#2F3D63"/>
<path d="M70.1982 46V44.2417H65.7168V42.9023C65.958 42.4919 66.1992 42.0793 66.4404 41.6646C66.6859 41.2498 66.9334 40.8372 67.1831 40.4268C67.437 40.012 67.6888 39.6037 67.9385 39.2017C68.1924 38.7954 68.4442 38.3955 68.6938 38.002C68.9478 37.6042 69.2017 37.217 69.4556 36.8403H71.7598V42.8896H72.9976V44.2417H71.7598V46H70.1982ZM67.2402 42.9277H70.2236V38.1479H70.1284C69.9422 38.4357 69.7497 38.7319 69.5508 39.0366C69.3561 39.3413 69.1593 39.6523 68.9604 39.9697C68.7616 40.2871 68.5648 40.6066 68.3701 40.9282C68.1755 41.2456 67.9829 41.5651 67.7925 41.8867C67.6021 42.2041 67.418 42.5194 67.2402 42.8325V42.9277Z" fill="#2F3D63"/>
<path d="M63.1909 44.7686C62.9032 44.7686 62.6619 44.6733 62.4673 44.4829C62.2769 44.2882 62.1816 44.0513 62.1816 43.772C62.1816 43.4884 62.2769 43.2515 62.4673 43.061C62.6619 42.8664 62.9032 42.769 63.1909 42.769C63.4829 42.769 63.7241 42.8664 63.9146 43.061C64.105 43.2515 64.2002 43.4884 64.2002 43.772C64.2002 44.0513 64.105 44.2882 63.9146 44.4829C63.7241 44.6733 63.4829 44.7686 63.1909 44.7686ZM63.1909 40.0586C62.9032 40.0586 62.6619 39.9634 62.4673 39.7729C62.2769 39.5783 62.1816 39.3413 62.1816 39.062C62.1816 38.7785 62.2769 38.5415 62.4673 38.3511C62.6619 38.1564 62.9032 38.0591 63.1909 38.0591C63.4829 38.0591 63.7241 38.1564 63.9146 38.3511C64.105 38.5415 64.2002 38.7785 64.2002 39.062C64.2002 39.3413 64.105 39.5783 63.9146 39.7729C63.7241 39.9634 63.4829 40.0586 63.1909 40.0586Z" fill="#2F3D63"/>
<path d="M58.1514 46V38.4526H58.0371L55.7583 40.0586V38.5225L58.1514 36.8403H59.7827V46H58.1514Z" fill="#2F3D63"/>
<rect x="118" y="30" width="64" height="19" rx="9.5" fill="#2F3D63"/>
<g clip-path="url(#clip2_25439_14688)">
<path opacity="0.2" d="M214.286 45.7685H215.731C216.109 45.7685 216.36 45.5046 216.36 45.115V43.8677C216.36 43.478 216.109 43.2202 215.731 43.2202H214.286C213.909 43.2202 213.657 43.478 213.657 43.8677V45.115C213.657 45.5046 213.909 45.7685 214.286 45.7685Z" fill="#2F3D63"/>
<path d="M214.289 45.7685H215.745C216.117 45.7685 216.369 45.5047 216.369 45.115V36.0146C216.369 35.6249 216.117 35.3611 215.745 35.3611H214.289C213.917 35.3611 213.659 35.6249 213.659 36.0146V45.115C213.659 45.5047 213.917 45.7685 214.289 45.7685Z" fill="#2F3D63"/>
<path opacity="0.2" d="M209.801 45.7685H211.246C211.624 45.7685 211.876 45.5046 211.876 45.115V43.8677C211.876 43.478 211.624 43.2202 211.246 43.2202H209.801C209.424 43.2202 209.172 43.478 209.172 43.8677V45.115C209.172 45.5046 209.424 45.7685 209.801 45.7685Z" fill="#2F3D63"/>
<path d="M209.804 45.7685H211.249C211.621 45.7685 211.879 45.5046 211.879 45.115V38.3826C211.879 37.9929 211.621 37.7291 211.249 37.7291H209.804C209.427 37.7291 209.175 37.9929 209.175 38.3826V45.115C209.175 45.5046 209.427 45.7685 209.804 45.7685Z" fill="#2F3D63"/>
<path opacity="0.2" d="M205.316 45.7685H206.761C207.139 45.7685 207.391 45.5046 207.391 45.115V43.8677C207.391 43.478 207.139 43.2202 206.761 43.2202H205.316C204.939 43.2202 204.687 43.478 204.687 43.8677V45.115C204.687 45.5046 204.939 45.7685 205.316 45.7685Z" fill="#2F3D63"/>
<path d="M205.314 45.7685H206.759C207.137 45.7685 207.388 45.5047 207.388 45.115V40.5528C207.388 40.1631 207.137 39.8994 206.759 39.8994H205.314C204.936 39.8994 204.685 40.1631 204.685 40.5528V45.115C204.685 45.5047 204.936 45.7685 205.314 45.7685Z" fill="#2F3D63"/>
<path opacity="0.2" d="M200.824 45.7685H202.269C202.646 45.7685 202.898 45.5046 202.898 45.115V43.8677C202.898 43.478 202.646 43.2202 202.269 43.2202H200.824C200.446 43.2202 200.194 43.478 200.194 43.8677V45.115C200.194 45.5046 200.446 45.7685 200.824 45.7685Z" fill="#2F3D63"/>
<path d="M200.824 45.7685H202.269C202.646 45.7685 202.898 45.5046 202.898 45.115V42.4232C202.898 42.0335 202.646 41.7758 202.269 41.7758H200.824C200.446 41.7758 200.194 42.0335 200.194 42.4232V45.115C200.194 45.5046 200.446 45.7685 200.824 45.7685Z" fill="#2F3D63"/>
</g>
<g clip-path="url(#clip3_25439_14688)">
<path d="M228.762 46.0531C228.894 46.0531 229.008 45.9931 229.242 45.7653L230.705 44.3625C230.795 44.2726 230.819 44.1406 230.735 44.0327C230.345 43.5292 229.608 43.0915 228.762 43.0915C227.893 43.0915 227.156 43.5472 226.766 44.0687C226.706 44.1647 226.73 44.2726 226.826 44.3625L228.283 45.7653C228.517 45.9871 228.631 46.0531 228.762 46.0531ZM225.255 42.7918C225.387 42.9177 225.549 42.8997 225.669 42.7678C226.388 41.9705 227.563 41.3889 228.762 41.3949C229.973 41.3889 231.149 41.9884 231.88 42.7858C231.988 42.9117 232.138 42.9057 232.27 42.7858L233.199 41.8625C233.295 41.7666 233.307 41.6347 233.217 41.5268C232.312 40.4177 230.633 39.5844 228.762 39.5844C226.892 39.5844 225.213 40.4177 224.308 41.5268C224.218 41.6347 224.224 41.7546 224.326 41.8625L225.255 42.7918ZM222.767 40.2859C222.887 40.3998 223.055 40.3998 223.169 40.2799C224.644 38.7152 226.586 37.8879 228.762 37.8879C230.951 37.8879 232.905 38.7212 234.368 40.2859C234.476 40.3938 234.638 40.3878 234.757 40.2739L235.585 39.4466C235.693 39.3386 235.687 39.2068 235.603 39.1048C234.194 37.3663 231.544 36.0894 228.762 36.0894C225.987 36.0894 223.325 37.3663 221.922 39.1048C221.838 39.2068 221.838 39.3386 221.94 39.4466L222.767 40.2859Z" fill="#2F3D63"/>
</g>
<g clip-path="url(#clip4_25439_14688)">
<path opacity="0.4" d="M245.35 46.1618H257.397C258.803 46.1618 259.807 46.004 260.524 45.2872C261.243 44.5704 261.39 43.5842 261.39 42.1734V40.0838C261.39 38.673 261.243 37.682 260.524 36.9676C259.804 36.2508 258.803 36.0954 257.397 36.0954H245.305C243.954 36.0954 242.947 36.2532 242.231 36.9724C241.511 37.6892 241.361 38.6832 241.361 40.0341V42.1734C241.361 43.5842 241.509 44.5728 242.226 45.2872C242.947 46.004 243.947 46.1618 245.35 46.1618ZM245.145 45.2014C244.231 45.2014 243.407 45.0566 242.929 44.5839C242.459 44.1059 242.322 43.295 242.322 42.378V39.9211C242.322 38.967 242.459 38.1465 242.927 37.6685C243.405 37.188 244.241 37.0535 245.192 37.0535H257.607C258.521 37.0535 259.345 37.2006 259.815 37.6709C260.293 38.1489 260.43 38.9545 260.43 39.8714V42.378C260.43 43.295 260.291 44.1059 259.815 44.5839C259.345 45.0591 258.521 45.2014 257.607 45.2014H245.145ZM262.289 43.0175C262.864 42.9811 263.64 42.2408 263.64 41.1259C263.64 40.014 262.864 39.2737 262.289 39.2373V43.0175Z" fill="#2F3D63"/>
<path d="M244.874 44.4048H257.886C258.582 44.4048 258.996 44.2959 259.259 44.033C259.522 43.7676 259.636 43.3515 259.636 42.655V39.5997C259.636 38.8984 259.522 38.4871 259.261 38.2217C258.996 37.9612 258.577 37.85 257.886 37.85H244.923C244.18 37.85 243.752 37.9588 243.499 38.2193C243.238 38.4847 243.124 38.9134 243.124 39.6441V42.655C243.124 43.3587 243.238 43.7676 243.499 44.033C243.764 44.2935 244.183 44.4048 244.874 44.4048Z" fill="#2F3D63"/>
</g>
<path d="M34 81.8179L37.6367 71.9536H38.5801V73.5464H38.1904L35.292 81.8179H34ZM35.6475 78.9946L36.0303 77.9487H40.4873L40.8701 78.9946H35.6475ZM41.1982 81.8179L38.2998 73.5464V71.9536H38.8535L42.4902 81.8179H41.1982Z" fill="#3478F6"/>
<path d="M44.0693 84.2788V74.4487H45.2588V75.6245H45.3682C45.5186 75.3511 45.7077 75.1187 45.9355 74.9272C46.1634 74.7313 46.4232 74.5809 46.7148 74.4761C47.0065 74.3713 47.3232 74.3188 47.665 74.3188C48.2894 74.3188 48.8317 74.4784 49.292 74.7974C49.7568 75.1118 50.1169 75.5539 50.3721 76.1235C50.6273 76.6932 50.7549 77.3608 50.7549 78.1265V78.1401C50.7549 78.9103 50.6273 79.5802 50.3721 80.1499C50.1169 80.7196 49.7568 81.1616 49.292 81.4761C48.8317 81.7905 48.2894 81.9478 47.665 81.9478C47.3278 81.9478 47.0088 81.8953 46.708 81.7905C46.4118 81.6812 46.1475 81.5308 45.915 81.3394C45.6872 81.1479 45.5049 80.9201 45.3682 80.6558H45.2588V84.2788H44.0693ZM47.3916 80.895C47.8428 80.895 48.2279 80.7856 48.5469 80.5669C48.8659 80.3436 49.1097 80.0269 49.2783 79.6167C49.4515 79.202 49.5381 78.7098 49.5381 78.1401V78.1265C49.5381 77.5522 49.4515 77.0601 49.2783 76.6499C49.1097 76.2397 48.8659 75.9253 48.5469 75.7065C48.2279 75.4832 47.8428 75.3716 47.3916 75.3716C46.945 75.3716 46.5599 75.4832 46.2363 75.7065C45.9128 75.9299 45.6644 76.2466 45.4912 76.6567C45.318 77.0669 45.2314 77.5568 45.2314 78.1265V78.1401C45.2314 78.7052 45.318 79.1951 45.4912 79.6099C45.6644 80.02 45.9128 80.3368 46.2363 80.5601C46.5599 80.7834 46.945 80.895 47.3916 80.895Z" fill="#3478F6"/>
<path d="M52.6143 84.2788V74.4487H53.8037V75.6245H53.9131C54.0635 75.3511 54.2526 75.1187 54.4805 74.9272C54.7083 74.7313 54.9681 74.5809 55.2598 74.4761C55.5514 74.3713 55.8682 74.3188 56.21 74.3188C56.8343 74.3188 57.3766 74.4784 57.8369 74.7974C58.3018 75.1118 58.6618 75.5539 58.917 76.1235C59.1722 76.6932 59.2998 77.3608 59.2998 78.1265V78.1401C59.2998 78.9103 59.1722 79.5802 58.917 80.1499C58.6618 80.7196 58.3018 81.1616 57.8369 81.4761C57.3766 81.7905 56.8343 81.9478 56.21 81.9478C55.8727 81.9478 55.5537 81.8953 55.2529 81.7905C54.9567 81.6812 54.6924 81.5308 54.46 81.3394C54.2321 81.1479 54.0498 80.9201 53.9131 80.6558H53.8037V84.2788H52.6143ZM55.9365 80.895C56.3877 80.895 56.7728 80.7856 57.0918 80.5669C57.4108 80.3436 57.6546 80.0269 57.8232 79.6167C57.9964 79.202 58.083 78.7098 58.083 78.1401V78.1265C58.083 77.5522 57.9964 77.0601 57.8232 76.6499C57.6546 76.2397 57.4108 75.9253 57.0918 75.7065C56.7728 75.4832 56.3877 75.3716 55.9365 75.3716C55.4899 75.3716 55.1048 75.4832 54.7812 75.7065C54.4577 75.9299 54.2093 76.2466 54.0361 76.6567C53.863 77.0669 53.7764 77.5568 53.7764 78.1265V78.1401C53.7764 78.7052 53.863 79.1951 54.0361 79.6099C54.2093 80.02 54.4577 80.3368 54.7812 80.5601C55.1048 80.7834 55.4899 80.895 55.9365 80.895Z" fill="#3478F6"/>
<path d="M68.4805 82.0503C67.7604 82.0503 67.1315 81.9341 66.5938 81.7017C66.0605 81.4647 65.6367 81.1411 65.3223 80.731C65.0124 80.3162 64.8324 79.8423 64.7822 79.3091L64.7754 79.2339H66.0059L66.0127 79.3091C66.0446 79.6372 66.1699 79.922 66.3887 80.1636C66.612 80.4006 66.9082 80.5851 67.2773 80.7173C67.651 80.8494 68.0749 80.9155 68.5488 80.9155C68.9954 80.9155 69.3919 80.8449 69.7383 80.7036C70.0892 80.5578 70.3649 80.3573 70.5654 80.1021C70.766 79.8468 70.8662 79.5529 70.8662 79.2202V79.2134C70.8662 78.8032 70.7158 78.4591 70.415 78.1812C70.1143 77.8986 69.6243 77.6821 68.9453 77.5317L67.8516 77.2925C66.8626 77.0737 66.1426 76.7365 65.6914 76.2808C65.2448 75.8205 65.0215 75.2326 65.0215 74.5171V74.5103C65.026 73.9634 65.1742 73.4803 65.4658 73.061C65.762 72.6418 66.1699 72.3136 66.6895 72.0767C67.2135 71.8397 67.8151 71.7212 68.4941 71.7212C69.1504 71.7212 69.7314 71.8397 70.2373 72.0767C70.7432 72.3091 71.1442 72.6235 71.4404 73.02C71.7412 73.4165 71.9076 73.8608 71.9395 74.353L71.9463 74.4487H70.7158L70.7021 74.3599C70.6566 74.0682 70.5381 73.8107 70.3467 73.5874C70.1553 73.3595 69.9001 73.1795 69.5811 73.0474C69.262 72.9152 68.8883 72.8514 68.46 72.856C68.0498 72.856 67.6807 72.9198 67.3525 73.0474C67.0244 73.175 66.7624 73.3595 66.5664 73.6011C66.375 73.8381 66.2793 74.1297 66.2793 74.4761V74.4829C66.2793 74.8748 66.4251 75.2052 66.7168 75.4741C67.0085 75.743 67.4893 75.9504 68.1592 76.0962L69.2529 76.3423C69.9411 76.4927 70.4948 76.6886 70.9141 76.9302C71.3333 77.1717 71.6387 77.4679 71.8301 77.8188C72.026 78.1652 72.124 78.5754 72.124 79.0493V79.0562C72.124 79.6714 71.9736 80.2023 71.6729 80.6489C71.3721 81.0955 70.9482 81.4419 70.4014 81.688C69.8545 81.9295 69.2142 82.0503 68.4805 82.0503Z" fill="#3478F6"/>
<path d="M76.6426 81.8726C75.8861 81.8726 75.3369 81.7199 74.9951 81.4146C74.6579 81.1092 74.4893 80.6056 74.4893 79.9038V75.4331H73.3271V74.4487H74.4893V72.5415H75.7197V74.4487H77.333V75.4331H75.7197V79.603C75.7197 80.036 75.8018 80.3481 75.9658 80.5396C76.1299 80.7264 76.4033 80.8198 76.7861 80.8198C76.891 80.8198 76.9798 80.8175 77.0527 80.813C77.1302 80.8084 77.2236 80.8016 77.333 80.7925V81.8042C77.2191 81.8224 77.1051 81.8384 76.9912 81.8521C76.8773 81.8657 76.7611 81.8726 76.6426 81.8726Z" fill="#3478F6"/>
<path d="M82.043 81.9478C81.3457 81.9478 80.7419 81.7951 80.2314 81.4897C79.7256 81.1799 79.3337 80.7401 79.0557 80.1704C78.7822 79.6007 78.6455 78.924 78.6455 78.1401V78.1265C78.6455 77.3381 78.7822 76.659 79.0557 76.0894C79.3337 75.5197 79.7256 75.0822 80.2314 74.7769C80.7419 74.4715 81.3457 74.3188 82.043 74.3188C82.7448 74.3188 83.3486 74.4715 83.8545 74.7769C84.3604 75.0822 84.75 75.5197 85.0234 76.0894C85.3014 76.659 85.4404 77.3381 85.4404 78.1265V78.1401C85.4404 78.924 85.3014 79.6007 85.0234 80.1704C84.75 80.7401 84.3604 81.1799 83.8545 81.4897C83.3486 81.7951 82.7448 81.9478 82.043 81.9478ZM82.043 80.895C82.5078 80.895 82.902 80.7856 83.2256 80.5669C83.5492 80.3481 83.7952 80.0337 83.9639 79.6235C84.137 79.2134 84.2236 78.7189 84.2236 78.1401V78.1265C84.2236 77.5431 84.137 77.0464 83.9639 76.6362C83.7952 76.2261 83.5492 75.9139 83.2256 75.6997C82.902 75.481 82.5078 75.3716 82.043 75.3716C81.5781 75.3716 81.1839 75.481 80.8604 75.6997C80.5368 75.9139 80.2884 76.2261 80.1152 76.6362C79.9466 77.0464 79.8623 77.5431 79.8623 78.1265V78.1401C79.8623 78.7189 79.9466 79.2134 80.1152 79.6235C80.2884 80.0337 80.5368 80.3481 80.8604 80.5669C81.1839 80.7856 81.5781 80.895 82.043 80.895Z" fill="#3478F6"/>
<path d="M87.2861 81.8179V74.4487H88.4756V75.5425H88.585C88.7262 75.1551 88.9655 74.8543 89.3027 74.6401C89.64 74.4259 90.057 74.3188 90.5537 74.3188C90.6676 74.3188 90.7793 74.3257 90.8887 74.3394C91.0026 74.3485 91.0892 74.3576 91.1484 74.3667V75.522C91.0254 75.4992 90.9046 75.4832 90.7861 75.4741C90.6722 75.4604 90.5492 75.4536 90.417 75.4536C90.0387 75.4536 89.7038 75.5288 89.4121 75.6792C89.1204 75.8296 88.8903 76.0392 88.7217 76.3081C88.5576 76.577 88.4756 76.8914 88.4756 77.2515V81.8179H87.2861Z" fill="#3478F6"/>
<path d="M95.4209 81.9478C94.7191 81.9478 94.1152 81.7928 93.6094 81.4829C93.1081 81.173 92.7207 80.7355 92.4473 80.1704C92.1784 79.6007 92.0439 78.9308 92.0439 78.1606V78.1538C92.0439 77.3927 92.1784 76.7251 92.4473 76.1509C92.7207 75.5767 93.1058 75.1278 93.6025 74.8042C94.0993 74.4806 94.6803 74.3188 95.3457 74.3188C96.0156 74.3188 96.5898 74.4738 97.0684 74.7837C97.5514 75.0936 97.9206 75.5265 98.1758 76.0825C98.4355 76.634 98.5654 77.2765 98.5654 78.0103V78.4751H92.6592V77.5249H97.957L97.3691 78.3931V77.9214C97.3691 77.3426 97.2826 76.8664 97.1094 76.4927C96.9362 76.119 96.6969 75.841 96.3916 75.6587C96.0863 75.4718 95.7354 75.3784 95.3389 75.3784C94.9424 75.3784 94.5869 75.4764 94.2725 75.6724C93.9626 75.8638 93.7165 76.1486 93.5342 76.5269C93.3519 76.9051 93.2607 77.37 93.2607 77.9214V78.3931C93.2607 78.9172 93.3496 79.366 93.5273 79.7397C93.7051 80.1089 93.958 80.3937 94.2861 80.5942C94.6143 80.7902 95.0016 80.8882 95.4482 80.8882C95.7809 80.8882 96.0703 80.8426 96.3164 80.7515C96.5625 80.6603 96.7653 80.5441 96.9248 80.4028C97.0843 80.2616 97.196 80.118 97.2598 79.9722L97.2871 79.9106H98.4766L98.4629 79.9653C98.3991 80.216 98.2852 80.4598 98.1211 80.6968C97.9616 80.9292 97.7542 81.1411 97.499 81.3325C97.2438 81.5194 96.9408 81.6698 96.5898 81.7837C96.2435 81.8931 95.8538 81.9478 95.4209 81.9478Z" fill="#3478F6"/>
<g clip-path="url(#clip5_25439_14688)">
<path d="M34.4443 124.16C34.4443 113.026 43.4702 104 54.6043 104H98.2841C109.418 104 118.444 113.026 118.444 124.16V167.84C118.444 178.974 109.418 188 98.2841 188H54.6043C43.4702 188 34.4443 178.974 34.4443 167.84V124.16Z" fill="#F2F1FE"/>
<g filter="url(#filter0_d_25439_14688)">
<path d="M51.1787 139.197C51.1787 135.434 51.1787 133.552 51.9111 132.114C52.5554 130.85 53.5834 129.822 54.8479 129.178C56.2854 128.445 58.1671 128.445 61.9307 128.445H90.8266C94.5901 128.445 96.4719 128.445 97.9094 129.178C99.1738 129.822 100.202 130.85 100.846 132.114C101.579 133.552 101.579 135.434 101.579 139.197V152.973C101.579 156.737 101.579 158.619 100.846 160.056C100.202 161.32 99.1738 162.348 97.9094 162.993C96.4719 163.725 94.5901 163.725 90.8266 163.725H61.9307C58.1671 163.725 56.2854 163.725 54.8479 162.993C53.5834 162.348 52.5554 161.32 51.9111 160.056C51.1787 158.619 51.1787 156.737 51.1787 152.973V139.197Z" fill="url(#paint0_linear_25439_14688)"/>
<path d="M51.1787 139.197C51.1787 135.434 51.1787 133.552 51.9111 132.114C52.5554 130.85 53.5834 129.822 54.8479 129.178C56.2854 128.445 58.1671 128.445 61.9307 128.445H90.8266C94.5901 128.445 96.4719 128.445 97.9094 129.178C99.1738 129.822 100.202 130.85 100.846 132.114C101.579 133.552 101.579 135.434 101.579 139.197V152.973C101.579 156.737 101.579 158.619 100.846 160.056C100.202 161.32 99.1738 162.348 97.9094 162.993C96.4719 163.725 94.5901 163.725 90.8266 163.725H61.9307C58.1671 163.725 56.2854 163.725 54.8479 162.993C53.5834 162.348 52.5554 161.32 51.9111 160.056C51.1787 158.619 51.1787 156.737 51.1787 152.973V139.197Z" fill="#383EDE" fill-opacity="0.5"/>
</g>
<path fill-rule="evenodd" clip-rule="evenodd" d="M67.5459 128.5H79.3109L82.6415 137.651C83.4541 139.883 83.8604 141 83.4193 141.946C82.9781 142.892 81.8618 143.298 79.6293 144.111L78.7126 144.444C76.48 145.257 75.3637 145.663 74.4177 145.222C73.4717 144.781 73.0654 143.665 72.2528 141.432L67.5459 128.5ZM77.9106 140.869C78.8668 140.521 79.3599 139.463 79.0118 138.507C78.6638 137.551 77.6064 137.058 76.6502 137.406C75.6939 137.754 75.2009 138.811 75.5489 139.767C75.897 140.724 76.9543 141.217 77.9106 140.869Z" fill="white"/>
</g>
<path d="M132.889 134.552V121.869H134.857L141.687 131.458L140.096 130.615H141.221V121.869H143.409V134.552H141.449L134.611 124.954L136.202 125.798H135.077V134.552H132.889Z" fill="#152A62"/>
<path d="M146.512 134.552V121.869H148.771V132.645H154.589V134.552H146.512Z" fill="#152A62"/>
<path d="M164.362 134.552L160.961 121.869H163.316L165.496 131.397H165.619L168.124 121.869H170.137L172.668 131.397H172.791L174.962 121.869H177.3L173.907 134.552H171.78L169.196 125.473H169.073L166.498 134.552H164.362Z" fill="#152A62"/>
<path d="M180.991 134.71C180.382 134.71 179.84 134.593 179.365 134.359C178.891 134.124 178.516 133.793 178.24 133.366C177.971 132.932 177.836 132.425 177.836 131.845V131.827C177.836 131.253 177.977 130.761 178.258 130.351C178.539 129.941 178.949 129.618 179.488 129.384C180.033 129.15 180.695 129.009 181.475 128.962L185.025 128.751V130.193L181.782 130.404C181.173 130.439 180.722 130.568 180.429 130.79C180.136 131.013 179.989 131.321 179.989 131.713V131.731C179.989 132.141 180.145 132.46 180.455 132.689C180.766 132.917 181.164 133.032 181.65 133.032C182.09 133.032 182.482 132.944 182.828 132.768C183.174 132.592 183.446 132.355 183.646 132.056C183.845 131.751 183.944 131.409 183.944 131.028V128.004C183.944 127.524 183.792 127.155 183.487 126.897C183.183 126.639 182.734 126.51 182.143 126.51C181.639 126.51 181.229 126.598 180.912 126.774C180.596 126.95 180.382 127.196 180.271 127.512L180.262 127.547H178.196L178.205 127.477C178.281 126.932 178.492 126.457 178.838 126.053C179.189 125.649 179.655 125.335 180.235 125.113C180.815 124.884 181.486 124.77 182.248 124.77C183.068 124.77 183.766 124.899 184.34 125.157C184.92 125.414 185.359 125.784 185.658 126.264C185.957 126.744 186.106 127.322 186.106 127.995V134.552H183.944V133.225H183.795C183.619 133.535 183.391 133.802 183.109 134.025C182.834 134.247 182.518 134.417 182.16 134.534C181.803 134.652 181.413 134.71 180.991 134.71Z" fill="#152A62"/>
<path d="M188.778 134.552V121.254H190.967V134.552H188.778Z" fill="#152A62"/>
<path d="M193.771 134.552V121.254H195.959V134.552H193.771Z" fill="#152A62"/>
<path d="M202.788 134.745C201.839 134.745 201.021 134.543 200.336 134.139C199.656 133.735 199.132 133.163 198.763 132.425C198.394 131.681 198.209 130.799 198.209 129.78V129.771C198.209 128.763 198.391 127.887 198.754 127.143C199.123 126.393 199.645 125.81 200.318 125.394C200.992 124.978 201.783 124.77 202.691 124.77C203.6 124.77 204.382 124.972 205.038 125.376C205.7 125.775 206.21 126.334 206.567 127.055C206.925 127.776 207.104 128.619 207.104 129.586V130.307H199.308V128.839H206.031L204.994 130.21V129.34C204.994 128.701 204.897 128.171 204.704 127.749C204.511 127.327 204.241 127.011 203.896 126.8C203.556 126.589 203.163 126.484 202.718 126.484C202.267 126.484 201.865 126.595 201.514 126.818C201.168 127.034 200.893 127.357 200.688 127.784C200.488 128.206 200.389 128.725 200.389 129.34V130.219C200.389 130.805 200.488 131.309 200.688 131.731C200.887 132.153 201.168 132.475 201.531 132.698C201.9 132.92 202.337 133.032 202.841 133.032C203.233 133.032 203.57 132.976 203.852 132.865C204.133 132.747 204.361 132.61 204.537 132.451C204.719 132.287 204.842 132.129 204.906 131.977L204.933 131.915H207.007L206.989 132.003C206.913 132.314 206.772 132.63 206.567 132.952C206.368 133.269 206.096 133.565 205.75 133.84C205.41 134.11 204.994 134.329 204.502 134.499C204.01 134.663 203.438 134.745 202.788 134.745Z" fill="#152A62"/>
<path d="M213.027 134.605C211.932 134.605 211.141 134.403 210.654 133.998C210.168 133.594 209.925 132.929 209.925 132.003V126.651H208.439V124.963H209.925V122.599H212.148V124.963H214.161V126.651H212.148V131.502C212.148 131.977 212.248 132.323 212.447 132.539C212.652 132.756 212.98 132.865 213.432 132.865C213.584 132.865 213.71 132.862 213.81 132.856C213.915 132.844 214.032 132.832 214.161 132.821V134.508C214.009 134.532 213.833 134.552 213.634 134.57C213.44 134.593 213.238 134.605 213.027 134.605Z" fill="#152A62"/>
<rect x="132.889" y="146.745" width="62" height="24" rx="12" fill="#3478F6"/>
</g>
</g>
<path fill-rule="evenodd" clip-rule="evenodd" d="M44 21H256C268.703 21 279 31.2975 279 44V200.186C279.336 200.228 279.669 200.276 280 200.332V44C280 30.7452 269.255 20 256 20H44C30.7452 20 20 30.7452 20 44V200.332C20.3311 200.276 20.6645 200.228 21 200.186V44C21 31.2975 31.2975 21 44 21Z" fill="#2F3D63"/>
<defs>
<filter id="filter0_d_25439_14688" x="42.8562" y="123.119" width="70.3739" height="55.2538" filterUnits="userSpaceOnUse" color-interpolation-filters="sRGB">
<feFlood flood-opacity="0" result="BackgroundImageFix"/>
<feColorMatrix in="SourceAlpha" type="matrix" values="0 0 0 0 0 0 0 0 0 0 0 0 0 0 0 0 0 0 127 0" result="hardAlpha"/>
<feOffset dx="1.6645" dy="4.66059"/>
<feGaussianBlur stdDeviation="4.99349"/>
<feComposite in2="hardAlpha" operator="out"/>
<feColorMatrix type="matrix" values="0 0 0 0 0.698039 0 0 0 0 0.670588 0 0 0 0 1 0 0 0 1 0"/>
<feBlend mode="normal" in2="BackgroundImageFix" result="effect1_dropShadow_25439_14688"/>
<feBlend mode="normal" in="SourceGraphic" in2="effect1_dropShadow_25439_14688" result="shape"/>
</filter>
<linearGradient id="paint0_linear_25439_14688" x1="52.7153" y1="128.445" x2="107.279" y2="145.711" gradientUnits="userSpaceOnUse">
<stop stop-color="#576EE8"/>
<stop offset="1" stop-color="#8060FF"/>
</linearGradient>
<clipPath id="clip0_25439_14688">
<path d="M20 44C20 30.7452 30.7452 20 44 20H256C269.255 20 280 30.7452 280 44V200H20V44Z" fill="white"/>
</clipPath>
<clipPath id="clip1_25439_14688">
<path d="M20 37.3333C20 27.7604 27.7604 20 37.3333 20H262.667C272.24 20 280 27.7604 280 37.3333V182.666C280 192.239 272.24 200 262.667 200H37.3333C27.7604 200 20 192.239 20 182.666V37.3333Z" fill="white"/>
</clipPath>
<clipPath id="clip2_25439_14688">
<rect width="16.1745" height="10.4134" fill="white" transform="translate(200.194 35.3611)"/>
</clipPath>
<clipPath id="clip3_25439_14688">
<rect width="13.8045" height="9.9697" fill="white" transform="translate(221.861 36.0834)"/>
</clipPath>
<clipPath id="clip4_25439_14688">
<rect width="22.279" height="10.0785" fill="white" transform="translate(241.361 36.0834)"/>
</clipPath>
<clipPath id="clip5_25439_14688">
<rect width="84" height="83.9997" fill="white" transform="translate(34.4443 104)"/>
</clipPath>
</defs>
</svg>
