<svg enable-background="new 0 0 300 300" viewBox="0 0 300 300" xmlns="http://www.w3.org/2000/svg"><path d="m214.506 199.013h-129.012c-10.972 0-19.867-8.895-19.867-19.867v-64.215c0-10.972 8.895-19.867 19.867-19.867h129.012c10.972 0 19.867 8.895 19.867 19.867v64.215c0 10.972-8.895 19.867-19.867 19.867z" fill="#e3e0fd"/><ellipse cx="154.041" cy="210.179" fill="#e3e0fd" rx="65.803" ry="7.633"/><g stroke-linejoin="round" stroke-miterlimit="10"><path d="m97.228 142.677h105.076v43.092h-105.076z" fill="#e3e0fd" stroke="#152a62"/><path d="m97.228 142.677h20.856v43.092h-20.856z" fill="#b49cfb" stroke="#152a62"/><path d="m176.768 144.946h-79.945c-2.482 0-4.495-2.012-4.495-4.495v-20.459c0-2.482 2.012-4.495 4.495-4.495h79.945c2.482 0 4.495 2.012 4.495 4.495v20.459c0 2.482-2.013 4.495-4.495 4.495z" fill="#152a62" stroke="#152a62"/><path d="m202.379 144.946h-82.012c-2.482 0-4.495-2.012-4.495-4.495v-20.459c0-2.482 2.012-4.495 4.495-4.495h82.012c2.482 0 4.495 2.012 4.495 4.495v20.459c0 2.482-2.013 4.495-4.495 4.495z" fill="#b49cfb" stroke="#152a62"/><circle cx="161.547" cy="129.996" fill="#ffb7ad" r="4.064" stroke="#152a62"/><circle cx="146.616" cy="129.996" fill="#84e9d4" r="4.064" stroke="#152a62"/><circle cx="131.684" cy="129.996" fill="#e3e0fd" r="4.064" stroke="#152a62"/><path d="m176.768 177.877h-79.945c-2.482 0-4.495-2.012-4.495-4.495v-20.459c0-2.482 2.012-4.495 4.495-4.495h79.945c2.482 0 4.495 2.012 4.495 4.495v20.459c0 2.483-2.013 4.495-4.495 4.495z" fill="#152a62" stroke="#152a62"/><path d="m202.379 177.877h-82.012c-2.482 0-4.495-2.012-4.495-4.495v-20.459c0-2.482 2.012-4.495 4.495-4.495h82.012c2.482 0 4.495 2.012 4.495 4.495v20.459c0 2.483-2.013 4.495-4.495 4.495z" fill="#b49cfb" stroke="#152a62"/><circle cx="161.547" cy="162.928" fill="#e3e0fd" r="4.064" stroke="#152a62"/><circle cx="146.616" cy="162.928" fill="#ffb7ad" r="4.064" stroke="#152a62"/><circle cx="131.684" cy="162.928" fill="#e3e0fd" r="4.064" stroke="#152a62"/><path d="m175.022 165.135h18.611c.653 0 1.181-.529 1.181-1.181v-1.482c0-.653-.529-1.181-1.181-1.181h-18.611c-.653 0-1.181.529-1.181 1.181v1.482c-.001.652.528 1.181 1.181 1.181z" fill="#e3e0fd" stroke="#152a62"/><path d="m176.768 210.809h-79.945c-2.482 0-4.495-2.012-4.495-4.495v-20.459c0-2.482 2.012-4.495 4.495-4.495h79.945c2.482 0 4.495 2.012 4.495 4.495v20.459c0 2.482-2.013 4.495-4.495 4.495z" fill="#152a62" stroke="#152a62"/><path d="m202.379 210.809h-82.012c-2.482 0-4.495-2.012-4.495-4.495v-20.459c0-2.482 2.012-4.495 4.495-4.495h82.012c2.482 0 4.495 2.012 4.495 4.495v20.459c0 2.482-2.013 4.495-4.495 4.495z" fill="#b49cfb" stroke="#152a62"/><circle cx="161.547" cy="195.859" fill="#84e9d4" r="4.064" stroke="#152a62"/><circle cx="146.616" cy="195.859" fill="#e3e0fd" r="4.064" stroke="#152a62"/><circle cx="131.684" cy="195.859" fill="#84e9d4" r="4.064" stroke="#152a62"/><path d="m175.022 198.168h18.611c.653 0 1.181-.529 1.181-1.181v-1.482c0-.653-.529-1.181-1.181-1.181h-18.611c-.653 0-1.181.529-1.181 1.181v1.482c-.001.652.528 1.181 1.181 1.181z" fill="#e3e0fd" stroke="#152a62"/><path d="m97.847 136.296h7.079" fill="none" stroke="#b49cfb" stroke-linecap="round"/><path d="m97.847 139.617h7.079" fill="none" stroke="#b49cfb" stroke-linecap="round"/><path d="m97.847 169.592h7.079" fill="none" stroke="#b49cfb" stroke-linecap="round"/><path d="m97.847 172.912h7.079" fill="none" stroke="#b49cfb" stroke-linecap="round"/><path d="m97.847 202.888h7.079" fill="none" stroke="#b49cfb" stroke-linecap="round"/><path d="m97.847 206.208h7.079" fill="none" stroke="#b49cfb" stroke-linecap="round"/><path d="m151.4 212.5c-1.898 1.322-3.371 2.124-6.282 2.124h-51.183c-4.486 0-8.101-3.799-7.796-8.349.185-2.763 2.033-5.43 6.3-6.532v-4.772c-7.433 1.055-11.496 6.447-11.199 12.479.336 6.828 6.227 12.072 13.063 12.072h50.815c4.325 0 6.752-1.529 8.893-2.878 2.205-1.39 3.308-3.259 7.69-3.259v-4.897c-5.796-.001-7.308 1.927-10.301 4.012z" fill="#ffb7ad" stroke="#152a62"/><path d="m171.214 220h-6.803c-4.418 0-8-3.582-8-8 0-4.418 3.582-8 8-8h6.803z" fill="#b49cfb" stroke="#152a62"/><path d="m171.363 220c-3.156 0-5.714-2.558-5.714-5.714v-4.573c0-3.156 2.558-5.714 5.714-5.714 3.156 0 5.714 2.558 5.714 5.714v4.573c0 3.156-2.559 5.714-5.714 5.714z" fill="#e3e0fd" stroke="#152a62"/><path d="m180.49 207.887h-9.301c-.812 0-1.47.658-1.47 1.47 0 .812.658 1.47 1.47 1.47h9.301c.812 0 1.47-.658 1.47-1.47 0-.812-.658-1.47-1.47-1.47z" fill="#fff" stroke="#152a62"/><path d="m180.49 213.312h-9.301c-.812 0-1.47.658-1.47 1.47 0 .812.658 1.47 1.47 1.47h9.301c.812 0 1.47-.658 1.47-1.47 0-.812-.658-1.47-1.47-1.47z" fill="#fff" stroke="#152a62"/><path d="m198.597 81.406-22.859 39.593c-1.266 2.192.316 4.932 2.848 4.932h45.718c2.531 0 4.113-2.74 2.848-4.932l-22.859-39.593c-1.266-2.192-4.431-2.192-5.696 0z" fill="#152a62" stroke="#152a62"/><path d="m200.166 81.406-22.859 39.593c-1.266 2.192.316 4.932 2.848 4.932h45.718c2.531 0 4.113-2.74 2.848-4.932l-22.859-39.593c-1.266-2.192-4.43-2.192-5.696 0z" fill="#ffb7ad" stroke="#152a62"/></g><path d="m204.463 111.052h-2.897c-.454 0-.828-.357-.848-.811l-.61-13.822c-.021-.483.364-.886.848-.886h4.116c.483 0 .869.403.848.886l-.61 13.822c-.02.453-.393.811-.847.811z" fill="#152a62"/><circle cx="203.014" cy="116.357" fill="#152a62" r="2.663"/></svg>