<svg width="300" height="214" viewBox="0 0 300 214" fill="none" xmlns="http://www.w3.org/2000/svg">
<path d="M214.882 55H85.8679C74.8952 55 66 63.8952 66 74.8679V139.084C66 150.057 74.8952 158.952 85.8679 158.952H214.882C225.855 158.952 234.75 150.057 234.75 139.084V74.8679C234.75 63.8952 225.855 55 214.882 55Z" fill="#E3E0FD"/>
<path d="M99.4492 154.174L101.218 151.862L101.778 152.14C101.766 151.087 101.873 149.993 102.145 148.862L127.439 43.7045C129.433 35.4151 137.11 28.6957 145.724 28.6957H191.444C192.03 28.6957 192.597 28.733 193.153 28.7937L194.78 26.3633L201.01 32.5935C201.014 32.597 201.016 32.5994 201.02 32.6029L201.148 32.7301L201.146 32.7418C203.852 35.4956 205.008 39.5942 203.905 44.1797L178.611 149.337C176.766 157.007 168.808 163.226 160.836 163.226H113.71C110.022 163.226 106.992 161.884 104.966 159.694L99.4492 154.174Z" fill="#E3E0FD" stroke="#152A62" stroke-miterlimit="10"/>
<path d="M171.216 159.737C168.151 161.901 164.499 163.223 160.836 163.223H113.71C110.022 163.223 106.992 161.882 104.967 159.692L99.4492 154.174L101.218 151.862L101.777 152.14C101.765 151.107 101.87 150.033 102.132 148.924L163.34 151.861L171.216 159.737Z" fill="#F5F4F9" stroke="#152A62" stroke-miterlimit="10"/>
<path d="M107.543 157.055H154.669C162.64 157.055 170.598 150.837 172.444 143.167L197.738 38.0089C199.732 29.7194 194.365 23 185.751 23H140.955C132.34 23 123.74 29.7194 121.746 38.0089L96.4515 143.167C94.6059 150.837 99.5719 157.055 107.543 157.055Z" fill="#152A62" stroke="#152A62" stroke-miterlimit="10"/>
<path d="M155.918 152.653C161.244 152.653 166.581 148.48 167.815 143.352L193.109 38.1945C193.792 35.3554 193.281 32.6658 191.668 30.6194C190.033 28.545 187.487 27.4033 184.499 27.4033H178.342C176.549 27.4033 174.819 28.7575 174.403 30.4863C173.829 32.8748 171.275 34.7461 168.589 34.7461H151.948C150.686 34.7461 149.66 34.3258 149.058 33.5612C148.505 32.8608 148.35 31.9257 148.608 30.8552C148.821 29.9727 148.648 29.0925 148.134 28.4399C147.615 27.7804 146.787 27.4033 145.861 27.4033H139.703C133.735 27.4033 127.753 32.0775 126.371 37.8244L101.076 142.982C100.465 145.525 100.925 147.935 102.37 149.77C103.835 151.63 106.115 152.654 108.79 152.654H155.918V152.653Z" fill="white" stroke="#152A62" stroke-miterlimit="10"/>
<path d="M197.706 46.8936L200.569 49.6275L199.378 54.6612L196.516 51.9273L197.706 46.8936Z" stroke="#152A62" stroke-miterlimit="10" stroke-linejoin="round"/>
<path d="M195.679 55.1665L198.541 57.9005L197.351 62.9342L194.488 60.2002L195.679 55.1665Z" stroke="#152A62" stroke-miterlimit="10" stroke-linejoin="round"/>
<path d="M136.785 183.71C158.924 183.71 176.872 181.984 176.872 179.855C176.872 177.726 158.924 176 136.785 176C114.645 176 96.6973 177.726 96.6973 179.855C96.6973 181.984 114.645 183.71 136.785 183.71Z" fill="#E3E0FD"/>
<path d="M99.3828 154.174L101.151 151.862L101.712 152.14C101.7 151.087 101.806 149.993 102.078 148.862L127.373 43.7045C129.367 35.4151 137.043 28.6957 145.657 28.6957H191.377C191.963 28.6957 192.531 28.733 193.086 28.7937L194.714 26.3633L200.944 32.5935C200.947 32.597 200.95 32.5994 200.953 32.6029L201.082 32.7301L201.079 32.7418C203.785 35.4956 204.942 39.5942 203.839 44.1797L178.544 149.337C176.7 157.007 168.742 163.226 160.77 163.226H113.643C109.956 163.226 106.925 161.884 104.9 159.694L99.3828 154.174Z" fill="#E3E0FD" stroke="#152A62" stroke-miterlimit="10"/>
<path d="M171.149 159.737C168.085 161.901 164.432 163.223 160.77 163.223H113.643C109.956 163.223 106.925 161.882 104.901 159.692L99.3828 154.174L101.151 151.862L101.711 152.14C101.699 151.107 101.804 150.033 102.065 148.924L163.274 151.861L171.149 159.737Z" fill="#F5F4F9" stroke="#152A62" stroke-miterlimit="10"/>
<path d="M107.476 157.055H154.603C162.574 157.055 170.532 150.837 172.377 143.167L197.672 38.0089C199.666 29.7194 194.298 23 185.684 23H140.889C132.274 23 123.674 29.7194 121.68 38.0089L96.3851 143.167C94.5395 150.837 99.5055 157.055 107.476 157.055Z" fill="#152A62" stroke="#152A62" stroke-miterlimit="10"/>
<path d="M155.852 152.653C161.177 152.653 166.515 148.48 167.748 143.352L193.043 38.1945C193.726 35.3554 193.215 32.6658 191.601 30.6194C189.967 28.545 187.421 27.4033 184.432 27.4033H178.276C176.483 27.4033 174.753 28.7575 174.337 30.4863C173.763 32.8748 171.209 34.7461 168.522 34.7461H151.882C150.62 34.7461 149.594 34.3258 148.991 33.5612C148.439 32.8608 148.284 31.9257 148.542 30.8552C148.754 29.9727 148.581 29.0925 148.068 28.4399C147.548 27.7804 146.721 27.4033 145.795 27.4033H139.637C133.668 27.4033 127.687 32.0775 126.305 37.8244L101.01 142.982C100.398 145.525 100.858 147.935 102.303 149.77C103.769 151.63 106.048 152.654 108.724 152.654H155.852V152.653Z" fill="white" stroke="#152A62" stroke-miterlimit="10"/>
<path d="M197.64 46.8936L200.502 49.6275L199.312 54.6612L196.449 51.9273L197.64 46.8936Z" stroke="#152A62" stroke-miterlimit="10" stroke-linejoin="round"/>
<path d="M195.613 55.1665L198.475 57.9005L197.284 62.9342L194.422 60.2002L195.613 55.1665Z" stroke="#152A62" stroke-miterlimit="10" stroke-linejoin="round"/>
<path d="M136.718 183.71C158.858 183.71 176.806 181.984 176.806 179.855C176.806 177.726 158.858 176 136.718 176C114.579 176 96.6309 177.726 96.6309 179.855C96.6309 181.984 114.579 183.71 136.718 183.71Z" fill="#E3E0FD"/>
<path d="M174.672 71.1331H129.414C126.539 71.1331 124.713 68.9479 125.335 66.2525L130.5 43.8806C131.122 41.1852 133.956 39 136.831 39H182.089C184.964 39 186.79 41.1852 186.168 43.8806L181.003 66.2525C180.382 68.9479 177.547 71.1331 174.672 71.1331Z" fill="#89C8FF" stroke="#152A62" stroke-miterlimit="10"/>
<path d="M162.893 49.3193H137.497C136.762 49.3193 136.296 48.7607 136.455 48.0727L136.784 46.646C136.943 45.9572 137.667 45.3994 138.402 45.3994H163.797C164.532 45.3994 164.998 45.958 164.84 46.646L164.51 48.0727C164.351 48.7615 163.627 49.3193 162.893 49.3193Z" fill="#152A62"/>
<path d="M154.12 55.1564H135.793C135.255 55.1564 134.913 54.7477 135.029 54.2431L135.176 53.6076C135.292 53.103 135.823 52.6943 136.361 52.6943H154.689C155.227 52.6943 155.569 53.103 155.452 53.6076L155.306 54.2431C155.189 54.7477 154.658 55.1564 154.12 55.1564Z" fill="#152A62"/>
<path d="M138.877 64.8292H133.562C133.024 64.8292 132.682 64.4205 132.799 63.916L132.945 63.2804C133.062 62.7759 133.592 62.3672 134.13 62.3672H139.445C139.983 62.3672 140.325 62.7759 140.209 63.2804L140.062 63.916C139.946 64.4205 139.415 64.8292 138.877 64.8292Z" fill="#152A62"/>
<rect width="9.24633" height="9.24633" rx="2" transform="matrix(1 0 -0.224951 0.97437 171.113 46.3713)" fill="#152A62"/>
<path d="M165.397 109.133H120.139C117.264 109.133 115.438 106.948 116.06 104.252L121.225 81.8806C121.846 79.1852 124.681 77 127.556 77H172.814C175.689 77 177.515 79.1852 176.893 81.8806L171.728 104.252C171.106 106.948 168.272 109.133 165.397 109.133Z" fill="#FFB7AD" stroke="#152A62" stroke-miterlimit="10"/>
<path d="M153.617 87.3193H128.222C127.487 87.3193 127.021 86.7607 127.18 86.0727L127.509 84.646C127.668 83.9572 128.392 83.3994 129.127 83.3994H154.522C155.257 83.3994 155.723 83.958 155.564 84.646L155.235 86.0727C155.076 86.7615 154.352 87.3193 153.617 87.3193Z" fill="#152A62"/>
<path d="M144.845 93.1564H126.517C125.979 93.1564 125.637 92.7477 125.754 92.2431L125.9 91.6076C126.017 91.103 126.548 90.6943 127.086 90.6943H145.413C145.951 90.6943 146.293 91.103 146.177 91.6076L146.03 92.2431C145.914 92.7477 145.383 93.1564 144.845 93.1564Z" fill="#152A62"/>
<path d="M129.602 102.829H124.287C123.749 102.829 123.407 102.421 123.523 101.916L123.67 101.28C123.787 100.776 124.317 100.367 124.855 100.367H130.17C130.708 100.367 131.05 100.776 130.933 101.28L130.787 101.916C130.67 102.421 130.14 102.829 129.602 102.829Z" fill="#152A62"/>
<rect width="9.24633" height="9.24633" rx="2" transform="matrix(1 0 -0.224951 0.97437 161.838 84.3713)" fill="#152A62"/>
<path d="M156.397 147.133H111.139C108.264 147.133 106.438 144.948 107.06 142.252L112.225 119.881C112.846 117.185 115.681 115 118.556 115H163.814C166.689 115 168.515 117.185 167.893 119.881L162.728 142.252C162.106 144.948 159.272 147.133 156.397 147.133Z" fill="white" stroke="#152A62" stroke-miterlimit="10"/>
<path d="M144.617 125.319H119.222C118.487 125.319 118.021 124.761 118.18 124.073L118.509 122.646C118.668 121.957 119.392 121.399 120.127 121.399H145.522C146.257 121.399 146.723 121.958 146.564 122.646L146.235 124.073C146.076 124.762 145.352 125.319 144.617 125.319Z" fill="#152A62"/>
<path d="M135.845 131.156H117.517C116.979 131.156 116.637 130.748 116.754 130.243L116.9 129.608C117.017 129.103 117.548 128.694 118.086 128.694H136.413C136.951 128.694 137.293 129.103 137.177 129.608L137.03 130.243C136.914 130.748 136.383 131.156 135.845 131.156Z" fill="#152A62"/>
<path d="M120.602 140.829H115.287C114.749 140.829 114.407 140.421 114.523 139.916L114.67 139.28C114.787 138.776 115.317 138.367 115.855 138.367H121.17C121.708 138.367 122.05 138.776 121.933 139.28L121.787 139.916C121.67 140.421 121.14 140.829 120.602 140.829Z" fill="#152A62"/>
<rect width="9.24633" height="9.24633" rx="2" transform="matrix(1 0 -0.224951 0.97437 152.838 122.371)" fill="#152A62"/>
</svg>
