<svg width="300" height="214" viewBox="0 0 300 214" fill="none" xmlns="http://www.w3.org/2000/svg">
<path d="M214.882 55H85.8679C74.8952 55 66 63.8952 66 74.8679V139.084C66 150.057 74.8952 158.952 85.8679 158.952H214.882C225.855 158.952 234.75 150.057 234.75 139.084V74.8679C234.75 63.8952 225.855 55 214.882 55Z" fill="#E3E0FD"/>
<path d="M99.4492 154.174L101.218 151.862L101.778 152.14C101.766 151.087 101.873 149.993 102.145 148.862L127.439 43.7046C129.433 35.4151 137.11 28.6957 145.724 28.6957H191.444C192.03 28.6957 192.597 28.7331 193.153 28.7938L194.78 26.3633L201.01 32.5936C201.014 32.5971 201.016 32.5994 201.02 32.6029L201.148 32.7301L201.146 32.7418C203.852 35.4956 205.008 39.5943 203.905 44.1797L178.611 149.337C176.766 157.007 168.808 163.226 160.836 163.226H113.71C110.022 163.226 106.992 161.884 104.966 159.694L99.4492 154.174Z" fill="#E3E0FD" stroke="#152A62" stroke-miterlimit="10"/>
<path d="M171.216 159.737C168.151 161.901 164.499 163.223 160.836 163.223H113.71C110.022 163.223 106.992 161.882 104.967 159.692L99.4492 154.174L101.218 151.862L101.777 152.14C101.765 151.107 101.87 150.033 102.132 148.924L163.34 151.861L171.216 159.737Z" fill="#F5F4F9" stroke="#152A62" stroke-miterlimit="10"/>
<path d="M107.543 157.055H154.669C162.64 157.055 170.598 150.837 172.444 143.167L197.738 38.0089C199.732 29.7194 194.365 23 185.751 23H140.955C132.34 23 123.74 29.7194 121.746 38.0089L96.4515 143.167C94.6059 150.837 99.5719 157.055 107.543 157.055Z" fill="#152A62" stroke="#152A62" stroke-miterlimit="10"/>
<path d="M155.918 152.653C161.244 152.653 166.581 148.48 167.815 143.352L193.109 38.1944C193.792 35.3554 193.281 32.6658 191.668 30.6194C190.033 28.545 187.487 27.4033 184.499 27.4033H178.342C176.549 27.4033 174.819 28.7574 174.403 30.4863C173.829 32.8747 171.275 34.746 168.589 34.746H151.948C150.686 34.746 149.66 34.3258 149.058 33.5612C148.505 32.8607 148.35 31.9257 148.608 30.8552C148.821 29.9727 148.648 29.0925 148.134 28.4399C147.615 27.7803 146.787 27.4033 145.861 27.4033H139.703C133.735 27.4033 127.753 32.0774 126.371 37.8244L101.076 142.982C100.465 145.525 100.925 147.935 102.37 149.77C103.835 151.63 106.115 152.654 108.79 152.654H155.918V152.653Z" fill="white" stroke="#152A62" stroke-miterlimit="10"/>
<path d="M197.706 46.8936L200.569 49.6276L199.378 54.6613L196.516 51.9273L197.706 46.8936Z" stroke="#152A62" stroke-miterlimit="10" stroke-linejoin="round"/>
<path d="M195.679 55.1667L198.541 57.9007L197.351 62.9343L194.488 60.2004L195.679 55.1667Z" stroke="#152A62" stroke-miterlimit="10" stroke-linejoin="round"/>
<path d="M136.785 183.709C158.924 183.709 176.872 181.984 176.872 179.855C176.872 177.726 158.924 176 136.785 176C114.645 176 96.6973 177.726 96.6973 179.855C96.6973 181.984 114.645 183.709 136.785 183.709Z" fill="#E3E0FD"/>
<path d="M99.3828 154.174L101.151 151.862L101.712 152.14C101.7 151.087 101.806 149.993 102.078 148.862L127.373 43.7046C129.367 35.4151 137.043 28.6957 145.657 28.6957H191.377C191.963 28.6957 192.531 28.7331 193.086 28.7938L194.714 26.3633L200.944 32.5936C200.947 32.5971 200.95 32.5994 200.953 32.6029L201.082 32.7301L201.079 32.7418C203.785 35.4956 204.942 39.5943 203.839 44.1797L178.544 149.337C176.7 157.007 168.742 163.226 160.77 163.226H113.643C109.956 163.226 106.925 161.884 104.9 159.694L99.3828 154.174Z" fill="#E3E0FD" stroke="#152A62" stroke-miterlimit="10"/>
<path d="M171.149 159.737C168.085 161.901 164.432 163.223 160.77 163.223H113.643C109.956 163.223 106.925 161.882 104.901 159.692L99.3828 154.174L101.151 151.862L101.711 152.14C101.699 151.107 101.804 150.033 102.065 148.924L163.274 151.861L171.149 159.737Z" fill="#F5F4F9" stroke="#152A62" stroke-miterlimit="10"/>
<path d="M107.476 157.055H154.603C162.574 157.055 170.532 150.837 172.377 143.167L197.672 38.0089C199.666 29.7194 194.298 23 185.684 23H140.889C132.274 23 123.674 29.7194 121.68 38.0089L96.3851 143.167C94.5395 150.837 99.5055 157.055 107.476 157.055Z" fill="#152A62" stroke="#152A62" stroke-miterlimit="10"/>
<path d="M155.852 152.653C161.177 152.653 166.515 148.48 167.748 143.352L193.043 38.1944C193.726 35.3554 193.215 32.6658 191.601 30.6194C189.967 28.545 187.421 27.4033 184.432 27.4033H178.276C176.483 27.4033 174.753 28.7574 174.337 30.4863C173.763 32.8747 171.209 34.746 168.522 34.746H151.882C150.62 34.746 149.594 34.3258 148.991 33.5612C148.439 32.8607 148.284 31.9257 148.542 30.8552C148.754 29.9727 148.581 29.0925 148.068 28.4399C147.548 27.7803 146.721 27.4033 145.795 27.4033H139.637C133.668 27.4033 127.687 32.0774 126.305 37.8244L101.01 142.982C100.398 145.525 100.858 147.935 102.303 149.77C103.769 151.63 106.048 152.654 108.724 152.654H155.852V152.653Z" fill="white" stroke="#152A62" stroke-miterlimit="10"/>
<path d="M197.64 46.8936L200.502 49.6276L199.312 54.6613L196.449 51.9273L197.64 46.8936Z" stroke="#152A62" stroke-miterlimit="10" stroke-linejoin="round"/>
<path d="M195.613 55.1667L198.475 57.9007L197.284 62.9343L194.422 60.2004L195.613 55.1667Z" stroke="#152A62" stroke-miterlimit="10" stroke-linejoin="round"/>
<path d="M136.718 183.709C158.858 183.709 176.806 181.984 176.806 179.855C176.806 177.726 158.858 176 136.718 176C114.579 176 96.6309 177.726 96.6309 179.855C96.6309 181.984 114.579 183.709 136.718 183.709Z" fill="#E3E0FD"/>
</svg>
