<svg fill="none" height="214" viewBox="0 0 300 214" width="300" xmlns="http://www.w3.org/2000/svg">
    <path
        d="M214.879 156.013H85.867C74.895 156.013 66 147.118 66 136.146V71.931C66 60.959 74.895 52.064 85.867 52.064H214.879C225.851 52.064 234.746 60.959 234.746 71.931V136.146C234.746 147.118 225.851 156.013 214.879 156.013Z"
        fill="#E3E0FD" />
    <path
        d="M149.102 174.208C175.668 174.208 197.204 172.818 197.204 171.104C197.204 169.39 175.668 168 149.102 168C122.536 168 101 169.39 101 171.104C101 172.818 122.536 174.208 149.102 174.208Z"
        fill="#E3E0FD" />
    <path
        d="M197.499 136.619C197.65 135.612 197.613 134.526 197.339 133.389L187.188 91.1882C185.965 86.1042 180.69 81.9821 175.407 81.9821H94.708L94.899 80.9192L93.8492 80.4341L89.8896 83.37L89.8884 83.3842C87.5741 85.0105 86.4626 87.893 87.255 91.1882L97.4066 133.389C98.6296 138.473 103.905 142.595 109.188 142.595H189.985C191.989 142.595 193.704 142.001 194.997 140.988L199.052 137.992L197.499 136.619Z"
        fill="#152A62" stroke="#152A62" stroke-linejoin="round" stroke-miterlimit="10" />
    <path
        d="M94.707 81.9821L94.898 80.9192L93.8482 80.4341L89.8886 83.37L89.8874 83.3842C87.5731 85.0105 86.4617 87.893 87.2541 91.1882L97.4056 133.389C98.0082 135.895 99.6025 138.163 101.691 139.823L108.821 134.497L115.162 81.9821H94.707Z"
        fill="white" stroke="#152A62" stroke-linejoin="round" stroke-miterlimit="10" />
    <path
        d="M194.024 139.613H113.226C107.943 139.613 102.668 135.491 101.445 130.407L91.2932 88.2062C90.0702 83.1221 93.362 79 98.6465 79H179.444C184.727 79 190.002 83.1221 191.225 88.2062L201.377 130.407C202.599 135.491 199.307 139.613 194.024 139.613Z"
        fill="white" stroke="#152A62" stroke-miterlimit="10" />
    <path clip-rule="evenodd" d="M221 95.9469C221 111.992 207.568 125 190.998 125C174.428 125 160.996 111.992 160.996 95.9469C160.996 79.9015 174.428 66.894 190.998 66.894C207.568 66.894 221 79.9015 221 95.9469ZM213.058 95.9469C213.058 107.745 203.181 117.309 190.998 117.309C185.679 117.309 180.8 115.486 176.99 112.45L210.3 85.5956C212.057 88.6621 213.058 92.1913 213.058 95.9469ZM205.225 79.6199C201.384 76.4783 196.419 74.5845 190.998 74.5845C178.814 74.5845 168.938 84.1488 168.938 95.9469C168.938 99.8009 169.992 103.417 171.836 106.538L205.225 79.6199Z"
        fill="#152A62"
        fill-rule="evenodd" />
    <path
        d="M190.002 122.606C206.832 122.606 220.504 109.389 220.504 93.0529C220.504 76.7162 206.832 63.5 190.002 63.5C173.171 63.5 159.5 76.7162 159.5 93.0529C159.5 109.389 173.171 122.606 190.002 122.606ZM211.562 93.0529C211.562 104.56 201.925 113.915 190.002 113.915C185.026 113.915 180.447 112.285 176.8 109.548L209.155 83.464C210.693 86.335 211.562 89.5954 211.562 93.0529ZM190.002 72.1905C195.08 72.1905 199.746 73.8888 203.429 76.7288L170.982 102.887C169.361 99.9569 168.442 96.6091 168.442 93.0529C168.442 81.5459 178.079 72.1905 190.002 72.1905Z"
        fill="#FFB7AD" stroke="#152A62" />
</svg>
