<svg width="300" height="200" viewBox="0 0 300 200" fill="none" xmlns="http://www.w3.org/2000/svg">
<path d="M214.506 149.013H85.494C74.522 149.013 65.627 140.118 65.627 129.146V64.931C65.627 53.959 74.522 45.064 85.494 45.064H214.506C225.478 45.064 234.373 53.959 234.373 64.931V129.146C234.373 140.118 225.478 149.013 214.506 149.013Z" fill="#E3E0FD"/>
<path d="M145.086 85.44C145.086 85.44 179.152 62.648 181.447 61.119C183.546 59.72 187.025 58.793 188.584 60.454C191.243 63.288 190.088 67.941 186.975 71.194C184.905 73.357 148.939 106.626 148.939 106.626" fill="#E3E0FD"/>
<path d="M145.086 85.44C145.086 85.44 179.152 62.648 181.447 61.119C183.546 59.72 187.025 58.793 188.584 60.454C191.243 63.288 190.088 67.941 186.975 71.194C184.905 73.357 148.939 106.626 148.939 106.626" stroke="#152A62" stroke-miterlimit="10" stroke-linejoin="round"/>
<path d="M181.332 129.109L180.049 127.433L179.643 127.635C179.652 126.871 179.574 126.078 179.377 125.258L161.033 48.9959C159.587 42.9839 154.32 38.1109 148.072 38.1109H115.215C114.79 38.1109 114.378 38.1379 113.976 38.1819L112.796 36.4189L108.278 40.9369C108.276 40.9389 108.274 40.9409 108.272 40.9429L108.179 41.0359L108.181 41.0439C106.219 43.0409 105.379 46.0129 106.179 49.3389L124.523 125.601C125.861 131.164 131.632 135.673 137.413 135.673H170.99C173.664 135.673 175.862 134.7 177.331 133.112L181.332 129.109Z" fill="#E3E0FD" stroke="#152A62" stroke-miterlimit="10" stroke-linejoin="round"/>
<path d="M129.886 133.144C132.109 134.713 134.757 135.672 137.413 135.672H170.99C173.664 135.672 175.862 134.699 177.331 133.111L181.333 129.109L180.05 127.433L179.644 127.635C179.653 126.885 179.576 126.107 179.387 125.303L135.598 127.433L129.886 133.144Z" fill="#F5F4F9" stroke="#152A62" stroke-miterlimit="10" stroke-linejoin="round"/>
<path d="M175.463 131.199H141.886C136.105 131.199 130.334 126.69 128.996 121.127L110.652 44.865C109.206 38.853 113.098 33.98 119.346 33.98H151.233C157.481 33.98 163.718 38.853 165.164 44.865L183.508 121.127C184.846 126.69 181.244 131.199 175.463 131.199Z" fill="#152A62" stroke="#152A62" stroke-miterlimit="10" stroke-linejoin="round"/>
<path d="M140.98 128.006C137.118 128.006 133.248 124.98 132.353 121.261L114.009 44.999C113.514 42.94 113.885 40.989 115.054 39.505C116.239 38 118.085 37.172 120.253 37.172H124.418C125.718 37.172 126.973 38.154 127.274 39.408C127.691 41.14 129.543 42.497 131.491 42.497H143.559C144.474 42.497 145.219 42.192 145.655 41.638C146.055 41.13 146.168 40.452 145.981 39.676C145.827 39.036 145.952 38.397 146.324 37.924C146.701 37.446 147.301 37.172 147.972 37.172H152.138C156.467 37.172 160.804 40.562 161.807 44.729L180.151 120.991C180.595 122.835 180.261 124.583 179.213 125.914C178.15 127.263 176.497 128.005 174.557 128.005L140.98 128.006Z" fill="white" stroke="#152A62" stroke-miterlimit="10" stroke-linejoin="round"/>
<path d="M110.675 51.308L108.599 53.29L109.462 56.941L111.538 54.958L110.675 51.308Z" stroke="#152A62" stroke-miterlimit="10" stroke-linejoin="round"/>
<path d="M112.146 57.307L110.07 59.29L110.933 62.941L113.009 60.958L112.146 57.307Z" stroke="#152A62" stroke-miterlimit="10" stroke-linejoin="round"/>
<path d="M142.672 135.671C141.534 112.951 125.04 105.328 125.04 105.328L119.469 83.608C117.518 77.454 110.917 74.798 106.561 76.704C105.113 77.337 104.278 78.871 104.53 80.43L106.473 88.498C106.531 88.74 106.568 88.986 106.584 89.235L108.174 114.397L100.376 122.921C98.9827 124.642 97.7217 127.88 98.3807 129.994C99.6757 134.146 103.36 143.065 109.314 147.282C115.965 151.993 125.583 153.736 130.157 154.326C131.787 154.536 133.431 154.139 134.786 153.207L159.989 135.673H142.672V135.671Z" fill="#E3E0FD" stroke="#152A62" stroke-miterlimit="10" stroke-linejoin="round"/>
<path d="M187.108 115.016L181.977 118.518C179.707 120.067 176.644 119.721 174.778 117.703C172.786 115.55 172.814 112.219 174.841 110.1L178.379 106.402C181.102 103.122 186.254 103.538 188.417 107.211C189.933 109.786 189.381 113.077 187.108 115.016Z" fill="#E3E0FD" stroke="#152A62" stroke-miterlimit="10" stroke-linejoin="round"/>
<path d="M185.263 102.682L179.892 106.347C177.516 107.969 174.31 107.606 172.356 105.494C170.271 103.241 170.3 99.754 172.422 97.536L176.125 93.665C178.975 90.232 184.368 90.667 186.632 94.512C188.22 97.208 187.642 100.653 185.263 102.682Z" fill="#E3E0FD" stroke="#152A62" stroke-miterlimit="10" stroke-linejoin="round"/>
<path d="M182.954 91.749L177.583 95.414C175.207 97.036 172.001 96.673 170.047 94.561C167.962 92.308 167.991 88.821 170.113 86.603L173.816 82.732C176.666 79.299 182.059 79.734 184.323 83.579C185.91 86.275 185.332 89.72 182.954 91.749Z" fill="#E3E0FD" stroke="#152A62" stroke-miterlimit="10" stroke-linejoin="round"/>
<path d="M142.65 135.793C142.65 135.793 142.65 136.577 142.327 137.913Z" fill="#B49CFB"/>
<path d="M142.65 135.793C142.65 135.793 142.65 136.577 142.327 137.913" stroke="#152A62" stroke-miterlimit="10" stroke-linecap="round" stroke-linejoin="round"/>
<path d="M98.6639 124.008C101.813 121.996 111.854 127.444 121.09 136.176C130.326 144.908 135.26 153.619 132.111 155.631L118.698 166.762C115.549 168.774 105.508 163.326 96.2719 154.594C87.0359 145.861 82.2039 137.197 84.7399 135.074L98.6639 124.008Z" fill="#152A62" stroke="#152A62" stroke-miterlimit="10" stroke-linejoin="round"/>
<path d="M83.4678 134.254C87.9218 133.127 98.6828 138.494 107.441 147.348C116.555 156.564 121.614 163.765 119.984 167.313" stroke="#F5F4F9" stroke-width="0.8" stroke-miterlimit="10" stroke-linecap="round" stroke-linejoin="round"/>
<path d="M159.7 176.413C178.109 176.413 193.033 175.368 193.033 174.08C193.033 172.791 178.109 171.747 159.7 171.747C141.29 171.747 126.367 172.791 126.367 174.08C126.367 175.368 141.29 176.413 159.7 176.413Z" fill="#E3E0FD"/>
<path d="M173.272 14.69L151.048 50.722C149.776 52.925 151.366 55.68 153.91 55.68H198.358C200.902 55.68 202.493 52.926 201.22 50.722L178.997 14.69C177.725 12.486 174.544 12.486 173.272 14.69Z" fill="#152A62" stroke="#152A62" stroke-miterlimit="10" stroke-linejoin="round"/>
<path d="M174.85 14.69L152.626 50.722C151.354 52.925 152.944 55.68 155.488 55.68H199.936C202.48 55.68 204.071 52.926 202.798 50.722L180.575 14.69C179.302 12.486 176.122 12.486 174.85 14.69Z" fill="#FFB7AD" stroke="#152A62" stroke-miterlimit="10" stroke-linejoin="round"/>
<path d="M179.168 40.723H176.256C175.8 40.723 175.424 40.364 175.404 39.908L174.791 26.015C174.77 25.53 175.157 25.125 175.643 25.125H179.78C180.266 25.125 180.653 25.53 180.632 26.015L180.019 39.908C180 40.363 179.625 40.723 179.168 40.723Z" fill="#152A62"/>
<path d="M177.712 48.731C179.19 48.731 180.388 47.5329 180.388 46.055C180.388 44.5771 179.19 43.379 177.712 43.379C176.234 43.379 175.036 44.5771 175.036 46.055C175.036 47.5329 176.234 48.731 177.712 48.731Z" fill="#152A62"/>
<path fill-rule="evenodd" clip-rule="evenodd" d="M152.4 104C152.4 104 167.079 99.2796 164.749 89.6062L159.53 67.9355C159.398 67.3871 158.903 67 158.335 67H129.229C128.435 67 127.85 67.7361 128.034 68.5019L133.117 89.6062C135.447 99.2796 152.4 104 152.4 104ZM151.39 73L155.264 75.9731L150.702 81.9193L158.451 87.8656L156.17 90.8387L148.42 84.8925L143.858 90.8387L139.983 87.8656L144.546 81.9193L136.797 75.9731L139.078 73L146.827 78.9462L151.39 73Z" fill="#B49CFB"/>
<path d="M164.749 89.6062L165.235 89.4891L165.235 89.4891L164.749 89.6062ZM152.4 104L152.266 104.482C152.36 104.508 152.46 104.506 152.553 104.476L152.4 104ZM159.53 67.9355L159.044 68.0523L159.044 68.0526L159.53 67.9355ZM128.034 68.5019L128.52 68.3848L128.52 68.3848L128.034 68.5019ZM133.117 89.6062L133.603 89.4891L133.603 89.4891L133.117 89.6062ZM155.264 75.9731L155.661 76.2775C155.829 76.0584 155.788 75.7445 155.569 75.5764L155.264 75.9731ZM151.39 73L151.694 72.6033C151.589 72.5226 151.456 72.487 151.325 72.5043C151.193 72.5216 151.074 72.5904 150.993 72.6956L151.39 73ZM150.702 81.9193L150.305 81.615C150.224 81.7202 150.189 81.8531 150.206 81.9846C150.223 82.1161 150.292 82.2353 150.397 82.316L150.702 81.9193ZM158.451 87.8656L158.848 88.17C159.016 87.9509 158.975 87.637 158.755 87.4689L158.451 87.8656ZM156.17 90.8387L155.865 91.2354C155.971 91.3161 156.103 91.3517 156.235 91.3344C156.366 91.3171 156.486 91.2483 156.566 91.1431L156.17 90.8387ZM148.42 84.8925L148.725 84.4958C148.62 84.4151 148.487 84.3794 148.355 84.3967C148.224 84.414 148.104 84.4829 148.024 84.5881L148.42 84.8925ZM143.858 90.8387L143.553 91.2354C143.659 91.3161 143.792 91.3517 143.923 91.3344C144.054 91.3171 144.174 91.2483 144.254 91.1431L143.858 90.8387ZM139.983 87.8656L139.586 87.5612C139.418 87.7803 139.46 88.0941 139.679 88.2622L139.983 87.8656ZM144.546 81.9193L144.942 82.2237C145.111 82.0046 145.069 81.6908 144.85 81.5227L144.546 81.9193ZM136.797 75.9731L136.4 75.6687C136.319 75.7739 136.283 75.9069 136.301 76.0384C136.318 76.1699 136.387 76.2891 136.492 76.3698L136.797 75.9731ZM139.078 73L139.382 72.6033C139.163 72.4352 138.849 72.4765 138.681 72.6956L139.078 73ZM146.827 78.9462L146.523 79.3429C146.628 79.4236 146.761 79.4593 146.892 79.442C147.024 79.4246 147.143 79.3558 147.224 79.2506L146.827 78.9462ZM164.263 89.7232C165.353 94.2467 162.494 97.6643 159.16 100.022C157.506 101.192 155.776 102.069 154.455 102.654C153.795 102.946 153.24 103.165 152.852 103.31C152.657 103.382 152.504 103.436 152.401 103.472C152.349 103.49 152.31 103.503 152.284 103.512C152.271 103.516 152.261 103.519 152.255 103.521C152.252 103.522 152.25 103.523 152.248 103.524C152.248 103.524 152.247 103.524 152.247 103.524C152.247 103.524 152.247 103.524 152.247 103.524C152.247 103.524 152.247 103.524 152.4 104C152.553 104.476 152.553 104.476 152.554 104.476C152.554 104.476 152.554 104.476 152.554 104.476C152.555 104.475 152.556 104.475 152.557 104.475C152.559 104.474 152.562 104.473 152.566 104.472C152.574 104.469 152.585 104.465 152.6 104.461C152.629 104.451 152.672 104.436 152.728 104.417C152.838 104.379 152.998 104.322 153.201 104.247C153.606 104.096 154.179 103.87 154.86 103.568C156.218 102.966 158.012 102.059 159.737 100.839C163.16 98.4184 166.476 94.6391 165.235 89.4891L164.263 89.7232ZM159.044 68.0526L164.263 89.7232L165.235 89.4891L160.016 67.8184L159.044 68.0526ZM158.335 67.5C158.675 67.5 158.967 67.7315 159.044 68.0523L160.016 67.8187C159.83 67.0427 159.131 66.5 158.335 66.5V67.5ZM129.229 67.5H158.335V66.5H129.229V67.5ZM128.52 68.3848C128.413 67.9386 128.753 67.5 129.229 67.5V66.5C128.117 66.5 127.287 67.5336 127.548 68.619L128.52 68.3848ZM133.603 89.4891L128.52 68.3848L127.548 68.619L132.631 89.7232L133.603 89.4891ZM152.4 104C152.534 103.518 152.534 103.518 152.534 103.518C152.534 103.518 152.534 103.518 152.534 103.518C152.534 103.518 152.533 103.518 152.532 103.518C152.53 103.517 152.528 103.516 152.524 103.515C152.516 103.513 152.505 103.51 152.489 103.506C152.458 103.497 152.412 103.483 152.351 103.465C152.229 103.429 152.049 103.375 151.818 103.302C151.356 103.155 150.691 102.936 149.886 102.642C148.275 102.053 146.105 101.17 143.866 99.9884C141.624 98.806 139.329 97.3335 137.456 95.572C135.582 93.8095 134.155 91.7815 133.603 89.4891L132.631 89.7232C133.244 92.2676 134.811 94.4571 136.771 96.3004C138.732 98.1447 141.111 99.6659 143.399 100.873C145.689 102.081 147.903 102.982 149.543 103.581C150.364 103.881 151.042 104.105 151.516 104.255C151.753 104.33 151.94 104.386 152.067 104.424C152.131 104.443 152.18 104.457 152.213 104.467C152.23 104.472 152.243 104.475 152.252 104.478C152.256 104.479 152.26 104.48 152.262 104.481C152.263 104.481 152.264 104.481 152.265 104.481C152.265 104.481 152.265 104.482 152.266 104.482C152.266 104.482 152.266 104.482 152.4 104ZM155.569 75.5764L151.694 72.6033L151.085 73.3967L154.96 76.3698L155.569 75.5764ZM151.098 82.2237L155.661 76.2775L154.868 75.6687L150.305 81.615L151.098 82.2237ZM158.755 87.4689L151.006 81.5227L150.397 82.316L158.147 88.2622L158.755 87.4689ZM156.566 91.1431L158.848 88.17L158.054 87.5612L155.773 90.5343L156.566 91.1431ZM148.116 85.2891L155.865 91.2354L156.474 90.442L148.725 84.4958L148.116 85.2891ZM144.254 91.1431L148.817 85.1968L148.024 84.5881L143.461 90.5343L144.254 91.1431ZM139.679 88.2622L143.553 91.2354L144.162 90.442L140.287 87.4689L139.679 88.2622ZM144.149 81.615L139.586 87.5612L140.38 88.17L144.942 82.2237L144.149 81.615ZM136.492 76.3698L144.241 82.316L144.85 81.5227L137.101 75.5764L136.492 76.3698ZM138.681 72.6956L136.4 75.6687L137.193 76.2775L139.475 73.3044L138.681 72.6956ZM147.132 78.5496L139.382 72.6033L138.773 73.3967L146.523 79.3429L147.132 78.5496ZM150.993 72.6956L146.43 78.6418L147.224 79.2506L151.787 73.3044L150.993 72.6956Z" fill="#152A62"/>
</svg>
