<svg enable-background="new 0 0 300 300" viewBox="0 0 300 300" xmlns="http://www.w3.org/2000/svg"><path d="m214.506 199.013h-129.012c-10.972 0-19.867-8.895-19.867-19.867v-64.215c0-10.972 8.895-19.867 19.867-19.867h129.012c10.972 0 19.867 8.895 19.867 19.867v64.215c0 10.972-8.895 19.867-19.867 19.867z" fill="#e3e0fd"/><ellipse cx="151.751" cy="210.678" fill="#e3e0fd" rx="77.944" ry="3.189"/><g stroke="#152a62" stroke-linejoin="round" stroke-miterlimit="10"><path d="m80.852 210.431h11.741l23.087-84.531c.26-.951-.374-1.823-1.326-1.823h-8.633c-.743 0-1.432.541-1.635 1.284z" fill="#152a62" stroke-linecap="round"/><path d="m196.854 163.282h-108.159c-1.061 0-2.046.772-2.336 1.833l-5.725 20.877c-.373 1.36.533 2.607 1.894 2.607h108.159c1.061 0 2.046-.772 2.336-1.833l5.725-20.877c.373-1.36-.533-2.607-1.894-2.607z" fill="#152a62" stroke-linecap="round"/><path d="m160.199 210.431h11.741l22.919-83.917c.347-1.271-.5-2.436-1.772-2.436h-7.587c-.993 0-1.915.724-2.186 1.716z" fill="#152a62" stroke-linecap="round"/><path d="m140.992 210.251h-11.741l-24.089-84.192c-.284-.991.451-1.981 1.47-1.981h8.554c.681 0 1.28.456 1.47 1.119z" fill="#fff" stroke-linecap="round"/><path d="m220.39 210.251h-11.741l-23.898-83.525c-.379-1.325.603-2.649 1.965-2.649h7.481c.911 0 1.712.61 1.965 1.495z" fill="#fff" stroke-linecap="round"/><path d="m201.6 127.585h-104.172c-1.065 0-2.053.779-2.339 1.844l-5.632 20.938c-.365 1.357.541 2.596 1.897 2.596h106.14c1.065 0 2.053-.779 2.339-1.844l5.103-18.97c.641-2.384-.952-4.564-3.336-4.564z" fill="#152a62" stroke-linecap="round"/><path d="m98.147 127.59h103.576l7.498 25.369h-104.973c-1.031 0-1.941-.686-2.236-1.686l-6.101-20.641c-.449-1.517.673-3.042 2.236-3.042z" fill="#e3e0fd"/><path d="m100.192 127.59h102.381c.917 0 1.724.609 1.987 1.498l6.256 21.168c.398 1.348-.598 2.703-1.987 2.703h-102.381c-.917 0-1.724-.609-1.987-1.498l-6.256-21.168c-.399-1.348.598-2.703 1.987-2.703z" fill="#fff" stroke-linecap="round"/><path d="m102.591 127.59h-2.4c-1.389 0-2.385 1.355-1.987 2.703l6.256 21.168c.263.889 1.071 1.498 1.987 1.498h21.017z" fill="#ffb7ad" stroke-linecap="round"/><path d="m144.913 127.59h-21.768l24.872 25.369h21.768z" fill="#ffb7ad" stroke-linecap="round"/><path d="m210.764 151.589-23.53-23.999h-21.768l24.872 25.369h18.49c.912 0 1.645-.587 1.936-1.37z" fill="#ffb7ad" stroke-linecap="round"/><path d="m107.868 163.255h103.576l7.498 25.369h-104.973c-1.031 0-1.941-.686-2.236-1.686l-6.101-20.641c-.448-1.516.673-3.042 2.236-3.042z" fill="#e3e0fd"/><path d="m109.913 163.255h102.381c.917 0 1.724.609 1.987 1.498l6.256 21.168c.398 1.348-.598 2.703-1.987 2.703h-102.381c-.917 0-1.724-.609-1.987-1.498l-6.256-21.168c-.399-1.347.598-2.703 1.987-2.703z" fill="#fff" stroke-linecap="round"/><path d="m112.312 163.256h-2.4c-1.389 0-2.385 1.355-1.987 2.703l6.256 21.168c.263.889 1.071 1.498 1.987 1.498h21.017z" fill="#ffb7ad" stroke-linecap="round"/><path d="m154.634 163.256h-21.768l24.872 25.368h21.768z" fill="#ffb7ad" stroke-linecap="round"/><path d="m220.485 187.255-23.53-23.999h-21.768l24.872 25.369h18.49c.912-.001 1.645-.588 1.936-1.37z" fill="#ffb7ad" stroke-linecap="round"/></g></svg>