<svg width="300" height="214" viewBox="0 0 300 214" fill="none" xmlns="http://www.w3.org/2000/svg">
<path d="M214.506 156.013H85.494C74.522 156.013 65.627 147.118 65.627 136.146V71.931C65.627 60.959 74.522 52.064 85.494 52.064H214.506C225.478 52.064 234.373 60.959 234.373 71.931V136.146C234.373 147.118 225.478 156.013 214.506 156.013Z" fill="#E3E0FD"/>
<path d="M145.086 92.4402C145.086 92.4402 179.152 69.6482 181.447 68.1192C183.546 66.7202 187.025 65.7932 188.584 67.4542C191.243 70.2882 190.088 74.9412 186.975 78.1942C184.905 80.3572 148.939 113.626 148.939 113.626" fill="#E3E0FD"/>
<path d="M145.086 92.4402C145.086 92.4402 179.152 69.6482 181.447 68.1192C183.546 66.7202 187.025 65.7932 188.584 67.4542C191.243 70.2882 190.088 74.9412 186.975 78.1942C184.905 80.3572 148.939 113.626 148.939 113.626" stroke="#152A62" stroke-miterlimit="10" stroke-linejoin="round"/>
<path d="M181.333 136.109L180.05 134.433L179.644 134.635C179.653 133.871 179.575 133.078 179.378 132.258L161.034 55.9962C159.588 49.9842 154.321 45.1112 148.073 45.1112H115.216C114.791 45.1112 114.379 45.1382 113.977 45.1822L112.797 43.4192L108.279 47.9372C108.277 47.9392 108.275 47.9412 108.273 47.9432L108.18 48.0362L108.182 48.0442C106.22 50.0412 105.38 53.0132 106.18 56.3392L124.524 132.601C125.862 138.164 131.633 142.673 137.414 142.673H170.991C173.665 142.673 175.863 141.7 177.332 140.112L181.333 136.109Z" fill="#E3E0FD" stroke="#152A62" stroke-miterlimit="10" stroke-linejoin="round"/>
<path d="M129.887 140.144C132.11 141.713 134.758 142.672 137.414 142.672H170.991C173.665 142.672 175.863 141.699 177.332 140.111L181.334 136.109L180.051 134.433L179.645 134.635C179.654 133.885 179.577 133.107 179.388 132.303L135.599 134.433L129.887 140.144Z" fill="#F5F4F9" stroke="#152A62" stroke-miterlimit="10" stroke-linejoin="round"/>
<path d="M175.464 138.199H141.887C136.106 138.199 130.335 133.69 128.997 128.127L110.653 51.8652C109.207 45.8532 113.099 40.9802 119.347 40.9802H151.234C157.482 40.9802 163.719 45.8532 165.165 51.8652L183.509 128.127C184.847 133.69 181.245 138.199 175.464 138.199Z" fill="#152A62" stroke="#152A62" stroke-miterlimit="10" stroke-linejoin="round"/>
<path d="M140.98 135.006C137.118 135.006 133.248 131.98 132.353 128.261L114.009 51.9991C113.514 49.9401 113.885 47.9891 115.054 46.5051C116.239 45.0001 118.085 44.1721 120.253 44.1721H124.418C125.718 44.1721 126.973 45.1541 127.274 46.4081C127.691 48.1401 129.543 49.4971 131.491 49.4971H143.559C144.474 49.4971 145.219 49.1921 145.655 48.6381C146.055 48.1301 146.168 47.4521 145.981 46.6761C145.827 46.0361 145.952 45.3971 146.324 44.9241C146.701 44.4461 147.301 44.1721 147.972 44.1721H152.138C156.467 44.1721 160.804 47.5621 161.807 51.7291L180.151 127.991C180.595 129.835 180.261 131.583 179.213 132.914C178.15 134.263 176.497 135.005 174.557 135.005L140.98 135.006Z" fill="white" stroke="#152A62" stroke-miterlimit="10" stroke-linejoin="round"/>
<path d="M110.676 58.3081L108.6 60.2901L109.463 63.9411L111.539 61.9581L110.676 58.3081Z" stroke="#152A62" stroke-miterlimit="10" stroke-linejoin="round"/>
<path d="M112.146 64.3071L110.07 66.2901L110.933 69.9411L113.009 67.9581L112.146 64.3071Z" stroke="#152A62" stroke-miterlimit="10" stroke-linejoin="round"/>
<path d="M142.672 142.671C141.534 119.951 125.04 112.328 125.04 112.328L119.469 90.6082C117.518 84.4542 110.917 81.7982 106.561 83.7042C105.113 84.3372 104.278 85.8712 104.53 87.4302L106.473 95.4982C106.531 95.7402 106.568 95.9862 106.584 96.2352L108.174 121.397L100.376 129.921C98.9831 131.642 97.7221 134.88 98.3811 136.994C99.6761 141.146 103.36 150.065 109.314 154.282C115.965 158.993 125.583 160.736 130.157 161.326C131.787 161.536 133.431 161.139 134.786 160.207L159.989 142.673H142.672V142.671Z" fill="#E3E0FD" stroke="#152A62" stroke-miterlimit="10" stroke-linejoin="round"/>
<path d="M187.109 122.016L181.978 125.518C179.708 127.067 176.645 126.721 174.779 124.703C172.787 122.55 172.815 119.219 174.842 117.1L178.38 113.402C181.103 110.122 186.255 110.538 188.418 114.211C189.934 116.786 189.382 120.077 187.109 122.016Z" fill="#E3E0FD" stroke="#152A62" stroke-miterlimit="10" stroke-linejoin="round"/>
<path d="M185.264 109.682L179.893 113.347C177.517 114.969 174.311 114.606 172.357 112.494C170.272 110.241 170.301 106.754 172.423 104.536L176.126 100.665C178.976 97.2323 184.369 97.6673 186.633 101.512C188.221 104.208 187.643 107.653 185.264 109.682Z" fill="#E3E0FD" stroke="#152A62" stroke-miterlimit="10" stroke-linejoin="round"/>
<path d="M182.956 98.7492L177.585 102.414C175.209 104.036 172.003 103.673 170.049 101.561C167.964 99.3082 167.993 95.8212 170.115 93.6032L173.818 89.7322C176.668 86.2992 182.061 86.7342 184.325 90.5792C185.912 93.2752 185.334 96.7202 182.956 98.7492Z" fill="#E3E0FD" stroke="#152A62" stroke-miterlimit="10" stroke-linejoin="round"/>
<path d="M142.651 142.793C142.651 142.793 142.651 143.577 142.328 144.913L142.651 142.793Z" fill="#B49CFB"/>
<path d="M142.651 142.793C142.651 142.793 142.651 143.577 142.328 144.913" stroke="#152A62" stroke-miterlimit="10" stroke-linecap="round" stroke-linejoin="round"/>
<path d="M98.6649 131.008C101.814 128.996 111.855 134.444 121.091 143.176C130.327 151.908 135.261 160.619 132.112 162.631L118.699 173.762C115.55 175.774 105.509 170.326 96.2729 161.594C87.0369 152.861 82.2049 144.197 84.7409 142.074L98.6649 131.008Z" fill="#152A62" stroke="#152A62" stroke-miterlimit="10" stroke-linejoin="round"/>
<path d="M83.4688 141.254C87.9227 140.127 98.6837 145.494 107.442 154.348C116.556 163.564 121.615 170.765 119.985 174.313" stroke="#F5F4F9" stroke-width="0.8" stroke-miterlimit="10" stroke-linecap="round" stroke-linejoin="round"/>
<path d="M159.7 183.413C178.109 183.413 193.033 182.369 193.033 181.08C193.033 179.792 178.109 178.747 159.7 178.747C141.291 178.747 126.367 179.792 126.367 181.08C126.367 182.369 141.291 183.413 159.7 183.413Z" fill="#E3E0FD"/>
<path d="M173.273 21.6901L151.049 57.7221C149.777 59.9251 151.367 62.6801 153.911 62.6801H198.359C200.903 62.6801 202.494 59.9261 201.221 57.7221L178.998 21.6901C177.726 19.4861 174.545 19.4861 173.273 21.6901Z" fill="#152A62" stroke="#152A62" stroke-miterlimit="10" stroke-linejoin="round"/>
<path d="M174.851 21.6901L152.627 57.7221C151.355 59.9251 152.945 62.6801 155.489 62.6801H199.937C202.481 62.6801 204.072 59.9261 202.799 57.7221L180.576 21.6901C179.303 19.4861 176.123 19.4861 174.851 21.6901Z" fill="#FFB7AD" stroke="#152A62" stroke-miterlimit="10" stroke-linejoin="round"/>
<path d="M179.169 47.723H176.257C175.801 47.723 175.425 47.364 175.405 46.908L174.792 33.015C174.771 32.53 175.158 32.125 175.644 32.125H179.781C180.267 32.125 180.654 32.53 180.633 33.015L180.02 46.908C180.001 47.363 179.626 47.723 179.169 47.723Z" fill="#152A62"/>
<path d="M177.713 55.7309C179.191 55.7309 180.389 54.5328 180.389 53.0549C180.389 51.577 179.191 50.3789 177.713 50.3789C176.235 50.3789 175.037 51.577 175.037 53.0549C175.037 54.5328 176.235 55.7309 177.713 55.7309Z" fill="#152A62"/>
<path d="M150.477 87.4023L155.639 91.4355C155.829 90.1838 155.773 88.8105 155.418 87.385C155.062 85.9594 154.442 84.6208 153.646 83.3691L150.477 87.4023ZM157.658 78.1886L155.946 80.379C157.6 82.4825 158.816 84.8468 159.445 87.3676C160.073 89.8883 160.022 92.27 159.431 94.3561L162.101 96.4423C163.214 93.6803 163.372 90.4794 162.559 87.2111C161.722 83.9254 159.983 80.831 157.658 78.1886ZM151.247 79.927L138.542 70.0005H136.75L140.04 83.1953L129.827 75.2158L127.911 77.667L140.35 87.385L132.757 97.1029L135.895 99.5541L142.129 91.5746L145.419 104.769H147.211L154.966 94.8429L145.402 87.385L151.247 79.927ZM141.993 76.6587L146.177 79.927L143.623 83.1953L141.993 76.6587ZM149.896 94.8429L147.342 98.1112L145.712 91.5746L149.896 94.8429Z" fill="#B49CFB" stroke="#152A62" stroke-miterlimit="10" stroke-linejoin="round"/>
</svg>
