<svg enable-background="new 0 0 300 300" viewBox="0 0 300 300" xmlns="http://www.w3.org/2000/svg"><path d="m214.506 95.064h-129.012c-10.972 0-19.867 8.895-19.867 19.867v4.514c.972-.608 2.118-.966 3.35-.966 2.399 0 4.488 1.335 5.567 3.3.963-4.1 4.643-7.143 9.038-7.143 4.459 0 8.185 3.135 9.093 7.319.106.487-.265.95-.763.95h-16.887-.683-8.715v56.241c0 10.972 8.895 19.867 19.867 19.867h129.012c10.972 0 19.867-8.895 19.867-19.867v-64.215c0-10.972-8.895-19.867-19.867-19.867z" fill="#e3e0fd"/><g stroke="#152a62" stroke-linejoin="round" stroke-miterlimit="10"><path d="m146.955 213.563v-53.294h8.573v53.294" fill="#f5f4f9" stroke-linecap="round"/><path d="m146.957 166.261 8.59 1.6.02-3.373h-8.579z" fill="#152a62" stroke-linecap="round"/><path d="m195.334 155.98-41.204-71.367c-.485-.84-1.145-1.476-1.891-1.922l.035-.765h-2.775c-.016 0-.033 0-.049 0h-.072l.002.004c-1.779.031-3.545.922-4.561 2.682l-41.204 71.367c-2.069 3.584.517 8.065 4.656 8.065h82.408c4.137.001 6.724-4.48 4.655-8.064z" fill="#152a62" stroke-linecap="round"/><path d="m147.617 84.613-41.204 71.367c-2.069 3.584.517 8.065 4.656 8.065h82.408c4.139 0 6.726-4.48 4.656-8.065l-41.203-71.367c-2.07-3.585-7.243-3.585-9.313 0z" fill="#ffb7ad" stroke-linecap="round"/><path d="m116.067 155.783 36.207-62.711 36.206 62.711z" fill="#fcfcfc"/></g><path d="m154.229 136.88h-4.434c-.695 0-1.267-.547-1.297-1.241l-.933-21.155c-.033-.739.558-1.356 1.297-1.356h6.3c.74 0 1.33.617 1.297 1.356l-.933 21.155c-.031.694-.602 1.241-1.297 1.241z" fill="#152a62"/><circle cx="152.012" cy="145" fill="#152a62" r="4.075"/><path d="m202.584 178.473h-9.704c-.534 0-.859-.577-.599-1.043.962-1.724 2.806-2.893 4.923-2.893 2.134 0 3.992 1.188 4.952 2.935.172.317.317.649.428 1.001z" fill="#f5f4f9"/><path d="m218.282 177.628c.094.433-.236.845-.679.845h-15.627c.041-.338.097-.677.18-1.001.856-3.646 4.13-6.354 8.039-6.354 3.965 0 7.279 2.788 8.087 6.51z" fill="#f5f4f9"/></svg>