<svg enable-background="new 0 0 300 300" viewBox="0 0 300 300" xmlns="http://www.w3.org/2000/svg"><path d="m214.506 199.013h-129.012c-10.972 0-19.867-8.895-19.867-19.867v-64.215c0-10.972 8.895-19.867 19.867-19.867h129.012c10.972 0 19.867 8.895 19.867 19.867v64.215c0 10.972-8.895 19.867-19.867 19.867z" fill="#e3e0fd"/><path d="m120.832 137.014v-19.763c0-14.332 11.659-25.991 25.989-25.991s25.989 11.659 25.989 25.991v19.298h-9.629v-19.298c0-9.022-7.339-16.362-16.361-16.362s-16.361 7.341-16.361 16.362v19.763z" fill="#fff" stroke="#152a62" stroke-linejoin="round" stroke-miterlimit="10"/><path d="m180.18 191.489v-47.013c0-4.678-3.792-8.471-8.471-8.471h-53.901l.483-3.215-7.692 4.099c-.165.082-.327.167-.486.259l-.137.073.002.009c-2.454 1.483-4.104 4.168-4.104 7.247v50.547c0 4.68 3.802 8.471 8.47 8.471h56.627c2.113 0 4.188-.534 6.037-1.557 2.721-1.505 6.434-3.559 6.436-3.56z" fill="#152a62" stroke="#152a62" stroke-linejoin="round" stroke-miterlimit="10"/><path d="m119.042 136.005h-1.234l.483-3.215-7.692 4.099c-.165.082-.327.167-.486.259l-.137.073.002.009c-2.454 1.483-4.104 4.168-4.104 7.247v50.547c0 1.847.598 3.549 1.602 4.941l10.547-6.397z" fill="#fff" stroke="#152a62" stroke-linejoin="round" stroke-miterlimit="10"/><path d="m188.229 140.2v50.547c0 4.68-3.79 8.471-8.47 8.471h-57.365c-4.668 0-8.47-3.79-8.47-8.471v-50.547c0-4.68 3.802-8.471 8.47-8.471h57.365c4.68 0 8.47 3.79 8.47 8.471z" fill="#b49cfb" stroke="#152a62" stroke-linejoin="round" stroke-miterlimit="10"/><path d="m180.457 132.623c-.155.963-.257 1.943-.257 2.95 0 6.331 3.181 11.915 8.028 15.255v-9.769c.001-4.445-3.419-8.08-7.771-8.436z" fill="#152a62" stroke="#152a62" stroke-linejoin="round" stroke-miterlimit="10"/><path d="m162.575 157.932c0-5.838-5.082-10.489-11.063-9.77-4.245.51-7.793 3.882-8.487 8.101-.774 4.708 1.798 8.92 5.712 10.661v13.007c0 .737.597 1.334 1.334 1.334h5.321c.737 0 1.334-.597 1.334-1.334v-13.007c3.444-1.533 5.849-4.978 5.849-8.992z" fill="#152a62" stroke="#152a62" stroke-linejoin="round" stroke-miterlimit="10"/><path d="m151.512 148.162c-.192.023-.381.058-.57.093 4.599.828 8.092 4.84 8.092 9.677 0 4.013-2.405 7.459-5.849 8.992v13.007c0 .737-.597 1.334-1.334 1.334h3.541c.737 0 1.334-.597 1.334-1.334v-13.007c3.444-1.533 5.849-4.979 5.849-8.992 0-5.837-5.082-10.488-11.063-9.77z" fill="#89c8ff" stroke="#152a62" stroke-linejoin="round" stroke-miterlimit="10"/><path d="m156.725 166.924h-3.541" fill="#89c8ff" stroke="#152a62" stroke-linejoin="round" stroke-miterlimit="10"/><ellipse cx="148.431" cy="218.219" fill="#e3e0fd" rx="36.879" ry="3.02"/><path d="m164.819 166.318 5.619 6.592h4.952l5.225-5.367 4.988 5.654 4.434-5.515 4.157 5.229h14.607c2.568 6.048 8.562 10.29 15.546 10.29 9.325 0 16.883-7.559 16.883-16.883s-7.559-16.883-16.883-16.883c-6.984 0-12.978 4.242-15.546 10.291h-38.365zm53.208 0c0-3.492 2.83-6.322 6.322-6.322s6.322 2.831 6.322 6.322c0 3.492-2.831 6.322-6.322 6.322-3.492 0-6.322-2.831-6.322-6.322z" fill="#f5f4f9"/><g fill="#152a62"><path d="m165.481 167.604c-.144 0-.287-.061-.388-.179l-.661-.776c-.162-.19-.162-.471 0-.661l.661-.776c.184-.214.506-.24.719-.058.214.183.24.505.058.719l-.379.445.379.445c.182.214.156.536-.058.719-.096.082-.214.122-.331.122z"/><path d="m168.165 170.754c-.144 0-.287-.061-.388-.179l-1.074-1.26c-.182-.214-.156-.536.058-.719.213-.181.535-.157.719.058l1.074 1.26c.182.214.156.536-.058.719-.096.081-.214.121-.331.121z"/><path d="m171.458 173.421h-1.02c-.149 0-.291-.066-.388-.179l-.662-.777c-.182-.214-.156-.536.058-.719.213-.182.535-.157.719.058l.509.598h.785c.282 0 .51.228.51.51s-.229.509-.511.509z"/><path d="m175.39 173.421h-1.02c-.282 0-.51-.228-.51-.51s.228-.51.51-.51h.805l.562-.577c.198-.201.521-.205.721-.01.202.197.206.52.01.721l-.712.731c-.097.099-.229.155-.366.155z"/><path d="m177.671 171.092c-.128 0-.257-.048-.356-.144-.202-.197-.206-.52-.01-.721l.789-.81c.199-.202.522-.206.721-.01.202.197.206.52.01.721l-.789.81c-.1.102-.233.154-.365.154z"/><path d="m181.291 168.818c-.141 0-.282-.059-.382-.172l-.311-.353-.328.337c-.197.203-.52.207-.721.01-.202-.197-.206-.52-.01-.721l.712-.731c.1-.102.208-.133.378-.154.141.004.276.066.369.172l.674.765c.186.212.166.534-.045.72-.096.085-.217.127-.336.127z"/><path d="m185.604 173.706c-.146 0-.286-.063-.382-.172l-.674-.765c-.186-.212-.166-.534.045-.72.213-.187.535-.164.72.045l.274.311.26-.323c.177-.22.497-.254.717-.078.219.176.254.498.078.717l-.639.795c-.095.118-.235.186-.385.19-.006 0-.01 0-.014 0z"/><path d="m183.425 171.337c.128.005.259-.037.361-.13.21-.189.227-.511.04-.72l-.755-.842c-.191-.21-.513-.227-.72-.04-.21.189-.227.511-.04.72l.755.842c.097.108.227.165.359.17z"/><path d="m187.426 171.44c-.113 0-.225-.037-.32-.113-.219-.177-.254-.498-.078-.717l.79-.981c.177-.22.497-.253.717-.078.219.177.254.498.078.717l-.79.981c-.1.126-.248.191-.397.191z"/><path d="m190.673 168.99c-.149 0-.299-.066-.399-.193l-.238-.299-.239.298c-.176.221-.498.253-.717.078-.219-.176-.254-.498-.078-.717l.639-.795c.097-.12.215-.229.399-.19.154 0 .301.072.397.193l.634.799c.175.22.138.541-.083.716-.092.074-.204.11-.315.11z"/><path d="m192.414 171.143c-.149 0-.299-.066-.399-.192l-.566-.673c-.175-.221-.138-.542.082-.717.222-.174.542-.138.717.082l.566.673c.175.221.138.542-.082.717-.095.074-.206.11-.318.11z"/><path d="m195.215 173.421h-1.02c-.155 0-.303-.071-.399-.193l-.634-.799c-.175-.22-.138-.541.083-.716.22-.174.541-.139.716.083l.481.605h.774c.282 0 .51.228.51.51s-.229.51-.511.51z"/><path d="m204.882 173.421h-1.933c-.282 0-.51-.228-.51-.51s.228-.51.51-.51h1.933c.282 0 .51.228.51.51s-.228.51-.51.51zm-4.834 0h-1.933c-.282 0-.51-.228-.51-.51s.228-.51.51-.51h1.933c.282 0 .51.228.51.51s-.228.51-.51.51z"/><path d="m209.228 174.343c-.186 0-.366-.103-.456-.281-.106-.211-.206-.425-.303-.641h-.686c-.282 0-.51-.228-.51-.51s.228-.51.51-.51h1.02c.204 0 .389.122.469.311.128.302.265.601.412.892.125.252.024.559-.227.685-.073.037-.151.054-.229.054z"/><path d="m224.349 183.711-.241-.001c-.282-.004-.508-.235-.504-.516.003-.282.201-.479.516-.504l.222.001c.595 0 1.187-.032 1.77-.094.258-.032.531.172.561.453.03.28-.172.531-.453.561-.618.066-1.248.1-1.871.1zm-3.297-.323c-.033 0-.067-.003-.1-.01-.688-.135-1.376-.317-2.048-.538-.267-.088-.412-.376-.324-.644.088-.267.373-.414.644-.324.629.208 1.278.378 1.924.506.276.054.456.323.401.599-.046.243-.259.411-.497.411zm8.131-.379c-.22 0-.422-.143-.489-.364-.08-.27.074-.554.344-.634.632-.188 1.262-.419 1.87-.685.258-.11.559.004.671.263.113.258-.005.559-.263.671-.646.283-1.315.528-1.988.729-.048.013-.097.02-.145.02zm-12.941-1.369c-.083 0-.167-.02-.244-.063-.613-.335-1.216-.714-1.792-1.128-.229-.165-.281-.484-.117-.712.165-.229.485-.281.712-.117.542.39 1.108.748 1.684 1.063.248.134.339.444.203.691-.091.17-.266.266-.446.266zm17.567-.826c-.163 0-.324-.079-.422-.224-.157-.233-.097-.55.136-.708.552-.373 1.083-.783 1.578-1.216.211-.184.535-.164.72.049.185.212.163.535-.049.72-.528.46-1.092.894-1.678 1.292-.087.058-.187.087-.285.087zm-21.631-2.287c-.133 0-.268-.053-.367-.156-.488-.507-.949-1.05-1.371-1.611-.169-.226-.124-.545.101-.714.226-.17.546-.122.714.101.398.53.833 1.041 1.292 1.518.195.203.189.526-.014.721-.1.095-.228.141-.355.141zm25.386-1.192c-.112 0-.224-.036-.318-.112-.22-.175-.257-.496-.081-.716.413-.519.798-1.068 1.143-1.63.146-.241.46-.317.701-.167.24.146.315.461.167.701-.366.598-.775 1.18-1.215 1.732-.099.127-.248.192-.397.192zm2.544-4.438c-.061 0-.123-.011-.183-.034-.263-.102-.393-.396-.293-.659.238-.616.44-1.256.601-1.898.068-.274.341-.437.618-.371.274.069.439.346.371.618-.171.683-.385 1.362-.638 2.018-.079.201-.272.326-.476.326zm1.091-5.001c-.01 0-.021 0-.032-.001-.281-.017-.495-.259-.477-.541.021-.343.032-.689.032-1.037 0-.321-.01-.639-.028-.955-.017-.282.198-.523.479-.539.269-.038.522.197.539.479.02.336.03.674.03 1.015 0 .369-.011.736-.034 1.1-.017.271-.241.479-.509.479zm-.451-5.098c-.23 0-.438-.155-.495-.388-.158-.646-.358-1.287-.593-1.903-.1-.263.033-.558.296-.658.261-.097.558.033.658.296.249.656.461 1.336.628 2.023.068.274-.101.55-.373.616-.04.009-.081.014-.121.014zm-1.962-4.728c-.171 0-.34-.088-.436-.245-.345-.569-.727-1.118-1.136-1.636-.174-.22-.136-.541.085-.716.22-.172.541-.137.716.085.434.55.841 1.134 1.208 1.738.145.241.07.555-.171.701-.084.049-.175.073-.266.073zm-27.89-1.442c-.108 0-.216-.034-.308-.104-.225-.17-.269-.49-.099-.714.423-.56.887-1.099 1.379-1.605.196-.201.519-.206.721-.01s.206.519.01.721c-.462.476-.899.984-1.298 1.51-.099.132-.251.202-.405.202zm24.6-2.481c-.12 0-.24-.042-.337-.127-.497-.437-1.026-.847-1.572-1.221-.233-.159-.292-.477-.133-.709.161-.232.48-.29.709-.133.58.397 1.141.834 1.669 1.299.212.185.232.508.046.719-.101.113-.241.172-.382.172zm-20.925-1.083c-.159 0-.316-.075-.415-.214-.163-.229-.11-.548.12-.711.575-.409 1.179-.786 1.796-1.12.248-.133.556-.043.691.205.134.248.043.557-.205.691-.581.315-1.149.669-1.69 1.055-.091.063-.194.094-.297.094zm16.615-1.678c-.07 0-.139-.014-.206-.044-.608-.27-1.237-.503-1.867-.694-.269-.082-.421-.366-.34-.636.082-.269.366-.419.636-.34.669.203 1.336.451 1.983.738.258.114.374.415.26.672-.084.191-.27.304-.466.304zm-12.042-.625c-.215 0-.415-.137-.485-.353-.087-.268.06-.556.328-.642.669-.216 1.358-.393 2.05-.527.281-.054.545.127.598.404s-.128.544-.404.598c-.65.124-1.3.292-1.928.495-.054.017-.107.025-.159.025zm7.105-.711c-.019 0-.039-.001-.058-.003-.607-.068-1.228-.103-1.842-.103l-.142.001c-.325-.011-.514-.219-.52-.5-.005-.282.218-.514.5-.52l.162-.001c.652 0 1.311.037 1.956.109.28.032.481.284.45.564-.029.261-.25.453-.506.453z"/><path d="m208.803 160.235h-1.02c-.282 0-.51-.228-.51-.51s.228-.51.51-.51h.686c.097-.216.197-.43.303-.641.126-.253.433-.353.685-.227.251.126.353.433.227.685-.147.292-.284.591-.412.892-.08.188-.265.311-.469.311z"/><path d="m204.915 160.235h-1.912c-.282 0-.51-.228-.51-.51s.228-.51.51-.51h1.912c.282 0 .51.228.51.51s-.228.51-.51.51zm-4.779 0h-1.912c-.282 0-.51-.228-.51-.51s.228-.51.51-.51h1.912c.282 0 .51.228.51.51s-.228.51-.51.51zm-4.781 0h-1.911c-.282 0-.51-.228-.51-.51s.228-.51.51-.51h1.911c.282 0 .51.228.51.51s-.228.51-.51.51zm-4.779 0h-1.912c-.282 0-.51-.228-.51-.51s.228-.51.51-.51h1.912c.282 0 .51.228.51.51s-.228.51-.51.51zm-4.779 0h-1.912c-.282 0-.51-.228-.51-.51s.228-.51.51-.51h1.912c.282 0 .51.228.51.51s-.228.51-.51.51zm-4.78 0h-1.912c-.282 0-.51-.228-.51-.51s.228-.51.51-.51h1.912c.282 0 .51.228.51.51s-.228.51-.51.51zm-4.78 0h-1.912c-.282 0-.51-.228-.51-.51s.228-.51.51-.51h1.912c.282 0 .51.228.51.51s-.228.51-.51.51z"/><path d="m169.776 161.012c-.118 0-.235-.04-.331-.121-.214-.183-.24-.505-.058-.719l.662-.777c.098-.114.239-.179.388-.179h1.02c.282 0 .51.228.51.51s-.228.51-.51.51h-.785l-.509.598c-.1.117-.242.178-.387.178z"/><path d="m167.092 164.161c-.118 0-.235-.04-.331-.122-.214-.183-.24-.505-.058-.719l1.074-1.26c.184-.215.506-.24.719-.058.214.183.24.505.058.719l-1.074 1.26c-.101.119-.243.18-.388.18z"/><path d="m224.369 173.149c-.722 0-1.409-.105-2.069-.311-.269-.085-.418-.37-.335-.639.084-.268.365-.421.639-.335.563.176 1.15.266 1.745.266.282 0 .539.228.539.51 0 .281-.2.509-.482.509v-.51l-.03.51c-.003 0-.005 0-.007 0zm2.896-.708c-.183 0-.362-.1-.452-.274-.13-.25-.034-.558.216-.688.542-.283 1.033-.645 1.46-1.08.198-.202.523-.202.721-.006.201.198.203.521.006.721-.503.51-1.08.937-1.715 1.269-.076.039-.157.058-.236.058zm-7.34-1.097c-.128 0-.258-.049-.357-.145-.514-.503-.943-1.08-1.275-1.712-.13-.25-.034-.558.215-.689.25-.128.558-.034.689.215.282.539.646 1.029 1.084 1.457.201.197.205.52.008.721-.099.102-.232.153-.364.153zm10.451-2.601c-.051 0-.104-.008-.154-.024-.269-.086-.417-.372-.332-.64.18-.568.272-1.16.272-1.761 0-.282.228-.529.509-.529.282 0 .51.21.51.492h-.51l.51.009c.001.734-.107 1.43-.319 2.097-.069.217-.27.356-.486.356zm-12.349-1.877c-.281 0-.509-.191-.509-.473h.51l-.511-.055c0-.74.112-1.449.332-2.128.087-.267.373-.414.642-.328.268.087.414.374.328.642-.187.577-.282 1.18-.282 1.794 0 .282-.228.548-.51.548zm11.943-2.937c-.184 0-.361-.1-.452-.275-.283-.543-.644-1.036-1.077-1.464-.2-.199-.202-.522-.004-.721.199-.199.522-.203.721-.004.508.504.933 1.082 1.264 1.719.13.25.033.558-.217.687-.074.04-.155.058-.235.058zm-10.098-1.566c-.13 0-.26-.05-.36-.148-.2-.199-.2-.522-.002-.721.506-.509 1.086-.932 1.723-1.259.251-.128.559-.031.686.22.129.251.03.558-.22.686-.542.279-1.036.639-1.466 1.072-.099.1-.23.15-.361.15zm6.41-1.557c-.052 0-.104-.008-.155-.024-.573-.184-1.171-.277-1.778-.277-.282 0-.518-.227-.519-.509 0-.282.219-.509.501-.51v.004c.763 0 1.449.11 2.106.32.268.087.416.373.331.641-.07.217-.27.355-.486.355z"/></g><circle cx="197.381" cy="131.092" fill="#ffb7ad" r="18.343" stroke="#152a62" stroke-linejoin="round" stroke-miterlimit="10"/><path d="m195.98 135.175c-.138 0-.268-.055-.366-.154-.099-.1-.152-.233-.15-.373.022-1.421.172-2.394.461-2.971.311-.62 1.111-1.497 2.444-2.679.523-.436.963-.912 1.309-1.416.335-.488.504-1.018.504-1.575 0-.578-.224-1.115-.668-1.6-.439-.481-1.116-.724-2.013-.724-1.011 0-1.769.294-2.253.874-.371.445-.649.873-.824 1.271-.101.232-.332.381-.588.381-.083 0-.164-.016-.242-.046l-2.013-.793c-.171-.067-.311-.203-.383-.372-.07-.164-.071-.345-.004-.507.443-1.068 1.141-2.011 2.076-2.801 1.081-.914 2.504-1.377 4.23-1.377 1.693 0 3.179.461 4.421 1.37 1.258.919 1.896 2.255 1.896 3.968 0 1.009-.234 1.886-.696 2.607-.449.707-1.071 1.459-1.848 2.235-1.019.96-1.643 1.718-1.856 2.258-.188.477-.294 1.122-.316 1.919-.007.283-.233.506-.512.506h-2.609z" fill="#152a62"/><circle cx="197.362" cy="139.611" fill="#152a62" r="2.397"/></svg>