<svg enable-background="new 0 0 300 300" viewBox="0 0 300 300" xmlns="http://www.w3.org/2000/svg"><path d="m214.506 199.013h-129.012c-10.972 0-19.867-8.895-19.867-19.867v-64.215c0-10.972 8.895-19.867 19.867-19.867h129.012c10.972 0 19.867 8.895 19.867 19.867v64.215c0 10.972-8.895 19.867-19.867 19.867z" fill="#e3e0fd"/><g stroke="#152a62" stroke-linejoin="round" stroke-miterlimit="10"><path d="m164.59 142.008v-10.837c0-1.1-.829-2.024-1.922-2.144l-11.706-1.277c-.729-2.63-1.761-5.132-3.061-7.466l7.354-9.155c.689-.858.622-2.097-.156-2.875l-8.729-8.729c-.778-.778-2.017-.845-2.875-.156l-9.249 7.43c-2.303-1.244-4.766-2.227-7.348-2.919l-1.301-11.924c-.119-1.094-1.043-1.922-2.143-1.922h-10.478l-.494-2.248s-2.932 2.919-3.01 3.01l-.03.03h.002c-.257.314-.432.7-.479 1.13l-1.349 12.369c-2.351.75-4.588 1.751-6.688 2.966l-9.861-7.921c-.858-.689-2.097-.622-2.875.156l-8.729 8.729c-.778.778-.845 2.017-.156 2.875l8.242 10.261c-1.001 1.963-1.818 4.035-2.428 6.195l-11.714-.696s-2.838 2.793-2.927 2.9l-.002.002c-.315.376-.507.857-.507 1.381v12.345c0 1.1.829 2.024 1.922 2.144l13.49 1.472c.635 2.029 1.458 3.975 2.442 5.822l-8.519 10.605c-.689.858-.622 2.097.156 2.875l8.729 8.729c.778.778 2.017.845 2.875.156l10.503-8.436c1.881 1.034 3.871 1.893 5.946 2.563l1.45 13.288c.119 1.094 1.043 1.922 2.143 1.922h12.345c.75 0 1.411-.39 1.798-.981l2.512-2.399-2.002-.051 1.236-11.328c2.298-.624 4.498-1.483 6.576-2.547l9.922 7.97c.858.689 2.097.622 2.875-.156l8.729-8.729c.778-.778.845-2.017.156-2.875l-7.65-9.524c1.284-2.213 2.333-4.578 3.099-7.069l11.966-1.305c.402-.044.768-.198 1.07-.429l.005.035 2.837-2.837zm-47.311 9.746c-7.959 0-14.411-6.452-14.411-14.411s6.452-14.411 14.411-14.411 14.411 6.452 14.411 14.411c-.001 7.959-6.452 14.411-14.411 14.411z" fill="#152a62" stroke-linecap="round"/><path d="m167.243 140.863v-12.345c0-1.1-.829-2.024-1.922-2.143l-11.706-1.277c-.729-2.63-1.761-5.132-3.061-7.466l7.354-9.155c.689-.858.622-2.097-.156-2.875l-8.729-8.729c-.778-.778-2.017-.845-2.875-.156l-9.249 7.43c-2.303-1.244-4.766-2.227-7.348-2.919l-1.301-11.924c-.119-1.094-1.043-1.922-2.143-1.922h-12.347c-1.1 0-2.024.829-2.143 1.922l-1.349 12.369c-2.351.75-4.588 1.751-6.688 2.966l-9.861-7.921c-.858-.689-2.097-.622-2.875.156l-8.729 8.729c-.778.778-.845 2.017-.156 2.875l8.242 10.261c-1.001 1.963-1.818 4.035-2.428 6.195l-13.228 1.443c-1.094.119-1.922 1.043-1.922 2.143v12.345c0 1.1.829 2.024 1.922 2.143l13.49 1.472c.635 2.029 1.458 3.975 2.442 5.822l-8.519 10.605c-.689.858-.622 2.097.156 2.875l8.729 8.729c.778.778 2.017.845 2.875.156l10.503-8.436c1.881 1.034 3.87 1.893 5.946 2.563l1.45 13.288c.119 1.094 1.043 1.922 2.143 1.922h12.345c1.1 0 2.024-.829 2.143-1.922l1.4-12.837c2.298-.624 4.498-1.483 6.576-2.547l9.922 7.97c.858.689 2.097.622 2.875-.156l8.729-8.729c.778-.778.845-2.017.156-2.875l-7.65-9.524c1.284-2.213 2.333-4.578 3.099-7.069l11.966-1.305c1.093-.123 1.922-1.047 1.922-2.147zm-47.311 8.37c-8.032 0-14.542-6.511-14.542-14.542 0-8.032 6.511-14.542 14.542-14.542s14.542 6.511 14.542 14.542-6.51 14.542-14.542 14.542z" fill="#b49cfb"/><path d="m225.61 167.104s-1.126.086-1.143.031l-2.446-7.896c-.218-.704-.931-1.131-1.654-.99l-7.799 1.514c-.976-1.456-2.128-2.807-3.441-4.023l2.952-7.47c.271-.685-.018-1.465-.67-1.808l-6.499-5.123c-.652-.343-1.458-.141-1.87.47l-5.475 8.175c-1.627-.289-3.265-.395-4.888-.331l-3.369-7.771c-.293-.676-1.048-1.023-1.752-.805l-6.538 2.025-.294-.861-1.52 1.52c-.42.325-.641.867-.535 1.416l1.679 8.651c-1.206.85-2.336 1.823-3.372 2.912l-7.776-3.073.156-.009-.523-1.568-1.699 1.699.011-.001c-.102.101-.193.214-.264.347l-3.854 7.313c-.343.652-.141 1.458.47 1.87l7.532 5.083c-.257 1.4-.377 2.81-.371 4.211l-6.809 2.952-.311-.699-1.619 1.619c-.414.367-.596.949-.424 1.504l2.446 7.896c.218.704.931 1.131 1.654.99l8.855-1.719c.791 1.2 1.702 2.33 2.722 3.374l-3.289 8.324c-.271.685.018 1.464.67 1.808l7.313 3.854c.652.343 1.458.141 1.87-.47l4.837-7.167c1.556.348 3.127.526 4.691.544l3.39 7.819c.293.676 1.048 1.023 1.752.805l7.896-2.446c.28-.087.533-.299.778-.463l1.454-1.52-1.418-.58-1.383-7.122c1.451-.91 2.811-1.984 4.042-3.22l7.496 2.962c.543.214 1.141.074 1.538-.316l1.578-1.568-.59-.149 3.136-5.951c.343-.652.141-1.458-.47-1.87l-6.536-4.411c.389-1.785.559-3.59.517-5.378l7.215-3.128c.117-.051.221-.12.317-.196l-.002.014zm-24.639 9.667c-2.325 4.412-7.787 6.104-12.199 3.779s-6.104-7.787-3.779-12.199 7.787-6.104 12.199-3.779c4.413 2.325 6.105 7.786 3.779 12.199z" fill="#152a62"/><path d="m220.651 189.418 3.854-7.313c.343-.652.141-1.458-.47-1.87l-6.536-4.411c.389-1.785.559-3.59.517-5.378l7.215-3.128c.676-.293 1.023-1.048.805-1.752l-2.446-7.896c-.218-.704-.931-1.131-1.654-.99l-7.799 1.514c-.976-1.456-2.128-2.807-3.442-4.023l2.952-7.47c.271-.685-.018-1.464-.67-1.808l-7.313-3.854c-.652-.344-1.458-.141-1.87.47l-4.661 6.906c-1.627-.29-3.265-.395-4.888-.331l-3.369-7.771c-.293-.676-1.048-1.023-1.752-.805l-7.896 2.446c-.704.218-1.131.931-.99 1.654l1.679 8.651c-1.206.85-2.336 1.823-3.372 2.912l-8.286-3.275c-.685-.271-1.464.018-1.808.67l-3.854 7.313c-.344.652-.141 1.458.47 1.87l7.532 5.083c-.257 1.4-.377 2.81-.371 4.211l-8.357 3.623c-.676.293-1.023 1.048-.805 1.752l2.446 7.896c.218.704.931 1.131 1.654.99l8.855-1.719c.791 1.2 1.702 2.33 2.722 3.374l-3.289 8.324c-.271.685.018 1.464.67 1.808l7.313 3.854c.652.343 1.458.141 1.87-.47l4.837-7.167c1.556.348 3.127.526 4.691.544l3.39 7.819c.293.676 1.048 1.023 1.752.805l7.896-2.446c.704-.218 1.131-.931.99-1.654l-1.559-8.03c1.451-.91 2.811-1.984 4.042-3.22l7.496 2.962c.686.271 1.465-.018 1.809-.67zm-30.31-10.437c-4.412-2.325-6.104-7.787-3.779-12.199s7.787-6.104 12.199-3.779 6.104 7.787 3.779 12.199-7.787 6.104-12.199 3.779z" fill="#b49cfb"/><path d="m195.983 81.81-22.859 39.593c-1.266 2.192.316 4.932 2.848 4.932h45.718c2.531 0 4.113-2.74 2.848-4.932l-22.859-39.593c-1.266-2.192-4.43-2.192-5.696 0z" fill="#152a62"/><path d="m197.553 81.81-22.859 39.593c-1.266 2.192.316 4.932 2.848 4.932h45.718c2.531 0 4.113-2.74 2.848-4.932l-22.859-39.593c-1.266-2.192-4.43-2.192-5.696 0z" fill="#ffb7ad"/></g><path d="m201.849 111.455h-2.897c-.454 0-.828-.357-.848-.811l-.61-13.822c-.021-.483.364-.886.848-.886h4.116c.483 0 .869.403.848.886l-.61 13.822c-.019.454-.393.811-.847.811z" fill="#152a62"/><circle cx="200.401" cy="116.76" fill="#152a62" r="2.663"/></svg>