<svg width="300" height="214" viewBox="0 0 300 214" fill="none" xmlns="http://www.w3.org/2000/svg">
<path d="M214.506 156.013H85.494C74.522 156.013 65.627 147.118 65.627 136.146V71.9314C65.627 60.9594 74.522 52.0645 85.494 52.0645H214.506C225.478 52.0645 234.373 60.9594 234.373 71.9314V136.146C234.373 147.118 225.478 156.013 214.506 156.013Z" fill="#E3E0FD"/>
<path d="M150.493 192.303C171.999 192.303 189.433 190.875 189.433 189.114C189.433 187.353 171.999 185.925 150.493 185.925C128.987 185.925 111.553 187.353 111.553 189.114C111.553 190.875 128.987 192.303 150.493 192.303Z" fill="#E3E0FD"/>
<path d="M195.769 161.826L194.012 159.53L193.456 159.807C193.468 158.761 193.362 157.675 193.091 156.551L167.962 52.0825C165.981 43.8475 158.356 37.1715 149.797 37.1715H104.377C103.795 37.1715 103.231 37.2085 102.68 37.2685L101.063 34.8535L94.874 41.0425C94.871 41.0455 94.868 41.0485 94.865 41.0515L94.738 41.1785L94.74 41.1895C92.052 43.9245 90.902 47.9965 91.998 52.5515L117.127 157.019C118.96 164.639 126.865 170.816 134.784 170.816H181.601C185.264 170.816 188.275 169.483 190.287 167.308L195.769 161.826Z" fill="#E3E0FD" stroke="#152A62" stroke-miterlimit="10" stroke-linejoin="round"/>
<path d="M124.474 167.353C127.519 169.502 131.147 170.816 134.785 170.816H181.602C185.265 170.816 188.276 169.483 190.288 167.308L195.77 161.826L194.013 159.53L193.457 159.807C193.469 158.78 193.364 157.714 193.105 156.612L132.299 159.53L124.474 167.353Z" fill="#F5F4F9" stroke="#152A62" stroke-miterlimit="10" stroke-linejoin="round"/>
<path d="M187.729 164.689H140.912C132.993 164.689 125.088 158.512 123.255 150.892L98.1261 46.4257C96.1451 38.1907 101.477 31.5146 110.035 31.5146H154.537C163.095 31.5146 171.639 38.1907 173.62 46.4257L198.749 150.893C200.582 158.512 195.648 164.689 187.729 164.689Z" fill="#152A62" stroke="#152A62" stroke-miterlimit="10" stroke-linejoin="round"/>
<path d="M139.67 160.316C134.379 160.316 129.078 156.171 127.852 151.077L102.724 46.6087C102.045 43.7887 102.554 41.1157 104.156 39.0837C105.779 37.0227 108.309 35.8887 111.277 35.8887H117.394C119.175 35.8887 120.893 37.2337 121.306 38.9517C121.877 41.3247 124.414 43.1837 127.082 43.1837H143.613C144.867 43.1837 145.887 42.7657 146.485 42.0067C147.033 41.3117 147.187 40.3827 146.932 39.3187C146.721 38.4417 146.892 37.5667 147.403 36.9197C147.919 36.2647 148.742 35.8897 149.66 35.8897H155.777C161.707 35.8897 167.648 40.5337 169.022 46.2417L194.151 150.709C194.759 153.235 194.302 155.63 192.866 157.452C191.41 159.3 189.145 160.317 186.487 160.317H139.67V160.316Z" fill="white" stroke="#152A62" stroke-miterlimit="10" stroke-linejoin="round"/>
<path d="M98.158 55.251L95.314 57.967L96.496 62.968L99.34 60.252L98.158 55.251Z" stroke="#152A62" stroke-miterlimit="10" stroke-linejoin="round"/>
<path d="M100.172 63.4688L97.3281 66.1857L98.5111 71.1867L101.354 68.4707L100.172 63.4688Z" stroke="#152A62" stroke-miterlimit="10" stroke-linejoin="round"/>
<path d="M198.011 50.5H152.685C147.888 50.5 144 54.389 144 59.186V89.232C144 94.029 147.889 97.918 152.685 97.918H163.101V106.286C163.101 107.255 163.871 107.898 164.698 107.938L164.702 107.952H166.002L166.041 107.371L176.066 97.919H198.011C202.808 97.919 204.901 94.03 204.901 89.233V59.187C204.901 54.39 202.808 50.5 198.011 50.5Z" fill="#152A62" stroke="#152A62" stroke-linecap="round" stroke-linejoin="round"/>
<path d="M153.823 50.5H197.354C202.151 50.5 206.04 54.389 206.04 59.186V89.232C206.04 94.029 202.151 97.918 197.354 97.918H177.205L167.045 107.497C165.983 108.498 164.239 107.745 164.239 106.286V97.918H153.823C149.026 97.918 145.137 94.029 145.137 89.232V59.186C145.137 54.389 149.026 50.5 153.823 50.5Z" fill="#FFB7AD" stroke="#152A62" stroke-miterlimit="10"/>
<path d="M173.284 80.7737C173.089 80.7737 172.904 80.6957 172.765 80.5547C172.625 80.4127 172.55 80.2237 172.553 80.0267C172.584 78.0137 172.797 76.6357 173.206 75.8187C173.647 74.9397 174.779 73.6987 176.668 72.0247C177.409 71.4067 178.032 70.7327 178.522 70.0187C178.996 69.3267 179.236 68.5767 179.236 67.7877C179.236 66.9687 178.918 66.2077 178.29 65.5217C177.668 64.8407 176.709 64.4957 175.439 64.4957C174.007 64.4957 172.933 64.9117 172.248 65.7337C171.722 66.3647 171.329 66.9697 171.081 67.5337C170.937 67.8617 170.61 68.0737 170.248 68.0737C170.13 68.0737 170.016 68.0517 169.906 68.0087L167.054 66.8847C166.812 66.7897 166.614 66.5967 166.512 66.3577C166.413 66.1247 166.411 65.8697 166.506 65.6397C167.133 64.1267 168.122 62.7917 169.447 61.6727C170.978 60.3787 172.994 59.7217 175.439 59.7217C177.837 59.7217 179.942 60.3747 181.701 61.6617C183.483 62.9637 184.387 64.8557 184.387 67.2817C184.387 68.7107 184.055 69.9537 183.401 70.9747C182.765 71.9757 181.883 73.0407 180.783 74.1407C179.339 75.5007 178.456 76.5747 178.154 77.3387C177.888 78.0137 177.738 78.9277 177.706 80.0567C177.695 80.4577 177.377 80.7727 176.98 80.7727H173.282L173.284 80.7737Z" fill="#152A62"/>
<path d="M175.242 90.4521C177.117 90.4521 178.638 88.9317 178.638 87.0562C178.638 85.1806 177.117 83.6602 175.242 83.6602C173.366 83.6602 171.846 85.1806 171.846 87.0562C171.846 88.9317 173.366 90.4521 175.242 90.4521Z" fill="#152A62"/>
</svg>
