<svg enable-background="new 0 0 300 300" viewBox="0 0 300 300" xmlns="http://www.w3.org/2000/svg"><path d="m214.506 199.013h-129.012c-10.972 0-19.867-8.895-19.867-19.867v-64.215c0-10.972 8.895-19.867 19.867-19.867h129.012c10.972 0 19.867 8.895 19.867 19.867v64.215c0 10.972-8.895 19.867-19.867 19.867z" fill="#e3e0fd"/><path d="m91.987 159.829h-44.307c-2.751 0-4.995-2.244-4.995-4.995v-44.306c0-2.751 2.244-4.995 4.995-4.995h44.306c2.751 0 4.995 2.244 4.995 4.995v44.306c.001 2.751-2.243 4.995-4.994 4.995z" fill="#000a42"/><path d="m47.762 146.05v-12.85h3.65c4.295 0 6.657 2.172 6.657 6.045 0 4.633-2.577 6.805-6.764 6.805zm2.327-1.955h1.324c2.541 0 4.223-1.376 4.223-4.742 0-2.787-1.646-4.235-4.402-4.235h-1.146v8.977zm11.093-11.764c.824 0 1.289.543 1.289 1.267 0 .688-.465 1.267-1.287 1.267-.824 0-1.289-.507-1.289-1.267.036-.652.465-1.267 1.289-1.267zm1.11 13.719h-2.184v-9.629l2.184-.109zm5.297-1.882h2.29c2.039 0 2.934.833 2.934 2.389 0 1.846-1.502 3.33-4.975 3.33-2.72 0-3.972-.977-3.972-2.498 0-.905.501-1.665 1.467-2.099v-.072c-.43-.217-.752-.724-.752-1.303 0-.615.358-1.158 1.074-1.448v-.072c-.859-.507-1.36-1.303-1.36-2.57 0-2.353 1.575-3.62 3.972-3.62.537 0 1.001.072 1.467.181h3.078v1.484h-1.467v.072c.395.326.752.977.752 1.81 0 2.136-1.431 3.258-4.045 3.258-.43 0-.823-.072-1.216-.145-.251.145-.393.362-.393.615-.071.434.251.688 1.146.688zm.394 4.054c2.075 0 2.827-.543 2.827-1.303 0-.579-.357-.869-1.287-.905l-3.185-.109c-.358.253-.537.579-.537 1.014.036.796.716 1.303 2.184 1.303zm2.039-8.615c0-1.158-.643-1.81-1.861-1.81-1.074 0-1.861.615-1.861 1.918 0 1.267.681 1.774 1.826 1.774 1.181.036 1.897-.507 1.897-1.882z" fill="#fff"/><path d="m75.32 132.331c.823 0 1.287.543 1.287 1.267 0 .688-.465 1.267-1.287 1.267-.824 0-1.289-.507-1.289-1.267.037-.652.465-1.267 1.289-1.267zm1.11 13.719h-2.184v-9.629l2.184-.109zm2.755 0v-12.85h3.65c4.295 0 6.657 2.172 6.657 6.045 0 4.633-2.576 6.805-6.764 6.805zm2.326-1.955h1.324c2.541 0 4.223-1.376 4.223-4.742 0-2.787-1.646-4.235-4.402-4.235h-1.145z" fill="#e1700d"/><g stroke="#152a62" stroke-miterlimit="10"><path d="m132.47 194.693 1.515-1.98.48.238c-.01-.902.081-1.839.314-2.808l21.668-90.081c1.708-7.101 8.284-12.857 15.663-12.857h39.165c.502 0 .988.032 1.464.084l1.394-2.082 5.337 5.337c.003.003.005.005.008.008l.11.109-.002.01c2.318 2.359 3.309 5.87 2.364 9.798l-21.668 90.081c-1.58 6.57-8.397 11.897-15.226 11.897h-40.37c-3.159 0-5.755-1.149-7.49-3.025z" fill="#e3e0fd"/><path d="m193.948 199.459c-2.625 1.853-5.754 2.986-8.891 2.986h-40.37c-3.159 0-5.755-1.149-7.489-3.025l-4.727-4.727 1.515-1.98.479.238c-.01-.885.08-1.805.304-2.755l52.433 2.516z" fill="#f5f4f9"/><path d="m139.403 197.161h40.37c6.828 0 13.645-5.326 15.226-11.897l21.668-90.081c1.708-7.101-2.89-12.857-10.269-12.857h-38.373c-7.38 0-14.747 5.756-16.455 12.857l-21.668 90.081c-1.581 6.571 2.673 11.897 9.501 11.897z" fill="#152a62"/><path d="m180.844 193.39c4.562 0 9.134-3.574 10.191-7.967l21.668-90.081c.585-2.432.147-4.736-1.235-6.489-1.4-1.777-3.581-2.755-6.141-2.755h-5.274c-1.536 0-3.018 1.16-3.374 2.641-.492 2.046-2.68 3.649-4.981 3.649h-14.255c-1.081 0-1.96-.36-2.476-1.015-.473-.6-.606-1.401-.385-2.318.182-.756.034-1.51-.406-2.069-.445-.565-1.154-.888-1.947-.888h-5.275c-5.113 0-10.237 4.004-11.421 8.927l-21.668 90.081c-.524 2.178-.13 4.243 1.108 5.815 1.255 1.593 3.208 2.47 5.5 2.47h40.371z" fill="#fff"/><path d="m216.64 102.794 2.452 2.342-1.02 4.312-2.452-2.342z" fill="none" stroke-linejoin="round"/><path d="m214.903 109.881 2.452 2.342-1.02 4.312-2.452-2.342z" fill="none" stroke-linejoin="round"/></g><ellipse cx="164.452" cy="214.371" fill="#e3e0fd" rx="34.34" ry="3.302"/><path d="m134.317 144.681c-.069-.463-.053-.962.073-1.486l4.67-19.413c.563-2.339 2.989-4.235 5.42-4.235h37.573l-.088-.489.483-.223 1.821 1.35s.001.006.001.006c1.064.748 1.576 2.074 1.211 3.59l-4.67 19.413c-.563 2.339-2.989 4.235-5.42 4.235h-37.618c-.922 0-1.711-.274-2.306-.739l-1.865-1.378z" fill="#152a62" stroke="#152a62" stroke-linejoin="round" stroke-miterlimit="10"/><path d="m182.052 119.547-.088-.489.483-.223 1.821 1.35s.001.006.001.006c1.064.748 1.576 2.074 1.211 3.59l-4.67 19.413c-.277 1.153-1.011 2.196-1.971 2.96l-3.279-2.45-2.917-24.157z" fill="#89c8ff" stroke="#152a62" stroke-miterlimit="10"/><path d="m135.916 146.058h37.618c2.431 0 4.857-1.896 5.42-4.235l4.67-19.413c.563-2.339-.952-4.235-3.382-4.235h-37.618c-2.431 0-4.857 1.896-5.42 4.235l-4.67 19.413c-.563 2.339.951 4.235 3.382 4.235z" fill="#89c8ff" stroke="#152a62" stroke-miterlimit="10"/><path d="m141.551 132.06h14.849c.455 0 .909-.355 1.014-.792l.133-.552c.105-.438-.178-.792-.633-.792h-14.849c-.455 0-.909.355-1.014.792l-.133.552c-.105.437.178.792.633.792z" fill="#152a62"/><path d="m139.656 140.453h4.494c.455 0 .909-.355 1.014-.792l.133-.552c.105-.438-.178-.792-.633-.792h-4.494c-.455 0-.909.355-1.014.792l-.133.552c-.106.437.178.792.633.792z" fill="#152a62"/><path d="m143.134 126.995h20.825c.621 0 1.241-.484 1.385-1.082l.298-1.238c.144-.598-.243-1.082-.864-1.082h-20.825c-.621 0-1.241.484-1.385 1.082l-.298 1.238c-.144.598.243 1.082.864 1.082z" fill="#152a62"/><ellipse cx="173.972" cy="124.053" fill="#152a62" rx="2.043" ry="1.6" transform="matrix(.7448 -.6673 .6673 .7448 -38.3796 147.7601)"/><path d="m173.367 126.526c1.797 0 2.895 1.461 2.454 3.263l-.367 1.499c-.108.443-.554.801-.995.801h-4.908c-.441 0-.711-.359-.603-.801l.367-1.499c.441-1.802 2.255-3.263 4.052-3.263z" fill="#152a62"/><path d="m126.494 129.803-9.731-8.28-.003-.622h-1.218-.001c-.716-.009-1.4.538-1.4 1.365v3.695h-9.301c-.946 0-1.713.767-1.713 1.713v7.098c0 .946.767 1.713 1.713 1.713h9.301v3.693c0 .817.667 1.372 1.373 1.378h.001 1.286l.035-.696 9.66-8.219c.873-.744.873-2.094-.002-2.838z" fill="#152a62" stroke="#152a62" stroke-linejoin="round" stroke-miterlimit="10"/><path d="m127.753 129.803-10.089-8.584c-.893-.76-2.266-.125-2.266 1.047v3.695h-9.301c-.946 0-1.713.767-1.713 1.713v7.098c0 .946.767 1.713 1.713 1.713h9.301v3.693c0 1.172 1.373 1.807 2.266 1.047l10.089-8.584c.875-.744.875-2.094 0-2.838z" fill="#b49cfb" stroke="#152a62" stroke-linejoin="round" stroke-miterlimit="10"/></svg>