<?xml version="1.0" encoding="UTF-8"?>
<svg width="262px" height="220px" viewBox="0 0 262 220" version="1.1" xmlns="http://www.w3.org/2000/svg" xmlns:xlink="http://www.w3.org/1999/xlink">
    <title>Artboard</title>
    <defs>
        <polygon id="path-1" points="0 -1.42108547e-14 260 -1.42108547e-14 260 112.4437 0 112.4437"></polygon>
        <linearGradient x1="3.04868032%" y1="25.5007119%" x2="111.309589%" y2="49.4804861%" id="linearGradient-3">
            <stop stop-color="#576EE8" offset="0%"></stop>
            <stop stop-color="#8060FF" offset="100%"></stop>
        </linearGradient>
    </defs>
    <g id="Artboard" stroke="none" stroke-width="1" fill="none" fill-rule="evenodd">
        <g id="NL_WALLET_update_app" transform="translate(0.500000, 28.500000)">
            <path d="M24.5,0 L236.5,0 C250.030976,-3.55271368e-15 261,10.9690236 261,24.5 L261,193 L261,193 L0,193 L0,24.5 C0,10.9690236 10.9690236,0 24.5,0 Z" id="Rectangle" fill="#FCFCFC" fill-rule="nonzero"></path>
            <rect id="Rectangle" fill="#FCFCFC" fill-rule="nonzero" x="0.5" y="0.5" width="260" height="48.0556"></rect>
            <g id="Group" transform="translate(0.500000, 0.500000)" fill-rule="nonzero">
                <rect id="Rectangle" fill="#FCFCFC" x="0" y="0" width="260" height="39.3889"></rect>
                <path d="M38.1515,26 L38.1515,18.4526 L38.0372,18.4526 L35.7584,20.0586 L35.7584,18.5225 L38.1515,16.8403 L39.7828,16.8403 L39.7828,26 L38.1515,26 Z M43.1911,24.7686 C42.9034,24.7686 42.6621,24.6733 42.4675,24.4829 C42.2771,24.2882 42.1818,24.0513 42.1818,23.772 C42.1818,23.4884 42.2771,23.2515 42.4675,23.061 C42.6621,22.8664 42.9034,22.769 43.1911,22.769 C43.4831,22.769 43.7243,22.8664 43.9147,23.061 C44.1052,23.2515 44.2004,23.4884 44.2004,23.772 C44.2004,24.0513 44.1052,24.2882 43.9147,24.4829 C43.7243,24.6733 43.4831,24.7686 43.1911,24.7686 Z M43.1911,20.0586 C42.9034,20.0586 42.6621,19.9634 42.4675,19.7729 C42.2771,19.5783 42.1818,19.3413 42.1818,19.062 C42.1818,18.7785 42.2771,18.5415 42.4675,18.3511 C42.6621,18.1564 42.9034,18.0591 43.1911,18.0591 C43.4831,18.0591 43.7243,18.1564 43.9147,18.3511 C44.1052,18.5415 44.2004,18.7785 44.2004,19.062 C44.2004,19.3413 44.1052,19.5783 43.9147,19.7729 C43.7243,19.9634 43.4831,20.0586 43.1911,20.0586 Z M50.1985,26 L50.1985,24.2417 L45.7171,24.2417 L45.7171,22.9023 C45.9583,22.4919 46.1995,22.0793 46.4407,21.6646 C46.6862,21.2498 46.9337,20.8372 47.1834,20.4268 C47.4373,20.012 47.6891,19.6037 47.9388,19.2017 C48.1927,18.7954 48.4445,18.3955 48.6941,18.002 C48.948,17.6042 49.202,17.217 49.4559,16.8403 L51.7601,16.8403 L51.7601,22.8896 L52.9978,22.8896 L52.9978,24.2417 L51.7601,24.2417 L51.7601,26 L50.1985,26 Z M47.2405,22.9277 L50.2239,22.9277 L50.2239,18.1479 L50.1287,18.1479 C49.9425,18.4357 49.75,18.7319 49.5511,19.0366 C49.3564,19.3413 49.1596,19.6523 48.9607,19.9697 C48.7618,20.2871 48.5651,20.6066 48.3704,20.9282 C48.1757,21.2456 47.9832,21.5651 47.7928,21.8867 C47.6023,22.2041 47.4183,22.5194 47.2405,22.8325 L47.2405,22.9277 Z M54.7748,26 L58.7548,18.2812 L58.7548,18.1797 L54.0321,18.1797 L54.0321,16.8403 L60.4052,16.8403 L60.4052,18.2051 L56.4823,26 L54.7748,26 Z" id="Shape" fill="#191C1B"></path>
                <rect id="Rectangle" fill="#000000" x="84.5" y="8.1389" width="91" height="26.7222" rx="13.3611"></rect>
                <g transform="translate(180.195000, 15.361100)" fill="#191C1B" id="Path">
                    <path d="M14.091,10.4074 L15.536,10.4074 C15.914,10.4074 16.165,10.1435 16.165,9.7539 L16.165,8.5066 C16.165,8.1169 15.914,7.8591 15.536,7.8591 L14.091,7.8591 C13.714,7.8591 13.462,8.1169 13.462,8.5066 L13.462,9.7539 C13.462,10.1435 13.714,10.4074 14.091,10.4074 Z" opacity="0.2"></path>
                    <path d="M14.094,10.4074 L15.55,10.4074 C15.922,10.4074 16.174,10.1436 16.174,9.7539 L16.174,0.6535 C16.174,0.2638 15.922,-7.10542736e-15 15.55,-7.10542736e-15 L14.094,-7.10542736e-15 C13.722,-7.10542736e-15 13.464,0.2638 13.464,0.6535 L13.464,9.7539 C13.464,10.1436 13.722,10.4074 14.094,10.4074 Z"></path>
                    <path d="M9.606,10.4074 L11.051,10.4074 C11.429,10.4074 11.681,10.1435 11.681,9.7539 L11.681,8.5066 C11.681,8.1169 11.429,7.8591 11.051,7.8591 L9.606,7.8591 C9.229,7.8591 8.977,8.1169 8.977,8.5066 L8.977,9.7539 C8.977,10.1435 9.229,10.4074 9.606,10.4074 Z" opacity="0.2"></path>
                    <path d="M9.61,10.4074 L11.055,10.4074 C11.426,10.4074 11.684,10.1435 11.684,9.7539 L11.684,3.0215 C11.684,2.6318 11.426,2.368 11.055,2.368 L9.61,2.368 C9.232,2.368 8.98,2.6318 8.98,3.0215 L8.98,9.7539 C8.98,10.1435 9.232,10.4074 9.61,10.4074 Z"></path>
                    <path d="M5.121,10.4074 L6.566,10.4074 C6.944,10.4074 7.196,10.1435 7.196,9.7539 L7.196,8.5066 C7.196,8.1169 6.944,7.8591 6.566,7.8591 L5.121,7.8591 C4.744,7.8591 4.492,8.1169 4.492,8.5066 L4.492,9.7539 C4.492,10.1435 4.744,10.4074 5.121,10.4074 Z" opacity="0.2"></path>
                    <path d="M5.12,10.4074 L6.564,10.4074 C6.942,10.4074 7.194,10.1436 7.194,9.7539 L7.194,5.1917 C7.194,4.802 6.942,4.5383 6.564,4.5383 L5.12,4.5383 C4.742,4.5383 4.49,4.802 4.49,5.1917 L4.49,9.7539 C4.49,10.1436 4.742,10.4074 5.12,10.4074 Z"></path>
                    <path d="M0.629,10.4074 L2.074,10.4074 C2.452,10.4074 2.704,10.1435 2.704,9.7539 L2.704,8.5066 C2.704,8.1169 2.452,7.8591 2.074,7.8591 L0.629,7.8591 C0.252,7.8591 0,8.1169 0,8.5066 L0,9.7539 C0,10.1435 0.252,10.4074 0.629,10.4074 Z" opacity="0.2"></path>
                    <path d="M0.629,10.4074 L2.074,10.4074 C2.452,10.4074 2.704,10.1435 2.704,9.7539 L2.704,7.0621 C2.704,6.6724 2.452,6.4147 2.074,6.4147 L0.629,6.4147 C0.252,6.4147 0,6.6724 0,7.0621 L0,9.7539 C0,10.1435 0.252,10.4074 0.629,10.4074 Z"></path>
                </g>
                <path d="M208.762,26.0531 C208.894,26.0531 209.008,25.9931 209.242,25.7653 L210.705,24.3625 C210.795,24.2726 210.819,24.1406 210.735,24.0327 C210.345,23.5292 209.608,23.0915 208.762,23.0915 C207.893,23.0915 207.156,23.5472 206.766,24.0687 C206.706,24.1647 206.73,24.2726 206.826,24.3625 L208.283,25.7653 C208.517,25.9871 208.631,26.0531 208.762,26.0531 Z M205.255,22.7918 C205.387,22.9177 205.549,22.8997 205.669,22.7678 C206.388,21.9705 207.563,21.3889 208.762,21.3949 C209.973,21.3889 211.149,21.9884 211.88,22.7858 C211.988,22.9117 212.138,22.9057 212.27,22.7858 L213.199,21.8625 C213.295,21.7666 213.307,21.6347 213.217,21.5268 C212.312,20.4177 210.633,19.5844 208.762,19.5844 C206.892,19.5844 205.213,20.4177 204.308,21.5268 C204.218,21.6347 204.224,21.7546 204.326,21.8625 L205.255,22.7918 Z M202.767,20.2859 C202.887,20.3998 203.055,20.3998 203.169,20.2799 C204.644,18.7152 206.586,17.8879 208.762,17.8879 C210.951,17.8879 212.905,18.7212 214.368,20.2859 C214.476,20.3938 214.638,20.3878 214.757,20.2739 L215.585,19.4466 C215.693,19.3386 215.687,19.2068 215.603,19.1048 C214.194,17.3663 211.544,16.0894 208.762,16.0894 C205.987,16.0894 203.325,17.3663 201.922,19.1048 C201.838,19.2068 201.838,19.3386 201.94,19.4466 L202.767,20.2859 Z" id="Shape" fill="#191C1B"></path>
                <g transform="translate(221.361000, 16.095400)" fill="#191C1B">
                    <path d="M3.989,10.0664 L16.036,10.0664 C17.442,10.0664 18.446,9.9086 19.163,9.1918 C19.882,8.475 20.029,7.4888 20.029,6.078 L20.029,3.9884 C20.029,2.5776 19.882,1.5866 19.163,0.8722 C18.443,0.1554 17.442,0 16.036,0 L3.944,0 C2.593,0 1.586,0.1578 0.87,0.877 C0.15,1.5938 0,2.5878 0,3.9387 L0,6.078 C0,7.4888 0.148,8.4774 0.865,9.1918 C1.586,9.9086 2.586,10.0664 3.989,10.0664 Z M3.784,9.106 C2.87,9.106 2.046,8.9612 1.568,8.4885 C1.098,8.0105 0.961,7.1996 0.961,6.2826 L0.961,3.8257 C0.961,2.8716 1.098,2.0511 1.566,1.5731 C2.044,1.0926 2.88,0.9581 3.831,0.9581 L16.246,0.9581 C17.16,0.9581 17.984,1.1052 18.454,1.5755 C18.932,2.0535 19.069,2.8591 19.069,3.776 L19.069,6.2826 C19.069,7.1996 18.93,8.0105 18.454,8.4885 C17.984,8.9637 17.16,9.106 16.246,9.106 L3.784,9.106 Z M20.928,6.9221 C21.503,6.8857 22.279,6.1454 22.279,5.0305 C22.279,3.9186 21.503,3.1783 20.928,3.1419 L20.928,6.9221 Z" id="Shape" opacity="0.4"></path>
                    <path d="M3.513,8.3094 L16.525,8.3094 C17.221,8.3094 17.635,8.2005 17.898,7.9376 C18.161,7.6722 18.275,7.2561 18.275,6.5596 L18.275,3.5043 C18.275,2.803 18.161,2.3917 17.9,2.1263 C17.635,1.8658 17.216,1.7546 16.525,1.7546 L3.562,1.7546 C2.819,1.7546 2.391,1.8634 2.138,2.1239 C1.877,2.3893 1.763,2.818 1.763,3.5487 L1.763,6.5596 C1.763,7.2633 1.877,7.6722 2.138,7.9376 C2.403,8.1981 2.822,8.3094 3.513,8.3094 Z" id="Path"></path>
                </g>
            </g>
            <path d="M15.4543,64.343 C15.462,64.0792 15.5551,63.8542 15.7646,63.6525 L21.816,57.733 C21.9789,57.5623 22.1962,57.477 22.4444,57.477 C22.9487,57.477 23.3444,57.8649 23.3444,58.3692 C23.3444,58.6174 23.2435,58.8424 23.0729,59.0208 L17.6188,64.343 L23.0729,69.6652 C23.2435,69.8358 23.3444,70.0608 23.3444,70.3091 C23.3444,70.8211 22.9487,71.2091 22.4444,71.2091 C22.1962,71.2091 21.9789,71.1237 21.816,70.953 L15.7646,65.0335 C15.5551,64.8318 15.4543,64.6068 15.4543,64.343 Z" id="Path" fill="#3478F6" fill-rule="nonzero"></path>
            <path d="M30.252,68.9445 L30.252,68.1771 L35.1499,61.3608 L35.1499,61.2649 L30.4198,61.2649 L30.4198,60.2937 L36.5467,60.2937 L36.5467,61.061 L31.6728,67.8773 L31.6728,67.9733 L36.6486,67.9733 L36.6486,68.9445 L30.252,68.9445 Z M40.965,69.0584 C40.3535,69.0584 39.824,68.9245 39.3764,68.6567 C38.9327,68.3849 38.589,67.9992 38.3452,67.4997 C38.1054,67.0001 37.9855,66.4066 37.9855,65.7191 L37.9855,65.7072 C37.9855,65.0157 38.1054,64.4202 38.3452,63.9206 C38.589,63.4211 38.9327,63.0374 39.3764,62.7696 C39.824,62.5018 40.3535,62.3679 40.965,62.3679 C41.5805,62.3679 42.1101,62.5018 42.5537,62.7696 C42.9973,63.0374 43.3391,63.4211 43.5789,63.9206 C43.8227,64.4202 43.9446,65.0157 43.9446,65.7072 L43.9446,65.7191 C43.9446,66.4066 43.8227,67.0001 43.5789,67.4997 C43.3391,67.9992 42.9973,68.3849 42.5537,68.6567 C42.1101,68.9245 41.5805,69.0584 40.965,69.0584 Z M40.965,68.1351 C41.3727,68.1351 41.7184,68.0392 42.0022,67.8474 C42.2859,67.6555 42.5018,67.3798 42.6496,67.0201 C42.8015,66.6604 42.8774,66.2267 42.8774,65.7191 L42.8774,65.7072 C42.8774,65.1956 42.8015,64.7599 42.6496,64.4002 C42.5018,64.0405 42.2859,63.7668 42.0022,63.5789 C41.7184,63.3871 41.3727,63.2912 40.965,63.2912 C40.5574,63.2912 40.2117,63.3871 39.9279,63.5789 C39.6441,63.7668 39.4263,64.0405 39.2744,64.4002 C39.1266,64.7599 39.0526,65.1956 39.0526,65.7072 L39.0526,65.7191 C39.0526,66.2267 39.1266,66.6604 39.2744,67.0201 C39.4263,67.3798 39.6441,67.6555 39.9279,67.8474 C40.2117,68.0392 40.5574,68.1351 40.965,68.1351 Z M48.201,69.0584 C47.5855,69.0584 47.056,68.9225 46.6123,68.6507 C46.1727,68.3789 45.833,67.9952 45.5932,67.4997 C45.3574,67.0001 45.2395,66.4126 45.2395,65.7371 L45.2395,65.7311 C45.2395,65.0637 45.3574,64.4782 45.5932,63.9746 C45.833,63.471 46.1707,63.0773 46.6063,62.7936 C47.042,62.5098 47.5516,62.3679 48.1351,62.3679 C48.7226,62.3679 49.2262,62.5038 49.6458,62.7756 C50.0695,63.0474 50.3932,63.4271 50.617,63.9146 C50.8448,64.3982 50.9587,64.9618 50.9587,65.6052 L50.9587,66.0129 L45.779,66.0129 L45.779,65.1796 L50.4252,65.1796 L49.9096,65.941 L49.9096,65.5273 C49.9096,65.0197 49.8337,64.6021 49.6818,64.2743 C49.5299,63.9466 49.3201,63.7028 49.0523,63.543 C48.7845,63.3791 48.4768,63.2972 48.1291,63.2972 C47.7814,63.2972 47.4696,63.3831 47.1938,63.5549 C46.9221,63.7228 46.7063,63.9726 46.5464,64.3043 C46.3865,64.636 46.3066,65.0437 46.3066,65.5273 L46.3066,65.941 C46.3066,66.4006 46.3845,66.7942 46.5404,67.122 C46.6963,67.4457 46.9181,67.6955 47.2058,67.8714 C47.4936,68.0432 47.8333,68.1291 48.225,68.1291 C48.5167,68.1291 48.7705,68.0892 48.9864,68.0092 C49.2022,67.9293 49.38,67.8274 49.5199,67.7035 C49.6598,67.5796 49.7577,67.4537 49.8137,67.3258 L49.8376,67.2719 L50.8808,67.2719 L50.8688,67.3198 C50.8128,67.5396 50.7129,67.7534 50.569,67.9613 C50.4292,68.1651 50.2473,68.351 50.0235,68.5188 C49.7997,68.6827 49.5339,68.8146 49.2262,68.9145 C48.9224,69.0104 48.5807,69.0584 48.201,69.0584 Z M52.6373,68.9445 L52.6373,59.916 L53.6804,59.916 L53.6804,68.9445 L52.6373,68.9445 Z M56.7079,68.9445 L54.184,65.7791 L54.9514,65.1136 L58.0208,68.9445 L56.7079,68.9445 Z M53.5486,66.6184 L53.5006,65.3055 L53.7764,65.3055 L56.57,62.4818 L57.835,62.4818 L54.7655,65.4434 L54.5138,65.6892 L53.5486,66.6184 Z" id="Shape" fill="#3478F6" fill-rule="nonzero"></path>
            <g id="Clipped" transform="translate(0.500000, 80.333300)">
                <mask id="mask-2" fill="white">
                    <use xlink:href="#path-1"></use>
                </mask>
                <g id="Path"></g>
            </g>
            <g id="Group" transform="translate(14.944300, 87.556000)">
                <path d="M0,20.453 C0,9.157 9.1573,-2.84217094e-14 20.4533,-2.84217094e-14 L64.7687,-2.84217094e-14 C76.0647,-2.84217094e-14 85.2217,9.157 85.2217,20.453 L85.2217,64.768 C85.2217,76.064 76.0647,85.222 64.7687,85.222 L20.4533,85.222 C9.1573,85.222 0,76.064 0,64.768 L0,20.453 Z" id="Path" fill="#F2F1FE" fill-rule="nonzero"></path>
                <g transform="translate(16.978100, 24.801000)" fill-rule="nonzero" id="Path">
                    <path d="M1.42108547e-14,10.908 C1.42108547e-14,7.09 1.42108547e-14,5.181 0.7431,3.722 C1.3967,2.439 2.4397,1.396 3.7225,0.743 C5.1809,0 7.0901,0 10.9084,0 L40.2247,0 C44.043,0 45.9521,0 47.4105,0.743 C48.6936,1.396 49.7366,2.439 50.3896,3.722 C51.1336,5.181 51.1336,7.09 51.1336,10.908 L51.1336,24.884 C51.1336,28.703 51.1336,30.612 50.3896,32.07 C49.7366,33.353 48.6936,34.396 47.4105,35.05 C45.9521,35.793 44.043,35.793 40.2247,35.793 L10.9084,35.793 C7.0901,35.793 5.1809,35.793 3.7225,35.05 C2.4397,34.396 1.3967,33.353 0.7431,32.07 C1.42108547e-14,30.612 1.42108547e-14,28.703 1.42108547e-14,24.884 L1.42108547e-14,10.908 Z" fill="url(#linearGradient-3)"></path>
                    <path d="M1.42108547e-14,10.908 C1.42108547e-14,7.09 1.42108547e-14,5.181 0.7431,3.722 C1.3967,2.439 2.4397,1.396 3.7225,0.743 C5.1809,0 7.0901,0 10.9084,0 L40.2247,0 C44.043,0 45.9521,0 47.4105,0.743 C48.6936,1.396 49.7366,2.439 50.3896,3.722 C51.1336,5.181 51.1336,7.09 51.1336,10.908 L51.1336,24.884 C51.1336,28.703 51.1336,30.612 50.3896,32.07 C49.7366,33.353 48.6936,34.396 47.4105,35.05 C45.9521,35.793 44.043,35.793 40.2247,35.793 L10.9084,35.793 C7.0901,35.793 5.1809,35.793 3.7225,35.05 C2.4397,34.396 1.3967,33.353 0.7431,32.07 C1.42108547e-14,30.612 1.42108547e-14,28.703 1.42108547e-14,24.884 L1.42108547e-14,10.908 Z" fill-opacity="0.5" fill="#383EDE"></path>
                </g>
                <path d="M33.583,24.856 L45.5192,24.856 L48.8983,34.14 C49.7227,36.405 50.1349,37.538 49.6874,38.497 C49.2398,39.457 48.1073,39.869 45.8423,40.694 L44.9122,41.032 C42.6472,41.857 41.5146,42.269 40.5548,41.821 C39.5951,41.374 39.1828,40.241 38.3584,37.976 L33.583,24.856 Z M44.0985,37.405 C45.0687,37.052 45.5689,35.979 45.2158,35.009 C44.8627,34.039 43.79,33.538 42.8198,33.891 C41.8496,34.245 41.3494,35.317 41.7025,36.287 C42.0556,37.258 43.1284,37.758 44.0985,37.405 Z" id="Shape" fill="#FFFFFF"></path>
            </g>
            <path d="M115.992,102.556 L115.992,91.36 L117.73,91.36 L123.735,99.778 L122.354,99.072 L123.355,99.072 L123.355,91.36 L125.279,91.36 L125.279,102.556 L123.549,102.556 L117.544,94.13 L118.925,94.836 L117.924,94.836 L117.924,102.556 L115.992,102.556 Z M128.049,102.556 L128.049,91.36 L130.05,91.36 L130.05,100.872 L135.178,100.872 L135.178,102.556 L128.049,102.556 Z M143.883,102.556 L140.881,91.36 L142.96,91.36 L144.884,99.763 L144.993,99.763 L147.204,91.36 L148.98,91.36 L151.215,99.763 L151.323,99.763 L153.24,91.36 L155.303,91.36 L152.309,102.556 L150.431,102.556 L148.15,94.541 L148.034,94.541 L145.768,102.556 L143.883,102.556 Z M158.585,102.695 C158.052,102.695 157.574,102.592 157.15,102.385 C156.731,102.178 156.4,101.886 156.157,101.508 C155.919,101.125 155.8,100.675 155.8,100.158 L155.8,100.143 C155.8,99.641 155.924,99.209 156.172,98.847 C156.421,98.48 156.785,98.193 157.266,97.986 C157.747,97.779 158.332,97.658 159.02,97.621 L162.154,97.427 L162.154,98.7 L159.291,98.886 C158.748,98.917 158.347,99.031 158.089,99.227 C157.83,99.424 157.701,99.698 157.701,100.05 L157.701,100.065 C157.701,100.427 157.838,100.709 158.112,100.911 C158.391,101.113 158.745,101.213 159.175,101.213 C159.563,101.213 159.909,101.136 160.214,100.981 C160.519,100.825 160.76,100.616 160.936,100.352 C161.112,100.083 161.2,99.781 161.2,99.444 L161.2,96.76 C161.2,96.336 161.065,96.013 160.796,95.79 C160.527,95.563 160.129,95.449 159.601,95.449 C159.162,95.449 158.802,95.527 158.523,95.682 C158.244,95.832 158.055,96.046 157.957,96.326 L157.949,96.357 L156.126,96.357 L156.133,96.287 C156.196,95.811 156.382,95.395 156.692,95.038 C157.002,94.681 157.414,94.404 157.926,94.208 C158.438,94.011 159.027,93.913 159.694,93.913 C160.429,93.913 161.05,94.027 161.556,94.254 C162.063,94.477 162.449,94.802 162.712,95.232 C162.976,95.656 163.108,96.165 163.108,96.76 L163.108,102.556 L161.2,102.556 L161.2,101.392 L161.068,101.392 C160.913,101.661 160.711,101.894 160.463,102.09 C160.219,102.287 159.94,102.437 159.625,102.54 C159.309,102.643 158.963,102.695 158.585,102.695 Z M165.505,102.556 L165.505,90.794 L167.437,90.794 L167.437,102.556 L165.505,102.556 Z M169.943,102.556 L169.943,90.794 L171.875,90.794 L171.875,102.556 L169.943,102.556 Z M177.934,102.726 C177.091,102.726 176.367,102.548 175.762,102.191 C175.162,101.834 174.699,101.327 174.373,100.67 C174.047,100.013 173.884,99.235 173.884,98.335 L173.884,98.327 C173.884,97.438 174.045,96.662 174.365,96 C174.691,95.338 175.152,94.826 175.746,94.464 C176.341,94.096 177.039,93.913 177.841,93.913 C178.648,93.913 179.341,94.091 179.92,94.448 C180.505,94.8 180.955,95.294 181.27,95.93 C181.586,96.566 181.743,97.311 181.743,98.164 L181.743,98.801 L174.854,98.801 L174.854,97.505 L180.797,97.505 L179.881,98.715 L179.881,97.947 C179.881,97.383 179.796,96.915 179.625,96.543 C179.455,96.171 179.217,95.891 178.912,95.705 C178.612,95.519 178.263,95.426 177.864,95.426 C177.466,95.426 177.112,95.524 176.801,95.721 C176.496,95.912 176.253,96.196 176.072,96.574 C175.896,96.946 175.808,97.404 175.808,97.947 L175.808,98.723 C175.808,99.245 175.896,99.693 176.072,100.065 C176.248,100.432 176.496,100.717 176.817,100.919 C177.143,101.115 177.528,101.213 177.973,101.213 C178.319,101.213 178.617,101.164 178.865,101.066 C179.119,100.963 179.323,100.841 179.478,100.701 C179.633,100.557 179.742,100.419 179.804,100.29 L179.827,100.236 L181.658,100.236 L181.643,100.306 C181.575,100.58 181.451,100.859 181.27,101.144 C181.094,101.423 180.854,101.684 180.549,101.927 C180.249,102.165 179.881,102.359 179.447,102.509 C179.013,102.654 178.508,102.726 177.934,102.726 Z M187.011,102.594 C186.039,102.594 185.338,102.416 184.909,102.059 C184.48,101.702 184.265,101.118 184.265,100.306 L184.265,95.573 L182.946,95.573 L182.946,94.076 L184.265,94.076 L184.265,91.997 L186.228,91.997 L186.228,94.076 L188.012,94.076 L188.012,95.573 L186.228,95.573 L186.228,99.848 C186.228,100.267 186.316,100.575 186.491,100.771 C186.673,100.963 186.962,101.058 187.36,101.058 C187.5,101.058 187.614,101.056 187.702,101.05 C187.795,101.04 187.898,101.03 188.012,101.019 L188.012,102.509 C187.878,102.535 187.722,102.556 187.547,102.571 C187.376,102.587 187.197,102.594 187.011,102.594 Z" id="Shape" fill="#152A62" fill-rule="nonzero"></path>
            <path d="M115.585,116.556 L115.585,108.922 L118.499,108.922 C118.989,108.922 119.416,109.018 119.779,109.208 C120.146,109.395 120.43,109.658 120.631,109.996 C120.832,110.335 120.933,110.733 120.933,111.192 L120.933,111.202 C120.933,111.731 120.797,112.19 120.525,112.578 C120.254,112.966 119.878,113.235 119.399,113.387 L121.165,116.556 L120.049,116.556 L118.415,113.535 C118.408,113.535 118.399,113.535 118.388,113.535 C118.378,113.535 118.369,113.535 118.362,113.535 L116.537,113.535 L116.537,116.556 L115.585,116.556 Z M116.537,112.689 L118.415,112.689 C118.905,112.689 119.282,112.564 119.547,112.313 C119.815,112.059 119.949,111.7 119.949,111.234 L119.949,111.224 C119.949,110.769 119.809,110.412 119.531,110.155 C119.252,109.898 118.866,109.769 118.372,109.769 L116.537,109.769 L116.537,112.689 Z M122.567,116.556 L122.567,110.853 L123.487,110.853 L123.487,116.556 L122.567,116.556 Z M123.033,109.753 C122.86,109.753 122.71,109.691 122.583,109.568 C122.46,109.441 122.398,109.291 122.398,109.118 C122.398,108.942 122.46,108.792 122.583,108.669 C122.71,108.545 122.86,108.483 123.033,108.483 C123.209,108.483 123.359,108.545 123.482,108.669 C123.606,108.792 123.667,108.942 123.667,109.118 C123.667,109.291 123.606,109.441 123.482,109.568 C123.359,109.691 123.209,109.753 123.033,109.753 Z M124.408,118.513 C124.383,118.513 124.359,118.513 124.334,118.513 C124.306,118.513 124.277,118.513 124.249,118.513 L124.249,117.698 C124.274,117.698 124.297,117.698 124.318,117.698 C124.339,117.698 124.362,117.698 124.387,117.698 C124.697,117.698 124.916,117.635 125.043,117.508 C125.173,117.384 125.238,117.166 125.238,116.852 L125.238,110.853 L126.159,110.853 L126.159,116.836 C126.159,117.421 126.016,117.846 125.73,118.111 C125.448,118.379 125.007,118.513 124.408,118.513 Z M125.699,109.753 C125.526,109.753 125.376,109.691 125.249,109.568 C125.126,109.441 125.064,109.291 125.064,109.118 C125.064,108.942 125.126,108.792 125.249,108.669 C125.376,108.545 125.526,108.483 125.699,108.483 C125.875,108.483 126.025,108.545 126.148,108.669 C126.272,108.792 126.333,108.942 126.333,109.118 C126.333,109.291 126.272,109.441 126.148,109.568 C126.025,109.691 125.875,109.753 125.699,109.753 Z M127.952,116.556 L127.952,108.589 L128.872,108.589 L128.872,116.556 L127.952,116.556 Z M131.544,116.556 L129.317,113.763 L129.994,113.175 L132.702,116.556 L131.544,116.556 Z M128.756,114.503 L128.714,113.345 L128.957,113.345 L131.422,110.853 L132.538,110.853 L129.83,113.466 L129.608,113.683 L128.756,114.503 Z M135.527,116.656 C135.104,116.656 134.73,116.593 134.405,116.466 C134.081,116.335 133.82,116.154 133.623,115.921 C133.429,115.688 133.314,115.415 133.279,115.101 L134.22,115.101 C134.298,115.337 134.45,115.528 134.675,115.672 C134.901,115.817 135.195,115.889 135.559,115.889 C135.816,115.889 136.042,115.852 136.236,115.778 C136.433,115.7 136.588,115.596 136.701,115.466 C136.814,115.332 136.87,115.178 136.87,115.006 L136.87,114.995 C136.87,114.801 136.793,114.637 136.638,114.503 C136.483,114.366 136.229,114.255 135.876,114.17 L134.993,113.958 C134.636,113.874 134.344,113.764 134.115,113.63 C133.885,113.493 133.716,113.325 133.607,113.128 C133.497,112.927 133.443,112.691 133.443,112.419 L133.443,112.414 C133.443,112.096 133.534,111.812 133.718,111.562 C133.905,111.312 134.159,111.114 134.479,110.97 C134.8,110.825 135.162,110.753 135.564,110.753 C135.962,110.753 136.315,110.816 136.622,110.943 C136.932,111.067 137.181,111.243 137.368,111.472 C137.558,111.701 137.674,111.971 137.717,112.281 L136.812,112.281 C136.752,112.056 136.615,111.872 136.4,111.731 C136.185,111.59 135.904,111.52 135.559,111.52 C135.333,111.52 135.132,111.557 134.956,111.631 C134.779,111.701 134.64,111.8 134.538,111.927 C134.435,112.054 134.384,112.202 134.384,112.371 L134.384,112.382 C134.384,112.509 134.418,112.622 134.485,112.72 C134.552,112.819 134.656,112.906 134.797,112.98 C134.938,113.054 135.12,113.119 135.342,113.175 L136.22,113.387 C136.756,113.517 137.154,113.704 137.415,113.948 C137.68,114.191 137.812,114.517 137.812,114.926 L137.812,114.937 C137.812,115.275 137.712,115.575 137.51,115.836 C137.309,116.094 137.036,116.295 136.691,116.439 C136.349,116.584 135.961,116.656 135.527,116.656 Z M141.584,116.656 C141.044,116.656 140.577,116.538 140.182,116.302 C139.79,116.062 139.487,115.722 139.272,115.281 C139.06,114.84 138.955,114.316 138.955,113.71 L138.955,113.699 C138.955,113.089 139.06,112.564 139.272,112.123 C139.487,111.682 139.79,111.343 140.182,111.107 C140.577,110.871 141.044,110.753 141.584,110.753 C142.127,110.753 142.594,110.871 142.985,111.107 C143.377,111.343 143.678,111.682 143.89,112.123 C144.105,112.564 144.213,113.089 144.213,113.699 L144.213,113.71 C144.213,114.316 144.105,114.84 143.89,115.281 C143.678,115.722 143.377,116.062 142.985,116.302 C142.594,116.538 142.127,116.656 141.584,116.656 Z M141.584,115.841 C141.943,115.841 142.248,115.757 142.499,115.588 C142.749,115.418 142.94,115.175 143.07,114.858 C143.204,114.54 143.271,114.158 143.271,113.71 L143.271,113.699 C143.271,113.248 143.204,112.863 143.07,112.546 C142.94,112.229 142.749,111.987 142.499,111.821 C142.248,111.652 141.943,111.567 141.584,111.567 C141.224,111.567 140.919,111.652 140.668,111.821 C140.418,111.987 140.226,112.229 140.092,112.546 C139.961,112.863 139.896,113.248 139.896,113.699 L139.896,113.71 C139.896,114.158 139.961,114.54 140.092,114.858 C140.226,115.175 140.418,115.418 140.668,115.588 C140.919,115.757 141.224,115.841 141.584,115.841 Z M147.043,116.556 L144.932,110.853 L145.905,110.853 L147.466,115.55 L147.55,115.55 L149.111,110.853 L150.084,110.853 L147.974,116.556 L147.043,116.556 Z M153.417,116.656 C152.874,116.656 152.406,116.536 152.015,116.296 C151.627,116.057 151.327,115.718 151.116,115.281 C150.908,114.84 150.804,114.322 150.804,113.726 L150.804,113.72 C150.804,113.131 150.908,112.615 151.116,112.17 C151.327,111.726 151.625,111.379 152.01,111.128 C152.394,110.878 152.844,110.753 153.358,110.753 C153.877,110.753 154.321,110.873 154.691,111.112 C155.065,111.352 155.351,111.687 155.548,112.117 C155.749,112.544 155.85,113.041 155.85,113.609 L155.85,113.969 L151.28,113.969 L151.28,113.234 L155.379,113.234 L154.924,113.905 L154.924,113.54 C154.924,113.093 154.857,112.724 154.723,112.435 C154.589,112.146 154.404,111.931 154.168,111.79 C153.932,111.645 153.66,111.573 153.353,111.573 C153.046,111.573 152.771,111.648 152.528,111.8 C152.288,111.948 152.098,112.169 151.957,112.461 C151.816,112.754 151.745,113.114 151.745,113.54 L151.745,113.905 C151.745,114.311 151.814,114.658 151.951,114.947 C152.089,115.233 152.285,115.454 152.539,115.609 C152.792,115.76 153.092,115.836 153.438,115.836 C153.695,115.836 153.919,115.801 154.11,115.73 C154.3,115.66 154.457,115.57 154.58,115.461 C154.704,115.351 154.79,115.24 154.84,115.127 L154.861,115.08 L155.781,115.08 L155.771,115.122 C155.721,115.316 155.633,115.505 155.506,115.688 C155.383,115.868 155.222,116.032 155.025,116.18 C154.827,116.325 154.593,116.441 154.321,116.529 C154.053,116.614 153.752,116.656 153.417,116.656 Z M157.278,116.556 L157.278,110.853 L158.199,110.853 L158.199,111.7 L158.283,111.7 C158.393,111.4 158.578,111.167 158.839,111.001 C159.1,110.836 159.422,110.753 159.807,110.753 C159.895,110.753 159.981,110.758 160.066,110.769 C160.154,110.776 160.221,110.783 160.267,110.79 L160.267,111.684 C160.172,111.666 160.078,111.654 159.986,111.647 C159.898,111.636 159.803,111.631 159.701,111.631 C159.408,111.631 159.149,111.689 158.923,111.805 C158.698,111.922 158.519,112.084 158.389,112.292 C158.262,112.5 158.199,112.743 158.199,113.022 L158.199,116.556 L157.278,116.556 Z M161.457,116.556 L161.457,108.589 L162.377,108.589 L162.377,111.71 L162.462,111.71 C162.607,111.407 162.815,111.172 163.086,111.007 C163.358,110.837 163.703,110.753 164.123,110.753 C164.55,110.753 164.911,110.836 165.207,111.001 C165.504,111.164 165.729,111.402 165.885,111.715 C166.04,112.029 166.117,112.412 166.117,112.863 L166.117,116.556 L165.197,116.556 L165.197,113.085 C165.197,112.571 165.088,112.19 164.869,111.943 C164.654,111.693 164.319,111.567 163.864,111.567 C163.561,111.567 163.298,111.633 163.076,111.763 C162.854,111.894 162.681,112.079 162.557,112.318 C162.437,112.558 162.377,112.846 162.377,113.181 L162.377,116.556 L161.457,116.556 Z M170.111,116.656 C169.568,116.656 169.101,116.536 168.709,116.296 C168.321,116.057 168.022,115.718 167.81,115.281 C167.602,114.84 167.498,114.322 167.498,113.726 L167.498,113.72 C167.498,113.131 167.602,112.615 167.81,112.17 C168.022,111.726 168.32,111.379 168.704,111.128 C169.088,110.878 169.538,110.753 170.053,110.753 C170.571,110.753 171.016,110.873 171.386,111.112 C171.76,111.352 172.045,111.687 172.243,112.117 C172.444,112.544 172.544,113.041 172.544,113.609 L172.544,113.969 L167.974,113.969 L167.974,113.234 L172.073,113.234 L171.619,113.905 L171.619,113.54 C171.619,113.093 171.552,112.724 171.418,112.435 C171.284,112.146 171.098,111.931 170.862,111.79 C170.626,111.645 170.354,111.573 170.048,111.573 C169.741,111.573 169.466,111.648 169.222,111.8 C168.983,111.948 168.792,112.169 168.651,112.461 C168.51,112.754 168.439,113.114 168.439,113.54 L168.439,113.905 C168.439,114.311 168.508,114.658 168.646,114.947 C168.783,115.233 168.979,115.454 169.233,115.609 C169.487,115.76 169.787,115.836 170.132,115.836 C170.39,115.836 170.614,115.801 170.804,115.73 C170.994,115.66 171.151,115.57 171.275,115.461 C171.398,115.351 171.485,115.24 171.534,115.127 L171.555,115.08 L172.476,115.08 L172.465,115.122 C172.416,115.316 172.327,115.505 172.2,115.688 C172.077,115.868 171.917,116.032 171.719,116.18 C171.522,116.325 171.287,116.441 171.016,116.529 C170.748,116.614 170.446,116.656 170.111,116.656 Z M173.994,116.556 L173.994,110.853 L174.914,110.853 L174.914,116.556 L173.994,116.556 Z M174.459,109.753 C174.286,109.753 174.136,109.691 174.01,109.568 C173.886,109.441 173.824,109.291 173.824,109.118 C173.824,108.942 173.886,108.792 174.01,108.669 C174.136,108.545 174.286,108.483 174.459,108.483 C174.635,108.483 174.785,108.545 174.909,108.669 C175.032,108.792 175.094,108.942 175.094,109.118 C175.094,109.291 175.032,109.441 174.909,109.568 C174.785,109.691 174.635,109.753 174.459,109.753 Z M178.754,116.656 C178.275,116.656 177.855,116.534 177.495,116.291 C177.136,116.048 176.857,115.706 176.66,115.265 C176.462,114.821 176.363,114.302 176.363,113.71 L176.363,113.699 C176.363,113.103 176.462,112.585 176.66,112.144 C176.857,111.703 177.134,111.361 177.49,111.118 C177.85,110.874 178.271,110.753 178.754,110.753 C179.015,110.753 179.26,110.795 179.49,110.88 C179.722,110.961 179.929,111.075 180.109,111.224 C180.288,111.372 180.429,111.548 180.532,111.752 L180.616,111.752 L180.616,108.589 L181.537,108.589 L181.537,116.556 L180.616,116.556 L180.616,115.646 L180.532,115.646 C180.415,115.857 180.269,116.039 180.093,116.191 C179.916,116.339 179.715,116.453 179.49,116.534 C179.264,116.615 179.019,116.656 178.754,116.656 Z M178.966,115.841 C179.312,115.841 179.61,115.755 179.86,115.582 C180.11,115.409 180.303,115.164 180.437,114.847 C180.571,114.526 180.638,114.147 180.638,113.71 L180.638,113.699 C180.638,113.258 180.571,112.879 180.437,112.562 C180.303,112.244 180.11,111.999 179.86,111.827 C179.61,111.654 179.312,111.567 178.966,111.567 C178.62,111.567 178.322,111.654 178.072,111.827 C177.825,111.996 177.635,112.239 177.501,112.557 C177.37,112.874 177.305,113.255 177.305,113.699 L177.305,113.71 C177.305,114.15 177.37,114.531 177.501,114.852 C177.635,115.17 177.825,115.415 178.072,115.588 C178.322,115.757 178.62,115.841 178.966,115.841 Z" id="Shape" fill="#A1AAC0" fill-rule="nonzero"></path>
            <rect id="Rectangle" fill="#3478F6" fill-rule="nonzero" x="114.611" y="143.556" width="65" height="20.2222" rx="10.1111"></rect>
            <path d="M127.262,157.807 L125.067,149.665 L126.387,149.665 L127.882,155.99 L127.956,155.99 L129.654,149.665 L130.833,149.665 L132.543,155.99 L132.616,155.99 L134.106,149.665 L135.42,149.665 L133.225,157.807 L132.029,157.807 L130.28,151.724 L130.207,151.724 L128.458,157.807 L127.262,157.807 Z M138.772,157.925 C138.174,157.925 137.66,157.797 137.232,157.542 C136.803,157.282 136.472,156.915 136.238,156.441 C136.009,155.967 135.894,155.407 135.894,154.76 L135.894,154.754 C135.894,154.115 136.009,153.556 136.238,153.079 C136.472,152.601 136.799,152.228 137.22,151.961 C137.645,151.694 138.142,151.561 138.71,151.561 C139.282,151.561 139.772,151.689 140.183,151.944 C140.596,152.2 140.914,152.559 141.136,153.022 C141.358,153.481 141.469,154.019 141.469,154.636 L141.469,155.065 L136.515,155.065 L136.515,154.19 L140.86,154.19 L140.273,155.003 L140.273,154.512 C140.273,154.075 140.205,153.714 140.07,153.428 C139.938,153.139 139.756,152.922 139.522,152.78 C139.289,152.637 139.02,152.565 138.715,152.565 C138.411,152.565 138.138,152.64 137.897,152.791 C137.66,152.938 137.472,153.156 137.333,153.445 C137.198,153.735 137.13,154.09 137.13,154.512 L137.13,155.003 C137.13,155.405 137.198,155.749 137.333,156.035 C137.469,156.321 137.66,156.539 137.909,156.69 C138.161,156.84 138.458,156.915 138.8,156.915 C139.063,156.915 139.289,156.88 139.477,156.808 C139.669,156.733 139.825,156.641 139.946,156.532 C140.07,156.423 140.154,156.315 140.199,156.21 L140.222,156.165 L141.407,156.165 L141.396,156.216 C141.343,156.419 141.251,156.622 141.119,156.825 C140.987,157.024 140.813,157.207 140.594,157.372 C140.38,157.538 140.12,157.671 139.816,157.773 C139.515,157.875 139.167,157.925 138.772,157.925 Z M142.925,157.807 L142.925,151.679 L144.149,151.679 L144.149,152.605 L144.245,152.605 C144.354,152.277 144.546,152.023 144.821,151.843 C145.099,151.662 145.441,151.572 145.847,151.572 C145.949,151.572 146.049,151.578 146.146,151.589 C146.244,151.6 146.323,151.613 146.383,151.628 L146.383,152.757 C146.274,152.734 146.165,152.717 146.056,152.706 C145.951,152.695 145.84,152.689 145.723,152.689 C145.411,152.689 145.137,152.749 144.9,152.87 C144.666,152.99 144.482,153.159 144.347,153.378 C144.215,153.592 144.149,153.848 144.149,154.145 L144.149,157.807 L142.925,157.807 Z M147.619,157.807 L147.619,149.276 L148.844,149.276 L148.844,157.807 L147.619,157.807 Z M151.479,157.807 L149.278,154.935 L150.186,154.173 L152.974,157.807 L151.479,157.807 Z M148.725,155.702 L148.674,154.258 L148.939,154.258 L151.366,151.679 L152.804,151.679 L150.04,154.478 L149.566,154.867 L148.725,155.702 Z M160.495,157.908 C160.209,157.908 159.946,157.867 159.705,157.784 C159.464,157.698 159.25,157.576 159.062,157.418 C158.878,157.256 158.727,157.064 158.61,156.842 L158.515,156.842 L158.515,157.807 L157.29,157.807 L157.29,149.276 L158.515,149.276 L158.515,152.65 L158.61,152.65 C158.72,152.428 158.868,152.238 159.056,152.08 C159.244,151.918 159.461,151.794 159.705,151.707 C159.95,151.617 160.213,151.572 160.495,151.572 C161.014,151.572 161.464,151.702 161.844,151.961 C162.223,152.217 162.517,152.582 162.724,153.056 C162.931,153.53 163.034,154.09 163.034,154.737 L163.034,154.749 C163.034,155.392 162.929,155.951 162.718,156.425 C162.511,156.898 162.218,157.265 161.838,157.525 C161.458,157.781 161.01,157.908 160.495,157.908 Z M160.145,156.859 C160.487,156.859 160.781,156.774 161.025,156.605 C161.27,156.436 161.456,156.193 161.584,155.877 C161.716,155.561 161.781,155.185 161.781,154.749 L161.781,154.737 C161.781,154.297 161.716,153.921 161.584,153.609 C161.456,153.293 161.27,153.05 161.025,152.881 C160.781,152.708 160.487,152.622 160.145,152.622 C159.807,152.622 159.513,152.708 159.265,152.881 C159.017,153.05 158.827,153.293 158.695,153.609 C158.563,153.925 158.498,154.301 158.498,154.737 L158.498,154.749 C158.498,155.181 158.563,155.557 158.695,155.877 C158.827,156.193 159.017,156.436 159.265,156.605 C159.513,156.774 159.807,156.859 160.145,156.859 Z M164.507,157.807 L164.507,151.679 L165.737,151.679 L165.737,157.807 L164.507,157.807 Z M165.127,150.585 C164.917,150.585 164.736,150.509 164.586,150.359 C164.435,150.209 164.36,150.028 164.36,149.817 C164.36,149.607 164.435,149.428 164.586,149.281 C164.736,149.131 164.917,149.056 165.127,149.056 C165.338,149.056 165.519,149.131 165.669,149.281 C165.82,149.428 165.895,149.607 165.895,149.817 C165.895,150.028 165.82,150.209 165.669,150.359 C165.519,150.509 165.338,150.585 165.127,150.585 Z M166.764,159.906 C166.719,159.906 166.672,159.904 166.623,159.9 C166.574,159.9 166.53,159.9 166.493,159.9 L166.493,158.896 C166.523,158.896 166.551,158.896 166.577,158.896 C166.604,158.896 166.632,158.896 166.662,158.896 C166.978,158.896 167.202,158.834 167.334,158.71 C167.465,158.586 167.531,158.371 167.531,158.066 L167.531,151.679 L168.755,151.679 L168.755,158.072 C168.755,158.7 168.59,159.163 168.259,159.46 C167.932,159.757 167.433,159.906 166.764,159.906 Z M168.14,150.585 C167.934,150.585 167.753,150.509 167.599,150.359 C167.448,150.209 167.373,150.028 167.373,149.817 C167.373,149.607 167.448,149.428 167.599,149.281 C167.753,149.131 167.934,149.056 168.14,149.056 C168.355,149.056 168.537,149.131 168.688,149.281 C168.838,149.428 168.913,149.607 168.913,149.817 C168.913,150.028 168.838,150.209 168.688,150.359 C168.537,150.509 168.355,150.585 168.14,150.585 Z" id="Shape" fill="#FFFFFF" fill-rule="nonzero"></path>
            <path d="M237.872,156.534 C237.487,156.534 237.176,156.223 237.176,155.845 L237.176,148.862 L237.236,147.825 L236.821,148.351 L235.88,149.351 C235.762,149.484 235.584,149.558 235.406,149.558 C235.073,149.558 234.792,149.314 234.792,148.958 C234.792,148.78 234.866,148.647 234.992,148.521 L237.339,146.263 C237.517,146.085 237.687,146.026 237.872,146.026 C238.065,146.026 238.235,146.085 238.413,146.263 L240.761,148.521 C240.887,148.647 240.953,148.78 240.953,148.958 C240.953,149.314 240.672,149.558 240.339,149.558 C240.161,149.558 239.99,149.484 239.872,149.351 L238.931,148.351 L238.517,147.825 L238.576,148.862 L238.576,155.845 C238.576,156.223 238.265,156.534 237.872,156.534 Z M233.829,162.177 C232.296,162.177 231.474,161.37 231.474,159.844 L231.474,153.002 C231.474,151.476 232.296,150.669 233.829,150.669 L235.717,150.669 L235.717,152.187 L233.955,152.187 C233.333,152.187 232.992,152.505 232.992,153.157 L232.992,159.689 C232.992,160.341 233.333,160.659 233.955,160.659 L241.79,160.659 C242.405,160.659 242.753,160.341 242.753,159.689 L242.753,153.157 C242.753,152.505 242.405,152.187 241.79,152.187 L240.05,152.187 L240.05,150.669 L241.909,150.669 C243.456,150.669 244.264,151.476 244.264,153.002 L244.264,159.844 C244.264,161.37 243.456,162.177 241.909,162.177 L233.829,162.177 Z" id="Shape" fill="#3478F6" fill-rule="nonzero"></path>
            <path d="M24.5,0 L236.5,0 C250.030976,-3.55271368e-15 261,10.9690236 261,24.5 L261,193 L261,193 L0,193 L0,24.5 C0,10.9690236 10.9690236,0 24.5,0 Z" id="Rectangle" stroke="#445581"></path>
        </g>
    </g>
</svg>