<svg enable-background="new 0 0 300 300" viewBox="0 0 300 300" xmlns="http://www.w3.org/2000/svg"><path d="m214.506 199.013h-129.012c-10.972 0-19.867-8.895-19.867-19.867v-64.215c0-10.972 8.895-19.867 19.867-19.867h129.012c10.972 0 19.867 8.895 19.867 19.867v64.215c0 10.972-8.895 19.867-19.867 19.867z" fill="#e3e0fd"/><ellipse cx="149.639" cy="221.29" fill="#e3e0fd" rx="48.102" ry="3.104"/><path d="m84.478 86.536h-2.479c-5.527 0-9.998 4.392-9.985 9.81l32.446-.172-.022-9.638c0-.001-20.255 0-19.96 0z" fill="#b49cfb" stroke="#152a62" stroke-linejoin="round" stroke-miterlimit="10"/><path d="m171.842 86.536h-89.33l.009.04c5.206.407 10.138 4.599 11.245 9.721l21.959 101.079c1.116 5.14 6.267 9.303 11.51 9.303h80.07l-23.95-110.831c-1.112-5.143-6.266-9.312-11.513-9.312z" fill="#f5f4f9" stroke="#152a62" stroke-linecap="round" stroke-linejoin="round" stroke-miterlimit="10"/><path d="m138.814 197.376c-.831 5.14-5.752 9.304-10.995 9.304h80.801c5.243 0 10.164-4.164 10.995-9.304z" fill="#e3e0fd" stroke="#152a62" stroke-linecap="round" stroke-linejoin="round" stroke-miterlimit="10"/><g fill="#152a62"><path d="m167.848 100.969h-55.814c-.352 0-.657-.246-.731-.591l-.187-.873c-.065-.302.166-.586.474-.586h55.814c.352 0 .657.246.731.591l.187.873c.065.301-.166.586-.474.586z"/><path d="m139.95 115.052h-24.898c-.352 0-.657-.246-.731-.591l-.187-.873c-.064-.302.166-.586.474-.586h24.898c.353 0 .657.246.731.591l.187.873c.065.302-.165.586-.474.586z"/><path d="m170.295 115.052h-22.57c-.352 0-.657-.246-.731-.591l-.187-.873c-.064-.302.166-.586.474-.586h22.57c.352 0 .657.246.731.591l.187.873c.065.302-.165.586-.474.586z"/><path d="m173.884 129.135h-55.814c-.353 0-.657-.246-.731-.591l-.187-.873c-.064-.302.166-.586.474-.586h55.814c.352 0 .657.246.731.591l.187.873c.064.302-.166.586-.474.586z"/><path d="m136.705 143.219h-15.617c-.352 0-.657-.246-.731-.591l-.187-.873c-.064-.302.166-.586.474-.586h15.617c.352 0 .657.246.731.591l.187.873c.065.301-.165.586-.474.586z"/><path d="m177.249 143.219h-33.591c-.352 0-.657-.246-.731-.591l-.187-.873c-.064-.302.166-.586.474-.586h33.591c.352 0 .657.246.731.591l.187.873c.065.301-.166.586-.474.586z"/><path d="m148.333 157.302h-24.13c-.352 0-.657-.246-.731-.591l-.187-.873c-.065-.302.166-.586.474-.586h24.13c.352 0 .657.246.731.591l.187.873c.065.302-.165.586-.474.586z"/><path d="m179.615 157.302h-23.319c-.352 0-.657-.246-.731-.591l-.187-.873c-.065-.302.166-.586.474-.586h23.319c.352 0 .657.246.731.591l.187.873c.064.302-.166.586-.474.586z"/><path d="m146.034 172.576h-17.245c-.352 0-.657-.246-.731-.591l-.187-.873c-.064-.302.166-.586.474-.586h17.245c.352 0 .657.246.731.591l.187.873c.065.301-.165.586-.474.586z"/></g><path d="m157.1 186.705c4.182-2.179 7.064-5.105 8.851-8.477 2.2-4.151-2.547-7.336-5.005-3.407-1.502 2.401-2.96 6.07-.41 9.715.311.444 1.834 2.715 6.298 2.077 3.826-.547 10.381-4.741 9.311-8.93-.671-2.629-4.774-4.634-5.97 2.506-.461 2.751.603 4.749 3.131 5.044 4.282.5 6.668-1.801 7.971-3.457 4.934 1.19 8.518 1.189 11.816-.57" style="fill:none;stroke:#152a62;stroke-width:1.5;stroke-linecap:round;stroke-linejoin:round;stroke-miterlimit:10"/><path d="m219.406 130.122c-8.041 10.308-15.133 19.396-19.098 24.479-5.446 6.982-6.821 14.003-6.447 17.216l2.513 1.96c3.184-.528 10.067-3.591 15.305-10.306 4.622-5.926 11.352-14.55 19.098-24.479z" fill="#84e9d4" stroke="#152a62" stroke-linecap="round" stroke-linejoin="round" stroke-miterlimit="10"/><path d="m231.841 138.464c7.531-9.655 10.949-13.923 10.949-13.923 2.643-3.388 2.039-8.277-1.349-10.92s-8.277-2.039-10.92 1.349c0 0-3.444 4.301-10.949 13.923 0 0-1.173 3.525 4.139 7.273 5.15 3.634 8.13 2.298 8.13 2.298z" fill="#84e9d4" stroke="#152a62" stroke-linecap="round" stroke-linejoin="round" stroke-miterlimit="10"/><path d="m191.674 177.214c-.61-.476-.719-1.357-.243-1.967l2.485-3.421 2.41 1.91-2.685 3.235c-.476.611-1.356.719-1.967.243z" fill="#152a62" stroke="#152a62" stroke-linecap="round" stroke-linejoin="round" stroke-miterlimit="10"/><path d="m213.828 149.048c3.814 2.64 6.229 2.781 6.983 2.718l2.684-3.441c-.726.07-3.191-.047-6.953-2.69-4.376-3.075-4.384-5.865-4.31-6.319l-2.767 3.547c-.024.71.267 3.35 4.363 6.185z" fill="#f5f4f9" stroke="#152a62" stroke-linecap="round" stroke-linejoin="round" stroke-miterlimit="10"/><path d="m218.933 134.247-2.048-1.598c-.94-.733-1.108-2.09-.374-3.03l12.675-16.249c.733-.94 2.09-1.108 3.03-.374l5.837 4.553-.97 1.243-2.087-1.628-13.033 16.708c-.734.941-2.09 1.108-3.03.375z" fill="#b49cfb" stroke="#152a62" stroke-linejoin="round" stroke-miterlimit="10"/><path d="m217.677 133.267-2.048-1.598c-.94-.733-1.108-2.09-.374-3.03l12.675-16.249c.733-.94 2.09-1.108 3.03-.374l3.75 2.925-14.003 17.951c-.734.941-2.09 1.108-3.03.375z" fill="#b49cfb" stroke="#152a62" stroke-linejoin="round" stroke-miterlimit="10"/></svg>