<svg fill="none" height="190" viewBox="0 0 300 190" width="300" xmlns="http://www.w3.org/2000/svg">
    <path
        d="M214.882 41.0234H85.8679C74.8952 41.0234 66 49.9186 66 60.8913V125.108C66 136.08 74.8952 144.975 85.8679 144.975H214.882C225.855 144.975 234.75 136.08 234.75 125.108V60.8913C234.75 49.9186 225.855 41.0234 214.882 41.0234Z"
        fill="#E3E0FD" />
    <path d="M182.169 111.918L181.072 107.364H160.613L159.516 111.918H182.169Z" fill="#152A62"
        stroke="#152A62" stroke-miterlimit="10" />
    <path
        d="M187.475 121.173L187.385 121.16C185.714 120.92 184.349 119.705 183.916 118.074L181.071 107.363H160.611L157.766 118.074C157.333 119.705 155.968 120.92 154.297 121.16L154.208 121.173C153.306 121.303 152.637 122.075 152.637 122.986C152.637 123.998 153.457 124.818 154.469 124.818H187.214C188.226 124.818 189.046 123.998 189.046 122.986C189.046 122.075 188.377 121.303 187.475 121.173Z"
        fill="#E3E0FD" stroke="#152A62" stroke-miterlimit="10" />
    <path d="M182.045 112.74L180.944 108.167H160.739L159.637 112.74H182.045Z" fill="#152A62"
        stroke="#152A62" stroke-miterlimit="10" />
    <path
        d="M223.955 104.419V39.6154C223.955 36.6823 221.578 34.3047 218.645 34.3047L125.583 34.3047C122.65 34.3047 120.272 36.6823 120.272 39.6154V104.419C120.272 107.352 122.65 109.73 125.583 109.73H218.645C221.578 109.73 223.955 107.352 223.955 104.419Z"
        fill="#152A62" stroke="#152A62" stroke-miterlimit="10" />
    <path
        d="M222.684 104.419V39.6154C222.684 36.6823 220.306 34.3047 217.373 34.3047L124.311 34.3047C121.378 34.3047 119 36.6823 119 39.6154V104.419C119 107.352 121.378 109.73 124.311 109.73H217.373C220.306 109.73 222.684 107.352 222.684 104.419Z"
        fill="white" stroke="#152A62" stroke-miterlimit="10" />
    <path
        d="M119.001 98.291V104.421C119.001 107.354 121.379 109.732 124.311 109.732H217.373C220.306 109.732 222.683 107.354 222.683 104.421V98.291H119.001Z"
        fill="#E3E0FD" stroke="#152A62" stroke-miterlimit="10" />
    <path
        d="M222.684 44.0593V39.6154C222.684 36.6827 220.306 34.3047 217.374 34.3047H124.312C121.379 34.3047 119.001 36.6827 119.001 39.6154V44.0593H222.684Z"
        fill="#B49CFB" stroke="#152A62" stroke-miterlimit="10" />
    <path
        d="M214.731 37.7716H144.658C143.879 37.7716 143.248 38.4027 143.248 39.1811C143.248 39.9595 143.879 40.5906 144.658 40.5906H214.731C215.51 40.5906 216.141 39.9595 216.141 39.1811C216.141 38.4027 215.51 37.7716 214.731 37.7716Z"
        fill="#F0F5FF" stroke="#152A62" stroke-linejoin="round" />
    <path
        d="M126.673 40.7012C127.513 40.7012 128.194 40.0204 128.194 39.1805C128.194 38.3406 127.513 37.6598 126.673 37.6598C125.833 37.6598 125.152 38.3406 125.152 39.1805C125.152 40.0204 125.833 40.7012 126.673 40.7012Z"
        fill="#FFB7AD" stroke="#152A62" stroke-miterlimit="10" />
    <path
        d="M131.903 40.7012C132.742 40.7012 133.423 40.0204 133.423 39.1805C133.423 38.3406 132.742 37.6598 131.903 37.6598C131.063 37.6598 130.382 38.3406 130.382 39.1805C130.382 40.0204 131.063 40.7012 131.903 40.7012Z"
        fill="white" stroke="#152A62" stroke-linejoin="round" />
    <path
        d="M137.131 40.7012C137.971 40.7012 138.652 40.0204 138.652 39.1805C138.652 38.3406 137.971 37.6598 137.131 37.6598C136.291 37.6598 135.61 38.3406 135.61 39.1805C135.61 40.0204 136.291 40.7012 137.131 40.7012Z"
        fill="#84E9D4" stroke="#152A62" stroke-miterlimit="10" />
    <path clip-rule="evenodd" d="M144.869 22.6184C142.387 25.0673 140.414 27.9829 139.064 31.1975C137.713 34.412 137.012 37.862 137 41.3485C136.988 44.8352 137.667 48.2897 138.996 51.5132C140.324 54.7367 142.278 57.6656 144.743 60.131C147.209 62.5965 150.138 64.5498 153.361 65.8788C156.584 67.2077 160.039 67.8858 163.526 67.8741C167.012 67.8625 170.462 67.1612 173.677 65.8107C174.718 65.3732 175.728 64.8704 176.701 64.3062C176.884 64.607 177.101 64.8888 177.349 65.146L195.562 83.3588C196.469 84.2344 197.683 84.7189 198.943 84.7079C200.203 84.697 201.409 84.1914 202.3 83.3003C203.191 82.4091 203.697 81.2035 203.708 79.9431C203.719 78.6829 203.234 77.4687 202.359 76.562L184.146 58.3493C184.074 58.2794 184 58.2122 183.923 58.1474C187.775 53.4256 189.895 47.4932 189.874 41.3485C189.851 34.3677 187.067 27.6795 182.131 22.7433C177.195 17.807 170.507 15.0236 163.526 15.0001C156.545 14.9768 149.838 17.7154 144.869 22.6184ZM163.5 63C175.374 63 185 53.3741 185 41.5C185 29.6259 175.374 20 163.5 20C151.626 20 142 29.6259 142 41.5C142 53.3741 151.626 63 163.5 63Z"
        fill="#152A62"
        fill-rule="evenodd" />
    <path clip-rule="evenodd" d="M143.869 20.6184C141.387 23.0673 139.414 25.9829 138.064 29.1975C136.713 32.412 136.012 35.8619 136 39.3485C135.988 42.8352 136.667 46.2897 137.995 49.5132C139.324 52.7367 141.278 55.6655 143.743 58.131C146.209 60.5964 149.137 62.5498 152.361 63.8787C155.584 65.2076 159.039 65.8858 162.526 65.8741C166.012 65.8624 169.462 65.1611 172.677 63.8107C175.891 62.4602 178.807 60.4872 181.256 58.0053C186.159 53.0361 188.897 46.3294 188.874 39.3485C188.851 32.3677 186.067 25.6795 181.131 20.7432C176.195 15.807 169.507 13.0235 162.526 13.0001C155.545 12.9768 148.838 15.7154 143.869 20.6184Z"
        fill="white"
        fill-rule="evenodd" />
    <mask style="mask-type:alpha" height="53" id="mask0_36333_6865" maskUnits="userSpaceOnUse" width="53"
        x="136" y="13">
        <path clip-rule="evenodd" d="M143.869 20.6184C141.387 23.0673 139.414 25.9829 138.064 29.1975C136.713 32.412 136.012 35.8619 136 39.3485C135.988 42.8352 136.667 46.2897 137.995 49.5132C139.324 52.7367 141.278 55.6655 143.743 58.131C146.209 60.5964 149.137 62.5498 152.361 63.8787C155.584 65.2076 159.039 65.8858 162.526 65.8741C166.012 65.8624 169.462 65.1611 172.677 63.8107C175.891 62.4602 178.807 60.4872 181.256 58.0053C186.159 53.0361 188.897 46.3294 188.874 39.3485C188.851 32.3677 186.067 25.6795 181.131 20.7432C176.195 15.807 169.507 13.0235 162.526 13.0001C155.545 12.9768 148.838 15.7154 143.869 20.6184Z"
            fill="white"
            fill-rule="evenodd" />
    </mask>
    <g mask="url(#mask0_36333_6865)">
        <path
            d="M417.392 56.0593V40.9985C417.392 31.0591 409.333 23 399.393 23H83.9985C74.0591 23 66 31.0591 66 40.9985V56.0593H417.392Z"
            fill="#B49CFB" stroke="#152A62" stroke-miterlimit="10" stroke-width="2" />
        <path
            d="M390.438 34.7496H152.954C150.316 34.7496 148.177 36.8883 148.177 39.5265C148.177 42.1647 150.316 44.3035 152.954 44.3035H390.438C393.076 44.3035 395.215 42.1647 395.215 39.5265C395.215 36.8883 393.076 34.7496 390.438 34.7496Z"
            fill="#F0F5FF" stroke="#152A62" stroke-linejoin="round" />
    </g>
    <path
        d="M163.193 12.5107C170.064 12.7036 176.612 15.5173 181.484 20.3896L181.949 20.8662C186.688 25.8452 189.351 32.456 189.374 39.3467L189.37 39.9336C189.262 45.8278 187.221 51.4999 183.602 56.0977L201.719 74.2148L201.895 74.4062C202.693 75.3183 203.155 76.4765 203.204 77.6875L203.208 77.9473C203.197 79.2519 202.705 80.5037 201.833 81.4658L201.653 81.6543C200.731 82.5762 199.504 83.1243 198.208 83.1992L197.947 83.208C196.556 83.2201 195.216 82.6853 194.215 81.7188L194.208 81.7119V81.7109L175.996 63.5L175.989 63.4932C175.829 63.3267 175.681 63.1497 175.545 62.9658C174.93 63.3086 174.302 63.6306 173.66 63.9248L172.87 64.2715C169.8 65.5614 166.519 66.27 163.193 66.3633L162.527 66.374C159.197 66.3852 155.895 65.7784 152.789 64.5869L152.171 64.3408C148.886 62.9867 145.902 60.9965 143.39 58.4844C141.035 56.1294 139.138 53.3596 137.795 50.3164L137.533 49.7041C136.179 46.4196 135.488 42.8993 135.5 39.3467L135.511 38.6816C135.604 35.3562 136.312 32.0746 137.603 29.0039L137.868 28.3936C139.232 25.3592 141.147 22.6019 143.518 20.2627L143.998 19.8008C149.009 15.0953 155.637 12.477 162.527 12.5L163.193 12.5107ZM162.5 18.5C150.902 18.5 141.5 27.902 141.5 39.5C141.5 51.098 150.902 60.5 162.5 60.5C174.098 60.5 183.5 51.098 183.5 39.5C183.5 27.902 174.098 18.5 162.5 18.5Z"
        fill="#FFB7AD" stroke="#152A62" />
    <path
        d="M155.213 153.765L153.86 151.997L153.432 152.21C153.441 151.405 153.359 150.569 153.151 149.703L133.803 69.2719C132.278 62.9317 126.407 57.7919 119.818 57.7919H84.8483C84.3997 57.7919 83.9656 57.8198 83.5411 57.8669L82.2962 56.0074L77.5313 60.7723C77.5313 60.7723 77.5269 60.7767 77.5244 60.7793L77.4265 60.8771L77.4284 60.886C75.3586 62.992 74.4734 66.1269 75.3173 69.6341L94.6646 150.065C96.076 155.932 102.162 160.688 108.259 160.688H144.305C147.125 160.688 149.443 159.662 150.992 157.987L155.213 153.766V153.765Z"
        fill="#E3E0FD" stroke="#152A62" stroke-miterlimit="10" />
    <path
        d="M100.321 158.021C102.666 159.675 105.459 160.688 108.26 160.688H144.305C147.125 160.688 149.444 159.661 150.992 157.987L155.213 153.766L153.86 151.998L153.432 152.211C153.441 151.42 153.361 150.599 153.161 149.751L106.345 151.997L100.321 158.021Z"
        fill="#F5F4F9" stroke="#152A62" stroke-miterlimit="10" />
    <path
        d="M149.023 155.968H112.977C106.88 155.968 100.793 151.212 99.3818 145.345L80.0346 64.9143C78.5094 58.5741 82.6146 53.4343 89.204 53.4343H123.467C130.056 53.4343 136.634 58.5741 138.159 64.9143L157.506 145.345C158.918 151.212 155.119 155.968 149.023 155.968Z"
        fill="#152A62" stroke="#152A62" stroke-miterlimit="10" />
    <path
        d="M112.022 152.602C107.949 152.602 103.867 149.41 102.924 145.488L83.577 65.057C83.0546 62.8855 83.4461 60.8278 84.6795 59.2633C85.9295 57.6765 87.8766 56.8033 90.1625 56.8033H94.8714C96.2428 56.8033 97.5659 57.8385 97.8836 59.1616C98.3227 60.9886 100.277 62.4197 102.331 62.4197H115.059C116.025 62.4197 116.81 62.0982 117.27 61.5135C117.692 60.9778 117.811 60.2629 117.614 59.4438C117.451 58.7689 117.584 58.0953 117.976 57.5964C118.373 57.0925 119.007 56.8033 119.714 56.8033H124.424C128.989 56.8033 133.564 60.3786 134.621 64.7742L153.969 145.205C154.436 147.151 154.085 148.994 152.979 150.397C151.858 151.819 150.115 152.603 148.068 152.603H112.023L112.022 152.602Z"
        fill="white" stroke="#152A62" stroke-miterlimit="10" />
    <path d="M80.0596 71.7092L77.8698 73.8006L78.7804 77.651L80.9696 75.5596L80.0596 71.7092Z"
        stroke="#152A62" stroke-linejoin="round" />
    <path d="M81.6105 78.0371L79.4213 80.1285L80.3313 83.9789L82.5211 81.8875L81.6105 78.0371Z"
        stroke="#152A62" stroke-linejoin="round" />
    <path
        d="M122.699 176.109C139.633 176.109 153.361 174.789 153.361 173.161C153.361 171.532 139.633 170.212 122.699 170.212C105.765 170.212 92.0378 171.532 92.0378 173.161C92.0378 174.789 105.765 176.109 122.699 176.109Z"
        fill="#E3E0FD" />
</svg>
