<svg width="300" height="214" viewBox="0 0 300 214" fill="none" xmlns="http://www.w3.org/2000/svg">
<path d="M214.506 156.013H85.494C74.522 156.013 65.627 147.118 65.627 136.146V71.9314C65.627 60.9594 74.522 52.0645 85.494 52.0645H214.506C225.478 52.0645 234.373 60.9594 234.373 71.9314V136.146C234.373 147.118 225.478 156.013 214.506 156.013Z" fill="#E3E0FD"/>
<path d="M145.086 92.4409C145.086 92.4409 179.152 69.6489 181.447 68.1199C183.546 66.7209 187.025 65.7939 188.584 67.4549C191.243 70.2889 190.088 74.9419 186.975 78.1949C184.905 80.3579 148.939 113.627 148.939 113.627" fill="#E3E0FD"/>
<path d="M145.086 92.4409C145.086 92.4409 179.152 69.6489 181.447 68.1199C183.546 66.7209 187.025 65.7939 188.584 67.4549C191.243 70.2889 190.088 74.9419 186.975 78.1949C184.905 80.3579 148.939 113.627 148.939 113.627" stroke="#152A62" stroke-miterlimit="10" stroke-linejoin="round"/>
<path d="M181.332 136.11L180.049 134.434L179.643 134.636C179.652 133.872 179.574 133.079 179.377 132.259L161.033 55.9969C159.587 49.9849 154.32 45.1119 148.072 45.1119H115.215C114.79 45.1119 114.378 45.1389 113.976 45.1829L112.796 43.4199L108.278 47.9379C108.276 47.9399 108.274 47.9419 108.272 47.9439L108.179 48.0369L108.181 48.0449C106.219 50.0419 105.379 53.0139 106.179 56.3399L124.523 132.602C125.861 138.165 131.632 142.674 137.413 142.674H170.99C173.664 142.674 175.862 141.701 177.331 140.113L181.332 136.11Z" fill="#E3E0FD" stroke="#152A62" stroke-miterlimit="10" stroke-linejoin="round"/>
<path d="M129.886 140.144C132.109 141.713 134.757 142.672 137.413 142.672H170.99C173.664 142.672 175.862 141.699 177.331 140.111L181.333 136.109L180.05 134.433L179.644 134.635C179.653 133.885 179.576 133.107 179.387 132.303L135.598 134.433L129.886 140.144Z" fill="#F5F4F9" stroke="#152A62" stroke-miterlimit="10" stroke-linejoin="round"/>
<path d="M175.463 138.199H141.886C136.105 138.199 130.334 133.69 128.996 128.127L110.652 51.8655C109.206 45.8535 113.098 40.9805 119.346 40.9805H151.233C157.481 40.9805 163.718 45.8535 165.164 51.8655L183.508 128.127C184.846 133.69 181.244 138.199 175.463 138.199Z" fill="#152A62" stroke="#152A62" stroke-miterlimit="10" stroke-linejoin="round"/>
<path d="M140.98 135.006C137.118 135.006 133.248 131.98 132.353 128.261L114.009 51.9989C113.514 49.9399 113.885 47.9889 115.054 46.5049C116.239 44.9999 118.085 44.1719 120.253 44.1719H124.418C125.718 44.1719 126.973 45.1539 127.274 46.4079C127.691 48.1399 129.543 49.4969 131.491 49.4969H143.559C144.474 49.4969 145.219 49.1919 145.655 48.6379C146.055 48.1299 146.168 47.4519 145.981 46.6759C145.827 46.0359 145.952 45.3969 146.324 44.9239C146.701 44.4459 147.301 44.1719 147.972 44.1719H152.138C156.467 44.1719 160.804 47.5619 161.807 51.7289L180.151 127.991C180.595 129.835 180.261 131.583 179.213 132.914C178.15 134.263 176.497 135.005 174.557 135.005L140.98 135.006Z" fill="white" stroke="#152A62" stroke-miterlimit="10" stroke-linejoin="round"/>
<path d="M110.675 58.3086L108.599 60.2906L109.462 63.9416L111.538 61.9586L110.675 58.3086Z" stroke="#152A62" stroke-miterlimit="10" stroke-linejoin="round"/>
<path d="M112.146 64.3066L110.07 66.2896L110.933 69.9406L113.009 67.9576L112.146 64.3066Z" stroke="#152A62" stroke-miterlimit="10" stroke-linejoin="round"/>
<path d="M142.672 142.672C141.534 119.952 125.04 112.329 125.04 112.329L119.469 90.609C117.518 84.455 110.917 81.799 106.561 83.705C105.113 84.338 104.278 85.872 104.53 87.431L106.473 95.499C106.531 95.741 106.568 95.987 106.584 96.236L108.174 121.398L100.376 129.922C98.9827 131.643 97.7217 134.881 98.3807 136.995C99.6757 141.147 103.36 150.066 109.314 154.283C115.965 158.994 125.583 160.737 130.157 161.327C131.787 161.537 133.431 161.14 134.786 160.208L159.989 142.674H142.672V142.672Z" fill="#E3E0FD" stroke="#152A62" stroke-miterlimit="10" stroke-linejoin="round"/>
<path d="M187.108 122.017L181.977 125.519C179.707 127.068 176.644 126.722 174.778 124.704C172.786 122.551 172.814 119.22 174.841 117.101L178.379 113.403C181.102 110.123 186.254 110.539 188.417 114.212C189.933 116.787 189.381 120.078 187.108 122.017Z" fill="#E3E0FD" stroke="#152A62" stroke-miterlimit="10" stroke-linejoin="round"/>
<path d="M185.263 109.682L179.892 113.347C177.516 114.969 174.31 114.606 172.356 112.494C170.271 110.241 170.3 106.754 172.422 104.536L176.125 100.665C178.975 97.2318 184.368 97.6668 186.632 101.512C188.22 104.208 187.642 107.653 185.263 109.682Z" fill="#E3E0FD" stroke="#152A62" stroke-miterlimit="10" stroke-linejoin="round"/>
<path d="M182.954 98.7501L177.583 102.415C175.207 104.037 172.001 103.674 170.047 101.562C167.962 99.3091 167.991 95.8221 170.113 93.6041L173.816 89.7331C176.666 86.3001 182.059 86.7351 184.323 90.5801C185.91 93.2761 185.332 96.7211 182.954 98.7501Z" fill="#E3E0FD" stroke="#152A62" stroke-miterlimit="10" stroke-linejoin="round"/>
<path d="M142.65 142.793C142.65 142.793 142.65 143.577 142.327 144.913L142.65 142.793Z" fill="#B49CFB"/>
<path d="M142.65 142.793C142.65 142.793 142.65 143.577 142.327 144.913" stroke="#152A62" stroke-miterlimit="10" stroke-linecap="round" stroke-linejoin="round"/>
<path d="M98.6639 131.008C101.813 128.996 111.854 134.444 121.09 143.176C130.326 151.908 135.26 160.619 132.111 162.631L118.698 173.762C115.549 175.774 105.508 170.326 96.2719 161.594C87.0359 152.861 82.2039 144.197 84.7399 142.074L98.6639 131.008Z" fill="#152A62" stroke="#152A62" stroke-miterlimit="10" stroke-linejoin="round"/>
<path d="M83.4678 141.254C87.9218 140.127 98.6828 145.494 107.441 154.348C116.555 163.564 121.614 170.765 119.984 174.313" stroke="#F5F4F9" stroke-width="0.8" stroke-miterlimit="10" stroke-linecap="round" stroke-linejoin="round"/>
<path d="M159.7 183.414C178.109 183.414 193.033 182.37 193.033 181.081C193.033 179.793 178.109 178.748 159.7 178.748C141.29 178.748 126.367 179.793 126.367 181.081C126.367 182.37 141.29 183.414 159.7 183.414Z" fill="#E3E0FD"/>
<path d="M173.272 21.6901L151.048 57.7221C149.776 59.9251 151.366 62.6801 153.91 62.6801H198.358C200.902 62.6801 202.493 59.9261 201.22 57.7221L178.997 21.6901C177.725 19.4861 174.544 19.4861 173.272 21.6901Z" fill="#152A62" stroke="#152A62" stroke-miterlimit="10" stroke-linejoin="round"/>
<path d="M174.85 21.6901L152.626 57.7221C151.354 59.9251 152.944 62.6801 155.488 62.6801H199.936C202.48 62.6801 204.071 59.9261 202.798 57.7221L180.575 21.6901C179.302 19.4861 176.122 19.4861 174.85 21.6901Z" fill="#FFB7AD" stroke="#152A62" stroke-miterlimit="10" stroke-linejoin="round"/>
<path d="M179.168 47.723H176.256C175.8 47.723 175.424 47.364 175.404 46.908L174.791 33.015C174.77 32.53 175.157 32.125 175.643 32.125H179.78C180.266 32.125 180.653 32.53 180.632 33.015L180.019 46.908C180 47.363 179.625 47.723 179.168 47.723Z" fill="#152A62"/>
<path d="M177.712 55.7309C179.19 55.7309 180.388 54.5328 180.388 53.0549C180.388 51.577 179.19 50.3789 177.712 50.3789C176.234 50.3789 175.036 51.577 175.036 53.0549C175.036 54.5328 176.234 55.7309 177.712 55.7309Z" fill="#152A62"/>
<path fill-rule="evenodd" clip-rule="evenodd" d="M134.991 75.0248L135.882 78.5968H139.563L138.673 75.0248H134.991ZM132.121 71C130.861 71 130.087 71.9911 130.392 73.2136L132.186 80.408C132.49 81.6305 133.759 82.6216 135.019 82.6216H142.433C143.693 82.6216 144.468 81.6305 144.163 80.408L142.369 73.2136C142.064 71.9911 140.796 71 139.536 71H132.121Z" fill="#B49CFB"/>
<path fill-rule="evenodd" clip-rule="evenodd" d="M138.717 89.9669L139.607 93.5389H143.289L142.398 89.9669H138.717ZM135.847 85.9421C134.587 85.9421 133.812 86.9332 134.117 88.1557L135.911 95.3501C136.216 96.5726 137.484 97.5637 138.744 97.5637H146.159C147.419 97.5637 148.193 96.5726 147.888 95.3501L146.095 88.1557C145.79 86.9332 144.521 85.9421 143.261 85.9421H135.847Z" fill="#B49CFB"/>
<path fill-rule="evenodd" clip-rule="evenodd" d="M150.391 75.0248L151.281 78.5968H154.963L154.072 75.0248H150.391ZM147.521 71C146.261 71 145.486 71.9911 145.791 73.2136L147.585 80.408C147.89 81.6305 149.158 82.6216 150.418 82.6216H157.833C159.093 82.6216 159.867 81.6305 159.562 80.408L157.769 73.2136C157.464 71.9911 156.195 71 154.935 71H147.521Z" fill="#B49CFB"/>
<path d="M148.965 85.9421H152.387L153.215 89.2626H149.793L148.965 85.9421Z" fill="#B49CFB"/>
<path d="M154.277 90.0927H157.699L158.527 93.4131H155.105L154.277 90.0927Z" fill="#B49CFB"/>
<path d="M151.035 94.2432H154.457L155.285 97.5637H151.862L151.035 94.2432Z" fill="#B49CFB"/>
<path d="M159.59 94.2432H163.012L163.84 97.5637H160.418L159.59 94.2432Z" fill="#B49CFB"/>
<path d="M157.52 85.9421H160.942L161.77 89.2626H158.348L157.52 85.9421Z" fill="#B49CFB"/>
<path fill-rule="evenodd" clip-rule="evenodd" d="M134.991 75.0248L135.882 78.5968H139.563L138.673 75.0248H134.991ZM132.121 71C130.861 71 130.087 71.9911 130.392 73.2136L132.186 80.408C132.49 81.6305 133.759 82.6216 135.019 82.6216H142.433C143.693 82.6216 144.468 81.6305 144.163 80.408L142.369 73.2136C142.064 71.9911 140.796 71 139.536 71H132.121Z" stroke="#152A62" stroke-miterlimit="10" stroke-linejoin="round"/>
<path fill-rule="evenodd" clip-rule="evenodd" d="M138.717 89.9669L139.607 93.5389H143.289L142.398 89.9669H138.717ZM135.847 85.9421C134.587 85.9421 133.812 86.9332 134.117 88.1557L135.911 95.3501C136.216 96.5726 137.484 97.5637 138.744 97.5637H146.159C147.419 97.5637 148.193 96.5726 147.888 95.3501L146.095 88.1557C145.79 86.9332 144.521 85.9421 143.261 85.9421H135.847Z" stroke="#152A62" stroke-miterlimit="10" stroke-linejoin="round"/>
<path fill-rule="evenodd" clip-rule="evenodd" d="M150.391 75.0248L151.281 78.5968H154.963L154.072 75.0248H150.391ZM147.521 71C146.261 71 145.486 71.9911 145.791 73.2136L147.585 80.408C147.89 81.6305 149.158 82.6216 150.418 82.6216H157.833C159.093 82.6216 159.867 81.6305 159.562 80.408L157.769 73.2136C157.464 71.9911 156.195 71 154.935 71H147.521Z" stroke="#152A62" stroke-miterlimit="10" stroke-linejoin="round"/>
<path d="M148.965 85.9421H152.387L153.215 89.2626H149.793L148.965 85.9421Z" stroke="#152A62" stroke-miterlimit="10" stroke-linejoin="round"/>
<path d="M154.277 90.0927H157.699L158.527 93.4131H155.105L154.277 90.0927Z" stroke="#152A62" stroke-miterlimit="10" stroke-linejoin="round"/>
<path d="M151.035 94.2432H154.457L155.285 97.5637H151.862L151.035 94.2432Z" stroke="#152A62" stroke-miterlimit="10" stroke-linejoin="round"/>
<path d="M159.59 94.2432H163.012L163.84 97.5637H160.418L159.59 94.2432Z" stroke="#152A62" stroke-miterlimit="10" stroke-linejoin="round"/>
<path d="M157.52 85.9421H160.942L161.77 89.2626H158.348L157.52 85.9421Z" stroke="#152A62" stroke-miterlimit="10" stroke-linejoin="round"/>
</svg>
