<svg enable-background="new 0 0 300 300" viewBox="0 0 300 300" xmlns="http://www.w3.org/2000/svg"><path d="m214.506 199.013h-129.012c-10.972 0-19.867-8.895-19.867-19.867v-64.215c0-10.972 8.895-19.867 19.867-19.867h129.012c10.972 0 19.867 8.895 19.867 19.867v64.215c0 10.972-8.895 19.867-19.867 19.867z" fill="#e3e0fd"/><ellipse cx="154.333" cy="212.252" fill="#e3e0fd" rx="67.395" ry="4.226"/><g stroke="#152a62" stroke-linejoin="round" stroke-miterlimit="10"><path d="m160.941 187.723h-64.733c.409-8.455.202-15.199.202-15.199.935-1.072 9.818-3.107 9.818-3.107h-10.02s-.385-9.367-.702-13.544h67.459z" fill="#fff"/><path d="m196.277 187.723h-35.708v-14.249l-3.75-1.677 3.75-1.089 1.012-14.837h36.112l-.563 4.973-5.859.001 5.788 2.219c.001.001-1.253 14.774-.782 24.659z" fill="#f5f4f9"/><path d="m136.518 155.872h64.429s-.379-1.604-.379-3.091c0-1.522.682-3.091.682-3.091h-64.732z" fill="#f5f4f9"/><path d="m101.081 155.872h36.315s.141-1.718 0-3.329-.506-2.853-.506-2.853h-35.91s.636 1.16.636 2.933-.535 3.249-.535 3.249z" fill="#fff"/><path d="m96.141 113.873s.53 11.314.687 17.795h11.331s-7.371.742-11.312 2.1c-.041 6.071-.309 15.922-.309 15.922h64.173v-35.817z" fill="#fff"/><path d="m195.744 149.69h-35.404l-.727-35.817h37.449c-1.677 12.401-1.354 23.74-1.354 23.74h-11.346s7.848.671 11.685 2.243c0 0-.212 5.988-.303 9.834z" fill="#f5f4f9"/><path d="m162.736 212.081h-63.012c.312-16.933-.181-24.358-.181-24.358h63.193z" fill="#fff"/><path d="m99.94 205.097h15.623" fill="#f5f4f9" stroke-linecap="round"/><path d="m197.566 212.081h-35.202v-24.358h35.708z" fill="#f5f4f9"/><path d="m114.589 125.903h44.687" fill="#f5f4f9" stroke-linecap="round"/><path d="m150.248 178.953h13.143" fill="#f5f4f9" stroke-linecap="round"/><path d="m142.086 187.723h20.278" fill="#f5f4f9" stroke-linecap="round"/><path d="m98.285 155.872h99.787" fill="#f5f4f9" stroke-linecap="round"/><path d="m119.216 125.963 3.876 6.52 28.843-6.52z" fill="#e3e0fd" stroke-linecap="round"/><path d="m104.725 176.278-1.391 4.783 25.241-4.783z" fill="#b49cfb" stroke-linecap="round"/><path d="m98.561 176.278h36.729" fill="none" stroke-linecap="round"/><path d="m96.69 125.692h9.851" fill="none" stroke-linecap="round"/><path d="m152.225 202.863h35.853" fill="#f5f4f9" stroke-linecap="round"/><path d="m196.047 169.303h-27.047" fill="#f5f4f9" stroke-linecap="round"/><path d="m195.678 174.223h-17.016" fill="#f5f4f9" stroke-linecap="round"/><path d="m174.524 206.511h23.042" fill="#f5f4f9" stroke-linecap="round"/><path d="m96.833 144.222h48.139" fill="#f5f4f9" stroke-linecap="round"/><path d="m195.726 132.3h-12.677" fill="#f5f4f9" stroke-linecap="round"/><path d="m124.276 152.781h-22.66" fill="#f5f4f9" stroke-linecap="round"/><path d="m197.754 197.736h-23.866l-.165-1.502h24.149z" fill="#152a62"/><path d="m160.569 187.723c5.236 0 10.274 3.113 10.371 8.511h35.708c-.097-5.398-4.473-8.511-10.371-8.511z" fill="#fff"/><path d="m162.645 113.871c-6.953-.199-14.9-3.755-16.476-12.29h-54.471c1.576 8.535 9.744 12.379 16.476 12.29z" fill="#fff"/><path d="m102.727 106.051h15.184" fill="#fff" stroke-linecap="round"/><path d="m108.065 109.565h32.217" fill="#fff" stroke-linecap="round"/><path d="m139.355 113.871c4.313-.124 8.951-1.563 11.491-4.85.473-.612.856-1.292 1.127-2.045h48.652c-.267.741-.646 1.417-1.116 2.03-2.565 3.35-7.314 4.92-11.502 4.865z" fill="#b49cfb" stroke-linecap="round"/><path d="m99.983 197.56h35.323" fill="#f5f4f9" stroke-linecap="round"/><path d="m154.511 187.723h-42.054s24.412-.095 32.327 8.869c0-.001 1.24-7.725 9.727-8.869z" fill="#e3e0fd" stroke-linecap="round"/><path d="m145.17 149.689h30.78" fill="#f5f4f9" stroke-linecap="round"/><path d="m182.524 149.689h-27.438s15.69 1.132 19.682 8.387c.001 0 3.894-8.387 7.756-8.387z" fill="#b49cfb" stroke-linecap="round"/><path d="m151.935 163.016h14.004" fill="#f5f4f9" stroke-linecap="round"/><path d="m131.987 155.872c-5.236 0-10.274 3.113-10.371 8.511h-35.708c.097-5.398 4.473-8.511 10.371-8.511z" fill="#e3e0fd"/><path d="m198.597 81.406-22.859 39.593c-1.266 2.192.316 4.932 2.848 4.932h45.718c2.531 0 4.113-2.74 2.848-4.932l-22.859-39.593c-1.266-2.192-4.431-2.192-5.696 0z" fill="#152a62"/><path d="m200.166 81.406-22.859 39.593c-1.266 2.192.316 4.932 2.848 4.932h45.718c2.531 0 4.113-2.74 2.848-4.932l-22.859-39.593c-1.266-2.192-4.43-2.192-5.696 0z" fill="#ffb7ad"/></g><path d="m204.463 111.052h-2.897c-.454 0-.828-.357-.848-.811l-.61-13.822c-.021-.483.364-.886.848-.886h4.116c.483 0 .869.403.848.886l-.61 13.822c-.02.453-.393.811-.847.811z" fill="#152a62"/><circle cx="203.014" cy="116.357" fill="#152a62" r="2.663"/></svg>