<svg enable-background="new 0 0 300 300" viewBox="0 0 300 300" xmlns="http://www.w3.org/2000/svg"><path d="m214.506 199.013h-129.012c-10.972 0-19.867-8.895-19.867-19.867v-64.215c0-10.972 8.895-19.867 19.867-19.867h129.012c10.972 0 19.867 8.895 19.867 19.867v64.215c0 10.972-8.895 19.867-19.867 19.867z" fill="#e3e0fd"/><g stroke-linejoin="round" stroke-miterlimit="10"><path d="m145.086 135.44s34.066-22.792 36.361-24.321c2.099-1.399 5.578-2.326 7.137-.665 2.659 2.834 1.504 7.487-1.609 10.74-2.07 2.163-38.036 35.432-38.036 35.432" fill="#e3e0fd" stroke="#152a62"/><path d="m181.332 179.109-1.283-1.676-.406.202c.009-.764-.069-1.557-.266-2.377l-18.344-76.262c-1.446-6.012-6.713-10.885-12.961-10.885h-32.857c-.425 0-.837.027-1.239.071l-1.18-1.763-4.518 4.518c-.002.002-.004.004-.006.006l-.093.093.002.008c-1.962 1.997-2.802 4.969-2.002 8.295l18.344 76.262c1.338 5.563 7.109 10.072 12.89 10.072h33.577c2.674 0 4.872-.973 6.341-2.561z" fill="#e3e0fd" stroke="#152a62"/><path d="m129.886 183.144c2.223 1.569 4.871 2.528 7.527 2.528h33.577c2.674 0 4.872-.973 6.341-2.561l4.002-4.002-1.283-1.676-.406.202c.009-.75-.068-1.528-.257-2.332l-43.789 2.13z" fill="#f5f4f9" stroke="#152a62"/><path d="m175.463 181.199h-33.577c-5.781 0-11.552-4.509-12.89-10.072l-18.344-76.262c-1.446-6.012 2.446-10.885 8.694-10.885h31.887c6.248 0 12.485 4.873 13.931 10.885l18.344 76.262c1.338 5.563-2.264 10.072-8.045 10.072z" fill="#152a62" stroke="#152a62"/><path d="m140.98 178.006c-3.862 0-7.732-3.026-8.627-6.745l-18.344-76.262c-.495-2.059-.124-4.01 1.045-5.494 1.185-1.505 3.031-2.333 5.199-2.333h4.165c1.3 0 2.555.982 2.856 2.236.417 1.732 2.269 3.089 4.217 3.089h12.068c.915 0 1.66-.305 2.096-.859.4-.508.513-1.186.326-1.962-.154-.64-.029-1.279.343-1.752.377-.478.977-.752 1.648-.752h4.166c4.329 0 8.666 3.39 9.669 7.557l18.344 76.262c.444 1.844.11 3.592-.938 4.923-1.063 1.349-2.716 2.091-4.656 2.091h-33.577z" fill="#fff" stroke="#152a62"/><path d="m110.675 101.308-2.076 1.982.863 3.651 2.076-1.983z" fill="none" stroke="#152a62"/><path d="m112.146 107.307-2.076 1.983.863 3.651 2.076-1.983z" fill="none" stroke="#152a62"/><path d="m142.672 185.671c-1.138-22.72-17.632-30.343-17.632-30.343l-5.571-21.72c-1.951-6.154-8.552-8.81-12.908-6.904-1.448.633-2.283 2.167-2.031 3.726l1.943 8.068c.058.242.095.488.111.737l1.59 25.162-7.798 8.524c-1.393 1.721-2.654 4.959-1.995 7.073 1.295 4.152 4.979 13.071 10.933 17.288 6.651 4.711 16.269 6.454 20.843 7.044 1.63.21 3.274-.187 4.629-1.119l25.203-17.534h-17.317z" fill="#e3e0fd" stroke="#152a62"/><path d="m187.108 165.016-5.131 3.502c-2.27 1.549-5.333 1.203-7.199-.815-1.992-2.153-1.964-5.484.063-7.603l3.538-3.698c2.723-3.28 7.875-2.864 10.038.809 1.516 2.575.964 5.866-1.309 7.805z" fill="#e3e0fd" stroke="#152a62"/><path d="m185.263 152.682-5.371 3.665c-2.376 1.622-5.582 1.259-7.536-.853-2.085-2.253-2.056-5.74.066-7.958l3.703-3.871c2.85-3.433 8.243-2.998 10.507.847 1.588 2.696 1.01 6.141-1.369 8.17z" fill="#e3e0fd" stroke="#152a62"/><path d="m182.954 141.749-5.371 3.665c-2.376 1.622-5.582 1.259-7.536-.853-2.085-2.253-2.056-5.74.066-7.958l3.703-3.871c2.85-3.433 8.243-2.998 10.507.847 1.587 2.696 1.009 6.141-1.369 8.17z" fill="#e3e0fd" stroke="#152a62"/><path d="m142.65 185.793s0 .784-.323 2.12" fill="#b49cfb" stroke="#152a62" stroke-linecap="round"/><path d="m98.664 174.008c3.149-2.012 13.19 3.436 22.426 12.168s14.17 17.443 11.021 19.455l-13.413 11.131c-3.149 2.012-13.19-3.436-22.426-12.168-9.236-8.733-14.068-17.397-11.532-19.52z" fill="#152a62" stroke="#152a62"/><path d="m83.468 184.254c4.454-1.127 15.215 4.24 23.973 13.094 9.114 9.216 14.173 16.417 12.543 19.965" fill="none" stroke="#f5f4f9" stroke-linecap="round" stroke-width=".8"/></g><ellipse cx="159.7" cy="224.08" fill="#e3e0fd" rx="33.333" ry="2.333"/><path d="m173.272 64.69-22.224 36.032c-1.272 2.203.318 4.958 2.862 4.958h44.448c2.544 0 4.135-2.754 2.862-4.958l-22.223-36.032c-1.272-2.204-4.453-2.204-5.725 0z" fill="#152a62" stroke="#152a62" stroke-linejoin="round" stroke-miterlimit="10"/><path d="m174.85 64.69-22.224 36.032c-1.272 2.203.318 4.958 2.862 4.958h44.448c2.544 0 4.135-2.754 2.862-4.958l-22.223-36.032c-1.273-2.204-4.453-2.204-5.725 0z" fill="#ffb7ad" stroke="#152a62" stroke-linejoin="round" stroke-miterlimit="10"/><path d="m179.168 90.723h-2.912c-.456 0-.832-.359-.852-.815l-.613-13.893c-.021-.485.366-.89.852-.89h4.137c.486 0 .873.405.852.89l-.613 13.893c-.019.455-.394.815-.851.815z" fill="#152a62"/><circle cx="177.712" cy="96.055" fill="#152a62" r="2.676"/><path d="m149.173 143.638c-1.82 0-3 1.466-2.635 3.276s2.137 3.276 3.958 3.276 3-1.466 2.635-3.276-2.137-3.276-3.958-3.276zm16.178-17.69c-6.494-4.935-13.885-7.731-21.049-7.929-7.458-.21-13.958 2.347-18.553 7.24-.317.337-.255.915.13 1.327l1.733 1.859c.416.446 1.073.518 1.411.15 3.941-4.297 9.562-6.548 16.005-6.372 6.24.176 12.699 2.663 18.374 7.049.487.377 1.124.308 1.362-.141l.984-1.861c.216-.411.049-.983-.397-1.322zm-19.646.498c-5.568 0-10.427 2.076-13.705 5.78-.306.346-.251.915.133 1.327l1.74 1.865c.426.457 1.099.514 1.43.122 2.644-3.131 6.649-4.887 11.252-4.887 4.595 0 9.337 1.771 13.251 4.914.489.393 1.14.336 1.382-.122l.987-1.868c.217-.411.042-.98-.403-1.326-4.784-3.717-10.515-5.805-16.067-5.805zm1.747 8.658c-3.747 0-6.958 1.585-8.887 4.273-.253.353-.177.885.184 1.273l1.534 1.612c.508.534 1.301.565 1.651.072 1.36-1.913 3.682-3.022 6.368-3.022 2.8 0 5.614 1.106 7.823 3.246.427.414 1.071.379 1.306-.052l.993-1.825c.204-.386.067-.917-.327-1.27-3.02-2.709-6.88-4.307-10.645-4.307z" fill="#b49cfb" stroke="#152a62" stroke-linejoin="round" stroke-miterlimit="10"/><path d="m155.581 109.928-20.695 39.277 3.822 1.88 20.544-39.103z" fill="#ffb7ad" stroke="#152a62" stroke-linejoin="round" stroke-miterlimit="10"/></svg>