<svg enable-background="new 0 0 300 300" viewBox="0 0 300 300" xmlns="http://www.w3.org/2000/svg"><path d="m214.506 199.013h-129.012c-10.972 0-19.867-8.895-19.867-19.867v-64.215c0-10.972 8.895-19.867 19.867-19.867h129.012c10.972 0 19.867 8.895 19.867 19.867v64.215c0 10.972-8.895 19.867-19.867 19.867z" fill="#e3e0fd"/><g stroke="#152a62" stroke-linejoin="round" stroke-miterlimit="10"><path d="m215.977 81.768h4.369v5.586h-4.369z" fill="#f5f4f9"/><path d="m215.977 81.359h4.369v2.117h-4.369z" fill="#152a62"/><path d="m222.377 82.245h-8.43c-.584 0-1.058-.474-1.058-1.058v-2.853c0-.584.474-1.058 1.058-1.058h8.43c.584 0 1.058.474 1.058 1.058v2.853c.001.584-.473 1.058-1.058 1.058z" fill="#ffb7ad"/><circle cx="218.162" cy="108.871" fill="#ffb7ad" r="23.08"/><circle cx="218.162" cy="108.871" fill="#fff" r="19.123"/><path d="m201.715 108.871h2.234" fill="#fff" stroke-linecap="round"/><path d="m232.376 108.871h2.233" fill="#fff" stroke-linecap="round"/><path d="m203.918 117.094 1.935-1.116" fill="#fff" stroke-linecap="round"/><path d="m230.472 101.764 1.934-1.117" fill="#fff" stroke-linecap="round"/><path d="m209.939 123.114 1.116-1.934" fill="#fff" stroke-linecap="round"/><path d="m225.269 96.561 1.117-1.934" fill="#fff" stroke-linecap="round"/><path d="m218.162 125.318v-2.234" fill="#fff" stroke-linecap="round"/><path d="m218.162 94.657v-2.233" fill="#fff" stroke-linecap="round"/><path d="m226.386 123.114-1.117-1.934" fill="#fff" stroke-linecap="round"/><path d="m211.055 96.561-1.116-1.934" fill="#fff" stroke-linecap="round"/><path d="m232.406 117.094-1.934-1.116" fill="#fff" stroke-linecap="round"/><path d="m205.853 101.764-1.935-1.117" fill="#fff" stroke-linecap="round"/><path d="m218.162 108.871 9.244-5.693" fill="#fff" stroke-linecap="round" stroke-width="2"/><circle cx="218.162" cy="108.871" fill="#152a62" r="1.828"/></g><ellipse cx="147.243" cy="210.757" fill="#e3e0fd" rx="72.637" ry="2.972"/><path d="m81.171 210.527h10.942l21.515-78.776c.242-.886-.349-1.699-1.236-1.699h-8.045c-.692 0-1.335.504-1.524 1.196z" fill="#152a62" stroke="#152a62" stroke-linecap="round" stroke-linejoin="round" stroke-miterlimit="10"/><path d="m189.275 166.588h-100.795c-.989 0-1.906.72-2.177 1.708l-5.335 19.455c-.347 1.267.497 2.43 1.765 2.43h100.795c.989 0 1.906-.72 2.177-1.708l5.335-19.455c.348-1.268-.497-2.43-1.765-2.43z" fill="#152a62" stroke="#152a62" stroke-linecap="round" stroke-linejoin="round" stroke-miterlimit="10"/><path d="m155.116 210.527h10.942l21.358-78.204c.324-1.185-.466-2.271-1.652-2.271h-7.07c-.925 0-1.784.674-2.037 1.599z" fill="#152a62" stroke="#152a62" stroke-linecap="round" stroke-linejoin="round" stroke-miterlimit="10"/><path d="m137.216 210.359h-10.942l-22.449-78.46c-.264-.924.42-1.846 1.37-1.846h7.972c.635 0 1.193.425 1.37 1.042z" fill="#fff" stroke="#152a62" stroke-linecap="round" stroke-linejoin="round" stroke-miterlimit="10"/><path d="m211.209 210.359h-10.942l-22.271-77.838c-.353-1.235.562-2.468 1.831-2.468h6.972c.849 0 1.595.568 1.831 1.393z" fill="#fff" stroke="#152a62" stroke-linecap="round" stroke-linejoin="round" stroke-miterlimit="10"/><path d="m193.698 133.322h-97.08c-.993 0-1.913.726-2.18 1.718l-5.249 19.513c-.34 1.264.504 2.419 1.768 2.419h98.914c.993 0 1.913-.725 2.18-1.718l4.755-17.679c.599-2.222-.886-4.253-3.108-4.253z" fill="#152a62" stroke="#152a62" stroke-linecap="round" stroke-linejoin="round" stroke-miterlimit="10"/><path d="m97.289 133.326h96.524l6.988 23.642h-97.826c-.961 0-1.809-.639-2.084-1.572l-5.685-19.235c-.419-1.413.626-2.835 2.083-2.835z" fill="#e3e0fd" stroke="#152a62" stroke-linejoin="round" stroke-miterlimit="10"/><path d="m99.194 133.326h95.41c.854 0 1.607.568 1.852 1.396l5.83 19.726c.371 1.256-.558 2.519-1.852 2.519h-95.41c-.854 0-1.607-.568-1.852-1.396l-5.83-19.726c-.371-1.256.558-2.519 1.852-2.519z" fill="#fff" stroke="#152a62" stroke-linecap="round" stroke-linejoin="round" stroke-miterlimit="10"/><path d="m101.43 133.326h-2.237c-1.294 0-2.223 1.263-1.852 2.519l5.831 19.727c.245.829.998 1.396 1.852 1.396h19.586z" fill="#ffb7ad" stroke="#152a62" stroke-linecap="round" stroke-linejoin="round" stroke-miterlimit="10"/><path d="m140.871 133.326h-20.287l23.18 23.642h20.286z" fill="#ffb7ad" stroke="#152a62" stroke-linecap="round" stroke-linejoin="round" stroke-miterlimit="10"/><path d="m202.238 155.692-21.928-22.365h-20.286l23.179 23.642h17.231c.85-.001 1.533-.548 1.804-1.277z" fill="#ffb7ad" stroke="#152a62" stroke-linecap="round" stroke-linejoin="round" stroke-miterlimit="10"/><path d="m106.348 166.563h96.524l6.988 23.642h-97.826c-.961 0-1.809-.639-2.084-1.572l-5.685-19.235c-.419-1.413.626-2.835 2.083-2.835z" fill="#e3e0fd" stroke="#152a62" stroke-linejoin="round" stroke-miterlimit="10"/><path d="m108.253 166.563h95.41c.854 0 1.607.568 1.852 1.396l5.83 19.726c.371 1.256-.558 2.519-1.852 2.519h-95.41c-.854 0-1.607-.568-1.852-1.396l-5.83-19.726c-.371-1.255.558-2.519 1.852-2.519z" fill="#fff" stroke="#152a62" stroke-linecap="round" stroke-linejoin="round" stroke-miterlimit="10"/><path d="m110.49 166.564h-2.237c-1.294 0-2.223 1.263-1.852 2.519l5.831 19.727c.245.829.998 1.396 1.852 1.396h19.586z" fill="#ffb7ad" stroke="#152a62" stroke-linecap="round" stroke-linejoin="round" stroke-miterlimit="10"/><path d="m149.93 166.564h-20.286l23.179 23.641h20.286z" fill="#ffb7ad" stroke="#152a62" stroke-linecap="round" stroke-linejoin="round" stroke-miterlimit="10"/><path d="m211.297 188.929-21.928-22.365h-20.286l23.179 23.642h17.231c.85-.001 1.534-.548 1.804-1.277z" fill="#ffb7ad" stroke="#152a62" stroke-linecap="round" stroke-linejoin="round" stroke-miterlimit="10"/></svg>