<svg width="300" height="200" viewBox="0 0 300 200" fill="none" xmlns="http://www.w3.org/2000/svg">
<path d="M214.879 149.013H85.867C74.895 149.013 66 140.118 66 129.146V64.931C66 53.959 74.895 45.064 85.867 45.064H214.879C225.851 45.064 234.746 53.959 234.746 64.931V129.146C234.746 140.118 225.851 149.013 214.879 149.013Z" fill="#E3E0FD"/>
<path d="M153.171 184.977C176.283 184.977 195.018 183.443 195.018 181.55C195.018 179.657 176.283 178.123 153.171 178.123C130.06 178.123 111.324 179.657 111.324 181.55C111.324 183.443 130.06 184.977 153.171 184.977Z" fill="#E3E0FD"/>
<path d="M203.304 152.529L201.46 150.12L200.877 150.41C200.89 149.313 200.778 148.173 200.494 146.994L174.13 37.392C172.052 28.752 164.051 21.748 155.072 21.748H107.42C106.809 21.748 106.217 21.787 105.639 21.85L103.942 19.316L97.4489 25.809C97.4489 25.809 97.4429 25.815 97.4399 25.818L97.3069 25.951L97.3089 25.963C94.4889 28.833 93.2829 33.105 94.4319 37.884L120.796 147.486C122.719 155.48 131.013 161.961 139.321 161.961H188.439C192.282 161.961 195.441 160.562 197.552 158.28L203.303 152.528L203.304 152.529Z" fill="#E3E0FD" stroke="#152A62" stroke-linejoin="round"/>
<path d="M128.504 158.328C131.698 160.582 135.505 161.961 139.322 161.961H188.44C192.283 161.961 195.442 160.563 197.553 158.28L203.304 152.528L201.46 150.119L200.877 150.409C200.89 149.332 200.78 148.213 200.508 147.057L136.713 150.119L128.505 158.328H128.504Z" fill="#F5F4F9" stroke="#152A62" stroke-linejoin="round"/>
<path d="M194.867 155.532H145.748C137.44 155.532 129.146 149.051 127.223 141.057L100.859 31.455C98.7812 22.815 104.375 15.811 113.354 15.811H160.043C169.022 15.811 177.986 22.815 180.064 31.455L206.428 141.057C208.351 149.051 203.175 155.532 194.867 155.532Z" fill="#152A62" stroke="#152A62" stroke-linejoin="round"/>
<path d="M144.449 150.944C138.898 150.944 133.336 146.595 132.05 141.25L105.686 31.648C104.974 28.689 105.508 25.885 107.188 23.753C108.891 21.591 111.545 20.4 114.659 20.4H121.076C122.944 20.4 124.747 21.811 125.181 23.613C125.78 26.102 128.442 28.053 131.241 28.053H148.585C149.9 28.053 150.97 27.615 151.598 26.818C152.173 26.088 152.335 25.114 152.067 23.998C151.845 23.078 152.025 22.16 152.561 21.481C153.102 20.794 153.965 20.4 154.929 20.4H161.347C167.568 20.4 173.802 25.272 175.243 31.261L201.607 140.863C202.244 143.513 201.766 146.026 200.259 147.938C198.732 149.876 196.355 150.943 193.567 150.943L144.449 150.944Z" fill="white" stroke="#152A62" stroke-linejoin="round"/>
<path d="M100.894 40.714L97.9102 43.564L99.1512 48.811L102.134 45.961L100.894 40.714Z" stroke="#152A62" stroke-linejoin="round"/>
<path d="M103.007 49.337L100.023 52.187L101.264 57.433L104.248 54.584L103.007 49.337Z" stroke="#152A62" stroke-linejoin="round"/>
<path d="M185.577 119.754H138.435C135.803 119.754 134.165 121.888 134.777 124.52L137.311 135.531C137.923 138.163 140.553 140.297 143.185 140.297H190.327C192.959 140.297 194.597 138.163 193.985 135.531L191.451 124.52C190.839 121.888 188.209 119.754 185.577 119.754Z" fill="#89C8FF" stroke="#152A62" stroke-linejoin="round"/>
<path d="M144.609 125.481L146.595 134.012" stroke="#152A62" stroke-width="1.4" stroke-linecap="round" stroke-linejoin="round"/>
<path d="M142.293 131.879L148.911 127.613" stroke="#152A62" stroke-width="1.4" stroke-linecap="round" stroke-linejoin="round"/>
<path d="M149.905 131.879L141.301 127.613" stroke="#152A62" stroke-width="1.4" stroke-linecap="round" stroke-linejoin="round"/>
<path d="M157.148 125.481L159.133 134.012" stroke="#152A62" stroke-width="1.4" stroke-linecap="round" stroke-linejoin="round"/>
<path d="M154.832 131.879L161.451 127.613" stroke="#152A62" stroke-width="1.4" stroke-linecap="round" stroke-linejoin="round"/>
<path d="M162.445 131.879L153.84 127.613" stroke="#152A62" stroke-width="1.4" stroke-linecap="round" stroke-linejoin="round"/>
<path d="M169.691 125.481L171.677 134.012" stroke="#152A62" stroke-width="1.4" stroke-linecap="round" stroke-linejoin="round"/>
<path d="M167.375 131.879L173.993 127.613" stroke="#152A62" stroke-width="1.4" stroke-linecap="round" stroke-linejoin="round"/>
<path d="M174.987 131.879L166.383 127.613" stroke="#152A62" stroke-width="1.4" stroke-linecap="round" stroke-linejoin="round"/>
<path d="M182.234 125.481L184.22 134.012" stroke="#152A62" stroke-width="1.4" stroke-linecap="round" stroke-linejoin="round"/>
<path d="M179.918 131.879L186.536 127.613" stroke="#152A62" stroke-width="1.4" stroke-linecap="round" stroke-linejoin="round"/>
<path d="M187.53 131.879L178.926 127.613" stroke="#152A62" stroke-width="1.4" stroke-linecap="round" stroke-linejoin="round"/>
<path d="M176.276 100.057C184.994 90.2747 182.077 73.4469 169.761 62.4707C157.445 51.4945 140.394 50.5263 131.676 60.3083C122.958 70.0902 125.875 86.9181 138.191 97.8943C150.507 108.871 167.558 109.839 176.276 100.057Z" fill="#B49CFB" stroke="#152A62" stroke-linejoin="round"/>
<path d="M154.81 81.586L180.598 80.18C183.992 94.883 174.825 106.801 160.123 106.801C149.442 106.801 138.777 100.51 132.441 91.432L154.81 81.586Z" fill="#152A62" stroke="#152A62" stroke-linejoin="round"/>
<path d="M178.995 99.2184C187.712 89.4364 184.796 72.6086 172.48 61.6324C160.164 50.6562 143.112 49.688 134.394 59.47C125.677 69.2519 128.593 86.0798 140.909 97.056C153.225 108.032 170.277 109 178.995 99.2184Z" fill="#E3E0FD" stroke="#152A62" stroke-linejoin="round"/>
<path d="M182.251 89.877L182.219 89.896L173.524 94.995C171.3 96.303 168.602 97.042 165.562 97.042C159.174 97.042 152.798 93.782 148.369 88.84C145.753 85.927 143.813 82.433 142.948 78.673C142.619 77.245 142.461 75.855 142.461 74.522C142.461 67.843 146.423 62.561 152.659 60.867L152.691 60.861C153.102 60.747 153.525 60.659 153.955 60.583L163.667 58.428L165.98 62.346C172.596 65.404 178.055 71.565 179.698 78.674C180.115 80.494 180.254 82.25 180.14 83.912C180.102 84.588 180.014 85.245 179.887 85.877L182.244 89.864L182.25 89.877H182.251Z" fill="#B49CFB" stroke="#152A62" stroke-linejoin="round"/>
<path d="M182.247 89.864L182.222 89.896L173.527 94.995C171.303 96.303 168.605 97.042 165.565 97.042C159.724 97.042 153.893 94.316 149.551 90.072L169.188 78.465L182.246 89.864H182.247Z" fill="#152A62" stroke="#152A62" stroke-linejoin="round"/>
<path d="M185.09 87.5342C190.615 81.3352 188.767 70.6713 180.962 63.7158C173.158 56.7603 162.352 56.147 156.828 62.346C151.303 68.545 153.151 79.2089 160.956 86.1644C168.76 93.12 179.566 93.7332 185.09 87.5342Z" fill="#E3E0FD" stroke="#152A62" stroke-linejoin="round"/>
<path d="M175.482 87.384C168.245 87.384 160.709 81.228 159.027 73.942C158.277 70.694 158.795 67.734 160.487 65.607C162.086 63.597 164.645 62.49 167.693 62.49C174.93 62.49 182.466 68.646 184.148 75.932C184.898 79.18 184.38 82.14 182.688 84.267C181.089 86.277 178.53 87.384 175.483 87.384H175.482Z" fill="#B49CFB" stroke="#152A62" stroke-linejoin="round"/>
<path d="M144.172 78.077L152.599 76.254" stroke="#152A62" stroke-linecap="round" stroke-linejoin="round"/>
<path d="M148.285 86.316L155.557 82.941" stroke="#152A62" stroke-linecap="round" stroke-linejoin="round"/>
<path d="M144.738 69.892L152.188 68.823" stroke="#152A62" stroke-linecap="round" stroke-linejoin="round"/>
<path d="M150.207 63.467L154.83 62.491" stroke="#152A62" stroke-linecap="round" stroke-linejoin="round"/>
<path d="M149.047 55.725L149.697 58.429" stroke="#152A62" stroke-linecap="round" stroke-linejoin="round"/>
<path d="M164.051 100.09L164.701 102.794" stroke="#152A62" stroke-linecap="round" stroke-linejoin="round"/>
<path d="M136.477 63.982L139.385 64.828" stroke="#152A62" stroke-linecap="round" stroke-linejoin="round"/>
<path d="M138.426 79.792L134.527 80.567" stroke="#152A62" stroke-linecap="round" stroke-linejoin="round"/>
<path d="M148.465 94.16L146.75 96.657" stroke="#152A62" stroke-linecap="round" stroke-linejoin="round"/>
<path d="M175.648 95.987L177.201 97.326" stroke="#152A62" stroke-linecap="round" stroke-linejoin="round"/>
</svg>
