<svg enable-background="new 0 0 300 300" viewBox="0 0 300 300" xmlns="http://www.w3.org/2000/svg"><path d="m226.995 157.139h-.623-9.319c-.547 0-.88-.591-.614-1.069.986-1.767 2.875-2.964 5.044-2.964 2.186 0 4.09 1.217 5.073 3.007.002-.009.003-.018.005-.027.853-3.633 3.989-6.374 7.812-6.652v-34.503c0-10.972-8.895-19.867-19.867-19.867h-129.012c-10.972 0-19.867 8.895-19.867 19.867v64.215c0 10.972 8.895 19.867 19.867 19.867h129.012c10.972 0 19.867-8.895 19.867-19.867v-22.007z" fill="#e3e0fd"/><path d="m93.494 184.695h-9.524c-.524 0-.843-.566-.588-1.024.944-1.692 2.754-2.84 4.832-2.84 2.094 0 3.918 1.166 4.86 2.881.17.312.312.637.42.983z" fill="#f5f4f9"/><path d="m108.901 183.866c.092.425-.232.829-.666.829h-15.337c.041-.332.095-.664.176-.983.84-3.579 4.053-6.236 7.89-6.236 3.892.001 7.145 2.737 7.937 6.39z" fill="#f5f4f9"/><path d="m152.449 151.351c.095-.636.072-1.323-.101-2.042l-6.418-26.681c-.773-3.215-4.108-5.82-7.449-5.82h-51.022l.121-.672-.663-.307-2.503 1.856s-.001.008-.001.009c-1.463 1.028-2.166 2.851-1.665 4.934l6.418 26.681c.773 3.215 4.108 5.82 7.449 5.82h51.085c1.267 0 2.351-.376 3.169-1.016l2.563-1.894z" fill="#152a62" stroke="#152a62" stroke-linejoin="round" stroke-miterlimit="10"/><path d="m87.459 116.807.121-.672-.663-.307-2.503 1.856s-.001.008-.001.009c-1.463 1.028-2.166 2.851-1.665 4.934l6.418 26.681c.381 1.585 1.389 3.018 2.709 4.068l4.507-3.368 4.01-33.202h-12.933z" fill="#89c8ff" stroke="#152a62" stroke-linejoin="round" stroke-miterlimit="10"/><path d="m150.252 153.244h-51.085c-3.341 0-6.676-2.606-7.449-5.821l-6.418-26.681c-.773-3.215 1.308-5.821 4.649-5.821h51.085c3.341 0 6.676 2.606 7.449 5.821l6.418 26.682c.773 3.214-1.308 5.82-4.649 5.82z" fill="#89c8ff" stroke="#152a62" stroke-miterlimit="10"/><g fill="#152a62"><path d="m117.501 134.189h-19.79c-.625 0-1.249-.488-1.394-1.089l-.182-.758c-.145-.602.245-1.089.87-1.089h19.79c.625 0 1.249.488 1.394 1.089l.182.758c.145.602-.245 1.089-.87 1.089z"/><path d="m106.663 145.725h-6.177c-.625 0-1.249-.488-1.394-1.089l-.182-.758c-.145-.602.245-1.089.87-1.089h6.177c.625 0 1.249.488 1.394 1.089l.182.758c.145.601-.245 1.089-.87 1.089z"/><path d="m124.454 127.228h-28.003c-.854 0-1.706-.666-1.903-1.487l-.409-1.702c-.198-.821.334-1.487 1.188-1.487h28.003c.854 0 1.706.666 1.903 1.487l.409 1.702c.197.822-.335 1.487-1.188 1.487z"/><path d="m141.88 132.879h-7.111c-.937 0-1.872-.731-2.088-1.632l-1.646-6.842c-.217-.901.367-1.632 1.303-1.632h7.111c.937 0 1.872.731 2.088 1.632l1.646 6.842c.217.902-.367 1.632-1.303 1.632z"/><path d="m190.242 182.894c.095-.636.072-1.323-.101-2.042l-6.418-26.682c-.773-3.215-4.108-5.82-7.449-5.82h-51.022l.121-.672-.663-.307-2.503 1.856s-.001.008-.001.009c-1.463 1.028-2.166 2.851-1.665 4.934l6.418 26.682c.773 3.215 4.108 5.82 7.449 5.82h51.085c1.267 0 2.351-.376 3.169-1.016l2.563-1.894z" stroke="#152a62" stroke-linejoin="round" stroke-miterlimit="10"/></g><path d="m125.252 148.349.121-.672-.663-.307-2.503 1.856s-.001.008-.001.009c-1.463 1.028-2.166 2.851-1.665 4.934l6.418 26.682c.381 1.585 1.389 3.018 2.709 4.068l4.507-3.368 4.01-33.202z" fill="#fff" stroke="#152a62" stroke-linejoin="round" stroke-miterlimit="10"/><path d="m188.044 184.786h-51.084c-3.341 0-6.676-2.606-7.449-5.821l-6.418-26.682c-.773-3.215 1.308-5.821 4.649-5.821h51.085c3.341 0 6.676 2.606 7.449 5.821l6.418 26.682c.773 3.216-1.309 5.821-4.65 5.821z" fill="#fff" stroke="#152a62" stroke-miterlimit="10"/><path d="m155.294 165.732h-19.79c-.625 0-1.249-.488-1.394-1.089l-.182-.758c-.145-.602.245-1.089.87-1.089h19.79c.625 0 1.249.488 1.394 1.089l.182.758c.144.601-.245 1.089-.87 1.089z" fill="#152a62"/><path d="m144.456 177.267h-6.177c-.625 0-1.249-.488-1.394-1.089l-.182-.758c-.145-.602.245-1.089.87-1.089h6.177c.625 0 1.249.488 1.394 1.089l.182.758c.144.602-.245 1.089-.87 1.089z" fill="#152a62"/><path d="m162.246 158.771h-28.003c-.854 0-1.706-.666-1.903-1.487l-.409-1.702c-.198-.821.334-1.487 1.188-1.487h28.003c.853 0 1.706.666 1.903 1.487l.409 1.702c.198.821-.334 1.487-1.188 1.487z" fill="#152a62"/><path d="m179.672 164.422h-7.111c-.937 0-1.872-.731-2.088-1.632l-1.646-6.842c-.217-.901.367-1.632 1.303-1.632h7.111c.937 0 1.872.731 2.088 1.632l1.646 6.842c.217.901-.366 1.632-1.303 1.632z" fill="#152a62"/><path d="m210.001 209.114v-76.567h-7.343v76.567" fill="#f5f4f9" stroke="#152a62" stroke-linecap="round" stroke-linejoin="round" stroke-miterlimit="10"/><path d="m209.999 137.679-7.357 1.37-.017-2.888h7.347z" fill="#152a62" stroke="#152a62" stroke-linecap="round" stroke-linejoin="round" stroke-miterlimit="10"/><path d="m170.13 129.692 33.987-58.867c.4-.693.944-1.217 1.56-1.586l-.029-.631h2.289.041.06l-.002.004c1.467.025 2.924.76 3.762 2.213l33.987 58.867c1.707 2.957-.427 6.652-3.841 6.652h-67.973c-3.414 0-5.548-3.696-3.841-6.652z" fill="#152a62" stroke="#152a62" stroke-linecap="round" stroke-linejoin="round" stroke-miterlimit="10"/><path d="m209.489 70.825 33.987 58.867c1.707 2.957-.427 6.652-3.841 6.652h-67.973c-3.414 0-5.548-3.696-3.841-6.652l33.987-58.867c1.706-2.956 5.974-2.956 7.681 0z" fill="#ffb7ad" stroke="#152a62" stroke-linecap="round" stroke-linejoin="round" stroke-miterlimit="10"/><path d="m235.513 129.529-29.865-51.727-29.865 51.727z" fill="#fcfcfc" stroke="#152a62" stroke-linejoin="round" stroke-miterlimit="10"/><path d="m204.036 113.938h3.657c.573 0 1.045-.451 1.07-1.024l.77-17.45c.027-.61-.46-1.118-1.07-1.118h-5.196c-.61 0-1.097.509-1.07 1.118l.77 17.45c.024.572.495 1.024 1.069 1.024z" fill="#152a62"/><circle cx="205.864" cy="120.635" fill="#152a62" r="3.361"/><path d="m62.058 137.334h15.46" fill="none" stroke="#152a62" stroke-linecap="round" stroke-miterlimit="10" stroke-width=".8"/><path d="m101.068 162.931h10.431" fill="none" stroke="#152a62" stroke-linecap="round" stroke-miterlimit="10" stroke-width=".8"/><path d="m95.799 168.877h20.969" fill="none" stroke="#152a62" stroke-linecap="round" stroke-miterlimit="10" stroke-width=".8"/></svg>