<svg enable-background="new 0 0 300 300" viewBox="0 0 300 300" xmlns="http://www.w3.org/2000/svg"><path d="m214.506 95.064h-129.012c-10.972 0-19.867 8.895-19.867 19.867v4.514c.972-.608 2.118-.966 3.35-.966 2.399 0 4.488 1.335 5.567 3.3.963-4.1 4.643-7.143 9.038-7.143 4.459 0 8.185 3.135 9.093 7.319.106.487-.265.95-.763.95h-16.887-.683-8.715v56.241c0 10.972 8.895 19.867 19.867 19.867h129.012c10.972 0 19.867-8.895 19.867-19.867v-64.215c0-10.972-8.895-19.867-19.867-19.867z" fill="#e3e0fd"/><path d="m205.581 168.826h-9.704c-.534 0-.859-.577-.599-1.043.962-1.724 2.806-2.893 4.923-2.893 2.134 0 3.992 1.188 4.952 2.935.173.317.318.649.428 1.001z" fill="#f5f4f9"/><path d="m221.279 167.981c.094.433-.236.845-.679.845h-15.627c.041-.338.097-.677.18-1.001.856-3.646 4.13-6.354 8.039-6.354 3.966 0 7.28 2.788 8.087 6.51z" fill="#f5f4f9"/><g stroke="#152a62" stroke-linecap="round" stroke-linejoin="round" stroke-miterlimit="10"><path d="m147.569 215.473v-53.295h8.573v53.295" fill="#f5f4f9"/><path d="m147.571 171.195s8.641 1.773 8.61 1.678c-.032-.095 0-3.45 0-3.45h-8.578z" fill="#152a62"/><path d="m164.595 82.527h-27.714c-2.632 0-5.156 1.046-7.017 2.907l-19.597 19.597c-1.861 1.861-2.907 4.385-2.907 7.017v27.714c0 2.632 1.046 5.156 2.907 7.017l19.597 19.597c1.861 1.861 4.385 2.907 7.017 2.907h27.714c2.632 0 5.156-1.046 7.017-2.907l19.597-19.597c1.861-1.861 2.907-4.385 2.907-7.017v-27.714c0-2.632-1.046-5.156-2.907-7.017l-19.597-19.597c-1.861-1.861-4.385-2.907-7.017-2.907z" fill="#b49cfb"/><path d="m163.363 108.378v-25.85h-26.482c-2.632 0-5.156 1.046-7.017 2.906l-19.597 19.597c-.963.963-1.702 2.106-2.197 3.347z" fill="#e3e0fd"/><path d="m110.267 146.778 19.597 19.597c1.861 1.861 4.385 2.906 7.017 2.906h9.062v-26.375h-38.061c.484 1.445 1.288 2.775 2.385 3.872z" fill="#152a62"/><path d="m167.095 82.527h-27.714c-2.632 0-5.156 1.046-7.017 2.907l-19.597 19.597c-1.861 1.861-2.907 4.385-2.907 7.017v27.714c0 2.632 1.046 5.156 2.907 7.017l19.597 19.597c1.861 1.861 4.385 2.907 7.017 2.907h27.714c2.632 0 5.156-1.046 7.017-2.907l19.597-19.597c1.861-1.861 2.907-4.385 2.907-7.017v-27.714c0-2.632-1.046-5.156-2.907-7.017l-19.597-19.597c-1.861-1.861-4.385-2.907-7.017-2.907z" fill="#fff"/><path d="m168.371 89.37h-30.266l-21.402 21.401v30.267l21.402 21.401h30.266l21.402-21.401v-30.267z" fill="#b49cfb"/></g><path d="m125.958 132.343c-.293-.21-.503-.567-.503-.986 0-.672.545-1.196 1.216-1.196.358 0 .587.104.755.231 1.217.965 2.517 1.51 4.111 1.51s2.6-.755 2.6-1.846v-.041c0-1.049-.586-1.615-3.313-2.245-3.125-.755-4.887-1.677-4.887-4.383v-.042c0-2.516 2.097-4.256 5.012-4.256 1.845 0 3.335.482 4.656 1.363.293.168.566.524.566 1.027 0 .672-.545 1.196-1.217 1.196-.251 0-.461-.063-.67-.189-1.132-.734-2.224-1.111-3.377-1.111-1.51 0-2.39.776-2.39 1.741v.041c0 1.134.67 1.636 3.503 2.307 3.103.755 4.697 1.867 4.697 4.3v.042c0 2.746-2.16 4.383-5.243 4.383-1.993-.001-3.88-.63-5.516-1.846z" fill="#152a62"/><path d="m143.047 121.689h-3.565c-.672 0-1.196-.545-1.196-1.196 0-.649.524-1.194 1.196-1.194h9.752c.651 0 1.175.545 1.175 1.194 0 .651-.524 1.196-1.175 1.196h-3.586v11.115c0 .713-.587 1.279-1.3 1.279-.714 0-1.301-.566-1.301-1.279z" fill="#152a62"/><path d="m151.581 126.68v-.042c0-4.131 3.187-7.591 7.696-7.591 4.51 0 7.655 3.418 7.655 7.549v.042c0 4.132-3.187 7.593-7.696 7.593-4.51-.001-7.655-3.419-7.655-7.551zm12.646 0v-.042c0-2.852-2.077-5.221-4.991-5.221-2.915 0-4.95 2.327-4.95 5.179v.042c0 2.852 2.077 5.201 4.991 5.201 2.915 0 4.95-2.307 4.95-5.159z" fill="#152a62"/><path d="m170.054 120.599c0-.734.566-1.3 1.3-1.3h4.488c3.439 0 5.579 1.949 5.579 4.907v.042c0 3.293-2.642 5.012-5.873 5.012h-2.914v3.544c0 .713-.566 1.279-1.28 1.279-.734 0-1.3-.566-1.3-1.279zm5.579 6.333c1.951 0 3.167-1.091 3.167-2.622v-.041c0-1.72-1.238-2.622-3.167-2.622h-2.999v5.286h2.999z" fill="#152a62"/></svg>