<svg enable-background="new 0 0 300 300" viewBox="0 0 300 300" xmlns="http://www.w3.org/2000/svg">
    <path
        d="M214.506 199.013H85.494C74.522 199.013 65.627 190.118 65.627 179.146V114.931C65.627 103.959 74.522 95.064 85.494 95.064H214.506C225.478 95.064 234.373 103.959 234.373 114.931V179.146C234.373 190.118 225.478 199.013 214.506 199.013Z"
        fill="#E3E0FD" />
    <path
        d="M150.493 235.303C171.999 235.303 189.433 233.875 189.433 232.114C189.433 230.353 171.999 228.925 150.493 228.925C128.987 228.925 111.553 230.353 111.553 232.114C111.553 233.875 128.987 235.303 150.493 235.303Z"
        fill="#E3E0FD" />
    <path
        d="M195.769 204.826L194.012 202.53L193.456 202.807C193.468 201.761 193.362 200.675 193.091 199.551L167.962 95.0833C165.981 86.8483 158.356 80.1722 149.797 80.1722H104.377C103.795 80.1722 103.231 80.2092 102.68 80.2692L101.063 77.8542L94.874 84.0433C94.871 84.0463 94.868 84.0493 94.865 84.0523L94.738 84.1793L94.74 84.1903C92.052 86.9253 90.902 90.9973 91.998 95.5523L117.127 200.019C118.96 207.639 126.865 213.816 134.784 213.816H181.601C185.264 213.816 188.275 212.483 190.287 210.308L195.769 204.826Z"
        fill="#E3E0FD" stroke="#152A62" stroke-linejoin="round" stroke-miterlimit="10" />
    <path
        d="M124.474 210.354C127.519 212.503 131.147 213.817 134.785 213.817H181.602C185.265 213.817 188.276 212.484 190.288 210.309L195.77 204.827L194.013 202.531L193.457 202.808C193.469 201.781 193.364 200.715 193.105 199.613L132.299 202.531L124.474 210.354Z"
        fill="#F5F4F9" stroke="#152A62" stroke-linejoin="round" stroke-miterlimit="10" />
    <path
        d="M187.729 207.689H140.912C132.993 207.689 125.088 201.512 123.255 193.892L98.1261 89.4261C96.1451 81.1911 101.477 74.5151 110.035 74.5151H154.537C163.095 74.5151 171.639 81.1911 173.62 89.4261L198.749 193.893C200.582 201.512 195.648 207.689 187.729 207.689Z"
        fill="#152A62" stroke="#152A62" stroke-linejoin="round" stroke-miterlimit="10" />
    <path
        d="M139.67 203.316C134.379 203.316 129.078 199.171 127.852 194.077L102.724 89.6092C102.045 86.7892 102.554 84.1162 104.156 82.0842C105.779 80.0232 108.309 78.8892 111.277 78.8892H117.394C119.175 78.8892 120.893 80.2342 121.306 81.9522C121.877 84.3252 124.414 86.1842 127.082 86.1842H143.613C144.867 86.1842 145.887 85.7662 146.485 85.0072C147.033 84.3122 147.187 83.3832 146.932 82.3192C146.721 81.4422 146.892 80.5672 147.403 79.9202C147.919 79.2652 148.742 78.8902 149.66 78.8902H155.777C161.707 78.8902 167.648 83.5342 169.022 89.2422L194.151 193.709C194.759 196.235 194.302 198.63 192.866 200.452C191.41 202.3 189.145 203.317 186.487 203.317H139.67V203.316Z"
        fill="white" stroke="#152A62" stroke-linejoin="round" stroke-miterlimit="10" />
    <path
        d="M157.026 125.075C156.891 125.075 156.748 125.042 156.614 124.976C152.986 123.343 150.015 122.65 146.645 122.65C143.292 122.65 140.287 123.425 137.75 124.976C137.393 125.191 136.85 125.042 136.522 124.646C136.372 124.454 136.296 124.228 136.311 124.018C136.326 123.808 136.43 123.631 136.601 123.524C139.366 121.858 142.623 121 146.264 121C149.871 121 153.199 121.776 157.054 123.508C157.527 123.722 157.794 124.217 157.665 124.613C157.63 124.751 157.551 124.867 157.438 124.949C157.325 125.031 157.182 125.075 157.026 125.075ZM134.794 133.738C134.638 133.739 134.475 133.699 134.323 133.62C134.171 133.542 134.036 133.429 133.933 133.294C133.83 133.159 133.763 133.007 133.739 132.855C133.715 132.704 133.736 132.558 133.798 132.434C134.942 130.125 136.656 128.309 138.903 127.039C143.603 124.366 150.407 124.349 156.358 127.022C159.192 128.293 161.741 130.091 163.947 132.385C164.032 132.474 164.101 132.574 164.151 132.68C164.2 132.786 164.229 132.896 164.235 133.004C164.241 133.111 164.224 133.214 164.185 133.306C164.147 133.398 164.087 133.477 164.01 133.54C163.681 133.804 163.137 133.721 162.779 133.342C160.824 131.297 158.47 129.632 155.918 128.491C150.498 126.065 144.283 126.066 140.004 128.507C137.968 129.662 136.418 131.312 135.374 133.391C135.292 133.622 135.065 133.738 134.794 133.738ZM149.975 153.653C149.865 153.655 149.75 153.633 149.638 153.591C149.526 153.548 149.419 153.485 149.325 153.406C147.521 151.97 146.512 151.046 144.916 149.05C143.279 147.02 142.098 144.545 141.485 141.889C140.353 136.988 143.733 132.996 149.016 132.996C154.3 132.996 159.523 136.988 160.654 141.889C160.761 142.351 160.472 142.714 159.998 142.714C159.524 142.714 159.067 142.351 158.961 141.889C158.039 137.896 153.749 134.646 149.397 134.646C145.045 134.646 142.256 137.896 143.178 141.889C143.727 144.265 144.775 146.459 146.22 148.241C147.741 150.139 148.673 150.947 150.274 152.234C150.672 152.564 150.79 153.076 150.545 153.406C150.397 153.571 150.195 153.653 149.975 153.653ZM161.412 150.601C159.397 150.601 157.505 150.106 155.824 149.132C152.916 147.466 150.784 144.76 150.121 141.889C150.014 141.427 150.303 141.064 150.777 141.064C151.251 141.064 151.708 141.427 151.815 141.889C152.352 144.215 154.078 146.41 156.456 147.763C157.841 148.555 159.334 148.934 161.028 148.934C161.434 148.934 162.1 148.885 162.751 148.769C163.189 148.687 163.698 148.984 163.889 149.446C164.076 149.891 163.871 150.32 163.416 150.403C162.492 150.584 161.649 150.601 161.412 150.601ZM158.793 154C158.726 154 158.637 153.983 158.565 153.967C155.705 153.241 153.719 152.267 151.466 150.502C150.037 149.377 148.799 148.035 147.827 146.556C146.855 145.077 146.166 143.491 145.803 141.889C145.186 139.216 147.02 137.038 149.899 137.038C152.777 137.038 155.617 139.216 156.234 141.889C156.642 143.654 158.548 145.09 160.496 145.09C162.443 145.09 163.686 143.654 163.279 141.889C161.843 135.668 155.174 130.619 148.4 130.619C143.591 130.619 139.79 133.226 138.742 137.269C138.39 138.605 138.413 140.173 138.809 141.889C139.106 143.176 139.693 145.205 141.319 147.845C141.587 148.274 141.478 148.753 141.072 148.901C140.669 149.066 140.125 148.835 139.877 148.423C138.58 146.336 137.65 144.122 137.133 141.889C136.676 139.909 136.65 138.11 137.05 136.543C138.239 131.939 142.545 128.953 148.015 128.953C155.72 128.953 163.323 134.744 164.968 141.872C165.586 144.545 163.751 146.723 160.873 146.723C157.994 146.723 155.154 144.545 154.537 141.872C154.129 140.107 152.223 138.671 150.276 138.671C148.328 138.671 147.085 140.107 147.493 141.872C148.144 144.694 149.871 147.334 152.377 149.314C154.344 150.865 156.083 151.723 158.619 152.366C159.103 152.482 159.464 152.944 159.444 153.373C159.447 153.752 159.149 154 158.793 154Z"
        fill="#383EDE" />
    <path d="M98.158 98.2512L95.314 100.967L96.496 105.968L99.34 103.252L98.158 98.2512Z"
        stroke="#152A62" stroke-linejoin="round" stroke-miterlimit="10" />
    <path d="M100.172 106.469L97.3281 109.186L98.5111 114.187L101.354 111.471L100.172 106.469Z"
        stroke="#152A62" stroke-linejoin="round" stroke-miterlimit="10" />
    <path
        d="M217.39 103.818C221.759 122.11 194.232 131.036 194.232 131.036C194.232 131.036 162.441 122.11 158.072 103.818L148.874 66.445C148.294 64.033 149.075 62.647 150.619 61.589L154.657 58.822L206.317 58.532L217.39 103.818Z"
        fill="white" stroke="#152A62" stroke-linejoin="round" stroke-miterlimit="10" />
    <path
        d="M194.232 131.035C194.232 131.035 197.707 129.903 201.988 127.633L170.072 104.777L160.561 109.702C169.29 124.022 194.232 131.035 194.232 131.035Z"
        fill="#B49CFB" stroke="#152A62" stroke-linejoin="round" stroke-miterlimit="10" />
    <path
        d="M222.385 101.277C226.754 119.569 199.227 128.495 199.227 128.495C199.227 128.495 167.436 119.569 163.067 101.277L153.535 61.37C153.189 59.922 154.287 58.53 155.776 58.53H210.356C211.422 58.53 212.35 59.262 212.597 60.299L222.385 101.277Z"
        fill="#84E9D4" stroke="#152A62" stroke-linejoin="round" stroke-miterlimit="10" />
    <path
        d="M178.71 82.7279L176.885 74.8289C175.562 69.0999 179.148 64.4399 184.876 64.4399C190.604 64.4399 196.34 69.0999 197.663 74.8289L199.443 82.5429H195.594L193.814 74.8289C192.981 71.2229 189.371 68.2889 185.764 68.2889C182.157 68.2889 179.902 71.2229 180.734 74.8289L182.558 82.7279H178.71Z"
        fill="#E3E0FD" stroke="#152A62" stroke-linejoin="round" stroke-miterlimit="10" />
    <path
        d="M200.368 79.3398H175.506C173.436 79.3398 172.146 81.0178 172.624 83.0878L177.561 104.473C178.039 106.543 180.104 108.221 182.174 108.221H207.036C209.106 108.221 210.396 106.543 209.918 104.473L204.981 83.0878C204.503 81.0178 202.438 79.3398 200.368 79.3398Z"
        fill="white" stroke="#152A62" stroke-linejoin="round" stroke-miterlimit="10" />
    <path
        d="M195.083 90.6508C194.498 88.1158 191.825 86.0968 189.3 86.4088C187.508 86.6298 186.306 88.0938 186.427 89.9258C186.563 91.9698 188.102 93.7988 189.976 94.5548L191.28 100.202C191.354 100.522 191.673 100.781 191.993 100.781H194.303C194.623 100.781 194.822 100.522 194.748 100.202L193.444 94.5548C194.787 93.8888 195.485 92.3928 195.083 90.6508Z"
        fill="#152A62" stroke="#152A62" stroke-linejoin="round" stroke-miterlimit="10" />
</svg>
