<?xml version="1.0" encoding="UTF-8"?>
<svg width="312px" height="273px" viewBox="0 0 312 273" version="1.1" xmlns="http://www.w3.org/2000/svg" xmlns:xlink="http://www.w3.org/1999/xlink">
    <title>Artboard</title>
    <g id="Artboard" stroke="none" stroke-width="1" fill="none" fill-rule="evenodd">
        <g id="NL_WALLET_phone" transform="translate(102.000000, 56.000000)">
            <path d="M58.9072987,160.787863 C80.4131987,160.787863 97.8472987,159.359863 97.8472987,157.598863 C97.8472987,155.837863 80.4131987,154.409863 58.9072987,154.409863 C37.4012987,154.409863 19.9672987,155.837863 19.9672987,157.598863 C19.9672987,159.359863 37.4012987,160.787863 58.9072987,160.787863 Z" id="Vector" fill="#E3E0FD" fill-rule="nonzero"></path>
            <g id="phone_2" stroke="#152A62" stroke-linejoin="round">
                <g id="Group_2">
                    <path d="M104.182999,130.310863 L102.425999,128.014863 L101.869999,128.291863 C101.881999,127.245863 101.775999,126.159863 101.504999,125.035863 L76.3760987,20.568163 C74.3950987,12.333163 66.7699987,5.657113 58.2109987,5.657113 L12.7909987,5.657113 C12.2089987,5.657113 11.6449987,5.694113 11.0939987,5.754113 L9.47699872,3.339113 L3.28804872,9.528163 C3.28504872,9.531163 3.28203872,9.534163 3.27903872,9.537163 L3.15203872,9.664163 L3.15403872,9.675163 C0.466038722,12.410163 -0.683955278,16.482163 0.412048722,21.037163 L25.5409987,125.503863 C27.3739987,133.123863 35.2789987,139.300863 43.1979987,139.300863 L90.0149987,139.300863 C93.6779987,139.300863 96.6889987,137.967863 98.7009987,135.792863 L104.182999,130.310863 Z" id="Vector_2" fill="#E3E0FD" fill-rule="nonzero"></path>
                    <path d="M32.8881987,135.838863 C35.9331987,137.987863 39.5611987,139.301863 43.1991987,139.301863 L90.0161987,139.301863 C93.6791987,139.301863 96.6901987,137.968863 98.7021987,135.793863 L104.183999,130.311863 L102.426999,128.015863 L101.870999,128.292863 C101.882999,127.265863 101.777999,126.199863 101.518999,125.097863 L40.7131987,128.015863 L32.8881987,135.838863 Z" id="Vector_3" fill="#F5F4F9" fill-rule="nonzero"></path>
                    <path d="M96.1431987,133.173863 L49.3261987,133.173863 C41.4071987,133.173863 33.5021987,126.996863 31.6691987,119.376863 L6.54019872,14.910963 C4.55919872,6.676003 9.89119872,4.21884749e-15 18.4491987,4.21884749e-15 L62.9511987,4.21884749e-15 C71.5091987,4.21884749e-15 80.0531987,6.676003 82.0341987,14.910963 L107.162999,119.377863 C108.995999,126.996863 104.061999,133.173863 96.1431987,133.173863 Z" id="Vector_4" fill="#152A62" fill-rule="nonzero"></path>
                    <path d="M48.0839987,128.801863 C42.7929987,128.801863 37.4919987,124.655863 36.2659987,119.561863 L11.1379987,15.094063 C10.4589987,12.274063 10.9679987,9.601063 12.5699987,7.569023 C14.1929987,5.508023 16.7229987,4.374023 19.6909987,4.374023 L25.8079987,4.374023 C27.5889987,4.374023 29.3069987,5.719023 29.7199987,7.437023 C30.2909987,9.810063 32.8279987,11.669063 35.4959987,11.669063 L52.0270987,11.669063 C53.2810987,11.669063 54.3009987,11.251063 54.8989987,10.492063 C55.4469987,9.797063 55.6010987,8.868023 55.3460987,7.804023 C55.1350987,6.927023 55.3059987,6.052023 55.8169987,5.405023 C56.3329987,4.750023 57.1559987,4.374023 58.0739987,4.374023 L64.1909987,4.374023 C70.1209987,4.374023 76.0619987,9.019023 77.4360987,14.727063 L102.564999,119.193863 C103.172999,121.719863 102.715999,124.114863 101.279999,125.936863 C99.8239987,127.784863 97.5589987,128.801863 94.9009987,128.801863 L48.0839987,128.801863 L48.0839987,128.801863 Z" id="Vector_5" fill="#FFFFFF" fill-rule="nonzero"></path>
                    <g id="Group_3" transform="translate(3.728029, 23.736063)">
                        <polygon id="Vector_6" points="2.84399 -3.55271368e-15 0 2.716 1.182 7.717 4.02599 5.001"></polygon>
                        <polygon id="Vector_7" points="4.85815 8.218 2.01416 10.935 3.19716 15.936 6.04017 13.22"></polygon>
                    </g>
                </g>
            </g>
            <g id="card-1" transform="translate(18.555160, 15.552463)" fill-rule="nonzero">
                <path d="M56.5563385,33.1027 L12.0373385,33.1027 C9.26943851,33.1027 6.47403851,30.8517 5.79403851,28.0746 L0.15023851,5.0281 C-0.52986149,2.251 1.16323851,0 3.93113851,0 L48.4499385,0 C51.2178385,0 54.0134385,2.251 54.6935385,5.0281 L60.3372385,28.0746 C61.0173385,30.8517 59.3242385,33.1027 56.5563385,33.1027 Z" id="Vector_8" stroke="#152A62" stroke-width="0.836476" fill="#89C8FF"></path>
                <path d="M50.4760385,16.0131 L44.4943385,16.0131 C43.7063385,16.0131 42.9202385,15.3983 42.7378385,14.6404 L41.3534385,8.8846 C41.1711385,8.1268 41.6621385,7.512 42.4501385,7.512 L48.4316385,7.512 C49.2196385,7.512 50.0059385,8.1268 50.1883385,8.8846 L51.5727385,14.6404 C51.7550385,15.3983 51.2640385,16.0131 50.4760385,16.0131 Z" id="Vector_9" fill="#152A62"></path>
                <path d="M34.8622385,10.6314 L9.46853851,10.6314 C8.76173851,10.6314 8.04723851,10.0567 7.87323851,9.3466 L7.51353851,7.8769 C7.33963851,7.1675 7.77203851,6.5921 8.47973851,6.5921 L33.8734385,6.5921 C34.5802385,6.5921 35.2947385,7.1667 35.4687385,7.8769 L35.8283385,9.3466 C36.0023385,10.0559 35.5698385,10.6314 34.8622385,10.6314 Z" id="Vector_10" fill="#152A62"></path>
                <path d="M29.1866385,16.6428 L10.5993385,16.6428 C10.0815385,16.6428 9.55793851,16.2212 9.43073851,15.7017 L9.27023851,15.0468 C9.14313851,14.5273 9.46013851,14.1057 9.97783851,14.1057 L28.5651385,14.1057 C29.0829385,14.1057 29.6065385,14.5273 29.7336385,15.0468 L29.8944385,15.7017 C30.0215385,16.2212 29.7043385,16.6428 29.1866385,16.6428 Z" id="Vector_11" fill="#152A62"></path>
                <path d="M19.0970385,26.6086 L13.0382385,26.6086 C12.5205385,26.6086 11.9968385,26.187 11.8697385,25.6675 L11.7092385,25.0126 C11.5820385,24.4931 11.8990385,24.0716 12.4168385,24.0716 L18.4753385,24.0716 C18.9931385,24.0716 19.5167385,24.4931 19.6439385,25.0126 L19.8046385,25.6675 C19.9317385,26.187 19.6147385,26.6086 19.0970385,26.6086 Z" id="Vector_12" fill="#152A62"></path>
            </g>
            <g id="card-2" transform="translate(27.839835, 53.674063)" fill-rule="nonzero">
                <path d="M56.023764,32.2277 L11.796764,32.2277 C8.98706397,32.2277 6.18236397,30.0362 5.53236397,27.3327 L0.135563965,4.8951 C-0.514436035,2.1916 1.23556397,0 4.04526397,0 L48.272264,0 C51.082064,0 53.886564,2.1916 54.536464,4.8951 L59.933564,27.3327 C60.583464,30.0362 58.833564,32.2277 56.023764,32.2277 Z" id="Vector_13" stroke="#152A62" stroke-width="0.836476" fill="#FFB7AD"></path>
                <path d="M34.329064,10.3495 L9.51176397,10.3495 C8.79406397,10.3495 8.07716397,9.7899 7.91146397,9.099 L7.56696397,7.6678 C7.40056397,6.9768 7.84796397,6.4172 8.56566397,6.4172 L33.383164,6.4172 C34.100864,6.4172 34.817564,6.9768 34.983264,7.6678 L35.327964,9.099 C35.494364,9.7899 35.046764,10.3495 34.329064,10.3495 Z" id="Vector_14" fill="#152A62"></path>
                <path d="M28.482064,16.2042 L10.572364,16.2042 C10.046264,16.2042 9.52166397,15.7943 9.40036397,15.2882 L9.24746397,14.6508 C9.12616397,14.1447 9.45316397,13.7349 9.97936397,13.7349 L27.889064,13.7349 C28.415164,13.7349 28.939764,14.1447 29.061064,14.6508 L29.213964,15.2882 C29.335264,15.7943 29.008264,16.2042 28.482064,16.2042 Z" id="Vector_15" fill="#152A62"></path>
                <path d="M18.099164,25.9053 L12.904664,25.9053 C12.378464,25.9053 11.853964,25.4954 11.732664,24.9894 L11.579464,24.352 C11.458164,23.8459 11.785264,23.436 12.311364,23.436 L17.506064,23.436 C18.032264,23.436 18.556564,23.8459 18.677864,24.352 L18.831064,24.9894 C18.952364,25.4954 18.625264,25.9053 18.099164,25.9053 Z" id="Vector_16" fill="#152A62"></path>
                <path d="M49.556664,16.3693 L43.574864,16.3693 C42.786964,16.3693 42.000764,15.7545 41.818464,14.9966 L40.434064,9.2408 C40.251664,8.483 40.742764,7.8682 41.530664,7.8682 L47.512264,7.8682 C48.300164,7.8682 49.086564,8.483 49.268864,9.2408 L50.653264,14.9966 C50.835664,15.7545 50.344564,16.3693 49.556664,16.3693 Z" id="Vector_17" fill="#152A62"></path>
            </g>
            <g id="card-3" transform="translate(36.760729, 90.908163)" fill-rule="nonzero">
                <path d="M56.0407701,32.2357 L11.8004701,32.2357 C8.98997015,32.2357 6.18437015,30.0437 5.53447015,27.3407 L0.135770147,4.896 C-0.515029853,2.1916 1.23657015,0 4.04637015,0 L48.2866701,0 C51.0971701,0 53.9026701,2.1925 54.5526701,4.896 L59.9513701,27.3407 C60.6020701,30.0447 58.8504701,32.2357 56.0407701,32.2357 Z" id="Vector_18" stroke="#152A62" stroke-width="0.836476" fill="#FFFFFF"></path>
                <path d="M28.4915701,16.2087 L10.5759701,16.2087 C10.0497701,16.2087 9.52547015,15.7987 9.40327015,15.2927 L9.25017015,14.6537 C9.12807015,14.1477 9.45587015,13.7377 9.98207015,13.7377 L27.8976701,13.7377 C28.4237701,13.7377 28.9483701,14.1477 29.0704701,14.6537 L29.2234701,15.2927 C29.3455701,15.7987 29.0176701,16.2087 28.4915701,16.2087 Z" id="Vector_19" fill="#152A62"></path>
                <path d="M18.1060701,25.9107 L12.9098701,25.9107 C12.3837701,25.9107 11.8591701,25.5007 11.7370701,24.9947 L11.5841701,24.3567 C11.4619701,23.8507 11.7898701,23.4407 12.3160701,23.4407 L17.5121701,23.4407 C18.0382701,23.4407 18.5628701,23.8507 18.6849701,24.3567 L18.8379701,24.9947 C18.9600701,25.5007 18.6321701,25.9107 18.1060701,25.9107 Z" id="Vector_20" fill="#152A62"></path>
                <g id="Group_4" transform="translate(7.533703, 6.419600)" fill="#152A62">
                    <path d="M26.8052671,3.9321 L1.98036708,3.9321 C1.26266708,3.9321 0.545967077,3.3721 0.379467077,2.6821 L0.0347670769,1.2505 C-0.131732923,0.5596 0.315867077,-1.42108547e-14 1.03356708,-1.42108547e-14 L25.8584671,-1.42108547e-14 C26.5761671,-1.42108547e-14 27.2928671,0.5604 27.4593671,1.2505 L27.8040671,2.6821 C27.9705671,3.3731 27.5229671,3.9321 26.8052671,3.9321 Z" id="Vector_21"></path>
                    <path d="M41.4648671,8.6861 L35.4830671,8.6861 C34.6951671,8.6861 33.9089671,8.0711 33.7266671,7.3131 L32.3422671,1.5572 C32.1598671,0.7994 32.6508671,0.1846 33.4388671,0.1846 L39.4203671,0.1846 C40.2083671,0.1846 40.9947671,0.7994 41.1770671,1.5572 L42.5614671,7.3131 C42.7438671,8.0711 42.2527671,8.6861 41.4648671,8.6861 Z" id="Vector_22"></path>
                </g>
            </g>
        </g>
    </g>
</svg>