<svg enable-background="new 0 0 300 300" viewBox="0 0 300 300" xmlns="http://www.w3.org/2000/svg"><path d="m214.506 199.013h-129.012c-10.972 0-19.867-8.895-19.867-19.867v-64.215c0-10.972 8.895-19.867 19.867-19.867h129.012c10.972 0 19.867 8.895 19.867 19.867v64.215c0 10.972-8.895 19.867-19.867 19.867z" fill="#e3e0fd"/><ellipse cx="150.493" cy="232.114" fill="#e3e0fd" rx="38.94" ry="3.189"/><g stroke="#152a62" stroke-linejoin="round" stroke-miterlimit="10"><path d="m195.769 204.826-1.757-2.296-.556.277c.012-1.046-.094-2.132-.365-3.256l-25.129-104.468c-1.981-8.235-9.606-14.911-18.165-14.911h-45.42c-.582 0-1.146.037-1.697.097l-1.617-2.415-6.189 6.189c-.003.003-.006.006-.009.009l-.127.127.002.011c-2.688 2.735-3.838 6.807-2.742 11.362l25.129 104.467c1.833 7.62 9.738 13.797 17.657 13.797h46.817c3.663 0 6.674-1.333 8.686-3.508z" fill="#e3e0fd"/><path d="m124.474 210.354c3.045 2.149 6.673 3.463 10.311 3.463h46.817c3.663 0 6.674-1.333 8.686-3.508l5.482-5.482-1.757-2.296-.556.277c.012-1.027-.093-2.093-.352-3.195l-60.806 2.918z" fill="#f5f4f9"/><path d="m187.729 207.689h-46.817c-7.919 0-15.824-6.177-17.657-13.797l-25.129-104.466c-1.981-8.235 3.351-14.911 11.909-14.911h44.502c8.558 0 17.102 6.676 19.083 14.911l25.129 104.467c1.833 7.619-3.101 13.796-11.02 13.796z" fill="#152a62"/><path d="m139.67 203.316c-5.291 0-10.592-4.145-11.818-9.239l-25.128-104.468c-.679-2.82-.17-5.493 1.432-7.525 1.623-2.061 4.153-3.195 7.121-3.195h6.117c1.781 0 3.499 1.345 3.912 3.063.571 2.373 3.108 4.232 5.776 4.232h16.531c1.254 0 2.274-.418 2.872-1.177.548-.695.702-1.624.447-2.688-.211-.877-.04-1.752.471-2.399.516-.655 1.339-1.03 2.257-1.03h6.117c5.93 0 11.871 4.644 13.245 10.352l25.129 104.467c.608 2.526.151 4.921-1.285 6.743-1.456 1.848-3.721 2.865-6.379 2.865h-46.817z" fill="#fff"/><path d="m98.158 98.251-2.844 2.716 1.182 5.001 2.844-2.716z" fill="none"/><path d="m100.172 106.469-2.844 2.717 1.183 5.001 2.843-2.716z" fill="none"/><path d="m167.685 129.535h-44.933c-2.509 0-4.07 2.034-3.487 4.543l2.416 10.495c.583 2.509 3.09 4.543 5.599 4.543h44.933c2.509 0 4.07-2.034 3.487-4.543l-2.416-10.495c-.584-2.509-3.09-4.543-5.599-4.543z" fill="#89c8ff"/><path d="m128.64 134.993 1.892 8.131" fill="none" stroke-linecap="round" stroke-width="1.5196"/><path d="m126.432 141.091 6.308-4.065" fill="none" stroke-linecap="round" stroke-width="1.5196"/><path d="m133.686 141.091-8.201-4.065" fill="none" stroke-linecap="round" stroke-width="1.5196"/><path d="m140.594 134.993 1.892 8.131" fill="none" stroke-linecap="round" stroke-width="1.5196"/><path d="m138.386 141.091 6.308-4.065" fill="none" stroke-linecap="round" stroke-width="1.5196"/><path d="m145.64 141.091-8.201-4.065" fill="none" stroke-linecap="round" stroke-width="1.5196"/><path d="m152.548 134.993 1.892 8.131" fill="none" stroke-linecap="round" stroke-width="1.5196"/><path d="m150.34 141.091 6.308-4.065" fill="none" stroke-linecap="round" stroke-width="1.5196"/><path d="m157.594 141.091-8.201-4.065" fill="none" stroke-linecap="round" stroke-width="1.5196"/><path d="m164.501 134.993 1.893 8.131" fill="none" stroke-linecap="round" stroke-width="1.5196"/><path d="m162.294 141.091 6.308-4.065" fill="none" stroke-linecap="round" stroke-width="1.5196"/><path d="m169.548 141.091-8.201-4.065" fill="none" stroke-linecap="round" stroke-width="1.5196"/><path d="m217.39 103.818c4.369 18.292-23.158 27.218-23.158 27.218s-31.791-8.926-36.16-27.218l-9.198-37.373c-.58-2.412.201-3.798 1.745-4.856l4.038-2.767 51.66-.29z" fill="#fff"/><path d="m194.232 131.035s3.475-1.132 7.756-3.402l-31.916-22.856-9.511 4.925c8.729 14.32 33.671 21.333 33.671 21.333z" fill="#b49cfb"/><path d="m222.385 101.277c4.369 18.292-23.158 27.218-23.158 27.218s-31.791-8.926-36.16-27.218l-9.532-39.907c-.346-1.448.752-2.84 2.241-2.84h54.58c1.066 0 1.994.732 2.241 1.769z" fill="#84e9d4"/><path d="m178.709 82.728-1.824-7.899c-1.323-5.729 2.262-10.389 7.99-10.389s11.464 4.66 12.787 10.389l1.781 7.714h-3.849l-1.781-7.714c-.833-3.606-4.443-6.54-8.05-6.54s-5.862 2.934-5.03 6.54l1.824 7.899z" fill="#e3e0fd"/><path d="m200.368 79.34h-24.862c-2.07 0-3.36 1.678-2.882 3.748l4.937 21.385c.478 2.07 2.543 3.748 4.613 3.748h24.862c2.07 0 3.36-1.678 2.882-3.748l-4.937-21.385c-.478-2.07-2.543-3.748-4.613-3.748z" fill="#fff"/><path d="m195.083 90.651c-.585-2.535-3.258-4.554-5.783-4.242-1.792.221-2.994 1.685-2.873 3.517.136 2.044 1.675 3.873 3.549 4.629l1.304 5.647c.074.32.393.579.713.579h2.31c.32 0 .519-.259.445-.579l-1.304-5.647c1.343-.666 2.041-2.162 1.639-3.904z" fill="#152a62"/></g></svg>