<svg width="300" height="200" viewBox="0 0 300 200" fill="none" xmlns="http://www.w3.org/2000/svg">
<path d="M214.879 149.013H85.867C74.895 149.013 66 140.118 66 129.146V64.931C66 53.959 74.895 45.064 85.867 45.064H214.879C225.851 45.064 234.746 53.959 234.746 64.931V129.146C234.746 140.118 225.851 149.013 214.879 149.013Z" fill="#E3E0FD"/>
<path d="M149.102 167.208C175.668 167.208 197.204 165.818 197.204 164.104C197.204 162.39 175.668 161 149.102 161C122.536 161 101 162.39 101 164.104C101 165.818 122.536 167.208 149.102 167.208Z" fill="#E3E0FD"/>
<path d="M197.499 129.619C197.65 128.612 197.613 127.526 197.339 126.389L187.189 84.1882C185.966 79.1042 180.69 74.9821 175.407 74.9821H94.7081L94.8991 73.9192L93.8493 73.4341L89.8897 76.37L89.8885 76.3842C87.5742 78.0105 86.4628 80.893 87.2552 84.1882L97.4067 126.389C98.6297 131.473 103.905 135.595 109.188 135.595H189.986C191.989 135.595 193.704 135.001 194.997 133.988L199.052 130.992L197.499 129.619Z" fill="#152A62" stroke="#152A62" stroke-miterlimit="10" stroke-linejoin="round"/>
<path d="M94.707 74.9821L94.898 73.9192L93.8482 73.4341L89.8886 76.37L89.8874 76.3842C87.5731 78.0105 86.4617 80.893 87.2541 84.1882L97.4056 126.389C98.0082 128.895 99.6025 131.163 101.691 132.823L108.821 127.497L115.162 74.9821H94.707Z" fill="#F5F4F9" stroke="#152A62" stroke-miterlimit="10" stroke-linejoin="round" stroke-dasharray="2 2"/>
<path d="M194.024 132.613H113.226C107.943 132.613 102.668 128.491 101.445 123.407L91.2933 81.2062C90.0703 76.1221 93.3621 72 98.6466 72H179.444C184.727 72 190.003 76.1221 191.226 81.2062L201.377 123.407C202.599 128.491 199.307 132.613 194.024 132.613Z" fill="#F5F4F9" stroke="#152A62" stroke-miterlimit="10" stroke-dasharray="2 2"/>
<path d="M191.343 96.686C201.474 96.686 209.686 88.4736 209.686 78.343C209.686 68.2124 201.474 60 191.343 60C181.212 60 173 68.2124 173 78.343C173 88.4736 181.212 96.686 191.343 96.686Z" fill="#FFB7AD" stroke="#152A62" stroke-miterlimit="10" stroke-linejoin="round"/>
<path d="M189.942 82.426C189.804 82.426 189.674 82.371 189.576 82.272C189.477 82.172 189.424 82.039 189.426 81.899C189.448 80.478 189.598 79.505 189.887 78.928C190.198 78.308 190.998 77.431 192.331 76.249C192.854 75.813 193.294 75.337 193.64 74.833C193.975 74.345 194.144 73.815 194.144 73.258C194.144 72.68 193.92 72.143 193.476 71.658C193.037 71.177 192.36 70.934 191.463 70.934C190.452 70.934 189.694 71.228 189.21 71.808C188.839 72.253 188.561 72.681 188.386 73.079C188.285 73.311 188.054 73.46 187.798 73.46C187.715 73.46 187.634 73.444 187.556 73.414L185.543 72.621C185.372 72.554 185.232 72.418 185.16 72.249C185.09 72.085 185.089 71.904 185.156 71.742C185.599 70.674 186.297 69.731 187.232 68.941C188.313 68.027 189.736 67.564 191.462 67.564C193.155 67.564 194.641 68.025 195.883 68.934C197.141 69.853 197.779 71.189 197.779 72.902C197.779 73.911 197.545 74.788 197.083 75.509C196.634 76.216 196.012 76.968 195.235 77.744C194.216 78.704 193.592 79.462 193.379 80.002C193.191 80.479 193.085 81.124 193.063 81.921C193.056 82.204 192.83 82.427 192.551 82.427L189.942 82.426Z" fill="#152A62"/>
<path d="M191.324 89.2588C192.648 89.2588 193.721 88.1857 193.721 86.8618C193.721 85.538 192.648 84.4648 191.324 84.4648C190 84.4648 188.927 85.538 188.927 86.8618C188.927 88.1857 190 89.2588 191.324 89.2588Z" fill="#152A62"/>
</svg>
