<svg width="328" height="214" viewBox="0 0 328 214" fill="none" xmlns="http://www.w3.org/2000/svg">
<g clip-path="url(#clip0_50543_3687)">
<path d="M0 16C0 7.16344 7.16344 0 16 0H312C320.837 0 328 7.16344 328 16V198C328 206.837 320.837 214 312 214H16C7.16345 214 0 206.837 0 198V16Z" fill="#F5F4F9"/>
<path d="M228.879 156.013H99.867C88.895 156.013 80 147.118 80 136.146V71.931C80 60.959 88.895 52.064 99.867 52.064H228.879C239.851 52.064 248.746 60.959 248.746 71.931V136.146C248.746 147.118 239.851 156.013 228.879 156.013Z" fill="#E3E0FD"/>
<path d="M120.909 187.788C142.415 187.788 159.849 186.36 159.849 184.599C159.849 182.838 142.415 181.41 120.909 181.41C99.4028 181.41 81.9688 182.838 81.9688 184.599C81.9688 186.36 99.4028 187.788 120.909 187.788Z" fill="#E3E0FD"/>
<path d="M166.183 157.311L164.426 155.015L163.87 155.292C163.882 154.246 163.776 153.16 163.505 152.036L138.376 47.568C136.395 39.333 128.77 32.657 120.211 32.657H74.791C74.209 32.657 73.645 32.694 73.094 32.754L71.477 30.339L65.288 36.528C65.285 36.531 65.282 36.534 65.279 36.537L65.152 36.664L65.154 36.675C62.466 39.41 61.316 43.482 62.412 48.037L87.541 152.504C89.374 160.124 97.279 166.301 105.198 166.301H152.015C155.678 166.301 158.689 164.968 160.701 162.793L166.183 157.311Z" fill="#E3E0FD" stroke="#152A62" stroke-miterlimit="10" stroke-linejoin="round"/>
<path d="M94.8867 162.839C97.9317 164.988 101.56 166.302 105.198 166.302H152.015C155.678 166.302 158.689 164.969 160.701 162.794L166.183 157.312L164.426 155.016L163.87 155.293C163.882 154.266 163.777 153.2 163.518 152.098L102.712 155.016L94.8867 162.839Z" fill="#F5F4F9" stroke="#152A62" stroke-miterlimit="10" stroke-linejoin="round"/>
<path d="M158.141 160.174H111.324C103.405 160.174 95.5002 153.997 93.6672 146.377L68.5383 41.911C66.5573 33.676 71.8893 27 80.4473 27H124.949C133.507 27 142.051 33.676 144.032 41.911L169.161 146.378C170.994 153.997 166.06 160.174 158.141 160.174Z" fill="#152A62" stroke="#152A62" stroke-miterlimit="10" stroke-linejoin="round"/>
<path d="M110.083 155.801C104.792 155.801 99.4911 151.656 98.2651 146.562L73.1371 42.094C72.4581 39.274 72.9671 36.601 74.5691 34.569C76.1921 32.508 78.7221 31.374 81.6901 31.374H87.8071C89.5881 31.374 91.3061 32.719 91.7191 34.437C92.2901 36.81 94.8271 38.669 97.4951 38.669H114.026C115.28 38.669 116.3 38.251 116.898 37.492C117.446 36.797 117.6 35.868 117.345 34.804C117.134 33.927 117.305 33.052 117.816 32.405C118.332 31.75 119.155 31.375 120.073 31.375H126.19C132.12 31.375 138.061 36.019 139.435 41.727L164.564 146.194C165.172 148.72 164.715 151.115 163.279 152.937C161.823 154.785 159.558 155.802 156.9 155.802H110.083V155.801Z" fill="white" stroke="#152A62" stroke-miterlimit="10" stroke-linejoin="round"/>
<path d="M68.5706 50.736L65.7266 53.452L66.9086 58.453L69.7526 55.737L68.5706 50.736Z" stroke="#152A62" stroke-miterlimit="10" stroke-linejoin="round"/>
<path d="M70.5862 58.954L67.7422 61.671L68.9252 66.672L71.7682 63.956L70.5862 58.954Z" stroke="#152A62" stroke-miterlimit="10" stroke-linejoin="round"/>
<path d="M137.111 75.6551H92.592C89.8241 75.6551 87.0287 73.4041 86.3487 70.627L80.7049 47.5804C80.0249 44.8033 81.7179 42.5524 84.4858 42.5524H129.005C131.773 42.5524 134.568 44.8033 135.248 47.5804L140.892 70.627C141.572 73.4041 139.879 75.6551 137.111 75.6551Z" fill="#8CD7FF" stroke="#152A62" stroke-width="0.836476" stroke-miterlimit="10"/>
<path d="M131.032 58.5654H125.05C124.262 58.5654 123.476 57.9506 123.294 57.1928L121.909 51.437C121.727 50.6791 122.218 50.0643 123.006 50.0643H128.987C129.775 50.0643 130.562 50.6791 130.744 51.437L132.128 57.1928C132.311 57.9506 131.82 58.5654 131.032 58.5654Z" fill="#152A62"/>
<path d="M115.418 53.1839H90.0247C89.3179 53.1839 88.6033 52.6092 88.4294 51.8991L88.0697 50.4294C87.8957 49.72 88.3282 49.1445 89.0359 49.1445H114.43C115.136 49.1445 115.851 49.7192 116.025 50.4294L116.385 51.8991C116.558 52.6084 116.126 53.1839 115.418 53.1839Z" fill="#152A62"/>
<path d="M109.741 59.1951H91.154C90.6362 59.1951 90.1126 58.7736 89.9854 58.2541L89.8249 57.5992C89.6978 57.0797 90.0148 56.6581 90.5325 56.6581H109.12C109.638 56.6581 110.161 57.0797 110.288 57.5992L110.449 58.2541C110.576 58.7736 110.259 59.1951 109.741 59.1951Z" fill="#152A62"/>
<path d="M99.6502 69.161H93.5915C93.0737 69.161 92.5501 68.7394 92.4229 68.2199L92.2624 67.565C92.1353 67.0455 92.4523 66.6239 92.97 66.6239H99.0286C99.5464 66.6239 100.07 67.0455 100.197 67.565L100.358 68.2199C100.485 68.7394 100.168 69.161 99.6502 69.161Z" fill="#152A62"/>
<path d="M145.864 112.902H101.637C98.8269 112.902 96.0222 110.71 95.3722 108.007L89.9754 85.5691C89.3254 82.8656 91.0754 80.6741 93.8851 80.6741H138.112C140.922 80.6741 143.726 82.8656 144.376 85.5691L149.773 108.007C150.423 110.71 148.673 112.902 145.864 112.902Z" fill="white" stroke="#152A62" stroke-width="0.836476" stroke-miterlimit="10"/>
<path d="M124.168 91.0237H99.3506C98.6329 91.0237 97.916 90.4641 97.7504 89.7731L97.4059 88.3419C97.2394 87.651 97.6868 87.0914 98.4045 87.0914H123.222C123.94 87.0914 124.656 87.651 124.822 88.3419L125.167 89.7731C125.333 90.4641 124.886 91.0237 124.168 91.0237Z" fill="#152A62"/>
<path d="M118.322 96.8782H100.413C99.8866 96.8782 99.362 96.4684 99.2407 95.9623L99.0878 95.3249C98.9665 94.8188 99.2935 94.4089 99.8197 94.4089H117.729C118.256 94.4089 118.78 94.8188 118.901 95.3249L119.054 95.9623C119.176 96.4684 118.849 96.8782 118.322 96.8782Z" fill="#152A62"/>
<path d="M107.939 106.579H102.745C102.219 106.579 101.694 106.169 101.573 105.663L101.42 105.026C101.299 104.52 101.626 104.11 102.152 104.11H107.346C107.873 104.11 108.397 104.52 108.518 105.026L108.671 105.663C108.793 106.169 108.466 106.579 107.939 106.579Z" fill="#152A62"/>
<path d="M139.395 97.0433H133.413C132.625 97.0433 131.839 96.4285 131.657 95.6706L130.272 89.9148C130.09 89.157 130.581 88.5422 131.369 88.5422H137.351C138.139 88.5422 138.925 89.157 139.107 89.9148L140.492 95.6706C140.674 96.4285 140.183 97.0433 139.395 97.0433Z" fill="#152A62"/>
<path d="M200.743 65.041H249.679C251.404 65.041 252.803 66.4399 252.803 68.165V85.8652H197.619V68.165C197.619 66.4399 199.018 65.041 200.743 65.041Z" fill="#FFB7AD" stroke="#152A62" stroke-width="2.08239"/>
<rect x="240.309" y="69.7267" width="7.80896" height="7.80896" rx="1.04119" fill="#152A62"/>
<rect x="202.305" y="69.7266" width="29.1535" height="4.16478" rx="1.04119" fill="#152A62"/>
<rect x="202.824" y="77.015" width="19.7827" height="2.08239" rx="0.520597" fill="#152A62"/>
<path d="M185.645 86.9063H263.214V112.416H185.645V86.9063Z" fill="white"/>
<rect x="192" y="101" width="65" height="2" rx="0.805958" fill="#152A62"/>
<rect x="251.762" y="91.5917" width="5.20597" height="5.20597" rx="0.520597" fill="#152A62"/>
<path d="M260.09 83.2621C263.54 83.2623 266.337 86.0591 266.337 89.5092V110.333C266.337 113.783 263.54 116.58 260.09 116.58H188.247C184.797 116.58 182 113.784 182 110.333V89.5092C182 86.0591 184.797 83.2622 188.247 83.2621H260.09ZM188.247 87.4272L188.14 87.4291C187.04 87.4851 186.165 88.3952 186.165 89.5092V110.333L186.167 110.441C186.223 111.541 187.133 112.415 188.247 112.415H260.09C261.24 112.415 262.172 111.483 262.172 110.333V89.5092C262.172 88.3953 261.297 87.4851 260.197 87.4291L260.09 87.4272H188.247Z" fill="#152A62"/>
<path d="M204 112V118H201.165C199.417 118 198 116.583 198 114.835V112H204Z" fill="#FFB7AD" stroke="#152A62" stroke-width="2"/>
<path d="M204 102V106H198V102H204Z" fill="#FFB7AD" stroke="#152A62" stroke-width="2"/>
<path d="M216 102V108H210V102H216Z" fill="#FFB7AD" stroke="#152A62" stroke-width="2"/>
<path d="M216 128V132H210V128H216Z" fill="#FFB7AD" stroke="#152A62" stroke-width="2"/>
<path d="M228 102V107H222V102H228Z" fill="#FFB7AD" stroke="#152A62" stroke-width="2"/>
<path d="M228 112V117H222V112H228Z" fill="#FFB7AD" stroke="#152A62" stroke-width="2"/>
<path d="M240 105V110H234V105H240Z" fill="#FFB7AD" stroke="#152A62" stroke-width="2"/>
<path d="M240 125V129H234V125H240Z" fill="#FFB7AD" stroke="#152A62" stroke-width="2"/>
<path d="M252 102V106H246V102H252Z" fill="#FFB7AD" stroke="#152A62" stroke-width="2"/>
<path d="M252 120V120.835C252 122.583 250.583 124 248.835 124H246V120H252Z" fill="#FFB7AD" stroke="#152A62" stroke-width="2"/>
</g>
<defs>
<clipPath id="clip0_50543_3687">
<path d="M0 16C0 7.16344 7.16344 0 16 0H312C320.837 0 328 7.16344 328 16V198C328 206.837 320.837 214 312 214H16C7.16345 214 0 206.837 0 198V16Z" fill="white"/>
</clipPath>
</defs>
</svg>
