<svg width="300" height="200" viewBox="0 0 300 200" fill="none" xmlns="http://www.w3.org/2000/svg">
<g clip-path="url(#clip0_25439_14791)">
<path d="M20 44C20 30.7452 30.7452 20 44 20H256C269.255 20 280 30.7452 280 44V200H20V44Z" fill="#FCFCFC"/>
<g clip-path="url(#clip1_25439_14791)">
<path d="M20 37.3333C20 27.7604 27.7604 20 37.3333 20H262.667C272.24 20 280 27.7604 280 37.3333V182.666C280 192.239 272.24 200 262.667 200H37.3333C27.7604 200 20 192.239 20 182.666V37.3333Z" fill="#FCFCFC"/>
<rect width="260" height="40" transform="translate(20 20)" fill="#FCFCFC"/>
<path d="M51.0309 38.1109V39.2069C51.0309 39.7961 50.9782 40.2931 50.8729 40.6979C50.7676 41.1027 50.6162 41.4286 50.4187 41.6754C50.2212 41.9223 49.9826 42.1017 49.7028 42.2136C49.4263 42.3222 49.1136 42.3765 48.7648 42.3765C48.4883 42.3765 48.2332 42.342 47.9995 42.2728C47.7658 42.2037 47.5552 42.0935 47.3676 41.9421C47.1832 41.7874 47.0253 41.5866 46.8936 41.3397C46.762 41.0929 46.6616 40.7934 46.5924 40.4412C46.5233 40.089 46.4888 39.6776 46.4888 39.2069V38.1109C46.4888 37.5217 46.5414 37.028 46.6468 36.6298C46.7554 36.2315 46.9084 35.9122 47.1059 35.672C47.3034 35.4284 47.5404 35.254 47.8168 35.1486C48.0966 35.0433 48.4093 34.9907 48.7549 34.9907C49.0347 34.9907 49.2914 35.0252 49.5251 35.0943C49.762 35.1602 49.9727 35.2671 50.157 35.4152C50.3413 35.5601 50.4977 35.7543 50.626 35.9978C50.7577 36.2381 50.8581 36.5327 50.9272 36.8816C50.9963 37.2304 51.0309 37.6402 51.0309 38.1109ZM50.1126 39.355V37.9578C50.1126 37.6353 50.0928 37.3522 50.0533 37.1087C50.0171 36.8618 49.9628 36.6512 49.8904 36.4767C49.818 36.3023 49.7258 36.1607 49.6139 36.0521C49.5053 35.9435 49.3786 35.8645 49.2338 35.8152C49.0922 35.7625 48.9326 35.7362 48.7549 35.7362C48.5377 35.7362 48.3451 35.7773 48.1772 35.8596C48.0094 35.9386 47.8679 36.0653 47.7527 36.2397C47.6408 36.4142 47.5552 36.6429 47.4959 36.926C47.4367 37.209 47.4071 37.553 47.4071 37.9578V39.355C47.4071 39.6776 47.4252 39.9623 47.4614 40.2091C47.5009 40.456 47.5585 40.6699 47.6342 40.851C47.7099 41.0287 47.802 41.1752 47.9106 41.2904C48.0193 41.4056 48.1443 41.4911 48.2859 41.5471C48.4307 41.5997 48.5903 41.6261 48.7648 41.6261C48.9886 41.6261 49.1844 41.5833 49.3523 41.4977C49.5201 41.4121 49.66 41.2788 49.7719 41.0978C49.8871 40.9135 49.9727 40.6782 50.0286 40.3918C50.0846 40.1022 50.1126 39.7566 50.1126 39.355Z" fill="#2F3D63"/>
<path d="M41.9833 38.2343H42.635C42.9543 38.2343 43.2176 38.1817 43.425 38.0763C43.6356 37.9677 43.792 37.8212 43.894 37.6369C43.9993 37.4493 44.052 37.2387 44.052 37.005C44.052 36.7285 44.0059 36.4965 43.9137 36.3089C43.8216 36.1212 43.6833 35.9797 43.499 35.8843C43.3147 35.7888 43.081 35.7411 42.798 35.7411C42.5412 35.7411 42.3141 35.7921 42.1166 35.8941C41.9225 35.9929 41.7694 36.1344 41.6575 36.3187C41.5489 36.503 41.4946 36.7203 41.4946 36.9704H40.5812C40.5812 36.6051 40.6734 36.2727 40.8577 35.9731C41.042 35.6736 41.3004 35.435 41.6328 35.2573C41.9685 35.0795 42.3569 34.9907 42.798 34.9907C43.2324 34.9907 43.6126 35.068 43.9384 35.2227C44.2643 35.3741 44.5177 35.6012 44.6987 35.904C44.8798 36.2035 44.9703 36.5771 44.9703 37.0247C44.9703 37.2058 44.9275 37.4 44.8419 37.6073C44.7596 37.8114 44.6296 38.0023 44.4519 38.18C44.2774 38.3577 44.0503 38.5042 43.7706 38.6194C43.4908 38.7313 43.1551 38.7873 42.7634 38.7873H41.9833V38.2343ZM41.9833 38.9847V38.4367H42.7634C43.2209 38.4367 43.5994 38.491 43.8989 38.5997C44.1984 38.7083 44.4338 38.8531 44.6049 39.0341C44.7794 39.2151 44.9012 39.4143 44.9703 39.6315C45.0427 39.8454 45.0789 40.0594 45.0789 40.2733C45.0789 40.609 45.0213 40.9069 44.9061 41.1669C44.7942 41.4269 44.6345 41.6475 44.4272 41.8285C44.2231 42.0095 43.9829 42.1461 43.7064 42.2383C43.4299 42.3304 43.1287 42.3765 42.8029 42.3765C42.4902 42.3765 42.1956 42.3321 41.9192 42.2432C41.646 42.1543 41.4041 42.026 41.1934 41.8581C40.9828 41.687 40.8182 41.478 40.6997 41.2311C40.5812 40.981 40.522 40.6963 40.522 40.377H41.4353C41.4353 40.6271 41.4896 40.846 41.5983 41.0336C41.7102 41.2212 41.8681 41.3677 42.0722 41.473C42.2796 41.5751 42.5231 41.6261 42.8029 41.6261C43.0827 41.6261 43.3229 41.5784 43.5237 41.4829C43.7278 41.3842 43.8841 41.2361 43.9927 41.0386C44.1046 40.8411 44.1606 40.5926 44.1606 40.2931C44.1606 39.9936 44.0981 39.7483 43.973 39.5574C43.8479 39.3633 43.6702 39.2201 43.4398 39.1279C43.2127 39.0325 42.9444 38.9847 42.635 38.9847H41.9833Z" fill="#2F3D63"/>
<path d="M38.0801 41.7939C38.0801 41.6392 38.1278 41.5092 38.2233 41.4039C38.322 41.2953 38.4635 41.241 38.6478 41.241C38.8322 41.241 38.972 41.2953 39.0675 41.4039C39.1662 41.5092 39.2156 41.6392 39.2156 41.7939C39.2156 41.9453 39.1662 42.0737 39.0675 42.179C38.972 42.2843 38.8322 42.337 38.6478 42.337C38.4635 42.337 38.322 42.2843 38.2233 42.179C38.1278 42.0737 38.0801 41.9453 38.0801 41.7939ZM38.085 37.4345C38.085 37.2798 38.1327 37.1498 38.2282 37.0445C38.3269 36.9358 38.4685 36.8815 38.6528 36.8815C38.8371 36.8815 38.977 36.9358 39.0724 37.0445C39.1712 37.1498 39.2205 37.2798 39.2205 37.4345C39.2205 37.5859 39.1712 37.7142 39.0724 37.8196C38.977 37.9249 38.8371 37.9776 38.6528 37.9776C38.4685 37.9776 38.3269 37.9249 38.2282 37.8196C38.1327 37.7142 38.085 37.5859 38.085 37.4345Z" fill="#2F3D63"/>
<path d="M33.0614 41.5125H33.1552C33.6818 41.5125 34.1097 41.4385 34.4389 41.2904C34.768 41.1422 35.0214 40.9431 35.1992 40.693C35.3769 40.4428 35.4987 40.1614 35.5645 39.8487C35.6303 39.5328 35.6632 39.2086 35.6632 38.8761V37.7752C35.6632 37.4493 35.6254 37.1597 35.5497 36.9062C35.4773 36.6528 35.3753 36.4405 35.2436 36.2694C35.1152 36.0982 34.9688 35.9682 34.8042 35.8793C34.6396 35.7905 34.4652 35.746 34.2809 35.746C34.0702 35.746 33.881 35.7888 33.7131 35.8744C33.5485 35.9567 33.4087 36.0735 33.2935 36.2249C33.1816 36.3763 33.096 36.5541 33.0367 36.7581C32.9775 36.9622 32.9479 37.1844 32.9479 37.4246C32.9479 37.6386 32.9742 37.8459 33.0269 38.0467C33.0795 38.2475 33.1602 38.4285 33.2688 38.5898C33.3774 38.7511 33.5123 38.8794 33.6736 38.9749C33.8382 39.067 34.0307 39.1131 34.2512 39.1131C34.4553 39.1131 34.6462 39.0736 34.8239 38.9946C35.005 38.9123 35.1646 38.8021 35.3028 38.6638C35.4444 38.5223 35.5563 38.3627 35.6386 38.1849C35.7241 38.0072 35.7735 37.8212 35.7867 37.6271H36.2211C36.2211 37.9002 36.1668 38.1701 36.0582 38.4367C35.9529 38.7 35.8048 38.9403 35.6139 39.1575C35.423 39.3748 35.1992 39.5492 34.9424 39.6809C34.6857 39.8092 34.4059 39.8734 34.1031 39.8734C33.7477 39.8734 33.4399 39.8043 33.1799 39.6661C32.9199 39.5278 32.7059 39.3435 32.5381 39.1131C32.3735 38.8827 32.2501 38.626 32.1678 38.3429C32.0888 38.0566 32.0493 37.7669 32.0493 37.474C32.0493 37.1317 32.097 36.8108 32.1925 36.5113C32.2879 36.2118 32.4295 35.9485 32.6171 35.7213C32.8047 35.491 33.0367 35.3116 33.3132 35.1832C33.593 35.0548 33.9155 34.9907 34.2809 34.9907C34.6923 34.9907 35.0428 35.0729 35.3325 35.2375C35.6221 35.4021 35.8574 35.6226 36.0385 35.8991C36.2228 36.1756 36.3577 36.4866 36.4433 36.8322C36.5289 37.1778 36.5717 37.5333 36.5717 37.8986V38.2294C36.5717 38.6013 36.547 38.9798 36.4976 39.3649C36.4515 39.7467 36.361 40.112 36.2261 40.4609C36.0944 40.8098 35.9019 41.1225 35.6484 41.399C35.395 41.6722 35.0642 41.8894 34.6561 42.0507C34.2512 42.2087 33.751 42.2876 33.1552 42.2876H33.0614V41.5125Z" fill="#2F3D63"/>
<path d="M235.704 37.3334L241 42.6297L246.296 37.3334C243.369 34.406 238.631 34.406 235.704 37.3334Z" fill="#2F3D63"/>
<path d="M255.926 33.963L246.296 43.5926H255.926V33.963Z" fill="#2F3D63"/>
<path d="M264.04 33.8843H261.738V34.9074H260.587C260.163 34.9074 259.819 35.251 259.819 35.6748V43.3484C259.819 43.7722 260.163 44.1158 260.587 44.1158H265.191C265.615 44.1158 265.958 43.7722 265.958 43.3484V35.6748C265.958 35.251 265.615 34.9074 265.191 34.9074H264.04V33.8843Z" fill="#2F3D63"/>
<rect x="140.611" y="25.7778" width="17.3333" height="17.3333" rx="8.66667" fill="#2F3D63"/>
<path d="M34 77.0977V76.4688C34 74.9375 34.3919 73.7435 35.1758 72.8867C35.9642 72.0299 36.9805 71.6016 38.2246 71.6016C39.3503 71.6016 40.2321 71.9046 40.8701 72.5107C41.5127 73.1123 41.8704 73.8232 41.9434 74.6436L41.9502 74.7188H40.6377V74.6504C40.6377 74.1947 40.4258 73.7594 40.002 73.3447C39.5781 72.93 38.9811 72.7227 38.2109 72.7227C37.3405 72.7227 36.641 73.0553 36.1123 73.7207C35.5882 74.3861 35.3262 75.3021 35.3262 76.4688V77.0977C35.3262 78.2643 35.5882 79.1803 36.1123 79.8457C36.641 80.5111 37.3838 80.8438 38.3408 80.8438C38.8421 80.8438 39.2751 80.7913 39.6396 80.6865C40.0042 80.5817 40.3506 80.4154 40.6787 80.1875V77.8633H38.2041V76.7832H41.9502V80.666C41.6403 80.985 41.1777 81.2812 40.5625 81.5547C39.9473 81.8281 39.2067 81.9648 38.3408 81.9648C37.0192 81.9648 35.9642 81.5365 35.1758 80.6797C34.3919 79.8229 34 78.6289 34 77.0977Z" fill="#4F4F4F"/>
<path d="M43.4199 78.2734V78.0547C43.4199 76.9701 43.7275 76.0837 44.3428 75.3955C44.958 74.7074 45.7806 74.3633 46.8105 74.3633C47.8405 74.3633 48.6631 74.7074 49.2783 75.3955C49.8936 76.0837 50.2012 76.9701 50.2012 78.0547V78.2734C50.2012 79.3581 49.8936 80.2445 49.2783 80.9326C48.6631 81.6208 47.8405 81.9648 46.8105 81.9648C45.7806 81.9648 44.958 81.6208 44.3428 80.9326C43.7275 80.2445 43.4199 79.3581 43.4199 78.2734ZM44.7188 78.0547V78.2734C44.7188 79.0163 44.8942 79.6452 45.2451 80.1602C45.596 80.6706 46.1178 80.9258 46.8105 80.9258C47.5033 80.9258 48.0251 80.6706 48.376 80.1602C48.7269 79.6452 48.9023 79.0163 48.9023 78.2734V78.0547C48.9023 77.3118 48.7269 76.6852 48.376 76.1748C48.0251 75.6598 47.5033 75.4023 46.8105 75.4023C46.1178 75.4023 45.596 75.6598 45.2451 76.1748C44.8942 76.6852 44.7188 77.3118 44.7188 78.0547Z" fill="#4F4F4F"/>
<path d="M51.3633 78.2734V78.0547C51.3633 76.9701 51.6709 76.0837 52.2861 75.3955C52.9014 74.7074 53.724 74.3633 54.7539 74.3633C55.7839 74.3633 56.6064 74.7074 57.2217 75.3955C57.8369 76.0837 58.1445 76.9701 58.1445 78.0547V78.2734C58.1445 79.3581 57.8369 80.2445 57.2217 80.9326C56.6064 81.6208 55.7839 81.9648 54.7539 81.9648C53.724 81.9648 52.9014 81.6208 52.2861 80.9326C51.6709 80.2445 51.3633 79.3581 51.3633 78.2734ZM52.6621 78.0547V78.2734C52.6621 79.0163 52.8376 79.6452 53.1885 80.1602C53.5394 80.6706 54.0612 80.9258 54.7539 80.9258C55.4466 80.9258 55.9684 80.6706 56.3193 80.1602C56.6702 79.6452 56.8457 79.0163 56.8457 78.2734V78.0547C56.8457 77.3118 56.6702 76.6852 56.3193 76.1748C55.9684 75.6598 55.4466 75.4023 54.7539 75.4023C54.0612 75.4023 53.5394 75.6598 53.1885 76.1748C52.8376 76.6852 52.6621 77.3118 52.6621 78.0547Z" fill="#4F4F4F"/>
<path d="M59.5732 83.7012L60.373 82.7441C60.5736 82.9766 60.8561 83.1816 61.2207 83.3594C61.5853 83.5417 61.9954 83.6328 62.4512 83.6328C63.0664 83.6328 63.5518 83.4574 63.9072 83.1064C64.2627 82.7555 64.4404 82.2611 64.4404 81.623V80.9121C64.2308 81.2083 63.9482 81.4476 63.5928 81.6299C63.2419 81.8076 62.8158 81.8965 62.3145 81.8965C61.403 81.8965 60.6738 81.5547 60.127 80.8711C59.5801 80.1875 59.3066 79.3216 59.3066 78.2734V78.0547C59.3066 77.0065 59.5801 76.1406 60.127 75.457C60.6738 74.7734 61.403 74.4316 62.3145 74.4316C62.8158 74.4316 63.2533 74.5365 63.627 74.7461C64.0052 74.9557 64.2855 75.2087 64.4678 75.5049H64.5088L64.5635 74.5684H65.7119V81.623C65.7119 82.6257 65.4134 83.3958 64.8164 83.9336C64.2194 84.4714 63.4424 84.7402 62.4854 84.7402C61.8929 84.7402 61.346 84.6423 60.8447 84.4463C60.3434 84.2503 59.9196 84.002 59.5732 83.7012ZM60.6055 78.2734C60.6055 79.0026 60.765 79.6156 61.084 80.1123C61.403 80.609 61.9043 80.8574 62.5879 80.8574C63.0436 80.8574 63.431 80.7321 63.75 80.4814C64.069 80.2308 64.2992 79.946 64.4404 79.627V76.7012C64.2992 76.3822 64.069 76.0973 63.75 75.8467C63.431 75.596 63.0436 75.4707 62.5879 75.4707C61.9043 75.4707 61.403 75.7191 61.084 76.2158C60.765 76.7126 60.6055 77.3255 60.6055 78.0547V78.2734Z" fill="#4F4F4F"/>
<path d="M67.79 81.7598V71.2598H69.0615V81.7598H67.79Z" fill="#4F4F4F"/>
<path d="M70.709 78.2734V78.0547C70.709 76.9701 71.0052 76.0837 71.5977 75.3955C72.1947 74.7074 72.9831 74.3633 73.9629 74.3633C74.9427 74.3633 75.6969 74.6846 76.2256 75.3271C76.7542 75.9697 77.0186 76.8379 77.0186 77.9316V78.4512H71.4883V77.4395H75.7402V77.2754C75.7402 76.7559 75.5921 76.3138 75.2959 75.9492C74.9997 75.5846 74.5736 75.4023 74.0176 75.4023C73.3431 75.4023 72.8395 75.6598 72.5068 76.1748C72.1742 76.6852 72.0078 77.3118 72.0078 78.0547V78.2734C72.0078 79.0163 72.1833 79.6452 72.5342 80.1602C72.8851 80.6706 73.4297 80.9258 74.168 80.9258C74.6237 80.9258 75.0156 80.8255 75.3438 80.625C75.6719 80.4245 75.9385 80.1875 76.1436 79.9141L76.9639 80.5635C76.736 80.9053 76.3828 81.2243 75.9043 81.5205C75.4303 81.8167 74.8516 81.9648 74.168 81.9648C73.0514 81.9648 72.1947 81.6208 71.5977 80.9326C71.0052 80.2445 70.709 79.3581 70.709 78.2734Z" fill="#4F4F4F"/>
<path d="M82.1455 81.7598V71.8066H85.4404C86.5342 71.8066 87.375 72.0824 87.9629 72.6338C88.5508 73.1807 88.8447 73.9098 88.8447 74.8213C88.8447 75.7327 88.5508 76.4688 87.9629 77.0293C87.375 77.5853 86.5342 77.8633 85.4404 77.8633H83.458V81.7598H82.1455ZM83.458 76.7832H85.4404C86.2152 76.7832 86.7575 76.5941 87.0674 76.2158C87.3773 75.833 87.5322 75.3682 87.5322 74.8213C87.5322 74.2744 87.3773 73.8164 87.0674 73.4473C86.7575 73.0736 86.2152 72.8867 85.4404 72.8867H83.458V76.7832Z" fill="#4F4F4F"/>
<path d="M90.2529 81.7598V71.2598H91.5244V81.7598H90.2529Z" fill="#4F4F4F"/>
<path d="M93.2061 79.6406C93.2061 78.9115 93.4954 78.3441 94.0742 77.9385C94.653 77.5329 95.389 77.3301 96.2822 77.3301H97.9092V76.8379C97.9092 76.4049 97.7975 76.054 97.5742 75.7852C97.3509 75.5117 96.9658 75.375 96.4189 75.375C95.8721 75.375 95.4801 75.4889 95.2432 75.7168C95.0107 75.9401 94.8945 76.1999 94.8945 76.4961V76.5303H93.6299V76.4961C93.6299 75.9264 93.8828 75.4297 94.3887 75.0059C94.8991 74.5775 95.5872 74.3633 96.4531 74.3633C97.319 74.3633 97.9889 74.5706 98.4629 74.9854C98.9414 75.4001 99.1807 76.0176 99.1807 76.8379V80.1191C99.1807 80.4154 99.2035 80.6956 99.249 80.96C99.2946 81.2197 99.3584 81.4499 99.4404 81.6504V81.7598H98.21C98.1462 81.6458 98.0869 81.4977 98.0322 81.3154C97.9821 81.1331 97.9502 80.9508 97.9365 80.7686C97.7679 81.0648 97.4945 81.3268 97.1162 81.5547C96.7425 81.7826 96.2594 81.8965 95.667 81.8965C94.9834 81.8965 94.4023 81.7028 93.9238 81.3154C93.4453 80.9281 93.2061 80.3698 93.2061 79.6406ZM94.4775 79.5723C94.4775 79.9824 94.596 80.3037 94.833 80.5361C95.07 80.7686 95.4391 80.8848 95.9404 80.8848C96.4417 80.8848 96.8952 80.7116 97.3008 80.3652C97.7064 80.0189 97.9092 79.652 97.9092 79.2646V78.2324H96.4189C95.7809 78.2324 95.2979 78.3532 94.9697 78.5947C94.6416 78.8363 94.4775 79.1621 94.4775 79.5723Z" fill="#4F4F4F"/>
<path d="M100.384 84.6035V83.5234C100.502 83.5599 100.634 83.5895 100.78 83.6123C100.926 83.6351 101.067 83.6465 101.204 83.6465C101.523 83.6465 101.801 83.5257 102.038 83.2842C102.275 83.0472 102.526 82.5299 102.79 81.7324V81.7256L100.11 74.5684H101.341L103.043 79.2988C103.107 79.4811 103.164 79.652 103.214 79.8115C103.264 79.971 103.307 80.1191 103.344 80.2559H103.385C103.426 80.1191 103.471 79.971 103.521 79.8115C103.576 79.652 103.633 79.4811 103.692 79.2988L105.278 74.5684H106.481L103.562 82.7168C103.335 83.3548 103.032 83.8516 102.653 84.207C102.28 84.5625 101.819 84.7402 101.272 84.7402C101.09 84.7402 100.928 84.7288 100.787 84.7061C100.646 84.6833 100.511 84.6491 100.384 84.6035Z" fill="#4F4F4F"/>
<g clip-path="url(#clip2_25439_14791)">
<path d="M34.4443 124.16C34.4443 113.026 43.4702 104 54.6043 104H98.2841C109.418 104 118.444 113.026 118.444 124.16V167.84C118.444 178.974 109.418 188 98.2841 188H54.6043C43.4702 188 34.4443 178.974 34.4443 167.84V124.16Z" fill="#F2F1FE"/>
<g filter="url(#filter0_d_25439_14791)">
<path d="M51.1787 139.197C51.1787 135.434 51.1787 133.552 51.9111 132.114C52.5554 130.85 53.5834 129.822 54.8479 129.178C56.2854 128.445 58.1671 128.445 61.9307 128.445H90.8266C94.5901 128.445 96.4719 128.445 97.9094 129.178C99.1738 129.822 100.202 130.85 100.846 132.114C101.579 133.552 101.579 135.434 101.579 139.197V152.973C101.579 156.737 101.579 158.619 100.846 160.056C100.202 161.32 99.1738 162.348 97.9094 162.993C96.4719 163.725 94.5901 163.725 90.8266 163.725H61.9307C58.1671 163.725 56.2854 163.725 54.8479 162.993C53.5834 162.348 52.5554 161.32 51.9111 160.056C51.1787 158.619 51.1787 156.737 51.1787 152.973V139.197Z" fill="url(#paint0_linear_25439_14791)"/>
<path d="M51.1787 139.197C51.1787 135.434 51.1787 133.552 51.9111 132.114C52.5554 130.85 53.5834 129.822 54.8479 129.178C56.2854 128.445 58.1671 128.445 61.9307 128.445H90.8266C94.5901 128.445 96.4719 128.445 97.9094 129.178C99.1738 129.822 100.202 130.85 100.846 132.114C101.579 133.552 101.579 135.434 101.579 139.197V152.973C101.579 156.737 101.579 158.619 100.846 160.056C100.202 161.32 99.1738 162.348 97.9094 162.993C96.4719 163.725 94.5901 163.725 90.8266 163.725H61.9307C58.1671 163.725 56.2854 163.725 54.8479 162.993C53.5834 162.348 52.5554 161.32 51.9111 160.056C51.1787 158.619 51.1787 156.737 51.1787 152.973V139.197Z" fill="#383EDE" fill-opacity="0.5"/>
</g>
<path fill-rule="evenodd" clip-rule="evenodd" d="M67.5459 128.5H79.3109L82.6415 137.651C83.4541 139.883 83.8604 141 83.4193 141.946C82.9781 142.892 81.8618 143.298 79.6293 144.111L78.7126 144.444C76.48 145.257 75.3637 145.663 74.4177 145.222C73.4717 144.781 73.0654 143.665 72.2528 141.432L67.5459 128.5ZM77.9106 140.869C78.8668 140.521 79.3599 139.463 79.0118 138.507C78.6638 137.551 77.6064 137.058 76.6502 137.406C75.6939 137.754 75.2009 138.811 75.5489 139.767C75.897 140.724 76.9543 141.217 77.9106 140.869Z" fill="white"/>
</g>
<path d="M143.172 121.865V134.662H140.746L135.306 125.785V134.662H132.889V121.865H135.306L140.764 130.751V121.865H143.172Z" fill="#152A62"/>
<path d="M153.754 132.763V134.662H147.32V132.763H153.754ZM148.05 121.865V134.662H145.633V121.865H148.05Z" fill="#152A62"/>
<path d="M163 132.21L165.549 121.865H166.929L167.017 124.045L164.292 134.662H162.833L163 132.21ZM161.392 121.865L163.483 132.175V134.662H161.893L158.992 121.865H161.392ZM169.662 132.131L171.719 121.865H174.127L171.227 134.662H169.636L169.662 132.131ZM167.588 121.865L170.137 132.245L170.286 134.662H168.827L166.111 124.036L166.217 121.865H167.588Z" fill="#152A62"/>
<path d="M180.42 132.64V128.255C180.42 127.932 180.364 127.654 180.253 127.42C180.142 127.185 179.972 127.004 179.743 126.875C179.515 126.746 179.225 126.681 178.873 126.681C178.562 126.681 178.29 126.734 178.056 126.84C177.827 126.945 177.651 127.095 177.528 127.288C177.405 127.475 177.344 127.692 177.344 127.938H175.015C175.015 127.546 175.108 127.174 175.296 126.822C175.483 126.465 175.75 126.148 176.096 125.873C176.447 125.592 176.866 125.372 177.353 125.214C177.845 125.055 178.396 124.976 179.005 124.976C179.726 124.976 180.367 125.099 180.93 125.346C181.498 125.586 181.943 125.949 182.266 126.435C182.594 126.922 182.758 127.534 182.758 128.272V132.421C182.758 132.895 182.787 133.303 182.846 133.642C182.91 133.976 183.004 134.266 183.127 134.513V134.662H180.763C180.651 134.422 180.566 134.117 180.508 133.748C180.449 133.373 180.42 133.004 180.42 132.64ZM180.745 128.87L180.763 130.25H179.295C178.932 130.25 178.612 130.288 178.337 130.364C178.062 130.434 177.836 130.54 177.66 130.68C177.484 130.815 177.353 130.979 177.265 131.173C177.177 131.36 177.133 131.574 177.133 131.814C177.133 132.049 177.186 132.26 177.291 132.447C177.402 132.635 177.561 132.784 177.766 132.895C177.977 133.001 178.223 133.054 178.504 133.054C178.914 133.054 179.271 132.971 179.576 132.807C179.881 132.638 180.118 132.432 180.288 132.192C180.458 131.952 180.549 131.723 180.561 131.507L181.229 132.509C181.146 132.749 181.023 133.004 180.859 133.273C180.695 133.543 180.484 133.795 180.227 134.029C179.969 134.263 179.658 134.457 179.295 134.609C178.932 134.762 178.51 134.838 178.029 134.838C177.414 134.838 176.863 134.715 176.377 134.469C175.891 134.222 175.507 133.886 175.226 133.458C174.944 133.03 174.804 132.544 174.804 131.999C174.804 131.495 174.897 131.05 175.085 130.663C175.272 130.276 175.551 129.951 175.92 129.687C176.289 129.418 176.746 129.216 177.291 129.081C177.842 128.94 178.472 128.87 179.181 128.87H180.745Z" fill="#152A62"/>
<path d="M187.311 121.162V134.662H184.981V121.162H187.311Z" fill="#152A62"/>
<path d="M191.986 121.162V134.662H189.657V121.162H191.986Z" fill="#152A62"/>
<path d="M198.473 134.838C197.752 134.838 197.104 134.721 196.53 134.486C195.956 134.252 195.467 133.927 195.062 133.511C194.664 133.089 194.356 132.599 194.14 132.043C193.929 131.48 193.823 130.877 193.823 130.232V129.881C193.823 129.148 193.929 128.483 194.14 127.886C194.351 127.282 194.649 126.763 195.036 126.33C195.423 125.896 195.886 125.562 196.425 125.328C196.964 125.094 197.559 124.976 198.209 124.976C198.883 124.976 199.478 125.091 199.993 125.319C200.509 125.542 200.939 125.858 201.285 126.268C201.631 126.679 201.892 127.171 202.067 127.745C202.243 128.313 202.331 128.943 202.331 129.635V130.61H194.878V129.011H200.046V128.835C200.034 128.466 199.964 128.129 199.835 127.824C199.706 127.513 199.507 127.267 199.237 127.086C198.968 126.898 198.619 126.805 198.191 126.805C197.846 126.805 197.544 126.881 197.286 127.033C197.034 127.18 196.823 127.39 196.653 127.666C196.489 127.935 196.366 128.258 196.284 128.633C196.202 129.008 196.161 129.424 196.161 129.881V130.232C196.161 130.631 196.214 131 196.319 131.34C196.431 131.68 196.592 131.975 196.803 132.227C197.02 132.473 197.277 132.667 197.576 132.807C197.881 132.942 198.227 133.01 198.613 133.01C199.1 133.01 199.539 132.916 199.932 132.728C200.33 132.535 200.676 132.251 200.969 131.876L202.138 133.089C201.938 133.382 201.669 133.663 201.329 133.932C200.995 134.202 200.591 134.422 200.116 134.592C199.642 134.756 199.094 134.838 198.473 134.838Z" fill="#152A62"/>
<path d="M208.387 125.152V126.822H202.938V125.152H208.387ZM204.396 122.814H206.726V131.92C206.726 132.201 206.764 132.418 206.84 132.57C206.916 132.722 207.03 132.825 207.183 132.878C207.335 132.93 207.517 132.957 207.728 132.957C207.88 132.957 208.021 132.948 208.149 132.93C208.278 132.913 208.387 132.895 208.475 132.878L208.483 134.618C208.29 134.682 208.07 134.735 207.824 134.776C207.584 134.817 207.312 134.838 207.007 134.838C206.485 134.838 206.028 134.75 205.636 134.574C205.243 134.392 204.938 134.102 204.722 133.704C204.505 133.3 204.396 132.766 204.396 132.104V122.814Z" fill="#152A62"/>
<rect x="132.889" y="146.838" width="62" height="24" rx="12" fill="#C1C1C1"/>
<rect x="202.889" y="146.838" width="62" height="24" rx="12" fill="#0B57CF"/>
</g>
</g>
<path fill-rule="evenodd" clip-rule="evenodd" d="M44 21H256C268.703 21 279 31.2975 279 44V200.186C279.336 200.228 279.669 200.276 280 200.332V44C280 30.7452 269.255 20 256 20H44C30.7452 20 20 30.7452 20 44V200.332C20.3311 200.276 20.6645 200.228 21 200.186V44C21 31.2975 31.2975 21 44 21Z" fill="#2F3D63"/>
<defs>
<filter id="filter0_d_25439_14791" x="42.8562" y="123.119" width="70.3739" height="55.2538" filterUnits="userSpaceOnUse" color-interpolation-filters="sRGB">
<feFlood flood-opacity="0" result="BackgroundImageFix"/>
<feColorMatrix in="SourceAlpha" type="matrix" values="0 0 0 0 0 0 0 0 0 0 0 0 0 0 0 0 0 0 127 0" result="hardAlpha"/>
<feOffset dx="1.6645" dy="4.66059"/>
<feGaussianBlur stdDeviation="4.99349"/>
<feComposite in2="hardAlpha" operator="out"/>
<feColorMatrix type="matrix" values="0 0 0 0 0.698039 0 0 0 0 0.670588 0 0 0 0 1 0 0 0 1 0"/>
<feBlend mode="normal" in2="BackgroundImageFix" result="effect1_dropShadow_25439_14791"/>
<feBlend mode="normal" in="SourceGraphic" in2="effect1_dropShadow_25439_14791" result="shape"/>
</filter>
<linearGradient id="paint0_linear_25439_14791" x1="52.7153" y1="128.445" x2="107.279" y2="145.711" gradientUnits="userSpaceOnUse">
<stop stop-color="#576EE8"/>
<stop offset="1" stop-color="#8060FF"/>
</linearGradient>
<clipPath id="clip0_25439_14791">
<path d="M20 44C20 30.7452 30.7452 20 44 20H256C269.255 20 280 30.7452 280 44V200H20V44Z" fill="white"/>
</clipPath>
<clipPath id="clip1_25439_14791">
<path d="M20 37.3333C20 27.7604 27.7604 20 37.3333 20H262.667C272.24 20 280 27.7604 280 37.3333V182.666C280 192.239 272.24 200 262.667 200H37.3333C27.7604 200 20 192.239 20 182.666V37.3333Z" fill="white"/>
</clipPath>
<clipPath id="clip2_25439_14791">
<rect width="84" height="83.9997" fill="white" transform="translate(34.4443 104)"/>
</clipPath>
</defs>
</svg>
