<svg enable-background="new 0 0 300 300" viewBox="0 0 300 300" xmlns="http://www.w3.org/2000/svg"><path d="m214.506 199.013h-129.012c-10.972 0-19.867-8.895-19.867-19.867v-64.215c0-10.972 8.895-19.867 19.867-19.867h129.012c10.972 0 19.867 8.895 19.867 19.867v64.215c0 10.972-8.895 19.867-19.867 19.867z" fill="#e3e0fd"/><path d="m198.389 207.597-1.848-2.414-.585.291c.013-1.1-.099-2.242-.383-3.423l-26.417-109.824c-2.082-8.657-10.099-15.675-19.096-15.675h-47.749c-.612 0-1.205.039-1.785.102l-1.7-2.539-6.506 6.506c-.003.003-.006.006-.009.009l-.134.133.002.012c-2.826 2.875-4.034 7.156-2.882 11.945l26.417 109.824c1.927 8.01 10.238 14.504 18.563 14.504h49.218c3.851 0 7.017-1.401 9.131-3.688z" fill="#e3e0fd" stroke="#152a62" stroke-linejoin="round" stroke-miterlimit="10"/><path d="m123.438 213.408c3.201 2.259 7.015 3.641 10.84 3.641h49.218c3.851 0 7.017-1.401 9.131-3.688l5.763-5.763-1.848-2.414-.585.291c.013-1.079-.098-2.2-.37-3.359l-63.924 3.068z" fill="#f5f4f9" stroke="#152a62" stroke-linejoin="round" stroke-miterlimit="10"/><path d="m189.937 210.607h-49.218c-8.325 0-16.636-6.494-18.563-14.504l-26.417-109.824c-2.082-8.657 3.523-15.675 12.52-15.675h46.784c8.997 0 17.979 7.018 20.061 15.675l26.418 109.824c1.927 8.01-3.26 14.504-11.585 14.504z" fill="#152a62" stroke="#152a62" stroke-linejoin="round" stroke-miterlimit="10"/><path d="m139.414 206.009c-5.562 0-11.135-4.358-12.424-9.713l-26.417-109.824c-.713-2.965-.179-5.775 1.505-7.911 1.707-2.167 4.366-3.359 7.486-3.359h6.43c1.872 0 3.679 1.414 4.113 3.22.6 2.494 3.268 4.449 6.073 4.449h17.379c1.318 0 2.39-.439 3.019-1.237.576-.731.738-1.707.47-2.826-.222-.922-.042-1.841.495-2.523.542-.688 1.407-1.083 2.373-1.083h6.431c6.234 0 12.48 4.882 13.924 10.883l26.417 109.824c.639 2.656.159 5.173-1.351 7.089-1.53 1.942-3.912 3.012-6.706 3.012h-49.217z" fill="#fff" stroke="#152a62" stroke-linejoin="round" stroke-miterlimit="10"/><path d="m95.773 95.556-2.99 2.856 1.243 5.257 2.989-2.855z" fill="none" stroke="#152a62" stroke-linejoin="round" stroke-miterlimit="10"/><path d="m97.89 104.197-2.99 2.855 1.243 5.258 2.99-2.856z" fill="none" stroke="#152a62" stroke-linejoin="round" stroke-miterlimit="10"/><path d="m169.335 155.993c3.398 14.228-18.014 21.171-18.014 21.171s-24.729-6.943-28.127-21.171l-6.943-28.962c-.269-1.127.585-2.209 1.743-2.209h42.455c.83 0 1.551.569 1.743 1.376z" fill="#e3e0fd"/><path d="m154.697 131.782-3.491-14.757c-1.333-5.637-6.974-10.399-12.319-10.399-2.207 0-3.999.79-5.182 2.285-1.337 1.69-1.73 4.073-1.106 6.71l3.491 14.757-5.934 1.404-3.491-14.757c-1.047-4.424-.223-8.76 2.258-11.897 2.346-2.966 5.885-4.6 9.965-4.6 8.233 0 16.251 6.63 18.253 15.093l3.491 14.757z" fill="#e3e0fd"/><g stroke="#152a62" stroke-linejoin="round" stroke-miterlimit="10"><path d="m156.743 127.691-3.491-14.757c-1.333-5.637-6.974-10.399-12.319-10.399-2.207 0-3.999.79-5.182 2.285-1.337 1.69-1.73 4.073-1.106 6.71l3.491 14.757-5.934 1.404-3.491-14.757c-1.047-4.424-.223-8.76 2.258-11.897 2.346-2.966 5.885-4.6 9.965-4.6 8.233 0 16.251 6.63 18.253 15.093l3.491 14.757z" fill="#89c8ff"/><path d="m137.165 122.183-1.457-6.159h-6.035l.366 2.528.887 3.746z" fill="#152a62"/><path d="m160.249 116.024h-6.266l1.377 5.823 6.24-.115z" fill="#152a62"/><path d="m175.422 151.066c2.41 10.092-7.661 16.519-13.721 19.402l-7.525 2.425s-24.728-6.943-28.127-21.171l-6.683-26.991c-.451-1.876.156-2.954 1.357-3.777l6.373-2.809 40.183-.226z" fill="#b49cfb"/><path d="m175.422 151.066c2.41 10.092-7.661 16.519-13.721 19.402l-7.525 2.425s-24.728-6.943-28.127-21.171l-6.683-26.991c-.451-1.876.156-2.954 1.357-3.777l6.373-2.809 40.183-.226z" fill="#b49cfb"/><path d="m159.597 163.562-23.772-12.594-8.634 3.875c5.896 12.119 26.986 18.05 26.986 18.05l7.525-2.425c.311-.148.636-.308.966-.475z" fill="#152a62"/><path d="m179.308 149.089c3.398 14.228-18.014 21.171-18.014 21.171s-24.728-6.943-28.127-21.171l-6.943-28.962c-.269-1.127.585-2.209 1.743-2.209h42.455c.83 0 1.551.569 1.743 1.376z" fill="#84e9d4"/><path d="m160.325 135.665c-.956-4.141-5.323-7.441-9.449-6.931-2.928.362-4.893 2.754-4.694 5.747.222 3.34 2.737 6.328 5.798 7.563l2.13 9.227c.121.523.642.946 1.165.946h3.774c.523 0 .848-.424.728-.946l-2.13-9.227c2.193-1.087 3.335-3.532 2.678-6.379z" fill="#fff"/><path d="m157.648 142.044c2.193-1.087 3.334-3.532 2.677-6.379-.956-4.141-5.323-7.441-9.449-6.931-.668.083-1.283.275-1.837.552 2.69 1.089 4.954 3.535 5.611 6.379.657 2.846-.483 5.289-2.674 6.377.001.001.003.001.004.002l2.13 9.227c.121.523.642.946 1.165.946h3.774c.523 0 .848-.424.728-.946z" fill="#152a62"/></g><ellipse cx="150.182" cy="233.267" fill="#e3e0fd" rx="40.26" ry="3.297"/></svg>