<svg width="300" height="214" viewBox="0 0 300 214" fill="none" xmlns="http://www.w3.org/2000/svg">
<path d="M160.621 90.9145L150.89 82.6345L150.887 82.0125H149.669C148.953 82.0035 148.268 82.5505 148.268 83.3775V87.0725H138.967C138.021 87.0725 137.254 87.8395 137.254 88.7855V95.8835C137.254 96.8295 138.021 97.5965 138.967 97.5965H148.268V101.29C148.268 102.107 148.935 102.662 149.641 102.668H150.928L150.963 101.972L160.623 93.7525C161.496 93.0085 161.496 91.6585 160.621 90.9145Z" fill="#152A62" stroke="#152A62" stroke-miterlimit="10" stroke-linejoin="round"/>
<path d="M161.881 90.9145L151.792 82.3305C150.899 81.5705 149.526 82.2055 149.526 83.3775V87.0725H140.225C139.279 87.0725 138.512 87.8395 138.512 88.7855V95.8835C138.512 96.8295 139.279 97.5965 140.225 97.5965H149.526V101.29C149.526 102.462 150.899 103.097 151.792 102.337L161.881 93.7525C162.756 93.0085 162.756 91.6585 161.881 90.9145Z" fill="#B49CFB" stroke="#152A62" stroke-miterlimit="10" stroke-linejoin="round"/>
<path d="M173.918 156.174L175.687 153.862L176.247 154.14C176.235 153.087 176.341 151.993 176.613 150.862L201.908 45.7046C203.902 37.4151 211.578 30.6957 220.192 30.6957H265.912C266.498 30.6957 267.066 30.7331 267.621 30.7938L269.249 28.3633L275.479 34.5936C275.483 34.5971 275.485 34.5994 275.488 34.6029L275.617 34.7301L275.614 34.7418C278.32 37.4956 279.477 41.5943 278.374 46.1797L253.08 151.337C251.235 159.007 243.277 165.226 235.305 165.226H188.179C184.491 165.226 181.46 163.884 179.435 161.694L173.918 156.174Z" fill="#E3E0FD" stroke="#152A62" stroke-miterlimit="10"/>
<path d="M245.684 161.737C242.62 163.901 238.967 165.223 235.305 165.223H188.179C184.491 165.223 181.46 163.882 179.436 161.692L173.918 156.174L175.687 153.862L176.246 154.14C176.234 153.107 176.339 152.033 176.601 150.924L237.809 153.861L245.684 161.737Z" fill="#F5F4F9" stroke="#152A62" stroke-miterlimit="10"/>
<path d="M182.011 159.055H229.138C237.109 159.055 245.067 152.837 246.912 145.167L272.207 40.0089C274.201 31.7194 268.833 25 260.219 25H215.424C206.809 25 198.209 31.7194 196.215 40.0089L170.92 145.167C169.075 152.837 174.041 159.055 182.011 159.055Z" fill="#152A62" stroke="#152A62" stroke-miterlimit="10"/>
<path d="M230.387 154.653C235.712 154.653 241.05 150.48 242.284 145.352L267.578 40.1944C268.261 37.3554 267.75 34.6658 266.136 32.6194C264.502 30.545 261.956 29.4033 258.968 29.4033H252.811C251.018 29.4033 249.288 30.7574 248.872 32.4863C248.298 34.8747 245.744 36.746 243.058 36.746H226.417C225.155 36.746 224.129 36.3258 223.526 35.5612C222.974 34.8607 222.819 33.9257 223.077 32.8552C223.289 31.9727 223.117 31.0925 222.603 30.4399C222.083 29.7803 221.256 29.4033 220.33 29.4033H214.172C208.203 29.4033 202.222 34.0774 200.84 39.8244L175.545 144.982C174.933 147.525 175.393 149.935 176.839 151.77C178.304 153.63 180.584 154.654 183.259 154.654H230.387V154.653Z" fill="white" stroke="#152A62" stroke-miterlimit="10"/>
<path d="M272.175 48.8936L275.037 51.6276L273.847 56.6613L270.984 53.9273L272.175 48.8936Z" stroke="#152A62" stroke-miterlimit="10" stroke-linejoin="round"/>
<path d="M270.148 57.1667L273.01 59.9007L271.819 64.9343L268.957 62.2004L270.148 57.1667Z" stroke="#152A62" stroke-miterlimit="10" stroke-linejoin="round"/>
<path d="M211.253 185.709C233.393 185.709 251.341 183.984 251.341 181.855C251.341 179.726 233.393 178 211.253 178C189.114 178 171.166 179.726 171.166 181.855C171.166 183.984 189.114 185.709 211.253 185.709Z" fill="#E3E0FD"/>
<path d="M24.4492 156.174L26.2178 153.862L26.7781 154.14C26.7664 153.087 26.8727 151.993 27.1447 150.862L52.4392 45.7046C54.4331 37.4151 62.1097 30.6957 70.7237 30.6957H116.444C117.03 30.6957 117.597 30.7331 118.153 30.7938L119.78 28.3633L126.01 34.5936C126.014 34.5971 126.016 34.5994 126.02 34.6029L126.148 34.7301L126.146 34.7418C128.852 37.4956 130.008 41.5943 128.905 46.1797L103.611 151.337C101.766 159.007 93.8084 165.226 85.8365 165.226H38.7098C35.0221 165.226 31.9916 163.884 29.9662 161.694L24.4492 156.174Z" fill="#E3E0FD" stroke="#152A62" stroke-miterlimit="10"/>
<path d="M96.2155 161.737C93.1512 163.901 89.4985 165.223 85.8365 165.223H38.7098C35.0221 165.223 31.9916 163.882 29.9674 161.692L24.4492 156.174L26.2178 153.862L26.777 154.14C26.7653 153.107 26.8703 152.033 27.1318 150.924L88.3405 153.861L96.2155 161.737Z" fill="#F5F4F9" stroke="#152A62" stroke-miterlimit="10"/>
<path d="M32.5427 159.055H79.6693C87.6401 159.055 95.5981 152.837 97.4437 145.167L122.738 40.0089C124.732 31.7194 119.365 25 110.751 25H65.9551C57.3399 25 48.7399 31.7194 46.7461 40.0089L21.4515 145.167C19.6059 152.837 24.5719 159.055 32.5427 159.055Z" fill="#152A62" stroke="#152A62" stroke-miterlimit="10"/>
<path d="M80.9182 154.653C86.2437 154.653 91.581 150.48 92.8149 145.352L118.109 40.1944C118.792 37.3554 118.281 34.6658 116.668 32.6194C115.033 30.545 112.487 29.4033 109.499 29.4033H103.342C101.549 29.4033 99.8191 30.7574 99.4035 32.4863C98.8291 34.8747 96.2749 36.746 93.5888 36.746H76.948C75.6861 36.746 74.6599 36.3258 74.0576 35.5612C73.5054 34.8607 73.3502 33.9257 73.6082 32.8552C73.8206 31.9727 73.6478 31.0925 73.1342 30.4399C72.6147 29.7803 71.7871 29.4033 70.8613 29.4033H64.7035C58.7347 29.4033 52.7531 34.0774 51.371 39.8244L26.0764 144.982C25.4647 147.525 25.9247 149.935 27.3699 151.77C28.8349 153.63 31.1148 154.654 33.7904 154.654H80.9182V154.653Z" fill="white" stroke="#152A62" stroke-miterlimit="10"/>
<path d="M122.706 48.8936L125.569 51.6276L124.378 56.6613L121.516 53.9273L122.706 48.8936Z" stroke="#152A62" stroke-miterlimit="10" stroke-linejoin="round"/>
<path d="M120.679 57.1667L123.541 59.9007L122.351 64.9343L119.488 62.2004L120.679 57.1667Z" stroke="#152A62" stroke-miterlimit="10" stroke-linejoin="round"/>
<path d="M61.7847 185.709C83.9244 185.709 101.872 183.984 101.872 181.855C101.872 179.726 83.9244 178 61.7847 178C39.645 178 21.6973 179.726 21.6973 181.855C21.6973 183.984 39.645 185.709 61.7847 185.709Z" fill="#E3E0FD"/>
<path d="M24.3828 156.174L26.1514 153.862L26.7117 154.14C26.7 153.087 26.8063 151.993 27.0783 150.862L52.3728 45.7046C54.3667 37.4151 62.0433 30.6957 70.6573 30.6957H116.377C116.963 30.6957 117.531 30.7331 118.086 30.7938L119.714 28.3633L125.944 34.5936C125.947 34.5971 125.95 34.5994 125.953 34.6029L126.082 34.7301L126.079 34.7418C128.785 37.4956 129.942 41.5943 128.839 46.1797L103.544 151.337C101.7 159.007 93.742 165.226 85.77 165.226H38.6434C34.9557 165.226 31.9252 163.884 29.8998 161.694L24.3828 156.174Z" fill="#E3E0FD" stroke="#152A62" stroke-miterlimit="10"/>
<path d="M96.1491 161.737C93.0848 163.901 89.4321 165.223 85.7701 165.223H38.6434C34.9557 165.223 31.9252 163.882 29.901 161.692L24.3828 156.174L26.1514 153.862L26.7105 154.14C26.6989 153.107 26.8039 152.033 27.0654 150.924L88.2741 153.861L96.1491 161.737Z" fill="#F5F4F9" stroke="#152A62" stroke-miterlimit="10"/>
<path d="M32.4763 159.055H79.6029C87.5737 159.055 95.5317 152.837 97.3773 145.167L122.672 40.0089C124.666 31.7194 119.298 25 110.684 25H65.8887C57.2735 25 48.6735 31.7194 46.6797 40.0089L21.3851 145.167C19.5395 152.837 24.5055 159.055 32.4763 159.055Z" fill="#152A62" stroke="#152A62" stroke-miterlimit="10"/>
<path d="M80.8518 154.653C86.1773 154.653 91.5145 150.48 92.7485 145.352L118.043 40.1944C118.726 37.3554 118.215 34.6658 116.601 32.6194C114.967 30.545 112.421 29.4033 109.432 29.4033H103.276C101.483 29.4033 99.7527 30.7574 99.3371 32.4863C98.7627 34.8747 96.2085 36.746 93.5224 36.746H76.8816C75.6197 36.746 74.5935 36.3258 73.9912 35.5612C73.439 34.8607 73.2838 33.9257 73.5417 32.8552C73.7542 31.9727 73.5814 31.0925 73.0678 30.4399C72.5483 29.7803 71.7207 29.4033 70.7949 29.4033H64.6371C58.6683 29.4033 52.6867 34.0774 51.3045 39.8244L26.01 144.982C25.3983 147.525 25.8583 149.935 27.3035 151.77C28.7685 153.63 31.0484 154.654 33.724 154.654H80.8518V154.653Z" fill="white" stroke="#152A62" stroke-miterlimit="10"/>
<path d="M122.64 48.8936L125.502 51.6276L124.312 56.6613L121.449 53.9273L122.64 48.8936Z" stroke="#152A62" stroke-miterlimit="10" stroke-linejoin="round"/>
<path d="M120.613 57.1667L123.475 59.9007L122.284 64.9343L119.422 62.2004L120.613 57.1667Z" stroke="#152A62" stroke-miterlimit="10" stroke-linejoin="round"/>
<path d="M61.7183 185.709C83.858 185.709 101.806 183.984 101.806 181.855C101.806 179.726 83.858 178 61.7183 178C39.5786 178 21.6309 179.726 21.6309 181.855C21.6309 183.984 39.5786 185.709 61.7183 185.709Z" fill="#E3E0FD"/>
<path d="M99.6724 73.1331H54.4141C51.5394 73.1331 49.7129 70.9479 50.3352 68.2525L55.5002 45.8806C56.1216 43.1852 58.9562 41 61.831 41H107.089C109.964 41 111.79 43.1852 111.168 45.8806L106.003 68.2525C105.382 70.9479 102.547 73.1331 99.6724 73.1331Z" fill="#89C8FF" stroke="#152A62" stroke-miterlimit="10"/>
<path d="M87.8925 51.3192H62.497C61.7623 51.3192 61.2963 50.7606 61.4551 50.0726L61.7845 48.6459C61.9435 47.9571 62.6673 47.3993 63.402 47.3993H88.7975C89.5321 47.3993 89.9983 47.9579 89.8395 48.6459L89.5101 50.0726C89.3511 50.7614 88.6272 51.3192 87.8925 51.3192Z" fill="#152A62"/>
<path d="M79.1205 57.1562H60.7926C60.2546 57.1562 59.9127 56.7476 60.0291 56.243L60.1759 55.6075C60.2924 55.1029 60.823 54.6942 61.361 54.6942H79.6889C80.2268 54.6942 80.5688 55.1029 80.4523 55.6075L80.3056 56.243C80.1891 56.7476 79.6584 57.1562 79.1205 57.1562Z" fill="#152A62"/>
<path d="M63.877 66.8291H58.562C58.0241 66.8291 57.6822 66.4204 57.7987 65.9159L57.9454 65.2803C58.0619 64.7758 58.5925 64.3671 59.1304 64.3671H64.4454C64.9833 64.3671 65.3253 64.7758 65.2088 65.2803L65.0621 65.9159C64.9456 66.4204 64.4149 66.8291 63.877 66.8291Z" fill="#152A62"/>
<rect width="9.24633" height="9.24633" rx="2" transform="matrix(1 0 -0.224951 0.97437 96.1133 48.3713)" fill="#152A62"/>
<path d="M90.397 111.133H45.1387C42.264 111.133 40.4375 108.948 41.0598 106.252L46.2248 83.8806C46.8462 81.1852 49.6808 79 52.5556 79H97.8139C100.689 79 102.515 81.1852 101.893 83.8806L96.7278 106.252C96.1064 108.948 93.2718 111.133 90.397 111.133Z" fill="#FFB7AD" stroke="#152A62" stroke-miterlimit="10"/>
<path d="M78.6171 89.3192H53.2216C52.487 89.3192 52.0209 88.7606 52.1797 88.0726L52.5091 86.6459C52.6681 85.9571 53.3919 85.3993 54.1266 85.3993H79.5221C80.2568 85.3993 80.7229 85.9579 80.5641 86.6459L80.2347 88.0726C80.0757 88.7614 79.3518 89.3192 78.6171 89.3192Z" fill="#152A62"/>
<path d="M69.8451 95.1562H51.5172C50.9792 95.1562 50.6373 94.7476 50.7538 94.243L50.9005 93.6075C51.017 93.1029 51.5476 92.6942 52.0856 92.6942H70.4135C70.9514 92.6942 71.2934 93.1029 71.1769 93.6075L71.0302 94.243C70.9137 94.7476 70.383 95.1562 69.8451 95.1562Z" fill="#152A62"/>
<path d="M54.6016 104.829H49.2866C48.7487 104.829 48.4068 104.42 48.5233 103.916L48.67 103.28C48.7865 102.776 49.3171 102.367 49.855 102.367H55.17C55.708 102.367 56.0499 102.776 55.9334 103.28L55.7867 103.916C55.6702 104.42 55.1396 104.829 54.6016 104.829Z" fill="#152A62"/>
<rect width="9.24633" height="9.24633" rx="2" transform="matrix(1 0 -0.224951 0.97437 86.8379 86.3713)" fill="#152A62"/>
<path d="M81.397 149.133H36.1387C33.264 149.133 31.4375 146.948 32.0598 144.252L37.2248 121.881C37.8462 119.185 40.6808 117 43.5556 117H88.8139C91.6887 117 93.5151 119.185 92.8928 121.881L87.7278 144.252C87.1064 146.948 84.2718 149.133 81.397 149.133Z" fill="white" stroke="#152A62" stroke-miterlimit="10"/>
<path d="M69.6171 127.319H44.2216C43.487 127.319 43.0209 126.761 43.1797 126.073L43.5091 124.646C43.6681 123.957 44.3919 123.399 45.1266 123.399H70.5221C71.2568 123.399 71.7229 123.958 71.5641 124.646L71.2347 126.073C71.0757 126.761 70.3518 127.319 69.6171 127.319Z" fill="#152A62"/>
<path d="M60.8451 133.156H42.5172C41.9792 133.156 41.6373 132.748 41.7538 132.243L41.9005 131.607C42.017 131.103 42.5476 130.694 43.0856 130.694H61.4135C61.9514 130.694 62.2934 131.103 62.1769 131.607L62.0302 132.243C61.9137 132.748 61.383 133.156 60.8451 133.156Z" fill="#152A62"/>
<path d="M45.6016 142.829H40.2866C39.7487 142.829 39.4068 142.42 39.5233 141.916L39.67 141.28C39.7865 140.776 40.3171 140.367 40.855 140.367H46.17C46.708 140.367 47.0499 140.776 46.9334 141.28L46.7867 141.916C46.6702 142.42 46.1396 142.829 45.6016 142.829Z" fill="#152A62"/>
<rect width="9.24633" height="9.24633" rx="2" transform="matrix(1 0 -0.224951 0.97437 77.8379 124.371)" fill="#152A62"/>
</svg>
