<svg enable-background="new 0 0 300 300" viewBox="0 0 300 300" xmlns="http://www.w3.org/2000/svg"><path d="m219.475 120.484h-.761-11.388c-.669 0-1.076-.722-.75-1.306 1.204-2.159 3.513-3.622 6.163-3.622 2.672 0 4.997 1.487 6.199 3.674.003-.011.003-.022.006-.033 1.1-4.684 5.305-8.162 10.327-8.162 1.664 0 3.235.388 4.637 1.068-1.934-8.946-9.885-15.653-19.41-15.653h-129.011c-10.972 0-19.867 8.895-19.867 19.867v64.215c0 10.972 8.895 19.867 19.867 19.867h129.012c10.973 0 19.867-8.895 19.867-19.867v-60.049h-14.891z" fill="#e3e0fd"/><path d="m96.924 185.647h-9.524c-.524 0-.843-.566-.588-1.024.944-1.692 2.754-2.84 4.832-2.84 2.094 0 3.918 1.166 4.86 2.881.169.312.311.637.42.983z" fill="#f5f4f9"/><path d="m112.331 184.818c.092.425-.232.829-.666.829h-15.338c.041-.332.095-.664.176-.983.84-3.579 4.053-6.236 7.89-6.236 3.893 0 7.145 2.737 7.938 6.39z" fill="#f5f4f9"/><path d="m183.629 140.573c.127-.849.096-1.764-.135-2.723l-8.557-35.576c-1.031-4.286-5.478-7.761-9.932-7.761h-68.031l.161-.896-.885-.409-3.338 2.475s-.001.011-.001.012c-1.951 1.371-2.888 3.801-2.22 6.579l8.558 35.576c1.031 4.286 5.478 7.761 9.932 7.761h68.114c1.689 0 3.135-.501 4.225-1.355l3.418-2.525z" fill="#152a62" stroke="#152a62" stroke-linejoin="round" stroke-miterlimit="10"/><path d="m96.974 94.513.161-.896-.885-.409-3.338 2.475s-.001.011-.001.012c-1.951 1.371-2.888 3.801-2.22 6.579l8.558 35.576c.508 2.113 1.852 4.025 3.613 5.424l6.01-4.49 5.346-44.271z" fill="#89c8ff" stroke="#152a62" stroke-linejoin="round" stroke-miterlimit="10"/><path d="m180.699 143.097h-68.114c-4.454 0-8.901-3.475-9.932-7.761l-8.558-35.576c-1.031-4.286 1.744-7.76 6.199-7.76h68.114c4.454 0 8.901 3.475 9.932 7.761l8.558 35.576c1.031 4.286-1.744 7.76-6.199 7.76z" fill="#89c8ff" stroke="#152a62" stroke-miterlimit="10"/><g fill="#152a62"><path d="m137.031 117.69h-26.387c-.834 0-1.666-.65-1.859-1.452l-.243-1.011c-.193-.802.326-1.452 1.16-1.452h26.387c.834 0 1.666.65 1.859 1.452l.243 1.011c.193.802-.327 1.452-1.16 1.452z"/><path d="m122.58 133.072h-8.236c-.834 0-1.666-.65-1.859-1.452l-.243-1.011c-.193-.802.326-1.452 1.16-1.452h8.236c.834 0 1.666.65 1.859 1.452l.243 1.011c.193.802-.327 1.452-1.16 1.452z"/><path d="m146.301 108.409h-37.338c-1.138 0-2.274-.888-2.538-1.983l-.546-2.269c-.263-1.095.446-1.983 1.584-1.983h37.338c1.138 0 2.274.888 2.538 1.983l.546 2.269c.263 1.095-.446 1.983-1.584 1.983z"/><path d="m169.536 115.944h-9.481c-1.249 0-2.495-.974-2.784-2.176l-2.195-9.123c-.289-1.202.489-2.176 1.738-2.176h9.481c1.249 0 2.495.974 2.784 2.176l2.195 9.123c.289 1.202-.489 2.176-1.738 2.176z"/><path d="m234.697 178.557c.127-.849.096-1.764-.135-2.723l-8.557-35.576c-1.031-4.286-5.478-7.761-9.932-7.761h-68.031l.161-.896-.885-.409-3.338 2.475s-.001.011-.001.012c-1.951 1.371-2.888 3.801-2.22 6.579l8.558 35.576c1.031 4.286 5.478 7.761 9.932 7.761h68.114c1.689 0 3.135-.501 4.225-1.355l3.418-2.525z" stroke="#152a62" stroke-linejoin="round" stroke-miterlimit="10"/></g><path d="m148.041 132.497.161-.896-.885-.409-3.338 2.475s-.001.011-.001.012c-1.951 1.371-2.888 3.801-2.22 6.579l8.558 35.576c.508 2.113 1.852 4.025 3.613 5.424l6.01-4.49 5.346-44.271z" fill="#fff" stroke="#152a62" stroke-linejoin="round" stroke-miterlimit="10"/><path d="m231.767 181.081h-68.114c-4.454 0-8.901-3.475-9.932-7.761l-8.558-35.576c-1.031-4.286 1.744-7.761 6.199-7.761h68.114c4.454 0 8.901 3.475 9.932 7.761l8.558 35.576c1.03 4.286-1.745 7.761-6.199 7.761z" fill="#fff" stroke="#152a62" stroke-miterlimit="10"/><path d="m188.098 155.674h-26.387c-.834 0-1.666-.65-1.859-1.452l-.243-1.011c-.193-.802.326-1.452 1.16-1.452h26.387c.834 0 1.666.65 1.859 1.452l.243 1.011c.193.802-.326 1.452-1.16 1.452z" fill="#152a62"/><path d="m173.647 171.055h-8.236c-.834 0-1.666-.65-1.859-1.452l-.243-1.011c-.193-.802.326-1.452 1.16-1.452h8.236c.834 0 1.666.65 1.859 1.452l.243 1.011c.193.802-.326 1.452-1.16 1.452z" fill="#152a62"/><path d="m197.369 146.393h-37.339c-1.138 0-2.274-.888-2.538-1.983l-.546-2.269c-.263-1.095.446-1.983 1.584-1.983h37.338c1.138 0 2.274.888 2.538 1.983l.546 2.269c.264 1.095-.445 1.983-1.583 1.983z" fill="#152a62"/><path d="m220.604 153.927h-9.481c-1.249 0-2.495-.974-2.784-2.176l-2.195-9.123c-.289-1.202.489-2.176 1.738-2.176h9.481c1.249 0 2.495.974 2.784 2.176l2.195 9.123c.288 1.202-.49 2.176-1.738 2.176z" fill="#152a62"/><path d="m60.978 129.385h19.127" fill="none" stroke="#152a62" stroke-linecap="round" stroke-linejoin="round" stroke-miterlimit="10"/><path d="m92.74 159.515h40.976" fill="none" stroke="#152a62" stroke-linecap="round" stroke-linejoin="round" stroke-miterlimit="10"/><path d="m53.118 150.001h39.904" fill="none" stroke="#152a62" stroke-linecap="round" stroke-linejoin="round" stroke-miterlimit="10"/><path d="m114.89 168.393h21" fill="none" stroke="#152a62" stroke-linecap="round" stroke-linejoin="round" stroke-miterlimit="10"/></svg>