<svg enable-background="new 0 0 300 300" viewBox="0 0 300 300" xmlns="http://www.w3.org/2000/svg"><path d="m214.506 199.013h-129.012c-10.972 0-19.867-8.895-19.867-19.867v-64.215c0-10.972 8.895-19.867 19.867-19.867h129.012c10.972 0 19.867 8.895 19.867 19.867v64.215c0 10.972-8.895 19.867-19.867 19.867z" fill="#e3e0fd"/><ellipse cx="155.934" cy="210.113" fill="#e3e0fd" rx="7.597" ry="50.102" transform="matrix(.015 -.9999 .9999 .015 -56.491 362.8817)"/><path d="m189.428 197.161c0-4.321-17.323-9.792-38.691-9.792s-38.691 5.471-38.691 9.791v10.357c0 4.321 17.323 7.823 38.691 7.823s38.691-3.503 38.691-7.823z" fill="#b49cfb" stroke="#152a62" stroke-linejoin="round" stroke-miterlimit="10"/><path d="m186.546 197.651c-3.408 3.368-18.146 6.563-35.809 6.563-17.505 0-32.136-3.15-35.715-6.472" fill="#b49cfb" stroke="#152a62" stroke-linecap="round" stroke-linejoin="round" stroke-miterlimit="10"/><path d="m160.633 144.307c12.335-4.425 21.65-15.644 21.65-28.696v-15.993h-62.409v15.993c0 13.349 9.672 24.824 22.509 28.948 2.445.786 4.278 2.342 4.278 4.298 0 2.126-1.539 3.699-4.278 4.595-12.716 4.161-22.509 15.698-22.509 29.047v11.422.312c0 3.16 13.971 6.881 31.205 6.881s31.205-3.721 31.205-6.881c0-.105 0-.177 0-.285v-.027-11.422c0-13.052-9.225-24.467-21.65-28.795-3.784-1.318-4.003-3.3-4.003-4.924-.001-1.624 1.634-3.624 4.002-4.473z" fill="#fff"/><ellipse cx="151.078" cy="195.511" fill="none" rx="31.204" ry="5.856" stroke="#b49cfb" stroke-linejoin="round" stroke-miterlimit="10"/><path d="m160.633 144.307c12.335-4.425 21.65-15.644 21.65-28.696v-15.993h-62.409v15.993c0 13.349 9.672 24.824 22.509 28.948 2.445.786 4.278 2.342 4.278 4.298 0 2.126-1.539 3.699-4.278 4.595-12.716 4.161-22.509 15.698-22.509 29.047v11.422.705c0 3.16 13.971 6.557 31.205 6.557s31.205-3.396 31.205-6.557c0-.105 0-.571 0-.679v-.027-11.422c0-13.052-9.225-24.467-21.65-28.795-3.784-1.318-4.003-3.3-4.003-4.924-.001-1.623 1.634-3.623 4.002-4.472z" fill="none" stroke="#152a62" stroke-linejoin="round" stroke-miterlimit="10"/><path d="m159.22 138.946c-1.017 0-1.961-.61-2.289-1.568-.407-1.188.289-2.46 1.554-2.841 8.857-2.672 14.808-10.34 14.808-19.08v-1.956c0-1.247 1.077-2.259 2.405-2.259 1.329 0 2.405 1.011 2.405 2.259v1.956c0 10.71-7.293 20.105-18.147 23.381-.243.073-.491.108-.736.108z" fill="#e3e0fd"/><g stroke="#152a62" stroke-linejoin="round" stroke-miterlimit="10"><path d="m120.212 110.108s27.925 10.937 61.975 2.698v-7.145l-61.975-1.458z" fill="#152a62"/><path d="m176.152 194.772c1.45-.367 2.114-1.988 1.321-3.224-3.596-5.609-13.522-18.947-26.586-18.947-12.805 0-22.727 13.35-26.335 18.966-.795 1.238-.129 2.862 1.323 3.227 4.283 1.075 13.235 2.512 25.133 2.512 11.908-.001 20.865-1.452 25.144-2.534z" fill="#ffb7ad"/><path d="m152.369 78.501v-7.905" fill="none" stroke-linecap="round"/><path d="m163.972 80.923 4.335-5.355" fill="none" stroke-linecap="round"/><path d="m140.895 80.923-4.335-5.355" fill="none" stroke-linecap="round"/><path d="m189.428 94.897c0-4.081-17.323-7.39-38.691-7.39s-38.691 3.309-38.691 7.39v9.783c0 4.081 17.323 7.39 38.691 7.39s38.691-3.309 38.691-7.39z" fill="#b49cfb"/><path d="m186.546 95.639c-3.408 3.181-18.146 5.574-35.809 5.574-17.505 0-32.136-2.35-35.715-5.489" fill="#b49cfb"/><circle cx="154.172" cy="159.737" fill="#ffb7ad" r="1.66"/><circle cx="150.466" cy="153.577" fill="#ffb7ad" r="1.66"/><circle cx="152.346" cy="146.436" fill="#ffb7ad" r="1.66"/></g></svg>