<svg xmlns="http://www.w3.org/2000/svg" width="52" height="52" fill="none"><path d="M0 0h52v52H0z" style="fill:#ffe6ff;fill-rule:evenodd;stroke-width:1.88976;stroke-linecap:round;stroke-linejoin:round;paint-order:stroke fill markers;fill-opacity:1"/><path fill="#563dc8" d="M12.079 33.481q-1.185 0-1.776-.75a2.85 2.85 0 0 1-.553-1.737q0-1.026.553-1.776.591-.75 1.776-.75-.711 0-1.145-.592-.435-.591-.592-1.46a4.8 4.8 0 0 1 0-1.737q.158-.868.592-1.46t1.145-.592q-1.144 0-1.737-.75-.553-.79-.553-1.816 0-1.065.553-1.815.592-.79 1.737-.79-1.5 0-2.013-.592-.474-.592 0-1.184.513-.592 2.013-.592-1.224 0-1.658-.473-.394-.474 0-.948.434-.473 1.658-.473.04-.947.67-1.382.632-.474 1.422-.434.828 0 1.42.513.592.474.592 1.421.277-.67.869-.79a1.9 1.9 0 0 1 1.263.119q.631.237.947.79.355.513.08 1.184.907-.514 1.617-.277.75.197 1.145.83.395.63.237 1.38t-1.026 1.303q1.145-.71 1.736-.553.632.12.474.71-.158.594-1.342 1.303 1.066-.63 1.815-.276.79.355.987 1.145t-.513 1.539a1.35 1.35 0 0 1 1.224-.118q.354-.592.986-.83.672-.274 1.382.159-.908-.553-1.105-1.224t.118-1.184a1.47 1.47 0 0 1 1.026-.671q.71-.118 1.58.395-.909-.553-1.146-1.184-.197-.632.08-1.105.276-.474.947-.553.67-.118 1.578.434-.907-.592-1.144-1.263t.079-1.145.987-.552q.71-.08 1.657.513-.04-.947.553-1.421a2 2 0 0 1 1.342-.513 1.98 1.98 0 0 1 1.381.434q.592.474.632 1.421.356-.67.908-.79.552-.157 1.026.119.513.237.71.79.237.513-.118 1.184 1.46 0 1.934.592.474.591 0 1.184-.474.591-1.934.592 1.38 0 1.815.552.474.553 0 1.105-.433.553-1.815.553 1.185 0 1.579.632.395.591 0 1.223t-1.58.632q.87 0 1.382.592.554.591.71 1.46a3.9 3.9 0 0 1 0 1.737q-.156.868-.71 1.46-.513.592-1.381.592.947 0 1.42.434.475.435.474.987 0 .552-.473.987-.474.435-1.421.434.869 0 1.381.631.513.592.671 1.5a4.4 4.4 0 0 1 0 1.855q-.158.909-.67 1.54-.514.592-1.382.592 1.539 0 2.052.394.513.396 0 .79t-2.052.394q.118 1.027-.434 1.619a2.1 2.1 0 0 1-1.382.67 2.05 2.05 0 0 1-1.46-.315q-.67-.434-.79-1.46-.316.828-.907 1.065a1.54 1.54 0 0 1-1.184 0 1.62 1.62 0 0 1-.83-.79q-.235-.59.08-1.42-1.5 0-2.013-.474-.474-.473 0-.907.513-.474 2.013-.474-1.106 0-1.697-.75a3.6 3.6 0 0 1-.632-1.816 3.4 3.4 0 0 1 .434-1.855q.474-.868 1.5-1.026-.869 0-1.184-.67-.395.156-.632-.238a2.8 2.8 0 0 1-.986-.394q.671.473.631 1.184 0 .71-.434 1.342-.435.59-1.105.829-.631.235-1.303-.237-.394.67-1.223.67-.829-.04-1.697-.512-.83-.513-1.303-1.185-.434-.71-.04-1.42-.315.197-.63.315a2.5 2.5 0 0 1-.711.948 1.78 1.78 0 0 1-1.027.434q.593.395.632 1.065.08.672-.395 1.224-.473.513-1.46.513 1.302 0 1.737.553.434.552 0 1.105-.435.513-1.737.513 1.263.355 1.5 1.105.276.71-.316 1.184-.552.474-1.855.119 0 1.026-.632 1.539a2.25 2.25 0 0 1-1.46.513 2.25 2.25 0 0 1-1.46-.513q-.632-.513-.632-1.54 0 1.145-.316 1.619-.315.513-.75.04-.433-.435-.75-2.053-.276-1.619-.236-4.697"/></svg>