<svg xmlns="http://www.w3.org/2000/svg" width="52" height="52" fill="none"><path d="M0 0h52v52H0z" style="fill-rule:evenodd;stroke:none;stroke-width:1.88976;stroke-linecap:round;stroke-linejoin:round;paint-order:stroke fill markers;fill:#ffe9f1;fill-opacity:1"/><path fill="#ab0065" fill-rule="evenodd" d="M12.242 26a9.7 9.7 0 0 1-.867-4.01c0-5.508 4.613-9.972 10.304-9.972 1.638 0 3.186.37 4.56 1.027a9.9 9.9 0 0 1 4.414-1.027c5.508 0 9.972 4.464 9.972 9.971a9.9 9.9 0 0 1-.853 4.043 9.7 9.7 0 0 1 .853 3.979c0 5.507-4.613 9.972-10.304 9.972-1.543 0-3.007-.329-4.321-.917a10.55 10.55 0 0 1-4.321.917c-5.69 0-10.304-4.465-10.304-9.972 0-1.427.31-2.783.867-4.01m12.303 3.872c-.895.3-1.859.464-2.866.464h-.03a8 8 0 0 1 .5-3.137 10 10 0 0 0 2.396 2.673m-11.237-2.067a10.36 10.36 0 0 0 6.885 4.053c.486 2.508 1.941 4.685 3.975 6.153a9 9 0 0 1-2.489.347C16.835 38.358 13 34.57 13 30.01c0-.762.107-1.502.308-2.206m0-3.61A8 8 0 0 1 13 21.99c0-4.56 3.835-8.346 8.679-8.346 1.007 0 1.971.164 2.866.464a9.97 9.97 0 0 0-3.679 5.963c-3.112.235-5.836 1.808-7.558 4.126m.76 1.805c1.318-2.31 3.741-3.968 6.617-4.282q-.003.135-.003.271c0 1.158.197 2.27.56 3.303a9.7 9.7 0 0 0-1.223 4.892c-2.582-.48-4.736-2.055-5.95-4.184m8.244-4.314a8.5 8.5 0 0 0 .144 1.882 10.2 10.2 0 0 1 1.712-1.557 9 9 0 0 0-1.856-.325m.216-1.613c1.231.097 2.401.404 3.472.883a10.5 10.5 0 0 1 4.12-.915c-.538-2.154-1.948-4-3.865-5.147a8.36 8.36 0 0 0-3.727 5.179M26 22.769a8.6 8.6 0 0 0-2.945 2.679 8.4 8.4 0 0 0 3.2 3.636A8.54 8.54 0 0 0 29.29 26 8.55 8.55 0 0 0 26 22.77m4.05 1.427a10.2 10.2 0 0 0-2.218-2.185 9 9 0 0 1 2.489-.347h.03q.007.162.007.325c0 .762-.107 1.502-.308 2.207m0 3.609a10.2 10.2 0 0 1-2.087 2.088 8.3 8.3 0 0 0 2.389.438q.006-.16.006-.32c0-.762-.107-1.502-.308-2.206m1.93 2.426q.003-.11.003-.22c0-1.427-.31-2.783-.867-4.01a9.7 9.7 0 0 0 .865-4.185c2.598.482 4.762 2.075 5.973 4.223a8.35 8.35 0 0 1-5.973 4.192m-1.858 1.716a9.9 9.9 0 0 1-3.882-1.013c-1.318.63-2.796.996-4.36 1.025.562 2.25 2.073 4.16 4.12 5.294 2.05-1.135 3.563-3.052 4.122-5.306m-2.29 6.063c2.024-1.46 3.475-3.622 3.967-6.114a9.96 9.96 0 0 0 6.91-4.03c.19.687.29 1.406.29 2.145 0 4.56-3.834 8.347-8.678 8.347a9 9 0 0 1-2.49-.348M39 21.99c0 .768-.104 1.512-.298 2.219a10.36 10.36 0 0 0-6.895-4.067c-.475-2.453-1.879-4.59-3.844-6.056A8.347 8.347 0 0 1 39 21.989" clip-rule="evenodd"/></svg>