<svg xmlns="http://www.w3.org/2000/svg" width="985" height="250" fill="none"><g clip-path="url(#a)"><path fill="#FAF9FB" d="M0 0h985v250H0z"/><g filter="url(#b)"><g clip-path="url(#c)"><rect width="209.812" height="510.75" x="388" y="32" fill="#FCFCFC" rx="25.313"/><path fill="#FCFCFC" d="M388 32h209.812v45.844H388z"/><path fill="#FCFCFC" d="M388 32h209.812v30.306H388z"/><path fill="#191C1B" d="M398.54 49.536h.076q.637 0 1.036-.18.398-.18.613-.482.216-.303.295-.681.08-.383.08-.785v-.888q0-.395-.092-.702a1.5 1.5 0 0 0-.247-.514 1.1 1.1 0 0 0-.354-.314.9.9 0 0 0-.423-.108.959.959 0 0 0-.796.386 1.3 1.3 0 0 0-.208.43 2 2 0 0 0-.071.539q0 .258.063.502.064.243.196.438.13.196.326.31a.94.94 0 0 0 .466.112q.247 0 .463-.095.22-.1.386-.267a1.34 1.34 0 0 0 .391-.837h.35q0 .33-.131.654a2 2 0 0 1-.359.581 1.8 1.8 0 0 1-.542.422 1.5 1.5 0 0 1-.677.156q-.43 0-.745-.168a1.5 1.5 0 0 1-.518-.446 2 2 0 0 1-.299-.621 2.6 2.6 0 0 1-.095-.701q0-.415.115-.777t.343-.638q.226-.278.562-.434a1.85 1.85 0 0 1 .78-.155q.498 0 .849.199t.57.534q.222.334.326.753.104.418.104.86v.267q0 .45-.06.916-.056.463-.219.885a2.3 2.3 0 0 1-.466.757q-.307.33-.801.526-.49.19-1.211.191h-.076zm4.05.227q0-.187.116-.315.12-.132.343-.132.222 0 .338.132.12.127.12.315 0 .183-.12.31-.116.128-.338.128t-.343-.128a.45.45 0 0 1-.116-.31m.004-3.518q0-.187.116-.315.12-.132.343-.132.222 0 .338.132.12.127.12.315 0 .184-.12.31-.116.128-.338.128t-.343-.127a.45.45 0 0 1-.116-.311m3.146.645h.526q.387 0 .637-.127a.88.88 0 0 0 .379-.355q.127-.226.127-.51 0-.334-.111-.562a.74.74 0 0 0-.335-.342 1.2 1.2 0 0 0-.566-.116q-.31 0-.549.124a.9.9 0 0 0-.371.342 1 1 0 0 0-.131.526h-.737q0-.442.223-.805a1.6 1.6 0 0 1 .625-.577q.407-.215.94-.215.526 0 .921.187.394.183.613.55.219.362.219.904 0 .22-.103.47a1.4 1.4 0 0 1-.315.462 1.6 1.6 0 0 1-.55.355 2.2 2.2 0 0 1-.812.135h-.63zm0 .606v-.443h.63q.553 0 .916.132t.57.35q.21.22.294.483.088.258.088.517 0 .407-.139.722-.136.314-.387.534a1.65 1.65 0 0 1-.581.33 2.3 2.3 0 0 1-.73.112q-.378 0-.713-.108a1.9 1.9 0 0 1-.585-.31 1.5 1.5 0 0 1-.399-.506 1.6 1.6 0 0 1-.143-.69h.737q0 .303.131.53.136.227.383.355.251.123.589.123.339 0 .582-.115a.84.84 0 0 0 .379-.359q.135-.24.135-.602 0-.363-.151-.593a.9.9 0 0 0-.431-.347 1.7 1.7 0 0 0-.649-.115zm7.301-.706v.885q0 .713-.127 1.203t-.367.789q-.239.3-.578.434a2 2 0 0 1-.756.132 2.2 2.2 0 0 1-.618-.084 1.5 1.5 0 0 1-.51-.267 1.6 1.6 0 0 1-.382-.486q-.16-.299-.243-.725a5 5 0 0 1-.084-.996v-.884q0-.714.127-1.196.132-.482.371-.773.238-.294.574-.422.338-.127.757-.127.338 0 .621.083.286.08.51.26.223.174.379.47.159.29.243.712.083.423.083.992m-.741 1.005v-1.128q0-.39-.048-.685-.044-.3-.131-.51a1 1 0 0 0-.223-.343.8.8 0 0 0-.307-.191 1.1 1.1 0 0 0-.386-.064 1.05 1.05 0 0 0-.467.1.84.84 0 0 0-.342.307q-.137.21-.207.553a4 4 0 0 0-.072.833v1.127q0 .39.044.69.048.299.139.518.092.215.223.354a.84.84 0 0 0 .303.207q.175.064.387.064.27 0 .474-.103a.85.85 0 0 0 .338-.323q.14-.223.207-.57.069-.351.068-.837M562.066 45.987l4.274 4.274 4.274-4.274a6.04 6.04 0 0 0-8.548 0"/><g clip-path="url(#d)"><path fill="#191C1B" d="m578.384 43.268-7.771 7.77h7.771z"/></g><g clip-path="url(#e)"><path fill="#191C1B" d="M584.753 43.025h-1.857v.826h-.929a.62.62 0 0 0-.619.619v6.192c0 .342.277.62.619.62h3.715a.62.62 0 0 0 .62-.62V44.47a.62.62 0 0 0-.62-.62h-.929z"/></g><rect width="13.988" height="13.988" x="485.33" y="36.663" fill="#2E2E2E" rx="6.994"/><mask id="f" fill="#fff"><path d="M388 77.844h209.812V221.24H388z"/></mask><path fill="#FCFCFC" d="M388 77.844h209.812V221.24H388z"/><path fill="#E8EAEF" d="M388 78.427h209.812V77.26H388z" mask="url(#f)"/><g filter="url(#g)"><g clip-path="url(#h)"><mask id="i" fill="#fff"><path d="M399.25 109.338c0-5.117 0-7.676.996-9.63a9.14 9.14 0 0 1 3.993-3.993c1.955-.996 4.513-.996 9.631-.996h158.073c5.117 0 7.676 0 9.631.996a9.14 9.14 0 0 1 3.993 3.993c.995 1.954.995 4.513.995 9.63v80.408c0 5.117 0 7.676-.995 9.63a9.14 9.14 0 0 1-3.993 3.993c-1.955.996-4.514.996-9.631.996H413.87c-5.118 0-7.676 0-9.631-.996a9.14 9.14 0 0 1-3.993-3.993c-.996-1.954-.996-4.513-.996-9.63z"/></mask><path fill="#188484" d="M399.25 109.338c0-5.117 0-7.676.996-9.63a9.14 9.14 0 0 1 3.993-3.993c1.955-.996 4.513-.996 9.631-.996h158.073c5.117 0 7.676 0 9.631.996a9.14 9.14 0 0 1 3.993 3.993c.995 1.954.995 4.513.995 9.63v80.408c0 5.117 0 7.676-.995 9.63a9.14 9.14 0 0 1-3.993 3.993c-1.955.996-4.514.996-9.631.996H413.87c-5.118 0-7.676 0-9.631-.996a9.14 9.14 0 0 1-3.993-3.993c-.996-1.954-.996-4.513-.996-9.63z"/><path fill="#fff" d="m413.801 120.425.331-7.493h2.319l1.382 4.489h.057l1.451-4.489h2.181l.32 7.493h-1.462l-.217-6.1h-.069l-1.53 4.683h-1.576l-1.531-4.683h-.068l-.229 6.1zm11.268.08q-.513 0-.971-.035a21 21 0 0 1-.913-.091V119.1q.548.091.993.137.457.034.937.034.537 0 .879-.114.343-.115.514-.331a.77.77 0 0 0 .172-.492.83.83 0 0 0-.092-.399q-.091-.172-.342-.32a3.7 3.7 0 0 0-.697-.297l-.777-.251q-.73-.24-1.119-.708-.388-.48-.388-1.234 0-.663.342-1.176.354-.515 1.017-.8.662-.297 1.61-.297.423 0 .811.034.4.034.788.115l-.091 1.233a8 8 0 0 0-1.588-.148q-.49 0-.811.114-.32.114-.468.308a.76.76 0 0 0-.137.446q0 .33.217.548.217.217.765.388l.777.24q.89.274 1.268.742.388.458.388 1.211 0 .708-.365 1.257-.366.548-1.063.856-.685.309-1.656.309m6.835-.012q-.844 0-1.473-.297a2.2 2.2 0 0 1-.971-.925q-.343-.628-.343-1.576t.377-1.622a2.75 2.75 0 0 1 1.028-1.039 2.84 2.84 0 0 1 1.417-.366q.354 0 .616.034.274.024.571.103l-.125 1.245a3 3 0 0 0-.48-.091 5 5 0 0 0-.502-.023q-.435 0-.766.194-.331.195-.514.571-.183.366-.182.902 0 .571.182.937.195.366.526.537.342.171.776.171.286 0 .549-.034.262-.047.514-.114v1.233q-.275.08-.56.114-.285.046-.64.046m4.709-.068v-7.493h3.998v1.211h-2.513v1.827h2.319v1.211h-2.319v2.033h2.547v1.211zm7.917.068q-.845 0-1.473-.297a2.2 2.2 0 0 1-.971-.925q-.342-.628-.342-1.576t.376-1.622a2.75 2.75 0 0 1 1.028-1.039 2.85 2.85 0 0 1 1.417-.366q.354 0 .616.034.275.024.572.103l-.126 1.245a3 3 0 0 0-.48-.091 5 5 0 0 0-.502-.023q-.435 0-.766.194-.33.195-.514.571-.182.366-.182.902 0 .571.182.937.195.366.526.537.342.171.776.171.287 0 .549-.034.262-.047.514-.114v1.233q-.275.08-.56.114-.286.046-.64.046m4.627.034q-.788 0-1.394-.308a2.3 2.3 0 0 1-.948-.948q-.342-.628-.342-1.565t.388-1.622a2.8 2.8 0 0 1 1.051-1.05 2.83 2.83 0 0 1 1.428-.377q.787 0 1.393.32.606.307.948.936.343.628.343 1.565t-.4 1.622a2.76 2.76 0 0 1-1.051 1.062 2.84 2.84 0 0 1-1.416.365m.091-1.233q.377 0 .674-.206.309-.206.48-.594.183-.388.183-.97 0-.835-.366-1.234-.366-.4-.971-.4a1.2 1.2 0 0 0-.685.206q-.297.194-.48.594-.171.388-.171.971 0 .833.365 1.233.366.4.971.4m4.014 1.131v-5.631l1.359-.057v.411a2.5 2.5 0 0 1 .708-.343q.366-.114.822-.114.915 0 1.417.525.514.515.514 1.508v3.701h-1.405v-3.427q0-.491-.251-.754-.252-.262-.731-.262-.297 0-.526.045a3 3 0 0 0-.502.137v4.261zm8.644.102q-.788 0-1.394-.308a2.3 2.3 0 0 1-.948-.948q-.342-.628-.342-1.565t.388-1.622a2.8 2.8 0 0 1 1.051-1.05 2.83 2.83 0 0 1 1.427-.377q.789 0 1.394.32.605.307.948.936.342.628.342 1.565t-.399 1.622a2.76 2.76 0 0 1-1.051 1.062 2.84 2.84 0 0 1-1.416.365m.091-1.233q.377 0 .674-.206.307-.206.48-.594.182-.388.182-.97 0-.835-.365-1.234-.366-.4-.971-.4-.377 0-.685.206-.297.194-.48.594-.171.388-.171.971 0 .833.365 1.233t.971.4m4.014 1.131v-5.631l1.359-.057v.411a2.524 2.524 0 0 1 1.473-.457q.548 0 .914.16.376.148.628.445.423-.308.857-.457.434-.148.959-.148.926 0 1.428.525.514.515.514 1.508v3.701h-1.405v-3.415q0-.503-.24-.766-.24-.262-.72-.262-.297 0-.514.045a2.7 2.7 0 0 0-.479.137v4.261h-1.405v-3.427q0-.514-.251-.765-.24-.251-.72-.251-.297 0-.514.045a2.7 2.7 0 0 0-.48.137v4.261zm9.592 0v-5.631l1.405-.08v5.711zm.697-6.419q-.388 0-.606-.206-.205-.217-.205-.571 0-.376.205-.594.218-.217.606-.217.387 0 .593.217.217.218.217.594a.77.77 0 0 1-.217.571q-.206.206-.593.206m4.726 6.487q-.846 0-1.474-.297a2.2 2.2 0 0 1-.971-.925q-.342-.628-.342-1.576t.377-1.622a2.74 2.74 0 0 1 2.444-1.405q.354 0 .617.034.274.024.571.103l-.126 1.245a3 3 0 0 0-.48-.091 5 5 0 0 0-.502-.023q-.434 0-.765.194-.332.195-.514.571-.183.366-.183.902 0 .571.183.937.193.366.525.537.342.171.777.171.285 0 .548-.034.262-.047.514-.114v1.233a3.4 3.4 0 0 1-.56.114q-.285.046-.639.046m3.587 0q-.526 0-.914-.046a5 5 0 0 1-.731-.114v-1.21a6.7 6.7 0 0 0 1.61.194q.595 0 .811-.137.23-.149.229-.377 0-.194-.172-.332-.16-.136-.605-.262l-.662-.206q-.594-.171-.914-.537-.308-.365-.308-.97 0-.526.285-.926.286-.411.822-.639.549-.24 1.314-.24.433 0 .765.034a5 5 0 0 1 .64.08l-.092 1.177a7 7 0 0 0-.651-.08 8 8 0 0 0-.662-.023q-.582 0-.811.137-.217.136-.217.343a.43.43 0 0 0 .137.331q.149.114.548.217l.663.171q.662.183.993.548.332.366.332.96 0 .593-.297 1.028a1.84 1.84 0 0 1-.823.651q-.537.228-1.29.228M413.851 135.709v-5.994h.722v2.604h2.741v-2.604h.722v5.994h-.722v-2.75h-2.741v2.75zm7.496.082q-.594 0-1.033-.247a1.73 1.73 0 0 1-.685-.758q-.238-.502-.238-1.252 0-.749.284-1.279.292-.53.767-.813a2 2 0 0 1 1.033-.283q.594 0 1.032.255.44.257.676.759.247.502.247 1.252 0 .74-.292 1.27a2.04 2.04 0 0 1-.759.813 2 2 0 0 1-1.032.283m.073-.621q.384 0 .667-.201a1.4 1.4 0 0 0 .457-.594 2.35 2.35 0 0 0 .164-.923q0-.832-.347-1.252-.338-.42-.959-.42-.376 0-.667.21a1.3 1.3 0 0 0-.457.585q-.165.383-.165.923 0 .831.338 1.251.348.421.969.421m3.198.539v-6.332l.694-.055v6.387zm2.159 0v-6.332l.695-.055v6.387zm3.219.055q-.639 0-1.014-.329a1.13 1.13 0 0 1-.374-.877q0-.567.493-.951.503-.393 1.526-.393h.32q.146 0 .356.01v-.485q0-.448-.256-.676-.246-.237-.767-.237-.631 0-1.307.292l-.146-.585q.42-.183.767-.265.357-.082.786-.082.768 0 1.179.375.411.374.411 1.059v3.089h-.649v-.311a2.5 2.5 0 0 1-.621.283 2.6 2.6 0 0 1-.704.083m.147-.603q.328 0 .603-.073.283-.083.557-.247v-1.051a4 4 0 0 0-.356-.018h-.338q-.695 0-.987.219-.283.22-.283.512t.201.475.603.183m3.228.548v-4.441l.667-.055v.302q.31-.183.585-.256.283-.073.64-.073.758 0 1.16.393.402.392.402 1.124v3.006h-.694v-2.933q0-.43-.256-.685-.256-.265-.74-.265a2.584 2.584 0 0 0-1.069.228v3.655zm6.463.055q-.54 0-.969-.247a1.73 1.73 0 0 1-.667-.731q-.247-.484-.247-1.197 0-.776.284-1.307.291-.539.804-.813a2.35 2.35 0 0 1 1.16-.283q.238 0 .42.027.192.02.338.073v-1.909l.695-.055v6.387h-.676v-.293q-.229.165-.53.256a2 2 0 0 1-.612.092m.155-.631q.292 0 .512-.064.228-.073.456-.219v-2.979a4.414 4.414 0 0 0-.813-.073q-.447 0-.776.201-.33.201-.512.594-.183.384-.183.932 0 .804.366 1.206.365.402.95.402m7.193.64q-1.014 0-1.544-.53t-.53-1.59v-3.938h.721v3.847q0 .831.339 1.197.337.365 1.078.365.676 0 1.032-.384.366-.392.366-1.124v-3.901h.712v3.874q0 .695-.274 1.188a1.8 1.8 0 0 1-.749.74q-.485.256-1.151.256m3.75-.064v-4.441l.667-.055v.302q.31-.183.585-.256.283-.073.639-.073.759 0 1.161.393.402.392.402 1.124v3.006h-.695v-2.933q0-.43-.256-.685-.255-.265-.74-.265-.301 0-.539.054a2.6 2.6 0 0 0-.53.174v3.655zm4.854 0v-4.441l.694-.055v4.496zm.347-5.492a.46.46 0 0 1-.329-.118.44.44 0 0 1-.119-.32q0-.21.119-.329a.47.47 0 0 1 .329-.119q.21 0 .32.119a.45.45 0 0 1 .119.329q0 .2-.119.32-.11.118-.32.118m2.753 5.492-1.525-4.468h.794l1.197 3.828h.046l1.188-3.828h.713l-1.526 4.468zm5.061.055q-.922 0-1.489-.549-.557-.548-.557-1.736 0-.767.246-1.279.256-.52.677-.776.43-.265.941-.265.539 0 .913.21.384.201.585.603.201.393.201.977v.275q0 .136-.018.274h-2.851q0 .566.183.932.183.356.502.53.33.173.75.173.374 0 .694-.064.329-.073.667-.219v.621a4 4 0 0 1-.685.22 3.5 3.5 0 0 1-.759.073m-1.324-2.824h2.101q0-.594-.256-.895-.255-.302-.74-.302a.98.98 0 0 0-.722.32q-.31.311-.383.877m3.978 2.769v-4.441l.685-.055v.521q.256-.292.484-.42a.95.95 0 0 1 .466-.128q.156 0 .265.018.11.01.256.046l-.082.685a1.2 1.2 0 0 0-.265-.055 1.5 1.5 0 0 0-.247-.018.87.87 0 0 0-.42.11 2 2 0 0 0-.448.356v3.381zm3.92.055q-.375 0-.676-.037a4.5 4.5 0 0 1-.576-.11v-.639q.32.091.631.128.31.036.658.036.483 0 .731-.182a.59.59 0 0 0 .255-.485q0-.255-.173-.42-.174-.165-.576-.274l-.521-.155q-.448-.129-.703-.412-.247-.282-.247-.731 0-.365.201-.657t.567-.466q.365-.174.858-.174.301 0 .567.027.265.02.512.073l-.073.613a4 4 0 0 0-.512-.073 7 7 0 0 0-.53-.019q-.448 0-.685.174a.52.52 0 0 0-.238.438q0 .247.146.393.155.147.485.238l.52.137q.549.146.814.439a1 1 0 0 1 .265.703q0 .42-.22.749-.21.32-.594.503a2 2 0 0 1-.886.183m2.799-.055v-4.441l.694-.055v4.496zm.347-5.492a.46.46 0 0 1-.329-.118.44.44 0 0 1-.119-.32q0-.21.119-.329a.47.47 0 0 1 .329-.119q.21 0 .32.119a.45.45 0 0 1 .119.329q0 .2-.119.32-.11.118-.32.118m3.164 5.547q-.328 0-.612-.128a.96.96 0 0 1-.438-.43q-.165-.31-.165-.84v-2.559h-.539v-.566h.539v-.786l.685-.101v.887h1.17v.566h-1.17v2.513q0 .42.192.621a.7.7 0 0 0 .512.201q.165 0 .292-.018.137-.018.311-.055v.594q-.21.055-.393.073a2.4 2.4 0 0 1-.384.028m1.91 1.736q-.127 0-.246-.019a1.4 1.4 0 0 1-.229-.036v-.585q.138.018.238.028.1.009.192.009a.74.74 0 0 0 .502-.165q.201-.164.338-.557l.22-.64h-.284l-1.535-4.294h.768l1.242 3.691h.037l1.069-3.691h.704l-1.627 5.071q-.21.667-.566.923a1.32 1.32 0 0 1-.823.265"/><rect width="22.843" height="22.843" x="550.014" y="108.425" fill="#2A9696" rx="4.569"/><path fill="#fff" fill-rule="evenodd" d="m566.533 111.79-.058.028-.23.028-.029.029-.087.028h-.028l-.029.028h-.058l-.058.057h-.086l-.116.056-.028-.028-.029.028h-.144l-.087.029-.115.028h-.058l-.058.028h-.057l-.173.057-.029.028v.029l-.058.028-.058-.057-.144-.085h-.029l-.115.057v-.028h-.029v.028h-.029v-.028l-.029.028.029.028h.029l.029.029h.029l.029.028h.028v.028h-.086v-.028l-.058-.028v-.029h-.057l-.029.057h.029l.028.028h.029v.029l-.029.028-.028-.028v.028l.028.028h.145v.029h-.087l-.058-.029v.029l-.028-.029v.029l.028.028h.145l.028-.028v.056h-.028l.028.029.029-.029h.029v.029l-.029.028h-.057v.028l.028.029.029-.029h.029l-.029.029h-.057l.028.028v.028h-.028v-.028l-.029-.028v-.029h-.029l.029-.028h-.029l-.029-.028v.028l-.029.057v-.057l-.057-.028-.029.028v.028l.057.057v.028h-.028v-.028l-.029.028v-.028l-.029-.028v-.114l-.029-.028v-.028l.029-.029h-.029v-.056l-.029-.029.029-.056v-.057l.058-.028-.145.056h-.028l-.058-.028h-.087v.028h-.057l-.029-.028-.116.028h-.086l-.029.029-.115.028h-.058l-.115.057h-.145v-.029l-.028-.028v.057l-.116.056-.029.029-.057.028-.029.028-.058.029h-.057l-.087.056-.173.085-.144.085h-.087l-.029.028-.057.029h-.029l-.029.028-.115.057-.087.085-.029.056-.029.029v.028h-.028v.028l-.058.029-.029.028h-.029l-.086.085h-.029l-.029.028-.029.057h-.029l-.029.028-.028.057-.029.085-.029.028v.028h.029l-.029.029-.058.056v.029h.029v.056l-.029.057v.17l-.029.028v.028l-.057.029h-.029l.029.028-.029.028v.029l-.029.028h.029l.029.028.029.057v.085l.028.057h-.028l.028.028h-.028v-.085h-.029v-.057h-.058v-.028h-.029l.029.057v.028l.058.057h-.029v.056h.058v.085l.028-.028v.028h-.028v.028h.028l.029.029v.085l-.029.028v.057l.029.085v.056l.029.029v.009l.058-.038-.058.057v-.019l-.029.019v.085h-.029l-.028.028.028.028.029.057v.113l-.029.029h-.057l-.116.113.029.028v.057h.058v.028h.029l.115.114h.144v-.029l.087.029h.058l.028.028.116.056h.057v.029h.058l.029-.029h.029v-.028l.029-.028v-.028l.057-.029.058.029.029-.029.058-.028h.028l.029.028v.057h.173v.028h.029l.029-.028v.056h-.029l-.144.029h-.029v.028l-.086.142-.145.226v.029l-.029.085v.538h.029l.058.056.058.085.086.113.029.029h.692l-.029.028v.113l.029.029v.028l-.115-.028.029.028h.057v.028l.029.029v.056l.058.057v.056l.029.029v.141l-.029.085-.029.057v.057l-.029.056v.057l-.029-.028v.056h-.028v-.056l.115-.227v-.227l-.029-.056-.144-.142v-.028h-.202l-.115-.028-.26-.085h-.029l-.029-.057h-.028l-.029.028-.202.057h-.029l-.029.028-.231.199v.028h-.173v.028l-.029.085v-.028l-.028.056v.114l-.058.028h-.029l-.029.028-.029.057h-.057v.028l-.491.312-.086.056v.029h-.029v.028h-.046l-.185.113-.029.029-.115.085h-.029v.028l.058.057v.141l-.029.028h.029l.029.057h-.029l.029.028.029-.028h.028l.116-.028h.058l.028.028h.116l.086.028.058.057.086.028.029.029v.028h.029l.26.227.029.056h.028l.058.029.058-.029.144-.056h.087l.028-.029.087-.028h.029l.029-.113.028-.029v-.085h.029v-.141h-.029v-.029l-.028-.056.115-.113.058.028.086-.028h.029l.029-.029h-.029l.173-.17.231-.113h.057l.029.028h.029l.116-.085.028-.056.058-.057.029-.056.029-.029v.029h.029v.028h-.029l.029.028-.202.198-.058.029v.028h-.029l-.029.028h-.029l-.028.029v.028h-.029v.028h-.058l-.058.029-.028.028h-.029l-.029.028-.058.029h-.029l-.057.056v.029h-.058v.056h-.029v.028h-.029v.029h-.029v.028l-.057.028-.058.057v.028l-.029.057v.057l-.029.056v.029l-.028.056-.029.029h-.144l-.058.056-.029-.028-.029.028-.086.029h-.058l-.029.028h-.058l-.086-.085h-.029v-.028l-.029-.029h-.086l-.029-.028h-.058l-.086-.085v-.028l.028-.029h-.057l-.029-.028h-.029l-.029-.028h-.029v-.029l-.028-.028-.029.028h-.173l-.029.029h-.029l-.029.028h-.029v-.028h-.029l-.057-.057-.029-.057h-.029v-.028h-.086l-.029-.057h-.144l-.058.029-.029-.029v.029h-.029v-.029h.029v-.028l-.029-.028h-.029l-.029.028h-.057v-.028h.029v-.057l-.058-.028h-.029v.028h-.029l-.029-.028h-.028v-.028h.057l.029-.029-.086-.056v-.029l.057.029.029.028h.029l.029-.028v.028l.029.028.028-.028v-.057h.029l.029-.028v-.057l.087-.085h.057v-.028l.029-.028v-.029l.058-.056h-.058l-.029-.029v.029l-.057-.029v-.084l.029-.029v-.028h-.029l-.029.028-.029-.028.058-.028h.057v-.029l-.028-.028v-.057l.028-.028.029.028v-.028l.029-.028.029-.057h-.029v-.057h-.029v-.028l-.029-.028v-.029l-.028-.056v-.029l-.058-.084v-.029l-.029-.028v-.057l-.029-.056v-.029l-.029-.028.029-.028-.029-.029v-.17h.029v-.028h.029l.029-.028h.058v.028l.028.028v-.028l.029-.028h.087l.057.056h.029l.029.029V117h.115l.087-.085h.087v-.028l.028-.028h.029v-.029l.058-.028v-.028l.029-.029v-.085l.029-.056h.086l.029-.029h.029l-.029-.028h.029l.057-.057-.057-.056v-.17h-.029l-.029-.028-.058-.029h-.115l-.029-.028h-.086l-.029.057-.029.028v.028l-.029-.028h-.086l-.116-.113.029-.057h-.029l-.029-.028h-.028l.057-.425-.057-.085-.087-.17v-.028l-.029-.029-.086-.17h-.058v.057l-.058.057h-.029l-.057.028h-.029l-.029.057h-.173v.028h-.058l-.057-.028-.087.028-.029-.028-.086-.057h-.029l-.087-.057-.057-.056-.029-.057v-.113l.029-.057v-.028h-.029v.028h-.058v-.056h-.173l-.058.085v.113l-.028.085v.198l-.058.17-.029.17-.058.17v.056h-.028v.057l-.058.113v.057l-.058.17v.198l-.029.113v.114l-.028.113v.141l-.029.029v.028l-.029.198-.029.255-.029.142-.086.17-.029.085.057-.029h.029l.058-.028.029.028h-.029v.029h-.058l-.029.028h.058v.028l-.058-.028h-.028v.028l-.058-.028v.057l.029.056-.029.028v.057l-.029.057-.029.113-.029.085-.057.142-.116.226-.173.368-.057.085-.029.057-.087.141-.029.029v.028l-.057.085-.029.057-.26.339-.086.057v.028l-.058.057h-.029v.057h.029l-.029.028v-.028h-.029l-.028.028-.029.057-.173.17-.087.113-.115.113v.028l-.058.085-.058.029-.057.056h-.029l-.029-.028-.144-.028-.029.028h-.058l-.029.028v.029l-.028.028-.029.057.057.056v.029l-.057.056-.029.057-.058.085h.058l.029.028.029-.028.115-.029h.029l.029.057h-.029v.028l-.058.057v.028l-.029.029v.028l.029.028.116.17v.057l-.029.028.057-.028.087.085v.028h.115l-.029.028.029.029h.029v-.029h.087l.028.029.058.085h.087v.028h.057l.029.057.029.028h.058l-.029.028h-.029l.029.057.029.028.086.029v.028h.058l.058.028h.057v.029l.116.028.057.056h.029l.058.029.086.056h.029l.029.029h.058v.028h.144l.058.028h.057l.029.029h.029l.029.028h.029l.057-.028h.029l.087-.029h.029l.028-.028h.058l.029-.057.029.029h.029l.057-.029v.057l-.057.028-.029.029h-.029l-.058.056-.23.057h-.058l-.087.028h-.057l-.087-.028-.029-.028h-.029l-.028-.029h-.087l-.029.029-.057.028-.029.028v.029l-.029.056-.087.085-.057.029h-.029l-.029.028h-.029v-.028h-.029l-.029.028h-.086l-.029.028h-.058l-.028.057h-.029v-.029h-.087l-.057-.028h-.116l-.058-.028-.086-.057h-.029l-.086-.028v.028l-.058.057h-.029l.029.056h.029l.057.114h.173v-.029h.029v.057l-.029.028h-.144l-.029.029h-.028l-.058-.057-.115-.028h-.029l-.058.028-.029.028h-.029l-.057.029-.029.028-.029-.028-.058.028-.029.028v.057h.029v.028h.058l.058.057h.028v.057l.029.028h.029l.058.056v.057l.029.028h.029v.029h.23l.029.028h.029v-.028l.115.056-.029.029v.056h.029l.116.057.029.028v.199l.028.113h-.086l-.029-.029h-.087l-.028.029h-.029l-.029.028h-.087v-.028h-.028l-.087-.057h-.029l-.029-.085h-.028l-.058-.085v-.028l-.029-.028.029-.029-.029-.028v-.057h-.029l-.115-.113h-.058l-.029-.028h-.029l-.057-.029h-.029l-.029-.028-.029.028h-.029v.029l-.057-.085h.029l-.029-.029v-.028h-.087l-.029.028h-.202v-.028l-.028-.028h-.058l-.058.028h-.029l-.028.028-.087-.028h-.029l-.029-.028-.029.028-.057.028v.029l-.029.028v.028l-.029.029h-.029l-.029.028h.058l-.058.028v-.028l-.086-.085v-.028l-.029-.085v-.028h-.029l-.029-.029-.057-.028-.058-.057v-.085l.029-.028h-.058l-.029-.028h-.202v.028h-.057l-.029.028-.058.029-.029.028-.057.028h-.029l-.058.057-.058.028-.028.029h-.029l-.058.056v.085l.029.057h.029l.057.056.058.029v.028h.029l.058.057v.028l.029.028v.029l.028.028v.028l.058.057.058.028v.029h.029l.028.028v.028h.116v-.085h.029v.057l.028.028h.087l.029-.028v-.028h.115l-.057-.029.028-.028.058-.028h.029v.028l.086-.057v-.056l.029.028v.028h.029l-.029.029h-.029l-.057.028.057.028h.058l-.029.029.029.028v.028l-.029-.028-.029.028h-.028l.028-.056-.057-.029-.029-.028-.029.057.029.028.086.056.029.029v.028h.029v.085h.029l.029.028h.029v-.028h.028l.058.028h.029v.029l.058.028v.028h.029l.057.057h.087l.057-.028h.029l.029-.029h.087l.028.029.029-.029.029-.113h.029v-.057h.029v-.169l.058.028.057-.028h.029l.058-.057.086.085v.028h.029v.028h.058l.057.057h.058v.085l.058.028h.029l.029.029h.028l.116.056h.057l.029.029h.058l.086-.029.058-.028h.058v.028h.058l.057.029.029.085v.056h.087l.057-.028h.202v.028l.029.029v.085l.029-.029.086.029h.116l.029-.029.057-.028h.029v-.057l-.144-.198-.029-.085.029-.028h.029v-.114h-.029l-.029-.028.029-.028.202-.085h.057l.058-.057h.058l.202-.028.029.057-.058.141.029.17.144-.057h.086l.116.029.058.028h.028v-.028l.029.028.058-.028-.029-.114.087-.028h.028l.029-.085.058-.028.029-.028.029-.057.057-.028.029-.029-.029-.028h.058v-.028l.058-.029.029.029v.028h.057l.058.028h.029v.057l.029.028.028-.028.029.028-.029.057v.057h.029v.028h-.029l-.057.056.029.114v.028h.057v.028h-.029l-.086-.028-.029-.028h-.058v-.029h-.028l-.058.029v.056l.029.029.057.028h.029l.087-.028h.115l.029.028h.029v-.028h.115l.058.056v.029h.029l.029.028h.028l.116-.17.173-.113v-.057h.029v-.028l-.029-.028v-.029l.029-.028v-.028l.028-.029.058-.028h.029l-.029.028.029.029v.028h.144l.087.255-.116.226.173.199v.028l.058.056v.199l.115.028.029-.028.087-.029h.029v-.028l.173.113-.058.227.029.028.115-.028.116.028h.144l.029-.028.029-.057.086.029.115.028.058.028.115-.113.087-.028.058-.057v-.028h.029l.115.028v.028l.029.057.086.057.029.028v.17l.029.113h.029l.057.028.231.085.029.029v.028l.029.057.029-.029.029.029h.23l.029-.029h.029l.029.029h.058l.028.028v.028h.029l-.029.029h-.028v.028h.028v.085h.029v-.028h.058v-.029h.058v-.028l.057-.028v.028h.029v.057l.087.056-.058.057v.028l-.058.028h-.029v.029l-.057.056.029.029h.057l.029.028v.028l-.029.029v.028h-.029l-.028-.028h-.058v.056l.029.029v.028h-.029v.028l.029.057h-.029v.028h-.029l-.058-.028-.028.085v.056l-.029.029v.028h.029l.028.028v.029l-.028.056v.085l-.058.057-.029.057h-.029l-.058.113v.028h.058l.029-.028h.029l.029.028v.028l-.058.029v.056l-.058.057v.028l-.029.029.029.028-.029.028h-.086l-.029.029v.056l-.058.057v.028h-.028l-.029.029h-.029v.028h-.058l.029.028-.029.029v.169h.029v.057h.029v.028l.029.029h.057v.028h.058l.029.028v.029l-.029.028.029.085v.057l-.058.085v.028h.058l.029-.028h.029l.028-.029v.029l.029.028h.029l.029-.028v-.029l.029-.028.058-.085h.057v.057l.029.056.029-.028.058.085h.028l.029-.028.029.028.058-.057v.085l.057-.056v-.029h.058l.058-.028v.085l.058.028v-.028h.057v.028l.058-.028.029-.028h.115l.029.028.058.028h.028v-.028h.087v-.057l.029-.056-.087-.057h-.029l-.028-.028v-.029h-.029l-.029-.028v-.057l.029-.028.029.028.057.029.029-.057.029-.028v-.029h.029l-.029-.028v-.028l-.029-.029v-.056l.029-.029h.058l.029-.028h.028v-.028h.029v.028l.058.028v-.084h.029v-.029l.029-.028v-.057l-.029-.028v.028l-.029-.056v-.057l.029-.028v-.029l.029-.028v-.028l-.029-.029h-.116v-.056l-.028.028-.029-.028-.087-.029v-.085l-.058-.028.029-.028h.029v-.028l.029-.114h-.173l-.029.029h-.029l-.029-.029v-.028h-.028l-.058.028h-.029l-.029.029h-.029l-.028.028h-.029l-.029-.028.058-.057v-.085h-.029l-.029-.028v-.029h-.029v-.028h-.029v-.142l-.029-.028-.029-.057h.116v-.028l.058-.028.028-.028v.028l.058.085.029.056v.029l.029-.029h.029v.029h.028v-.029l.029-.028v-.028l.029-.029v-.056l.029-.028v-.029l.029-.028v-.028l.029-.029.057-.028.029-.028.058-.029h.029l.057-.056v-.029l.029-.028h.058l.029-.028v-.057l.029-.028h.057l.029-.029h.029v-.028h.058l.029-.028h.086l-.029-.028h.029l.029-.029-.115-.085h-.029l.173-.085-.058-.056-.173.085-.058.056h-.115v-.028l-.029-.028v-.199l-.029-.028.029-.028h.058l-.058-.114.058-.028.029-.056.115-.114v-.028l.029-.028.058-.085.028-.057v-.028l.029-.029v-.056l.029-.029v-.028h.087v-.028l.144-.142-.029-.085-.029-.056v-.029l.058-.056h-.087v-.029l.029-.17v-.085h.029l-.029-.056.029-.028v-.085l-.058-.114.029-.056-.029-.029v-.085l-.029-.056-.115-.057-.058-.17-.057-.028-.058-.057-.029-.056v-.029h-.029l-.086-.056v-.114h.029v-.028l.028-.085v-.028l.029-.028v-.029l-.057-.028h-.058v-.028h-.058l-.144-.057-.029-.028v-.057l.029-.028-.029-.029v-.085h.058v-.028h-.029v-.057h-.029l-.086-.056-.029-.029h-.173v-.056l.029-.028.057-.029h.029l.029-.056v-.029h-.029v-.056h.029l-.029-.029h-.029v-.085l-.057-.056h-.058v-.029l.029-.028h.029l-.058-.028.058-.085h.028v.028h.087l.058-.028h.028l.058-.057.029.028.058-.056h.029l-.029-.028.057-.057.087.085h.058l.115.028h.087l.028.028v-.141l-.057-.028h-.029v-.057l-.029-.057-.029-.028h-.086l.028-.028v-.029h.029l.029.029.116-.057.028.028h.029l.029.029.058.028v.028h-.058l.087.085.057.029h.058v-.029h.058l.028.029h.029v-.029h.029v-.028l.029.028.087.029v.028l.028.057v.028l.058-.028h.087l.028.028h.029l.029.028v.057h.087l.057.028h.029l-.029-.057.029.029-.029-.057v-.028l.029-.028h-.029v-.029h-.029l-.028-.028v-.085l.057.028h.029l.029.029h.029v.028h.058l.028-.028.029.056h.029l.029.029.029-.029.086-.028v-.057h.029l.029-.028h.058l.028-.028v-.029h.029l.029-.028v.028h.029l.029-.028.058-.028.144-.057h.057v-.028l.116-.057h.029l.028-.028v.028h.058v.028l.087.085.057-.028v-.028h.029l.029-.029h.029v-.028l.029-.028h.029l.057-.085.029-.029v-.141l.058-.028h.057l.029-.057-.029-.028v-.085l-.086-.029h.029l-.173-.113-.029-.028-.029-.057-.144-.057h-.116v-.113l.029-.028v-.057h.087l.115-.056v-.085h.029v-.029l.029-.113h.317l.087-.085v-.028l.029-.142h.028v-.028l.087-.057v-.028l.086-.028h.087l.029-.057v-.028l.029-.029v-.028l.028-.028v-.085l.029-.029.058-.028.029.028h.115l.087-.056v-.028l-.087-.114-.029-.028v-.057h-.028v-.113l.028-.085v-.028h.029v-.029h.029v-.056l.029-.057v-.028l.058-.085v-.142l-.058-.113v-.057h-.087l-.057-.113-.058-.057v-.028l-.029-.056v-.057l-.029-.057v-.028h-.057l-.029.057-.029.085-.058.028v.028h-.029l-.144-.028-.057-.028-.087-.029h-.058l.029-.056h-.375l-.029-.029-.115-.056-.029-.029-.058-.028.029-.227-.057-.085-.058-.113h.029l.057.029h.058l.029-.085h.058l.057.028.029-.028-.173-.142v-.057l.029-.113v-.028l-.058-.057.029-.028h.029l.029-.028.029-.057h.086l.029-.028h.144l.029.028.029-.028h.144l.029-.029.029.029h.086l.058.028v.028h.202l.029-.028h.029l.028.028.029-.028v.028h.029l.087.029h.029l.057-.057v-.198l.029-.284v-.538l.087-.169-.029-.057v-.028l.057-.085.173-.284.116-.198.058-.226.028-.142.029-.028v-.029l-.057-.254v-.369l-.087-.056v-.113l.029-.029v-.085l.029-.085h.029l.028-.028h.058l-.058-.028-.028-.029.028-.028v-.142l-.028-.084v-.029h-.029l-.087-.028h-.029v-.028h-.115v-.029h-.115l-.029-.028h-.029l-.058-.057v-.085l.029-.028-.029-.057v-.028h.029l.029-.057v-.028l-.058.028-.029.029h-.173l-.057-.029v-.028h-.058l-.115-.057v.029l-.116-.057h-.029v-.028h.029l-.086-.085h-.029l-.029-.028v-.142l-.029-.028v-.114l-.029-.056h-.029v-.085l.029-.085v-.028l-.086-.085-.058-.029-.029.057.029.028h-.08600000000000001v-.028l.028.028v-.028l.029-.057h-.029l-.057-.028-.058.057-.029-.029-.057-.028h-.087zm.721.821.029.028v-.028zm1.039.566v-.056l-.029.028zm-8.595 11.299h-.058l.029.028zm-4.99-1.246h.029v.057h.029v.056h.028l.029.029h.029l.058.056.029-.028v.028h-.029l.057.057v.056l-.028.029.028.028v.028l.029-.056h.029l.029-.057.029-.028.115-.028h.058l.029.028h.115v-.028h.087l.057.056h.058l.029-.056h.057l.029-.029v-.085h-.029v-.028l-.028-.028-.029-.057v-.028l-.029-.029h-.058v-.028h-.057l-.058.028-.029-.028h-.058l-.057.028-.029.029-.058-.029-.058.029h-.028l-.029.028h-.029l-.029-.028h-.029l-.029-.029h-.057v-.028h-.029v.028zm1.673-1.501-.029.028h.029zm2.913-6.796v-.028h-.029zm.634 3.625v.028h.029zm2.481.056-.058-.028.029.028zm-1.575-.368.046-.028-.058.028zm.594-4.106-.086.085h-.058l.029.028h.029l.028-.028zm.202-.566v-.029l-.029.029zm2.971-1.048v.028l.029.029zm-.173.17h.029v.028zm-.058.028h.029l-.029.028zm-2.827 1.699h.029l-.029.028zm-1.194 2.175.003.001-.018.008zm-.084.058-.006.005v-.001zm-.006.015.003.018-.043.006h-.001l-.059.022.058-.022h.001l.041-.007zm2.525.442v.029h.028v.028l.029.028v-.028h.029l.029-.028-.029-.029zm-2.365.822v.056l-.029.057h.029l.028-.028h.029l.029-.029h.029v-.028l-.058.028zm-2.567 3.964h.028l-.028.028zM563.995 111.931l-.029.029h-.028v-.057l.028-.028h.029zM562.957 111.875l.375-.029.173-.028h.086l.058.028h.029v.057h-.26l-.115.057h-.029l-.231.056h-.115l-.086-.028h-.116v.028l-.057.057h-.058l-.029.028h-.029l-.029.028-.029-.028h-.057l-.029-.028-.058-.029-.029-.056v-.028l.029-.029.029-.056.087-.085h.057l.029.028h.029l.029.028h-.029l-.029-.028h-.086l-.029.028h.086l.116.029zM565.062 111.563v.057h-.115l-.058.028-.086.028-.029.029v.028l-.058.028h-.115l-.087.029h-.144l-.029.056v.029h-.028v.028h-.058v.028l-.029-.056v-.029h.029l.029-.028-.029-.028v-.085l.029-.029.057-.028v-.028h-.086l.029-.029.057.029h.087l.288-.029h.087l.173-.028.058-.028zM560.967 113.177l-.029-.028h.08700000000000001v.028zM561.544 112.214l-.058.029h-.029l-.115.113h-.058v.028h-.029l-.029-.028v.028h-.028l-.029.029h-.029v.028l-.029-.028h-.086l-.058.056-.029-.028-.029.028h-.029l-.029.029v.028h-.028l-.058.028h.029l-.029.029h-.087l-.028-.057h-.029v-.028l.029-.029.115-.17.115-.056.116-.029.173-.028h.057l.173-.057.145-.056.317-.113h.086l.087-.029.029.029h.029l.029.028v.056-.028l-.029-.028v.028l-.058.057h-.087l-.057.028-.029-.028v.028h.029l-.029.028h-.058v-.028h-.029l.029.028v.029h-.057l.028.028h.058l-.029.028zM560.65 112.866l-.058.056h-.087v.029h-.028v-.029l.057-.056zM560.275 112.894v.028l-.029.029-.058.028-.173.057-.058.028v.085h.029v-.028h.029l-.029.028-.029.057-.086.056-.029.028h-.029v.029l-.029.028-.057.028h-.173l-.029.029v.028h-.029v-.113l.173-.085.086-.085.058-.028.087-.085.115-.085.058-.029.029-.028.086-.028.115-.057h.029l.087.028v.029l-.029.028zM558.833 114.876l-.029.029h-.029v.028h-.029l-.029-.028v-.085h.087l.086-.029h.058v.029zM559.525 114.423l-.087.085h-.086l-.087.113v.057h-.058l-.028-.028-.058-.029h-.029l.087.085h.028-.057v.029h-.058l-.029.028h-.029l-.028.028h-.029v-.085l-.029-.113v-.085l.029-.085v-.028l.086-.255.029-.028.058-.085.057-.114.087-.084v.056l.087-.085v-.028l-.029.028-.058.029.087-.17.028-.029.058-.028v-.028h.058l.057.056v.085l.058.057.058.085v.028l-.029.028v.284l-.029.056h-.029l-.029.029v.056l-.057.057z" clip-rule="evenodd"/><path fill="#fff" fill-rule="evenodd" d="m560.275 115.046-.029.028h-.029v-.028zM559.727 115.386l-.058-.028-.087.028.116-.057.029-.028.057-.028h.029l.058-.085v-.029l.058-.056h.057l.029-.029h.029l.029.029h.029l.028-.029h.029l.029.029v-.029h.029v.057l-.029-.028v.056h-.029v.057l-.057.057h-.029l-.058.028h-.029l-.029.057h-.173v.028zM556.179 121.673l-.058.028h.058zm0 .028-.087.028h-.057l.057-.028-.259.085-.058.028h-.029l-.086.028h-.029l-.029.057v.057l.029.085v.028h.029v.028h.028l.058-.028v-.028h-.029v-.029h.087l.029-.028h.086l.058-.057.058.029h.057l.058.028v.028l.029.029.029.056h.028v.085h-.028v.029h.028l-.028.028v.028l.028.057h.029v.028l.029.028v.029l.029.056v.057h.058l.029.028.028-.028v.028h.173l.029.029.087.028.029.057.028.028h.087v.028h.058l.029.029h.028v.056l.058.029.029.028h.144l.058-.028h.086l.087-.029.058-.028.028-.028.029-.057v-.028h-.029v-.029h.116l.057-.028h-.028v-.057h-.029l-.029.029h-.26l-.057-.085h-.058l-.029-.029h-.029l-.029-.028v-.028l-.057-.029v-.056h-.029l-.173-.17h-.029v-.028h-.058l-.029-.029h-.028l-.058-.056-.058-.029h-.029l-.115-.056-.029-.029-.086-.028v-.028l-.029-.029h-.029v.029l-.029-.029h.029v-.056h-.029v.028h-.029v-.028l-.057-.029v-.028zm-.548.396-.029.057-.029.028-.058.029h.029l.058.028.029.028h.029v-.028l-.058-.057z" clip-rule="evenodd"/><path fill="#fff" fill-rule="evenodd" d="M555.977 122.097h-.058l-.115.057h-.029v-.028l.058-.029v-.028l.058-.057v.029h.028zM557.304 122.296l.058.028.086.028.058.028.029.029h-.029l-.058.028h-.115l-.058-.057h-.029l-.057-.056h-.029l-.029-.028.029-.029h.057zM554.16 124.334v.029h-.058l-.058.028h-.057l-.029.028h-.144v.029h-.029l-.029.028h-.058l-.028.028h-.029v.029l.029.028v.113l.028.029v.056l-.115.113.087.085h-.058v.029l.058.056v.029l-.029.028.029.028h.028l.029.057h.029l.029.057.029-.029.029.029v.056h.028l.029.029h.116l.23-.029-.028-.198-.029-.028.057-.029.029.029h.029v-.029h.058v-.028h.029l.057.057.029-.029-.029-.056.058-.029.029.029.057.028.029.028.058.029h.029v-.029h.058l.057.057h.029l.029.028v.029h.086l.029.028v-.028l.116.028h.028l.029.057h.029v-.029l.058.057h.029v.028l-.029.029v.198l.029.028h.029v-.028l.028.028h.202l.058-.057h.058v.057h-.029l-.029.028.029.029h.057l.058-.029h.029l-.029-.056.058-.029.029.057h.029v-.028h.057l.029-.029v-.028h.058l.029-.057h.028l.029-.028.058-.028h.029v.028h.029l.028-.028v.028h.058l.029-.028h.029l.086-.085.116-.057.144-.113.029-.028.288-.34h-.029v-.028h-.028v-.057l-.029.028v-.056l-.029-.029h-.058l.029-.028h-.058v.028l-.029.029v.028l.029.028h.029v.057l-.029-.028-.029.028h.029l-.029.028h.029v.028l-.029-.028h-.057l.029.028v.029l-.029-.057-.029-.028h-.029l.029.028.029.028h-.029v-.028h-.029v-.056l-.058-.057h-.086v.028h.086l-.028.029v.028l.028-.028.029.028h-.029v.056h.029v.029h-.029l-.057-.113h-.029l-.087-.057v-.028h-.028v.028l-.116-.028-.029-.029v-.028l-.029-.028v-.029l-.028-.028.028-.028h-.028l-.029-.029v-.028h-.087l-.029-.028h-.057l-.029.056v.029h-.029v.141l-.029.029v-.029l-.029.029h-.028l-.087.028-.058.028-.029.029h-.028v.028h-.058v.028l-.029.028h-.115l-.029-.028h-.029v.028l-.029-.028v.057l-.029-.057v-.028h-.057v-.028h-.087v.084l-.058-.028v-.028l.029-.028h-.173v-.029l-.057-.056h-.029v-.029l-.029-.028h-.087l-.057-.028h-.029l-.087-.029h-.029v-.028h-.028l-.058-.028h-.029l-.058-.057h-.028l-.029-.028h-.029v-.029zm2.624.397-.028-.028-.029.028zm-.028-.028h.08600000000000001l-.029-.029h-.029v-.028h-.028v-.028h-.058v.056l.029.029zm.057-.085.029.028h-.029zm.058 0h.029l-.029.028zm-.202.198h.029v.028h-.029zM560.823 114.565l.317-.283h.029l.086-.029-.057.029h-.058l-.289.283zM554.91 123.513l-.029-.028v-.028h.029l.029.028v.028l-.029.028zM555.025 122.89v.085l.029.028-.057-.028v.057l-.029-.029-.029.029h.029v.028h-.029v-.028l-.029.028v.085h-.029l.029-.057v-.028l-.029-.028.029-.057.058-.028v-.028h.057zM561.169 116.575l.202.085.173.17.057.085v.028l.145.227.057.142v.028h-.029l-.028.028-.058.029-.029.113-.029.056h.029l-.029.057v-.057l.029-.056.029-.113.029-.029.057-.028h.029v-.028l-.057-.142-.202-.34-.173-.17-.173-.085-.029.057h-.058zM565.062 111.563h.058v.028l-.058.029zM565.582 111.308v.029l.057.056h-.115v.057h.029l-.029.056-.029-.028-.029-.085-.029-.028v-.028l.029-.057h.087zM565.87 111.337h.115l.058.028h-.173l-.029.028v-.028zM555.804 122.352v-.028h.029l.058.028zM556.871 122.947l-.057-.057v.029h-.029l-.058-.057.029-.028h-.029v.028h-.058v-.028h.145-.029v.028h.057v.028l.029.029zM556.064 122.239h.029l.028-.028v.056l.029.085.058.057-.029.028h-.029v-.028l-.029-.029v-.028l-.028-.056-.029-.029zM555.977 122.296l-.029.028h-.057v-.028h.115z" clip-rule="evenodd"/><path fill="#fff" fill-rule="evenodd" d="m555.891 122.975-.029.028h-.058l-.058-.028h-.057l.029-.056-.029-.029v-.056h-.029v-.057l-.029-.057-.058-.028-.028.028v-.028l-.087-.028v-.057l-.029-.028h-.086l-.029.028v.028h.029-.058l-.029.057-.058.028h-.057l-.058.029-.029.028v.057h.029v.028h-.029l-.029-.028h.029v-.057l-.029-.028h-.057v-.029l-.029-.028-.029-.057v-.141l.029-.057.058-.057.057-.028h.058l.115-.028.029-.028h.115l.087.028v-.057l.029-.028v-.028h.058l-.029.028h.029l-.029.028v-.028h-.029v.028l-.029.057h.202l.058-.028.057.056v.028h.087l.057-.028.029.028h.087l.029.029v.056l.086.085.029.057v.057h.115l.058.028.087.057h.028v.028h.029l.058-.057h.144l.029-.028h.029v.085h.029l-.029.028h-.029l.029-.028-.029-.028v-.029h-.029v.029l-.029-.029-.086.029h-.029l-.029.028h-.029v.028l.029.029v.028l-.029.028h.029v-.028l-.029.028v.029h-.029l-.028.028-.029.056h-.029l-.029.029-.029-.029-.057.029-.029.028h-.058v.028h-.202l-.058-.056zM557.708 122.607l-.029.028v.029l-.029-.029z" clip-rule="evenodd"/></g><path fill="#002328" fill-opacity=".1" d="M399.25 94.719h187.312zm187.312 100.509a9.707 9.707 0 0 1-9.708 9.708H408.958c-5.361 0-9.708-4.346-9.708-9.708 0 4.731 4.091 8.566 9.137 8.566h169.038c5.047 0 9.137-3.835 9.137-8.566m-187.312 9.137V94.719zM586.562 94.719v109.646z" mask="url(#i)"/></g></g><rect width="216.47" height="517.408" x="384.671" y="28.671" stroke="#EFEEFB" stroke-width="6.658" rx="28.641"/></g></g><defs><clipPath id="a"><path fill="#fff" d="M0 0h985v250H0z"/></clipPath><clipPath id="c"><rect width="209.812" height="510.75" x="388" y="32" fill="#fff" rx="25.313"/></clipPath><clipPath id="d"><path fill="#fff" d="M569.837 42.49h9.325v9.326h-9.325z"/></clipPath><clipPath id="e"><path fill="#fff" d="M579.162 42.49h9.325v9.326h-9.325z"/></clipPath><clipPath id="h"><path fill="#fff" d="M399.25 109.338c0-5.117 0-7.676.996-9.63a9.14 9.14 0 0 1 3.993-3.993c1.955-.996 4.513-.996 9.631-.996h158.073c5.117 0 7.676 0 9.631.996a9.14 9.14 0 0 1 3.993 3.993c.995 1.954.995 4.513.995 9.63v80.408c0 5.117 0 7.676-.995 9.63a9.14 9.14 0 0 1-3.993 3.993c-1.955.996-4.514.996-9.631.996H413.87c-5.118 0-7.676 0-9.631-.996a9.14 9.14 0 0 1-3.993-3.993c-.996-1.954-.996-4.513-.996-9.63z"/></clipPath><filter id="b" width="226.678" height="527.616" x="379.567" y="23.567" color-interpolation-filters="sRGB" filterUnits="userSpaceOnUse"><feFlood flood-opacity="0" result="BackgroundImageFix"/><feColorMatrix in="SourceAlpha" result="hardAlpha" values="0 0 0 0 0 0 0 0 0 0 0 0 0 0 0 0 0 0 127 0"/><feMorphology in="SourceAlpha" operator="dilate" radius="1.775" result="effect1_dropShadow_34205_72359"/><feOffset/><feComposite in2="hardAlpha" operator="out"/><feColorMatrix values="0 0 0 0 0 0 0 0 0 0.137255 0 0 0 0 0.156863 0 0 0 1 0"/><feBlend in2="BackgroundImageFix" result="effect1_dropShadow_34205_72359"/><feBlend in="SourceGraphic" in2="effect1_dropShadow_34205_72359" result="shape"/></filter><filter id="g" width="207.871" height="130.205" x="388.971" y="86.495" color-interpolation-filters="sRGB" filterUnits="userSpaceOnUse"><feFlood flood-opacity="0" result="BackgroundImageFix"/><feColorMatrix in="SourceAlpha" result="hardAlpha" values="0 0 0 0 0 0 0 0 0 0 0 0 0 0 0 0 0 0 127 0"/><feOffset dy="2.056"/><feGaussianBlur stdDeviation="5.14"/><feComposite in2="hardAlpha" operator="out"/><feColorMatrix values="0 0 0 0 0 0 0 0 0 0 0 0 0 0 0 0 0 0 0.2 0"/><feBlend in2="BackgroundImageFix" result="effect1_dropShadow_34205_72359"/><feBlend in="SourceGraphic" in2="effect1_dropShadow_34205_72359" result="shape"/></filter></defs></svg>