<?xml version="1.0" encoding="UTF-8"?>
<svg class="gsndiagram" viewBox="0 0 220 376" xmlns="http://www.w3.org/2000/svg">
<defs>
<marker id="supportedby_arrow" markerHeight="9" markerUnits="userSpaceOnUse" markerWidth="10" orient="auto-start-reverse" refX="0" refY="4.5">
<polyline fill="black" points="0 0, 10 4.5, 0 9"/>
</marker>
</defs>
<style type="text/css">
svg { background-color: white;}

/* CSS to invert SVG for dark mode */ 
@media (prefers-color-scheme: dark) {
    svg { filter: invert(100%); background-color: black; }
}

</style>
<a href="rp_session.svg">
<g class="gsn_module_ gsnelem gsnmodule" id="node_rp_session_attribute">
<title>rp_session_attribute</title>
<path class="border" d="M45,20 h30 v10 L175,30 L175,74 L45,74 z" fill-opacity="0" stroke="black" stroke-width="1"/>
<text font-family="Liberation Sans, Arial, sans-serif" font-size="12px" font-weight="bold" x="52" y="50">rp_session_attribute</text>
</g>
</a>
<a href="sole-control.gsn.svg">
<g class="gsn_module_ gsnelem gsnmodule" id="node_sole_control_main">
<title>sole_control_main</title>
<path class="border" d="M51,114 h30 v10 L169,124 L169,168 L51,168 z" fill-opacity="0" stroke="black" stroke-width="1"/>
<text font-family="Liberation Sans, Arial, sans-serif" font-size="12px" font-weight="bold" x="58" y="144">sole_control_main</text>
</g>
</a>
<a href="sole-control-2fa.gsn.svg">
<g class="gsn_module_ gsnelem gsnmodule" id="node_sole_control_2fa">
<title>sole_control_2fa</title>
<path class="border" d="M56,208 h30 v10 L164,218 L164,262 L56,262 z" fill-opacity="0" stroke="black" stroke-width="1"/>
<text font-family="Liberation Sans, Arial, sans-serif" font-size="12px" font-weight="bold" x="63" y="238">sole_control_2fa</text>
</g>
</a>
<a href="sole-control-2fa-registration.gsn.svg">
<g class="gsn_module_ gsnelem gsnmodule" id="node_sole_control_2fa_registration">
<title>sole_control_2fa_registration</title>
<path class="border" d="M20,302 h30 v10 L200,312 L200,356 L20,356 z" fill-opacity="0" stroke="black" stroke-width="1"/>
<text font-family="Liberation Sans, Arial, sans-serif" font-size="12px" font-weight="bold" x="27" y="332">sole_control_2fa_registration</text>
</g>
</a>
<path class="gsnedge gsninspby" d="M110,74 C110,104,110,94,110,114" fill-opacity="0" marker-end="url(#supportedby_arrow)" stroke="black" stroke-width="1"/>
<path class="gsnedge gsninspby" d="M110,262 C110,292,110,282,110,302" fill-opacity="0" marker-end="url(#supportedby_arrow)" stroke="black" stroke-width="1"/>
<path class="gsnedge gsninspby" d="M110,168 C110,198,110,188,110,208" fill-opacity="0" marker-end="url(#supportedby_arrow)" stroke="black" stroke-width="1"/>
</svg>