<?xml version="1.0" encoding="UTF-8"?>
<svg class="gsndiagram" viewBox="0 0 973 1191" xmlns="http://www.w3.org/2000/svg">
<defs>
<marker id="supportedby_arrow" markerHeight="9" markerUnits="userSpaceOnUse" markerWidth="10" orient="auto-start-reverse" refX="0" refY="4.5">
<polyline fill="black" points="0 0, 10 4.5, 0 9"/>
</marker>
<marker id="incontextof_arrow" markerHeight="9" markerUnits="userSpaceOnUse" markerWidth="10" orient="auto-start-reverse" refX="0" refY="4.5">
<polyline fill-opacity="0" points="0 0, 10 4.5, 0 9, 0 0" stroke="black" stroke-width="1"/>
</marker>
<symbol id="module_icon">
<rect fill="lightgrey" height="5" stroke="black" stroke-width="1" width="10" x="0" y="0"/>
<rect fill="lightgrey" height="10" stroke="black" stroke-width="1" width="20" x="0" y="5"/>
</symbol>
</defs>
<style type="text/css">
svg { background-color: white;}

/* CSS to invert SVG for dark mode */ 
@media (prefers-color-scheme: dark) {
    svg { filter: invert(100%); background-color: black; }
}

</style>
<a href="rp_session.svg#node_g1_1">
<g class="gsn_module_rp_session_attribute gsnelem gsnawaygoal" id="node_g1_1">
<title>G1.1</title>
<path class="border" d="M502,149 V20 H674 V149" fill-opacity="0" stroke="black" stroke-width="1"/>
<text font-family="Liberation Sans, Arial, sans-serif" font-size="12px" font-weight="bold" x="509" y="40">G1.1</text>
<text font-family="Liberation Sans, Arial, sans-serif" font-size="12px" x="509" y="58">RP trusts the PID issuer to (1)</text>
<text font-family="Liberation Sans, Arial, sans-serif" font-size="12px" x="509" y="71">issue only to wallets that</text>
<text font-family="Liberation Sans, Arial, sans-serif" font-size="12px" x="509" y="84">implement Sole Control, (2)</text>
<text font-family="Liberation Sans, Arial, sans-serif" font-size="12px" x="509" y="97">issue only attributes that it</text>
<text font-family="Liberation Sans, Arial, sans-serif" font-size="12px" x="509" y="110">has checked to be factually</text>
<text font-family="Liberation Sans, Arial, sans-serif" font-size="12px" x="509" y="123">correct, (3) issue the PID at</text>
<text font-family="Liberation Sans, Arial, sans-serif" font-size="12px" x="509" y="136">LoA High</text>
<a href="rp_session.svg#node_g1_1">
<path class="border" d="M502,149 H674 v27 H502 z" fill-opacity="0" stroke="black" stroke-width="1"/>
<text font-family="Liberation Sans, Arial, sans-serif" font-size="12px" font-weight="bold" x="536" y="169">rp_session_attribute</text>
</a>
<use href="#module_icon" x="509" y="156"/>
</g>
</a>
<g class="gsn_module_sole_control_main gsnelem gsngoal" id="node_g_solecontrol">
<title>G_SoleControl</title>
<path class="border" d="M501,231 L675,231 L675,301 L501,301 z" fill-opacity="0" stroke="black" stroke-width="1"/>
<text font-family="Liberation Sans, Arial, sans-serif" font-size="12px" font-weight="bold" x="508" y="251">G_SoleControl</text>
<text font-family="Liberation Sans, Arial, sans-serif" font-size="12px" x="508" y="269">PID issuer has assurance that</text>
<text font-family="Liberation Sans, Arial, sans-serif" font-size="12px" x="508" y="282">User will have sole control</text>
<text font-family="Liberation Sans, Arial, sans-serif" font-size="12px" x="508" y="295">over the PID</text>
</g>
<g class="gsn_module_sole_control_main gsnelem gsnasmp" id="node_a_pidissuertrustswb">
<title>A_PidIssuerTrustsWb</title>
<path class="border" d="M715,266 a119,50,0,1,0,238,0 a119,50,0,1,0,-238,0 z" fill-opacity="0" stroke="black" stroke-width="1"/>
<text font-family="Liberation Sans, Arial, sans-serif" font-size="12px" font-weight="bold" x="757" y="245">A_PidIssuerTrustsWb</text>
<text font-family="Liberation Sans, Arial, sans-serif" font-size="12px" x="757" y="263">PID issuer trusts WB to issue</text>
<text font-family="Liberation Sans, Arial, sans-serif" font-size="12px" x="757" y="276">WUA only to wallets</text>
<text font-family="Liberation Sans, Arial, sans-serif" font-size="12px" x="757" y="289">implementing Sole Control</text>
<text font-family="Liberation Sans, Arial, sans-serif" font-size="12px" font-weight="bold" x="948" y="311">A</text>
</g>
<g class="gsn_module_sole_control_main gsnelem gsngoal" id="node_g_wbenforcessolecontrol">
<title>G_WbEnforcesSoleControl</title>
<path class="border" d="M397,356 L575,356 L575,426 L397,426 z" fill-opacity="0" stroke="black" stroke-width="1"/>
<text font-family="Liberation Sans, Arial, sans-serif" font-size="12px" font-weight="bold" x="404" y="376">G_WbEnforcesSoleControl</text>
<text font-family="Liberation Sans, Arial, sans-serif" font-size="12px" x="404" y="394">WB enforces that the User has</text>
<text font-family="Liberation Sans, Arial, sans-serif" font-size="12px" x="404" y="407">sole control over all</text>
<text font-family="Liberation Sans, Arial, sans-serif" font-size="12px" x="404" y="420">attestations managed in Wallet</text>
</g>
<g class="gsn_module_sole_control_main gsnelem gsngoal gsn_undeveloped" id="node_g_wbissueswua">
<title>G_WbIssuesWua</title>
<path class="border" d="M615,366 L767,366 L767,416 L615,416 z" fill-opacity="0" stroke="black" stroke-width="1"/>
<text font-family="Liberation Sans, Arial, sans-serif" font-size="12px" font-weight="bold" x="622" y="386">G_WbIssuesWua</text>
<text font-family="Liberation Sans, Arial, sans-serif" font-size="12px" x="622" y="404">WB issues WUA to Wallet</text>
<path d="M691,416 l5,5 l-5,5 l-5,-5 z" fill-opacity="0" stroke="black" stroke-width="1"/>
</g>
<g class="gsn_module_sole_control_main gsnelem gsnctxt" id="node_c_attestationdefinition">
<title>C_AttestationDefinition</title>
<path class="border" d="M54,489 L228,489 C238,489,238,547,228,547 L54,547 C44,547,44,489,54,489" fill-opacity="0" stroke="black" stroke-width="1"/>
<text font-family="Liberation Sans, Arial, sans-serif" font-size="12px" font-weight="bold" x="61" y="509">C_AttestationDefinition</text>
<text font-family="Liberation Sans, Arial, sans-serif" font-size="12px" x="61" y="527">Attestation consists of PrivKey</text>
<text font-family="Liberation Sans, Arial, sans-serif" font-size="12px" x="61" y="540">and Attestation Data</text>
</g>
<g class="gsn_module_sole_control_main gsnelem gsngoal" id="node_g_privkeyexclusivecustody">
<title>G_PrivKeyExclusiveCustody</title>
<path class="border" d="M278,483 L466,483 L466,553 L278,553 z" fill-opacity="0" stroke="black" stroke-width="1"/>
<text font-family="Liberation Sans, Arial, sans-serif" font-size="12px" font-weight="bold" x="285" y="503">G_PrivKeyExclusiveCustody</text>
<text font-family="Liberation Sans, Arial, sans-serif" font-size="12px" x="285" y="521">PrivKey remains under exclusive</text>
<text font-family="Liberation Sans, Arial, sans-serif" font-size="12px" x="285" y="534">custody of WB and is never</text>
<text font-family="Liberation Sans, Arial, sans-serif" font-size="12px" x="285" y="547">exposed</text>
</g>
<g class="gsn_module_sole_control_main gsnelem gsnasmp" id="node_a_wbistrusted">
<title>A_WbIsTrusted</title>
<path class="border" d="M506,518 a102,50,0,1,0,205,0 a102,50,0,1,0,-205,0 z" fill-opacity="0" stroke="black" stroke-width="1"/>
<text font-family="Liberation Sans, Arial, sans-serif" font-size="12px" font-weight="bold" x="542" y="497">A_WbIsTrusted</text>
<text font-family="Liberation Sans, Arial, sans-serif" font-size="12px" x="542" y="515">WB is trusted by Issuers,</text>
<text font-family="Liberation Sans, Arial, sans-serif" font-size="12px" x="542" y="528">Verifiers, Wallets to not</text>
<text font-family="Liberation Sans, Arial, sans-serif" font-size="12px" x="542" y="541">obtain Attestation Data</text>
<text font-family="Liberation Sans, Arial, sans-serif" font-size="12px" font-weight="bold" x="705" y="563">A</text>
</g>
<a href="sole-control-2fa.gsn.svg#node_g_privkeyrequires2fa">
<g class="gsn_module_sole_control_2fa gsnelem gsnawaygoal" id="node_g_privkeyrequires2fa">
<title>G_PrivKeyRequires2fa</title>
<path class="border" d="M750,543 V466 H938 V543" fill-opacity="0" stroke="black" stroke-width="1"/>
<text font-family="Liberation Sans, Arial, sans-serif" font-size="12px" font-weight="bold" x="757" y="486">G_PrivKeyRequires2fa</text>
<text font-family="Liberation Sans, Arial, sans-serif" font-size="12px" x="757" y="504">WB allows usage of PrivKey only</text>
<text font-family="Liberation Sans, Arial, sans-serif" font-size="12px" x="757" y="517">after 2FA authentication of</text>
<text font-family="Liberation Sans, Arial, sans-serif" font-size="12px" x="757" y="530">User</text>
<a href="sole-control-2fa.gsn.svg#node_g_privkeyrequires2fa">
<path class="border" d="M750,543 H938 v27 H750 z" fill-opacity="0" stroke="black" stroke-width="1"/>
<text font-family="Liberation Sans, Arial, sans-serif" font-size="12px" font-weight="bold" x="784" y="563">sole_control_2fa</text>
</a>
<use href="#module_icon" x="757" y="550"/>
</g>
</a>
<g class="gsn_module_sole_control_main gsnelem gsnsltn" id="node_sn_walletstoresattestationdata">
<title>Sn_WalletStoresAttestationData</title>
<path class="border" d="M20,719 a109,109,0,1,0,218,0 a109,109,0,1,0,-218,0 z" fill-opacity="0" stroke="black" stroke-width="1"/>
<text font-family="Liberation Sans, Arial, sans-serif" font-size="12px" font-weight="bold" x="38" y="698">Sn_WalletStoresAttestationData</text>
<text font-family="Liberation Sans, Arial, sans-serif" font-size="12px" x="38" y="716">Wallet stores and maintains</text>
<text font-family="Liberation Sans, Arial, sans-serif" font-size="12px" x="38" y="729">Attestation Data but not</text>
<text font-family="Liberation Sans, Arial, sans-serif" font-size="12px" x="38" y="742">PrivKey</text>
</g>
<g class="gsn_module_sole_control_main gsnelem gsnstgy" id="node_s_ensureprivkeysecure">
<title>S_EnsurePrivKeySecure</title>
<path class="border" d="M285,690 L473,690 L459,748 L271,748 z" fill-opacity="0" stroke="black" stroke-width="1"/>
<text font-family="Liberation Sans, Arial, sans-serif" font-size="12px" font-weight="bold" x="292" y="710">S_EnsurePrivKeySecure</text>
<text font-family="Liberation Sans, Arial, sans-serif" font-size="12px" x="289" y="728">Ensure secure generation,</text>
<text font-family="Liberation Sans, Arial, sans-serif" font-size="12px" x="286" y="741">storage, and usage of PrivKey</text>
</g>
<g class="gsn_module_sole_control_main gsnelem gsnasmp" id="node_a_wbtrustshsmvendor">
<title>A_WbTrustsHsmVendor</title>
<path class="border" d="M506,719 a112,41,0,1,0,224,0 a112,41,0,1,0,-224,0 z" fill-opacity="0" stroke="black" stroke-width="1"/>
<text font-family="Liberation Sans, Arial, sans-serif" font-size="12px" font-weight="bold" x="546" y="704">A_WbTrustsHsmVendor</text>
<text font-family="Liberation Sans, Arial, sans-serif" font-size="12px" x="546" y="722">WB trusts HSM vendor and</text>
<text font-family="Liberation Sans, Arial, sans-serif" font-size="12px" x="546" y="735">certification</text>
<text font-family="Liberation Sans, Arial, sans-serif" font-size="12px" font-weight="bold" x="725" y="755">A</text>
</g>
<g class="gsn_module_sole_control_main gsnelem gsngoal" id="node_g_privkeycannotbeextracted">
<title>G_PrivKeyCannotBeExtracted</title>
<path class="border" d="M29,868 L213,868 L213,926 L29,926 z" fill-opacity="0" stroke="black" stroke-width="1"/>
<text font-family="Liberation Sans, Arial, sans-serif" font-size="12px" font-weight="bold" x="36" y="888">G_PrivKeyCannotBeExtracted</text>
<text font-family="Liberation Sans, Arial, sans-serif" font-size="12px" x="36" y="906">PrivKey cannot be extracted or</text>
<text font-family="Liberation Sans, Arial, sans-serif" font-size="12px" x="36" y="919">copied from HSM</text>
</g>
<g class="gsn_module_sole_control_main gsnelem gsngoal" id="node_g_privkeyinhsm">
<title>G_PrivKeyInHsm</title>
<path class="border" d="M268,868 L448,868 L448,926 L268,926 z" fill-opacity="0" stroke="black" stroke-width="1"/>
<text font-family="Liberation Sans, Arial, sans-serif" font-size="12px" font-weight="bold" x="275" y="888">G_PrivKeyInHsm</text>
<text font-family="Liberation Sans, Arial, sans-serif" font-size="12px" x="275" y="906">PrivKey is generated inside a</text>
<text font-family="Liberation Sans, Arial, sans-serif" font-size="12px" x="275" y="919">certified HSM controlled by WB</text>
</g>
<g class="gsn_module_sole_control_main gsnelem gsnsltn" id="node_sn_hsmenforcesnonexport">
<title>Sn_HsmEnforcesNonExport</title>
<path class="border" d="M20,1067 a101,101,0,1,0,202,0 a101,101,0,1,0,-202,0 z" fill-opacity="0" stroke="black" stroke-width="1"/>
<text font-family="Liberation Sans, Arial, sans-serif" font-size="12px" font-weight="bold" x="36" y="1052">Sn_HsmEnforcesNonExport</text>
<text font-family="Liberation Sans, Arial, sans-serif" font-size="12px" x="36" y="1070">HSM enforces non-export policy</text>
<text font-family="Liberation Sans, Arial, sans-serif" font-size="12px" x="36" y="1083">for PrivKey</text>
</g>
<g class="gsn_module_sole_control_main gsnelem gsnsltn" id="node_sn_wbuseshsmforprivkey">
<title>Sn_WbUsesHsmForPrivKey</title>
<path class="border" d="M262,1067 a96,96,0,1,0,192,0 a96,96,0,1,0,-192,0 z" fill-opacity="0" stroke="black" stroke-width="1"/>
<text font-family="Liberation Sans, Arial, sans-serif" font-size="12px" font-weight="bold" x="279" y="1052">Sn_WbUsesHsmForPrivKey</text>
<text font-family="Liberation Sans, Arial, sans-serif" font-size="12px" x="279" y="1070">WB uses certified HSM to</text>
<text font-family="Liberation Sans, Arial, sans-serif" font-size="12px" x="279" y="1083">generate &amp; protect PrivKey</text>
</g>
<path class="gsnedge gsninspby" d="M588,176 C588,206,588,201,588,221" fill-opacity="0" marker-end="url(#supportedby_arrow)" stroke="black" stroke-width="1"/>
<path class="gsnedge gsninspby" d="M121,926 C121,956,121,936,121,956" fill-opacity="0" marker-end="url(#supportedby_arrow)" stroke="black" stroke-width="1"/>
<path class="gsnedge gsninctxt" d="M466,518 C496,518,476,518,496,518" fill-opacity="0" marker-end="url(#incontextof_arrow)" stroke="black" stroke-width="1"/>
<path class="gsnedge gsninctxt" d="M278,518 C248,518,268,518,248,518" fill-opacity="0" marker-end="url(#incontextof_arrow)" stroke="black" stroke-width="1"/>
<path class="gsnedge gsninspby" d="M372,553 C372,583,372,660,372,680" fill-opacity="0" marker-end="url(#supportedby_arrow)" stroke="black" stroke-width="1"/>
<path class="gsnedge gsninspby" d="M358,926 C358,956,358,941,358,961" fill-opacity="0" marker-end="url(#supportedby_arrow)" stroke="black" stroke-width="1"/>
<path class="gsnedge gsninctxt" d="M675,266 C705,266,685,266,705,266" fill-opacity="0" marker-end="url(#incontextof_arrow)" stroke="black" stroke-width="1"/>
<path class="gsnedge gsninspby" d="M588,301 C588,331,486,326,486,346" fill-opacity="0" marker-end="url(#supportedby_arrow)" stroke="black" stroke-width="1"/>
<path class="gsnedge gsninspby" d="M588,301 C588,331,691,336,691,356" fill-opacity="0" marker-end="url(#supportedby_arrow)" stroke="black" stroke-width="1"/>
<path class="gsnedge gsninspby" d="M486,426 C486,456,372,453,372,473" fill-opacity="0" marker-end="url(#supportedby_arrow)" stroke="black" stroke-width="1"/>
<path class="gsnedge gsninspby" d="M486,426 C486,456,844,436,844,456" fill-opacity="0" marker-end="url(#supportedby_arrow)" stroke="black" stroke-width="1"/>
<path class="gsnedge gsninspby" d="M486,426 C486,456,258,423,258,518 S129,580,129,600" fill-opacity="0" marker-end="url(#supportedby_arrow)" stroke="black" stroke-width="1"/>
<path class="gsnedge gsninctxt" d="M466,719 C496,719,476,719,496,719" fill-opacity="0" marker-end="url(#incontextof_arrow)" stroke="black" stroke-width="1"/>
<path class="gsnedge gsninspby" d="M372,748 C372,778,121,838,121,858" fill-opacity="0" marker-end="url(#supportedby_arrow)" stroke="black" stroke-width="1"/>
<path class="gsnedge gsninspby" d="M372,748 C372,778,358,838,358,858" fill-opacity="0" marker-end="url(#supportedby_arrow)" stroke="black" stroke-width="1"/>
</svg>