<?xml version="1.0" encoding="UTF-8"?>
<!-- Generator: Adobe Illustrator 16.0.3, SVG Export Plug-In . SVG Version: 6.00 Build 0)  -->
<!DOCTYPE svg PUBLIC "-//W3C//DTD SVG 1.1//EN" "http://www.w3.org/Graphics/SVG/1.1/DTD/svg11.dtd">
<svg version="1.1" id="Layer_1" xmlns:xl="http://www.w3.org/1999/xlink" xmlns:dc="http://purl.org/dc/elements/1.1/" xmlns="http://www.w3.org/2000/svg" xmlns:xlink="http://www.w3.org/1999/xlink" x="0px" y="0px" width="187px" height="634px" viewBox="0 0 187 634" xml:space="preserve">
   <!-- enable-background="new 0 0 187 634"  -->
<title>Canvas 1</title>
<g>
	<title>Layer 1</title>
	<path fill="#ec0000" d="M0,596.602l55.879-55.882L0,484.834l37.257-37.257l55.885,55.886l55.885-55.886l37.257,37.257   l-55.885,55.887l55.885,55.882l-37.257,37.256l-55.885-55.881l-55.885,55.881L0,596.602z"/>
	<path fill="#ec0000" d="M0.005,149.171l55.885-55.888L0.005,37.394L37.257,0.141l55.89,55.886l55.885-55.886l37.257,37.253   l-55.891,55.889l55.891,55.888l-37.257,37.254l-55.885-55.887l-55.879,55.887L0.005,149.171z"/>
	<path fill="#ec0000" d="M0.005,373.079l55.885-55.883L0.005,261.309l37.259-37.259l55.883,55.887l55.885-55.887l37.257,37.259   l-55.883,55.887l55.883,55.883l-37.257,37.257l-55.885-55.883l-55.883,55.883L0.005,373.079z"/>
</g>
</svg>