<svg width="132" height="132" viewBox="0 0 132 132" fill="none" xmlns="http://www.w3.org/2000/svg">
<path fill-rule="evenodd" clip-rule="evenodd" d="M66 131.999C102.451 131.999 132 102.45 132 65.9994C132 29.549 102.451 0 66 0C29.5492 0 0 29.549 0 65.9994C0 102.45 29.5492 131.999 66 131.999ZM66.0433 78.5754H67.5744V74.3147H66.0433V78.5754ZM72.9422 59.7646H74.4733V55.5039H72.9422V59.7646ZM45.1882 52.5691C45.1882 52.41 45.9801 52.41 46.1033 52.41V52.4277C46.8076 52.4277 47.1748 52.515 47.501 52.5927C47.7618 52.6547 47.9964 52.7105 48.356 52.7105C49.0072 52.7105 49.6232 52.4277 49.7464 51.915C49.7816 51.7735 49.8872 51.7205 49.94 51.915C50.2568 53.0464 49.4472 53.5768 48.6728 53.5768C48.2317 53.5768 47.8919 53.4149 47.5004 53.2284C47.1264 53.0502 46.7052 52.8495 46.1033 52.7459C45.9015 52.7132 45.7237 52.7023 45.5799 52.6934C45.3349 52.6784 45.1882 52.6694 45.1882 52.5691ZM37.686 56.6881C37.681 56.6813 37.6768 56.6755 37.6733 56.6707L37.6381 56.7061C36.6173 57.2895 35.7374 56.5293 35.7374 55.8575C35.7374 55.7514 35.7902 55.7691 35.843 55.7868C36.8109 56.2641 37.3213 55.221 37.0925 54.1602C37.0822 54.1114 37.069 54.0552 37.0544 53.9925C36.8937 53.3066 36.5504 51.8408 37.7437 50.6421C39.0108 51.3846 39.8732 50.1647 39.662 49.5813C39.6092 49.4222 39.5036 49.4045 39.5036 49.599C39.5036 50.0056 39.0988 50.3061 38.7996 50.3061C38.2893 50.3061 37.3389 49.7227 37.2685 48.8388C38.5885 47.9725 40.8412 48.3261 41.2811 49.9702C41.3339 50.1824 41.5627 50.1647 41.5627 49.9526C41.5618 49.9453 41.5608 49.9358 41.5596 49.9243C41.5373 49.7123 41.4425 48.8133 40.5244 48.3437C39.662 47.9018 39.9788 47.2476 40.2076 47.0178C40.2956 46.9117 40.4716 46.9294 40.4188 47.0355C40.0844 47.6189 40.806 47.8841 41.8091 47.7603C43.921 47.4775 44.625 48.2553 44.7306 48.8034C45.1882 48.9272 46.9833 49.9349 46.9833 50.3061C46.9833 50.4122 46.8777 50.6774 46.7017 50.7658C46.7017 50.7658 46.7545 51.5437 46.1913 52.0387C43.9386 50.6774 43.3227 51.9503 43.5514 52.852C43.5514 52.852 43.9386 53.1879 45.4522 53.1879C45.4522 53.1879 45.3818 53.7359 45.2586 53.8951C45.2586 53.8951 45.6106 54.3194 45.3642 54.726C45.3642 54.726 44.5898 54.1426 43.2523 54.1956C43.2523 54.1956 42.3899 55.5039 45.5754 56.1227C48.7784 56.7414 49.7816 59.7646 49.7816 61.4265C49.7816 61.4972 49.7464 61.5325 49.676 61.5325C48.418 61.2918 47.493 61.8035 46.49 62.3583C45.4304 62.9444 44.2838 63.5786 42.5659 63.4242C42.8475 62.6287 42.5307 61.7977 42.5307 61.7977C42.2667 62.5049 41.6331 62.9646 41.1755 63.2121C39.9964 62.9469 39.2044 62.3635 39.0284 62.0276C39.0284 62.0276 40.2956 60.9668 39.4684 59.0751C39.4684 59.0751 38.6764 60.348 37.0397 59.6585C36.9165 59.5878 36.9341 59.4994 37.0397 59.4641C39.2026 58.7571 37.883 56.9568 37.686 56.6881ZM44.8538 50.0586C44.2378 50.7481 43.2523 50.589 43.0059 49.4575C44.2554 49.3868 44.801 49.5106 44.8538 50.0586ZM82.305 51.8973C82.4282 52.41 83.0442 52.6929 83.6954 52.6929V52.6752C84.055 52.6752 84.2896 52.6194 84.5504 52.5573C84.8766 52.4797 85.2438 52.3923 85.9481 52.3923C85.956 52.3923 85.9668 52.3922 85.98 52.3921C86.1705 52.3908 86.8632 52.3861 86.8632 52.5514C86.8632 52.6621 86.7183 52.6689 86.4761 52.6801C86.3314 52.6868 86.152 52.6952 85.9481 52.7282C85.3462 52.8319 84.925 53.0325 84.551 53.2107C84.1594 53.3973 83.8196 53.5592 83.3786 53.5592C82.6042 53.5592 81.7946 53.0288 82.1114 51.8973C82.1642 51.7205 82.2698 51.7735 82.305 51.8973ZM96.1908 55.7514C96.2436 55.7337 96.2964 55.716 96.2964 55.8221L96.2612 55.7868C96.2612 56.4586 95.3989 57.2188 94.3605 56.6354C94.357 56.6401 94.3528 56.646 94.3478 56.6527C94.1508 56.9214 92.8312 58.7217 94.9941 59.4287C95.0997 59.4641 95.1349 59.5524 94.9941 59.6232C93.3573 60.3127 92.5654 59.0397 92.5654 59.0397C91.7382 60.9491 93.0054 61.9922 93.0054 61.9922C92.8294 62.3458 92.055 62.9115 90.8582 63.1767C90.4007 62.9469 89.7671 62.4695 89.5031 61.7624C89.5031 61.7624 89.1687 62.5933 89.4679 63.3889C87.7427 63.553 86.5937 62.9172 85.5303 62.3287C84.5325 61.7766 83.6101 61.2661 82.3578 61.4972C82.2874 61.5149 82.2522 61.4795 82.2522 61.3911C82.2522 59.7292 83.273 56.7061 86.4584 56.0873C89.6439 55.4685 88.7815 54.1602 88.7815 54.1602C87.444 54.1072 86.6696 54.6906 86.6696 54.6906C86.4232 54.3017 86.7752 53.8597 86.7752 53.8597C86.652 53.7006 86.5816 53.1525 86.5816 53.1525C88.0952 53.1348 88.4999 52.8166 88.4999 52.8166C88.7287 51.915 88.0952 50.6421 85.8601 52.0034C85.3145 51.4907 85.3497 50.7305 85.3497 50.7305C85.1737 50.6597 85.0681 50.3769 85.0681 50.2708C85.0681 49.8995 86.8632 48.8918 87.3208 48.768C87.444 48.2377 88.1304 47.4421 90.2423 47.725C91.2278 47.8487 91.9494 47.5835 91.615 47.0001C91.5446 46.9117 91.7382 46.894 91.8262 46.9824C92.0726 47.2123 92.3894 47.8664 91.5094 48.3084C90.5415 48.8034 90.4711 49.7758 90.4711 49.9172C90.4535 50.1294 90.6999 50.147 90.7527 49.9349C91.1926 48.2907 93.4453 47.9371 94.7653 48.8034C94.6949 49.6874 93.7445 50.2708 93.2341 50.2708C92.935 50.2708 92.5302 49.9702 92.5302 49.5636C92.5302 49.3691 92.4246 49.3868 92.3718 49.5459C92.143 50.1294 93.0054 51.3492 94.2901 50.6067C95.4763 51.7983 95.1441 53.2392 94.9823 53.9409C94.9665 54.0096 94.9523 54.0713 94.9413 54.1249C94.7125 55.2033 95.2229 56.2287 96.1908 55.7514ZM89.0455 49.4752C88.7991 50.6067 87.8136 50.7658 87.1976 50.0763C87.2504 49.5283 87.7784 49.4045 89.0455 49.4752ZM65.6561 31.2655C65.5681 31.1241 65.4449 30.8766 65.4449 30.5937C65.4449 30.1163 65.7617 29.8688 66.0257 29.8688C66.2897 29.8688 66.6065 30.1163 66.6065 30.5937C66.6065 30.8766 66.5009 31.1241 66.3953 31.2655C66.2017 31.5484 66.2369 31.7075 66.3249 31.7959C66.4129 31.8843 66.5713 31.9196 66.8529 31.7252C66.9937 31.6368 67.2401 31.513 67.5216 31.513C67.9968 31.513 68.2432 31.8312 68.2432 32.0964C68.2432 32.3616 67.9968 32.6798 67.5216 32.6798C67.2401 32.6798 66.9937 32.5738 66.8529 32.4677C66.5713 32.2732 66.4129 32.3086 66.3249 32.397C66.2396 32.4827 66.3693 33.4161 66.4736 34.1657L66.4833 34.2356C67.2752 34.3947 67.6624 35.0489 67.6624 35.4201C67.6624 36.3925 66.6241 36.9582 66.0257 37.2765L66.0097 37.2677C65.3922 36.9311 64.389 36.3841 64.389 35.4201C64.389 35.0489 64.7762 34.4124 65.5681 34.2356C65.6913 33.4577 65.8145 32.4854 65.7265 32.397C65.6385 32.3086 65.4801 32.2732 65.1985 32.4677C65.0577 32.5561 64.8113 32.6798 64.5298 32.6798C64.0546 32.6798 63.8082 32.3616 63.8082 32.0964C63.8082 31.8312 64.0546 31.513 64.5298 31.513C64.8113 31.513 65.0577 31.6191 65.1985 31.7252C65.4801 31.9196 65.6385 31.8843 65.7265 31.7959C65.8145 31.7075 65.8497 31.5484 65.6561 31.2655ZM64.8465 38.956C64.8465 38.3019 65.3745 37.7715 66.0257 37.7715C66.6769 37.7715 67.2048 38.3019 67.2048 38.956C67.2048 39.6101 66.6769 40.1405 66.0257 40.1405C65.3745 40.1405 64.8465 39.6101 64.8465 38.956ZM73.3646 50.0056C73.3646 50.0056 70.728 49.1051 66.0345 49.104C61.3586 49.1051 58.7044 50.0056 58.7044 50.0056C58.7035 49.943 58.7026 49.881 58.7017 49.8198C58.6692 47.5503 58.6512 46.298 57.3317 46.4874C57.7076 45.4714 57.0639 44.7709 56.3404 43.9836C55.6413 43.2229 54.8678 42.3811 54.8678 41.0952C54.8678 39.3803 56.0821 39.1858 56.4341 39.1858C56.9835 39.1858 57.2042 39.3725 57.4159 39.5516C57.6111 39.7167 57.7987 39.8753 58.2292 39.8753C58.2534 39.8753 58.2785 39.8735 58.3029 39.8717C58.3848 39.8656 58.458 39.8602 58.458 39.9284C58.458 40.2289 58.2116 40.7416 57.7892 40.7416C57.4845 40.7416 57.3395 40.5759 57.2064 40.4239C57.0936 40.295 56.9894 40.1759 56.8037 40.1759C56.6277 40.1759 56.3637 40.335 56.3637 40.9007C56.3637 42.0145 57.0853 43.2344 57.9476 44.1891C58.1412 43.9239 58.4052 43.7471 58.722 43.7471C59.2324 43.7471 59.6724 44.2775 59.6724 44.9316C59.6724 45.1791 59.6372 45.3383 59.5492 45.5504C59.8308 45.7095 60.0771 45.7979 60.2707 45.7979C60.6579 45.7979 61.2387 45.6388 61.2387 44.7902C61.2387 43.901 60.6826 43.0626 60.0933 42.1739C59.4288 41.1721 58.722 40.1064 58.722 38.8323C58.722 37.6831 59.4964 36.5516 61.0803 36.5516C61.9646 36.5516 62.3058 36.969 62.6348 37.3715C62.9409 37.7459 63.2364 38.1074 63.949 38.1074C64.0194 38.1074 64.0722 38.1428 64.0722 38.1958C64.0722 38.3019 63.8082 39.1682 63.0514 39.1682C62.6237 39.1682 62.356 38.79 62.0974 38.4248C61.8559 38.0837 61.6224 37.7538 61.2739 37.7538C61.0099 37.7538 60.6051 37.9129 60.6051 38.8676C60.6051 39.6101 60.9747 40.8123 61.5027 41.9792C61.6963 41.7847 61.9427 41.6433 62.2419 41.6433C62.8754 41.6433 63.333 42.2444 63.333 42.9869C63.333 43.4466 63.157 43.8885 62.8402 44.1891C63.2098 44.6664 63.597 45.0554 64.1074 45.0554C65.1105 45.0554 65.5681 44.472 65.5681 43.8355C65.5681 43.5378 65.3227 43.3199 65.0494 43.0773C64.706 42.7724 64.3186 42.4284 64.3186 41.8377C64.3186 41.1129 64.7761 40.7063 65.2337 40.7063C65.605 40.7063 65.8364 40.8869 65.9505 40.976C65.9879 41.0051 66.0127 41.0245 66.0257 41.0245C66.0387 41.0245 66.0635 41.0051 66.1009 40.976C66.215 40.8869 66.4464 40.7063 66.8177 40.7063C67.2576 40.7063 67.7328 41.1129 67.7328 41.8377C67.7328 42.425 67.3498 42.763 67.0079 43.0648C66.7322 43.308 66.4833 43.5277 66.4833 43.8355C66.4833 44.472 66.9233 45.0554 67.944 45.0554C68.4544 45.0554 68.8416 44.6664 69.2112 44.1891C68.8944 43.9062 68.7184 43.4466 68.7184 42.9869C68.7184 42.2621 69.176 41.6433 69.8095 41.6433C70.0911 41.6433 70.3551 41.7847 70.5487 41.9792C71.0767 40.83 71.4463 39.6101 71.4463 38.8676C71.4463 37.9129 71.0415 37.7538 70.7775 37.7538C70.4163 37.7538 70.177 38.0915 69.9322 38.4369C69.6761 38.7983 69.414 39.1682 69 39.1682C68.2432 39.1682 67.9792 38.3019 67.9792 38.1958C67.9792 38.1251 68.032 38.1074 68.1024 38.1074C68.815 38.1074 69.1105 37.7459 69.4166 37.3715C69.7456 36.969 70.0868 36.5516 70.9711 36.5516C72.5726 36.5516 73.3294 37.6831 73.3294 38.8323C73.3294 40.1064 72.6226 41.1721 71.9581 42.1739C71.3688 43.0626 70.8127 43.901 70.8127 44.7902C70.8127 45.6388 71.3935 45.7979 71.7807 45.7979C71.9566 45.7979 72.2206 45.7095 72.5022 45.5504C72.4142 45.3559 72.379 45.1791 72.379 44.9316C72.379 44.2775 72.819 43.7471 73.3294 43.7471C73.6638 43.7471 73.9278 43.9239 74.1214 44.1891C74.9837 43.2344 75.7053 42.0145 75.7053 40.9007C75.7053 40.3173 75.4413 40.1759 75.2653 40.1759C75.0693 40.1759 74.9642 40.2977 74.8516 40.4283C74.7216 40.5791 74.5816 40.7416 74.2797 40.7416C73.8574 40.7416 73.611 40.2289 73.611 39.9284C73.611 39.8602 73.6842 39.8656 73.7661 39.8717C73.7905 39.8735 73.8156 39.8753 73.8398 39.8753C74.2703 39.8753 74.4579 39.7167 74.6531 39.5516C74.8648 39.3725 75.0855 39.1858 75.6349 39.1858C75.9869 39.1858 77.2012 39.3803 77.2012 41.0952C77.2012 42.3699 76.4306 43.2108 75.7326 43.9725C75.0075 44.7637 74.3607 45.4695 74.7373 46.4874C73.3911 46.2967 73.382 47.5682 73.3656 49.8684C73.3653 49.9137 73.3649 49.9595 73.3646 50.0056ZM57.3493 52.6377C57.3726 52.6325 57.3961 52.6273 57.4197 52.6221H57.3493V52.6377ZM54.815 53.294C55.2123 53.1725 56.1015 52.9147 57.3493 52.6377V56.105H58.8804V52.3216C60.8339 51.968 63.2802 51.6498 65.9553 51.6498C71.4463 51.6498 76.0749 52.9581 77.166 53.294C77.1484 52.7282 76.9372 52.2155 76.4269 52.0918C76.3565 52.0741 76.3565 51.9857 76.4093 51.9503C77.5356 51.1901 78.1516 52.6398 78.1692 52.6929C78.574 52.6575 79.1899 52.7813 79.1899 53.3293C79.1899 54.9735 82.921 55.8751 83.7833 56.0166C82.2522 56.6177 81.6186 58.5447 81.6186 58.5447C80.5099 57.4309 79.2075 56.4586 78.9259 56.4586C78.6444 56.4586 78.5212 56.8298 78.5036 57.042C78.486 57.1127 78.4332 57.1481 78.3804 57.0773C77.9148 56.3612 78.0145 56.0921 78.0929 55.8805C78.1093 55.8361 78.1248 55.7943 78.134 55.7514C78.1692 55.5569 78.1164 54.7967 77.2716 54.8851V65.8286L77.7116 65.917C77.8176 65.9364 78.3403 65.5371 79.0921 64.9628C79.7135 64.4882 80.4912 63.8941 81.3195 63.3182C82.9934 62.154 83.9607 62.6904 85.7024 63.656C85.8651 63.7463 86.0346 63.8402 86.212 63.9369C88.9399 65.422 91.6854 64.0784 91.6854 64.0784C94.0437 65.7756 94.8357 70.6374 94.8357 70.6374C95.2933 70.8319 96.0676 71.044 96.8068 71.044C98.5843 71.044 98.9187 69.9656 98.9187 69.3114C98.9187 67.9192 98.0464 66.9272 97.1768 65.9385C96.3129 64.956 95.4517 63.9767 95.4517 62.611C95.4517 61.9568 95.7508 59.2519 99.0771 59.2519H102.051C103.189 59.2519 103.546 58.498 103.733 58.1042C103.748 58.0716 103.763 58.0414 103.776 58.0144C103.829 57.8906 103.97 57.9613 103.917 58.0674C103.864 58.1816 103.899 58.3264 103.947 58.5279C103.995 58.7317 104.058 58.9935 104.058 59.3403C104.058 60.4541 103.407 61.1259 102.192 61.1259C101.647 61.1259 101.119 60.9668 100.96 60.8607C100.837 60.79 100.784 60.9138 100.837 60.9668C101.365 61.5856 101.4 62.7347 101.189 63.0176C101.136 63.0883 101.066 63.0706 101.066 63.0176C100.767 61.8508 99.6755 60.737 98.1971 60.737C96.402 60.737 96.402 62.2751 96.402 62.6463C96.402 63.6673 97.219 64.5545 98.1041 65.5158C99.1502 66.6518 100.291 67.8912 100.291 69.5766C100.291 72.6882 97.0356 73.36 95.1349 72.865C95.2581 75.9766 98.7955 77.0373 98.9011 74.8097C98.9011 74.7037 98.9891 74.6683 99.0419 74.8097C99.4819 75.9058 99.3059 76.8782 97.9332 77.1788C97.8452 77.2141 97.8803 77.2672 97.9683 77.3202C99.1121 78.042 98.7897 80.5435 98.6097 81.9408C98.5736 82.2205 98.5433 82.4559 98.5315 82.624C98.4259 84.0737 99.8691 83.8969 99.9923 83.8615C100.045 83.8439 100.098 83.8792 100.01 83.9853C98.9891 85.2405 97.722 84.0914 97.722 84.0914C96.7716 84.3919 97.37 85.2052 98.0035 85.6295C98.1091 85.7002 98.1091 85.7709 98.0035 85.7709C97.8627 85.7886 96.3844 85.9123 96.1204 84.7278C95.4693 85.5057 94.5013 85.2229 94.3077 85.1168C94.0261 84.9577 92.6534 84.4626 92.5126 86.0184C92.4969 86.1126 92.4536 86.0674 92.4071 86.019C92.4012 86.0129 92.3953 86.0067 92.3894 86.0007C91.351 84.6748 92.4774 83.8615 93.0934 83.7732C93.0406 83.7024 92.2134 82.9953 91.4566 83.9676C91.4038 84.0383 91.351 84.0383 91.351 83.9146C91.263 82.235 92.6182 82.0936 93.4981 82.8185L93.4983 82.8178C93.5517 82.6392 93.8308 81.7047 92.5126 81.74C92.4774 81.74 92.407 81.7047 92.4774 81.6339C93.5136 80.5401 94.357 81.5414 94.5529 81.7739L94.5541 81.7754C94.9531 82.2533 95.874 82.1397 96.1733 82.1028C96.2172 82.0974 96.2477 82.0936 96.2612 82.0936C96.0405 78.6191 94.1366 77.9582 92.4892 77.3863C91.3788 77.0009 90.3849 76.6558 90.1015 75.5169C90.0839 75.3755 89.9959 75.4285 89.9959 75.4815C89.8023 76.171 88.0776 76.2771 87.7608 74.9158C87.7432 74.8274 87.7432 74.7567 87.8136 74.8274C89.2919 76.2948 92.6182 71.6805 88.0776 67.9148C84.2057 64.6971 80.7387 66.4828 79.4187 67.5435C79.3483 68.0032 79.6299 68.1623 79.8059 68.2153C79.8939 68.233 79.9115 68.3037 79.8059 68.3391C79.4363 68.4805 78.9259 68.4452 78.6796 68.0916C77.8348 68.675 78.5564 69.3998 78.8908 69.612C78.9788 69.665 78.9436 69.7357 78.8732 69.7357C78.0988 69.8772 77.4828 69.0816 77.4476 68.6396L77.3244 68.7104V72.0164C77.3244 75.2569 74.7674 76.5666 71.2368 78.3751C69.6436 79.1911 67.8522 80.1087 66.0081 81.3511C64.1721 80.1197 62.3868 79.2068 60.7966 78.3938C57.2498 76.5803 54.6742 75.2633 54.6742 72.0164V68.7104L54.551 68.6396C54.5158 69.0993 53.8822 69.8772 53.1254 69.7357C53.055 69.7181 53.0198 69.665 53.1078 69.612C53.4422 69.4175 54.1462 68.675 53.319 68.0916C53.0726 68.4275 52.5623 68.4805 52.1927 68.3391C52.1047 68.286 52.1223 68.233 52.1927 68.2153C52.3687 68.1623 52.6503 68.0032 52.5799 67.5435C51.2599 66.5004 47.7929 64.7148 43.921 67.9148C39.3804 71.6805 42.7067 76.3125 44.185 74.8274C44.2378 74.7744 44.2378 74.8274 44.2378 74.9158C43.921 76.2594 42.1963 76.171 42.0027 75.4815C42.0027 75.4285 41.9323 75.3755 41.8971 75.5169C41.6137 76.6555 40.6175 77.0007 39.5052 77.386C37.8542 77.9579 35.9477 78.6184 35.7374 82.0936C35.7509 82.0936 35.7814 82.0974 35.8253 82.1028C36.1246 82.1397 37.0455 82.2533 37.4445 81.7754C37.6557 81.5279 38.5005 80.5378 39.5212 81.6339C39.574 81.687 39.5212 81.74 39.486 81.74C38.2456 81.7068 38.4351 82.5323 38.4916 82.7786C38.4953 82.7944 38.4983 82.8078 38.5005 82.8185C39.3804 82.0936 40.7356 82.235 40.6476 83.9146C40.6476 84.056 40.5948 84.0383 40.542 83.9676C39.7852 82.9953 38.958 83.7024 38.9052 83.7732C39.5388 83.8615 40.6476 84.6748 39.6092 86.0007C39.5564 86.0538 39.486 86.1245 39.486 86.0184C39.3628 84.4626 37.9725 84.9753 37.6909 85.1168C37.4973 85.2229 36.5293 85.5057 35.8782 84.7278C35.6312 85.8362 34.321 85.7836 34.0381 85.7723C34.0187 85.7715 34.0041 85.7709 33.995 85.7709C33.9071 85.7709 33.8895 85.7002 33.995 85.6295C34.6462 85.2052 35.227 84.3919 34.2766 84.0914C34.2766 84.0914 33.0095 85.2405 31.9887 83.9853C31.8831 83.8615 31.9535 83.8439 32.0063 83.8615C32.1295 83.8969 33.5727 84.0737 33.4671 82.624C33.4553 82.4559 33.425 82.2205 33.3889 81.9408C33.2089 80.5435 32.8865 78.042 34.0302 77.3202C34.1182 77.2495 34.1534 77.1964 34.0654 77.1788C32.6927 76.8782 32.5167 75.9058 32.9567 74.8097C33.0095 74.686 33.0975 74.7037 33.0975 74.8097C33.2031 77.0373 36.7581 75.9766 36.8637 72.865C34.9806 73.3423 31.7071 72.6528 31.7071 69.5766C31.7071 67.9147 32.8424 66.6759 33.8862 65.5368C34.7745 64.5675 35.5966 63.6704 35.5966 62.6463V62.6357C35.5968 62.2467 35.5974 60.737 33.8015 60.737C32.3231 60.737 31.232 61.8508 30.9328 63.0176C30.9328 63.0706 30.8624 63.0883 30.8096 63.0176C30.5984 62.7524 30.6336 61.5856 31.1616 60.9668C31.2144 60.8961 31.144 60.79 31.0384 60.8607C30.88 60.9668 30.352 61.1259 29.8064 61.1259C28.5921 61.1259 27.9409 60.4541 27.9409 59.3403C27.9409 58.9859 28.0013 58.7203 28.0481 58.5146C28.0924 58.32 28.1245 58.1791 28.0817 58.0674C28.0289 57.9613 28.1521 57.8729 28.2225 58.0144C28.2396 58.047 28.2578 58.0849 28.278 58.1269C28.4656 58.5169 28.819 59.2519 29.9472 59.2519H32.9215C36.2478 59.2519 36.5469 61.9392 36.5469 62.611C36.5469 63.9767 35.6857 64.956 34.8217 65.9385C33.9522 66.9272 33.0799 67.9192 33.0799 69.3114C33.0799 69.9479 33.3967 71.044 35.1918 71.044C35.9134 71.044 36.6877 70.8319 37.1629 70.6374C37.1629 70.6374 37.9725 65.7579 40.3132 64.0784C40.3132 64.0784 43.0587 65.422 45.7866 63.9369C45.9707 63.8366 46.1461 63.7392 46.3142 63.6459C48.0417 62.6866 48.9935 62.1581 50.6615 63.3182C51.4502 63.872 52.1989 64.4425 52.8091 64.9075C53.6013 65.5112 54.16 65.937 54.2694 65.917L54.7094 65.8286V54.8851C53.8646 54.7967 53.8118 55.5569 53.847 55.7514C53.8568 55.8008 53.8746 55.8477 53.8933 55.897C53.9748 56.1123 54.0732 56.3724 53.6006 57.0773C53.5478 57.1304 53.4774 57.1127 53.4774 57.042C53.4598 56.8298 53.3542 56.4586 53.055 56.4586C52.7559 56.4586 51.4711 57.4309 50.3624 58.5447C50.3624 58.5447 49.7288 56.6 48.1976 56.0166C49.06 55.8751 52.7911 54.9735 52.7911 53.3293C52.7911 52.7813 53.407 52.6575 53.8118 52.6929C53.8294 52.6398 54.4278 51.1901 55.5717 51.9503C55.6421 51.9857 55.6245 52.0918 55.5541 52.0918C55.0438 52.1978 54.8326 52.7282 54.815 53.294ZM46.5433 90.4913C46.5433 91.0394 46.8073 91.3046 47.2121 91.4637L47.1945 91.446C47.1945 91.2515 47.8105 89.9256 51.9815 89.9256V91.9056C51.9815 94.1038 49.6471 93.53 46.5514 92.769C44.8916 92.361 43.013 91.8991 41.1579 91.7819C36.7405 91.499 35.5086 92.6305 35.5086 92.6305L36.3181 88.1399C36.3709 87.8924 37.3213 87.2029 40.366 87.2029C43.8586 87.2029 45.6851 87.8405 46.4331 88.1017C46.4729 88.1155 46.5096 88.1283 46.5433 88.1399V90.4913ZM79.9291 89.9609V89.9432L79.9115 89.9609C79.9174 89.9609 79.9232 89.9609 79.9291 89.9609ZM79.9291 89.9609V91.9233C79.9291 94.1106 82.2647 93.5393 85.3617 92.7818C87.0209 92.376 88.8985 91.9167 90.7527 91.7996C95.1701 91.5167 96.402 92.6482 96.402 92.6482L95.5925 88.1576C95.5573 87.9101 94.5893 87.2206 91.5446 87.2206C88.1049 87.2206 86.2813 87.845 85.5042 88.1111C85.4543 88.1281 85.4087 88.1438 85.3673 88.1576V90.509C85.3673 91.0394 85.1033 91.3046 84.6985 91.4813C84.6985 91.2871 84.0843 89.9647 79.9291 89.9609ZM84.3465 89.6604C83.2202 88.3521 74.5261 87.9101 65.9553 87.9101H65.9201C57.3669 87.9101 48.6728 88.3698 47.5289 89.6604C47.4409 89.7488 47.4057 89.572 47.4057 89.572V85.0107C47.4057 83.6848 56.3813 82.9069 65.9377 82.9069C75.4941 82.9069 84.4697 83.6848 84.4697 85.0107V89.572C84.4697 89.6604 84.4345 89.7664 84.3465 89.6604ZM57.4549 66.1822L58.3172 66.412L58.2468 66.4474C58.018 66.6949 58.106 67.0308 58.1412 67.1546C58.1412 67.1546 58.1764 67.1722 58.1764 67.1546C58.2644 67.0308 58.5284 66.6772 59.0212 66.6949C59.0212 66.6949 59.0388 66.7126 59.0212 66.7126C58.8628 66.7833 58.3172 67.1192 58.4932 67.791C58.4932 67.791 58.546 67.8087 58.546 67.791C58.7572 67.4905 59.1444 67.349 59.3028 67.296L59.1444 68.4628C60.0419 68.728 61.0275 68.1269 61.1155 67.1015L60.1123 66.8717C61.2035 66.0761 62.6642 65.5457 64.0194 65.5457C66.1665 65.5457 67.5392 67.8794 67.5392 69.2584C67.5392 69.5943 67.504 70.107 67.24 70.496C66.8353 71.0617 66.5361 70.9379 66.3953 70.7965C66.3425 70.7611 66.3425 70.7788 66.3425 70.8319C66.5185 71.5744 67.4864 71.539 67.6096 71.1678C67.6448 71.0617 67.6976 71.0971 67.6976 71.1324C67.9377 71.9725 68.5518 71.9947 69.2538 72.0202C70.0442 72.0489 70.9461 72.0816 71.5519 73.2893C71.4991 73.3247 70.9359 73.6252 70.6015 73.4131C69.9503 73.0064 69.6159 73.413 69.4928 73.6959C69.4752 73.749 69.4928 73.749 69.528 73.749C70.2319 73.5898 70.5135 74.0495 70.5487 74.1733C70.0207 73.9434 69.2816 74.2086 69.6159 75.128C69.6335 75.181 69.6863 75.181 69.6863 75.128C69.9151 74.4915 70.4607 74.7213 70.5135 74.7567C70.1791 74.9158 69.7391 75.5346 70.5135 76.0473C70.5487 76.065 70.5663 76.0473 70.5663 76.0119C70.4959 75.5523 70.7071 75.2163 71.0415 75.2163C71.0464 75.2163 71.0516 75.2164 71.057 75.2164C71.244 75.2169 71.6991 75.2181 71.9214 74.6683C72.2382 75.2163 72.8718 75.0042 73.171 74.8981C73.2238 74.8628 73.2238 74.8097 73.171 74.8097C72.7662 74.686 72.2382 74.4031 72.6782 74.0849C72.6782 74.0849 73.5406 74.4031 73.8574 73.5722C73.8926 73.5191 73.875 73.4838 73.8222 73.5191C73.8181 73.5205 73.8093 73.5245 73.7964 73.5304C73.6427 73.6003 72.9096 73.9336 72.731 73.1832C72.7095 73.0876 72.6891 72.9812 72.6677 72.8697C72.5664 72.3421 72.4431 71.6996 72.0798 71.539C72.5726 71.3269 72.731 70.9379 72.3614 70.4076C72.3438 70.3722 72.291 70.3192 72.291 70.4076C72.2382 71.6274 69.6863 70.6197 69.6335 68.9048C71.4287 69.3645 73.2062 68.8518 73.2062 67.1192C73.2062 66.0955 72.6226 65.4051 72.1449 64.8402C71.8142 64.4489 71.5343 64.1178 71.5343 63.7778C71.5343 63.1767 72.0446 63.0353 72.291 63.0353C72.9774 63.0353 73.7694 63.8662 73.9102 64.538C73.9102 64.5734 73.9454 64.5734 73.9806 64.538C74.227 64.1844 74.2797 63.6187 74.0686 63.4596C74.0158 63.4065 74.0686 63.3358 74.139 63.3889C74.2973 63.5126 75.6525 63.3889 75.6525 62.4519C75.6525 62.2807 75.627 62.1454 75.6062 62.0348C75.5884 61.9398 75.574 61.8631 75.5821 61.7977C75.5997 61.6917 75.4061 61.6563 75.3533 61.7977L75.348 61.8137C75.2757 62.0328 75.1259 62.4872 74.4733 62.4872C74.2038 62.4872 73.8417 62.4224 73.4639 62.3549C73.0523 62.2813 72.6222 62.2043 72.2734 62.2043C71.0239 62.2043 70.5663 63.159 70.5663 63.8132C70.5663 64.5648 70.9585 65.0039 71.3459 65.4377C71.7239 65.861 72.0974 66.2792 72.0974 66.9778C72.0974 68.0209 70.6367 68.3568 69.5807 67.3667C69.3168 66.1468 69.0704 65.2629 68.384 64.2375C66.6784 64.7937 65.8371 64.3139 65.0793 63.8816C64.6329 63.627 64.2154 63.3889 63.6674 63.3889C63.0069 63.3889 62.2352 64.0291 61.4634 64.6694C60.7955 65.2234 60.1276 65.7776 59.5316 65.917L59.7076 64.6087L59.8484 64.5734L59.8132 63.4773C59.8132 63.4773 59.514 64.1844 59.4788 64.2905C59.4436 64.3612 59.4084 64.3612 59.3732 64.2905C59.25 63.9723 58.9684 63.3358 58.9684 63.3358C58.9684 63.3358 58.9508 64.1844 58.9508 64.3789C58.9508 64.4319 58.8628 64.3966 58.8628 64.3966L58.2116 63.4419C58.2116 63.4419 58.37 64.1844 58.458 64.5911C58.4756 64.6264 58.3876 64.6264 58.3876 64.6264L57.5077 63.7778L57.9652 64.927C57.9828 64.98 57.9476 65.0154 57.8948 64.98C57.7364 64.8739 56.9269 64.3259 56.9269 64.3259C56.9269 64.3259 57.3141 64.8916 57.5956 65.2982C57.6308 65.3513 57.6133 65.3866 57.5429 65.3689C56.9621 65.1568 56.5573 64.9977 56.5573 64.9977C56.5573 64.9977 56.9269 65.3513 57.3317 65.7579C57.3669 65.7933 57.3669 65.8463 57.2789 65.8463H56.3813L57.3845 66.2883L57.4549 66.1822ZM60.5629 74.4608C60.8308 74.558 61.0589 74.6408 61.3091 74.3324L61.3443 74.3677C61.4851 74.9865 62.1363 74.9335 62.3299 74.8981C62.3299 74.8981 62.3475 74.8628 62.3299 74.8628C62.0483 74.686 61.9427 74.4738 61.9427 74.3147C61.9427 73.9081 62.7698 73.4131 63.0162 73.4131C63.1205 73.4131 63.1964 73.4574 63.284 73.5085C63.4033 73.5782 63.5443 73.6606 63.8082 73.6606C64.0018 73.6606 64.2306 73.5722 64.4418 73.3247C64.477 73.2893 64.4594 73.2893 64.4242 73.2893C63.861 73.4307 63.5266 72.8827 63.5266 71.9103C63.5266 70.0689 64.4782 69.7125 66.6152 68.9124L66.7297 68.8695C66.7825 68.8518 66.7825 68.8164 66.7297 68.8164C66.3073 68.9048 65.7265 68.233 66.3073 67.5258C65.9201 67.2606 65.4449 67.0485 65.0753 67.0485C63.5675 67.0485 62.3888 68.544 62.0042 69.032C61.9624 69.0851 61.9299 69.1263 61.9075 69.1523C61.6963 69.3998 61.2563 69.8241 60.9923 69.4529C60.9395 69.3822 60.9395 69.3998 60.9395 69.4529C60.9395 70.1954 61.5379 70.2131 61.7843 70.0717C61.8024 70.0625 61.8112 70.0581 61.8155 70.0608C61.8195 70.0634 61.8195 70.0722 61.8195 70.0893C61.7451 70.7464 62.0852 71.7819 62.1926 72.109C62.2124 72.1692 62.2243 72.2054 62.2243 72.2109C62.1715 72.2816 61.4499 72.9534 60.9571 72.9534C60.8075 72.9534 60.7108 72.8225 60.6038 72.6778C60.4717 72.499 60.324 72.2992 60.042 72.2992C59.8836 72.2992 59.7252 72.37 59.5668 72.5468C59.5492 72.5644 59.5492 72.5998 59.602 72.5998C59.9892 72.6175 60.2179 72.8473 60.1299 73.2009C59.6372 72.7943 58.9332 72.865 58.9332 73.7843C58.9332 73.8197 58.9684 73.8374 58.986 73.802C59.3204 73.307 59.8484 73.6606 59.9012 73.7136C59.5492 73.7666 58.9332 74.1733 59.4788 74.9158C59.4964 74.9512 59.514 74.9512 59.514 74.9158C59.514 74.7567 59.602 74.3501 60.0771 74.3501C60.2577 74.3501 60.4163 74.4076 60.5629 74.4608ZM67.152 56.2111C66.4657 56.1757 66.0081 56.3171 66.0433 56.547C66.3777 56.9005 66.8353 56.8652 67.152 56.2111ZM65.6913 57.8729C65.6209 57.8552 65.0929 57.8022 64.6002 57.9259H64.6178C63.8082 58.1381 63.421 57.8376 63.3506 57.5547C63.333 57.4663 63.2626 57.4663 63.245 57.5547C63.069 58.1911 63.5442 58.6331 63.9666 58.6331C64.2736 58.6331 64.4476 58.527 64.6528 58.4018C64.8828 58.2616 65.1519 58.0974 65.6913 58.032C65.7617 58.0143 65.7617 57.8906 65.6913 57.8729ZM51.3616 80.6791C51.793 81.2234 52.2179 81.0754 52.7071 80.9049C52.9708 80.813 53.2532 80.7146 53.5654 80.7146C54.0054 80.7146 54.5334 80.8561 54.6214 81.74C54.6214 81.7931 54.6566 81.7931 54.7094 81.74C55.6773 80.4141 54.5686 79.6715 53.935 79.5655C54.0758 79.4417 55.0086 78.8583 55.6245 79.7246C55.6597 79.7776 55.7301 79.7599 55.7301 79.6892C55.7301 78.0097 54.4806 77.8859 53.5654 78.6108C53.3894 77.9566 53.8822 77.5323 54.5158 77.5323C54.5862 77.5323 54.6214 77.4793 54.5862 77.4439C53.5853 76.3757 52.8207 77.4571 52.5269 77.8726C52.4901 77.9248 52.4606 77.9664 52.4391 77.992C51.9991 78.5931 50.3976 77.4616 49.7464 76.7898C49.7464 76.7898 51.1543 75.3047 51.1543 73.9434V73.6959C51.1543 73.6606 51.1719 73.6429 51.2071 73.6606C51.3479 73.749 51.5415 73.802 51.7351 73.802C52.0519 73.802 52.6679 73.6959 52.6679 72.5468C52.6679 72.4584 52.6327 72.4584 52.5975 72.5114C52.4215 72.7589 52.2455 72.812 52.1047 72.812C51.6594 72.812 51.0274 72.2333 50.2555 71.5265C49.0443 70.4176 47.4887 68.9932 45.769 68.9932C45.0298 68.9932 43.6394 69.5236 42.9531 70.2838C43.2875 70.4783 43.3579 70.9026 43.3227 71.2031C43.2699 71.6805 42.8827 71.928 42.4955 72.0341C42.4251 72.0341 42.4251 72.1048 42.4955 72.1401C42.5636 72.1663 42.6344 72.1935 42.7074 72.2215C44.1622 72.7801 46.5191 73.6851 47.0889 74.1733C47.7753 74.7744 47.6521 75.9058 47.2473 77.4793C46.8724 78.9342 46.0851 78.7982 45.7479 78.74C45.7368 78.738 45.7262 78.7362 45.7162 78.7345C45.6634 78.7345 45.6634 78.7522 45.681 78.7876C46.0505 79.2472 46.4905 79.4064 46.8777 79.4064C47.3107 79.4064 47.5867 79.2486 47.8153 79.118C47.977 79.0256 48.115 78.9467 48.268 78.9467C48.9016 78.9467 50.2568 79.866 50.2568 80.5732C50.2568 80.9621 49.9576 81.3334 49.5528 81.5809C49.5352 81.5986 49.5352 81.6339 49.5528 81.6339C49.8504 81.6867 51.106 81.792 51.3616 80.6791ZM82.393 81.5809C82.4282 81.5986 82.3754 81.6339 82.3754 81.6339C82.0586 81.687 80.8091 81.7931 80.5627 80.6616C80.1135 81.2285 79.6795 81.0761 79.1865 80.9031C78.9261 80.8118 78.6493 80.7146 78.3452 80.7146C77.9228 80.7146 77.3948 80.8737 77.2892 81.74C77.2716 81.7931 77.2364 81.7931 77.2012 81.74C76.2509 80.4141 77.342 79.6539 77.9756 79.5655C77.8524 79.4417 76.902 78.8583 76.3037 79.7246C76.2685 79.7776 76.1981 79.7599 76.1981 79.6892C76.1981 78.0097 77.4476 77.8859 78.3628 78.6108C78.5388 77.9566 78.046 77.5323 77.4124 77.5323C77.342 77.5323 77.3068 77.497 77.342 77.4439C78.3589 76.3586 79.132 77.478 79.415 77.8879C79.4455 77.9321 79.4703 77.968 79.4891 77.992C79.9467 78.5754 81.5482 77.4616 82.1818 76.7898C82.1818 76.7898 80.7739 75.3047 80.7739 73.9434V73.6959C80.7739 73.6606 80.7563 73.6429 80.7211 73.6606C80.5803 73.749 80.3691 73.802 80.1931 73.802C79.8763 73.802 79.2603 73.6959 79.2603 72.5468C79.2603 72.4584 79.2955 72.4584 79.3307 72.5114C79.4891 72.7589 79.6827 72.812 79.8235 72.812C80.2688 72.812 80.9008 72.2333 81.6727 71.5265C82.8839 70.4176 84.4395 68.9932 86.1592 68.9932C86.8984 68.9932 88.2887 69.5236 88.9927 70.2838C88.6583 70.496 88.5879 70.9026 88.6231 71.2031C88.6759 71.6805 89.0631 71.928 89.4503 72.0341C89.5207 72.0518 89.5207 72.1048 89.4503 72.1401C89.3592 72.1752 89.2633 72.212 89.1635 72.2502C87.7022 72.8107 85.4006 73.6933 84.8569 74.1733C84.1529 74.7744 84.2937 75.9058 84.6985 77.4793C85.0757 78.9433 85.8872 78.7965 86.2054 78.7389C86.2139 78.7374 86.2219 78.7359 86.2296 78.7345C86.2648 78.7169 86.3 78.7522 86.2648 78.7876C85.8953 79.2472 85.4553 79.4064 85.0681 79.4064C84.6393 79.4064 84.3704 79.2517 84.1446 79.1217C83.9812 79.0277 83.8403 78.9467 83.6777 78.9467C83.0266 78.9467 81.689 79.866 81.689 80.5732C81.689 80.9621 82.0058 81.3157 82.393 81.5809ZM59.162 59.5348C59.2676 59.5878 59.5668 59.7116 59.6548 59.5878L59.9892 59.1281L60.7283 59.4817L61.0803 58.9867L60.4467 58.7746L63.4386 54.5492C63.509 54.4431 63.4738 53.8067 63.4562 53.5768C63.245 53.6299 62.629 53.8067 62.5586 53.9127L59.514 58.1027L59.1092 57.5724L58.7572 58.0674L59.3204 58.6685L59.0388 59.0574C58.4052 58.6685 57.8244 59.1282 57.6309 59.3403C57.5957 59.358 57.6132 59.358 57.6308 59.358H57.6309C57.8244 59.3049 58.5284 59.1458 58.5284 59.6232C57.754 59.3933 57.4549 59.906 57.3669 60.0828C57.3493 60.1182 57.3669 60.1182 57.3845 60.1182C57.5253 60.0651 58.018 59.9414 58.2292 60.1535L57.6133 61.0198C57.4725 61.1966 58.1236 61.674 58.2644 61.4972L59.074 60.3657C59.074 60.3657 61.7139 61.78 62.3651 62.1867C62.4179 61.6386 62.6114 61.1259 62.9282 60.7016C62.1187 60.4895 60.4643 59.9414 60.4643 59.9414C60.3939 60.0828 60.1123 60.1889 59.9188 60.1889C59.4964 60.1889 59.2148 59.7116 59.1444 59.5524C59.1268 59.5348 59.1444 59.5348 59.162 59.5348ZM71.0767 59.6762C70.5704 59.8516 70.3412 59.2962 70.3376 58.9076C70.3382 58.8432 70.3462 58.7524 70.356 58.642C70.4012 58.1283 70.4839 57.1902 70.0383 56.5116C70.1967 56.2464 71.1647 55.8221 71.4639 55.7691C71.5695 55.7514 71.5695 55.6807 71.4639 55.6276C71.2657 55.5411 70.9412 55.5435 70.6428 55.5457C70.3315 55.548 70.0488 55.5501 69.9679 55.4508C69.9679 55.4508 69.7919 54.1072 69.7391 54.0718C69.6863 54.0365 68.4896 54.6729 68.4896 54.6729C68.3521 54.6637 68.186 54.4195 68.0061 54.1551C67.8406 53.9119 67.6635 53.6516 67.4864 53.5415C67.3984 53.4884 67.3456 53.5238 67.3808 53.6122C67.504 53.8774 67.7152 54.9205 67.592 55.2033C66.5185 55.0973 66.1665 55.5039 66.0961 55.8044C65.8321 55.8751 64.8289 56.4409 64.8289 56.653C64.8289 56.7238 64.8993 56.8652 64.9873 56.9182C64.9873 56.9182 64.9345 57.2895 65.2513 57.5724C65.9377 57.095 66.8353 57.1834 66.6769 58.0674C66.6769 58.0674 66.5185 58.2619 65.6737 58.2619C65.6737 58.2619 65.7089 58.5624 65.7793 58.6508C65.7793 58.6508 65.5857 58.8806 65.7265 59.1105C65.7265 59.1105 66.4833 58.7392 66.8881 58.8453C67.0465 59.2696 66.9057 59.8353 65.6913 60.0298C64.1778 60.2773 63.3506 60.7016 63.1922 62.3635C64.1434 62.2779 64.8082 62.6295 65.5101 63.0006C65.6784 63.0896 65.8487 63.1796 66.0257 63.2651C67.3984 63.9016 68.912 62.9999 68.912 62.9999C68.5776 62.6994 68.5072 61.8154 69.0528 61.4088C69.3344 61.9745 69.9503 62.0275 70.3551 61.7447C70.3903 61.7093 70.3903 61.6563 70.3551 61.6386C69.7039 61.285 69.616 60.6662 69.9327 60.0121C70.2671 60.5071 71.0415 60.1182 71.1119 59.6939C71.1295 59.6762 71.0943 59.6762 71.0767 59.6762ZM70.3376 58.9076C70.3375 58.9045 70.3375 58.9014 70.3375 58.8983V58.916C70.3375 58.9133 70.3375 58.9105 70.3376 58.9076Z" fill="#ffffff"/>
</svg>
