<svg width="403" height="403" viewBox="0 0 403 403" fill="none" xmlns="http://www.w3.org/2000/svg">
<path fill-rule="evenodd" clip-rule="evenodd" d="M201.22 402.439C312.35 402.439 402.439 312.35 402.439 201.22C402.439 90.089 312.35 0 201.22 0C90.089 0 0 90.089 0 201.22C0 312.35 90.089 402.439 201.22 402.439ZM201.351 239.56H206.019V226.57H201.351V239.56ZM222.385 182.21H227.053V169.22H222.385V182.21ZM137.769 160.272C137.769 159.787 140.183 159.787 140.559 159.787V159.841C142.706 159.841 143.825 160.107 144.82 160.344C145.615 160.533 146.33 160.703 147.427 160.703C149.412 160.703 151.29 159.841 151.666 158.278C151.773 157.847 152.095 157.685 152.256 158.278C153.222 161.728 150.754 163.345 148.393 163.345C147.048 163.345 146.012 162.851 144.818 162.282C143.678 161.739 142.394 161.127 140.559 160.811C139.943 160.712 139.402 160.678 138.963 160.651C138.216 160.605 137.769 160.578 137.769 160.272ZM114.896 172.83C114.881 172.81 114.868 172.792 114.857 172.777L114.75 172.885C111.638 174.664 108.955 172.346 108.955 170.298C108.955 169.974 109.116 170.028 109.277 170.082C112.228 171.538 113.784 168.357 113.087 165.123C113.055 164.974 113.015 164.803 112.97 164.612C112.481 162.521 111.434 158.052 115.072 154.397C118.935 156.661 121.564 152.942 120.921 151.163C120.76 150.678 120.438 150.624 120.438 151.217C120.438 152.457 119.204 153.373 118.291 153.373C116.735 153.373 113.838 151.594 113.623 148.899C117.648 146.258 124.516 147.336 125.857 152.349C126.018 152.996 126.715 152.942 126.715 152.295C126.713 152.273 126.71 152.244 126.706 152.209C126.638 151.562 126.349 148.821 123.55 147.39C120.921 146.042 121.886 144.048 122.584 143.347C122.852 143.024 123.389 143.078 123.228 143.401C122.208 145.18 124.408 145.988 127.467 145.611C133.905 144.749 136.052 147.12 136.374 148.791C137.769 149.169 143.242 152.241 143.242 153.373C143.242 153.696 142.92 154.505 142.383 154.774C142.383 154.774 142.544 157.146 140.827 158.655C133.959 154.505 132.081 158.386 132.779 161.135C132.779 161.135 133.959 162.159 138.574 162.159C138.574 162.159 138.359 163.83 137.983 164.315C137.983 164.315 139.056 165.608 138.305 166.848C138.305 166.848 135.944 165.069 131.867 165.231C131.867 165.231 129.237 169.22 138.949 171.106C148.715 172.993 151.773 182.21 151.773 187.277C151.773 187.492 151.666 187.6 151.451 187.6C147.616 186.866 144.795 188.426 141.738 190.118C138.507 191.905 135.011 193.838 129.774 193.367C130.632 190.942 129.667 188.409 129.667 188.409C128.862 190.565 126.93 191.966 125.535 192.721C121.94 191.912 119.526 190.133 118.989 189.109C118.989 189.109 122.852 185.875 120.33 180.108C120.33 180.108 117.916 183.989 112.926 181.887C112.55 181.671 112.604 181.401 112.926 181.294C119.52 179.138 115.497 173.65 114.896 172.83ZM136.749 152.618C134.871 154.72 131.867 154.235 131.115 150.786C134.925 150.57 136.588 150.947 136.749 152.618ZM250.93 158.224C251.305 159.787 253.183 160.65 255.169 160.65V160.596C256.265 160.596 256.98 160.425 257.775 160.236C258.77 160 259.89 159.733 262.037 159.733C262.061 159.733 262.094 159.733 262.134 159.733C262.715 159.729 264.827 159.714 264.827 160.218C264.827 160.556 264.385 160.576 263.646 160.611C263.205 160.631 262.659 160.657 262.037 160.757C260.202 161.073 258.918 161.685 257.777 162.228C256.584 162.797 255.548 163.291 254.203 163.291C251.842 163.291 249.374 161.674 250.34 158.224C250.501 157.685 250.822 157.847 250.93 158.224ZM293.265 169.974C293.426 169.92 293.587 169.867 293.587 170.19L293.479 170.082C293.479 172.13 290.85 174.448 287.684 172.669C287.674 172.684 287.661 172.702 287.646 172.722C287.045 173.542 283.022 179.03 289.616 181.186C289.938 181.294 290.045 181.563 289.616 181.779C284.626 183.881 282.211 180 282.211 180C279.69 185.821 283.553 189.001 283.553 189.001C283.016 190.079 280.655 191.804 277.007 192.613C275.612 191.912 273.68 190.457 272.875 188.301C272.875 188.301 271.856 190.834 272.768 193.26C267.508 193.76 264.005 191.822 260.763 190.027C257.721 188.344 254.909 186.788 251.091 187.492C250.876 187.546 250.769 187.438 250.769 187.169C250.769 182.102 253.881 172.885 263.593 170.999C273.304 169.112 270.675 165.123 270.675 165.123C266.597 164.962 264.237 166.74 264.237 166.74C263.485 165.555 264.558 164.207 264.558 164.207C264.183 163.722 263.968 162.051 263.968 162.051C268.583 161.997 269.817 161.027 269.817 161.027C270.514 158.278 268.583 154.397 261.768 158.547C260.105 156.984 260.212 154.667 260.212 154.667C259.676 154.451 259.354 153.589 259.354 153.265C259.354 152.133 264.827 149.061 266.222 148.684C266.597 147.067 268.69 144.641 275.129 145.503C278.133 145.881 280.333 145.072 279.314 143.293C279.099 143.024 279.69 142.97 279.958 143.24C280.709 143.94 281.675 145.935 278.992 147.282C276.041 148.791 275.826 151.756 275.826 152.187C275.773 152.834 276.524 152.888 276.685 152.241C278.026 147.228 284.894 146.15 288.918 148.791C288.704 151.486 285.806 153.265 284.25 153.265C283.338 153.265 282.104 152.349 282.104 151.109C282.104 150.516 281.782 150.57 281.621 151.055C280.924 152.834 283.553 156.553 287.47 154.289C291.086 157.922 290.073 162.315 289.58 164.455C289.532 164.664 289.488 164.852 289.455 165.016C288.757 168.303 290.313 171.43 293.265 169.974ZM271.48 150.84C270.729 154.289 267.724 154.774 265.846 152.672C266.007 151.001 267.617 150.624 271.48 150.84ZM200.171 95.3216C199.903 94.8904 199.527 94.1358 199.527 93.2734C199.527 91.8181 200.493 91.0635 201.298 91.0635C202.103 91.0635 203.068 91.8181 203.068 93.2734C203.068 94.1358 202.746 94.8904 202.424 95.3216C201.834 96.184 201.942 96.6692 202.21 96.9387C202.478 97.2082 202.961 97.316 203.82 96.7231C204.249 96.4536 205 96.0763 205.859 96.0763C207.307 96.0763 208.058 97.0465 208.058 97.855C208.058 98.6635 207.307 99.6337 205.859 99.6337C205 99.6337 204.249 99.3103 203.82 98.9869C202.961 98.394 202.478 98.5018 202.21 98.7713C201.95 99.0326 202.345 101.878 202.663 104.163L202.693 104.377C205.107 104.862 206.288 106.856 206.288 107.988C206.288 110.953 203.122 112.678 201.298 113.648L201.249 113.621C199.366 112.595 196.308 110.927 196.308 107.988C196.308 106.856 197.488 104.916 199.903 104.377C200.278 102.005 200.654 99.0408 200.386 98.7713C200.117 98.5018 199.634 98.394 198.776 98.9869C198.347 99.2564 197.595 99.6337 196.737 99.6337C195.288 99.6337 194.537 98.6635 194.537 97.855C194.537 97.0465 195.288 96.0763 196.737 96.0763C197.595 96.0763 198.347 96.3997 198.776 96.7231C199.634 97.316 200.117 97.2082 200.386 96.9387C200.654 96.6692 200.761 96.184 200.171 95.3216ZM197.703 118.769C197.703 116.774 199.312 115.157 201.298 115.157C203.283 115.157 204.893 116.774 204.893 118.769C204.893 120.763 203.283 122.38 201.298 122.38C199.312 122.38 197.703 120.763 197.703 118.769ZM223.672 152.457C223.672 152.457 215.634 149.711 201.325 149.708C187.069 149.711 178.977 152.457 178.977 152.457C178.974 152.266 178.971 152.077 178.969 151.89C178.869 144.971 178.815 141.153 174.792 141.73C175.938 138.633 173.975 136.497 171.769 134.097C169.638 131.777 167.28 129.211 167.28 125.291C167.28 120.062 170.982 119.469 172.055 119.469C173.73 119.469 174.403 120.038 175.048 120.584C175.643 121.088 176.215 121.571 177.528 121.571C177.602 121.571 177.678 121.566 177.752 121.56C178.002 121.542 178.226 121.525 178.226 121.733C178.226 122.649 177.474 124.213 176.187 124.213C175.257 124.213 174.815 123.707 174.41 123.244C174.066 122.851 173.748 122.488 173.182 122.488C172.645 122.488 171.84 122.973 171.84 124.698C171.84 128.093 174.04 131.813 176.669 134.723C177.26 133.915 178.065 133.376 179.03 133.376C180.586 133.376 181.928 134.993 181.928 136.987C181.928 137.742 181.82 138.227 181.552 138.874C182.411 139.359 183.162 139.628 183.752 139.628C184.933 139.628 186.703 139.143 186.703 136.556C186.703 133.845 185.008 131.289 183.211 128.579C181.185 125.525 179.03 122.276 179.03 118.391C179.03 114.888 181.391 111.438 186.22 111.438C188.916 111.438 189.957 112.711 190.96 113.938C191.893 115.079 192.794 116.181 194.966 116.181C195.181 116.181 195.342 116.289 195.342 116.451C195.342 116.774 194.537 119.415 192.23 119.415C190.926 119.415 190.11 118.262 189.321 117.149C188.585 116.109 187.873 115.103 186.811 115.103C186.006 115.103 184.772 115.588 184.772 118.499C184.772 120.763 185.898 124.428 187.508 127.986C188.098 127.393 188.849 126.961 189.762 126.961C191.693 126.961 193.088 128.794 193.088 131.058C193.088 132.459 192.552 133.807 191.586 134.723C192.713 136.179 193.893 137.364 195.449 137.364C198.508 137.364 199.903 135.586 199.903 133.645C199.903 132.737 199.155 132.073 198.321 131.334C197.274 130.404 196.093 129.355 196.093 127.554C196.093 125.344 197.488 124.105 198.883 124.105C200.015 124.105 200.721 124.655 201.069 124.927C201.182 125.016 201.258 125.075 201.298 125.075C201.337 125.075 201.413 125.016 201.527 124.927C201.875 124.655 202.58 124.105 203.712 124.105C205.054 124.105 206.502 125.344 206.502 127.554C206.502 129.345 205.335 130.375 204.292 131.295C203.452 132.037 202.693 132.707 202.693 133.645C202.693 135.586 204.034 137.364 207.146 137.364C208.702 137.364 209.883 136.179 211.01 134.723C210.044 133.861 209.507 132.459 209.507 131.058C209.507 128.848 210.902 126.961 212.834 126.961C213.692 126.961 214.497 127.393 215.087 127.986C216.697 124.482 217.824 120.763 217.824 118.499C217.824 115.588 216.59 115.103 215.785 115.103C214.684 115.103 213.954 116.133 213.208 117.186C212.427 118.288 211.628 119.415 210.366 119.415C208.058 119.415 207.254 116.774 207.254 116.451C207.254 116.235 207.415 116.181 207.629 116.181C209.802 116.181 210.703 115.079 211.636 113.938C212.639 112.711 213.679 111.438 216.375 111.438C221.258 111.438 223.565 114.888 223.565 118.391C223.565 122.276 221.41 125.525 219.384 128.579C217.588 131.289 215.892 133.845 215.892 136.556C215.892 139.143 217.663 139.628 218.843 139.628C219.38 139.628 220.185 139.359 221.043 138.874C220.775 138.281 220.668 137.742 220.668 136.987C220.668 134.993 222.009 133.376 223.565 133.376C224.585 133.376 225.389 133.915 225.98 134.723C228.609 131.813 230.809 128.093 230.809 124.698C230.809 122.919 230.004 122.488 229.467 122.488C228.87 122.488 228.549 122.859 228.206 123.257C227.81 123.717 227.383 124.213 226.463 124.213C225.175 124.213 224.424 122.649 224.424 121.733C224.424 121.525 224.647 121.542 224.897 121.56C224.971 121.566 225.047 121.571 225.121 121.571C226.434 121.571 227.006 121.088 227.601 120.584C228.246 120.038 228.919 119.469 230.594 119.469C231.667 119.469 235.369 120.062 235.369 125.291C235.369 129.177 233.02 131.741 230.892 134.063C228.681 136.475 226.709 138.627 227.858 141.73C223.753 141.149 223.726 145.025 223.675 152.038L223.672 152.457ZM174.845 160.481C174.916 160.466 174.988 160.45 175.06 160.434H174.845V160.481ZM167.119 162.482C168.33 162.112 171.041 161.326 174.845 160.481V171.052H179.513V159.518C185.469 158.44 192.927 157.469 201.083 157.469C217.824 157.469 231.935 161.458 235.262 162.482C235.208 160.757 234.565 159.194 233.009 158.817C232.794 158.763 232.794 158.493 232.955 158.386C236.389 156.068 238.267 160.488 238.321 160.65C239.555 160.542 241.433 160.919 241.433 162.59C241.433 167.603 252.808 170.352 255.437 170.783C250.769 172.616 248.837 178.491 248.837 178.491C245.457 175.095 241.486 172.13 240.628 172.13C239.769 172.13 239.394 173.262 239.34 173.909C239.286 174.125 239.125 174.233 238.964 174.017C237.545 171.834 237.849 171.013 238.088 170.368C238.138 170.233 238.185 170.105 238.213 169.974C238.321 169.381 238.16 167.064 235.584 167.333V200.698L236.925 200.967C237.249 201.026 238.842 199.809 241.134 198.058C243.029 196.611 245.4 194.8 247.925 193.044C253.028 189.495 255.978 191.13 261.288 194.074C261.784 194.349 262.3 194.636 262.841 194.931C271.158 199.458 279.529 195.362 279.529 195.362C286.719 200.536 289.133 215.359 289.133 215.359C290.528 215.952 292.889 216.599 295.143 216.599C300.562 216.599 301.581 213.311 301.581 211.316C301.581 207.072 298.922 204.047 296.271 201.033C293.637 198.038 291.011 195.052 291.011 190.888C291.011 188.894 291.923 180.647 302.064 180.647H311.132C314.601 180.647 315.69 178.348 316.259 177.148C316.306 177.048 316.349 176.956 316.39 176.874C316.551 176.496 316.981 176.712 316.82 177.035C316.66 177.384 316.765 177.825 316.911 178.439C317.059 179.061 317.249 179.859 317.249 180.916C317.249 184.312 315.264 186.36 311.561 186.36C309.898 186.36 308.288 185.875 307.805 185.552C307.43 185.336 307.269 185.713 307.43 185.875C309.04 187.762 309.147 191.265 308.503 192.128C308.342 192.343 308.127 192.289 308.127 192.128C307.215 188.57 303.889 185.174 299.381 185.174C293.908 185.174 293.908 189.864 293.908 190.996C293.908 194.108 296.399 196.814 299.098 199.744C302.287 203.208 305.766 206.986 305.766 212.125C305.766 221.611 295.84 223.66 290.045 222.15C290.421 231.637 301.206 234.871 301.528 228.08C301.528 227.756 301.796 227.648 301.957 228.08C303.298 231.421 302.762 234.386 298.577 235.302C298.308 235.41 298.416 235.572 298.684 235.734C302.171 237.934 301.188 245.561 300.639 249.821C300.529 250.674 300.437 251.391 300.401 251.904C300.079 256.324 304.479 255.785 304.854 255.677C305.015 255.623 305.176 255.731 304.908 256.054C301.796 259.881 297.933 256.378 297.933 256.378C295.035 257.294 296.86 259.773 298.791 261.067C299.113 261.283 299.113 261.498 298.791 261.498C298.362 261.552 293.855 261.929 293.05 258.318C291.065 260.69 288.114 259.827 287.523 259.504C286.665 259.019 282.48 257.509 282.05 262.253C282.003 262.54 281.871 262.402 281.729 262.254C281.711 262.236 281.693 262.217 281.675 262.199C278.509 258.156 281.943 255.677 283.821 255.407C283.66 255.192 281.138 253.036 278.831 256C278.67 256.216 278.509 256.216 278.509 255.839C278.241 250.718 282.372 250.287 285.055 252.497L285.056 252.495C285.218 251.95 286.069 249.101 282.05 249.209C281.943 249.209 281.728 249.101 281.943 248.885C285.102 245.55 287.674 248.603 288.271 249.312L288.275 249.316C289.491 250.774 292.299 250.427 293.211 250.315C293.345 250.298 293.438 250.287 293.479 250.287C292.806 239.694 287.002 237.679 281.979 235.935C278.594 234.76 275.564 233.708 274.699 230.236C274.646 229.804 274.378 229.966 274.378 230.128C273.787 232.23 268.529 232.553 267.563 228.403C267.51 228.133 267.51 227.918 267.724 228.133C272.231 232.607 282.372 218.539 268.529 207.058C256.725 197.248 246.154 202.692 242.13 205.926C241.916 207.328 242.774 207.813 243.311 207.975C243.579 208.028 243.633 208.244 243.311 208.352C242.184 208.783 240.628 208.675 239.877 207.597C237.301 209.376 239.501 211.586 240.52 212.233C240.789 212.394 240.681 212.61 240.467 212.61C238.106 213.041 236.228 210.616 236.121 209.268L235.745 209.484V219.563C235.745 229.443 227.949 233.436 217.185 238.95C212.328 241.438 206.866 244.235 201.244 248.023C195.647 244.269 190.203 241.485 185.355 239.007C174.542 233.478 166.689 229.463 166.689 219.563V209.484L166.314 209.268C166.207 210.67 164.275 213.041 161.968 212.61C161.753 212.556 161.646 212.394 161.914 212.233C162.933 211.64 165.08 209.376 162.558 207.597C161.807 208.621 160.251 208.783 159.124 208.352C158.856 208.19 158.909 208.028 159.124 207.975C159.66 207.813 160.519 207.328 160.304 205.926C156.28 202.746 145.71 197.302 133.905 207.058C120.062 218.539 130.203 232.661 134.71 228.133C134.871 227.972 134.871 228.133 134.871 228.403C133.905 232.499 128.647 232.23 128.057 230.128C128.057 229.966 127.842 229.804 127.735 230.236C126.871 233.707 123.834 234.759 120.442 235.934C115.409 237.678 109.596 239.692 108.955 250.287C108.996 250.287 109.09 250.298 109.223 250.315C110.136 250.427 112.943 250.774 114.16 249.316C114.804 248.562 117.379 245.543 120.491 248.885C120.652 249.047 120.491 249.209 120.384 249.209C116.602 249.107 117.18 251.624 117.352 252.375C117.363 252.423 117.373 252.464 117.379 252.497C120.062 250.287 124.194 250.718 123.925 255.839C123.925 256.27 123.764 256.216 123.603 256C121.296 253.036 118.774 255.192 118.613 255.407C120.545 255.677 123.925 258.156 120.76 262.199C120.599 262.361 120.384 262.576 120.384 262.253C120.008 257.509 115.77 259.073 114.911 259.504C114.321 259.827 111.37 260.69 109.385 258.318C108.631 261.697 104.637 261.537 103.775 261.502C103.715 261.5 103.671 261.498 103.643 261.498C103.375 261.498 103.321 261.283 103.643 261.067C105.629 259.773 107.399 257.294 104.502 256.378C104.502 256.378 100.639 259.881 97.5265 256.054C97.2046 255.677 97.4192 255.623 97.5801 255.677C97.9557 255.785 102.356 256.324 102.034 251.904C101.998 251.391 101.905 250.673 101.795 249.821C101.246 245.561 100.263 237.934 103.751 235.734C104.019 235.518 104.126 235.356 103.858 235.302C99.6727 234.386 99.1362 231.421 100.478 228.08C100.639 227.702 100.907 227.756 100.907 228.08C101.229 234.871 112.067 231.637 112.389 222.15C106.648 223.606 96.668 221.504 96.668 212.125C96.668 207.058 100.129 203.281 103.312 199.808C106.02 196.853 108.526 194.118 108.526 190.996L108.526 190.963C108.527 189.777 108.529 185.174 103.053 185.174C98.546 185.174 95.2193 188.57 94.3071 192.128C94.3071 192.289 94.0925 192.343 93.9315 192.128C93.2876 191.319 93.395 187.762 95.0046 185.875C95.1656 185.66 94.951 185.336 94.6291 185.552C94.1461 185.875 92.5365 186.36 90.8731 186.36C87.1708 186.36 85.1855 184.312 85.1855 180.916C85.1855 179.836 85.3698 179.026 85.5125 178.399C85.6474 177.806 85.7452 177.376 85.6148 177.035C85.4538 176.712 85.8294 176.443 86.044 176.874C86.0962 176.973 86.1518 177.089 86.2133 177.217C86.7851 178.406 87.8628 180.647 91.3024 180.647H100.37C110.511 180.647 111.423 188.84 111.423 190.888C111.423 195.052 108.798 198.038 106.164 201.033C103.513 204.047 100.853 207.072 100.853 211.316C100.853 213.257 101.819 216.599 107.292 216.599C109.492 216.599 111.853 215.952 113.301 215.359C113.301 215.359 115.77 200.482 122.906 195.362C122.906 195.362 131.276 199.458 139.593 194.931C140.154 194.625 140.689 194.328 141.202 194.043C146.468 191.119 149.37 189.507 154.456 193.044C156.86 194.732 159.143 196.472 161.003 197.89C163.419 199.73 165.122 201.028 165.455 200.967L166.797 200.698V167.333C164.221 167.064 164.06 169.381 164.168 169.974C164.198 170.125 164.252 170.268 164.309 170.418C164.557 171.075 164.857 171.868 163.416 174.017C163.255 174.179 163.041 174.125 163.041 173.909C162.987 173.262 162.665 172.13 161.753 172.13C160.841 172.13 156.924 175.095 153.544 178.491C153.544 178.491 151.612 172.562 146.944 170.783C149.573 170.352 160.948 167.603 160.948 162.59C160.948 160.919 162.826 160.542 164.06 160.65C164.114 160.488 165.938 156.068 169.426 158.386C169.641 158.493 169.587 158.817 169.372 158.817C167.816 159.14 167.172 160.757 167.119 162.482ZM141.9 275.89C141.9 277.561 142.705 278.369 143.939 278.854L143.886 278.8C143.886 278.207 145.763 274.165 158.48 274.165V280.202C158.48 286.904 151.363 285.154 141.925 282.834C136.865 281.59 131.137 280.182 125.481 279.824C112.014 278.962 108.258 282.412 108.258 282.412L110.726 268.721C110.887 267.966 113.784 265.864 123.067 265.864C133.715 265.864 139.284 267.808 141.564 268.604C141.685 268.646 141.797 268.685 141.9 268.721V275.89ZM243.686 274.273V274.219L243.633 274.273C243.65 274.273 243.668 274.273 243.686 274.273ZM243.686 274.273V280.256C243.686 286.924 250.807 285.182 260.249 282.873C265.307 281.636 271.032 280.236 276.685 279.878C290.152 279.016 293.908 282.466 293.908 282.466L291.44 268.775C291.333 268.02 288.382 265.918 279.099 265.918C268.612 265.918 263.052 267.822 260.683 268.633C260.531 268.685 260.392 268.732 260.266 268.775V275.944C260.266 277.561 259.461 278.369 258.227 278.908C258.227 278.316 256.354 274.284 243.686 274.273ZM257.154 273.356C253.72 269.368 227.214 268.02 201.083 268.02H200.976C174.899 268.02 148.393 269.422 144.905 273.356C144.637 273.626 144.529 273.087 144.529 273.087V259.18C144.529 255.138 171.894 252.766 201.029 252.766C230.165 252.766 257.529 255.138 257.529 259.18V273.087C257.529 273.356 257.422 273.68 257.154 273.356ZM175.167 201.776L177.796 202.477L177.582 202.584C176.884 203.339 177.152 204.363 177.26 204.74C177.26 204.74 177.367 204.794 177.367 204.74C177.635 204.363 178.44 203.285 179.943 203.339C179.943 203.339 179.996 203.393 179.943 203.393C179.46 203.609 177.796 204.633 178.333 206.681C178.333 206.681 178.494 206.735 178.494 206.681C179.138 205.765 180.318 205.333 180.801 205.172L180.318 208.729C183.055 209.538 186.059 207.705 186.328 204.579L183.269 203.878C186.596 201.452 191.049 199.835 195.181 199.835C201.727 199.835 205.912 206.95 205.912 211.155C205.912 212.179 205.805 213.742 205 214.928C203.766 216.653 202.854 216.275 202.424 215.844C202.264 215.736 202.264 215.79 202.264 215.952C202.8 218.216 205.751 218.108 206.127 216.976C206.234 216.653 206.395 216.76 206.395 216.868C207.127 219.429 208.999 219.497 211.14 219.575C213.549 219.662 216.299 219.762 218.146 223.444C217.985 223.552 216.268 224.468 215.248 223.821C213.263 222.582 212.244 223.821 211.868 224.684C211.814 224.845 211.868 224.845 211.975 224.845C214.122 224.36 214.98 225.762 215.087 226.139C213.478 225.438 211.224 226.247 212.244 229.05C212.297 229.212 212.458 229.212 212.458 229.05C213.156 227.109 214.819 227.81 214.98 227.918C213.961 228.403 212.619 230.289 214.98 231.853C215.087 231.907 215.141 231.853 215.141 231.745C214.926 230.343 215.57 229.319 216.59 229.319C216.605 229.319 216.621 229.319 216.637 229.319C217.207 229.321 218.595 229.325 219.273 227.648C220.238 229.319 222.17 228.672 223.082 228.349C223.243 228.241 223.243 228.08 223.082 228.08C221.848 227.702 220.238 226.84 221.58 225.87C221.58 225.87 224.209 226.84 225.175 224.306C225.282 224.145 225.228 224.037 225.067 224.145C225.055 224.149 225.028 224.161 224.989 224.179C224.52 224.392 222.285 225.408 221.741 223.121C221.675 222.829 221.613 222.505 221.548 222.165C221.239 220.556 220.863 218.597 219.755 218.108C221.258 217.461 221.741 216.275 220.614 214.658C220.56 214.55 220.399 214.389 220.399 214.658C220.238 218.377 212.458 215.305 212.297 210.077C217.77 211.478 223.189 209.915 223.189 204.633C223.189 201.512 221.41 199.407 219.954 197.684C218.946 196.491 218.092 195.482 218.092 194.445C218.092 192.613 219.648 192.182 220.399 192.182C222.492 192.182 224.906 194.715 225.336 196.763C225.336 196.871 225.443 196.871 225.55 196.763C226.302 195.685 226.463 193.96 225.819 193.475C225.658 193.313 225.819 193.098 226.033 193.26C226.516 193.637 230.648 193.26 230.648 190.403C230.648 189.881 230.57 189.468 230.507 189.131C230.452 188.842 230.408 188.608 230.433 188.409C230.487 188.085 229.897 187.977 229.736 188.409L229.719 188.457C229.499 189.125 229.042 190.511 227.053 190.511C226.231 190.511 225.127 190.313 223.975 190.107C222.72 189.883 221.409 189.648 220.346 189.648C216.536 189.648 215.141 192.559 215.141 194.553C215.141 196.845 216.337 198.184 217.518 199.506C218.67 200.797 219.809 202.072 219.809 204.201C219.809 207.382 215.356 208.406 212.136 205.387C211.331 201.668 210.58 198.973 208.488 195.847C203.288 197.543 200.723 196.08 198.412 194.762C197.051 193.985 195.779 193.26 194.108 193.26C192.094 193.26 189.741 195.211 187.388 197.164C185.352 198.853 183.316 200.542 181.499 200.967L182.035 196.979L182.464 196.871L182.357 193.529C182.357 193.529 181.445 195.685 181.338 196.009C181.23 196.224 181.123 196.224 181.016 196.009C180.64 195.038 179.782 193.098 179.782 193.098C179.782 193.098 179.728 195.685 179.728 196.278C179.728 196.44 179.46 196.332 179.46 196.332L177.474 193.421C177.474 193.421 177.957 195.685 178.226 196.925C178.279 197.033 178.011 197.033 178.011 197.033L175.328 194.445L176.723 197.949C176.777 198.111 176.669 198.218 176.509 198.111C176.026 197.787 173.557 196.116 173.557 196.116C173.557 196.116 174.738 197.841 175.596 199.081C175.704 199.243 175.65 199.35 175.435 199.296C173.665 198.65 172.431 198.165 172.431 198.165C172.431 198.165 173.557 199.243 174.792 200.482C174.899 200.59 174.899 200.752 174.631 200.752H171.894L174.952 202.099L175.167 201.776ZM184.643 227.016C185.459 227.312 186.155 227.565 186.918 226.624L187.025 226.732C187.454 228.619 189.44 228.457 190.03 228.349C190.03 228.349 190.084 228.241 190.03 228.241C189.171 227.702 188.849 227.055 188.849 226.57C188.849 225.331 191.371 223.821 192.122 223.821C192.44 223.821 192.672 223.957 192.939 224.113C193.303 224.325 193.732 224.576 194.537 224.576C195.127 224.576 195.825 224.306 196.469 223.552C196.576 223.444 196.522 223.444 196.415 223.444C194.698 223.875 193.679 222.204 193.679 219.24C193.679 213.626 196.58 212.539 203.095 210.1L203.444 209.969C203.605 209.915 203.605 209.807 203.444 209.807C202.156 210.077 200.386 208.028 202.156 205.872C200.976 205.064 199.527 204.417 198.4 204.417C193.803 204.417 190.21 208.977 189.037 210.465C188.91 210.626 188.811 210.752 188.742 210.831C188.098 211.586 186.757 212.879 185.952 211.748C185.791 211.532 185.791 211.586 185.791 211.748C185.791 214.011 187.615 214.065 188.367 213.634C188.422 213.606 188.449 213.593 188.462 213.601C188.474 213.609 188.474 213.636 188.474 213.688C188.247 215.691 189.284 218.848 189.611 219.846C189.672 220.029 189.708 220.139 189.708 220.156C189.547 220.372 187.347 222.42 185.845 222.42C185.389 222.42 185.094 222.021 184.768 221.58C184.365 221.035 183.915 220.426 183.055 220.426C182.572 220.426 182.089 220.641 181.606 221.18C181.552 221.234 181.552 221.342 181.713 221.342C182.894 221.396 183.591 222.097 183.323 223.175C181.82 221.935 179.674 222.15 179.674 224.953C179.674 225.061 179.782 225.115 179.835 225.007C180.855 223.498 182.464 224.576 182.625 224.738C181.552 224.899 179.674 226.139 181.338 228.403C181.391 228.511 181.445 228.511 181.445 228.403C181.445 227.918 181.713 226.678 183.162 226.678C183.712 226.678 184.196 226.854 184.643 227.016ZM204.732 171.376C202.639 171.268 201.244 171.699 201.351 172.4C202.371 173.478 203.766 173.37 204.732 171.376ZM200.278 176.443C200.064 176.389 198.454 176.227 196.952 176.604H197.005C194.537 177.251 193.357 176.335 193.142 175.472C193.088 175.203 192.874 175.203 192.82 175.472C192.283 177.413 193.732 178.76 195.02 178.76C195.956 178.76 196.487 178.437 197.112 178.055C197.813 177.627 198.634 177.127 200.278 176.928C200.493 176.874 200.493 176.496 200.278 176.443ZM156.59 245.974C157.905 247.634 159.201 247.182 160.692 246.663C161.496 246.382 162.357 246.082 163.309 246.082C164.65 246.082 166.26 246.514 166.528 249.209C166.528 249.37 166.636 249.37 166.797 249.209C169.748 245.166 166.367 242.902 164.436 242.579C164.865 242.202 167.709 240.423 169.587 243.064C169.694 243.226 169.909 243.172 169.909 242.956C169.909 237.836 166.099 237.458 163.309 239.668C162.773 237.674 164.275 236.38 166.207 236.38C166.421 236.38 166.528 236.219 166.421 236.111C163.37 232.854 161.039 236.151 160.143 237.418C160.031 237.577 159.941 237.704 159.875 237.782C158.534 239.614 153.651 236.165 151.666 234.116C151.666 234.116 155.958 229.589 155.958 225.438V224.684C155.958 224.576 156.012 224.522 156.119 224.576C156.548 224.846 157.139 225.007 157.729 225.007C158.695 225.007 160.573 224.684 160.573 221.18C160.573 220.911 160.465 220.911 160.358 221.072C159.821 221.827 159.285 221.989 158.856 221.989C157.498 221.989 155.571 220.225 153.218 218.07C149.525 214.689 144.783 210.346 139.539 210.346C137.286 210.346 133.047 211.963 130.954 214.281C131.974 214.874 132.188 216.167 132.081 217.084C131.92 218.539 130.74 219.294 129.559 219.617C129.345 219.617 129.345 219.833 129.559 219.941C129.767 220.02 129.983 220.103 130.205 220.189C134.641 221.892 141.826 224.651 143.564 226.139C145.656 227.972 145.281 231.421 144.046 236.219C142.904 240.654 140.503 240.24 139.475 240.062C139.441 240.056 139.409 240.051 139.378 240.046C139.217 240.046 139.217 240.099 139.271 240.207C140.398 241.609 141.739 242.094 142.92 242.094C144.24 242.094 145.081 241.613 145.778 241.215C146.271 240.933 146.692 240.692 147.159 240.692C149.09 240.692 153.222 243.495 153.222 245.651C153.222 246.837 152.31 247.969 151.075 248.724C151.022 248.777 151.022 248.885 151.075 248.885C151.983 249.046 155.811 249.367 156.59 245.974ZM251.198 248.724C251.305 248.777 251.144 248.885 251.144 248.885C250.179 249.047 246.369 249.37 245.618 245.921C244.248 247.649 242.925 247.185 241.422 246.657C240.628 246.379 239.784 246.082 238.857 246.082C237.569 246.082 235.96 246.568 235.638 249.209C235.584 249.37 235.477 249.37 235.369 249.209C232.472 245.166 235.799 242.848 237.73 242.579C237.355 242.202 234.457 240.423 232.633 243.064C232.526 243.226 232.311 243.172 232.311 242.956C232.311 237.836 236.121 237.458 238.911 239.668C239.447 237.674 237.945 236.38 236.013 236.38C235.799 236.38 235.691 236.273 235.799 236.111C238.899 232.802 241.256 236.215 242.119 237.464C242.212 237.599 242.287 237.708 242.345 237.782C243.74 239.56 248.623 236.165 250.554 234.116C250.554 234.116 246.262 229.589 246.262 225.438V224.684C246.262 224.576 246.208 224.522 246.101 224.576C245.671 224.846 245.028 225.007 244.491 225.007C243.525 225.007 241.647 224.684 241.647 221.18C241.647 220.911 241.755 220.911 241.862 221.072C242.345 221.827 242.935 221.989 243.364 221.989C244.722 221.989 246.649 220.225 249.002 218.07C252.695 214.689 257.437 210.346 262.681 210.346C264.934 210.346 269.173 211.963 271.319 214.281C270.3 214.928 270.085 216.167 270.192 217.084C270.353 218.539 271.534 219.294 272.714 219.617C272.929 219.671 272.929 219.833 272.714 219.941C272.436 220.047 272.144 220.159 271.84 220.276C267.385 221.985 260.367 224.676 258.71 226.139C256.564 227.972 256.993 231.421 258.227 236.219C259.377 240.682 261.851 240.234 262.821 240.059C262.847 240.054 262.872 240.05 262.895 240.046C263.002 239.992 263.11 240.099 263.002 240.207C261.876 241.609 260.534 242.094 259.354 242.094C258.046 242.094 257.227 241.622 256.538 241.226C256.04 240.939 255.611 240.692 255.115 240.692C253.13 240.692 249.052 243.495 249.052 245.651C249.052 246.837 250.018 247.915 251.198 248.724ZM180.372 181.509C180.694 181.671 181.606 182.048 181.874 181.671L182.894 180.269L185.147 181.347L186.22 179.838L184.289 179.191L193.41 166.309C193.625 165.986 193.518 164.045 193.464 163.345C192.82 163.506 190.942 164.045 190.727 164.369L181.445 177.143L180.211 175.526L179.138 177.035L180.855 178.868L179.996 180.054C178.065 178.868 176.294 180.269 175.704 180.916C175.596 180.97 175.65 180.97 175.704 180.97C176.294 180.808 178.44 180.323 178.44 181.779C176.079 181.078 175.167 182.641 174.899 183.18C174.845 183.288 174.899 183.288 174.952 183.288C175.382 183.126 176.884 182.749 177.528 183.396L175.65 186.037C175.221 186.576 177.206 188.031 177.635 187.492L180.103 184.043C180.103 184.043 188.152 188.355 190.137 189.594C190.298 187.923 190.888 186.36 191.854 185.067C189.386 184.42 184.342 182.749 184.342 182.749C184.128 183.18 183.269 183.504 182.679 183.504C181.391 183.504 180.533 182.048 180.318 181.563C180.264 181.509 180.318 181.509 180.372 181.509ZM216.697 181.94C215.153 182.475 214.455 180.782 214.444 179.597C214.446 179.401 214.47 179.124 214.5 178.787C214.638 177.221 214.89 174.361 213.531 172.292C214.014 171.484 216.965 170.19 217.878 170.028C218.199 169.974 218.199 169.759 217.878 169.597C217.273 169.333 216.284 169.341 215.374 169.347C214.425 169.354 213.563 169.361 213.317 169.058C213.317 169.058 212.78 164.962 212.619 164.854C212.458 164.746 208.81 166.686 208.81 166.686C208.39 166.658 207.884 165.914 207.335 165.108C206.831 164.366 206.291 163.573 205.751 163.237C205.483 163.075 205.322 163.183 205.429 163.452C205.805 164.261 206.449 167.441 206.073 168.303C202.8 167.98 201.727 169.22 201.512 170.136C200.708 170.352 197.649 172.077 197.649 172.723C197.649 172.939 197.864 173.37 198.132 173.532C198.132 173.532 197.971 174.664 198.937 175.526C201.029 174.071 203.766 174.34 203.283 177.035C203.283 177.035 202.8 177.628 200.225 177.628C200.225 177.628 200.332 178.545 200.547 178.814C200.547 178.814 199.956 179.515 200.386 180.216C200.386 180.216 202.693 179.084 203.927 179.407C204.41 180.701 203.981 182.426 200.278 183.018C195.664 183.773 193.142 185.067 192.659 190.133C195.559 189.872 197.586 190.944 199.726 192.076C200.239 192.347 200.758 192.622 201.298 192.882C205.483 194.823 210.097 192.074 210.097 192.074C209.078 191.157 208.863 188.462 210.527 187.223C211.385 188.948 213.263 189.109 214.497 188.247C214.604 188.139 214.604 187.977 214.497 187.923C212.512 186.845 212.244 184.959 213.209 182.965C214.229 184.474 216.59 183.288 216.804 181.994C216.858 181.94 216.751 181.94 216.697 181.94ZM214.444 179.597C214.444 179.588 214.444 179.578 214.444 179.569V179.623C214.444 179.614 214.444 179.606 214.444 179.597Z" fill="#FFFFFF" fill-opacity="0.2"/>
</svg>
