<svg xmlns="http://www.w3.org/2000/svg" width="800" height="214" fill="none" viewBox="0 0 800 214"><g clip-path="url(#a)"><path fill="#f5f4f9" d="M0 16C0 7.163 7.163 0 16 0h768c8.837 0 16 7.163 16 16v182c0 8.837-7.163 16-16 16H16c-8.837 0-16-7.163-16-16z"/><path fill="#e3e0fd" d="M464.506 52.065H335.494c-10.972 0-19.867 8.894-19.867 19.866v4.514a6.3 6.3 0 0 1 3.35-.966 6.35 6.35 0 0 1 5.567 3.3 9.28 9.28 0 0 1 9.038-7.142 9.31 9.31 0 0 1 9.093 7.319.783.783 0 0 1-.763.95h-26.285v56.24c0 10.972 8.895 19.867 19.867 19.867h129.012c10.972 0 19.867-8.895 19.867-19.867V71.931c0-10.972-8.895-19.866-19.867-19.866"/><path fill="#f5f4f9" d="M396.955 170.564V117.27h8.573v53.294"/><path stroke="#152a62" stroke-linecap="round" stroke-linejoin="round" stroke-miterlimit="10" d="M396.955 170.564V117.27h8.573v53.294"/><path fill="#152a62" stroke="#152a62" stroke-linecap="round" stroke-linejoin="round" stroke-miterlimit="10" d="m396.957 123.261 8.59 1.6.02-3.373h-8.579zM445.334 112.98 404.13 41.613a5.3 5.3 0 0 0-1.891-1.922l.035-.765h-2.896l.002.004c-1.779.03-3.545.922-4.561 2.682l-41.204 71.367c-2.069 3.584.517 8.065 4.656 8.065h82.408c4.137.001 6.724-4.48 4.655-8.064"/><path fill="#ffb7ad" stroke="#152a62" stroke-linecap="round" stroke-linejoin="round" stroke-miterlimit="10" d="m397.617 41.613-41.204 71.367c-2.069 3.584.517 8.065 4.656 8.065h82.408c4.139 0 6.726-4.48 4.656-8.065L406.93 41.613c-2.07-3.585-7.243-3.585-9.313 0"/><path fill="#fcfcfc" stroke="#152a62" stroke-linejoin="round" stroke-miterlimit="10" d="m366.067 112.783 36.207-62.71 36.206 62.71z"/><path fill="#152a62" d="M404.229 93.879h-4.434a1.3 1.3 0 0 1-1.297-1.241l-.933-21.155a1.3 1.3 0 0 1 1.297-1.356h6.3c.74 0 1.33.617 1.297 1.356l-.933 21.155a1.3 1.3 0 0 1-1.297 1.241M402.012 106.074a4.075 4.075 0 1 0 0-8.15 4.075 4.075 0 0 0 0 8.15"/><path fill="#f5f4f9" d="M452.584 135.473h-9.704c-.534 0-.859-.577-.599-1.043a5.63 5.63 0 0 1 4.923-2.893 5.65 5.65 0 0 1 5.38 3.936"/><path fill="#f5f4f9" d="M468.282 134.627a.697.697 0 0 1-.679.845h-15.627c.041-.338.097-.677.18-1.001a8.254 8.254 0 0 1 8.039-6.354 8.28 8.28 0 0 1 8.087 6.51"/></g><defs><clipPath id="a"><path fill="#fff" d="M0 16C0 7.163 7.163 0 16 0h768c8.837 0 16 7.163 16 16v182c0 8.837-7.163 16-16 16H16c-8.837 0-16-7.163-16-16z"/></clipPath></defs></svg>