<svg xmlns="http://www.w3.org/2000/svg" width="800" height="214" fill="none" viewBox="0 0 800 214"><g clip-path="url(#a)"><path fill="#f5f4f9" d="M0 16C0 7.163 7.163 0 16 0h768c8.837 0 16 7.163 16 16v182c0 8.837-7.163 16-16 16H16c-8.837 0-16-7.163-16-16z"/><path fill="#152a62" stroke="#152a62" stroke-linejoin="round" stroke-miterlimit="10" d="m410.62 90.914-9.731-8.28-.003-.622h-1.218c-.716-.01-1.401.538-1.401 1.365v3.695h-9.301c-.946 0-1.713.767-1.713 1.713v7.098c0 .946.767 1.713 1.713 1.713h9.301v3.693c0 .817.667 1.372 1.373 1.378h1.287l.035-.696 9.66-8.22a1.864 1.864 0 0 0-.002-2.837Z"/><path fill="#b49cfb" stroke="#152a62" stroke-linejoin="round" stroke-miterlimit="10" d="M411.879 90.915 401.79 82.33c-.893-.76-2.266-.124-2.266 1.047v3.696h-9.301c-.946 0-1.713.767-1.713 1.713v7.097c0 .947.767 1.714 1.713 1.714h9.301v3.693c0 1.172 1.373 1.807 2.266 1.047l10.089-8.585a1.862 1.862 0 0 0 0-2.837Z"/><path fill="#e3e0fd" stroke="#152a62" stroke-miterlimit="10" d="m423.918 156.174 1.769-2.312.56.278a13.3 13.3 0 0 1 .366-3.278l25.295-105.157c1.994-8.29 9.67-15.01 18.284-15.01h45.72c.586 0 1.154.038 1.709.099l1.628-2.43 6.23 6.23.009.009.129.127-.003.012c2.706 2.754 3.863 6.852 2.76 11.438L503.08 151.337c-1.845 7.67-9.803 13.889-17.775 13.889h-47.126c-3.688 0-6.719-1.342-8.744-3.532z"/><path fill="#f5f4f9" stroke="#152a62" stroke-miterlimit="10" d="M495.685 161.737c-3.064 2.163-6.717 3.486-10.379 3.486H438.18c-3.688 0-6.719-1.341-8.743-3.531l-5.518-5.519 1.769-2.311.559.278a13.3 13.3 0 0 1 .355-3.216l61.208 2.937z"/><path fill="#152a62" stroke="#152a62" stroke-miterlimit="10" d="M432.012 159.055h47.127c7.97 0 15.928-6.218 17.774-13.888l25.294-105.158C524.201 31.719 518.834 25 510.22 25h-44.796c-8.615 0-17.215 6.72-19.209 15.009l-25.294 105.158c-1.846 7.67 3.12 13.888 11.091 13.888Z"/><path fill="#fff" stroke="#152a62" stroke-miterlimit="10" d="M480.388 154.652c5.326 0 10.663-4.173 11.897-9.301L517.58 40.194c.683-2.84.171-5.53-1.442-7.576-1.634-2.074-4.18-3.216-7.169-3.216h-6.157c-1.793 0-3.523 1.354-3.938 3.083-.575 2.389-3.129 4.26-5.815 4.26h-16.641c-1.262 0-2.288-.42-2.89-1.185-.552-.7-.708-1.635-.45-2.706.213-.882.04-1.762-.474-2.415-.519-.66-1.347-1.037-2.272-1.037h-6.158c-5.969 0-11.951 4.675-13.333 10.421l-25.294 105.158c-.612 2.543-.152 4.953 1.293 6.788 1.465 1.86 3.745 2.884 6.421 2.884h47.127z"/><path stroke="#152a62" stroke-linejoin="round" stroke-miterlimit="10" d="m522.176 48.895 2.862 2.733-1.19 5.034-2.863-2.734zM520.148 57.168l2.863 2.734-1.191 5.034-2.862-2.734z"/><path fill="#e3e0fd" d="M461.253 185.709c22.14 0 40.088-1.725 40.088-3.854S483.393 178 461.253 178c-22.139 0-40.087 1.726-40.087 3.855s17.948 3.854 40.087 3.854"/><path fill="#e3e0fd" stroke="#152a62" stroke-miterlimit="10" d="m274.449 156.174 1.768-2.312.561.278a13.3 13.3 0 0 1 .366-3.278l25.295-105.157c1.994-8.29 9.67-15.01 18.284-15.01h45.72c.586 0 1.154.038 1.709.099l1.628-2.43 6.23 6.23.009.009.129.127-.003.012c2.706 2.754 3.863 6.852 2.76 11.438L353.61 151.337c-1.844 7.67-9.802 13.889-17.774 13.889h-47.127c-3.687 0-6.718-1.342-8.743-3.532z"/><path fill="#f5f4f9" stroke="#152a62" stroke-miterlimit="10" d="M346.216 161.737c-3.064 2.163-6.717 3.486-10.379 3.486H288.71c-3.687 0-6.718-1.341-8.742-3.531l-5.518-5.519 1.768-2.311.559.278a13.4 13.4 0 0 1 .355-3.216l61.209 2.937z"/><path fill="#152a62" stroke="#152a62" stroke-miterlimit="10" d="M282.543 159.055h47.126c7.971 0 15.929-6.218 17.775-13.888l25.294-105.158C374.732 31.719 369.365 25 360.751 25h-44.796c-8.615 0-17.215 6.72-19.209 15.009l-25.294 105.158c-1.846 7.67 3.12 13.888 11.091 13.888Z"/><path fill="#fff" stroke="#152a62" stroke-miterlimit="10" d="M330.919 154.652c5.326 0 10.663-4.173 11.897-9.301L368.11 40.194c.683-2.84.172-5.53-1.441-7.576-1.635-2.074-4.181-3.216-7.169-3.216h-6.157c-1.793 0-3.523 1.354-3.939 3.083-.574 2.389-3.128 4.26-5.814 4.26h-16.641c-1.262 0-2.288-.42-2.89-1.185-.553-.7-.708-1.635-.45-2.706.213-.882.04-1.762-.474-2.415-.519-.66-1.347-1.037-2.273-1.037h-6.158c-5.968 0-11.95 4.675-13.332 10.421l-25.295 105.158c-.611 2.543-.151 4.953 1.294 6.788 1.465 1.86 3.745 2.884 6.42 2.884h47.128z"/><path stroke="#152a62" stroke-linejoin="round" stroke-miterlimit="10" d="m372.707 48.895 2.862 2.733-1.19 5.034-2.863-2.734zM370.679 57.168l2.862 2.734-1.19 5.034-2.863-2.734z"/><path fill="#e3e0fd" d="M311.784 185.709c22.14 0 40.088-1.725 40.088-3.854S333.924 178 311.784 178c-22.139 0-40.087 1.726-40.087 3.855s17.948 3.854 40.087 3.854"/><path fill="#e3e0fd" stroke="#152a62" stroke-miterlimit="10" d="m274.382 156.174 1.769-2.312.56.278a13.4 13.4 0 0 1 .367-3.278l25.294-105.157c1.994-8.29 9.671-15.01 18.285-15.01h45.72c.586 0 1.153.038 1.709.099l1.627-2.43 6.23 6.23.01.009.128.127-.002.012c2.706 2.754 3.863 6.852 2.759 11.438l-25.294 105.157c-1.845 7.67-9.802 13.889-17.774 13.889h-47.127c-3.688 0-6.718-1.342-8.744-3.532z"/><path fill="#f5f4f9" stroke="#152a62" stroke-miterlimit="10" d="M346.15 161.737c-3.065 2.163-6.717 3.486-10.379 3.486h-47.127c-3.688 0-6.718-1.341-8.743-3.531l-5.518-5.519 1.769-2.311.559.278a13.3 13.3 0 0 1 .355-3.216l61.209 2.937z"/><path fill="#152a62" stroke="#152a62" stroke-miterlimit="10" d="M282.476 159.055h47.127c7.971 0 15.929-6.218 17.774-13.888l25.295-105.158C374.666 31.719 369.298 25 360.684 25h-44.795c-8.615 0-17.215 6.72-19.209 15.009l-25.295 105.158c-1.846 7.67 3.12 13.888 11.091 13.888Z"/><path fill="#fff" stroke="#152a62" stroke-miterlimit="10" d="M330.853 154.652c5.325 0 10.663-4.173 11.896-9.301l25.295-105.157c.683-2.84.172-5.53-1.442-7.576-1.634-2.074-4.18-3.216-7.169-3.216h-6.156c-1.793 0-3.523 1.354-3.939 3.083-.574 2.389-3.128 4.26-5.815 4.26h-16.64c-1.262 0-2.288-.42-2.891-1.185-.552-.7-.707-1.635-.449-2.706.212-.882.039-1.762-.474-2.415-.52-.66-1.347-1.037-2.273-1.037h-6.158c-5.969 0-11.95 4.675-13.332 10.421l-25.295 105.158c-.612 2.543-.152 4.953 1.293 6.788 1.465 1.86 3.745 2.884 6.421 2.884h47.128z"/><path stroke="#152a62" stroke-linejoin="round" stroke-miterlimit="10" d="m372.64 48.895 2.863 2.733-1.191 5.034-2.862-2.734zM370.613 57.168l2.862 2.734-1.191 5.034-2.862-2.734z"/><path fill="#e3e0fd" d="M311.718 185.709c22.139 0 40.087-1.725 40.087-3.854S333.857 178 311.718 178s-40.088 1.726-40.088 3.855 17.948 3.854 40.088 3.854"/><path fill="#89c8ff" stroke="#152a62" stroke-miterlimit="10" d="M349.673 73.133h-45.258c-2.875 0-4.702-2.185-4.079-4.88l5.165-22.372c.621-2.696 3.456-4.881 6.33-4.881h45.259c2.875 0 4.701 2.185 4.079 4.88l-5.165 22.372c-.622 2.696-3.456 4.881-6.331 4.881Z"/><path fill="#152a62" d="M337.893 51.318h-25.396c-.734 0-1.2-.558-1.041-1.246l.329-1.427c.159-.689.883-1.247 1.617-1.247h25.396c.735 0 1.201.559 1.042 1.247l-.329 1.427c-.159.688-.883 1.246-1.618 1.246M329.122 57.155h-18.328c-.538 0-.88-.408-.763-.913l.146-.635c.117-.505.647-.914 1.185-.914h18.328c.538 0 .88.41.764.914l-.147.635c-.116.505-.647.913-1.185.913M313.877 66.83h-5.315c-.538 0-.88-.41-.763-.914l.146-.636c.117-.504.647-.913 1.185-.913h5.315c.538 0 .88.409.764.913l-.147.636c-.116.505-.647.913-1.185.913"/><rect width="9.246" height="9.246" fill="#152a62" rx="2" transform="matrix(1 0 -.22495 .97437 346.114 48.371)"/><path fill="#ffb7ad" stroke="#152a62" stroke-miterlimit="10" d="M340.397 111.133h-45.259c-2.875 0-4.701-2.185-4.079-4.881l5.165-22.371c.622-2.696 3.456-4.881 6.331-4.881h45.258c2.875 0 4.702 2.185 4.079 4.88l-5.165 22.372c-.621 2.696-3.456 4.881-6.33 4.881Z"/><path fill="#152a62" d="M328.617 89.318h-25.396c-.735 0-1.201-.558-1.042-1.246l.33-1.427c.159-.689.882-1.247 1.617-1.247h25.396c.734 0 1.2.559 1.042 1.247l-.33 1.427c-.159.688-.883 1.246-1.617 1.246M319.846 95.155h-18.328c-.538 0-.88-.408-.764-.913l.147-.635c.116-.505.647-.914 1.185-.914h18.328c.538 0 .88.41.763.914l-.146.635c-.117.505-.647.913-1.185.913M304.601 104.829h-5.315c-.538 0-.88-.408-.764-.913l.147-.636c.117-.504.647-.913 1.185-.913h5.315c.538 0 .88.409.763.913l-.146.636c-.117.505-.647.913-1.185.913"/><rect width="9.246" height="9.246" fill="#152a62" rx="2" transform="matrix(1 0 -.22495 .97437 336.838 86.371)"/><path fill="#fff" stroke="#152a62" stroke-miterlimit="10" d="M331.397 149.133h-45.259c-2.875 0-4.701-2.185-4.079-4.881l5.165-22.371c.622-2.696 3.456-4.881 6.331-4.881h45.258c2.875 0 4.702 2.185 4.079 4.881l-5.165 22.371c-.621 2.696-3.456 4.881-6.33 4.881Z"/><path fill="#152a62" d="M319.617 127.318h-25.396c-.735 0-1.201-.558-1.042-1.246l.33-1.427c.159-.689.882-1.247 1.617-1.247h25.396c.734 0 1.2.559 1.042 1.247l-.33 1.427c-.159.689-.883 1.246-1.617 1.246M310.846 133.155h-18.328c-.538 0-.88-.408-.764-.913l.147-.635c.116-.505.647-.914 1.185-.914h18.328c.538 0 .88.409.763.914l-.146.635c-.117.505-.647.913-1.185.913M295.601 142.829h-5.315c-.538 0-.88-.408-.764-.913l.147-.636c.117-.504.647-.913 1.185-.913h5.315c.538 0 .88.409.763.913l-.146.636c-.117.505-.647.913-1.185.913"/><rect width="9.246" height="9.246" fill="#152a62" rx="2" transform="matrix(1 0 -.22495 .97437 327.838 124.371)"/></g><defs><clipPath id="a"><path fill="#fff" d="M0 16C0 7.163 7.163 0 16 0h768c8.837 0 16 7.163 16 16v182c0 8.837-7.163 16-16 16H16c-8.837 0-16-7.163-16-16z"/></clipPath></defs></svg>