<svg xmlns="http://www.w3.org/2000/svg" width="16" height="16" fill="none" viewBox="0 0 16 16"><path fill="#fff" d="M8 14.666a5.8 5.8 0 0 1-2.341-.475 6.1 6.1 0 0 1-1.9-1.284 6.1 6.1 0 0 1-1.284-1.9A5.8 5.8 0 0 1 2 8.666h1.333q0 1.95 1.359 3.308Q6.05 13.333 8 13.333t3.308-1.359 1.359-3.308-1.359-3.309Q9.95 4 8 4h-.1l1.033 1.034L8 5.999 5.333 3.333 8 .666l.933.967L7.9 2.666H8q1.25 0 2.342.475 1.091.475 1.9 1.283.808.809 1.283 1.9A5.8 5.8 0 0 1 14 8.666q0 1.25-.475 2.341a6.1 6.1 0 0 1-1.283 1.9q-.809.81-1.9 1.284A5.8 5.8 0 0 1 8 14.666"/></svg>