<svg xmlns="http://www.w3.org/2000/svg" width="800" height="214" fill="none" viewBox="0 0 800 214"><g clip-path="url(#a)"><path fill="#f5f4f9" d="M0 16C0 7.163 7.163 0 16 0h768c8.837 0 16 7.163 16 16v182c0 8.837-7.163 16-16 16H16c-8.837 0-16-7.163-16-16z"/><path fill="#e3e0fd" d="M464.882 55H335.868C324.895 55 316 63.895 316 74.868v64.216c0 10.973 8.895 19.868 19.868 19.868h129.014c10.973 0 19.868-8.895 19.868-19.868V74.868c0-10.973-8.895-19.868-19.868-19.868"/><path fill="#e3e0fd" stroke="#152a62" stroke-miterlimit="10" d="m349.449 154.174 1.768-2.312.561.278a13.3 13.3 0 0 1 .366-3.278l25.295-105.157c1.994-8.29 9.67-15.01 18.284-15.01h45.72c.586 0 1.154.038 1.709.099l1.628-2.43 6.23 6.23.009.009.129.127-.003.012c2.706 2.754 3.863 6.852 2.76 11.438L428.61 149.337c-1.844 7.67-9.802 13.889-17.774 13.889h-47.127c-3.687 0-6.718-1.342-8.743-3.532z"/><path fill="#f5f4f9" stroke="#152a62" stroke-miterlimit="10" d="M421.216 159.737c-3.064 2.163-6.717 3.486-10.379 3.486H363.71c-3.687 0-6.718-1.341-8.742-3.531l-5.518-5.519 1.768-2.311.559.278a13.4 13.4 0 0 1 .355-3.216l61.209 2.937z"/><path fill="#152a62" stroke="#152a62" stroke-miterlimit="10" d="M357.543 157.055h47.126c7.971 0 15.929-6.218 17.775-13.888l25.294-105.158C449.732 29.719 444.365 23 435.751 23h-44.796c-8.615 0-17.215 6.72-19.209 15.009l-25.294 105.158c-1.846 7.67 3.12 13.888 11.091 13.888Z"/><path fill="#fff" stroke="#152a62" stroke-miterlimit="10" d="M405.919 152.652c5.326 0 10.663-4.173 11.897-9.301L443.11 38.194c.683-2.84.172-5.53-1.441-7.576-1.635-2.074-4.181-3.216-7.169-3.216h-6.157c-1.793 0-3.523 1.354-3.939 3.083-.574 2.389-3.128 4.26-5.814 4.26h-16.641c-1.262 0-2.288-.42-2.89-1.185-.553-.7-.708-1.635-.45-2.706.213-.882.04-1.762-.474-2.415-.519-.66-1.347-1.037-2.273-1.037h-6.158c-5.968 0-11.95 4.675-13.332 10.421l-25.295 105.158c-.611 2.543-.151 4.953 1.294 6.788 1.465 1.86 3.745 2.884 6.42 2.884h47.128z"/><path stroke="#152a62" stroke-linejoin="round" stroke-miterlimit="10" d="m447.707 46.895 2.862 2.733-1.19 5.034-2.863-2.734zM445.679 55.168l2.862 2.734-1.19 5.034-2.863-2.734z"/><path fill="#e3e0fd" d="M386.784 183.709c22.14 0 40.088-1.725 40.088-3.854S408.924 176 386.784 176c-22.139 0-40.087 1.726-40.087 3.855s17.948 3.854 40.087 3.854"/><path fill="#e3e0fd" stroke="#152a62" stroke-miterlimit="10" d="m349.382 154.174 1.769-2.312.56.278a13.4 13.4 0 0 1 .367-3.278l25.294-105.157c1.994-8.29 9.671-15.01 18.285-15.01h45.72c.586 0 1.153.038 1.709.099l1.627-2.43 6.23 6.23.01.009.128.127-.002.012c2.706 2.754 3.863 6.852 2.759 11.438l-25.294 105.157c-1.845 7.67-9.802 13.889-17.774 13.889h-47.127c-3.688 0-6.718-1.342-8.744-3.532z"/><path fill="#f5f4f9" stroke="#152a62" stroke-miterlimit="10" d="M421.15 159.737c-3.065 2.163-6.717 3.486-10.379 3.486h-47.127c-3.688 0-6.718-1.341-8.743-3.531l-5.518-5.519 1.769-2.311.559.278a13.3 13.3 0 0 1 .355-3.216l61.209 2.937z"/><path fill="#152a62" stroke="#152a62" stroke-miterlimit="10" d="M357.476 157.055h47.127c7.971 0 15.929-6.218 17.774-13.888l25.295-105.158C449.666 29.719 444.298 23 435.684 23h-44.795c-8.615 0-17.215 6.72-19.209 15.009l-25.295 105.158c-1.846 7.67 3.12 13.888 11.091 13.888Z"/><path fill="#fff" stroke="#152a62" stroke-miterlimit="10" d="M405.853 152.652c5.325 0 10.663-4.173 11.896-9.301l25.295-105.157c.683-2.84.172-5.53-1.442-7.576-1.634-2.074-4.18-3.216-7.169-3.216h-6.156c-1.793 0-3.523 1.354-3.939 3.083-.574 2.389-3.128 4.26-5.815 4.26h-16.64c-1.262 0-2.288-.42-2.891-1.185-.552-.7-.707-1.635-.449-2.706.212-.882.039-1.762-.474-2.415-.52-.66-1.347-1.037-2.273-1.037h-6.158c-5.969 0-11.95 4.675-13.332 10.421l-25.295 105.158c-.612 2.543-.152 4.953 1.293 6.788 1.465 1.86 3.745 2.884 6.421 2.884h47.128z"/><path stroke="#152a62" stroke-linejoin="round" stroke-miterlimit="10" d="m447.64 46.895 2.863 2.733-1.191 5.034-2.862-2.734zM445.613 55.168l2.862 2.734-1.191 5.034-2.862-2.734z"/><path fill="#e3e0fd" d="M386.718 183.709c22.139 0 40.087-1.725 40.087-3.854S408.857 176 386.718 176s-40.088 1.726-40.088 3.855 17.948 3.854 40.088 3.854"/></g><defs><clipPath id="a"><path fill="#fff" d="M0 16C0 7.163 7.163 0 16 0h768c8.837 0 16 7.163 16 16v182c0 8.837-7.163 16-16 16H16c-8.837 0-16-7.163-16-16z"/></clipPath></defs></svg>