<svg xmlns="http://www.w3.org/2000/svg" width="120" height="40" fill="none" viewBox="0 0 120 40"><rect width="119" height="39" x=".5" y=".5" fill="#0c0d10" rx="6.5"/><rect width="119" height="39" x=".5" y=".5" stroke="#a6a6a6" rx="6.5"/><path fill="#fff" d="M81.526 19.201v2.291H80.09v1.503h1.436V28.1c0 1.743.788 2.44 2.772 2.44.349 0 .68-.041.971-.091v-1.486c-.249.025-.406.042-.68.042-.888 0-1.279-.415-1.279-1.362v-4.648h1.96v-1.503h-1.96v-2.29zM90.323 30.665c2.64 0 4.259-1.768 4.259-4.698 0-2.914-1.627-4.69-4.259-4.69-2.64 0-4.266 1.776-4.266 4.69 0 2.93 1.618 4.698 4.266 4.698m0-1.586c-1.552 0-2.424-1.137-2.424-3.113 0-1.959.872-3.104 2.424-3.104 1.544 0 2.424 1.146 2.424 3.105 0 1.967-.88 3.112-2.424 3.112M95.966 30.49h1.785v-5.337c0-1.27.955-2.125 2.308-2.125.315 0 .846.058.996.108v-1.76c-.191-.05-.531-.075-.797-.075-1.179 0-2.183.648-2.44 1.536h-.133v-1.386h-1.719zM105.486 22.796c1.32 0 2.183.921 2.225 2.34h-4.566c.1-1.41 1.021-2.34 2.341-2.34m2.216 5.254c-.332.706-1.07 1.096-2.15 1.096-1.427 0-2.349-1.005-2.407-2.59v-.1h6.384v-.622c0-2.84-1.52-4.558-4.035-4.558-2.548 0-4.167 1.835-4.167 4.724 0 2.888 1.586 4.665 4.176 4.665 2.067 0 3.511-.996 3.918-2.615zM69.822 27.152c.138 2.22 1.987 3.64 4.74 3.64 2.943 0 4.784-1.489 4.784-3.863 0-1.867-1.05-2.9-3.596-3.493l-1.368-.336c-1.618-.379-2.271-.886-2.271-1.772 0-1.119 1.015-1.85 2.538-1.85 1.445 0 2.443.714 2.624 1.858h1.875c-.111-2.09-1.953-3.562-4.474-3.562-2.71 0-4.516 1.472-4.516 3.683 0 1.824 1.023 2.908 3.269 3.433l1.6.387c1.644.387 2.366.955 2.366 1.901 0 1.101-1.136 1.901-2.684 1.901-1.66 0-2.814-.748-2.977-1.927zM51.335 21.301c-1.229 0-2.291.615-2.84 1.644h-.132v-1.494h-1.718v12.044h1.784v-4.374h.142c.473.954 1.494 1.519 2.78 1.519 2.283 0 3.736-1.801 3.736-4.674 0-2.872-1.453-4.665-3.752-4.665m-.507 7.737c-1.494 0-2.432-1.179-2.432-3.063 0-1.893.938-3.072 2.44-3.072 1.511 0 2.416 1.154 2.416 3.064 0 1.917-.905 3.07-2.424 3.07M61.332 21.301c-1.229 0-2.291.615-2.84 1.644h-.132v-1.494h-1.718v12.044h1.784v-4.374h.141c.474.954 1.495 1.519 2.781 1.519 2.283 0 3.736-1.801 3.736-4.674 0-2.872-1.453-4.665-3.752-4.665m-.507 7.737c-1.494 0-2.432-1.179-2.432-3.063 0-1.893.938-3.072 2.44-3.072 1.511 0 2.416 1.154 2.416 3.064 0 1.917-.905 3.07-2.424 3.07M43.443 30.49h2.047l-4.482-12.414h-2.073L34.452 30.49h1.979l1.144-3.295h4.732zm-3.57-10.16h.146l1.798 5.248h-3.751zM40.398 12.09q0 1.414-.785 2.164-.785.746-2.261.746h-1.598V9.29h1.766q1.362 0 2.12.733.758.735.758 2.067m-.984.031q0-2.05-1.918-2.05h-.809v4.144h.665q2.062 0 2.062-2.094m5.95.711q0 1.059-.544 1.652-.543.594-1.511.594-.605 0-1.07-.273a1.8 1.8 0 0 1-.716-.785q-.25-.512-.25-1.188 0-1.05.54-1.64.538-.59 1.519-.59.938 0 1.484.605.547.602.547 1.625m-3.145 0q0 1.496 1.105 1.496 1.095 0 1.094-1.496 0-1.48-1.102-1.48-.577 0-.84.382-.257.383-.257 1.098M49.965 15l-.559-2.016q-.101-.32-.367-1.488h-.035a22 22 0 0 1-.36 1.496L48.07 15h-1.015l-1.211-4.32h.937l.551 2.129q.188.789.266 1.351h.023a9 9 0 0 1 .258-1.207l.656-2.273h1.008l.637 2.273q.058.192.144.586.09.395.106.613h.03q.06-.48.274-1.343l.559-2.13h.922L50.996 15zm6.797 0h-.922v-2.656q0-.5-.203-.746-.2-.246-.637-.246-.582 0-.852.343-.27.345-.27 1.153V15h-.917v-4.32h.719l.129.566h.047q.195-.309.554-.476a1.9 1.9 0 0 1 .797-.168q1.555 0 1.555 1.582zm2.195 0h-.918V8.922h.918zm5.149-2.168q0 1.059-.543 1.652-.544.594-1.512.594-.605 0-1.07-.273a1.8 1.8 0 0 1-.715-.785q-.25-.512-.25-1.188 0-1.05.539-1.64.54-.59 1.52-.59.936 0 1.484.605.547.602.547 1.625m-3.145 0q0 1.496 1.105 1.496 1.094 0 1.094-1.496 0-1.48-1.101-1.48-.579 0-.84.382-.258.383-.258 1.098M67.867 15l-.183-.602h-.032q-.312.395-.629.54-.315.14-.812.14-.637 0-.996-.344-.356-.343-.356-.972 0-.669.497-1.008.495-.34 1.511-.371l.746-.024v-.23q0-.414-.195-.617-.192-.207-.598-.207-.332 0-.636.097a5 5 0 0 0-.586.23l-.297-.655q.35-.184.77-.278.417-.097.788-.097.825 0 1.243.359.42.36.421 1.129V15zm-1.367-.625q.5 0 .8-.277.306-.282.306-.786v-.374l-.555.023q-.65.023-.945.219-.293.19-.293.59 0 .288.171.449.172.156.516.156m4.762.703q-.81 0-1.262-.586-.453-.586-.453-1.644 0-1.063.457-1.653.461-.594 1.273-.593.852 0 1.297.628h.047a5.5 5.5 0 0 1-.066-.734V8.922h.922V15h-.72l-.16-.566h-.042q-.442.644-1.293.644m.246-.742q.566 0 .824-.316.257-.322.266-1.036v-.129q0-.816-.266-1.16-.265-.343-.832-.343a.84.84 0 0 0-.746.394q-.262.39-.262 1.117 0 .72.254 1.098.254.375.762.375m6.277.664h-.918v-4.32h.918zm-.972-5.465q0-.246.132-.379.137-.132.387-.133.243 0 .375.133.137.133.137.38 0 .234-.137.37-.132.133-.375.133-.25 0-.387-.133a.5.5 0 0 1-.132-.37M82.903 15h-.922v-2.656q0-.5-.204-.746-.2-.246-.636-.246-.582 0-.852.343-.27.345-.27 1.153V15h-.917v-4.32h.718l.13.566h.046q.195-.309.555-.476a1.9 1.9 0 0 1 .797-.168q1.554 0 1.554 1.582zm4.812.078q-.81 0-1.262-.586Q86 13.906 86 12.848q0-1.063.457-1.653.46-.594 1.274-.593.851 0 1.296.628h.047a5.5 5.5 0 0 1-.066-.734V8.922h.922V15h-.72l-.16-.566h-.042q-.441.644-1.293.644m.246-.742q.566 0 .824-.316.257-.322.266-1.036v-.129q0-.816-.266-1.16-.265-.343-.832-.343a.84.84 0 0 0-.746.394q-.262.39-.262 1.117 0 .72.254 1.098.254.375.762.375m5.168.742q-1.008 0-1.578-.586-.567-.59-.567-1.62 0-1.06.528-1.665.526-.605 1.449-.605.854 0 1.352.52.496.518.496 1.429v.496h-2.88q.02.63.34.969.321.336.903.336.383 0 .71-.07.333-.075.712-.243v.746q-.335.16-.68.227-.344.066-.785.066m-.168-3.781q-.438 0-.703.277-.262.278-.313.809h1.961q-.007-.535-.258-.809-.249-.277-.687-.277M24.769 20.301a4.99 4.99 0 0 1 2.357-4.152 5.13 5.13 0 0 0-3.992-2.158c-1.679-.176-3.307 1.005-4.163 1.005-.872 0-2.19-.987-3.608-.958a5.36 5.36 0 0 0-4.473 2.728c-1.934 3.348-.491 8.27 1.361 10.976.927 1.325 2.01 2.806 3.428 2.753 1.387-.057 1.905-.884 3.58-.884 1.658 0 2.144.884 3.59.85 1.489-.023 2.426-1.33 3.32-2.668a11 11 0 0 0 1.52-3.093 4.82 4.82 0 0 1-2.92-4.399M22.037 12.211a4.87 4.87 0 0 0 1.115-3.49 4.96 4.96 0 0 0-3.208 1.66 4.68 4.68 0 0 0-1.143 3.36 4.15 4.15 0 0 0 3.236-1.53"/></svg>