<svg xmlns="http://www.w3.org/2000/svg" width="135" height="40" fill="none" viewBox="0 0 135 40"><rect width="134" height="39" x=".5" y=".5" fill="#000" rx="4.5"/><rect width="134" height="39" x=".5" y=".5" stroke="#a6a6a6" rx="4.5"/><path fill="#fff" d="M106.935 30h1.866V17.498h-1.866zm16.807-7.998-2.139 5.42h-.064l-2.22-5.42h-2.01l3.33 7.575-1.899 4.214h1.946l5.131-11.789zm-10.583 6.578c-.61 0-1.463-.306-1.463-1.062 0-.965 1.062-1.334 1.978-1.334.82 0 1.207.176 1.705.418a2.26 2.26 0 0 1-2.22 1.978m.226-6.851c-1.351 0-2.75.595-3.329 1.914l1.656.691c.354-.691 1.013-.916 1.705-.916.965 0 1.946.578 1.962 1.608v.128c-.338-.193-1.062-.482-1.946-.482-1.786 0-3.603.98-3.603 2.814 0 1.673 1.464 2.75 3.104 2.75 1.254 0 1.947-.562 2.38-1.222h.065v.966h1.802v-4.794c0-2.22-1.658-3.457-3.796-3.457m-11.532 1.795h-2.654v-4.285h2.654c1.395 0 2.187 1.154 2.187 2.142 0 .969-.792 2.143-2.187 2.143m-.048-6.026h-4.472V30H99.2v-4.736h2.606c2.068 0 4.101-1.497 4.101-3.883 0-2.385-2.033-3.883-4.101-3.883M77.423 28.582c-1.289 0-2.368-1.08-2.368-2.56 0-1.5 1.08-2.595 2.368-2.595 1.273 0 2.272 1.095 2.272 2.594 0 1.482-1 2.561-2.272 2.561m2.143-5.88H79.5c-.418-.5-1.224-.95-2.239-.95-2.127 0-4.076 1.869-4.076 4.27 0 2.383 1.95 4.236 4.076 4.236 1.015 0 1.82-.451 2.24-.967h.064v.612c0 1.628-.87 2.497-2.272 2.497-1.143 0-1.852-.821-2.142-1.514l-1.627.677c.467 1.127 1.707 2.513 3.77 2.513 2.19 0 4.043-1.289 4.043-4.43v-7.637h-1.772zM82.627 30h1.869V17.498h-1.868zm4.624-4.124c-.049-1.644 1.273-2.481 2.223-2.481.741 0 1.37.37 1.58.902zm5.8-1.418c-.355-.95-1.434-2.706-3.642-2.706-2.19 0-4.011 1.723-4.011 4.253 0 2.384 1.805 4.253 4.22 4.253 1.95 0 3.078-1.192 3.545-1.885l-1.45-.967c-.483.71-1.143 1.176-2.094 1.176s-1.627-.435-2.062-1.289l5.686-2.352zm-45.309-1.401v1.804h4.318c-.129 1.015-.467 1.756-.983 2.271-.628.628-1.611 1.321-3.335 1.321-2.658 0-4.736-2.142-4.736-4.8s2.078-4.801 4.736-4.801c1.434 0 2.481.564 3.255 1.289l1.273-1.273c-1.08-1.031-2.514-1.82-4.528-1.82-3.641 0-6.702 2.964-6.702 6.605 0 3.64 3.06 6.605 6.702 6.605 1.966 0 3.448-.645 4.608-1.853 1.192-1.192 1.563-2.867 1.563-4.221 0-.418-.033-.805-.097-1.127zm11.08 5.525c-1.29 0-2.402-1.063-2.402-2.577 0-1.53 1.112-2.578 2.401-2.578s2.4 1.047 2.4 2.578c0 1.514-1.111 2.577-2.4 2.577m0-6.83c-2.354 0-4.27 1.788-4.27 4.253 0 2.448 1.916 4.253 4.27 4.253 2.351 0 4.268-1.805 4.268-4.253 0-2.465-1.917-4.253-4.269-4.253m9.312 6.83c-1.288 0-2.4-1.063-2.4-2.577 0-1.53 1.112-2.578 2.4-2.578 1.29 0 2.4 1.047 2.4 2.578 0 1.514-1.11 2.577-2.4 2.577m0-6.83c-2.352 0-4.269 1.788-4.269 4.253 0 2.448 1.917 4.253 4.27 4.253s4.269-1.805 4.269-4.253c0-2.465-1.917-4.253-4.27-4.253M46.336 12.264q-.84.864-2.096.864t-2.104-.864q-.84-.871-.84-2.128 0-1.256.84-2.12.848-.872 2.104-.872 1.247 0 2.096.872.848.872.848 2.12 0 1.256-.848 2.128m-3.656-.48q.64.64 1.56.64t1.552-.64q.64-.648.64-1.648t-.64-1.64a2.08 2.08 0 0 0-1.552-.648 2.1 2.1 0 0 0-1.56.648q-.632.64-.632 1.64t.632 1.648M48.053 13V7.272h.896l2.784 4.456h.032l-.032-1.104V7.272h.736V13H51.7l-2.912-4.672h-.032l.032 1.104V13zm5.57 0V7.272h1.752q1.32 0 2.112.8.792.792.792 2.064t-.792 2.072q-.792.792-2.112.792zm.736-.704h1.016q.992 0 1.568-.568.584-.569.584-1.592 0-1.015-.584-1.584-.576-.576-1.568-.576h-1.016zm8.14-4.32H59.89v1.816h2.352v.688H59.89v1.816h2.608V13h-3.344V7.272h3.344zm5.231-.704v.032L65.602 9.76l2.272 3.208V13h-.904l-1.864-2.672-.88 1.016V13h-.736V7.272h.736v2.952h.032l2.52-2.952zM70.42 13h-.736V7.976h-1.6v-.704h3.936v.704h-1.6zm4.126 0V7.272h.736v2.456h2.864V7.272h.736V13h-.736v-2.584H75.28V13zm8.828-5.024h-2.608v1.816h2.352v.688h-2.352v1.816h2.608V13H80.03V7.272h3.344zM86.317 13h-.736V7.976h-1.6v-.704h3.936v.704h-1.6zm8.73-.736q-.84.864-2.096.864t-2.104-.864q-.84-.871-.84-2.128 0-1.256.84-2.12.848-.872 2.104-.872 1.248 0 2.096.872t.848 2.12q0 1.256-.848 2.128m-3.656-.48q.64.64 1.56.64t1.552-.64q.64-.648.64-1.648t-.64-1.64a2.08 2.08 0 0 0-1.552-.648 2.1 2.1 0 0 0-1.56.648q-.632.64-.632 1.64t.632 1.648M97.499 13h-.736V7.272h1.953q.728 0 1.256.488.536.48.536 1.216t-.536 1.224q-.528.48-1.256.48H97.5zm0-3.024h1.233q.464 0 .743-.312.28-.312.28-.688t-.28-.688-.743-.312h-1.233z"/><path fill="#ea4335" d="m20.715 19.423-10.647 11.3.002.007a2.875 2.875 0 0 0 4.236 1.734l.034-.02 11.984-6.915z"/><path fill="#fbbc04" d="m31.486 17.5-.01-.008-5.174-2.999-5.829 5.187 5.85 5.848 5.146-2.97a2.877 2.877 0 0 0 .017-5.059"/><path fill="#4285f4" d="M10.068 9.277a2.8 2.8 0 0 0-.098.74v19.967q.001.385.098.74l11.013-11.011z"/><path fill="#34a853" d="m20.793 20 5.51-5.509-11.97-6.94a2.882 2.882 0 0 0-4.265 1.722v.004z"/></svg>