<svg xmlns="http://www.w3.org/2000/svg" width="38" height="27" fill="none" viewBox="6.25 4 38.4 26.88"><path fill="url(#a)" d="M6.25 12.192c0-2.867 0-4.301.558-5.396a5.12 5.12 0 0 1 2.238-2.238C10.14 4 11.575 4 14.442 4h22.016c2.867 0 4.301 0 5.396.558a5.12 5.12 0 0 1 2.238 2.238c.558 1.095.558 2.529.558 5.396v10.496c0 2.867 0 4.301-.558 5.396a5.12 5.12 0 0 1-2.238 2.238c-1.095.558-2.529.558-5.396.558H14.442c-2.867 0-4.301 0-5.396-.558a5.12 5.12 0 0 1-2.238-2.238c-.558-1.095-.558-2.529-.558-5.396z"/><path fill="#383ede" fill-opacity=".5" d="M6.25 12.192c0-2.867 0-4.301.558-5.396a5.12 5.12 0 0 1 2.238-2.238C10.14 4 11.575 4 14.442 4h22.016c2.867 0 4.301 0 5.396.558a5.12 5.12 0 0 1 2.238 2.238c.558 1.095.558 2.529.558 5.396v10.496c0 2.867 0 4.301-.558 5.396a5.12 5.12 0 0 1-2.238 2.238c-1.095.558-2.529.558-5.396.558H14.442c-2.867 0-4.301 0-5.396-.558a5.12 5.12 0 0 1-2.238-2.238c-.558-1.095-.558-2.529-.558-5.396z"/><path fill="#fff" fill-rule="evenodd" d="M18.67 4h8.964l2.537 6.972c.62 1.701.929 2.552.593 3.272-.336.721-1.187 1.03-2.888 1.65l-.698.254c-1.701.62-2.552.929-3.272.593-.721-.336-1.03-1.187-1.65-2.888zm7.897 9.424a1.404 1.404 0 1 0-.96-2.639 1.404 1.404 0 0 0 .96 2.639" clip-rule="evenodd"/><defs><linearGradient id="a" x1="7.421" x2="48.993" y1="4" y2="17.155" gradientUnits="userSpaceOnUse"><stop stop-color="#576ee8"/><stop offset="1" stop-color="#8060ff"/></linearGradient></defs></svg>