<?xml version="1.0" encoding="UTF-8" standalone="no"?><svg xmlns="http://www.w3.org/2000/svg" xmlns:xlink="http://www.w3.org/1999/xlink" contentStyleType="text/css" height="1256.25px" preserveAspectRatio="none" style="width:956px;height:1256px;" version="1.1" viewBox="0 0 956 1256" width="956.25px" zoomAndPan="magnify"><defs><linearGradient id="gfxmd8jrrgbc20" x1="50%" x2="50%" y1="0%" y2="100%"><stop offset="0%" stop-color="#59B6EC"/><stop offset="100%" stop-color="#2FA4E7"/></linearGradient><linearGradient id="gfxmd8jrrgbc21" x1="50%" x2="50%" y1="0%" y2="100%"><stop offset="0%" stop-color="#35638F"/><stop offset="100%" stop-color="#033C73"/></linearGradient></defs><g><rect fill="#EDF0F2" height="992.6531" style="stroke:#BABDBF;stroke-width:1.0416666666666667;" width="10.4167" x="312.5" y="145.5086"/><rect fill="#EDF0F2" height="908.6029" style="stroke:#BABDBF;stroke-width:1.0416666666666667;" width="10.4167" x="494.7917" y="229.5588"/><rect fill="#EDF0F2" height="84.0502" style="stroke:#BABDBF;stroke-width:1.0416666666666667;" width="10.4167" x="673.9583" y="313.609"/><rect fill="#EDF0F2" height="208.4007" style="stroke:#BABDBF;stroke-width:1.0416666666666667;" width="10.4167" x="834.8958" y="929.761"/><rect fill="none" height="125.3921" rx="4.1667" ry="4.1667" style="stroke:#59B6EC;stroke-width:1.0416666666666667;" width="368.75" x="390.1042" y="455.3094"/><rect fill="none" height="125.3921" rx="4.1667" ry="4.1667" style="stroke:#59B6EC;stroke-width:1.0416666666666667;" width="368.75" x="390.1042" y="721.3602"/><line style="stroke:#BABDBF;stroke-width:1.0416666666666667;stroke-dasharray:5.0,5.0;" x1="37.5" x2="37.5" y1="101.4001" y2="1156.9117"/><line style="stroke:#BABDBF;stroke-width:1.0416666666666667;stroke-dasharray:5.0,5.0;" x1="144.7917" x2="144.7917" y1="101.4001" y2="1156.9117"/><line style="stroke:#BABDBF;stroke-width:1.0416666666666667;stroke-dasharray:5.0,5.0;" x1="317.1875" x2="317.1875" y1="101.4001" y2="1156.9117"/><line style="stroke:#BABDBF;stroke-width:1.0416666666666667;stroke-dasharray:5.0,5.0;" x1="499.4792" x2="499.4792" y1="101.4001" y2="1156.9117"/><line style="stroke:#BABDBF;stroke-width:1.0416666666666667;stroke-dasharray:5.0,5.0;" x1="678.6458" x2="678.6458" y1="101.4001" y2="1156.9117"/><line style="stroke:#BABDBF;stroke-width:1.0416666666666667;stroke-dasharray:5.0,5.0;" x1="840.1042" x2="840.1042" y1="101.4001" y2="1156.9117"/><text fill="#343A40" font-family="Verdana" font-size="12.5" lengthAdjust="spacing" textLength="28.125" x="20.8333" y="92.5293">User</text><ellipse cx="38.0208" cy="19.7917" fill="url(#gfxmd8jrrgbc20)" rx="8.3333" ry="8.3333" style="stroke:#2FA4E7;stroke-width:1.0416666666666667;"/><path d="M38.0208,28.125 L38.0208,56.25 M24.4792,36.4583 L51.5625,36.4583 M38.0208,56.25 L24.4792,71.875 M38.0208,56.25 L51.5625,71.875 " fill="none" style="stroke:#2FA4E7;stroke-width:1.0416666666666667;"/><text fill="#343A40" font-family="Verdana" font-size="12.5" lengthAdjust="spacing" textLength="28.125" x="20.8333" y="1174.4409">User</text><ellipse cx="38.0208" cy="1192.6868" fill="url(#gfxmd8jrrgbc20)" rx="8.3333" ry="8.3333" style="stroke:#2FA4E7;stroke-width:1.0416666666666667;"/><path d="M38.0208,1201.0201 L38.0208,1229.1451 M24.4792,1209.3535 L51.5625,1209.3535 M38.0208,1229.1451 L24.4792,1244.7701 M38.0208,1229.1451 L51.5625,1244.7701 " fill="none" style="stroke:#2FA4E7;stroke-width:1.0416666666666667;"/><rect fill="url(#gfxmd8jrrgbc20)" height="42.0251" rx="4.1667" ry="4.1667" style="stroke:#2FA4E7;stroke-width:1.0416666666666667;" width="64.5833" x="112.5" y="58.3333"/><text fill="#FFFFFF" font-family="Verdana" font-size="12.5" lengthAdjust="spacing" textLength="39.5833" x="125" y="84.1959">Device</text><rect fill="url(#gfxmd8jrrgbc20)" height="42.0251" rx="4.1667" ry="4.1667" style="stroke:#2FA4E7;stroke-width:1.0416666666666667;" width="64.5833" x="112.5" y="1155.87"/><text fill="#FFFFFF" font-family="Verdana" font-size="12.5" lengthAdjust="spacing" textLength="39.5833" x="125" y="1181.7326">Device</text><rect fill="url(#gfxmd8jrrgbc20)" height="42.0251" rx="4.1667" ry="4.1667" style="stroke:#2FA4E7;stroke-width:1.0416666666666667;" width="61.4583" x="286.9792" y="58.3333"/><text fill="#FFFFFF" font-family="Verdana" font-size="12.5" lengthAdjust="spacing" textLength="36.4583" x="299.4792" y="84.1959">Wallet</text><rect fill="url(#gfxmd8jrrgbc20)" height="42.0251" rx="4.1667" ry="4.1667" style="stroke:#2FA4E7;stroke-width:1.0416666666666667;" width="61.4583" x="286.9792" y="1155.87"/><text fill="#FFFFFF" font-family="Verdana" font-size="12.5" lengthAdjust="spacing" textLength="36.4583" x="299.4792" y="1181.7326">Wallet</text><rect fill="url(#gfxmd8jrrgbc20)" height="42.0251" rx="4.1667" ry="4.1667" style="stroke:#2FA4E7;stroke-width:1.0416666666666667;" width="115.625" x="442.1875" y="58.3333"/><text fill="#FFFFFF" font-family="Verdana" font-size="12.5" lengthAdjust="spacing" textLength="90.625" x="454.6875" y="84.1959">DigidConnector</text><rect fill="url(#gfxmd8jrrgbc20)" height="42.0251" rx="4.1667" ry="4.1667" style="stroke:#2FA4E7;stroke-width:1.0416666666666667;" width="115.625" x="442.1875" y="1155.87"/><text fill="#FFFFFF" font-family="Verdana" font-size="12.5" lengthAdjust="spacing" textLength="90.625" x="454.6875" y="1181.7326">DigidConnector</text><rect fill="url(#gfxmd8jrrgbc20)" height="42.0251" rx="4.1667" ry="4.1667" style="stroke:#2FA4E7;stroke-width:1.0416666666666667;" width="55.2083" x="651.5625" y="58.3333"/><text fill="#FFFFFF" font-family="Verdana" font-size="12.5" lengthAdjust="spacing" textLength="30.2083" x="664.0625" y="84.1959">Digid</text><rect fill="url(#gfxmd8jrrgbc20)" height="42.0251" rx="4.1667" ry="4.1667" style="stroke:#2FA4E7;stroke-width:1.0416666666666667;" width="55.2083" x="651.5625" y="1155.87"/><text fill="#FFFFFF" font-family="Verdana" font-size="12.5" lengthAdjust="spacing" textLength="30.2083" x="664.0625" y="1181.7326">Digid</text><rect fill="url(#gfxmd8jrrgbc20)" height="42.0251" rx="4.1667" ry="4.1667" style="stroke:#2FA4E7;stroke-width:1.0416666666666667;" width="79.1667" x="800.5208" y="58.3333"/><text fill="#FFFFFF" font-family="Verdana" font-size="12.5" lengthAdjust="spacing" textLength="54.1667" x="813.0208" y="84.1959">PidIssuer</text><rect fill="url(#gfxmd8jrrgbc20)" height="42.0251" rx="4.1667" ry="4.1667" style="stroke:#2FA4E7;stroke-width:1.0416666666666667;" width="79.1667" x="800.5208" y="1155.87"/><text fill="#FFFFFF" font-family="Verdana" font-size="12.5" lengthAdjust="spacing" textLength="54.1667" x="813.0208" y="1181.7326">PidIssuer</text><rect fill="#EDF0F2" height="992.6531" style="stroke:#BABDBF;stroke-width:1.0416666666666667;" width="10.4167" x="312.5" y="145.5086"/><rect fill="#EDF0F2" height="908.6029" style="stroke:#BABDBF;stroke-width:1.0416666666666667;" width="10.4167" x="494.7917" y="229.5588"/><rect fill="#EDF0F2" height="84.0502" style="stroke:#BABDBF;stroke-width:1.0416666666666667;" width="10.4167" x="673.9583" y="313.609"/><rect fill="#EDF0F2" height="208.4007" style="stroke:#BABDBF;stroke-width:1.0416666666666667;" width="10.4167" x="834.8958" y="929.761"/><polygon fill="#2FA4E7" points="300,141.3419,310.4167,145.5086,300,149.6752,304.1667,145.5086" style="stroke:#2FA4E7;stroke-width:1.0416666666666667;"/><line style="stroke:#2FA4E7;stroke-width:3.125;" x1="38.0208" x2="306.25" y1="145.5086" y2="145.5086"/><text fill="#343A40" font-family="Verdana" font-size="12.5" lengthAdjust="spacing" textLength="170.8333" x="50.5208" y="134.5544">Click Button(Login with DigiD)</text><polygon fill="#2FA4E7" points="156.25,183.367,145.8333,187.5337,156.25,191.7004,152.0833,187.5337" style="stroke:#2FA4E7;stroke-width:1.0416666666666667;"/><line style="stroke:#2FA4E7;stroke-width:3.125;" x1="150" x2="311.4583" y1="187.5337" y2="187.5337"/><text fill="#343A40" font-family="Verdana" font-size="12.5" lengthAdjust="spacing" textLength="73.9583" x="167.7083" y="176.5795">Authenticate</text><polygon fill="#2FA4E7" points="482.2917,225.3921,492.7083,229.5588,482.2917,233.7255,486.4583,229.5588" style="stroke:#2FA4E7;stroke-width:1.0416666666666667;"/><line style="stroke:#2FA4E7;stroke-width:3.125;" x1="144.7917" x2="488.5417" y1="229.5588" y2="229.5588"/><text fill="#343A40" font-family="Verdana" font-size="12.5" lengthAdjust="spacing" textLength="73.9583" x="157.2917" y="218.6046">Authenticate</text><polygon fill="#2FA4E7" points="156.25,267.4173,145.8333,271.5839,156.25,275.7506,152.0833,271.5839" style="stroke:#2FA4E7;stroke-width:1.0416666666666667;"/><line style="stroke:#2FA4E7;stroke-width:3.125;" x1="150" x2="493.75" y1="271.5839" y2="271.5839"/><text fill="#343A40" font-family="Verdana" font-size="12.5" lengthAdjust="spacing" textLength="123.9583" x="167.7083" y="260.6297">Redirect to DigiD App</text><polygon fill="#2FA4E7" points="661.4583,309.4424,671.875,313.609,661.4583,317.7757,665.625,313.609" style="stroke:#2FA4E7;stroke-width:1.0416666666666667;"/><line style="stroke:#2FA4E7;stroke-width:3.125;" x1="144.7917" x2="667.7083" y1="313.609" y2="313.609"/><text fill="#343A40" font-family="Verdana" font-size="12.5" lengthAdjust="spacing" textLength="92.7083" x="157.2917" y="302.6549">Open DigiD App</text><polygon fill="#2FA4E7" points="661.4583,351.4675,671.875,355.6342,661.4583,359.8008,665.625,355.6342" style="stroke:#2FA4E7;stroke-width:1.0416666666666667;"/><line style="stroke:#2FA4E7;stroke-width:3.125;" x1="38.0208" x2="667.7083" y1="355.6342" y2="355.6342"/><text fill="#343A40" font-family="Verdana" font-size="12.5" lengthAdjust="spacing" textLength="73.9583" x="50.5208" y="344.68">Authenticate</text><polygon fill="#2FA4E7" points="156.25,393.4926,145.8333,397.6593,156.25,401.826,152.0833,397.6593" style="stroke:#2FA4E7;stroke-width:1.0416666666666667;"/><line style="stroke:#2FA4E7;stroke-width:3.125;" x1="150" x2="678.125" y1="397.6593" y2="397.6593"/><text fill="#343A40" font-family="Verdana" font-size="12.5" lengthAdjust="spacing" textLength="186.4583" x="167.7083" y="386.7051">Redirect back to DigidConnector</text><polygon fill="#2FA4E7" points="482.2917,435.5177,492.7083,439.6844,482.2917,443.8511,486.4583,439.6844" style="stroke:#2FA4E7;stroke-width:1.0416666666666667;"/><line style="stroke:#2FA4E7;stroke-width:3.125;" x1="144.7917" x2="488.5417" y1="439.6844" y2="439.6844"/><text fill="#343A40" font-family="Verdana" font-size="12.5" lengthAdjust="spacing" textLength="47.9167" x="157.2917" y="428.7302">Redirect</text><path d="M394.2708,455.3094 L468.2292,455.3094 L468.2292,474.4179 L457.8125,484.8345 L390.1042,484.8345 L390.1042,459.4761 A4.1667,4.1667 0 0 1 394.2708,455.3094 " fill="#E9ECEF" style="stroke:#868E96;stroke-width:1.0416666666666667;"/><rect fill="none" height="125.3921" rx="4.1667" ry="4.1667" style="stroke:#59B6EC;stroke-width:1.0416666666666667;" width="368.75" x="390.1042" y="455.3094"/><text fill="#033C73" font-family="Verdana" font-size="12.5" font-weight="bold" lengthAdjust="spacing" textLength="20.8333" x="410.9375" y="474.922">opt</text><text fill="#343A40" font-family="Verdana" font-size="12.5" font-weight="bold" lengthAdjust="spacing" textLength="168.75" x="489.0625" y="475.9637">[SAML Artifact Resolution?]</text><polygon fill="#2FA4E7" points="666.6667,526.1764,677.0833,530.3431,666.6667,534.5098,670.8333,530.3431" style="stroke:#2FA4E7;stroke-width:1.0416666666666667;"/><line style="stroke:#2FA4E7;stroke-width:3.125;" x1="505.2083" x2="672.9167" y1="530.3431" y2="530.3431"/><text fill="#343A40" font-family="Verdana" font-size="12.5" lengthAdjust="spacing" textLength="127.0833" x="517.7083" y="519.3889">Resolve SAML Artifact</text><polygon fill="#2FA4E7" points="516.6667,568.2015,506.25,572.3682,516.6667,576.5349,512.5,572.3682" style="stroke:#2FA4E7;stroke-width:1.0416666666666667;"/><line style="stroke:#2FA4E7;stroke-width:3.125;stroke-dasharray:2.0,2.0;" x1="510.4167" x2="678.125" y1="572.3682" y2="572.3682"/><text fill="#343A40" font-family="Verdana" font-size="12.5" lengthAdjust="spacing" textLength="20.8333" x="528.125" y="561.414">bsn</text><polygon fill="#2FA4E7" points="156.25,617.5183,145.8333,621.685,156.25,625.8517,152.0833,621.685" style="stroke:#2FA4E7;stroke-width:1.0416666666666667;"/><line style="stroke:#2FA4E7;stroke-width:3.125;" x1="150" x2="493.75" y1="621.685" y2="621.685"/><text fill="#343A40" font-family="Verdana" font-size="12.5" lengthAdjust="spacing" textLength="102.0833" x="167.7083" y="610.7308">Redirect to Wallet</text><polygon fill="#2FA4E7" points="300,659.5435,310.4167,663.7101,300,667.8768,304.1667,663.7101" style="stroke:#2FA4E7;stroke-width:1.0416666666666667;"/><line style="stroke:#2FA4E7;stroke-width:3.125;" x1="144.7917" x2="306.25" y1="663.7101" y2="663.7101"/><text fill="#343A40" font-family="Verdana" font-size="12.5" lengthAdjust="spacing" textLength="132.2917" x="157.2917" y="652.7559">Redirect back to Wallet</text><polygon fill="#2FA4E7" points="482.2917,701.5686,492.7083,705.7352,482.2917,709.9019,486.4583,705.7352" style="stroke:#2FA4E7;stroke-width:1.0416666666666667;"/><line style="stroke:#2FA4E7;stroke-width:3.125;" x1="322.9167" x2="488.5417" y1="705.7352" y2="705.7352"/><text fill="#343A40" font-family="Verdana" font-size="12.5" lengthAdjust="spacing" textLength="101.0417" x="335.4167" y="694.781">Get access_token</text><path d="M394.2708,721.3602 L468.2292,721.3602 L468.2292,740.4687 L457.8125,750.8854 L390.1042,750.8854 L390.1042,725.5269 A4.1667,4.1667 0 0 1 394.2708,721.3602 " fill="#E9ECEF" style="stroke:#868E96;stroke-width:1.0416666666666667;"/><rect fill="none" height="125.3921" rx="4.1667" ry="4.1667" style="stroke:#59B6EC;stroke-width:1.0416666666666667;" width="368.75" x="390.1042" y="721.3602"/><text fill="#033C73" font-family="Verdana" font-size="12.5" font-weight="bold" lengthAdjust="spacing" textLength="20.8333" x="410.9375" y="740.9728">opt</text><text fill="#343A40" font-family="Verdana" font-size="12.5" font-weight="bold" lengthAdjust="spacing" textLength="168.75" x="489.0625" y="742.0145">[SAML Artifact Resolution?]</text><polygon fill="#2FA4E7" points="666.6667,792.2273,677.0833,796.3939,666.6667,800.5606,670.8333,796.3939" style="stroke:#2FA4E7;stroke-width:1.0416666666666667;"/><line style="stroke:#2FA4E7;stroke-width:3.125;" x1="505.2083" x2="672.9167" y1="796.3939" y2="796.3939"/><text fill="#343A40" font-family="Verdana" font-size="12.5" lengthAdjust="spacing" textLength="127.0833" x="517.7083" y="785.4397">Resolve SAML Artifact</text><polygon fill="#2FA4E7" points="516.6667,834.2524,506.25,838.419,516.6667,842.5857,512.5,838.419" style="stroke:#2FA4E7;stroke-width:1.0416666666666667;"/><line style="stroke:#2FA4E7;stroke-width:3.125;stroke-dasharray:2.0,2.0;" x1="510.4167" x2="678.125" y1="838.419" y2="838.419"/><text fill="#343A40" font-family="Verdana" font-size="12.5" lengthAdjust="spacing" textLength="20.8333" x="528.125" y="827.4649">bsn</text><polygon fill="#2FA4E7" points="334.375,883.5692,323.9583,887.7358,334.375,891.9025,330.2083,887.7358" style="stroke:#2FA4E7;stroke-width:1.0416666666666667;"/><line style="stroke:#2FA4E7;stroke-width:3.125;stroke-dasharray:2.0,2.0;" x1="328.125" x2="493.75" y1="887.7358" y2="887.7358"/><text fill="#343A40" font-family="Verdana" font-size="12.5" lengthAdjust="spacing" textLength="102.0833" x="345.8333" y="876.7816">Jwt(access_token)</text><polygon fill="#2FA4E7" points="822.3958,925.5943,832.8125,929.761,822.3958,933.9276,826.5625,929.761" style="stroke:#2FA4E7;stroke-width:1.0416666666666667;"/><line style="stroke:#2FA4E7;stroke-width:3.125;" x1="322.9167" x2="828.6458" y1="929.761" y2="929.761"/><text fill="#343A40" font-family="Verdana" font-size="12.5" lengthAdjust="spacing" textLength="148.9583" x="335.4167" y="918.8068">Create PID(access_token)</text><polygon fill="#2FA4E7" points="516.6667,967.6194,506.25,971.7861,516.6667,975.9527,512.5,971.7861" style="stroke:#2FA4E7;stroke-width:1.0416666666666667;"/><line style="stroke:#2FA4E7;stroke-width:3.125;" x1="510.4167" x2="833.8542" y1="971.7861" y2="971.7861"/><text fill="#343A40" font-family="Verdana" font-size="12.5" lengthAdjust="spacing" textLength="157.2917" x="528.125" y="960.8319">Get userinfo(access_token)</text><polygon fill="#2FA4E7" points="822.3958,1009.6445,832.8125,1013.8112,822.3958,1017.9779,826.5625,1013.8112" style="stroke:#2FA4E7;stroke-width:1.0416666666666667;"/><line style="stroke:#2FA4E7;stroke-width:3.125;stroke-dasharray:2.0,2.0;" x1="505.2083" x2="828.6458" y1="1013.8112" y2="1013.8112"/><text fill="#343A40" font-family="Verdana" font-size="12.5" lengthAdjust="spacing" textLength="76.0417" x="517.7083" y="1002.857">Jwe(userinfo)</text><path d="M735.4167,1031.5195 L735.4167,1095.0612 A4.1667,4.1667 0 0 0 739.5833,1099.2279 L939.5833,1099.2279 A4.1667,4.1667 0 0 0 943.75,1095.0612 L943.75,1037.7695 L933.3333,1027.3529 L739.5833,1027.3529 A4.1667,4.1667 0 0 0 735.4167,1031.5195 " fill="url(#gfxmd8jrrgbc21)" style="stroke:#033C73;stroke-width:1.0416666666666667;"/><path d="M933.3333,1027.3529 L933.3333,1035.6862 A2.0833,2.0833 0 0 0 935.4167,1037.7695 L943.75,1037.7695 L933.3333,1027.3529 " fill="url(#gfxmd8jrrgbc21)" style="stroke:#033C73;stroke-width:1.0416666666666667;"/><text fill="#FFFFFF" font-family="Verdana" font-size="12.5" lengthAdjust="spacing" textLength="129.1667" x="746.875" y="1051.1321">PidIssuer decrypts the</text><text fill="#FFFFFF" font-family="Verdana" font-size="12.5" lengthAdjust="spacing" textLength="176.0417" x="746.875" y="1068.1572">Jwe(userinfo) to obtain the bsn</text><text fill="#FFFFFF" font-family="Verdana" font-size="12.5" lengthAdjust="spacing" textLength="131.25" x="746.875" y="1085.1824">And generates the PID</text><polygon fill="#2FA4E7" points="329.1667,1133.995,318.75,1138.1617,329.1667,1142.3283,325,1138.1617" style="stroke:#2FA4E7;stroke-width:1.0416666666666667;"/><line style="stroke:#2FA4E7;stroke-width:3.125;stroke-dasharray:2.0,2.0;" x1="322.9167" x2="839.0625" y1="1138.1617" y2="1138.1617"/><text fill="#343A40" font-family="Verdana" font-size="12.5" lengthAdjust="spacing" textLength="20.8333" x="340.625" y="1127.2075">PID</text><!--SRC=[tLJBRi903BplLxYdme4Vu42L4ga2KHMrgdgiyZ2m8lL66mVKlwz3OCcJL3rsRuazu_7Ok_TmnplyGWYJ75EhYTNvHuGsJp0WfOA8ZONt3ArA0yiwqcb033uUT8HA5O79x2D84kGfp1CTxU4nPpOqMfcj9ZXgte6ljzeV5rpw4312cQ_WVChFoQmadOANYmgIMfBhaigW90bNF3T4M2ZhINQLwjakxaXhuQk2LuorbN_0fXGFNfgsqLL9KtX9aMvarpMrmfTJEdgcx6okiuaExM4WmpWtSCE360UKzJb_AQHQ29Col7dFA_1aOpP2BxcPINBMXXvkzr4THkd12Nh0Ek606MsnOKOj35Byfureh6_JfyjjQ0sY1-VMlo7v2LcM9i8i-sIpH_h7DbzDMnvvL6rwt6lNMiUBBCjHgiuj5kkxNlW3MBVf3gnwMtGftPF9vPvgsfY1YhqDL-GlZpYwqFKpa17Tve2s8Xu6ZikKMnxPxvGpa0Tb45OJL6ok2JcGnromdHDk7ezYs2AX5QjF5OlHzA9aFqxD_M8Irptf8goyP6sBci_SzK6iH4hs7m00]--></g></svg>