<svg xmlns="http://www.w3.org/2000/svg" width="753.91" height="339.26"><path fill="#ec0000" d="M753.91 210.04c-2.05-.86-13.17 1.02-13.1-1.16-.14-9.35-.02-18.71-.05-28.07.26-5.86-.91-13.75-8.02-14.57-9.25-1.86-14.84 6.76-13.99 15.15v25.43c0 3.21.29 3.04-2.92 3.04-3.35-.07-6.72.15-10.06-.11-.17-.02-.47-.31-.49-.47-.34-10.28 0-20.63-.13-30.94 1.93-16.77-20.62-15.85-21.81-.94-.37 9.74-.05 19.51-.15 29.26-.2 1.03.51 2.84-.85 3.16-3.99.05-8 .11-11.99-.03-1.26-.41-.57-2.22-.75-3.23v-47.98c.06-2.15-.53-3.66 2.41-3.28 3.28.04 6.56-.1 9.83.08.17.01.5.29.51.44.49 1.3-.86 10.63 1.63 5.89 5.31-8.51 17.57-9.82 25.98-5.44 2.88 1.57 4.86 4.12 6.39 6.97.12.21.48.27.61.11 5.27-8.97 17.09-11.66 26.41-7.87 6.56 2.57 9.12 9.02 10.58 15.21v39.35ZM19.65 120.16c9.6 8.77 18.54 18.53 27.92 27.62 2.02 2.02 1.93 2.29 3.98.13 8.77-8.76 17.52-17.53 26.29-26.28.7-.48 1.32-1.91 2.25-1.27 6.34 6.32 12.73 12.6 18.97 19.01.47.84-.86 1.44-1.25 2.07-3.73 3.74-7.46 7.46-11.19 11.2-5.5 5.67-11.38 11.07-16.68 16.88-.11 1.1 1.34 1.75 1.93 2.57l25.61 25.61c.81 1.03 2.66 1.89.95 3.12L80.45 218.8c-.3.33-.82.76-1.21.37-9.19-9.01-18.21-18.19-27.34-27.27-.81-.51-1.69-2.49-2.77-1.72-9.4 9.26-18.66 18.65-28.01 27.95-1.38 1.45-1.64 1.53-3.11-.14L1.39 201.37c-.6-.74-2.03-1.53-.87-2.41 9.03-9.06 18.09-18.09 27.13-27.14.48-.75 2-1.43 1.65-2.42-1.08-1.29-2.34-2.4-3.5-3.61-8.54-8.64-17.29-17.08-25.71-25.84-.32-.44.42-.83.62-1.17 6.38-6.09 12.33-12.91 18.95-18.62Zm9.78-70.66c-8.9-9.57-18.54-18.56-27.69-27.93C.73 20.46-.91 19.62 1 18.29 6.77 12.51 12.53 6.75 18.31.98c.52-.47 1.23-1.48 1.91-.69 9.2 9.13 18.33 18.32 27.51 27.46 2.32 2.73 2.44 1.13 4.49-.69L77.5 1.78c.81-.52 1.54-2.27 2.58-1.62 5.82 5.71 11.54 11.53 17.33 17.28.55.71 1.96 1.42 1.69 2.41-9.53 10-19.71 19.46-29.21 29.47 8.6 10.46 19.88 19.72 29.2 29.93.32.62-.49 1.12-.83 1.56-6.17 6.04-12.09 12.35-18.39 18.24-1.07.19-1.75-1.36-2.56-1.91L51.86 71.69c-2.11-2.22-2.21-2.47-4.34-.12-8.66 8.65-17.3 17.31-25.96 25.95-1.08.92-1.8 2.49-3.13.7C12.6 92.4 6.78 86.57.95 80.75c-1.83-1.44-.16-2.06.89-3.28 9.08-9.4 18.91-18.31 27.61-27.97Zm20.08 260.44c-10.07 9.41-19.53 19.59-29.46 29.19-.9.56-1.59-.9-2.24-1.36C11.93 331.79 5.83 326 .08 319.9c8.32-9.86 18.88-18.9 27.94-28.48 2.17-1.93 1.31-2.03-.39-3.82-9.1-9.4-18.89-18.28-27.63-27.93 5.57-6.21 11.86-11.88 17.68-17.9.7-.49 1.47-2.1 2.42-1.44 9.38 9.28 18.66 18.66 28.01 27.97 1.95 2.47 2.42.3 4.15-1.11 8.6-8.59 17.19-17.19 25.79-25.78.88-.79 1.55-1.97 2.6-.55l17.64 17.64c.35.42 1.17.95.82 1.56-9.03 9.28-18.31 18.32-27.43 27.52-2.32 2.2-2.22 2.18.05 4.35 8.59 8.6 17.19 17.19 25.78 25.79 1.17 1.35 2.65 1.87.56 3.46-5.77 5.77-11.53 11.54-17.3 17.3-.47.46-1.13 1.23-1.75.52-9.96-9.47-19.26-20.08-29.52-29.03ZM225.73 63.57v17.51c-.13 1.03.38 2.48-.66 3.12-5.81 3.08-12.05 5.15-18.52 6.35-37.69 8.25-66-19.48-54.02-57.06 7.46-22.79 34.1-30.39 55.52-24.51 2.44.2 16.82 6.33 15.44 8.86-3.42 3.03-6.36 7.36-10.12 9.68-6.03-5.11-13.82-7.7-21.71-7.5-23.6.2-33.7 27.85-22.31 46.4 5.46 9.21 16.04 13.56 26.5 12.49 4.5-.52 12.72-1.23 15.64-4.78.08-5.91.09-11.83-.02-17.75-.08-1.79-13.27-.39-15.66-.87-1.16-.06-.82-1.58-.88-2.39.07-3.27-.16-6.56.12-9.82.02-.17.32-.46.48-.49 9.33-.31 18.71-.01 28.05-.11.71.08 1.85-.21 2.05.72.22 6.71.03 13.43.09 20.14Zm8.9 118.9v-24.23c.17-.9-.37-2.39.59-2.85 15.37.24 11.45-2.68 12.46 7.65.72.18.97-1 1.37-1.44 2.4-3.64 5.74-5.99 9.94-7.04 7.83-1.93 17.64-.1 21.68 7.57 1.24 3.01 2.23-.5 3.41-1.58 5.45-6.78 15.4-8.06 23.31-5.45 12.27 4.3 12.22 19.14 11.93 30v21.83c-.13.96.41 2.65-.89 2.89-4.06-.04-8.18.25-12.22-.12-.87-.68-.31-2.19-.48-3.18v-25.67c.79-8.63-3.05-16.67-12.95-14.52-7.22 1.31-9.42 9.35-9.1 15.74-.06 9.03.15 18.07-.1 27.1-.01.25-.39.6-.65.62-4.06.08-8.17.18-12.22-.05-.86-.47-.38-1.83-.54-2.65v-29.75c.58-8.63-6.09-13.38-14.14-10.55-6.08 1.87-8.14 8.69-7.94 14.46.02 8.48 0 16.95 0 25.43-.08 1.53.49 3.52-1.83 3.17-3.67-.06-7.36.13-11.03-.09-.19-.02-.48-.28-.51-.45-.31-8.93-.01-17.91-.11-26.86Zm71.85-119.85V38.15c.06-.86-.29-2.12.46-2.72 3.79-.37 7.67-.11 11.49-.12 1.69.1.59 5.92.99 7.41.44.89 1.05-.6 1.33-.97 7-11.18 26.84-10.61 32.51 1.58.95.29 1.63-1.83 2.32-2.42 2.46-3.1 5.58-5.24 9.42-6.26 7.63-1.91 17.17-.7 21.91 6.23 3.48 4.98 4.26 11.25 4.17 17.19v29.02c0 1.25.31 2.96-1.54 2.71h-10.31c-.45 0-1.3.03-1.48-.51-.35-9.8-.02-19.67-.12-29.49.55-8.24-3.63-15.48-12.8-13.55-6.9 1.11-9.57 8.63-9.3 14.84 0 9.11.02 18.23 0 27.34-.02.99-.16 1.34-1.21 1.34-3.68.01-7.36 0-11.03 0-1.73.09-1.08-1.95-1.22-3.04 0-9.59-.02-19.19 0-28.78.61-8.75-5.48-14.14-14-11.26-6.49 1.89-8.5 9.22-8.08 15.28v24.71c-.07 1.85.51 3.43-2.1 3.12-3.59-.06-7.2.14-10.79-.11-.16-.01-.46-.33-.48-.49-.33-8.85-.02-17.75-.12-26.61Zm-87.53 147.25c-2.52-.29-5.8.63-8.01-.45-2.5-5.44-4.53-11.09-6.88-16.6-.27-.52-.43-1.35-1.12-1.43-10.95-.17-21.9-.02-32.85-.06-1.68 0-1.69.01-2.29 1.52-1.92 4.83-3.82 9.66-5.73 14.48-.52 1.1-.73 2.82-2.32 2.53-4.63-.07-9.28.15-13.9-.09-.84-.4.15-1.47.27-2.1 11.3-25.92 22.51-51.88 33.87-77.78.26-.57.94-.55 1.47-.57 3.59.08 7.21-.17 10.78.11 2.76 4.04 4.1 9.37 6.35 13.85 9.37 21.96 19.06 43.82 28.28 65.83.2 1.55-6.63.44-7.91.76Zm-33.07-30.63h10.78c.8.03 1.84-.12 1.41-1.21-3.65-9.71-7.34-19.4-10.99-29.1-.66-1.86-1.16-3.05-2.02-.37-3.8 9.82-7.59 19.64-11.36 29.48-.25.68.02 1.15.69 1.17 3.83.1 7.66.02 11.49.04Zm407.44-12.39c-.14 14.13.27 28.31-.15 42.42-.03.15-.35.49-.48.5-3.81.2-7.68.14-11.49.03-1.92-.37.86-10.97-2.29-6.38-5.05 6.7-14.14 8.62-22.09 7.45-15.58-1.7-24.32-17.96-22.12-32.55 1.9-22.36 28.97-32.92 44.67-16.5 1.19-11.36.03-23.98.42-35.75 0-2.28-.06-2.29 2.2-2.29 3.52.04 7.03-.08 10.55.06.28.02.63.32.67.59.35 14.12.01 28.29.13 42.42Zm-13.08 15.8c.75-16.71-22.6-23.1-30.27-8.28-4.92 8.78-.65 21.37 9.41 24.01 10.22 3.3 21.26-4.97 20.87-15.73Zm-119.41 4.65H442.6c-.74.15-2.07-.31-2.3.64.61 6.19 5.22 10.89 11.26 12.11 6.18 1.32 12.77-1 16.91-5.72 1.18-1.31 1.22-1.26 2.5-.29 2.42 1.83 4.85 3.66 7.27 5.5 1.97 1.2-1.05 2.9-1.86 3.95-8.34 8.09-21.43 9.61-32.04 5.52-23.79-8.78-22.83-43.82-1.37-52.33 23.12-9.51 40.76 5.7 38.79 29.84-.03.74-.91.8-1.5.79-6.48.02-12.95 0-19.43 0Zm-6.57-10.2c4.47-.06 8.96.14 13.42-.1 1.15-.45.36-2.14.26-3.03-1.87-11.44-19.21-13.38-25.17-4.27a14.6 14.6 0 0 0-2.46 6.43c-.06.3.02.67.3.82 4.48.41 9.11.02 13.64.15ZM678.39 67.23h-17.76c-.89.1-2.39-.37-2.83.65.61 6.05 4.68 10.46 10.51 11.98 3.84 1.06 8.08.48 11.71-1.11 2.51-1.13 4.57-2.94 6.4-4.96.56-.58.87-.63 1.44-.21 2.75 2.07 5.49 4.14 8.23 6.22.57.35.35 1.01-.06 1.39-10.94 13.27-33.39 13.17-44.81.55-13.11-13.94-7.49-39.76 11.02-45.84 21.99-7.84 38.5 6.86 37.03 29.44.04 1.36-.21 1.95-1.7 1.88-6.4.03-12.8 0-19.2.01Zm-6.73-10.15h12.7c2.27.2 1.17-2.19 1-3.5-2.32-11.69-20.61-12.91-25.78-2.79-.63 1.36-2.57 5.06-1.33 6.19 4.46.24 8.94.04 13.41.1M437.83 67.23c-6.71.05-13.43-.11-20.14.08-.28.01-.61.41-.58.66.8 5.95 4.84 10.51 10.64 11.92 6.04 1.48 12.63-.44 16.93-4.92.71-.48 1.22-1.85 2.18-1.61 2.82 1.96 5.49 4.13 8.25 6.17.56.34.96 1.01.38 1.54-6.14 7.51-15.98 10.93-25.52 9.93-29.06-1.76-36.69-41.77-10.54-54.18 22.9-9.81 40.95 5.03 39.22 29.22.1 1.46-1.65 1.09-2.62 1.18-6.07.01-12.15 0-18.22 0Zm-6.77-10.15c4.38-.02 8.77.04 13.15-.03 1.36-.01.8-1.65.71-2.53-1.41-12.05-19.73-14.21-25.56-4.43-.71 1.18-3.26 6.18-1.69 6.9 4.46.18 8.93.03 13.39.08Zm72.05 10.15h-18.22c-.74.07-2.07-.31-2.3.66.56 6.28 5.52 11.17 11.71 12.22 2.58.44 5.1.29 7.6-.32 3.82-.88 6.92-3.29 9.5-6.16.33-.34.75-.43 1.07-.19 2.87 2.17 5.74 4.34 8.6 6.51.27.2.29.57.08.84-12.74 16.39-42.41 12.72-50.06-6.86-6.21-14.44.81-33.03 16.11-38.08 22.18-7.79 38.49 7.21 36.89 29.83.1 1.53-.79 1.5-2.03 1.54-6.31.02-12.63 0-18.94 0Zm-6.46-10.15c4.47-.08 8.96.17 13.41-.11 1.05-.7.25-2.34.11-3.34-1.46-7.76-10.13-10.95-17.2-9.25-5.7 1.13-9.91 6.31-10.35 12.02-.02.29.28.6.6.62 4.47.14 8.95.03 13.42.06ZM273.1 67.23h-17.5c-1 .16-3.3-.54-3.06 1.1.84 5.2 4.31 9.55 9.35 11.17 6.22 2.18 13.54.25 18.11-4.45.76-.57 1.48-2.33 2.58-1.51 2.74 2.07 5.49 4.14 8.22 6.22.24.18.45.51.37.8-11.59 15.66-39.08 13.52-48.53-3.4-9.88-16.95.19-40.09 20.07-42.79 20.82-3.89 32.81 12.26 31.35 31.8-.13 1.69-2.34.87-3.45 1.07h-17.5Zm-6.61-10.15h12.68c1.98.19 1.24-1.6 1.1-2.81-1.73-12.28-20.83-13.86-26.02-3.3-.51 1.08-2.71 5.57-1.15 6.05 4.46.16 8.93.03 13.39.07Zm388.87 134.56v16.06c-.02.67.17 1.56-.47 2-3.67.27-7.54.19-11.23.03-.13-.03-.43-.38-.43-.53-.11-2.07.05-4.16-.18-6.21-.53-.83-1.23.75-1.62 1.11-5.93 7.49-16.98 8.59-25.49 5.38-11.27-3.51-14.33-19.33-5.38-26.9 8.9-7.18 21.16-6.38 31.95-6.76.28-.04.55-.42.59-.68.35-3.36-1.02-6.85-3.85-8.78-6.55-4.22-15.58-2.47-21.61 1.92-.64.29-1.25 1.4-2 .97-2.16-2-4.17-4.19-6.28-6.26-.24-.24-.22-.61.03-.85 8.51-8.22 21.92-9.99 33-6.81 15.77 4.66 12.77 23.46 12.98 36.3Zm-18.35-6.3v.03c-5.25.18-10.95.31-15.45 3.34-6.11 4.52-.87 12.47 5.67 12.27 9.38.97 16.23-4.93 15.11-14.57-.04-1.89-4.01-.8-5.34-1.08ZM537.04 62.37V38.38c.1-2.19-.55-3.33 2.35-3.1 3.34.1 6.76-.24 10.06.16 1.03 2.04.15 4.96.44 7.29 0 .94.55.75.91.13 4.22-8.47 14.93-10.57 23.42-7.97 6.8 1.98 11.1 8.19 12.14 15 1.06 13.03.28 26.23.38 39.31 0 .16-.3.48-.45.51-3.65.32-7.36.04-11.03.12-2.16.18-1.9-.91-1.93-2.6 0-8.08-.02-16.15 0-24.23.5-9.9-2.98-20.11-14.91-16.2-6.18 1.91-8.14 8.89-7.88 14.73.01 8.4 0 16.79 0 25.19-.19.97.43 2.59-.72 3.03-3.74.2-7.52.02-11.27.08-1.93.15-1.4-1.39-1.52-2.74-.01-8.24 0-16.47 0-24.71Zm-186.9 148.81c-7.26 0-15.14-2.19-20.13-7.84-.3-.33-.28-.7.08-1.04 1.52-.94 7.95-8.63 8.94-7.33 3.74 4.13 9.01 6.94 14.68 5.92 4.37-.3 9.21-4.92 5.99-9.21-6.34-5.77-16.66-3.6-23.41-9-4.99-3.58-6.03-10.45-4.44-16.06 1.83-6.9 8.61-10.97 15.29-12.18 8.47-1.51 18.4-.12 24.42 6.54.84.86.82 1.37-.13 2.12-2.44 2.19-4.85 4.4-7.32 6.57-1.03.85-1.59-.91-2.32-1.39-4.25-5.21-18.5-5.25-16.79 3.76 3.56 6.28 18.63 4.23 24.76 10.62 4.58 4 5.39 10.81 3.65 16.39-3.2 9.51-14.17 12.19-23.27 12.14Zm39.71-28.76c-.11-5.02.21-10.1-.13-15.1-.04-.14-.34-.47-.49-.48-2.87-.2-5.75-.04-8.63-.1-.64-.1-1.64.2-1.9-.57-.17-3.41-.14-6.88-.02-10.3.02-.17.3-.47.47-.48 2.63-.21 5.27-.05 7.91-.11.86-.14 2.48.37 2.72-.81.2-4.79-.1-9.59.16-14.38.01-.25.39-.59.65-.61 3.67-.12 7.36-.02 11.03-.05.64 0 1.69-.06 1.75.77 1.15 18.12-4.88 14.81 12.76 15.08 2.3 0 2.28-.07 2.28 2.2-.33 1.72.8 8.87-.75 9.2-4.55.19-9.11-.11-13.66.16-.17.01-.46.31-.48.48-.18 1.27-.08 2.55-.11 3.83v18.47c-.45 4.6 1.28 10.25 6.82 9.99 11.06.05 7.59-5.23 8.16 8.51.15 3.74-12.48 3-15.23 2.79-15.26-.96-13.32-17.36-13.33-28.5ZM607.41 62.21c-.85-18.9 4.17-14.85-10.87-15.6-.27-.1-.44-.5-.43-.79.3-13.27-2.69-10.09 10.47-10.61 1.71-.24.47-10.39.83-12.55.16-1.07-.53-3.15 1.04-3.21 3.91-.03 7.83-.12 11.74.05.31.02.63.32.64.61.76 21.72-3.92 12.95 14.93 15.63.26 3.38.08 6.88.07 10.29-.23 1.02-1.52.6-2.28.72-3.99.05-7.99-.1-11.98.09-.95.25-.55 1.58-.67 2.31v21.34c-.74 9.04 6.59 10.69 13.82 8.18.87-.33 1.15-.2 1.17.76-.06 3.19.15 6.41-.08 9.58-4.04 3.06-14.69 2.44-19.52.92-11.41-3.92-8.43-18.26-8.87-27.72ZM494.76 182.47v-24.21c.18-.89-.38-2.38.57-2.86 4.13-.14 8.33-.22 12.44.03.53.24.38 1.03.45 1.51.05 1.99-.08 4 .09 5.99.01.16.14.26.33.27 3.91-5.88 9.98-9.96 17.4-9.25 1.18.26 3.49.06 3.55 1.65 0 3.83.11 7.67-.05 11.5 0 .15-.38.47-.52.44-6.89-1.86-15.64-.67-19.03 6.4-1.44 2.73-1.87 5.78-1.77 8.83-.05 8.79.1 17.58-.07 26.36-.12.72-.98.73-1.56.72-3.75-.06-7.52.14-11.26-.09-.17-.02-.47-.31-.49-.47-.28-8.93-.02-17.89-.1-26.84Z"/></svg>